<svg width="1800" height="1210" viewBox="0 0 1800 1210" fill="none" xmlns="http://www.w3.org/2000/svg">
<path d="M171.754 160.5V842.93H1699.28" stroke="#CDCDCD"/>
<path d="M473 166.5V841.001" stroke="#CDCDCD" stroke-opacity="0.5" stroke-dasharray="12 12"/>
<path d="M787.501 383.5L171.5 383.5" stroke="#CDCDCD" stroke-opacity="0.5" stroke-dasharray="12 12"/>
<path d="M184 950.333C182.527 950.333 181.333 951.527 181.333 953C181.333 954.473 182.527 955.667 184 955.667C185.473 955.667 186.667 954.473 186.667 953C186.667 951.527 185.473 950.333 184 950.333ZM819 952.5L184 952.5L184 953.5L819 953.5L819 952.5Z" fill="#CDCDCD" fill-opacity="0.5"/>
<path d="M1693 953L1688 950.113L1688 955.887L1693 953ZM1688.5 952.5L952 952.5L952 953.5L1688.5 953.5L1688.5 952.5Z" fill="#CDCDCD" fill-opacity="0.5"/>
<path d="M469 160.5L171.5 160.5" stroke="#CDCDCD" stroke-opacity="0.5" stroke-dasharray="12 12"/>
<path d="M645 383.804V842.93" stroke="#CDCDCD" stroke-opacity="0.5" stroke-dasharray="12 12"/>
<path d="M1154 865V1025" stroke="#CDCDCD" stroke-opacity="0.75" stroke-linecap="square"/>
<path d="M1696 865V1025" stroke="#CDCDCD" stroke-opacity="0.75" stroke-linecap="square"/>
<path d="M172 865V1025" stroke="#CDCDCD" stroke-opacity="0.75" stroke-linecap="square"/>
<path d="M1154 383.804V842.93" stroke="#CDCDCD" stroke-opacity="0.5" stroke-dasharray="12 12"/>
<path d="M171.754 842.93C171.754 842.93 389 353 473 160C473 160 546.5 253.5 644.5 383.804H1153C1153 383.804 1153 842.93 1699 842.93" stroke="#00E494" stroke-width="3" stroke-miterlimit="5"/>
<path d="M124.959 597.851L124.959 602.044L98.7772 592.623L98.7772 588.059L124.959 578.637L124.959 582.83L103.533 590.232L103.533 590.436L124.959 597.851ZM114.706 597.148L114.706 583.546L118.03 583.546L118.03 597.148L114.706 597.148ZM124.959 575.163L105.323 575.163L105.323 571.494L108.519 571.494L108.519 571.251C107.436 570.842 106.593 570.173 105.987 569.244C105.374 568.315 105.067 567.202 105.067 565.907C105.067 564.594 105.374 563.495 105.987 562.609C106.601 561.714 107.445 561.053 108.519 560.627L108.519 560.423C107.47 559.954 106.635 559.208 106.013 558.185C105.382 557.163 105.067 555.944 105.067 554.529C105.067 552.748 105.625 551.295 106.742 550.17C107.858 549.036 109.541 548.469 111.791 548.469L124.959 548.469L124.959 552.292L112.149 552.292C110.82 552.292 109.857 552.654 109.26 553.379C108.664 554.103 108.365 554.968 108.365 555.974C108.365 557.218 108.749 558.185 109.516 558.876C110.274 559.566 111.25 559.911 112.443 559.911L124.959 559.911L124.959 563.721L111.906 563.721C110.841 563.721 109.985 564.053 109.337 564.718C108.689 565.383 108.365 566.248 108.365 567.313C108.365 568.038 108.557 568.707 108.941 569.32C109.316 569.925 109.84 570.415 110.513 570.79C111.186 571.157 111.966 571.34 112.852 571.34L124.959 571.34L124.959 575.163ZM132.323 543.346L105.323 543.346L105.323 539.613L108.506 539.613L108.506 539.294C108.097 539.072 107.624 538.752 107.087 538.335C106.55 537.917 106.081 537.338 105.681 536.596C105.271 535.855 105.067 534.875 105.067 533.656C105.067 532.071 105.468 530.656 106.269 529.412C107.07 528.167 108.225 527.191 109.733 526.484C111.242 525.768 113.057 525.41 115.179 525.41C117.301 525.41 119.121 525.764 120.638 526.471C122.146 527.179 123.31 528.15 124.128 529.386C124.938 530.622 125.343 532.032 125.343 533.618C125.343 534.811 125.142 535.787 124.742 536.545C124.341 537.295 123.872 537.883 123.335 538.309C122.798 538.735 122.321 539.064 121.904 539.294L121.904 539.524L132.323 539.524L132.323 543.346ZM115.141 539.6C116.521 539.6 117.732 539.4 118.771 539C119.811 538.599 120.625 538.02 121.213 537.261C121.793 536.502 122.083 535.574 122.083 534.474C122.083 533.332 121.78 532.377 121.175 531.61C120.561 530.843 119.73 530.264 118.682 529.872C117.634 529.471 116.453 529.271 115.141 529.271C113.845 529.271 112.682 529.467 111.651 529.859C110.619 530.243 109.806 530.822 109.209 531.598C108.612 532.365 108.314 533.324 108.314 534.474C108.314 535.582 108.6 536.52 109.171 537.287C109.742 538.045 110.539 538.62 111.561 539.012C112.584 539.404 113.777 539.6 115.141 539.6ZM98.7772 517.305L124.959 517.305L124.959 521.127L98.7772 521.127L98.7772 517.305ZM124.959 512.163L105.323 512.163L105.323 508.34L124.959 508.34L124.959 512.163ZM102.293 510.232C102.293 510.897 102.071 511.468 101.628 511.945C101.176 512.414 100.639 512.648 100.017 512.648C99.3865 512.648 98.8496 512.414 98.4064 511.945C97.9547 511.468 97.7289 510.897 97.7289 510.232C97.7289 509.567 97.9547 509.001 98.4064 508.532C98.8496 508.055 99.3865 507.816 100.017 507.816C100.639 507.816 101.176 508.055 101.628 508.532C102.071 509.001 102.293 509.567 102.293 510.232ZM105.323 494.032L108.391 494.032L108.391 504.757L105.323 504.757L105.323 494.032ZM100.618 501.881L100.618 498.059L119.193 498.059C119.935 498.059 120.493 497.948 120.868 497.726C121.235 497.505 121.486 497.219 121.622 496.87C121.75 496.512 121.814 496.124 121.814 495.706C121.814 495.399 121.793 495.131 121.75 494.901C121.708 494.671 121.673 494.492 121.648 494.364L124.806 493.674C124.891 493.895 124.976 494.211 125.061 494.62C125.155 495.029 125.206 495.54 125.215 496.154C125.232 497.159 125.053 498.097 124.678 498.966C124.303 499.836 123.723 500.539 122.939 501.076C122.155 501.613 121.171 501.881 119.986 501.881L100.618 501.881ZM116.816 477.364L105.323 477.364L105.323 473.529L124.959 473.529L124.959 477.288L121.558 477.288L121.558 477.492C122.607 477.944 123.48 478.668 124.179 479.665C124.869 480.654 125.215 481.886 125.215 483.36C125.215 484.621 124.938 485.738 124.384 486.71C123.821 487.673 122.99 488.431 121.891 488.985C120.791 489.531 119.432 489.803 117.813 489.803L105.323 489.803L105.323 485.981L117.352 485.981C118.691 485.981 119.756 485.61 120.548 484.869C121.341 484.127 121.737 483.164 121.737 481.979C121.737 481.263 121.558 480.552 121.2 479.844C120.843 479.129 120.301 478.536 119.577 478.067C118.852 477.59 117.932 477.356 116.816 477.364ZM125.343 461.042C125.343 462.627 124.938 464.042 124.128 465.287C123.31 466.522 122.146 467.494 120.638 468.201C119.121 468.9 117.301 469.25 115.179 469.25C113.057 469.25 111.242 468.896 109.733 468.189C108.225 467.473 107.07 466.493 106.269 465.248C105.468 464.004 105.067 462.593 105.067 461.017C105.067 459.798 105.271 458.818 105.681 458.076C106.081 457.326 106.55 456.747 107.087 456.338C107.624 455.92 108.097 455.596 108.506 455.366L108.506 455.136L98.7772 455.136L98.7772 451.314L124.959 451.314L124.959 455.047L121.904 455.047L121.904 455.366C122.321 455.596 122.798 455.929 123.335 456.363C123.872 456.789 124.341 457.377 124.742 458.127C125.142 458.877 125.343 459.849 125.343 461.042ZM122.083 460.199C122.083 459.099 121.793 458.17 121.213 457.412C120.625 456.645 119.811 456.065 118.771 455.673C117.732 455.272 116.521 455.072 115.141 455.072C113.777 455.072 112.584 455.268 111.561 455.66C110.539 456.052 109.742 456.627 109.171 457.386C108.6 458.145 108.314 459.082 108.314 460.199C108.314 461.349 108.612 462.308 109.209 463.075C109.806 463.842 110.619 464.422 111.651 464.814C112.682 465.197 113.845 465.389 115.141 465.389C116.453 465.389 117.634 465.193 118.682 464.801C119.73 464.409 120.561 463.829 121.175 463.062C121.78 462.287 122.083 461.332 122.083 460.199ZM125.355 437.395C125.355 439.33 124.942 440.996 124.115 442.393C123.28 443.783 122.108 444.857 120.6 445.615C119.083 446.365 117.306 446.74 115.269 446.74C113.257 446.74 111.485 446.365 109.95 445.615C108.416 444.857 107.219 443.8 106.358 442.445C105.497 441.081 105.067 439.487 105.067 437.663C105.067 436.555 105.25 435.482 105.617 434.442C105.983 433.402 106.558 432.469 107.343 431.642C108.127 430.815 109.145 430.163 110.398 429.686C111.642 429.209 113.155 428.97 114.936 428.97L116.291 428.97L116.291 444.58L113.428 444.58L113.428 432.716C112.422 432.716 111.531 432.92 110.756 433.33C109.972 433.739 109.354 434.314 108.902 435.055C108.45 435.788 108.225 436.649 108.225 437.638C108.225 438.712 108.489 439.649 109.017 440.45C109.537 441.243 110.219 441.857 111.063 442.291C111.898 442.717 112.806 442.93 113.786 442.93L116.023 442.93C117.335 442.93 118.452 442.7 119.372 442.24C120.293 441.771 120.996 441.119 121.482 440.284C121.959 439.449 122.198 438.473 122.198 437.357C122.198 436.632 122.095 435.972 121.891 435.375C121.678 434.778 121.362 434.263 120.945 433.828C120.527 433.393 120.012 433.061 119.398 432.831L120.05 429.213C121.115 429.503 122.048 430.023 122.85 430.773C123.642 431.514 124.26 432.447 124.703 433.572C125.138 434.689 125.355 435.963 125.355 437.395Z" fill="#CDCDCD"/>
<path d="M263.112 913.5H258.919L268.341 887.318H272.905L282.326 913.5H278.133L270.731 892.074H270.527L263.112 913.5ZM263.815 903.247H277.417V906.571H263.815V903.247ZM293.736 893.864V896.932H283.01V893.864H293.736ZM285.887 889.159H289.709V907.734C289.709 908.476 289.82 909.034 290.042 909.409C290.263 909.776 290.549 910.027 290.898 910.163C291.256 910.291 291.644 910.355 292.062 910.355C292.368 910.355 292.637 910.334 292.867 910.291C293.097 910.249 293.276 910.214 293.404 910.189L294.094 913.347C293.873 913.432 293.557 913.517 293.148 913.602C292.739 913.696 292.228 913.747 291.614 913.756C290.608 913.773 289.671 913.594 288.802 913.219C287.932 912.844 287.229 912.264 286.692 911.48C286.155 910.696 285.887 909.712 285.887 908.527V889.159ZM307.131 893.864V896.932H296.405V893.864H307.131ZM299.281 889.159H303.104V907.734C303.104 908.476 303.215 909.034 303.436 909.409C303.658 909.776 303.943 910.027 304.293 910.163C304.651 910.291 305.038 910.355 305.456 910.355C305.763 910.355 306.031 910.334 306.261 910.291C306.492 910.249 306.671 910.214 306.798 910.189L307.489 913.347C307.267 913.432 306.952 913.517 306.543 913.602C306.134 913.696 305.622 913.747 305.009 913.756C304.003 913.773 303.065 913.594 302.196 913.219C301.327 912.844 300.624 912.264 300.087 911.48C299.55 910.696 299.281 909.712 299.281 908.527V889.159ZM317.074 913.935C315.829 913.935 314.704 913.705 313.699 913.244C312.693 912.776 311.896 912.098 311.308 911.212C310.728 910.325 310.439 909.239 310.439 907.952C310.439 906.844 310.652 905.932 311.078 905.216C311.504 904.5 312.079 903.933 312.804 903.516C313.528 903.098 314.338 902.783 315.233 902.57C316.128 902.357 317.04 902.195 317.969 902.084C319.145 901.947 320.099 901.837 320.832 901.751C321.565 901.658 322.098 901.509 322.43 901.304C322.763 901.099 322.929 900.767 322.929 900.307V900.217C322.929 899.101 322.613 898.236 321.983 897.622C321.361 897.009 320.432 896.702 319.196 896.702C317.909 896.702 316.895 896.987 316.153 897.558C315.42 898.121 314.913 898.747 314.632 899.438L311.04 898.619C311.466 897.426 312.088 896.463 312.906 895.73C313.733 894.989 314.683 894.452 315.757 894.119C316.831 893.778 317.96 893.608 319.145 893.608C319.929 893.608 320.76 893.702 321.638 893.889C322.524 894.068 323.351 894.401 324.118 894.886C324.893 895.372 325.528 896.067 326.023 896.97C326.517 897.865 326.764 899.028 326.764 900.46V913.5H323.031V910.815H322.878C322.63 911.31 322.26 911.795 321.765 912.273C321.271 912.75 320.636 913.146 319.861 913.462C319.085 913.777 318.156 913.935 317.074 913.935ZM317.905 910.866C318.961 910.866 319.865 910.658 320.615 910.24C321.373 909.822 321.949 909.277 322.341 908.604C322.741 907.922 322.942 907.193 322.942 906.418V903.886C322.805 904.023 322.541 904.151 322.149 904.27C321.765 904.381 321.326 904.479 320.832 904.564C320.338 904.641 319.856 904.713 319.388 904.781C318.919 904.841 318.527 904.892 318.211 904.935C317.47 905.028 316.792 905.186 316.179 905.408C315.574 905.629 315.088 905.949 314.721 906.366C314.363 906.776 314.184 907.321 314.184 908.003C314.184 908.949 314.534 909.665 315.233 910.151C315.932 910.628 316.822 910.866 317.905 910.866ZM340.127 913.896C338.226 913.896 336.59 913.466 335.217 912.605C333.854 911.736 332.806 910.538 332.073 909.013C331.34 907.487 330.973 905.74 330.973 903.771C330.973 901.777 331.348 900.017 332.098 898.491C332.848 896.957 333.905 895.76 335.269 894.899C336.632 894.038 338.239 893.608 340.088 893.608C341.58 893.608 342.909 893.885 344.077 894.439C345.244 894.984 346.186 895.751 346.902 896.74C347.627 897.729 348.057 898.884 348.193 900.205H344.473C344.269 899.284 343.8 898.491 343.067 897.827C342.342 897.162 341.371 896.83 340.152 896.83C339.087 896.83 338.154 897.111 337.352 897.673C336.56 898.227 335.942 899.02 335.499 900.051C335.056 901.074 334.834 902.284 334.834 903.682C334.834 905.114 335.051 906.349 335.486 907.389C335.921 908.429 336.534 909.234 337.327 909.805C338.128 910.376 339.07 910.662 340.152 910.662C340.877 910.662 341.533 910.53 342.121 910.266C342.717 909.993 343.216 909.605 343.617 909.102C344.026 908.599 344.311 907.994 344.473 907.287H348.193C348.057 908.557 347.644 909.69 346.953 910.688C346.263 911.685 345.338 912.469 344.179 913.04C343.029 913.611 341.678 913.896 340.127 913.896ZM355.797 906.839L355.771 902.173H356.436L364.26 893.864H368.836L359.913 903.324H359.312L355.797 906.839ZM352.281 913.5V887.318H356.103V913.5H352.281ZM364.682 913.5L357.65 904.168L360.284 901.496L369.373 913.5H364.682Z" fill="#CDCDCD"/>
<path d="M518.352 913.5H509.876V887.318H518.621C521.186 887.318 523.389 887.842 525.23 888.891C527.071 889.93 528.482 891.426 529.462 893.378C530.45 895.321 530.945 897.652 530.945 900.371C530.945 903.098 530.446 905.442 529.449 907.402C528.46 909.362 527.028 910.871 525.153 911.928C523.278 912.976 521.011 913.5 518.352 913.5ZM513.827 910.048H518.135C520.129 910.048 521.787 909.673 523.108 908.923C524.429 908.165 525.418 907.07 526.074 905.638C526.73 904.197 527.058 902.442 527.058 900.371C527.058 898.317 526.73 896.574 526.074 895.142C525.426 893.71 524.459 892.624 523.172 891.882C521.885 891.141 520.287 890.77 518.378 890.77H513.827V910.048ZM544.013 913.896C542.078 913.896 540.412 913.483 539.015 912.656C537.625 911.821 536.551 910.649 535.793 909.141C535.043 907.624 534.668 905.847 534.668 903.81C534.668 901.798 535.043 900.026 535.793 898.491C536.551 896.957 537.608 895.76 538.963 894.899C540.327 894.038 541.921 893.608 543.745 893.608C544.853 893.608 545.926 893.791 546.966 894.158C548.006 894.524 548.939 895.099 549.766 895.884C550.593 896.668 551.245 897.686 551.722 898.939C552.199 900.183 552.438 901.696 552.438 903.477V904.832H536.828V901.969H548.692C548.692 900.963 548.488 900.072 548.078 899.297C547.669 898.513 547.094 897.895 546.353 897.443C545.62 896.991 544.759 896.766 543.77 896.766C542.696 896.766 541.759 897.03 540.958 897.558C540.165 898.078 539.551 898.76 539.117 899.604C538.691 900.439 538.478 901.347 538.478 902.327V904.564C538.478 905.876 538.708 906.993 539.168 907.913C539.637 908.834 540.289 909.537 541.124 910.023C541.959 910.5 542.935 910.739 544.051 910.739C544.776 910.739 545.436 910.636 546.033 910.432C546.63 910.219 547.145 909.903 547.58 909.486C548.015 909.068 548.347 908.553 548.577 907.939L552.195 908.591C551.905 909.656 551.385 910.589 550.635 911.391C549.894 912.183 548.961 912.801 547.836 913.244C546.719 913.679 545.445 913.896 544.013 913.896ZM564.95 913.896C563.05 913.896 561.413 913.466 560.041 912.605C558.678 911.736 557.629 910.538 556.896 909.013C556.163 907.487 555.797 905.74 555.797 903.771C555.797 901.777 556.172 900.017 556.922 898.491C557.672 896.957 558.729 895.76 560.092 894.899C561.456 894.038 563.063 893.608 564.912 893.608C566.403 893.608 567.733 893.885 568.901 894.439C570.068 894.984 571.01 895.751 571.726 896.74C572.45 897.729 572.881 898.884 573.017 900.205H569.297C569.092 899.284 568.624 898.491 567.891 897.827C567.166 897.162 566.195 896.83 564.976 896.83C563.911 896.83 562.977 897.111 562.176 897.673C561.384 898.227 560.766 899.02 560.322 900.051C559.879 901.074 559.658 902.284 559.658 903.682C559.658 905.114 559.875 906.349 560.31 907.389C560.744 908.429 561.358 909.234 562.151 909.805C562.952 910.376 563.893 910.662 564.976 910.662C565.7 910.662 566.357 910.53 566.945 910.266C567.541 909.993 568.04 909.605 568.44 909.102C568.849 908.599 569.135 907.994 569.297 907.287H573.017C572.881 908.557 572.467 909.69 571.777 910.688C571.087 911.685 570.162 912.469 569.003 913.04C567.852 913.611 566.501 913.896 564.95 913.896ZM582.819 913.935C581.575 913.935 580.45 913.705 579.444 913.244C578.439 912.776 577.642 912.098 577.054 911.212C576.474 910.325 576.184 909.239 576.184 907.952C576.184 906.844 576.397 905.932 576.824 905.216C577.25 904.5 577.825 903.933 578.549 903.516C579.274 903.098 580.083 902.783 580.978 902.57C581.873 902.357 582.785 902.195 583.714 902.084C584.89 901.947 585.845 901.837 586.578 901.751C587.311 901.658 587.843 901.509 588.176 901.304C588.508 901.099 588.674 900.767 588.674 900.307V900.217C588.674 899.101 588.359 898.236 587.728 897.622C587.106 897.009 586.177 896.702 584.941 896.702C583.654 896.702 582.64 896.987 581.899 897.558C581.166 898.121 580.659 898.747 580.377 899.438L576.785 898.619C577.211 897.426 577.833 896.463 578.652 895.73C579.478 894.989 580.429 894.452 581.502 894.119C582.576 893.778 583.706 893.608 584.89 893.608C585.674 893.608 586.505 893.702 587.383 893.889C588.27 894.068 589.096 894.401 589.863 894.886C590.639 895.372 591.274 896.067 591.768 896.97C592.262 897.865 592.51 899.028 592.51 900.46V913.5H588.777V910.815H588.623C588.376 911.31 588.005 911.795 587.511 912.273C587.017 912.75 586.382 913.146 585.606 913.462C584.831 913.777 583.902 913.935 582.819 913.935ZM583.65 910.866C584.707 910.866 585.61 910.658 586.36 910.24C587.119 909.822 587.694 909.277 588.086 908.604C588.487 907.922 588.687 907.193 588.687 906.418V903.886C588.551 904.023 588.287 904.151 587.895 904.27C587.511 904.381 587.072 904.479 586.578 904.564C586.083 904.641 585.602 904.713 585.133 904.781C584.664 904.841 584.272 904.892 583.957 904.935C583.216 905.028 582.538 905.186 581.924 905.408C581.319 905.629 580.833 905.949 580.467 906.366C580.109 906.776 579.93 907.321 579.93 908.003C579.93 908.949 580.279 909.665 580.978 910.151C581.677 910.628 582.568 910.866 583.65 910.866ZM599.314 920.864C598.743 920.864 598.223 920.817 597.754 920.723C597.286 920.638 596.936 920.544 596.706 920.442L597.626 917.31C598.325 917.497 598.947 917.578 599.493 917.553C600.038 917.527 600.52 917.322 600.938 916.939C601.364 916.555 601.739 915.929 602.062 915.06L602.536 913.756L595.351 893.864H599.442L604.415 909.102H604.619L609.592 893.864H613.696L605.604 916.121C605.229 917.143 604.751 918.009 604.172 918.716C603.592 919.432 602.902 919.969 602.101 920.327C601.3 920.685 600.371 920.864 599.314 920.864Z" fill="#CDCDCD"/>
<path d="M1345.88 913.5V887.318H1355.21C1357.24 887.318 1358.92 887.668 1360.26 888.366C1361.61 889.065 1362.61 890.033 1363.28 891.268C1363.94 892.496 1364.27 893.915 1364.27 895.526C1364.27 897.128 1363.94 898.538 1363.26 899.757C1362.6 900.967 1361.59 901.909 1360.25 902.582C1358.91 903.256 1357.22 903.592 1355.2 903.592H1348.13V900.192H1354.84C1356.12 900.192 1357.16 900.009 1357.96 899.642C1358.77 899.276 1359.36 898.743 1359.73 898.044C1360.11 897.345 1360.3 896.506 1360.3 895.526C1360.3 894.537 1360.11 893.68 1359.72 892.956C1359.35 892.232 1358.75 891.678 1357.94 891.294C1357.14 890.902 1356.09 890.706 1354.79 890.706H1349.83V913.5H1345.88ZM1358.8 901.688L1365.27 913.5H1360.77L1354.43 901.688H1358.8ZM1376.99 913.896C1375.06 913.896 1373.39 913.483 1371.99 912.656C1370.6 911.821 1369.53 910.649 1368.77 909.141C1368.02 907.624 1367.64 905.847 1367.64 903.81C1367.64 901.798 1368.02 900.026 1368.77 898.491C1369.53 896.957 1370.58 895.76 1371.94 894.899C1373.3 894.038 1374.9 893.608 1376.72 893.608C1377.83 893.608 1378.9 893.791 1379.94 894.158C1380.98 894.524 1381.92 895.099 1382.74 895.884C1383.57 896.668 1384.22 897.686 1384.7 898.939C1385.18 900.183 1385.41 901.696 1385.41 903.477V904.832H1369.81V901.969H1381.67C1381.67 900.963 1381.46 900.072 1381.06 899.297C1380.65 898.513 1380.07 897.895 1379.33 897.443C1378.6 896.991 1377.74 896.766 1376.75 896.766C1375.67 896.766 1374.74 897.03 1373.93 897.558C1373.14 898.078 1372.53 898.76 1372.09 899.604C1371.67 900.439 1371.45 901.347 1371.45 902.327V904.564C1371.45 905.876 1371.68 906.993 1372.14 907.913C1372.61 908.834 1373.27 909.537 1374.1 910.023C1374.94 910.5 1375.91 910.739 1377.03 910.739C1377.75 910.739 1378.41 910.636 1379.01 910.432C1379.61 910.219 1380.12 909.903 1380.56 909.486C1380.99 909.068 1381.32 908.553 1381.55 907.939L1385.17 908.591C1384.88 909.656 1384.36 910.589 1383.61 911.391C1382.87 912.183 1381.94 912.801 1380.81 913.244C1379.7 913.679 1378.42 913.896 1376.99 913.896ZM1393.48 887.318V913.5H1389.66V887.318H1393.48ZM1407.08 913.896C1405.15 913.896 1403.48 913.483 1402.08 912.656C1400.7 911.821 1399.62 910.649 1398.86 909.141C1398.11 907.624 1397.74 905.847 1397.74 903.81C1397.74 901.798 1398.11 900.026 1398.86 898.491C1399.62 896.957 1400.68 895.76 1402.03 894.899C1403.4 894.038 1404.99 893.608 1406.81 893.608C1407.92 893.608 1409 893.791 1410.04 894.158C1411.08 894.524 1412.01 895.099 1412.84 895.884C1413.66 896.668 1414.31 897.686 1414.79 898.939C1415.27 900.183 1415.51 901.696 1415.51 903.477V904.832H1399.9V901.969H1411.76C1411.76 900.963 1411.56 900.072 1411.15 899.297C1410.74 898.513 1410.16 897.895 1409.42 897.443C1408.69 896.991 1407.83 896.766 1406.84 896.766C1405.77 896.766 1404.83 897.03 1404.03 897.558C1403.24 898.078 1402.62 898.76 1402.19 899.604C1401.76 900.439 1401.55 901.347 1401.55 902.327V904.564C1401.55 905.876 1401.78 906.993 1402.24 907.913C1402.71 908.834 1403.36 909.537 1404.19 910.023C1405.03 910.5 1406.01 910.739 1407.12 910.739C1407.85 910.739 1408.51 910.636 1409.1 910.432C1409.7 910.219 1410.22 909.903 1410.65 909.486C1411.08 909.068 1411.42 908.553 1411.65 907.939L1415.27 908.591C1414.98 909.656 1414.46 910.589 1413.71 911.391C1412.96 912.183 1412.03 912.801 1410.91 913.244C1409.79 913.679 1408.52 913.896 1407.08 913.896ZM1425.46 913.935C1424.22 913.935 1423.09 913.705 1422.09 913.244C1421.08 912.776 1420.29 912.098 1419.7 911.212C1419.12 910.325 1418.83 909.239 1418.83 907.952C1418.83 906.844 1419.04 905.932 1419.47 905.216C1419.89 904.5 1420.47 903.933 1421.19 903.516C1421.92 903.098 1422.73 902.783 1423.62 902.57C1424.52 902.357 1425.43 902.195 1426.36 902.084C1427.53 901.947 1428.49 901.837 1429.22 901.751C1429.96 901.658 1430.49 901.509 1430.82 901.304C1431.15 901.099 1431.32 900.767 1431.32 900.307V900.217C1431.32 899.101 1431 898.236 1430.37 897.622C1429.75 897.009 1428.82 896.702 1427.59 896.702C1426.3 896.702 1425.28 896.987 1424.54 897.558C1423.81 898.121 1423.3 898.747 1423.02 899.438L1419.43 898.619C1419.86 897.426 1420.48 896.463 1421.3 895.73C1422.12 894.989 1423.07 894.452 1424.15 894.119C1425.22 893.778 1426.35 893.608 1427.53 893.608C1428.32 893.608 1429.15 893.702 1430.03 893.889C1430.91 894.068 1431.74 894.401 1432.51 894.886C1433.28 895.372 1433.92 896.067 1434.41 896.97C1434.91 897.865 1435.15 899.028 1435.15 900.46V913.5H1431.42V910.815H1431.27C1431.02 911.31 1430.65 911.795 1430.16 912.273C1429.66 912.75 1429.03 913.146 1428.25 913.462C1427.48 913.777 1426.55 913.935 1425.46 913.935ZM1426.29 910.866C1427.35 910.866 1428.25 910.658 1429 910.24C1429.76 909.822 1430.34 909.277 1430.73 908.604C1431.13 907.922 1431.33 907.193 1431.33 906.418V903.886C1431.2 904.023 1430.93 904.151 1430.54 904.27C1430.16 904.381 1429.72 904.479 1429.22 904.564C1428.73 904.641 1428.25 904.713 1427.78 904.781C1427.31 904.841 1426.92 904.892 1426.6 904.935C1425.86 905.028 1425.18 905.186 1424.57 905.408C1423.96 905.629 1423.48 905.949 1423.11 906.366C1422.75 906.776 1422.57 907.321 1422.57 908.003C1422.57 908.949 1422.92 909.665 1423.62 910.151C1424.32 910.628 1425.21 910.866 1426.29 910.866ZM1454.96 898.658L1451.5 899.271C1451.35 898.828 1451.12 898.406 1450.81 898.006C1450.5 897.605 1450.08 897.277 1449.55 897.021C1449.02 896.766 1448.36 896.638 1447.57 896.638C1446.49 896.638 1445.58 896.881 1444.86 897.366C1444.14 897.844 1443.77 898.462 1443.77 899.22C1443.77 899.876 1444.02 900.405 1444.5 900.805C1444.99 901.206 1445.77 901.534 1446.85 901.79L1449.97 902.506C1451.78 902.923 1453.13 903.567 1454.01 904.436C1454.9 905.305 1455.34 906.435 1455.34 907.824C1455.34 909 1455 910.048 1454.32 910.969C1453.65 911.881 1452.71 912.597 1451.5 913.116C1450.29 913.636 1448.9 913.896 1447.31 913.896C1445.12 913.896 1443.32 913.428 1441.93 912.49C1440.54 911.544 1439.69 910.202 1439.38 908.463L1443.07 907.901C1443.3 908.864 1443.77 909.592 1444.49 910.087C1445.21 910.572 1446.14 910.815 1447.29 910.815C1448.54 910.815 1449.54 910.555 1450.29 910.036C1451.04 909.507 1451.42 908.864 1451.42 908.105C1451.42 907.491 1451.19 906.976 1450.73 906.558C1450.28 906.141 1449.58 905.825 1448.64 905.612L1445.32 904.884C1443.49 904.466 1442.13 903.801 1441.26 902.889C1440.39 901.977 1439.95 900.822 1439.95 899.425C1439.95 898.266 1440.28 897.251 1440.92 896.382C1441.57 895.513 1442.47 894.835 1443.61 894.349C1444.75 893.855 1446.06 893.608 1447.53 893.608C1449.65 893.608 1451.32 894.068 1452.54 894.989C1453.76 895.901 1454.57 897.124 1454.96 898.658ZM1468.01 913.896C1466.07 913.896 1464.41 913.483 1463.01 912.656C1461.62 911.821 1460.55 910.649 1459.79 909.141C1459.04 907.624 1458.66 905.847 1458.66 903.81C1458.66 901.798 1459.04 900.026 1459.79 898.491C1460.55 896.957 1461.6 895.76 1462.96 894.899C1464.32 894.038 1465.92 893.608 1467.74 893.608C1468.85 893.608 1469.92 893.791 1470.96 894.158C1472 894.524 1472.94 895.099 1473.76 895.884C1474.59 896.668 1475.24 897.686 1475.72 898.939C1476.2 900.183 1476.43 901.696 1476.43 903.477V904.832H1460.82V901.969H1472.69C1472.69 900.963 1472.48 900.072 1472.07 899.297C1471.67 898.513 1471.09 897.895 1470.35 897.443C1469.62 896.991 1468.75 896.766 1467.77 896.766C1466.69 896.766 1465.75 897.03 1464.95 897.558C1464.16 898.078 1463.55 898.76 1463.11 899.604C1462.69 900.439 1462.47 901.347 1462.47 902.327V904.564C1462.47 905.876 1462.7 906.993 1463.16 907.913C1463.63 908.834 1464.28 909.537 1465.12 910.023C1465.96 910.5 1466.93 910.739 1468.05 910.739C1468.77 910.739 1469.43 910.636 1470.03 910.432C1470.63 910.219 1471.14 909.903 1471.58 909.486C1472.01 909.068 1472.34 908.553 1472.57 907.939L1476.19 908.591C1475.9 909.656 1475.38 910.589 1474.63 911.391C1473.89 912.183 1472.96 912.801 1471.83 913.244C1470.72 913.679 1469.44 913.896 1468.01 913.896Z" fill="#CDCDCD"/>
<path d="M838.156 894.196C838.02 892.986 837.457 892.048 836.469 891.384C835.48 890.71 834.236 890.374 832.736 890.374C831.662 890.374 830.733 890.544 829.949 890.885C829.165 891.217 828.555 891.678 828.121 892.266C827.695 892.845 827.482 893.506 827.482 894.247C827.482 894.869 827.626 895.406 827.916 895.858C828.214 896.31 828.602 896.689 829.08 896.996C829.565 897.294 830.085 897.545 830.639 897.75C831.193 897.946 831.726 898.108 832.237 898.236L834.794 898.901C835.629 899.105 836.486 899.382 837.364 899.732C838.241 900.081 839.055 900.541 839.805 901.112C840.555 901.683 841.161 902.391 841.621 903.234C842.089 904.078 842.324 905.088 842.324 906.264C842.324 907.747 841.94 909.064 841.173 910.214C840.415 911.365 839.311 912.273 837.862 912.938C836.422 913.602 834.679 913.935 832.634 913.935C830.673 913.935 828.977 913.624 827.545 913.001C826.114 912.379 824.993 911.497 824.183 910.355C823.374 909.205 822.926 907.841 822.841 906.264H826.804C826.881 907.21 827.188 907.999 827.724 908.629C828.27 909.251 828.964 909.716 829.808 910.023C830.661 910.321 831.594 910.47 832.608 910.47C833.724 910.47 834.717 910.295 835.587 909.946C836.464 909.588 837.155 909.094 837.658 908.463C838.161 907.824 838.412 907.078 838.412 906.226C838.412 905.45 838.19 904.815 837.747 904.321C837.313 903.827 836.72 903.418 835.97 903.094C835.229 902.77 834.389 902.484 833.452 902.237L830.358 901.393C828.261 900.822 826.599 899.983 825.372 898.875C824.153 897.767 823.544 896.301 823.544 894.477C823.544 892.969 823.953 891.652 824.771 890.527C825.589 889.402 826.697 888.528 828.095 887.906C829.493 887.276 831.07 886.96 832.825 886.96C834.598 886.96 836.162 887.271 837.517 887.893C838.881 888.516 839.955 889.372 840.739 890.463C841.523 891.545 841.932 892.79 841.966 894.196H838.156ZM859.176 905.357V893.864H863.012V913.5H859.253V910.099H859.049C858.597 911.148 857.873 912.021 856.875 912.72C855.887 913.411 854.655 913.756 853.181 913.756C851.919 913.756 850.803 913.479 849.831 912.925C848.868 912.362 848.11 911.531 847.556 910.432C847.01 909.332 846.738 907.973 846.738 906.354V893.864H850.56V905.893C850.56 907.232 850.931 908.297 851.672 909.089C852.414 909.882 853.377 910.278 854.561 910.278C855.277 910.278 855.989 910.099 856.696 909.741C857.412 909.384 858.005 908.842 858.473 908.118C858.951 907.393 859.185 906.473 859.176 905.357ZM882.862 898.658L879.398 899.271C879.253 898.828 879.023 898.406 878.707 898.006C878.401 897.605 877.983 897.277 877.455 897.021C876.926 896.766 876.266 896.638 875.473 896.638C874.391 896.638 873.487 896.881 872.763 897.366C872.038 897.844 871.676 898.462 871.676 899.22C871.676 899.876 871.919 900.405 872.405 900.805C872.891 901.206 873.675 901.534 874.757 901.79L877.876 902.506C879.683 902.923 881.03 903.567 881.916 904.436C882.803 905.305 883.246 906.435 883.246 907.824C883.246 909 882.905 910.048 882.223 910.969C881.55 911.881 880.608 912.597 879.398 913.116C878.196 913.636 876.803 913.896 875.217 913.896C873.018 913.896 871.224 913.428 869.835 912.49C868.446 911.544 867.594 910.202 867.278 908.463L870.973 907.901C871.203 908.864 871.676 909.592 872.392 910.087C873.108 910.572 874.041 910.815 875.192 910.815C876.445 910.815 877.446 910.555 878.196 910.036C878.946 909.507 879.321 908.864 879.321 908.105C879.321 907.491 879.091 906.976 878.631 906.558C878.179 906.141 877.484 905.825 876.547 905.612L873.223 904.884C871.391 904.466 870.036 903.801 869.158 902.889C868.288 901.977 867.854 900.822 867.854 899.425C867.854 898.266 868.178 897.251 868.825 896.382C869.473 895.513 870.368 894.835 871.51 894.349C872.652 893.855 873.96 893.608 875.435 893.608C877.557 893.608 879.227 894.068 880.446 894.989C881.665 895.901 882.47 897.124 882.862 898.658ZM896.615 893.864V896.932H885.889V893.864H896.615ZM888.765 889.159H892.588V907.734C892.588 908.476 892.699 909.034 892.92 909.409C893.142 909.776 893.427 910.027 893.777 910.163C894.135 910.291 894.522 910.355 894.94 910.355C895.247 910.355 895.515 910.334 895.745 910.291C895.975 910.249 896.154 910.214 896.282 910.189L896.973 913.347C896.751 913.432 896.436 913.517 896.027 913.602C895.618 913.696 895.106 913.747 894.493 913.756C893.487 913.773 892.549 913.594 891.68 913.219C890.811 912.844 890.108 912.264 889.571 911.48C889.034 910.696 888.765 909.712 888.765 908.527V889.159ZM906.558 913.935C905.313 913.935 904.188 913.705 903.183 913.244C902.177 912.776 901.38 912.098 900.792 911.212C900.212 910.325 899.923 909.239 899.923 907.952C899.923 906.844 900.136 905.932 900.562 905.216C900.988 904.5 901.563 903.933 902.288 903.516C903.012 903.098 903.822 902.783 904.717 902.57C905.612 902.357 906.523 902.195 907.452 902.084C908.629 901.947 909.583 901.837 910.316 901.751C911.049 901.658 911.582 901.509 911.914 901.304C912.246 901.099 912.413 900.767 912.413 900.307V900.217C912.413 899.101 912.097 898.236 911.467 897.622C910.844 897.009 909.915 896.702 908.68 896.702C907.393 896.702 906.379 896.987 905.637 897.558C904.904 898.121 904.397 898.747 904.116 899.438L900.523 898.619C900.95 897.426 901.572 896.463 902.39 895.73C903.217 894.989 904.167 894.452 905.241 894.119C906.315 893.778 907.444 893.608 908.629 893.608C909.413 893.608 910.244 893.702 911.121 893.889C912.008 894.068 912.835 894.401 913.602 894.886C914.377 895.372 915.012 896.067 915.506 896.97C916.001 897.865 916.248 899.028 916.248 900.46V913.5H912.515V910.815H912.362C912.114 911.31 911.744 911.795 911.249 912.273C910.755 912.75 910.12 913.146 909.344 913.462C908.569 913.777 907.64 913.935 906.558 913.935ZM907.388 910.866C908.445 910.866 909.349 910.658 910.099 910.24C910.857 909.822 911.433 909.277 911.825 908.604C912.225 907.922 912.425 907.193 912.425 906.418V903.886C912.289 904.023 912.025 904.151 911.633 904.27C911.249 904.381 910.81 904.479 910.316 904.564C909.822 904.641 909.34 904.713 908.871 904.781C908.403 904.841 908.011 904.892 907.695 904.935C906.954 905.028 906.276 905.186 905.663 905.408C905.058 905.629 904.572 905.949 904.205 906.366C903.847 906.776 903.668 907.321 903.668 908.003C903.668 908.949 904.018 909.665 904.717 910.151C905.415 910.628 906.306 910.866 907.388 910.866ZM921.339 913.5V893.864H925.162V913.5H921.339ZM923.27 890.834C922.605 890.834 922.034 890.612 921.556 890.169C921.088 889.717 920.853 889.18 920.853 888.558C920.853 887.928 921.088 887.391 921.556 886.947C922.034 886.496 922.605 886.27 923.27 886.27C923.934 886.27 924.501 886.496 924.97 886.947C925.447 887.391 925.686 887.928 925.686 888.558C925.686 889.18 925.447 889.717 924.97 890.169C924.501 890.612 923.934 890.834 923.27 890.834ZM934.126 901.841V913.5H930.304V893.864H933.973V897.06H934.216C934.668 896.02 935.375 895.185 936.338 894.554C937.31 893.923 938.533 893.608 940.007 893.608C941.345 893.608 942.517 893.889 943.523 894.452C944.528 895.006 945.308 895.832 945.862 896.932C946.416 898.031 946.693 899.391 946.693 901.01V913.5H942.871V901.47C942.871 900.047 942.5 898.935 941.759 898.134C941.017 897.324 939.999 896.919 938.703 896.919C937.817 896.919 937.028 897.111 936.338 897.494C935.656 897.878 935.115 898.44 934.714 899.182C934.322 899.915 934.126 900.801 934.126 901.841Z" fill="#CDCDCD"/>
<path d="M843.966 943.957L844.835 938.818H866.964L866.095 943.957H858.156L854.679 965H848.44L851.918 943.957H843.966ZM876.383 938.818L872.037 965H865.708L870.055 938.818H876.383ZM880.356 938.818H888.192L892.156 955.028H892.462L901.795 938.818H909.631L905.285 965H899.123L901.795 948.918H901.577L892.654 964.834H888.729L885.099 948.828H884.881L882.171 965H876.009L880.356 938.818ZM909.232 965L913.578 938.818H931.834L930.965 943.957H919.037L918.168 949.327H929.162L928.293 954.479H917.299L916.429 959.861H928.357L927.488 965H909.232Z" fill="#CDCDCD"/>
<path d="M75.8764 128.818H80.6705L89.0057 149.17H89.3125L97.6477 128.818H102.442V155H98.6832V136.054H98.4403L90.7188 154.962H87.5994L79.8778 136.041H79.6349V155H75.8764V128.818ZM113.593 155.435C112.348 155.435 111.223 155.205 110.218 154.744C109.212 154.276 108.415 153.598 107.827 152.712C107.248 151.825 106.958 150.739 106.958 149.452C106.958 148.344 107.171 147.432 107.597 146.716C108.023 146 108.598 145.433 109.323 145.016C110.047 144.598 110.857 144.283 111.752 144.07C112.647 143.857 113.559 143.695 114.488 143.584C115.664 143.447 116.618 143.337 117.351 143.251C118.084 143.158 118.617 143.009 118.949 142.804C119.282 142.599 119.448 142.267 119.448 141.807V141.717C119.448 140.601 119.132 139.736 118.502 139.122C117.88 138.509 116.951 138.202 115.715 138.202C114.428 138.202 113.414 138.487 112.672 139.058C111.939 139.621 111.432 140.247 111.151 140.938L107.559 140.119C107.985 138.926 108.607 137.963 109.425 137.23C110.252 136.489 111.202 135.952 112.276 135.619C113.35 135.278 114.479 135.108 115.664 135.108C116.448 135.108 117.279 135.202 118.157 135.389C119.043 135.568 119.87 135.901 120.637 136.386C121.412 136.872 122.047 137.567 122.542 138.47C123.036 139.365 123.283 140.528 123.283 141.96V155H119.55V152.315H119.397C119.15 152.81 118.779 153.295 118.284 153.773C117.79 154.25 117.155 154.646 116.38 154.962C115.604 155.277 114.675 155.435 113.593 155.435ZM114.424 152.366C115.48 152.366 116.384 152.158 117.134 151.74C117.892 151.322 118.468 150.777 118.86 150.104C119.26 149.422 119.461 148.693 119.461 147.918V145.386C119.324 145.523 119.06 145.651 118.668 145.77C118.284 145.881 117.846 145.979 117.351 146.064C116.857 146.141 116.375 146.213 115.907 146.281C115.438 146.341 115.046 146.392 114.73 146.435C113.989 146.528 113.311 146.686 112.698 146.908C112.093 147.129 111.607 147.449 111.24 147.866C110.882 148.276 110.703 148.821 110.703 149.503C110.703 150.449 111.053 151.165 111.752 151.651C112.451 152.128 113.341 152.366 114.424 152.366ZM131.391 135.364L135.725 143.009L140.097 135.364H144.278L138.154 145.182L144.329 155H140.148L135.725 147.662L131.315 155H127.121L133.232 145.182L127.198 135.364H131.391Z" fill="#CDCDCD"/>
<path d="M75.8764 814.818H80.6705L89.0057 835.17H89.3125L97.6477 814.818H102.442V841H98.6832V822.054H98.4403L90.7188 840.962H87.5994L79.8778 822.041H79.6349V841H75.8764V814.818ZM107.878 841V821.364H111.701V841H107.878ZM109.809 818.334C109.144 818.334 108.573 818.112 108.096 817.669C107.627 817.217 107.392 816.68 107.392 816.058C107.392 815.428 107.627 814.891 108.096 814.447C108.573 813.996 109.144 813.77 109.809 813.77C110.473 813.77 111.04 813.996 111.509 814.447C111.986 814.891 112.225 815.428 112.225 816.058C112.225 816.68 111.986 817.217 111.509 817.669C111.04 818.112 110.473 818.334 109.809 818.334ZM120.665 829.341V841H116.843V821.364H120.512V824.56H120.755C121.207 823.52 121.914 822.685 122.877 822.054C123.849 821.423 125.072 821.108 126.546 821.108C127.884 821.108 129.056 821.389 130.062 821.952C131.067 822.506 131.847 823.332 132.401 824.432C132.955 825.531 133.232 826.891 133.232 828.51V841H129.41V828.97C129.41 827.547 129.039 826.435 128.298 825.634C127.556 824.824 126.538 824.419 125.242 824.419C124.356 824.419 123.567 824.611 122.877 824.994C122.195 825.378 121.654 825.94 121.254 826.682C120.862 827.415 120.665 828.301 120.665 829.341Z" fill="#CDCDCD"/>
<path d="M221.534 1019L225.881 992.818H229.051L226.903 1005.81H227.21L241.119 992.818H245.261L232.324 1004.63L240.915 1019H237.08L230.023 1006.83L226.136 1010.51L224.705 1019H221.534ZM251.35 1019.41C249.466 1019.41 247.911 1018.99 246.684 1018.16C245.456 1017.31 244.6 1016.14 244.114 1014.63C243.628 1013.11 243.551 1011.35 243.884 1009.34C244.216 1007.32 244.877 1005.55 245.865 1004.02C246.854 1002.47 248.086 1001.27 249.56 1000.41C251.034 999.543 252.654 999.108 254.418 999.108C255.441 999.108 256.425 999.278 257.371 999.619C258.317 999.96 259.135 1000.51 259.826 1001.28C260.516 1002.04 260.998 1003.05 261.27 1004.3C261.543 1005.55 261.526 1007.09 261.219 1008.93L261.015 1010.2H245.878L246.287 1007.6H258.355C258.551 1006.49 258.5 1005.5 258.202 1004.63C257.912 1003.76 257.405 1003.08 256.681 1002.57C255.965 1002.07 255.057 1001.82 253.958 1001.82C252.824 1001.82 251.767 1002.12 250.787 1002.74C249.807 1003.34 248.989 1004.11 248.333 1005.04C247.676 1005.96 247.267 1006.9 247.105 1007.85L246.748 1010.1C246.492 1011.73 246.53 1013.03 246.863 1013.99C247.203 1014.95 247.796 1015.65 248.64 1016.07C249.483 1016.49 250.54 1016.7 251.81 1016.7C252.62 1016.7 253.365 1016.59 254.047 1016.37C254.729 1016.14 255.338 1015.8 255.875 1015.34C256.412 1014.88 256.864 1014.31 257.23 1013.63L259.992 1014.45C259.523 1015.44 258.863 1016.31 258.01 1017.06C257.167 1017.8 256.178 1018.38 255.044 1018.8C253.919 1019.2 252.688 1019.41 251.35 1019.41ZM264.335 1026.36C263.824 1026.36 263.372 1026.32 262.98 1026.24C262.597 1026.16 262.332 1026.08 262.188 1026.01L263.415 1023.35C264.114 1023.53 264.736 1023.59 265.281 1023.51C265.835 1023.44 266.359 1023.18 266.854 1022.71C267.357 1022.25 267.881 1021.52 268.426 1020.53L269.27 1019L265.332 999.364H268.477L271.29 1015.06H271.494L279.523 999.364H282.923L270.881 1021.84C270.318 1022.89 269.7 1023.74 269.027 1024.41C268.354 1025.07 267.625 1025.56 266.841 1025.88C266.057 1026.2 265.222 1026.36 264.335 1026.36ZM292.531 1026.36L297.056 999.364H299.971L299.46 1002.48H299.817C300.09 1002.14 300.465 1001.71 300.942 1001.18C301.428 1000.64 302.08 1000.16 302.898 999.747C303.725 999.321 304.778 999.108 306.056 999.108C307.71 999.108 309.094 999.521 310.211 1000.35C311.327 1001.17 312.116 1002.35 312.576 1003.86C313.036 1005.38 313.096 1007.17 312.755 1009.23C312.414 1011.31 311.762 1013.12 310.799 1014.64C309.836 1016.16 308.66 1017.33 307.271 1018.17C305.881 1019 304.369 1019.41 302.732 1019.41C301.471 1019.41 300.495 1019.2 299.805 1018.78C299.114 1018.36 298.612 1017.87 298.296 1017.34C297.981 1016.79 297.738 1016.34 297.567 1015.98H297.312L295.573 1026.36H292.531ZM298.386 1009.18C298.147 1010.66 298.147 1011.97 298.386 1013.11C298.633 1014.23 299.123 1015.11 299.856 1015.75C300.597 1016.38 301.573 1016.7 302.783 1016.7C304.045 1016.7 305.148 1016.37 306.094 1015.7C307.049 1015.03 307.833 1014.12 308.447 1012.99C309.069 1011.85 309.499 1010.58 309.738 1009.18C309.96 1007.8 309.951 1006.56 309.712 1005.45C309.474 1004.33 308.988 1003.45 308.255 1002.8C307.522 1002.15 306.516 1001.82 305.238 1001.82C304.011 1001.82 302.924 1002.13 301.978 1002.75C301.04 1003.37 300.265 1004.23 299.651 1005.33C299.046 1006.43 298.624 1007.72 298.386 1009.18ZM315.73 1019L319.003 999.364H321.918L321.407 1002.33H321.611C322.123 1001.36 322.902 1000.57 323.951 999.964C324.999 999.359 326.111 999.057 327.287 999.057C327.517 999.057 327.794 999.061 328.118 999.07C328.442 999.07 328.694 999.082 328.873 999.108L328.361 1002.18C328.259 1002.15 328.029 1002.11 327.671 1002.06C327.313 1002 326.929 1001.97 326.52 1001.97C325.566 1001.97 324.684 1002.17 323.874 1002.57C323.064 1002.96 322.387 1003.51 321.841 1004.21C321.296 1004.9 320.946 1005.69 320.793 1006.57L318.748 1019H315.73ZM336.779 1019.41C334.896 1019.41 333.341 1018.99 332.113 1018.16C330.886 1017.31 330.029 1016.14 329.544 1014.63C329.058 1013.11 328.981 1011.35 329.314 1009.34C329.646 1007.32 330.306 1005.55 331.295 1004.02C332.284 1002.47 333.515 1001.27 334.99 1000.41C336.464 999.543 338.083 999.108 339.848 999.108C340.87 999.108 341.855 999.278 342.801 999.619C343.747 999.96 344.565 1000.51 345.255 1001.28C345.946 1002.04 346.427 1003.05 346.7 1004.3C346.973 1005.55 346.956 1007.09 346.649 1008.93L346.444 1010.2H331.308L331.717 1007.6H343.785C343.981 1006.49 343.93 1005.5 343.632 1004.63C343.342 1003.76 342.835 1003.08 342.11 1002.57C341.395 1002.07 340.487 1001.82 339.387 1001.82C338.254 1001.82 337.197 1002.12 336.217 1002.74C335.237 1003.34 334.419 1004.11 333.762 1005.04C333.106 1005.96 332.697 1006.9 332.535 1007.85L332.177 1010.1C331.922 1011.73 331.96 1013.03 332.292 1013.99C332.633 1014.95 333.225 1015.65 334.069 1016.07C334.913 1016.49 335.97 1016.7 337.24 1016.7C338.049 1016.7 338.795 1016.59 339.477 1016.37C340.159 1016.14 340.768 1015.8 341.305 1015.34C341.842 1014.88 342.294 1014.31 342.66 1013.63L345.422 1014.45C344.953 1015.44 344.292 1016.31 343.44 1017.06C342.596 1017.8 341.608 1018.38 340.474 1018.8C339.349 1019.2 338.118 1019.41 336.779 1019.41ZM366.087 1003.76L363.223 1004.53C363.121 1004.07 362.942 1003.62 362.686 1003.2C362.439 1002.76 362.056 1002.41 361.536 1002.14C361.025 1001.86 360.326 1001.72 359.439 1001.72C358.238 1001.72 357.194 1001.99 356.307 1002.55C355.421 1003.09 354.914 1003.79 354.786 1004.63C354.658 1005.37 354.828 1005.96 355.297 1006.41C355.766 1006.85 356.55 1007.21 357.65 1007.49L360.462 1008.21C362.15 1008.64 363.351 1009.3 364.067 1010.17C364.792 1011.03 365.039 1012.15 364.809 1013.53C364.621 1014.65 364.131 1015.66 363.338 1016.55C362.546 1017.43 361.532 1018.13 360.296 1018.64C359.06 1019.15 357.684 1019.41 356.167 1019.41C354.147 1019.41 352.553 1018.97 351.385 1018.11C350.218 1017.23 349.596 1015.96 349.519 1014.3L352.536 1013.58C352.613 1014.63 352.988 1015.42 353.661 1015.96C354.343 1016.49 355.297 1016.75 356.525 1016.75C357.931 1016.75 359.103 1016.45 360.04 1015.86C360.978 1015.25 361.51 1014.53 361.638 1013.68C361.766 1012.99 361.63 1012.42 361.229 1011.96C360.837 1011.5 360.155 1011.15 359.184 1010.92L356.064 1010.15C354.326 1009.72 353.107 1009.05 352.408 1008.16C351.718 1007.26 351.488 1006.14 351.718 1004.78C351.905 1003.68 352.382 1002.7 353.15 1001.84C353.925 1000.99 354.897 1000.32 356.064 999.837C357.24 999.351 358.519 999.108 359.9 999.108C361.843 999.108 363.296 999.534 364.259 1000.39C365.222 1001.23 365.831 1002.36 366.087 1003.76ZM384.896 1003.76L382.032 1004.53C381.93 1004.07 381.751 1003.62 381.495 1003.2C381.248 1002.76 380.864 1002.41 380.344 1002.14C379.833 1001.86 379.134 1001.72 378.248 1001.72C377.046 1001.72 376.002 1001.99 375.116 1002.55C374.229 1003.09 373.722 1003.79 373.594 1004.63C373.467 1005.37 373.637 1005.96 374.106 1006.41C374.575 1006.85 375.359 1007.21 376.458 1007.49L379.271 1008.21C380.958 1008.64 382.16 1009.3 382.876 1010.17C383.6 1011.03 383.847 1012.15 383.617 1013.53C383.43 1014.65 382.94 1015.66 382.147 1016.55C381.354 1017.43 380.34 1018.13 379.104 1018.64C377.869 1019.15 376.492 1019.41 374.975 1019.41C372.955 1019.41 371.362 1018.97 370.194 1018.11C369.026 1017.23 368.404 1015.96 368.327 1014.3L371.344 1013.58C371.421 1014.63 371.796 1015.42 372.469 1015.96C373.151 1016.49 374.106 1016.75 375.333 1016.75C376.739 1016.75 377.911 1016.45 378.849 1015.86C379.786 1015.25 380.319 1014.53 380.447 1013.68C380.575 1012.99 380.438 1012.42 380.038 1011.96C379.646 1011.5 378.964 1011.15 377.992 1010.92L374.873 1010.15C373.134 1009.72 371.915 1009.05 371.217 1008.16C370.526 1007.26 370.296 1006.14 370.526 1004.78C370.714 1003.68 371.191 1002.7 371.958 1001.84C372.734 1000.99 373.705 1000.32 374.873 999.837C376.049 999.351 377.327 999.108 378.708 999.108C380.651 999.108 382.104 999.534 383.067 1000.39C384.031 1001.23 384.64 1002.36 384.896 1003.76ZM395.42 1019.41C393.537 1019.41 391.981 1018.99 390.754 1018.16C389.527 1017.31 388.67 1016.14 388.184 1014.63C387.699 1013.11 387.622 1011.35 387.954 1009.34C388.287 1007.32 388.947 1005.55 389.936 1004.02C390.924 1002.47 392.156 1001.27 393.63 1000.41C395.105 999.543 396.724 999.108 398.488 999.108C399.511 999.108 400.495 999.278 401.441 999.619C402.387 999.96 403.206 1000.51 403.896 1001.28C404.586 1002.04 405.068 1003.05 405.341 1004.3C405.613 1005.55 405.596 1007.09 405.289 1008.93L405.085 1010.2H389.949L390.358 1007.6H402.426C402.622 1006.49 402.571 1005.5 402.272 1004.63C401.983 1003.76 401.475 1003.08 400.751 1002.57C400.035 1002.07 399.127 1001.82 398.028 1001.82C396.895 1001.82 395.838 1002.12 394.858 1002.74C393.877 1003.34 393.059 1004.11 392.403 1005.04C391.747 1005.96 391.338 1006.9 391.176 1007.85L390.818 1010.1C390.562 1011.73 390.6 1013.03 390.933 1013.99C391.274 1014.95 391.866 1015.65 392.71 1016.07C393.554 1016.49 394.61 1016.7 395.88 1016.7C396.69 1016.7 397.436 1016.59 398.118 1016.37C398.799 1016.14 399.409 1015.8 399.946 1015.34C400.483 1014.88 400.934 1014.31 401.301 1013.63L404.062 1014.45C403.593 1015.44 402.933 1016.31 402.081 1017.06C401.237 1017.8 400.248 1018.38 399.115 1018.8C397.99 1019.2 396.758 1019.41 395.42 1019.41ZM415.651 1019.41C414.006 1019.41 412.625 1019 411.509 1018.17C410.392 1017.33 409.604 1016.16 409.144 1014.64C408.692 1013.12 408.637 1011.31 408.978 1009.23C409.327 1007.17 409.979 1005.38 410.934 1003.86C411.897 1002.35 413.077 1001.17 414.475 1000.35C415.873 999.521 417.398 999.108 419.051 999.108C420.33 999.108 421.306 999.321 421.979 999.747C422.661 1000.16 423.155 1000.64 423.462 1001.18C423.769 1001.71 424.003 1002.14 424.165 1002.48H424.421L426.032 992.818H429.049L424.702 1019H421.787L422.299 1015.98H421.941C421.659 1016.34 421.267 1016.79 420.765 1017.34C420.262 1017.87 419.597 1018.36 418.77 1018.78C417.952 1019.2 416.912 1019.41 415.651 1019.41ZM416.392 1016.7C417.603 1016.7 418.685 1016.38 419.64 1015.75C420.603 1015.11 421.404 1014.23 422.043 1013.11C422.682 1011.97 423.125 1010.66 423.373 1009.18C423.62 1007.72 423.611 1006.43 423.347 1005.33C423.083 1004.23 422.576 1003.37 421.826 1002.75C421.076 1002.13 420.083 1001.82 418.847 1001.82C417.577 1001.82 416.473 1002.15 415.536 1002.8C414.598 1003.45 413.836 1004.33 413.248 1005.45C412.659 1006.56 412.25 1007.8 412.02 1009.18C411.79 1010.58 411.786 1011.85 412.007 1012.99C412.229 1014.12 412.698 1015.03 413.414 1015.7C414.138 1016.37 415.131 1016.7 416.392 1016.7Z" fill="#CDCDCD"/>
<path d="M1311.53 1019L1315.88 992.818H1319.05L1316.9 1005.81H1317.21L1331.12 992.818H1335.26L1322.32 1004.63L1330.91 1019H1327.08L1320.02 1006.83L1316.14 1010.51L1314.7 1019H1311.53ZM1341.35 1019.41C1339.47 1019.41 1337.91 1018.99 1336.68 1018.16C1335.46 1017.31 1334.6 1016.14 1334.11 1014.63C1333.63 1013.11 1333.55 1011.35 1333.88 1009.34C1334.22 1007.32 1334.88 1005.55 1335.87 1004.02C1336.85 1002.47 1338.09 1001.27 1339.56 1000.41C1341.03 999.543 1342.65 999.108 1344.42 999.108C1345.44 999.108 1346.43 999.278 1347.37 999.619C1348.32 999.96 1349.14 1000.51 1349.83 1001.28C1350.52 1002.04 1351 1003.05 1351.27 1004.3C1351.54 1005.55 1351.53 1007.09 1351.22 1008.93L1351.01 1010.2H1335.88L1336.29 1007.6H1348.36C1348.55 1006.49 1348.5 1005.5 1348.2 1004.63C1347.91 1003.76 1347.41 1003.08 1346.68 1002.57C1345.96 1002.07 1345.06 1001.82 1343.96 1001.82C1342.82 1001.82 1341.77 1002.12 1340.79 1002.74C1339.81 1003.34 1338.99 1004.11 1338.33 1005.04C1337.68 1005.96 1337.27 1006.9 1337.11 1007.85L1336.75 1010.1C1336.49 1011.73 1336.53 1013.03 1336.86 1013.99C1337.2 1014.95 1337.8 1015.65 1338.64 1016.07C1339.48 1016.49 1340.54 1016.7 1341.81 1016.7C1342.62 1016.7 1343.37 1016.59 1344.05 1016.37C1344.73 1016.14 1345.34 1015.8 1345.88 1015.34C1346.41 1014.88 1346.86 1014.31 1347.23 1013.63L1349.99 1014.45C1349.52 1015.44 1348.86 1016.31 1348.01 1017.06C1347.17 1017.8 1346.18 1018.38 1345.04 1018.8C1343.92 1019.2 1342.69 1019.41 1341.35 1019.41ZM1354.34 1026.36C1353.82 1026.36 1353.37 1026.32 1352.98 1026.24C1352.6 1026.16 1352.33 1026.08 1352.19 1026.01L1353.41 1023.35C1354.11 1023.53 1354.74 1023.59 1355.28 1023.51C1355.84 1023.44 1356.36 1023.18 1356.85 1022.71C1357.36 1022.25 1357.88 1021.52 1358.43 1020.53L1359.27 1019L1355.33 999.364H1358.48L1361.29 1015.06H1361.49L1369.52 999.364H1372.92L1360.88 1021.84C1360.32 1022.89 1359.7 1023.74 1359.03 1024.41C1358.35 1025.07 1357.63 1025.56 1356.84 1025.88C1356.06 1026.2 1355.22 1026.36 1354.34 1026.36ZM1383.76 1019L1387.03 999.364H1389.95L1389.43 1002.33H1389.64C1390.15 1001.36 1390.93 1000.57 1391.98 999.964C1393.03 999.359 1394.14 999.057 1395.31 999.057C1395.54 999.057 1395.82 999.061 1396.15 999.07C1396.47 999.07 1396.72 999.082 1396.9 999.108L1396.39 1002.18C1396.29 1002.15 1396.06 1002.11 1395.7 1002.06C1395.34 1002 1394.96 1001.97 1394.55 1001.97C1393.59 1001.97 1392.71 1002.17 1391.9 1002.57C1391.09 1002.96 1390.41 1003.51 1389.87 1004.21C1389.32 1004.9 1388.97 1005.69 1388.82 1006.57L1386.77 1019H1383.76ZM1404.81 1019.41C1402.92 1019.41 1401.37 1018.99 1400.14 1018.16C1398.91 1017.31 1398.06 1016.14 1397.57 1014.63C1397.09 1013.11 1397.01 1011.35 1397.34 1009.34C1397.67 1007.32 1398.33 1005.55 1399.32 1004.02C1400.31 1002.47 1401.54 1001.27 1403.02 1000.41C1404.49 999.543 1406.11 999.108 1407.88 999.108C1408.9 999.108 1409.88 999.278 1410.83 999.619C1411.77 999.96 1412.59 1000.51 1413.28 1001.28C1413.97 1002.04 1414.45 1003.05 1414.73 1004.3C1415 1005.55 1414.98 1007.09 1414.68 1008.93L1414.47 1010.2H1399.34L1399.74 1007.6H1411.81C1412.01 1006.49 1411.96 1005.5 1411.66 1004.63C1411.37 1003.76 1410.86 1003.08 1410.14 1002.57C1409.42 1002.07 1408.51 1001.82 1407.41 1001.82C1406.28 1001.82 1405.22 1002.12 1404.24 1002.74C1403.26 1003.34 1402.45 1004.11 1401.79 1005.04C1401.13 1005.96 1400.72 1006.9 1400.56 1007.85L1400.2 1010.1C1399.95 1011.73 1399.99 1013.03 1400.32 1013.99C1400.66 1014.95 1401.25 1015.65 1402.1 1016.07C1402.94 1016.49 1404 1016.7 1405.27 1016.7C1406.08 1016.7 1406.82 1016.59 1407.5 1016.37C1408.19 1016.14 1408.8 1015.8 1409.33 1015.34C1409.87 1014.88 1410.32 1014.31 1410.69 1013.63L1413.45 1014.45C1412.98 1015.44 1412.32 1016.31 1411.47 1017.06C1410.62 1017.8 1409.63 1018.38 1408.5 1018.8C1407.38 1019.2 1406.14 1019.41 1404.81 1019.41ZM1425.01 992.818L1420.67 1019H1417.65L1422 992.818H1425.01ZM1434.37 1019.41C1432.49 1019.41 1430.93 1018.99 1429.71 1018.16C1428.48 1017.31 1427.62 1016.14 1427.14 1014.63C1426.65 1013.11 1426.57 1011.35 1426.91 1009.34C1427.24 1007.32 1427.9 1005.55 1428.89 1004.02C1429.88 1002.47 1431.11 1001.27 1432.58 1000.41C1434.06 999.543 1435.68 999.108 1437.44 999.108C1438.46 999.108 1439.45 999.278 1440.39 999.619C1441.34 999.96 1442.16 1000.51 1442.85 1001.28C1443.54 1002.04 1444.02 1003.05 1444.29 1004.3C1444.57 1005.55 1444.55 1007.09 1444.24 1008.93L1444.04 1010.2H1428.9L1429.31 1007.6H1441.38C1441.57 1006.49 1441.52 1005.5 1441.23 1004.63C1440.94 1003.76 1440.43 1003.08 1439.7 1002.57C1438.99 1002.07 1438.08 1001.82 1436.98 1001.82C1435.85 1001.82 1434.79 1002.12 1433.81 1002.74C1432.83 1003.34 1432.01 1004.11 1431.36 1005.04C1430.7 1005.96 1430.29 1006.9 1430.13 1007.85L1429.77 1010.1C1429.52 1011.73 1429.55 1013.03 1429.89 1013.99C1430.23 1014.95 1430.82 1015.65 1431.66 1016.07C1432.51 1016.49 1433.56 1016.7 1434.83 1016.7C1435.64 1016.7 1436.39 1016.59 1437.07 1016.37C1437.75 1016.14 1438.36 1015.8 1438.9 1015.34C1439.44 1014.88 1439.89 1014.31 1440.25 1013.63L1443.02 1014.45C1442.55 1015.44 1441.89 1016.31 1441.03 1017.06C1440.19 1017.8 1439.2 1018.38 1438.07 1018.8C1436.94 1019.2 1435.71 1019.41 1434.37 1019.41ZM1452.94 1019.46C1451.7 1019.46 1450.61 1019.23 1449.67 1018.76C1448.73 1018.28 1448.04 1017.59 1447.59 1016.7C1447.13 1015.8 1447.01 1014.7 1447.21 1013.43C1447.41 1012.3 1447.79 1011.39 1448.35 1010.69C1448.92 1009.98 1449.6 1009.43 1450.4 1009.03C1451.21 1008.62 1452.08 1008.32 1453.01 1008.12C1453.94 1007.92 1454.88 1007.76 1455.81 1007.65C1457.02 1007.49 1458 1007.37 1458.76 1007.29C1459.52 1007.2 1460.09 1007.06 1460.47 1006.87C1460.86 1006.67 1461.09 1006.34 1461.18 1005.86V1005.76C1461.38 1004.5 1461.21 1003.53 1460.68 1002.83C1460.14 1002.12 1459.18 1001.77 1457.8 1001.77C1456.37 1001.77 1455.17 1002.08 1454.21 1002.71C1453.24 1003.34 1452.53 1004.02 1452.07 1004.73L1449.41 1003.71C1450.11 1002.52 1450.95 1001.59 1451.92 1000.92C1452.89 1000.25 1453.91 999.781 1454.97 999.517C1456.04 999.244 1457.07 999.108 1458.06 999.108C1458.69 999.108 1459.4 999.185 1460.19 999.338C1460.98 999.483 1461.72 999.786 1462.42 1000.25C1463.11 1000.71 1463.64 1001.4 1463.99 1002.33C1464.35 1003.26 1464.4 1004.5 1464.14 1006.06L1461.99 1019H1458.98L1459.44 1016.34H1459.28C1459.01 1016.77 1458.59 1017.22 1458.03 1017.71C1457.48 1018.19 1456.77 1018.61 1455.92 1018.95C1455.08 1019.29 1454.08 1019.46 1452.94 1019.46ZM1453.81 1016.75C1455 1016.75 1456.05 1016.52 1456.94 1016.05C1457.85 1015.58 1458.57 1014.97 1459.12 1014.23C1459.67 1013.49 1460.02 1012.71 1460.15 1011.89L1460.61 1009.13C1460.46 1009.28 1460.16 1009.42 1459.7 1009.55C1459.25 1009.67 1458.74 1009.78 1458.17 1009.87C1457.61 1009.96 1457.06 1010.03 1456.52 1010.1C1455.99 1010.16 1455.57 1010.21 1455.24 1010.26C1454.44 1010.36 1453.68 1010.52 1452.95 1010.75C1452.24 1010.98 1451.63 1011.31 1451.14 1011.76C1450.65 1012.21 1450.35 1012.81 1450.23 1013.58C1450.05 1014.63 1450.3 1015.42 1450.99 1015.96C1451.67 1016.49 1452.61 1016.75 1453.81 1016.75ZM1483.97 1003.76L1481.1 1004.53C1481 1004.07 1480.82 1003.62 1480.57 1003.2C1480.32 1002.76 1479.93 1002.41 1479.41 1002.14C1478.9 1001.86 1478.2 1001.72 1477.32 1001.72C1476.12 1001.72 1475.07 1001.99 1474.19 1002.55C1473.3 1003.09 1472.79 1003.79 1472.66 1004.63C1472.54 1005.37 1472.71 1005.96 1473.18 1006.41C1473.64 1006.85 1474.43 1007.21 1475.53 1007.49L1478.34 1008.21C1480.03 1008.64 1481.23 1009.3 1481.95 1010.17C1482.67 1011.03 1482.92 1012.15 1482.69 1013.53C1482.5 1014.65 1482.01 1015.66 1481.22 1016.55C1480.42 1017.43 1479.41 1018.13 1478.17 1018.64C1476.94 1019.15 1475.56 1019.41 1474.05 1019.41C1472.03 1019.41 1470.43 1018.97 1469.26 1018.11C1468.1 1017.23 1467.47 1015.96 1467.4 1014.3L1470.41 1013.58C1470.49 1014.63 1470.87 1015.42 1471.54 1015.96C1472.22 1016.49 1473.18 1016.75 1474.4 1016.75C1475.81 1016.75 1476.98 1016.45 1477.92 1015.86C1478.86 1015.25 1479.39 1014.53 1479.52 1013.68C1479.64 1012.99 1479.51 1012.42 1479.11 1011.96C1478.72 1011.5 1478.03 1011.15 1477.06 1010.92L1473.94 1010.15C1472.2 1009.72 1470.99 1009.05 1470.29 1008.16C1469.6 1007.26 1469.37 1006.14 1469.6 1004.78C1469.78 1003.68 1470.26 1002.7 1471.03 1001.84C1471.8 1000.99 1472.78 1000.32 1473.94 999.837C1475.12 999.351 1476.4 999.108 1477.78 999.108C1479.72 999.108 1481.17 999.534 1482.14 1000.39C1483.1 1001.23 1483.71 1002.36 1483.97 1003.76ZM1494.49 1019.41C1492.61 1019.41 1491.05 1018.99 1489.82 1018.16C1488.6 1017.31 1487.74 1016.14 1487.25 1014.63C1486.77 1013.11 1486.69 1011.35 1487.02 1009.34C1487.36 1007.32 1488.02 1005.55 1489.01 1004.02C1489.99 1002.47 1491.23 1001.27 1492.7 1000.41C1494.18 999.543 1495.79 999.108 1497.56 999.108C1498.58 999.108 1499.57 999.278 1500.51 999.619C1501.46 999.96 1502.28 1000.51 1502.97 1001.28C1503.66 1002.04 1504.14 1003.05 1504.41 1004.3C1504.68 1005.55 1504.67 1007.09 1504.36 1008.93L1504.16 1010.2H1489.02L1489.43 1007.6H1501.5C1501.69 1006.49 1501.64 1005.5 1501.34 1004.63C1501.05 1003.76 1500.55 1003.08 1499.82 1002.57C1499.11 1002.07 1498.2 1001.82 1497.1 1001.82C1495.96 1001.82 1494.91 1002.12 1493.93 1002.74C1492.95 1003.34 1492.13 1004.11 1491.47 1005.04C1490.82 1005.96 1490.41 1006.9 1490.25 1007.85L1489.89 1010.1C1489.63 1011.73 1489.67 1013.03 1490 1013.99C1490.34 1014.95 1490.94 1015.65 1491.78 1016.07C1492.62 1016.49 1493.68 1016.7 1494.95 1016.7C1495.76 1016.7 1496.51 1016.59 1497.19 1016.37C1497.87 1016.14 1498.48 1015.8 1499.02 1015.34C1499.55 1014.88 1500 1014.31 1500.37 1013.63L1503.13 1014.45C1502.66 1015.44 1502 1016.31 1501.15 1017.06C1500.31 1017.8 1499.32 1018.38 1498.19 1018.8C1497.06 1019.2 1495.83 1019.41 1494.49 1019.41ZM1514.72 1019.41C1513.08 1019.41 1511.7 1019 1510.58 1018.17C1509.46 1017.33 1508.67 1016.16 1508.21 1014.64C1507.76 1013.12 1507.71 1011.31 1508.05 1009.23C1508.4 1007.17 1509.05 1005.38 1510 1003.86C1510.97 1002.35 1512.15 1001.17 1513.55 1000.35C1514.94 999.521 1516.47 999.108 1518.12 999.108C1519.4 999.108 1520.38 999.321 1521.05 999.747C1521.73 1000.16 1522.23 1000.64 1522.53 1001.18C1522.84 1001.71 1523.07 1002.14 1523.24 1002.48H1523.49L1525.1 992.818H1528.12L1523.77 1019H1520.86L1521.37 1015.98H1521.01C1520.73 1016.34 1520.34 1016.79 1519.83 1017.34C1519.33 1017.87 1518.67 1018.36 1517.84 1018.78C1517.02 1019.2 1515.98 1019.41 1514.72 1019.41ZM1515.46 1016.7C1516.67 1016.7 1517.76 1016.38 1518.71 1015.75C1519.67 1015.11 1520.47 1014.23 1521.11 1013.11C1521.75 1011.97 1522.2 1010.66 1522.44 1009.18C1522.69 1007.72 1522.68 1006.43 1522.42 1005.33C1522.15 1004.23 1521.65 1003.37 1520.9 1002.75C1520.15 1002.13 1519.15 1001.82 1517.92 1001.82C1516.65 1001.82 1515.54 1002.15 1514.61 1002.8C1513.67 1003.45 1512.91 1004.33 1512.32 1005.45C1511.73 1006.56 1511.32 1007.8 1511.09 1009.18C1510.86 1010.58 1510.86 1011.85 1511.08 1012.99C1511.3 1014.12 1511.77 1015.03 1512.48 1015.7C1513.21 1016.37 1514.2 1016.7 1515.46 1016.7Z" fill="#CDCDCD"/>
</svg>
