<svg width="1751" height="1177" viewBox="0 0 1751 1177" fill="none" xmlns="http://www.w3.org/2000/svg">
<path d="M167.078 87.3476V1021.78H1653.02" stroke="#083174" stroke-width="4"/>
<path d="M189.241 92.5615L167.078 71.812L144.915 92.5615H189.241Z" fill="#083174"/>
<path d="M1641.53 1042.53L1664.51 1021.78L1641.53 1001.03V1042.53Z" fill="#083174"/>
<path d="M167.078 1021.78C167.078 1021.78 406.153 396.971 451.697 156.778C451.697 156.778 571.959 522.689 760.369 575.177H1377.72C1377.72 575.177 1409.79 783.467 1564.13 1021.78" stroke="#00E494" stroke-width="5" stroke-miterlimit="5"/>
<path d="M451.697 156.778V1019.91" stroke="black" stroke-opacity="0.5" stroke-width="3" stroke-dasharray="12 12"/>
<path d="M760.369 575.177V1021.78" stroke="black" stroke-opacity="0.5" stroke-width="3" stroke-dasharray="12 12"/>
<path d="M1377.72 575.177V1021.78" stroke="black" stroke-opacity="0.5" stroke-width="3" stroke-dasharray="12 12"/>
<path d="M105 1017.12L78.8182 1017.12L78.8182 1013.17L101.599 1013.17L101.599 1001.31L105 1001.31L105 1017.12ZM105.396 988.647C105.396 990.582 104.983 992.248 104.156 993.646C103.321 995.035 102.149 996.109 100.641 996.867C99.1236 997.617 97.3466 997.992 95.3097 997.992C93.2983 997.992 91.5256 997.617 89.9915 996.867C88.4574 996.109 87.2599 995.052 86.3991 993.697C85.5384 992.333 85.108 990.739 85.108 988.915C85.108 987.808 85.2912 986.734 85.6577 985.694C86.0241 984.654 86.5994 983.721 87.3835 982.894C88.1676 982.067 89.1861 981.415 90.4389 980.938C91.6832 980.461 93.196 980.222 94.9773 980.222L96.3324 980.222L96.3324 995.832L93.4688 995.832L93.4688 983.968C92.4631 983.968 91.5724 984.173 90.7969 984.582C90.0128 984.991 89.3949 985.566 88.9432 986.308C88.4915 987.04 88.2656 987.901 88.2656 988.89C88.2656 989.964 88.5298 990.901 89.0582 991.702C89.5781 992.495 90.2599 993.109 91.1037 993.543C91.9389 993.969 92.8466 994.183 93.8267 994.183L96.0639 994.183C97.3764 994.183 98.4929 993.952 99.4134 993.492C100.334 993.023 101.037 992.371 101.523 991.536C102 990.701 102.239 989.725 102.239 988.609C102.239 987.884 102.136 987.224 101.932 986.627C101.719 986.031 101.403 985.515 100.986 985.08C100.568 984.646 100.053 984.313 99.4389 984.083L100.091 980.465C101.156 980.755 102.089 981.275 102.891 982.025C103.683 982.766 104.301 983.7 104.744 984.825C105.179 985.941 105.396 987.215 105.396 988.647ZM85.3636 959.745L105 966.866L105 970.957L85.3636 978.091L85.3636 973.987L100.474 969.014L100.474 968.809L85.3636 963.849L85.3636 959.745ZM105.396 948.358C105.396 950.293 104.983 951.959 104.156 953.357C103.321 954.746 102.149 955.82 100.641 956.578C99.1236 957.328 97.3466 957.703 95.3097 957.703C93.2983 957.703 91.5256 957.328 89.9915 956.578C88.4574 955.82 87.2599 954.763 86.3991 953.408C85.5384 952.044 85.108 950.45 85.108 948.626C85.108 947.518 85.2912 946.445 85.6577 945.405C86.0241 944.365 86.5994 943.432 87.3835 942.605C88.1676 941.778 89.1861 941.126 90.4389 940.649C91.6832 940.172 93.196 939.933 94.9773 939.933L96.3324 939.933L96.3324 955.543L93.4688 955.543L93.4688 943.679C92.4631 943.679 91.5724 943.884 90.7969 944.293C90.0128 944.702 89.3949 945.277 88.9432 946.018C88.4915 946.751 88.2656 947.612 88.2656 948.601C88.2656 949.675 88.5298 950.612 89.0582 951.413C89.5781 952.206 90.2599 952.82 91.1037 953.254C91.9389 953.68 92.8466 953.893 93.8267 953.893L96.0639 953.893C97.3764 953.893 98.4929 953.663 99.4134 953.203C100.334 952.734 101.037 952.082 101.523 951.247C102 950.412 102.239 949.436 102.239 948.32C102.239 947.595 102.136 946.935 101.932 946.338C101.719 945.741 101.403 945.226 100.986 944.791C100.568 944.357 100.053 944.024 99.4389 943.794L100.091 940.176C101.156 940.466 102.089 940.986 102.891 941.736C103.683 942.477 104.301 943.411 104.744 944.536C105.179 945.652 105.396 946.926 105.396 948.358ZM78.8182 931.87L105 931.87L105 935.692L78.8182 935.692L78.8182 931.87ZM78.8182 907.318L105 907.318L105 911.281L82.7813 911.281L82.7813 911.434L86.8722 917.699L83.0881 917.699L78.8182 911.166L78.8182 907.318ZM105.435 891.12C105.426 893.14 104.893 894.866 103.837 896.298C102.78 897.73 101.241 898.825 99.2216 899.583C97.2017 900.342 94.7685 900.721 91.9219 900.721C89.0838 900.721 86.6591 900.342 84.6477 899.583C82.6364 898.816 81.1023 897.717 80.0455 896.285C78.9886 894.845 78.4602 893.123 78.4602 891.12C78.4602 889.118 78.9929 887.4 80.0582 885.968C81.1151 884.537 82.6491 883.441 84.6605 882.683C86.6634 881.916 89.0838 881.532 91.9219 881.532C94.777 881.532 97.2145 881.912 99.2344 882.67C101.246 883.429 102.784 884.524 103.849 885.956C104.906 887.387 105.435 889.109 105.435 891.12ZM102.021 891.12C102.021 889.348 101.156 887.963 99.4261 886.966C97.696 885.96 95.1946 885.457 91.9219 885.457C89.7486 885.457 87.9119 885.687 86.4119 886.147C84.9034 886.599 83.7614 887.251 82.9858 888.103C82.2017 888.947 81.8097 889.953 81.8097 891.12C81.8097 892.885 82.679 894.27 84.4176 895.275C86.1562 896.281 88.6577 896.788 91.9219 896.797C94.1037 896.797 95.9489 896.571 97.4574 896.119C98.9574 895.659 100.095 895.007 100.871 894.163C101.638 893.319 102.021 892.305 102.021 891.12ZM105.435 867.882C105.426 869.902 104.893 871.628 103.837 873.06C102.78 874.491 101.241 875.587 99.2216 876.345C97.2017 877.104 94.7685 877.483 91.9219 877.483C89.0838 877.483 86.6591 877.104 84.6477 876.345C82.6364 875.578 81.1023 874.479 80.0455 873.047C78.9886 871.607 78.4602 869.885 78.4602 867.882C78.4602 865.879 78.9929 864.162 80.0582 862.73C81.1151 861.298 82.6491 860.203 84.6605 859.445C86.6634 858.678 89.0838 858.294 91.9219 858.294C94.777 858.294 97.2145 858.673 99.2344 859.432C101.246 860.19 102.784 861.286 103.849 862.717C104.906 864.149 105.435 865.871 105.435 867.882ZM102.021 867.882C102.021 866.109 101.156 864.724 99.4261 863.727C97.696 862.722 95.1946 862.219 91.9219 862.219C89.7486 862.219 87.9119 862.449 86.4119 862.909C84.9034 863.361 83.7614 864.013 82.9858 864.865C82.2017 865.709 81.8097 866.714 81.8097 867.882C81.8097 869.646 82.679 871.031 84.4176 872.037C86.1562 873.043 88.6577 873.55 91.9219 873.558C94.1037 873.558 95.9489 873.332 97.4574 872.881C98.9574 872.42 100.095 871.768 100.871 870.925C101.638 870.081 102.021 869.067 102.021 867.882ZM100.091 840.093L98.7102 840.093C97.7216 840.093 96.8182 839.888 96 839.479C95.1733 839.061 94.5128 838.456 94.0185 837.664C93.5156 836.863 93.2642 835.895 93.2642 834.762C93.2642 833.603 93.5114 832.631 94.0057 831.847C94.5 831.063 95.1605 830.471 95.9872 830.07C96.8139 829.661 97.7216 829.456 98.7102 829.456L100.091 829.456C101.08 829.456 101.987 829.661 102.814 830.07C103.632 830.479 104.293 831.08 104.795 831.873C105.29 832.657 105.537 833.62 105.537 834.762C105.537 835.912 105.29 836.884 104.795 837.676C104.293 838.469 103.632 839.07 102.814 839.479C101.987 839.888 101.08 840.093 100.091 840.093ZM98.7102 837.114L100.091 837.114C100.824 837.114 101.489 836.939 102.085 836.59C102.682 836.24 102.98 835.631 102.98 834.762C102.98 833.901 102.682 833.3 102.085 832.959C101.489 832.618 100.824 832.448 100.091 832.448L98.7102 832.448C97.9773 832.448 97.3125 832.614 96.7159 832.946C96.1193 833.27 95.821 833.875 95.821 834.762C95.821 835.614 96.1193 836.219 96.7159 836.577C97.3125 836.935 97.9773 837.114 98.7102 837.114ZM85.108 853.26L83.7273 853.26C82.7386 853.26 81.831 853.056 81.0043 852.647C80.1776 852.229 79.517 851.624 79.0227 850.831C78.5284 850.03 78.2813 849.063 78.2813 847.929C78.2813 846.77 78.5284 845.799 79.0227 845.015C79.517 844.23 80.1776 843.638 81.0043 843.238C81.831 842.837 82.7386 842.637 83.7273 842.637L85.108 842.637C86.0966 842.637 87.0043 842.841 87.831 843.25C88.6491 843.651 89.3097 844.248 89.8125 845.04C90.3068 845.824 90.554 846.787 90.554 847.929C90.554 849.088 90.3068 850.064 89.8125 850.857C89.3097 851.641 88.6491 852.238 87.831 852.647C87.0043 853.056 86.0966 853.26 85.108 853.26ZM83.7273 850.269L85.108 850.269C85.8409 850.269 86.5057 850.098 87.1023 849.757C87.6989 849.408 87.9972 848.799 87.9972 847.929C87.9972 847.077 87.6989 846.48 87.1023 846.14C86.5057 845.79 85.8409 845.615 85.108 845.615L83.7273 845.615C82.9943 845.615 82.3295 845.782 81.733 846.114C81.1364 846.446 80.8381 847.051 80.8381 847.929C80.8381 848.782 81.1364 849.387 81.733 849.745C82.3295 850.094 82.9943 850.269 83.7273 850.269ZM105 852.046L78.8182 834.046L78.8182 830.99L105 848.99L105 852.046Z" fill="#083174"/>
<path d="M257.788 958H251.857L260.895 931.818H268.028L277.054 958H271.122L264.564 937.801H264.359L257.788 958ZM257.418 947.709H271.429V952.03H257.418V947.709ZM289.317 938.364V942.455H277.492V938.364H289.317ZM280.176 933.659H285.623V951.966C285.623 952.469 285.699 952.861 285.853 953.142C286.006 953.415 286.219 953.607 286.492 953.717C286.773 953.828 287.097 953.884 287.463 953.884C287.719 953.884 287.975 953.862 288.23 953.82C288.486 953.768 288.682 953.73 288.819 953.705L289.675 957.757C289.402 957.842 289.019 957.94 288.525 958.051C288.03 958.17 287.429 958.243 286.722 958.268C285.409 958.32 284.259 958.145 283.27 957.744C282.29 957.344 281.527 956.722 280.982 955.878C280.436 955.034 280.168 953.969 280.176 952.682V933.659ZM303.309 938.364V942.455H291.484V938.364H303.309ZM294.169 933.659H299.615V951.966C299.615 952.469 299.691 952.861 299.845 953.142C299.998 953.415 300.211 953.607 300.484 953.717C300.765 953.828 301.089 953.884 301.456 953.884C301.711 953.884 301.967 953.862 302.223 953.82C302.478 953.768 302.674 953.73 302.811 953.705L303.667 957.757C303.395 957.842 303.011 957.94 302.517 958.051C302.022 958.17 301.422 958.243 300.714 958.268C299.402 958.32 298.251 958.145 297.262 957.744C296.282 957.344 295.52 956.722 294.974 955.878C294.429 955.034 294.16 953.969 294.169 952.682V933.659ZM312.456 958.371C311.203 958.371 310.087 958.153 309.107 957.719C308.127 957.276 307.351 956.624 306.78 955.763C306.218 954.893 305.936 953.811 305.936 952.516C305.936 951.425 306.137 950.509 306.537 949.767C306.938 949.026 307.483 948.429 308.174 947.977C308.864 947.526 309.648 947.185 310.526 946.955C311.412 946.724 312.341 946.562 313.313 946.469C314.455 946.349 315.375 946.239 316.074 946.136C316.773 946.026 317.28 945.864 317.596 945.651C317.911 945.437 318.069 945.122 318.069 944.705V944.628C318.069 943.818 317.813 943.192 317.301 942.749C316.799 942.305 316.083 942.084 315.154 942.084C314.174 942.084 313.394 942.301 312.814 942.736C312.235 943.162 311.851 943.699 311.664 944.347L306.627 943.938C306.882 942.744 307.385 941.713 308.135 940.844C308.885 939.966 309.853 939.293 311.037 938.824C312.23 938.347 313.611 938.108 315.179 938.108C316.27 938.108 317.314 938.236 318.311 938.491C319.317 938.747 320.208 939.143 320.983 939.68C321.767 940.217 322.385 940.908 322.837 941.751C323.289 942.587 323.515 943.588 323.515 944.756V958H318.35V955.277H318.196C317.881 955.891 317.459 956.432 316.931 956.901C316.402 957.361 315.767 957.723 315.026 957.987C314.284 958.243 313.428 958.371 312.456 958.371ZM314.016 954.612C314.817 954.612 315.525 954.455 316.138 954.139C316.752 953.815 317.233 953.381 317.583 952.835C317.932 952.29 318.107 951.672 318.107 950.982V948.898C317.936 949.009 317.702 949.111 317.404 949.205C317.114 949.29 316.786 949.371 316.419 949.447C316.053 949.516 315.686 949.58 315.32 949.639C314.953 949.69 314.621 949.737 314.323 949.78C313.684 949.874 313.125 950.023 312.648 950.227C312.171 950.432 311.8 950.709 311.536 951.058C311.272 951.399 311.14 951.825 311.14 952.337C311.14 953.078 311.408 953.645 311.945 954.037C312.49 954.42 313.181 954.612 314.016 954.612ZM336.612 958.384C334.6 958.384 332.87 957.957 331.422 957.105C329.981 956.244 328.873 955.051 328.098 953.526C327.331 952 326.947 950.244 326.947 948.259C326.947 946.247 327.335 944.483 328.11 942.966C328.895 941.44 330.007 940.251 331.447 939.399C332.887 938.538 334.6 938.108 336.586 938.108C338.299 938.108 339.799 938.419 341.086 939.041C342.373 939.663 343.392 940.537 344.142 941.662C344.892 942.787 345.305 944.108 345.382 945.625H340.243C340.098 944.645 339.714 943.857 339.092 943.26C338.478 942.655 337.673 942.352 336.676 942.352C335.832 942.352 335.095 942.582 334.464 943.043C333.842 943.494 333.356 944.155 333.007 945.024C332.657 945.893 332.483 946.946 332.483 948.182C332.483 949.435 332.653 950.5 332.994 951.378C333.343 952.256 333.833 952.925 334.464 953.385C335.095 953.845 335.832 954.075 336.676 954.075C337.298 954.075 337.856 953.947 338.35 953.692C338.853 953.436 339.267 953.065 339.591 952.58C339.923 952.085 340.14 951.493 340.243 950.803H345.382C345.297 952.303 344.887 953.624 344.154 954.766C343.43 955.899 342.429 956.786 341.15 957.425C339.872 958.064 338.359 958.384 336.612 958.384ZM353.803 952.349L353.816 945.817H354.609L360.898 938.364H367.15L358.7 948.233H357.408L353.803 952.349ZM348.869 958V931.818H354.315V958H348.869ZM361.141 958L355.363 949.447L358.994 945.599L367.521 958H361.141Z" fill="#083174"/>
<path d="M563.557 958H554.276V931.818H563.634C566.267 931.818 568.534 932.342 570.435 933.391C572.335 934.43 573.797 935.926 574.82 937.878C575.851 939.83 576.366 942.165 576.366 944.884C576.366 947.611 575.851 949.955 574.82 951.915C573.797 953.875 572.327 955.379 570.409 956.428C568.5 957.476 566.216 958 563.557 958ZM559.811 953.257H563.327C564.963 953.257 566.339 952.967 567.456 952.388C568.581 951.8 569.425 950.892 569.987 949.665C570.558 948.429 570.844 946.835 570.844 944.884C570.844 942.949 570.558 941.368 569.987 940.141C569.425 938.913 568.585 938.01 567.469 937.43C566.352 936.851 564.976 936.561 563.339 936.561H559.811V953.257ZM589.314 958.384C587.294 958.384 585.555 957.974 584.098 957.156C582.649 956.33 581.532 955.162 580.748 953.653C579.964 952.136 579.572 950.342 579.572 948.271C579.572 946.251 579.964 944.479 580.748 942.953C581.532 941.428 582.636 940.239 584.059 939.386C585.491 938.534 587.17 938.108 589.096 938.108C590.392 938.108 591.598 938.317 592.714 938.734C593.839 939.143 594.819 939.761 595.654 940.588C596.498 941.415 597.154 942.455 597.623 943.707C598.092 944.952 598.326 946.409 598.326 948.08V949.575H581.745V946.2H593.2C593.2 945.416 593.029 944.722 592.689 944.116C592.348 943.511 591.875 943.038 591.27 942.697C590.673 942.348 589.978 942.173 589.186 942.173C588.359 942.173 587.626 942.365 586.987 942.749C586.356 943.124 585.862 943.631 585.504 944.27C585.146 944.901 584.963 945.604 584.954 946.379V949.588C584.954 950.56 585.133 951.399 585.491 952.107C585.858 952.814 586.373 953.359 587.038 953.743C587.703 954.126 588.491 954.318 589.403 954.318C590.008 954.318 590.562 954.233 591.065 954.062C591.568 953.892 591.998 953.636 592.356 953.295C592.714 952.955 592.987 952.537 593.174 952.043L598.211 952.375C597.956 953.585 597.431 954.642 596.639 955.545C595.855 956.44 594.841 957.139 593.596 957.642C592.36 958.136 590.933 958.384 589.314 958.384ZM610.752 958.384C608.741 958.384 607.011 957.957 605.562 957.105C604.122 956.244 603.014 955.051 602.238 953.526C601.471 952 601.088 950.244 601.088 948.259C601.088 946.247 601.475 944.483 602.251 942.966C603.035 941.44 604.147 940.251 605.588 939.399C607.028 938.538 608.741 938.108 610.727 938.108C612.44 938.108 613.94 938.419 615.227 939.041C616.514 939.663 617.532 940.537 618.282 941.662C619.032 942.787 619.446 944.108 619.522 945.625H614.383C614.238 944.645 613.855 943.857 613.233 943.26C612.619 942.655 611.814 942.352 610.816 942.352C609.973 942.352 609.235 942.582 608.605 943.043C607.983 943.494 607.497 944.155 607.147 945.024C606.798 945.893 606.623 946.946 606.623 948.182C606.623 949.435 606.794 950.5 607.135 951.378C607.484 952.256 607.974 952.925 608.605 953.385C609.235 953.845 609.973 954.075 610.816 954.075C611.439 954.075 611.997 953.947 612.491 953.692C612.994 953.436 613.407 953.065 613.731 952.58C614.064 952.085 614.281 951.493 614.383 950.803H619.522C619.437 952.303 619.028 953.624 618.295 954.766C617.571 955.899 616.569 956.786 615.291 957.425C614.012 958.064 612.5 958.384 610.752 958.384ZM628.609 958.371C627.356 958.371 626.239 958.153 625.259 957.719C624.279 957.276 623.504 956.624 622.933 955.763C622.37 954.893 622.089 953.811 622.089 952.516C622.089 951.425 622.289 950.509 622.69 949.767C623.09 949.026 623.636 948.429 624.326 947.977C625.016 947.526 625.8 947.185 626.678 946.955C627.565 946.724 628.494 946.562 629.465 946.469C630.607 946.349 631.528 946.239 632.227 946.136C632.925 946.026 633.433 945.864 633.748 945.651C634.063 945.437 634.221 945.122 634.221 944.705V944.628C634.221 943.818 633.965 943.192 633.454 942.749C632.951 942.305 632.235 942.084 631.306 942.084C630.326 942.084 629.546 942.301 628.967 942.736C628.387 943.162 628.004 943.699 627.816 944.347L622.779 943.938C623.035 942.744 623.538 941.713 624.288 940.844C625.038 939.966 626.005 939.293 627.19 938.824C628.383 938.347 629.763 938.108 631.332 938.108C632.423 938.108 633.467 938.236 634.464 938.491C635.469 938.747 636.36 939.143 637.136 939.68C637.92 940.217 638.538 940.908 638.989 941.751C639.441 942.587 639.667 943.588 639.667 944.756V958H634.502V955.277H634.349C634.033 955.891 633.612 956.432 633.083 956.901C632.555 957.361 631.92 957.723 631.178 957.987C630.437 958.243 629.58 958.371 628.609 958.371ZM630.168 954.612C630.969 954.612 631.677 954.455 632.29 954.139C632.904 953.815 633.386 953.381 633.735 952.835C634.085 952.29 634.259 951.672 634.259 950.982V948.898C634.089 949.009 633.854 949.111 633.556 949.205C633.266 949.29 632.938 949.371 632.572 949.447C632.205 949.516 631.839 949.58 631.472 949.639C631.106 949.69 630.773 949.737 630.475 949.78C629.836 949.874 629.278 950.023 628.8 950.227C628.323 950.432 627.952 950.709 627.688 951.058C627.424 951.399 627.292 951.825 627.292 952.337C627.292 953.078 627.56 953.645 628.097 954.037C628.643 954.42 629.333 954.612 630.168 954.612ZM646.551 965.364C645.861 965.364 645.213 965.308 644.608 965.197C644.011 965.095 643.517 964.963 643.125 964.801L644.352 960.736C644.991 960.932 645.567 961.038 646.078 961.055C646.598 961.072 647.045 960.953 647.42 960.697C647.804 960.442 648.115 960.007 648.354 959.393L648.673 958.562L641.629 938.364H647.357L651.422 952.784H651.626L655.73 938.364H661.496L653.864 960.122C653.497 961.179 652.999 962.099 652.368 962.884C651.746 963.676 650.957 964.286 650.003 964.712C649.048 965.146 647.898 965.364 646.551 965.364Z" fill="#083174"/>
<path d="M1450.28 958V931.818H1460.61C1462.58 931.818 1464.27 932.172 1465.67 932.879C1467.07 933.578 1468.14 934.571 1468.88 935.858C1469.62 937.136 1469.99 938.641 1469.99 940.371C1469.99 942.109 1469.61 943.605 1468.86 944.858C1468.11 946.102 1467.03 947.057 1465.6 947.722C1464.19 948.386 1462.48 948.719 1460.46 948.719H1453.55V944.27H1459.57C1460.63 944.27 1461.5 944.125 1462.2 943.835C1462.9 943.545 1463.42 943.111 1463.76 942.531C1464.11 941.952 1464.29 941.232 1464.29 940.371C1464.29 939.501 1464.11 938.768 1463.76 938.172C1463.42 937.575 1462.9 937.124 1462.19 936.817C1461.49 936.501 1460.61 936.344 1459.54 936.344H1455.81V958H1450.28ZM1464.41 946.085L1470.92 958H1464.81L1458.44 946.085H1464.41ZM1482.43 958.384C1480.41 958.384 1478.67 957.974 1477.21 957.156C1475.77 956.33 1474.65 955.162 1473.87 953.653C1473.08 952.136 1472.69 950.342 1472.69 948.271C1472.69 946.251 1473.08 944.479 1473.87 942.953C1474.65 941.428 1475.75 940.239 1477.18 939.386C1478.61 938.534 1480.29 938.108 1482.21 938.108C1483.51 938.108 1484.71 938.317 1485.83 938.734C1486.96 939.143 1487.94 939.761 1488.77 940.588C1489.62 941.415 1490.27 942.455 1490.74 943.707C1491.21 944.952 1491.44 946.409 1491.44 948.08V949.575H1474.86V946.2H1486.32C1486.32 945.416 1486.15 944.722 1485.81 944.116C1485.46 943.511 1484.99 943.038 1484.39 942.697C1483.79 942.348 1483.1 942.173 1482.3 942.173C1481.48 942.173 1480.74 942.365 1480.1 942.749C1479.47 943.124 1478.98 943.631 1478.62 944.27C1478.26 944.901 1478.08 945.604 1478.07 946.379V949.588C1478.07 950.56 1478.25 951.399 1478.61 952.107C1478.97 952.814 1479.49 953.359 1480.16 953.743C1480.82 954.126 1481.61 954.318 1482.52 954.318C1483.13 954.318 1483.68 954.233 1484.18 954.062C1484.69 953.892 1485.12 953.636 1485.47 953.295C1485.83 952.955 1486.1 952.537 1486.29 952.043L1491.33 952.375C1491.07 953.585 1490.55 954.642 1489.76 955.545C1488.97 956.44 1487.96 957.139 1486.71 957.642C1485.48 958.136 1484.05 958.384 1482.43 958.384ZM1500.44 931.818V958H1495V931.818H1500.44ZM1513.75 958.384C1511.74 958.384 1510 957.974 1508.54 957.156C1507.09 956.33 1505.97 955.162 1505.19 953.653C1504.41 952.136 1504.01 950.342 1504.01 948.271C1504.01 946.251 1504.41 944.479 1505.19 942.953C1505.97 941.428 1507.08 940.239 1508.5 939.386C1509.93 938.534 1511.61 938.108 1513.54 938.108C1514.83 938.108 1516.04 938.317 1517.16 938.734C1518.28 939.143 1519.26 939.761 1520.1 940.588C1520.94 941.415 1521.6 942.455 1522.06 943.707C1522.53 944.952 1522.77 946.409 1522.77 948.08V949.575H1506.19V946.2H1517.64C1517.64 945.416 1517.47 944.722 1517.13 944.116C1516.79 943.511 1516.32 943.038 1515.71 942.697C1515.11 942.348 1514.42 942.173 1513.63 942.173C1512.8 942.173 1512.07 942.365 1511.43 942.749C1510.8 943.124 1510.3 943.631 1509.95 944.27C1509.59 944.901 1509.4 945.604 1509.4 946.379V949.588C1509.4 950.56 1509.57 951.399 1509.93 952.107C1510.3 952.814 1510.81 953.359 1511.48 953.743C1512.14 954.126 1512.93 954.318 1513.84 954.318C1514.45 954.318 1515 954.233 1515.51 954.062C1516.01 953.892 1516.44 953.636 1516.8 953.295C1517.16 952.955 1517.43 952.537 1517.62 952.043L1522.65 952.375C1522.4 953.585 1521.87 954.642 1521.08 955.545C1520.3 956.44 1519.28 957.139 1518.04 957.642C1516.8 958.136 1515.37 958.384 1513.75 958.384ZM1531.92 958.371C1530.67 958.371 1529.55 958.153 1528.57 957.719C1527.59 957.276 1526.82 956.624 1526.25 955.763C1525.68 954.893 1525.4 953.811 1525.4 952.516C1525.4 951.425 1525.6 950.509 1526 949.767C1526.4 949.026 1526.95 948.429 1527.64 947.977C1528.33 947.526 1529.11 947.185 1529.99 946.955C1530.88 946.724 1531.81 946.562 1532.78 946.469C1533.92 946.349 1534.84 946.239 1535.54 946.136C1536.24 946.026 1536.75 945.864 1537.06 945.651C1537.38 945.437 1537.53 945.122 1537.53 944.705V944.628C1537.53 943.818 1537.28 943.192 1536.77 942.749C1536.26 942.305 1535.55 942.084 1534.62 942.084C1533.64 942.084 1532.86 942.301 1532.28 942.736C1531.7 943.162 1531.32 943.699 1531.13 944.347L1526.09 943.938C1526.35 942.744 1526.85 941.713 1527.6 940.844C1528.35 939.966 1529.32 939.293 1530.5 938.824C1531.7 938.347 1533.08 938.108 1534.64 938.108C1535.74 938.108 1536.78 938.236 1537.78 938.491C1538.78 938.747 1539.67 939.143 1540.45 939.68C1541.23 940.217 1541.85 940.908 1542.3 941.751C1542.75 942.587 1542.98 943.588 1542.98 944.756V958H1537.81V955.277H1537.66C1537.35 955.891 1536.92 956.432 1536.4 956.901C1535.87 957.361 1535.23 957.723 1534.49 957.987C1533.75 958.243 1532.89 958.371 1531.92 958.371ZM1533.48 954.612C1534.28 954.612 1534.99 954.455 1535.6 954.139C1536.22 953.815 1536.7 953.381 1537.05 952.835C1537.4 952.29 1537.57 951.672 1537.57 950.982V948.898C1537.4 949.009 1537.17 949.111 1536.87 949.205C1536.58 949.29 1536.25 949.371 1535.88 949.447C1535.52 949.516 1535.15 949.58 1534.78 949.639C1534.42 949.69 1534.09 949.737 1533.79 949.78C1533.15 949.874 1532.59 950.023 1532.11 950.227C1531.64 950.432 1531.26 950.709 1531 951.058C1530.74 951.399 1530.6 951.825 1530.6 952.337C1530.6 953.078 1530.87 953.645 1531.41 954.037C1531.96 954.42 1532.65 954.612 1533.48 954.612ZM1563.54 943.963L1558.56 944.27C1558.47 943.844 1558.29 943.46 1558.01 943.119C1557.73 942.77 1557.36 942.493 1556.89 942.288C1556.44 942.075 1555.9 941.969 1555.27 941.969C1554.43 941.969 1553.72 942.148 1553.14 942.506C1552.56 942.855 1552.27 943.324 1552.27 943.912C1552.27 944.381 1552.45 944.777 1552.83 945.101C1553.2 945.425 1553.85 945.685 1554.76 945.881L1558.31 946.597C1560.22 946.989 1561.65 947.619 1562.58 948.489C1563.52 949.358 1563.99 950.5 1563.99 951.915C1563.99 953.202 1563.61 954.331 1562.85 955.303C1562.1 956.274 1561.07 957.033 1559.76 957.578C1558.45 958.115 1556.95 958.384 1555.25 958.384C1552.65 958.384 1550.58 957.842 1549.03 956.76C1547.5 955.669 1546.6 954.186 1546.34 952.311L1551.69 952.03C1551.85 952.822 1552.25 953.428 1552.87 953.845C1553.49 954.254 1554.29 954.459 1555.26 954.459C1556.21 954.459 1556.98 954.276 1557.56 953.909C1558.15 953.534 1558.45 953.053 1558.45 952.464C1558.45 951.97 1558.24 951.565 1557.83 951.25C1557.42 950.926 1556.79 950.679 1555.94 950.509L1552.54 949.831C1550.62 949.447 1549.19 948.783 1548.25 947.837C1547.32 946.891 1546.86 945.685 1546.86 944.219C1546.86 942.957 1547.2 941.871 1547.88 940.959C1548.57 940.047 1549.54 939.344 1550.78 938.849C1552.04 938.355 1553.5 938.108 1555.18 938.108C1557.66 938.108 1559.61 938.632 1561.04 939.68C1562.47 940.729 1563.3 942.156 1563.54 943.963ZM1576.37 958.384C1574.35 958.384 1572.61 957.974 1571.15 957.156C1569.7 956.33 1568.59 955.162 1567.8 953.653C1567.02 952.136 1566.63 950.342 1566.63 948.271C1566.63 946.251 1567.02 944.479 1567.8 942.953C1568.59 941.428 1569.69 940.239 1571.11 939.386C1572.55 938.534 1574.22 938.108 1576.15 938.108C1577.45 938.108 1578.65 938.317 1579.77 938.734C1580.89 939.143 1581.87 939.761 1582.71 940.588C1583.55 941.415 1584.21 942.455 1584.68 943.707C1585.15 944.952 1585.38 946.409 1585.38 948.08V949.575H1568.8V946.2H1580.25C1580.25 945.416 1580.08 944.722 1579.74 944.116C1579.4 943.511 1578.93 943.038 1578.32 942.697C1577.73 942.348 1577.03 942.173 1576.24 942.173C1575.41 942.173 1574.68 942.365 1574.04 942.749C1573.41 943.124 1572.92 943.631 1572.56 944.27C1572.2 944.901 1572.02 945.604 1572.01 946.379V949.588C1572.01 950.56 1572.19 951.399 1572.55 952.107C1572.91 952.814 1573.43 953.359 1574.09 953.743C1574.76 954.126 1575.55 954.318 1576.46 954.318C1577.06 954.318 1577.62 954.233 1578.12 954.062C1578.62 953.892 1579.05 953.636 1579.41 953.295C1579.77 952.955 1580.04 952.537 1580.23 952.043L1585.27 952.375C1585.01 953.585 1584.49 954.642 1583.69 955.545C1582.91 956.44 1581.9 957.139 1580.65 957.642C1579.42 958.136 1577.99 958.384 1576.37 958.384Z" fill="#083174"/>
<path d="M1021.48 939.348C1021.38 938.317 1020.94 937.516 1020.16 936.945C1019.39 936.374 1018.33 936.088 1017 936.088C1016.1 936.088 1015.34 936.216 1014.72 936.472C1014.09 936.719 1013.62 937.064 1013.28 937.507C1012.96 937.95 1012.8 938.453 1012.8 939.016C1012.78 939.484 1012.88 939.893 1013.09 940.243C1013.31 940.592 1013.62 940.895 1014 941.151C1014.38 941.398 1014.83 941.615 1015.33 941.803C1015.83 941.982 1016.37 942.135 1016.94 942.263L1019.29 942.825C1020.43 943.081 1021.48 943.422 1022.44 943.848C1023.39 944.274 1024.22 944.798 1024.92 945.42C1025.62 946.043 1026.16 946.776 1026.54 947.619C1026.93 948.463 1027.13 949.43 1027.14 950.521C1027.13 952.124 1026.72 953.513 1025.91 954.689C1025.11 955.857 1023.95 956.764 1022.44 957.412C1020.93 958.051 1019.11 958.371 1016.98 958.371C1014.87 958.371 1013.02 958.047 1011.46 957.399C1009.9 956.751 1008.68 955.793 1007.8 954.523C1006.93 953.244 1006.47 951.663 1006.43 949.78H1011.79C1011.85 950.658 1012.1 951.391 1012.54 951.979C1012.99 952.558 1013.6 952.997 1014.35 953.295C1015.1 953.585 1015.96 953.73 1016.91 953.73C1017.85 953.73 1018.67 953.594 1019.36 953.321C1020.06 953.048 1020.6 952.669 1020.98 952.183C1021.36 951.697 1021.56 951.139 1021.56 950.509C1021.56 949.92 1021.38 949.426 1021.03 949.026C1020.69 948.625 1020.19 948.284 1019.52 948.003C1018.87 947.722 1018.06 947.466 1017.11 947.236L1014.26 946.52C1012.05 945.983 1010.31 945.143 1009.03 944.001C1007.75 942.859 1007.11 941.321 1007.12 939.386C1007.11 937.801 1007.54 936.416 1008.39 935.232C1009.25 934.047 1010.43 933.122 1011.93 932.457C1013.43 931.793 1015.13 931.46 1017.04 931.46C1018.99 931.46 1020.68 931.793 1022.13 932.457C1023.59 933.122 1024.72 934.047 1025.53 935.232C1026.34 936.416 1026.76 937.788 1026.78 939.348H1021.48ZM1043.36 949.639V938.364H1048.8V958H1043.57V954.433H1043.37C1042.93 955.584 1042.19 956.509 1041.16 957.207C1040.13 957.906 1038.89 958.256 1037.41 958.256C1036.1 958.256 1034.94 957.957 1033.95 957.361C1032.95 956.764 1032.17 955.916 1031.61 954.817C1031.05 953.717 1030.77 952.401 1030.76 950.866V938.364H1036.21V949.895C1036.22 951.054 1036.53 951.97 1037.14 952.643C1037.76 953.317 1038.58 953.653 1039.61 953.653C1040.27 953.653 1040.88 953.504 1041.45 953.206C1042.02 952.899 1042.48 952.447 1042.83 951.851C1043.19 951.254 1043.36 950.517 1043.36 949.639ZM1069.5 943.963L1064.51 944.27C1064.42 943.844 1064.24 943.46 1063.96 943.119C1063.68 942.77 1063.31 942.493 1062.85 942.288C1062.4 942.075 1061.86 941.969 1061.22 941.969C1060.38 941.969 1059.67 942.148 1059.09 942.506C1058.51 942.855 1058.22 943.324 1058.22 943.912C1058.22 944.381 1058.41 944.777 1058.78 945.101C1059.16 945.425 1059.8 945.685 1060.71 945.881L1064.27 946.597C1066.18 946.989 1067.6 947.619 1068.54 948.489C1069.47 949.358 1069.94 950.5 1069.94 951.915C1069.94 953.202 1069.56 954.331 1068.81 955.303C1068.06 956.274 1067.02 957.033 1065.71 957.578C1064.41 958.115 1062.9 958.384 1061.2 958.384C1058.6 958.384 1056.53 957.842 1054.99 956.76C1053.45 955.669 1052.55 954.186 1052.29 952.311L1057.64 952.03C1057.81 952.822 1058.2 953.428 1058.82 953.845C1059.44 954.254 1060.24 954.459 1061.21 954.459C1062.17 954.459 1062.93 954.276 1063.51 953.909C1064.1 953.534 1064.4 953.053 1064.41 952.464C1064.4 951.97 1064.19 951.565 1063.78 951.25C1063.37 950.926 1062.74 950.679 1061.89 950.509L1058.49 949.831C1056.57 949.447 1055.14 948.783 1054.21 947.837C1053.28 946.891 1052.81 945.685 1052.81 944.219C1052.81 942.957 1053.15 941.871 1053.84 940.959C1054.53 940.047 1055.49 939.344 1056.74 938.849C1057.99 938.355 1059.46 938.108 1061.13 938.108C1063.62 938.108 1065.57 938.632 1066.99 939.68C1068.42 940.729 1069.26 942.156 1069.5 943.963ZM1083.82 938.364V942.455H1071.99V938.364H1083.82ZM1074.68 933.659H1080.12V951.966C1080.12 952.469 1080.2 952.861 1080.35 953.142C1080.51 953.415 1080.72 953.607 1080.99 953.717C1081.27 953.828 1081.6 953.884 1081.96 953.884C1082.22 953.884 1082.47 953.862 1082.73 953.82C1082.99 953.768 1083.18 953.73 1083.32 953.705L1084.18 957.757C1083.9 957.842 1083.52 957.94 1083.02 958.051C1082.53 958.17 1081.93 958.243 1081.22 958.268C1079.91 958.32 1078.76 958.145 1077.77 957.744C1076.79 957.344 1076.03 956.722 1075.48 955.878C1074.94 955.034 1074.67 953.969 1074.68 952.682V933.659ZM1092.96 958.371C1091.71 958.371 1090.59 958.153 1089.61 957.719C1088.63 957.276 1087.86 956.624 1087.29 955.763C1086.73 954.893 1086.44 953.811 1086.44 952.516C1086.44 951.425 1086.64 950.509 1087.05 949.767C1087.45 949.026 1087.99 948.429 1088.68 947.977C1089.37 947.526 1090.16 947.185 1091.03 946.955C1091.92 946.724 1092.85 946.562 1093.82 946.469C1094.96 946.349 1095.88 946.239 1096.58 946.136C1097.28 946.026 1097.79 945.864 1098.1 945.651C1098.42 945.437 1098.58 945.122 1098.58 944.705V944.628C1098.58 943.818 1098.32 943.192 1097.81 942.749C1097.31 942.305 1096.59 942.084 1095.66 942.084C1094.68 942.084 1093.9 942.301 1093.32 942.736C1092.74 943.162 1092.36 943.699 1092.17 944.347L1087.13 943.938C1087.39 942.744 1087.89 941.713 1088.64 940.844C1089.39 939.966 1090.36 939.293 1091.55 938.824C1092.74 938.347 1094.12 938.108 1095.69 938.108C1096.78 938.108 1097.82 938.236 1098.82 938.491C1099.82 938.747 1100.72 939.143 1101.49 939.68C1102.28 940.217 1102.89 940.908 1103.34 941.751C1103.8 942.587 1104.02 943.588 1104.02 944.756V958H1098.86V955.277H1098.7C1098.39 955.891 1097.97 956.432 1097.44 956.901C1096.91 957.361 1096.28 957.723 1095.53 957.987C1094.79 958.243 1093.94 958.371 1092.96 958.371ZM1094.52 954.612C1095.32 954.612 1096.03 954.455 1096.65 954.139C1097.26 953.815 1097.74 953.381 1098.09 952.835C1098.44 952.29 1098.61 951.672 1098.61 950.982V948.898C1098.44 949.009 1098.21 949.111 1097.91 949.205C1097.62 949.29 1097.29 949.371 1096.93 949.447C1096.56 949.516 1096.19 949.58 1095.83 949.639C1095.46 949.69 1095.13 949.737 1094.83 949.78C1094.19 949.874 1093.63 950.023 1093.16 950.227C1092.68 950.432 1092.31 950.709 1092.04 951.058C1091.78 951.399 1091.65 951.825 1091.65 952.337C1091.65 953.078 1091.92 953.645 1092.45 954.037C1093 954.42 1093.69 954.612 1094.52 954.612ZM1108.25 958V938.364H1113.69V958H1108.25ZM1110.98 935.832C1110.17 935.832 1109.48 935.564 1108.9 935.027C1108.33 934.482 1108.04 933.83 1108.04 933.071C1108.04 932.321 1108.33 931.678 1108.9 931.141C1109.48 930.595 1110.17 930.322 1110.98 930.322C1111.79 930.322 1112.48 930.595 1113.05 931.141C1113.63 931.678 1113.92 932.321 1113.92 933.071C1113.92 933.83 1113.63 934.482 1113.05 935.027C1112.48 935.564 1111.79 935.832 1110.98 935.832ZM1123.5 946.648V958H1118.06V938.364H1123.25V941.828H1123.48C1123.91 940.686 1124.64 939.783 1125.66 939.118C1126.69 938.445 1127.93 938.108 1129.38 938.108C1130.75 938.108 1131.94 938.406 1132.95 939.003C1133.96 939.599 1134.75 940.452 1135.31 941.56C1135.88 942.659 1136.16 943.972 1136.16 945.497V958H1130.71V946.469C1130.72 945.267 1130.41 944.33 1129.79 943.656C1129.17 942.974 1128.31 942.634 1127.22 942.634C1126.49 942.634 1125.84 942.791 1125.28 943.107C1124.73 943.422 1124.29 943.882 1123.98 944.487C1123.67 945.084 1123.51 945.804 1123.5 946.648Z" fill="#083174"/>
<path d="M161.585 1069.22V1065.82H181.848V1069.22H173.679V1092H169.741V1069.22H161.585ZM186.019 1092V1072.36H189.841V1092H186.019ZM187.949 1069.33C187.284 1069.33 186.713 1069.11 186.236 1068.67C185.767 1068.22 185.533 1067.68 185.533 1067.06C185.533 1066.43 185.767 1065.89 186.236 1065.45C186.713 1065 187.284 1064.77 187.949 1064.77C188.614 1064.77 189.181 1065 189.65 1065.45C190.127 1065.89 190.365 1066.43 190.365 1067.06C190.365 1067.68 190.127 1068.22 189.65 1068.67C189.181 1069.11 188.614 1069.33 187.949 1069.33ZM194.984 1092V1072.36H198.653V1075.56H198.896C199.305 1074.48 199.974 1073.63 200.903 1073.03C201.832 1072.41 202.944 1072.11 204.239 1072.11C205.552 1072.11 206.651 1072.41 207.538 1073.03C208.433 1073.64 209.093 1074.49 209.519 1075.56H209.724C210.192 1074.51 210.938 1073.68 211.961 1073.05C212.984 1072.42 214.202 1072.11 215.617 1072.11C217.398 1072.11 218.852 1072.67 219.977 1073.78C221.11 1074.9 221.677 1076.58 221.677 1078.83V1092H217.854V1079.19C217.854 1077.86 217.492 1076.9 216.768 1076.3C216.043 1075.7 215.178 1075.41 214.173 1075.41C212.928 1075.41 211.961 1075.79 211.271 1076.56C210.58 1077.32 210.235 1078.29 210.235 1079.48V1092H206.425V1078.95C206.425 1077.88 206.093 1077.03 205.428 1076.38C204.763 1075.73 203.898 1075.41 202.833 1075.41C202.109 1075.41 201.44 1075.6 200.826 1075.98C200.221 1076.36 199.731 1076.88 199.356 1077.55C198.989 1078.23 198.806 1079.01 198.806 1079.89V1092H194.984ZM235.263 1092.4C233.328 1092.4 231.662 1091.98 230.265 1091.16C228.875 1090.32 227.801 1089.15 227.043 1087.64C226.293 1086.12 225.918 1084.35 225.918 1082.31C225.918 1080.3 226.293 1078.53 227.043 1076.99C227.801 1075.46 228.858 1074.26 230.213 1073.4C231.577 1072.54 233.171 1072.11 234.995 1072.11C236.103 1072.11 237.176 1072.29 238.216 1072.66C239.256 1073.02 240.189 1073.6 241.016 1074.38C241.843 1075.17 242.495 1076.19 242.972 1077.44C243.449 1078.68 243.688 1080.2 243.688 1081.98V1083.33H228.078V1080.47H239.942C239.942 1079.46 239.738 1078.57 239.328 1077.8C238.919 1077.01 238.344 1076.39 237.603 1075.94C236.87 1075.49 236.009 1075.27 235.02 1075.27C233.946 1075.27 233.009 1075.53 232.208 1076.06C231.415 1076.58 230.801 1077.26 230.367 1078.1C229.941 1078.94 229.728 1079.85 229.728 1080.83V1083.06C229.728 1084.38 229.958 1085.49 230.418 1086.41C230.887 1087.33 231.539 1088.04 232.374 1088.52C233.209 1089 234.185 1089.24 235.301 1089.24C236.026 1089.24 236.686 1089.14 237.283 1088.93C237.88 1088.72 238.395 1088.4 238.83 1087.99C239.265 1087.57 239.597 1087.05 239.827 1086.44L243.445 1087.09C243.155 1088.16 242.635 1089.09 241.885 1089.89C241.144 1090.68 240.211 1091.3 239.086 1091.74C237.969 1092.18 236.695 1092.4 235.263 1092.4Z" fill="#083174"/>
</svg>
