<svg width="1800" height="1210" viewBox="0 0 1800 1210" fill="none" xmlns="http://www.w3.org/2000/svg">
<path d="M171.754 89.7966V1050.43H1699.28" stroke="#F3F3F3" stroke-width="4"/>
<path d="M194.537 95.1567L171.754 73.8254L148.97 95.1567H194.537Z" fill="#F3F3F3"/>
<path d="M1687.46 1071.76L1711.09 1050.43L1687.46 1029.1V1071.76Z" fill="#F3F3F3"/>
<path d="M171.754 1050.43C171.754 1050.43 417.519 408.101 464.338 161.174C464.338 161.174 587.965 537.344 781.647 591.304H1416.28C1416.28 591.304 1449.24 805.433 1607.9 1050.43" stroke="#00E494" stroke-width="5" stroke-miterlimit="5"/>
<path d="M464.338 161.174V1048.5" stroke="#F3F3F3" stroke-opacity="0.5" stroke-width="3" stroke-dasharray="12 12"/>
<path d="M781.647 591.304V1050.43" stroke="#F3F3F3" stroke-opacity="0.5" stroke-width="3" stroke-dasharray="12 12"/>
<path d="M1416.28 591.304V1050.43" stroke="#F3F3F3" stroke-opacity="0.5" stroke-width="3" stroke-dasharray="12 12"/>
<path d="M106.959 1045.72L80.7772 1045.72L80.7772 1041.77L103.558 1041.77L103.558 1029.91L106.959 1029.91L106.959 1045.72ZM107.355 1017.25C107.355 1019.18 106.942 1020.85 106.115 1022.24C105.28 1023.63 104.108 1024.71 102.6 1025.47C101.083 1026.22 99.3056 1026.59 97.2686 1026.59C95.2573 1026.59 93.4846 1026.22 91.9505 1025.47C90.4164 1024.71 89.2189 1023.65 88.3581 1022.29C87.4973 1020.93 87.0669 1019.34 87.0669 1017.51C87.0669 1016.41 87.2502 1015.33 87.6167 1014.29C87.9831 1013.25 88.5584 1012.32 89.3425 1011.49C90.1266 1010.67 91.1451 1010.01 92.3979 1009.54C93.6422 1009.06 95.155 1008.82 96.9363 1008.82L98.2914 1008.82L98.2914 1024.43L95.4277 1024.43L95.4277 1012.57C94.4221 1012.57 93.5314 1012.77 92.7559 1013.18C91.9718 1013.59 91.3539 1014.16 90.9022 1014.91C90.4505 1015.64 90.2246 1016.5 90.2246 1017.49C90.2246 1018.56 90.4888 1019.5 91.0172 1020.3C91.5371 1021.09 92.2189 1021.71 93.0627 1022.14C93.8979 1022.57 94.8056 1022.78 95.7857 1022.78L98.0229 1022.78C99.3354 1022.78 100.452 1022.55 101.372 1022.09C102.293 1021.62 102.996 1020.97 103.482 1020.13C103.959 1019.3 104.198 1018.32 104.198 1017.21C104.198 1016.48 104.095 1015.82 103.891 1015.23C103.678 1014.63 103.362 1014.11 102.945 1013.68C102.527 1013.24 102.012 1012.91 101.398 1012.68L102.05 1009.06C103.115 1009.35 104.048 1009.87 104.85 1010.62C105.642 1011.36 106.26 1012.3 106.703 1013.42C107.138 1014.54 107.355 1015.81 107.355 1017.25ZM87.3226 988.344L106.959 995.464L106.959 999.555L87.3226 1006.69L87.3226 1002.59L102.433 997.612L102.433 997.407L87.3226 992.447L87.3226 988.344ZM107.355 976.956C107.355 978.891 106.942 980.557 106.115 981.955C105.28 983.344 104.108 984.418 102.6 985.176C101.083 985.926 99.3056 986.301 97.2686 986.301C95.2573 986.301 93.4846 985.926 91.9505 985.176C90.4164 984.418 89.2189 983.361 88.3581 982.006C87.4973 980.642 87.0669 979.048 87.0669 977.225C87.0669 976.117 87.2502 975.043 87.6167 974.003C87.9831 972.963 88.5584 972.03 89.3425 971.203C90.1266 970.377 91.1451 969.725 92.3979 969.247C93.6422 968.77 95.155 968.531 96.9363 968.531L98.2914 968.531L98.2914 984.141L95.4277 984.141L95.4277 972.277C94.4221 972.277 93.5314 972.482 92.7559 972.891C91.9718 973.3 91.3539 973.875 90.9022 974.617C90.4505 975.35 90.2246 976.21 90.2246 977.199C90.2246 978.273 90.4888 979.21 91.0172 980.011C91.5371 980.804 92.2189 981.418 93.0627 981.852C93.8979 982.279 94.8056 982.492 95.7857 982.492L98.0229 982.492C99.3354 982.492 100.452 982.261 101.372 981.801C102.293 981.333 102.996 980.681 103.482 979.845C103.959 979.01 104.198 978.034 104.198 976.918C104.198 976.193 104.095 975.533 103.891 974.936C103.678 974.34 103.362 973.824 102.945 973.389C102.527 972.955 102.012 972.622 101.398 972.392L102.05 968.774C103.115 969.064 104.048 969.584 104.85 970.334C105.642 971.075 106.26 972.009 106.703 973.134C107.138 974.25 107.355 975.524 107.355 976.956ZM80.7772 960.468L106.959 960.468L106.959 964.29L80.7772 964.29L80.7772 960.468ZM80.7772 935.916L106.959 935.916L106.959 939.879L84.7402 939.879L84.7402 940.032L88.8311 946.297L85.0471 946.297L80.7772 939.764L80.7772 935.916ZM107.394 919.719C107.385 921.738 106.852 923.464 105.796 924.896C104.739 926.328 103.2 927.423 101.181 928.182C99.1607 928.94 96.7275 929.319 93.8809 929.319C91.0428 929.319 88.6181 928.94 86.6067 928.182C84.5953 927.415 83.0613 926.315 82.0044 924.883C80.9476 923.443 80.4192 921.721 80.4192 919.719C80.4192 917.716 80.9519 915.998 82.0172 914.567C83.074 913.135 84.6081 912.04 86.6195 911.281C88.6223 910.514 91.0428 910.13 93.8809 910.13C96.736 910.13 99.1735 910.51 101.193 911.268C103.205 912.027 104.743 913.122 105.808 914.554C106.865 915.986 107.394 917.707 107.394 919.719ZM103.98 919.719C103.98 917.946 103.115 916.561 101.385 915.564C99.655 914.558 97.1536 914.055 93.8809 914.055C91.7076 914.055 89.8709 914.285 88.3709 914.746C86.8624 915.197 85.7203 915.849 84.9448 916.701C84.1607 917.545 83.7686 918.551 83.7686 919.719C83.7686 921.483 84.638 922.868 86.3766 923.873C88.1152 924.879 90.6167 925.386 93.8809 925.395C96.0627 925.395 97.9078 925.169 99.4164 924.717C100.916 924.257 102.054 923.605 102.83 922.761C103.597 921.917 103.98 920.903 103.98 919.719ZM107.394 896.48C107.385 898.5 106.852 900.226 105.796 901.658C104.739 903.09 103.2 904.185 101.181 904.943C99.1607 905.702 96.7275 906.081 93.8809 906.081C91.0428 906.081 88.6181 905.702 86.6067 904.943C84.5953 904.176 83.0613 903.077 82.0044 901.645C80.9476 900.205 80.4192 898.483 80.4192 896.48C80.4192 894.477 80.9519 892.76 82.0172 891.328C83.074 889.896 84.6081 888.801 86.6195 888.043C88.6223 887.276 91.0428 886.892 93.8809 886.892C96.736 886.892 99.1735 887.271 101.193 888.03C103.205 888.788 104.743 889.884 105.808 891.315C106.865 892.747 107.394 894.469 107.394 896.48ZM103.98 896.48C103.98 894.708 103.115 893.323 101.385 892.325C99.655 891.32 97.1536 890.817 93.8809 890.817C91.7076 890.817 89.8709 891.047 88.3709 891.507C86.8624 891.959 85.7203 892.611 84.9448 893.463C84.1607 894.307 83.7686 895.313 83.7686 896.48C83.7686 898.244 84.638 899.629 86.3766 900.635C88.1152 901.641 90.6167 902.148 93.8809 902.156C96.0627 902.156 97.9078 901.931 99.4164 901.479C100.916 901.019 102.054 900.367 102.83 899.523C103.597 898.679 103.98 897.665 103.98 896.48ZM102.05 868.691L100.669 868.691C99.6806 868.691 98.7772 868.486 97.959 868.077C97.1323 867.66 96.4718 867.054 95.9774 866.262C95.4746 865.461 95.2232 864.493 95.2232 863.36C95.2232 862.201 95.4703 861.229 95.9647 860.445C96.459 859.661 97.1195 859.069 97.9462 858.668C98.7729 858.259 99.6806 858.054 100.669 858.054L102.05 858.054C103.039 858.054 103.946 858.259 104.773 858.668C105.591 859.077 106.252 859.678 106.754 860.471C107.249 861.255 107.496 862.218 107.496 863.36C107.496 864.51 107.249 865.482 106.754 866.275C106.252 867.067 105.591 867.668 104.773 868.077C103.946 868.486 103.039 868.691 102.05 868.691ZM100.669 865.712L102.05 865.712C102.783 865.712 103.448 865.537 104.044 865.188C104.641 864.839 104.939 864.229 104.939 863.36C104.939 862.499 104.641 861.898 104.044 861.557C103.448 861.216 102.783 861.046 102.05 861.046L100.669 861.046C99.9363 861.046 99.2715 861.212 98.6749 861.545C98.0783 861.868 97.78 862.473 97.78 863.36C97.78 864.212 98.0783 864.817 98.6749 865.175C99.2715 865.533 99.9363 865.712 100.669 865.712ZM87.0669 881.858L85.6863 881.858C84.6976 881.858 83.7899 881.654 82.9632 881.245C82.1365 880.827 81.476 880.222 80.9817 879.429C80.4874 878.628 80.2402 877.661 80.2402 876.527C80.2402 875.368 80.4874 874.397 80.9817 873.613C81.476 872.829 82.1365 872.236 82.9632 871.836C83.7899 871.435 84.6976 871.235 85.6863 871.235L87.0669 871.235C88.0556 871.235 88.9632 871.439 89.7899 871.848C90.6081 872.249 91.2686 872.846 91.7715 873.638C92.2658 874.422 92.513 875.385 92.513 876.527C92.513 877.687 92.2658 878.662 91.7715 879.455C91.2686 880.239 90.6081 880.836 89.7899 881.245C88.9632 881.654 88.0556 881.858 87.0669 881.858ZM85.6863 878.867L87.0669 878.867C87.7999 878.867 88.4647 878.697 89.0613 878.356C89.6578 878.006 89.9561 877.397 89.9561 876.527C89.9561 875.675 89.6578 875.079 89.0613 874.738C88.4647 874.388 87.7999 874.214 87.0669 874.214L85.6863 874.214C84.9533 874.214 84.2885 874.38 83.6919 874.712C83.0953 875.045 82.7971 875.65 82.7971 876.527C82.7971 877.38 83.0953 877.985 83.6919 878.343C84.2885 878.692 84.9533 878.867 85.6863 878.867ZM106.959 880.644L80.7772 862.644L80.7772 859.589L106.959 877.589L106.959 880.644Z" fill="#F3F3F3"/>
<path d="M264.812 983.878H258.88L267.919 957.697H275.052L284.078 983.878H278.146L271.588 963.68H271.383L264.812 983.878ZM264.442 973.587H278.453V977.908H264.442V973.587ZM296.341 964.242V968.333H284.516V964.242H296.341ZM287.2 959.538H292.646V977.844C292.646 978.347 292.723 978.739 292.877 979.021C293.03 979.293 293.243 979.485 293.516 979.596C293.797 979.707 294.121 979.762 294.487 979.762C294.743 979.762 294.999 979.741 295.254 979.698C295.51 979.647 295.706 979.609 295.842 979.583L296.699 983.636C296.426 983.721 296.043 983.819 295.548 983.93C295.054 984.049 294.453 984.121 293.746 984.147C292.433 984.198 291.283 984.023 290.294 983.623C289.314 983.222 288.551 982.6 288.006 981.756C287.46 980.913 287.192 979.847 287.2 978.56V959.538ZM310.333 964.242V968.333H298.508V964.242H310.333ZM301.193 959.538H306.639V977.844C306.639 978.347 306.715 978.739 306.869 979.021C307.022 979.293 307.235 979.485 307.508 979.596C307.789 979.707 308.113 979.762 308.48 979.762C308.735 979.762 308.991 979.741 309.247 979.698C309.502 979.647 309.698 979.609 309.835 979.583L310.691 983.636C310.418 983.721 310.035 983.819 309.541 983.93C309.046 984.049 308.445 984.121 307.738 984.147C306.426 984.198 305.275 984.023 304.286 983.623C303.306 983.222 302.543 982.6 301.998 981.756C301.453 980.913 301.184 979.847 301.193 978.56V959.538ZM319.48 984.249C318.227 984.249 317.111 984.032 316.131 983.597C315.151 983.154 314.375 982.502 313.804 981.641C313.242 980.772 312.96 979.69 312.96 978.394C312.96 977.303 313.161 976.387 313.561 975.646C313.962 974.904 314.507 974.307 315.198 973.856C315.888 973.404 316.672 973.063 317.55 972.833C318.436 972.603 319.365 972.441 320.337 972.347C321.479 972.228 322.399 972.117 323.098 972.015C323.797 971.904 324.304 971.742 324.619 971.529C324.935 971.316 325.092 971.001 325.092 970.583V970.506C325.092 969.697 324.837 969.07 324.325 968.627C323.823 968.184 323.107 967.962 322.178 967.962C321.198 967.962 320.418 968.18 319.838 968.614C319.259 969.04 318.875 969.577 318.688 970.225L313.651 969.816C313.906 968.623 314.409 967.592 315.159 966.722C315.909 965.844 316.877 965.171 318.061 964.702C319.254 964.225 320.635 963.986 322.203 963.986C323.294 963.986 324.338 964.114 325.335 964.37C326.341 964.626 327.232 965.022 328.007 965.559C328.791 966.096 329.409 966.786 329.861 967.63C330.313 968.465 330.538 969.467 330.538 970.634V983.878H325.374V981.155H325.22C324.905 981.769 324.483 982.31 323.955 982.779C323.426 983.239 322.791 983.601 322.05 983.866C321.308 984.121 320.452 984.249 319.48 984.249ZM321.04 980.491C321.841 980.491 322.548 980.333 323.162 980.018C323.776 979.694 324.257 979.259 324.607 978.714C324.956 978.168 325.131 977.55 325.131 976.86V974.776C324.96 974.887 324.726 974.989 324.428 975.083C324.138 975.168 323.81 975.249 323.443 975.326C323.077 975.394 322.71 975.458 322.344 975.518C321.977 975.569 321.645 975.616 321.347 975.658C320.708 975.752 320.149 975.901 319.672 976.106C319.195 976.31 318.824 976.587 318.56 976.937C318.296 977.278 318.163 977.704 318.163 978.215C318.163 978.957 318.432 979.523 318.969 979.915C319.514 980.299 320.205 980.491 321.04 980.491ZM343.636 984.262C341.624 984.262 339.894 983.836 338.445 982.984C337.005 982.123 335.897 980.93 335.122 979.404C334.355 977.878 333.971 976.123 333.971 974.137C333.971 972.126 334.359 970.361 335.134 968.844C335.918 967.319 337.031 966.13 338.471 965.278C339.911 964.417 341.624 963.986 343.61 963.986C345.323 963.986 346.823 964.298 348.11 964.92C349.397 965.542 350.416 966.415 351.166 967.54C351.916 968.665 352.329 969.986 352.406 971.503H347.266C347.122 970.523 346.738 969.735 346.116 969.138C345.502 968.533 344.697 968.231 343.7 968.231C342.856 968.231 342.119 968.461 341.488 968.921C340.866 969.373 340.38 970.033 340.031 970.903C339.681 971.772 339.507 972.825 339.507 974.06C339.507 975.313 339.677 976.378 340.018 977.256C340.367 978.134 340.857 978.803 341.488 979.263C342.119 979.724 342.856 979.954 343.7 979.954C344.322 979.954 344.88 979.826 345.374 979.57C345.877 979.315 346.291 978.944 346.614 978.458C346.947 977.964 347.164 977.371 347.266 976.681H352.406C352.32 978.181 351.911 979.502 351.178 980.644C350.454 981.778 349.453 982.664 348.174 983.303C346.896 983.942 345.383 984.262 343.636 984.262ZM360.827 978.228L360.84 971.695H361.633L367.922 964.242H374.174L365.724 974.111H364.432L360.827 978.228ZM355.893 983.878V957.697H361.339V983.878H355.893ZM368.165 983.878L362.387 975.326L366.018 971.478L374.545 983.878H368.165Z" fill="#F3F3F3"/>
<path d="M579.004 983.878H569.723V957.697H579.081C581.714 957.697 583.981 958.221 585.882 959.269C587.782 960.309 589.244 961.805 590.267 963.756C591.298 965.708 591.814 968.043 591.814 970.762C591.814 973.489 591.298 975.833 590.267 977.793C589.244 979.753 587.774 981.258 585.856 982.306C583.947 983.354 581.663 983.878 579.004 983.878ZM575.258 979.136H578.774C580.41 979.136 581.787 978.846 582.903 978.266C584.028 977.678 584.872 976.771 585.434 975.543C586.006 974.307 586.291 972.714 586.291 970.762C586.291 968.827 586.006 967.246 585.434 966.019C584.872 964.792 584.032 963.888 582.916 963.309C581.8 962.729 580.423 962.44 578.787 962.44H575.258V979.136ZM604.761 984.262C602.741 984.262 601.002 983.853 599.545 983.035C598.096 982.208 596.98 981.04 596.195 979.532C595.411 978.015 595.019 976.221 595.019 974.15C595.019 972.13 595.411 970.357 596.195 968.832C596.98 967.306 598.083 966.117 599.507 965.265C600.938 964.413 602.617 963.986 604.544 963.986C605.839 963.986 607.045 964.195 608.161 964.613C609.286 965.022 610.267 965.64 611.102 966.467C611.945 967.293 612.602 968.333 613.07 969.586C613.539 970.83 613.774 972.288 613.774 973.958V975.454H597.193V972.079H608.647C608.647 971.295 608.477 970.6 608.136 969.995C607.795 969.39 607.322 968.917 606.717 968.576C606.12 968.226 605.426 968.052 604.633 968.052C603.806 968.052 603.073 968.244 602.434 968.627C601.803 969.002 601.309 969.509 600.951 970.148C600.593 970.779 600.41 971.482 600.401 972.258V975.467C600.401 976.438 600.58 977.278 600.938 977.985C601.305 978.692 601.82 979.238 602.485 979.621C603.15 980.005 603.938 980.197 604.85 980.197C605.455 980.197 606.009 980.111 606.512 979.941C607.015 979.771 607.445 979.515 607.803 979.174C608.161 978.833 608.434 978.415 608.622 977.921L613.659 978.253C613.403 979.464 612.879 980.521 612.086 981.424C611.302 982.319 610.288 983.018 609.044 983.521C607.808 984.015 606.38 984.262 604.761 984.262ZM626.2 984.262C624.188 984.262 622.458 983.836 621.009 982.984C619.569 982.123 618.461 980.93 617.686 979.404C616.919 977.878 616.535 976.123 616.535 974.137C616.535 972.126 616.923 970.361 617.698 968.844C618.482 967.319 619.595 966.13 621.035 965.278C622.475 964.417 624.188 963.986 626.174 963.986C627.887 963.986 629.387 964.298 630.674 964.92C631.961 965.542 632.98 966.415 633.73 967.54C634.48 968.665 634.893 969.986 634.97 971.503H629.83C629.686 970.523 629.302 969.735 628.68 969.138C628.066 968.533 627.261 968.231 626.264 968.231C625.42 968.231 624.683 968.461 624.052 968.921C623.43 969.373 622.944 970.033 622.595 970.903C622.245 971.772 622.07 972.825 622.07 974.06C622.07 975.313 622.241 976.378 622.582 977.256C622.931 978.134 623.421 978.803 624.052 979.263C624.683 979.724 625.42 979.954 626.264 979.954C626.886 979.954 627.444 979.826 627.938 979.57C628.441 979.315 628.855 978.944 629.178 978.458C629.511 977.964 629.728 977.371 629.83 976.681H634.97C634.884 978.181 634.475 979.502 633.742 980.644C633.018 981.778 632.017 982.664 630.738 983.303C629.46 983.942 627.947 984.262 626.2 984.262ZM644.056 984.249C642.803 984.249 641.687 984.032 640.706 983.597C639.726 983.154 638.951 982.502 638.38 981.641C637.817 980.772 637.536 979.69 637.536 978.394C637.536 977.303 637.736 976.387 638.137 975.646C638.537 974.904 639.083 974.307 639.773 973.856C640.464 973.404 641.248 973.063 642.126 972.833C643.012 972.603 643.941 972.441 644.912 972.347C646.055 972.228 646.975 972.117 647.674 972.015C648.373 971.904 648.88 971.742 649.195 971.529C649.51 971.316 649.668 971.001 649.668 970.583V970.506C649.668 969.697 649.412 969.07 648.901 968.627C648.398 968.184 647.682 967.962 646.753 967.962C645.773 967.962 644.993 968.18 644.414 968.614C643.834 969.04 643.451 969.577 643.263 970.225L638.226 969.816C638.482 968.623 638.985 967.592 639.735 966.722C640.485 965.844 641.452 965.171 642.637 964.702C643.83 964.225 645.211 963.986 646.779 963.986C647.87 963.986 648.914 964.114 649.911 964.37C650.917 964.626 651.807 965.022 652.583 965.559C653.367 966.096 653.985 966.786 654.437 967.63C654.888 968.465 655.114 969.467 655.114 970.634V983.878H649.949V981.155H649.796C649.481 981.769 649.059 982.31 648.53 982.779C648.002 983.239 647.367 983.601 646.626 983.866C645.884 984.121 645.028 984.249 644.056 984.249ZM645.616 980.491C646.417 980.491 647.124 980.333 647.738 980.018C648.351 979.694 648.833 979.259 649.182 978.714C649.532 978.168 649.706 977.55 649.706 976.86V974.776C649.536 974.887 649.302 974.989 649.003 975.083C648.714 975.168 648.385 975.249 648.019 975.326C647.653 975.394 647.286 975.458 646.92 975.518C646.553 975.569 646.221 975.616 645.922 975.658C645.283 975.752 644.725 975.901 644.248 976.106C643.77 976.31 643.4 976.587 643.135 976.937C642.871 977.278 642.739 977.704 642.739 978.215C642.739 978.957 643.008 979.523 643.545 979.915C644.09 980.299 644.78 980.491 645.616 980.491ZM661.998 991.242C661.308 991.242 660.66 991.187 660.055 991.076C659.459 990.974 658.964 990.842 658.572 990.68L659.8 986.614C660.439 986.81 661.014 986.917 661.525 986.934C662.045 986.951 662.493 986.832 662.868 986.576C663.251 986.32 663.562 985.886 663.801 985.272L664.121 984.441L657.077 964.242H662.804L666.869 978.663H667.074L671.177 964.242H676.943L669.311 986.001C668.944 987.057 668.446 987.978 667.815 988.762C667.193 989.555 666.405 990.164 665.45 990.59C664.496 991.025 663.345 991.242 661.998 991.242Z" fill="#F3F3F3"/>
<path d="M1490.8 983.878V957.697H1501.13C1503.1 957.697 1504.79 958.05 1506.19 958.758C1507.59 959.457 1508.66 960.45 1509.4 961.736C1510.14 963.015 1510.51 964.519 1510.51 966.249C1510.51 967.988 1510.13 969.484 1509.38 970.736C1508.63 971.981 1507.55 972.935 1506.12 973.6C1504.71 974.265 1503 974.597 1500.99 974.597H1494.07V970.148H1500.09C1501.15 970.148 1502.03 970.003 1502.72 969.714C1503.42 969.424 1503.94 968.989 1504.28 968.41C1504.63 967.83 1504.81 967.11 1504.81 966.249C1504.81 965.38 1504.63 964.647 1504.28 964.05C1503.94 963.454 1503.42 963.002 1502.71 962.695C1502.01 962.38 1501.13 962.222 1500.06 962.222H1496.33V983.878H1490.8ZM1504.94 971.964L1511.44 983.878H1505.33L1498.97 971.964H1504.94ZM1522.95 984.262C1520.93 984.262 1519.19 983.853 1517.74 983.035C1516.29 982.208 1515.17 981.04 1514.39 979.532C1513.6 978.015 1513.21 976.221 1513.21 974.15C1513.21 972.13 1513.6 970.357 1514.39 968.832C1515.17 967.306 1516.27 966.117 1517.7 965.265C1519.13 964.413 1520.81 963.986 1522.73 963.986C1524.03 963.986 1525.24 964.195 1526.35 964.613C1527.48 965.022 1528.46 965.64 1529.29 966.467C1530.14 967.293 1530.79 968.333 1531.26 969.586C1531.73 970.83 1531.96 972.288 1531.96 973.958V975.454H1515.38V972.079H1526.84C1526.84 971.295 1526.67 970.6 1526.33 969.995C1525.99 969.39 1525.51 968.917 1524.91 968.576C1524.31 968.226 1523.62 968.052 1522.82 968.052C1522 968.052 1521.26 968.244 1520.62 968.627C1519.99 969.002 1519.5 969.509 1519.14 970.148C1518.78 970.779 1518.6 971.482 1518.59 972.258V975.467C1518.59 976.438 1518.77 977.278 1519.13 977.985C1519.5 978.692 1520.01 979.238 1520.68 979.621C1521.34 980.005 1522.13 980.197 1523.04 980.197C1523.65 980.197 1524.2 980.111 1524.7 979.941C1525.21 979.771 1525.64 979.515 1525.99 979.174C1526.35 978.833 1526.62 978.415 1526.81 977.921L1531.85 978.253C1531.59 979.464 1531.07 980.521 1530.28 981.424C1529.49 982.319 1528.48 983.018 1527.23 983.521C1526 984.015 1524.57 984.262 1522.95 984.262ZM1540.96 957.697V983.878H1535.52V957.697H1540.96ZM1554.28 984.262C1552.26 984.262 1550.52 983.853 1549.06 983.035C1547.61 982.208 1546.49 981.04 1545.71 979.532C1544.93 978.015 1544.53 976.221 1544.53 974.15C1544.53 972.13 1544.93 970.357 1545.71 968.832C1546.49 967.306 1547.6 966.117 1549.02 965.265C1550.45 964.413 1552.13 963.986 1554.06 963.986C1555.35 963.986 1556.56 964.195 1557.68 964.613C1558.8 965.022 1559.78 965.64 1560.62 966.467C1561.46 967.293 1562.12 968.333 1562.59 969.586C1563.05 970.83 1563.29 972.288 1563.29 973.958V975.454H1546.71V972.079H1558.16C1558.16 971.295 1557.99 970.6 1557.65 969.995C1557.31 969.39 1556.84 968.917 1556.23 968.576C1555.64 968.226 1554.94 968.052 1554.15 968.052C1553.32 968.052 1552.59 968.244 1551.95 968.627C1551.32 969.002 1550.82 969.509 1550.47 970.148C1550.11 970.779 1549.92 971.482 1549.92 972.258V975.467C1549.92 976.438 1550.1 977.278 1550.45 977.985C1550.82 978.692 1551.34 979.238 1552 979.621C1552.67 980.005 1553.45 980.197 1554.37 980.197C1554.97 980.197 1555.52 980.111 1556.03 979.941C1556.53 979.771 1556.96 979.515 1557.32 979.174C1557.68 978.833 1557.95 978.415 1558.14 977.921L1563.17 978.253C1562.92 979.464 1562.39 980.521 1561.6 981.424C1560.82 982.319 1559.8 983.018 1558.56 983.521C1557.32 984.015 1555.9 984.262 1554.28 984.262ZM1572.44 984.249C1571.19 984.249 1570.07 984.032 1569.09 983.597C1568.11 983.154 1567.34 982.502 1566.77 981.641C1566.2 980.772 1565.92 979.69 1565.92 978.394C1565.92 977.303 1566.12 976.387 1566.52 975.646C1566.92 974.904 1567.47 974.307 1568.16 973.856C1568.85 973.404 1569.63 973.063 1570.51 972.833C1571.4 972.603 1572.33 972.441 1573.3 972.347C1574.44 972.228 1575.36 972.117 1576.06 972.015C1576.76 971.904 1577.27 971.742 1577.58 971.529C1577.9 971.316 1578.05 971.001 1578.05 970.583V970.506C1578.05 969.697 1577.8 969.07 1577.29 968.627C1576.78 968.184 1576.07 967.962 1575.14 967.962C1574.16 967.962 1573.38 968.18 1572.8 968.614C1572.22 969.04 1571.84 969.577 1571.65 970.225L1566.61 969.816C1566.87 968.623 1567.37 967.592 1568.12 966.722C1568.87 965.844 1569.84 965.171 1571.02 964.702C1572.22 964.225 1573.6 963.986 1575.17 963.986C1576.26 963.986 1577.3 964.114 1578.3 964.37C1579.3 964.626 1580.19 965.022 1580.97 965.559C1581.75 966.096 1582.37 966.786 1582.82 967.63C1583.27 968.465 1583.5 969.467 1583.5 970.634V983.878H1578.34V981.155H1578.18C1577.87 981.769 1577.44 982.31 1576.92 982.779C1576.39 983.239 1575.75 983.601 1575.01 983.866C1574.27 984.121 1573.41 984.249 1572.44 984.249ZM1574 980.491C1574.8 980.491 1575.51 980.333 1576.12 980.018C1576.74 979.694 1577.22 979.259 1577.57 978.714C1577.92 978.168 1578.09 977.55 1578.09 976.86V974.776C1577.92 974.887 1577.69 974.989 1577.39 975.083C1577.1 975.168 1576.77 975.249 1576.41 975.326C1576.04 975.394 1575.67 975.458 1575.31 975.518C1574.94 975.569 1574.61 975.616 1574.31 975.658C1573.67 975.752 1573.11 975.901 1572.63 976.106C1572.16 976.31 1571.79 976.587 1571.52 976.937C1571.26 977.278 1571.13 977.704 1571.13 978.215C1571.13 978.957 1571.39 979.523 1571.93 979.915C1572.48 980.299 1573.17 980.491 1574 980.491ZM1604.06 969.842L1599.08 970.148C1598.99 969.722 1598.81 969.339 1598.53 968.998C1598.25 968.648 1597.88 968.371 1597.42 968.167C1596.96 967.954 1596.42 967.847 1595.79 967.847C1594.95 967.847 1594.24 968.026 1593.66 968.384C1593.08 968.734 1592.79 969.202 1592.79 969.79C1592.79 970.259 1592.98 970.655 1593.35 970.979C1593.73 971.303 1594.37 971.563 1595.28 971.759L1598.83 972.475C1600.74 972.867 1602.17 973.498 1603.1 974.367C1604.04 975.236 1604.51 976.378 1604.51 977.793C1604.51 979.08 1604.13 980.209 1603.37 981.181C1602.62 982.153 1601.59 982.911 1600.28 983.457C1598.98 983.994 1597.47 984.262 1595.77 984.262C1593.17 984.262 1591.1 983.721 1589.55 982.638C1588.02 981.548 1587.12 980.065 1586.86 978.19L1592.21 977.908C1592.37 978.701 1592.77 979.306 1593.39 979.724C1594.01 980.133 1594.81 980.337 1595.78 980.337C1596.73 980.337 1597.5 980.154 1598.08 979.788C1598.67 979.413 1598.97 978.931 1598.98 978.343C1598.97 977.849 1598.76 977.444 1598.35 977.128C1597.94 976.805 1597.31 976.557 1596.46 976.387L1593.06 975.709C1591.14 975.326 1589.71 974.661 1588.77 973.715C1587.84 972.769 1587.38 971.563 1587.38 970.097C1587.38 968.836 1587.72 967.749 1588.4 966.837C1589.09 965.925 1590.06 965.222 1591.3 964.728C1592.56 964.234 1594.02 963.986 1595.7 963.986C1598.18 963.986 1600.13 964.511 1601.56 965.559C1602.99 966.607 1603.82 968.035 1604.06 969.842ZM1616.89 984.262C1614.87 984.262 1613.13 983.853 1611.67 983.035C1610.22 982.208 1609.11 981.04 1608.32 979.532C1607.54 978.015 1607.15 976.221 1607.15 974.15C1607.15 972.13 1607.54 970.357 1608.32 968.832C1609.11 967.306 1610.21 966.117 1611.63 965.265C1613.07 964.413 1614.75 963.986 1616.67 963.986C1617.97 963.986 1619.17 964.195 1620.29 964.613C1621.41 965.022 1622.39 965.64 1623.23 966.467C1624.07 967.293 1624.73 968.333 1625.2 969.586C1625.67 970.83 1625.9 972.288 1625.9 973.958V975.454H1609.32V972.079H1620.78C1620.78 971.295 1620.61 970.6 1620.26 969.995C1619.92 969.39 1619.45 968.917 1618.85 968.576C1618.25 968.226 1617.55 968.052 1616.76 968.052C1615.93 968.052 1615.2 968.244 1614.56 968.627C1613.93 969.002 1613.44 969.509 1613.08 970.148C1612.72 970.779 1612.54 971.482 1612.53 972.258V975.467C1612.53 976.438 1612.71 977.278 1613.07 977.985C1613.43 978.692 1613.95 979.238 1614.61 979.621C1615.28 980.005 1616.07 980.197 1616.98 980.197C1617.58 980.197 1618.14 980.111 1618.64 979.941C1619.14 979.771 1619.57 979.515 1619.93 979.174C1620.29 978.833 1620.56 978.415 1620.75 977.921L1625.79 978.253C1625.53 979.464 1625.01 980.521 1624.21 981.424C1623.43 982.319 1622.42 983.018 1621.17 983.521C1619.94 984.015 1618.51 984.262 1616.89 984.262Z" fill="#F3F3F3"/>
<path d="M1049.6 965.226C1049.5 964.195 1049.06 963.394 1048.29 962.823C1047.51 962.252 1046.46 961.967 1045.13 961.967C1044.22 961.967 1043.46 962.094 1042.84 962.35C1042.22 962.597 1041.74 962.942 1041.41 963.386C1041.08 963.829 1040.92 964.332 1040.92 964.894C1040.91 965.363 1041 965.772 1041.22 966.121C1041.44 966.471 1041.74 966.773 1042.12 967.029C1042.51 967.276 1042.95 967.494 1043.45 967.681C1043.96 967.86 1044.49 968.013 1045.06 968.141L1047.42 968.704C1048.56 968.959 1049.61 969.3 1050.56 969.726C1051.52 970.153 1052.34 970.677 1053.04 971.299C1053.74 971.921 1054.28 972.654 1054.67 973.498C1055.06 974.342 1055.26 975.309 1055.27 976.4C1055.26 978.002 1054.85 979.391 1054.04 980.567C1053.24 981.735 1052.08 982.643 1050.56 983.29C1049.05 983.93 1047.23 984.249 1045.1 984.249C1042.99 984.249 1041.15 983.925 1039.58 983.278C1038.02 982.63 1036.8 981.671 1035.92 980.401C1035.05 979.123 1034.6 977.542 1034.56 975.658H1039.91C1039.97 976.536 1040.22 977.269 1040.67 977.857C1041.12 978.437 1041.72 978.876 1042.47 979.174C1043.23 979.464 1044.08 979.609 1045.04 979.609C1045.98 979.609 1046.79 979.472 1047.48 979.2C1048.18 978.927 1048.72 978.548 1049.1 978.062C1049.49 977.576 1049.68 977.018 1049.68 976.387C1049.68 975.799 1049.5 975.305 1049.16 974.904C1048.81 974.503 1048.31 974.163 1047.65 973.881C1046.99 973.6 1046.19 973.344 1045.23 973.114L1042.38 972.398C1040.17 971.861 1038.43 971.022 1037.15 969.88C1035.87 968.738 1035.24 967.2 1035.25 965.265C1035.24 963.68 1035.66 962.295 1036.51 961.11C1037.37 959.925 1038.55 959.001 1040.05 958.336C1041.55 957.671 1043.26 957.339 1045.17 957.339C1047.11 957.339 1048.81 957.671 1050.25 958.336C1051.71 959.001 1052.85 959.925 1053.66 961.11C1054.46 962.295 1054.88 963.667 1054.91 965.226H1049.6ZM1071.48 975.518V964.242H1076.93V983.878H1071.7V980.312H1071.49C1071.05 981.462 1070.31 982.387 1069.28 983.086C1068.26 983.785 1067.01 984.134 1065.53 984.134C1064.22 984.134 1063.07 983.836 1062.07 983.239C1061.07 982.643 1060.29 981.795 1059.73 980.695C1059.18 979.596 1058.9 978.279 1058.89 976.745V964.242H1064.33V975.773C1064.34 976.932 1064.65 977.849 1065.27 978.522C1065.88 979.195 1066.7 979.532 1067.73 979.532C1068.39 979.532 1069 979.383 1069.57 979.084C1070.15 978.778 1070.61 978.326 1070.96 977.729C1071.31 977.133 1071.49 976.396 1071.48 975.518ZM1097.62 969.842L1092.63 970.148C1092.55 969.722 1092.37 969.339 1092.08 968.998C1091.8 968.648 1091.43 968.371 1090.97 968.167C1090.52 967.954 1089.98 967.847 1089.35 967.847C1088.5 967.847 1087.79 968.026 1087.21 968.384C1086.63 968.734 1086.34 969.202 1086.34 969.79C1086.34 970.259 1086.53 970.655 1086.91 970.979C1087.28 971.303 1087.93 971.563 1088.84 971.759L1092.39 972.475C1094.3 972.867 1095.72 973.498 1096.66 974.367C1097.6 975.236 1098.07 976.378 1098.07 977.793C1098.07 979.08 1097.69 980.209 1096.93 981.181C1096.18 982.153 1095.15 982.911 1093.84 983.457C1092.53 983.994 1091.03 984.262 1089.32 984.262C1086.72 984.262 1084.65 983.721 1083.11 982.638C1081.58 981.548 1080.68 980.065 1080.41 978.19L1085.77 977.908C1085.93 978.701 1086.32 979.306 1086.95 979.724C1087.57 980.133 1088.36 980.337 1089.34 980.337C1090.29 980.337 1091.06 980.154 1091.64 979.788C1092.22 979.413 1092.52 978.931 1092.53 978.343C1092.52 977.849 1092.31 977.444 1091.91 977.128C1091.5 976.805 1090.87 976.557 1090.01 976.387L1086.61 975.709C1084.7 975.326 1083.27 974.661 1082.33 973.715C1081.4 972.769 1080.94 971.563 1080.94 970.097C1080.94 968.836 1081.28 967.749 1081.96 966.837C1082.65 965.925 1083.62 965.222 1084.86 964.728C1086.11 964.234 1087.58 963.986 1089.26 963.986C1091.74 963.986 1093.69 964.511 1095.11 965.559C1096.55 966.607 1097.38 968.035 1097.62 969.842ZM1111.94 964.242V968.333H1100.12V964.242H1111.94ZM1102.8 959.538H1108.25V977.844C1108.25 978.347 1108.32 978.739 1108.48 979.021C1108.63 979.293 1108.84 979.485 1109.12 979.596C1109.4 979.707 1109.72 979.762 1110.09 979.762C1110.34 979.762 1110.6 979.741 1110.85 979.698C1111.11 979.647 1111.31 979.609 1111.44 979.583L1112.3 983.636C1112.03 983.721 1111.64 983.819 1111.15 983.93C1110.65 984.049 1110.05 984.121 1109.35 984.147C1108.03 984.198 1106.88 984.023 1105.89 983.623C1104.91 983.222 1104.15 982.6 1103.61 981.756C1103.06 980.913 1102.79 979.847 1102.8 978.56V959.538ZM1121.09 984.249C1119.84 984.249 1118.72 984.032 1117.74 983.597C1116.76 983.154 1115.98 982.502 1115.41 981.641C1114.85 980.772 1114.57 979.69 1114.57 978.394C1114.57 977.303 1114.77 976.387 1115.17 975.646C1115.57 974.904 1116.12 974.307 1116.81 973.856C1117.5 973.404 1118.28 973.063 1119.16 972.833C1120.04 972.603 1120.97 972.441 1121.94 972.347C1123.09 972.228 1124.01 972.117 1124.71 972.015C1125.4 971.904 1125.91 971.742 1126.23 971.529C1126.54 971.316 1126.7 971.001 1126.7 970.583V970.506C1126.7 969.697 1126.44 969.07 1125.93 968.627C1125.43 968.184 1124.71 967.962 1123.79 967.962C1122.81 967.962 1122.03 968.18 1121.45 968.614C1120.87 969.04 1120.48 969.577 1120.3 970.225L1115.26 969.816C1115.51 968.623 1116.02 967.592 1116.77 966.722C1117.52 965.844 1118.48 965.171 1119.67 964.702C1120.86 964.225 1122.24 963.986 1123.81 963.986C1124.9 963.986 1125.95 964.114 1126.94 964.37C1127.95 964.626 1128.84 965.022 1129.62 965.559C1130.4 966.096 1131.02 966.786 1131.47 967.63C1131.92 968.465 1132.15 969.467 1132.15 970.634V983.878H1126.98V981.155H1126.83C1126.51 981.769 1126.09 982.31 1125.56 982.779C1125.03 983.239 1124.4 983.601 1123.66 983.866C1122.92 984.121 1122.06 984.249 1121.09 984.249ZM1122.65 980.491C1123.45 980.491 1124.16 980.333 1124.77 980.018C1125.38 979.694 1125.87 979.259 1126.21 978.714C1126.56 978.168 1126.74 977.55 1126.74 976.86V974.776C1126.57 974.887 1126.33 974.989 1126.04 975.083C1125.75 975.168 1125.42 975.249 1125.05 975.326C1124.68 975.394 1124.32 975.458 1123.95 975.518C1123.59 975.569 1123.25 975.616 1122.95 975.658C1122.32 975.752 1121.76 975.901 1121.28 976.106C1120.8 976.31 1120.43 976.587 1120.17 976.937C1119.9 977.278 1119.77 977.704 1119.77 978.215C1119.77 978.957 1120.04 979.523 1120.58 979.915C1121.12 980.299 1121.81 980.491 1122.65 980.491ZM1136.37 983.878V964.242H1141.82V983.878H1136.37ZM1139.11 961.711C1138.3 961.711 1137.6 961.442 1137.02 960.905C1136.45 960.36 1136.17 959.708 1136.17 958.95C1136.17 958.2 1136.45 957.556 1137.02 957.019C1137.6 956.474 1138.3 956.201 1139.11 956.201C1139.92 956.201 1140.61 956.474 1141.18 957.019C1141.76 957.556 1142.05 958.2 1142.05 958.95C1142.05 959.708 1141.76 960.36 1141.18 960.905C1140.61 961.442 1139.92 961.711 1139.11 961.711ZM1151.63 972.526V983.878H1146.18V964.242H1151.37V967.707H1151.6C1152.04 966.565 1152.76 965.661 1153.79 964.996C1154.81 964.323 1156.05 963.986 1157.51 963.986C1158.87 963.986 1160.06 964.285 1161.07 964.881C1162.09 965.478 1162.88 966.33 1163.44 967.438C1164 968.538 1164.28 969.85 1164.28 971.376V983.878H1158.84V972.347C1158.84 971.146 1158.54 970.208 1157.92 969.535C1157.29 968.853 1156.44 968.512 1155.35 968.512C1154.61 968.512 1153.97 968.67 1153.4 968.985C1152.85 969.3 1152.41 969.761 1152.1 970.366C1151.79 970.962 1151.63 971.682 1151.63 972.526Z" fill="#F3F3F3"/>
<path d="M166.063 1098.85V1095.45H186.326V1098.85H178.157V1121.64H174.219V1098.85H166.063ZM190.496 1121.64V1102H194.319V1121.64H190.496ZM192.427 1098.97C191.762 1098.97 191.191 1098.75 190.714 1098.3C190.245 1097.85 190.011 1097.32 190.011 1096.69C190.011 1096.06 190.245 1095.53 190.714 1095.08C191.191 1094.63 191.762 1094.41 192.427 1094.41C193.092 1094.41 193.658 1094.63 194.127 1095.08C194.604 1095.53 194.843 1096.06 194.843 1096.69C194.843 1097.32 194.604 1097.85 194.127 1098.3C193.658 1098.75 193.092 1098.97 192.427 1098.97ZM199.461 1121.64V1102H203.13V1105.2H203.373C203.782 1104.11 204.451 1103.27 205.38 1102.66C206.309 1102.05 207.421 1101.74 208.717 1101.74C210.029 1101.74 211.129 1102.05 212.015 1102.66C212.91 1103.28 213.571 1104.12 213.997 1105.2H214.201C214.67 1104.15 215.416 1103.31 216.438 1102.69C217.461 1102.06 218.68 1101.74 220.095 1101.74C221.876 1101.74 223.329 1102.3 224.454 1103.42C225.588 1104.53 226.154 1106.22 226.154 1108.47V1121.64H222.332V1108.83C222.332 1107.5 221.97 1106.53 221.245 1105.94C220.521 1105.34 219.656 1105.04 218.65 1105.04C217.406 1105.04 216.438 1105.43 215.748 1106.19C215.058 1106.95 214.713 1107.93 214.713 1109.12V1121.64H210.903V1108.58C210.903 1107.52 210.571 1106.66 209.906 1106.01C209.241 1105.37 208.376 1105.04 207.311 1105.04C206.586 1105.04 205.917 1105.23 205.304 1105.62C204.698 1105.99 204.208 1106.52 203.833 1107.19C203.467 1107.86 203.284 1108.64 203.284 1109.53V1121.64H199.461ZM239.741 1122.03C237.806 1122.03 236.14 1121.62 234.742 1120.79C233.353 1119.96 232.279 1118.78 231.521 1117.28C230.771 1115.76 230.396 1113.98 230.396 1111.95C230.396 1109.93 230.771 1108.16 231.521 1106.63C232.279 1105.09 233.336 1103.9 234.691 1103.03C236.055 1102.17 237.648 1101.74 239.472 1101.74C240.58 1101.74 241.654 1101.93 242.694 1102.29C243.734 1102.66 244.667 1103.23 245.494 1104.02C246.32 1104.8 246.972 1105.82 247.449 1107.07C247.927 1108.32 248.165 1109.83 248.165 1111.61V1112.97H232.556V1110.1H244.42C244.42 1109.1 244.215 1108.21 243.806 1107.43C243.397 1106.65 242.822 1106.03 242.08 1105.58C241.347 1105.13 240.486 1104.9 239.498 1104.9C238.424 1104.9 237.486 1105.17 236.685 1105.69C235.893 1106.21 235.279 1106.9 234.844 1107.74C234.418 1108.57 234.205 1109.48 234.205 1110.46V1112.7C234.205 1114.01 234.435 1115.13 234.896 1116.05C235.364 1116.97 236.016 1117.67 236.851 1118.16C237.687 1118.64 238.663 1118.87 239.779 1118.87C240.503 1118.87 241.164 1118.77 241.761 1118.57C242.357 1118.35 242.873 1118.04 243.307 1117.62C243.742 1117.2 244.074 1116.69 244.305 1116.07L247.922 1116.73C247.633 1117.79 247.113 1118.72 246.363 1119.53C245.621 1120.32 244.688 1120.94 243.563 1121.38C242.447 1121.81 241.172 1122.03 239.741 1122.03Z" fill="#F3F3F3"/>
</svg>
