<svg width="1300" height="958" viewBox="0 0 1300 958" fill="none" xmlns="http://www.w3.org/2000/svg">
<path d="M970.075 706H938V866.415H970.075V706Z" fill="#00E494" stroke="#CDCDCD" stroke-width="0.981132"/>
<path d="M1002.15 706H970.075V866.415H1002.15V706Z" fill="white" stroke="#CDCDCD" stroke-width="0.981132"/>
<path d="M1034.23 706H1002.15V866.415H1034.23V706Z" fill="#00E494" stroke="#CDCDCD" stroke-width="0.981132"/>
<path d="M1066.3 706H1034.23V866.415H1066.3V706Z" fill="white" stroke="#CDCDCD" stroke-width="0.981132"/>
<path d="M1098.38 706H1066.3V866.415H1098.38V706Z" fill="#00E494" stroke="#CDCDCD" stroke-width="0.981132"/>
<path d="M1130.45 706H1098.38V866.415H1130.45V706Z" fill="white" stroke="#CDCDCD" stroke-width="0.981132"/>
<path d="M1162.53 706H1130.45V866.415H1162.53V706Z" fill="white" stroke="#CDCDCD" stroke-width="0.981132"/>
<path d="M1194.08 706H1162V866.415H1194.08V706Z" fill="white" stroke="#CDCDCD" stroke-width="0.981132"/>
<path d="M1226.15 706H1194.08V866.415H1226.15V706Z" fill="#00E494" stroke="#CDCDCD" stroke-width="0.981132"/>
<path d="M1258.23 706H1226.15V866.415H1258.23V706Z" fill="white" stroke="#CDCDCD" stroke-width="0.981132"/>
<path d="M1202.09 706H1186.06V786.208H1202.09V706Z" fill="black" stroke="black" stroke-width="0.981132"/>
<path d="M1234.17 706H1218.13V786.208H1234.17V706Z" fill="black"/>
<path d="M978.094 706H962.057V786.208H978.094V706Z" fill="black" stroke="black" stroke-width="0.981132"/>
<path d="M1010.17 706H994.132V786.208H1010.17V706Z" fill="black"/>
<path d="M1074.32 706H1058.28V786.208H1074.32V706Z" fill="black" stroke="black" stroke-width="0.981132"/>
<path d="M1106.4 706H1090.36V786.208H1106.4V706Z" fill="black" stroke="black" stroke-width="0.981132"/>
<path d="M1138.47 706H1122.43V786.208H1138.47V706Z" fill="#00E494" stroke="#CDCDCD"/>
<path d="M1097.46 659H1096.05C1095.97 658.595 1095.82 658.239 1095.61 657.932C1095.41 657.625 1095.16 657.367 1094.86 657.159C1094.57 656.947 1094.25 656.788 1093.89 656.682C1093.54 656.576 1093.16 656.523 1092.78 656.523C1092.07 656.523 1091.44 656.701 1090.86 657.057C1090.3 657.413 1089.84 657.938 1089.51 658.631C1089.17 659.324 1089.01 660.174 1089.01 661.182C1089.01 662.189 1089.17 663.04 1089.51 663.733C1089.84 664.426 1090.3 664.951 1090.86 665.307C1091.44 665.663 1092.07 665.841 1092.78 665.841C1093.16 665.841 1093.54 665.788 1093.89 665.682C1094.25 665.576 1094.57 665.419 1094.86 665.21C1095.16 664.998 1095.41 664.739 1095.61 664.432C1095.82 664.121 1095.97 663.765 1096.05 663.364H1097.46C1097.35 663.958 1097.16 664.491 1096.88 664.96C1096.6 665.43 1096.25 665.83 1095.84 666.159C1095.42 666.485 1094.95 666.733 1094.43 666.903C1093.92 667.074 1093.37 667.159 1092.78 667.159C1091.79 667.159 1090.9 666.917 1090.13 666.432C1089.36 665.947 1088.75 665.258 1088.31 664.364C1087.86 663.47 1087.64 662.409 1087.64 661.182C1087.64 659.955 1087.86 658.894 1088.31 658C1088.75 657.106 1089.36 656.417 1090.13 655.932C1090.9 655.447 1091.79 655.205 1092.78 655.205C1093.37 655.205 1093.92 655.29 1094.43 655.46C1094.95 655.631 1095.42 655.881 1095.84 656.21C1096.25 656.536 1096.6 656.934 1096.88 657.403C1097.16 657.869 1097.35 658.402 1097.46 659ZM1103.24 655.205C1103.71 655.208 1104.19 655.299 1104.67 655.477C1105.15 655.655 1105.58 655.951 1105.98 656.364C1106.37 656.773 1106.69 657.331 1106.92 658.04C1107.16 658.748 1107.28 659.636 1107.28 660.705C1107.28 661.739 1107.18 662.657 1106.99 663.46C1106.79 664.259 1106.51 664.934 1106.15 665.483C1105.78 666.032 1105.34 666.449 1104.82 666.733C1104.3 667.017 1103.71 667.159 1103.06 667.159C1102.4 667.159 1101.82 667.03 1101.31 666.773C1100.8 666.511 1100.39 666.15 1100.06 665.688C1099.74 665.222 1099.53 664.682 1099.44 664.068H1100.83C1100.95 664.602 1101.2 665.044 1101.57 665.392C1101.95 665.737 1102.44 665.909 1103.06 665.909C1103.95 665.909 1104.66 665.517 1105.18 664.733C1105.7 663.949 1105.96 662.841 1105.96 661.409H1105.87C1105.66 661.727 1105.41 662.002 1105.12 662.233C1104.83 662.464 1104.5 662.642 1104.15 662.767C1103.79 662.892 1103.41 662.955 1103.01 662.955C1102.34 662.955 1101.73 662.79 1101.17 662.46C1100.62 662.127 1100.18 661.67 1099.85 661.091C1099.52 660.508 1099.35 659.841 1099.35 659.091C1099.35 658.379 1099.51 657.727 1099.83 657.136C1100.15 656.542 1100.6 656.068 1101.18 655.716C1101.76 655.364 1102.45 655.193 1103.24 655.205ZM1103.24 656.455C1102.76 656.455 1102.33 656.574 1101.95 656.812C1101.57 657.047 1101.27 657.366 1101.04 657.767C1100.82 658.165 1100.71 658.606 1100.71 659.091C1100.71 659.576 1100.82 660.017 1101.03 660.415C1101.25 660.809 1101.54 661.123 1101.91 661.358C1102.29 661.589 1102.71 661.705 1103.19 661.705C1103.55 661.705 1103.89 661.634 1104.2 661.494C1104.51 661.35 1104.78 661.155 1105.01 660.909C1105.24 660.659 1105.43 660.377 1105.56 660.062C1105.69 659.744 1105.76 659.413 1105.76 659.068C1105.76 658.614 1105.65 658.187 1105.43 657.79C1105.21 657.392 1104.92 657.07 1104.53 656.824C1104.15 656.578 1103.72 656.455 1103.24 656.455Z" fill="#CDCDCD"/>
<path d="M520.075 706H488V866.415H520.075V706Z" fill="#00E494" stroke="#CDCDCD" stroke-width="0.981132"/>
<path d="M552.151 706H520.075V866.415H552.151V706Z" fill="white" stroke="#CDCDCD" stroke-width="0.981132"/>
<path d="M584.226 706H552.151V866.415H584.226V706Z" fill="#00E494" stroke="#CDCDCD" stroke-width="0.981132"/>
<path d="M616.302 706H584.227V866.415H616.302V706Z" fill="white" stroke="#CDCDCD" stroke-width="0.981132"/>
<path d="M648.377 706H616.302V866.415H648.377V706Z" fill="#00E494" stroke="#CDCDCD" stroke-width="0.981132"/>
<path d="M680.453 706H648.377V866.415H680.453V706Z" fill="#00E494" stroke="#CDCDCD" stroke-width="0.981132"/>
<path d="M712.529 706H680.453V866.415H712.529V706Z" fill="white" stroke="#CDCDCD" stroke-width="0.981132"/>
<path d="M744.075 706H712V866.415H744.075V706Z" fill="white" stroke="#CDCDCD" stroke-width="0.981132"/>
<path d="M776.151 706H744.075V866.415H776.151V706Z" fill="white" stroke="#CDCDCD" stroke-width="0.981132"/>
<path d="M808.226 706H776.151V866.415H808.226V706Z" fill="white" stroke="#CDCDCD" stroke-width="0.981132"/>
<path d="M752.094 706H736.057V786.208H752.094V706Z" fill="black" stroke="black" stroke-width="0.981132"/>
<path d="M784.17 706H768.132V786.208H784.17V706Z" fill="black"/>
<path d="M528.094 706H512.057V786.208H528.094V706Z" fill="black" stroke="black" stroke-width="0.981132"/>
<path d="M560.17 706H544.132V786.208H560.17V706Z" fill="black"/>
<path d="M624.321 706H608.283V786.208H624.321V706Z" fill="black" stroke="black" stroke-width="0.981132"/>
<path d="M656.396 706H640.358V786.208H656.396V706Z" fill="black" stroke="black" stroke-width="0.981132"/>
<path d="M688.472 706H672.434V786.208H688.472V706Z" fill="black"/>
<path d="M644.46 659H643.051C642.968 658.595 642.822 658.239 642.614 657.932C642.409 657.625 642.159 657.367 641.864 657.159C641.572 656.947 641.248 656.788 640.892 656.682C640.536 656.576 640.165 656.523 639.778 656.523C639.074 656.523 638.436 656.701 637.864 657.057C637.295 657.413 636.843 657.938 636.506 658.631C636.172 659.324 636.006 660.174 636.006 661.182C636.006 662.189 636.172 663.04 636.506 663.733C636.843 664.426 637.295 664.951 637.864 665.307C638.436 665.663 639.074 665.841 639.778 665.841C640.165 665.841 640.536 665.788 640.892 665.682C641.248 665.576 641.572 665.419 641.864 665.21C642.159 664.998 642.409 664.739 642.614 664.432C642.822 664.121 642.968 663.765 643.051 663.364H644.46C644.354 663.958 644.161 664.491 643.881 664.96C643.6 665.43 643.252 665.83 642.835 666.159C642.419 666.485 641.951 666.733 641.432 666.903C640.917 667.074 640.366 667.159 639.778 667.159C638.786 667.159 637.903 666.917 637.131 666.432C636.358 665.947 635.75 665.258 635.307 664.364C634.864 663.47 634.642 662.409 634.642 661.182C634.642 659.955 634.864 658.894 635.307 658C635.75 657.106 636.358 656.417 637.131 655.932C637.903 655.447 638.786 655.205 639.778 655.205C640.366 655.205 640.917 655.29 641.432 655.46C641.951 655.631 642.419 655.881 642.835 656.21C643.252 656.536 643.6 656.934 643.881 657.403C644.161 657.869 644.354 658.402 644.46 659ZM650.396 667.159C649.919 667.152 649.442 667.061 648.964 666.886C648.487 666.712 648.052 666.419 647.658 666.006C647.264 665.589 646.947 665.027 646.709 664.318C646.47 663.606 646.351 662.712 646.351 661.636C646.351 660.606 646.447 659.693 646.641 658.898C646.834 658.098 647.114 657.426 647.482 656.881C647.849 656.331 648.292 655.915 648.811 655.631C649.334 655.347 649.923 655.205 650.578 655.205C651.23 655.205 651.809 655.335 652.317 655.597C652.828 655.854 653.245 656.214 653.567 656.676C653.889 657.138 654.097 657.67 654.192 658.273H652.805C652.677 657.75 652.427 657.316 652.055 656.972C651.684 656.627 651.192 656.455 650.578 656.455C649.677 656.455 648.966 656.847 648.447 657.631C647.932 658.415 647.673 659.515 647.669 660.932H647.76C647.972 660.61 648.224 660.335 648.516 660.108C648.811 659.877 649.137 659.699 649.493 659.574C649.849 659.449 650.226 659.386 650.624 659.386C651.29 659.386 651.9 659.553 652.453 659.886C653.006 660.216 653.449 660.672 653.783 661.256C654.116 661.835 654.283 662.5 654.283 663.25C654.283 663.97 654.122 664.629 653.8 665.227C653.478 665.822 653.025 666.295 652.442 666.648C651.862 666.996 651.18 667.167 650.396 667.159ZM650.396 665.909C650.874 665.909 651.302 665.79 651.68 665.551C652.063 665.312 652.364 664.992 652.584 664.591C652.807 664.189 652.919 663.742 652.919 663.25C652.919 662.769 652.811 662.331 652.595 661.938C652.383 661.54 652.089 661.223 651.714 660.989C651.343 660.754 650.919 660.636 650.442 660.636C650.082 660.636 649.747 660.708 649.436 660.852C649.125 660.992 648.853 661.186 648.618 661.432C648.387 661.678 648.205 661.96 648.072 662.278C647.94 662.593 647.874 662.924 647.874 663.273C647.874 663.735 647.982 664.167 648.197 664.568C648.417 664.97 648.716 665.294 649.095 665.54C649.478 665.786 649.911 665.909 650.396 665.909Z" fill="#CDCDCD"/>
<path d="M73.0755 706H41V866.415H73.0755V706Z" fill="#00E494" stroke="#CDCDCD" stroke-width="0.981132"/>
<path d="M105.151 706H73.0752V866.415H105.151V706Z" fill="white" stroke="#CDCDCD" stroke-width="0.981132"/>
<path d="M137.226 706H105.151V866.415H137.226V706Z" fill="white" stroke="#CDCDCD" stroke-width="0.981132"/>
<path d="M169.302 706H137.227V866.415H169.302V706Z" fill="white" stroke="#CDCDCD" stroke-width="0.981132"/>
<path d="M201.377 706H169.302V866.415H201.377V706Z" fill="white" stroke="#CDCDCD" stroke-width="0.981132"/>
<path d="M233.453 706H201.377V866.415H233.453V706Z" fill="white" stroke="#CDCDCD" stroke-width="0.981132"/>
<path d="M265.529 706H233.453V866.415H265.529V706Z" fill="white" stroke="#CDCDCD" stroke-width="0.981132"/>
<path d="M81.0944 706H65.0566V786.208H81.0944V706Z" fill="black" stroke="black" stroke-width="0.981132"/>
<path d="M113.17 706H97.1318V786.208H113.17V706Z" fill="#00E494" stroke="#CDCDCD" stroke-width="0.981132"/>
<path d="M297.075 706H265V866.415H297.075V706Z" fill="white" stroke="#CDCDCD" stroke-width="0.981132"/>
<path d="M329.151 706H297.075V866.415H329.151V706Z" fill="white" stroke="#CDCDCD" stroke-width="0.981132"/>
<path d="M361.226 706H329.151V866.415H361.226V706Z" fill="white" stroke="#CDCDCD" stroke-width="0.981132"/>
<path d="M305.094 706H289.057V786.208H305.094V706Z" fill="black" stroke="black" stroke-width="0.981132"/>
<path d="M337.17 706H321.132V786.208H337.17V706Z" fill="black"/>
<path d="M177.321 706H161.283V786.208H177.321V706Z" fill="#00E494" stroke="#CDCDCD" stroke-width="0.981132"/>
<path d="M209.396 706H193.358V786.208H209.396V706Z" fill="black" stroke="black" stroke-width="0.981132"/>
<path d="M241.472 706H225.434V786.208H241.472V706Z" fill="black" stroke="black" stroke-width="0.981132"/>
<path d="M192.632 659H191.223C191.14 658.595 190.994 658.239 190.786 657.932C190.581 657.625 190.331 657.367 190.036 657.159C189.744 656.947 189.42 656.788 189.064 656.682C188.708 656.576 188.337 656.523 187.95 656.523C187.246 656.523 186.607 656.701 186.036 657.057C185.467 657.413 185.015 657.938 184.678 658.631C184.344 659.324 184.178 660.174 184.178 661.182C184.178 662.189 184.344 663.04 184.678 663.733C185.015 664.426 185.467 664.951 186.036 665.307C186.607 665.663 187.246 665.841 187.95 665.841C188.337 665.841 188.708 665.788 189.064 665.682C189.42 665.576 189.744 665.419 190.036 665.21C190.331 664.998 190.581 664.739 190.786 664.432C190.994 664.121 191.14 663.765 191.223 663.364H192.632C192.526 663.958 192.333 664.491 192.053 664.96C191.772 665.43 191.424 665.83 191.007 666.159C190.59 666.485 190.123 666.733 189.604 666.903C189.089 667.074 188.537 667.159 187.95 667.159C186.958 667.159 186.075 666.917 185.303 666.432C184.53 665.947 183.922 665.258 183.479 664.364C183.036 663.47 182.814 662.409 182.814 661.182C182.814 659.955 183.036 658.894 183.479 658C183.922 657.106 184.53 656.417 185.303 655.932C186.075 655.447 186.958 655.205 187.95 655.205C188.537 655.205 189.089 655.29 189.604 655.46C190.123 655.631 190.59 655.881 191.007 656.21C191.424 656.536 191.772 656.934 192.053 657.403C192.333 657.869 192.526 658.402 192.632 659ZM198.023 667.182C197.295 667.182 196.653 666.998 196.097 666.631C195.54 666.259 195.104 665.737 194.79 665.062C194.475 664.384 194.318 663.583 194.318 662.659C194.318 661.742 194.475 660.947 194.79 660.273C195.104 659.598 195.542 659.078 196.102 658.71C196.663 658.343 197.311 658.159 198.045 658.159C198.614 658.159 199.063 658.254 199.392 658.443C199.725 658.629 199.979 658.841 200.153 659.08C200.331 659.314 200.47 659.508 200.568 659.659H200.682V655.364H202.023V667H200.727V665.659H200.568C200.47 665.818 200.33 666.019 200.148 666.261C199.966 666.5 199.706 666.714 199.369 666.903C199.032 667.089 198.583 667.182 198.023 667.182ZM198.205 665.977C198.742 665.977 199.197 665.837 199.568 665.557C199.939 665.273 200.222 664.881 200.415 664.381C200.608 663.877 200.705 663.295 200.705 662.636C200.705 661.985 200.61 661.415 200.42 660.926C200.231 660.434 199.951 660.051 199.58 659.778C199.208 659.502 198.75 659.364 198.205 659.364C197.636 659.364 197.163 659.509 196.784 659.801C196.409 660.089 196.127 660.481 195.938 660.977C195.752 661.47 195.659 662.023 195.659 662.636C195.659 663.258 195.754 663.822 195.943 664.33C196.136 664.833 196.42 665.235 196.795 665.534C197.174 665.83 197.644 665.977 198.205 665.977ZM204.665 667V658.273H206.006V667H204.665ZM205.347 656.818C205.085 656.818 204.86 656.729 204.67 656.551C204.485 656.373 204.392 656.159 204.392 655.909C204.392 655.659 204.485 655.445 204.67 655.267C204.86 655.089 205.085 655 205.347 655C205.608 655 205.831 655.089 206.017 655.267C206.206 655.445 206.301 655.659 206.301 655.909C206.301 656.159 206.206 656.373 206.017 656.551C205.831 656.729 205.608 656.818 205.347 656.818ZM208.462 667V658.273H209.757V659.636H209.871C210.053 659.17 210.346 658.809 210.751 658.551C211.157 658.29 211.643 658.159 212.212 658.159C212.787 658.159 213.267 658.29 213.649 658.551C214.036 658.809 214.337 659.17 214.553 659.636H214.643C214.867 659.186 215.202 658.828 215.649 658.562C216.096 658.294 216.632 658.159 217.257 658.159C218.037 658.159 218.676 658.403 219.172 658.892C219.668 659.377 219.916 660.133 219.916 661.159V667H218.575V661.159C218.575 660.515 218.399 660.055 218.047 659.778C217.695 659.502 217.28 659.364 216.803 659.364C216.189 659.364 215.714 659.549 215.376 659.92C215.039 660.288 214.871 660.754 214.871 661.318V667H213.507V661.023C213.507 660.527 213.346 660.127 213.024 659.824C212.702 659.517 212.287 659.364 211.78 659.364C211.431 659.364 211.106 659.456 210.803 659.642C210.503 659.828 210.261 660.085 210.075 660.415C209.893 660.741 209.803 661.117 209.803 661.545V667H208.462Z" fill="#CDCDCD"/>
<path d="M970.075 426H938V586.415H970.075V426Z" fill="#00E494" stroke="#CDCDCD" stroke-width="0.981132"/>
<path d="M1002.15 426H970.075V586.415H1002.15V426Z" fill="white" stroke="#CDCDCD" stroke-width="0.981132"/>
<path d="M1034.23 426H1002.15V586.415H1034.23V426Z" fill="#00E494" stroke="#CDCDCD" stroke-width="0.981132"/>
<path d="M1066.3 426H1034.23V586.415H1066.3V426Z" fill="white" stroke="#CDCDCD" stroke-width="0.981132"/>
<path d="M1098.38 426H1066.3V586.415H1098.38V426Z" fill="#00E494" stroke="#CDCDCD" stroke-width="0.981132"/>
<path d="M1130.45 426H1098.38V586.415H1130.45V426Z" fill="white" stroke="#CDCDCD" stroke-width="0.981132"/>
<path d="M1162.53 426H1130.45V586.415H1162.53V426Z" fill="#00E494" stroke="#CDCDCD" stroke-width="0.981132"/>
<path d="M1194.08 426.251H1162V586.666H1194.08V426.251Z" fill="white" stroke="#CDCDCD" stroke-width="0.981132"/>
<path d="M1226.15 426.251H1194.08V586.666H1226.15V426.251Z" fill="white" stroke="#CDCDCD" stroke-width="0.981132"/>
<path d="M1258.23 426.251H1226.15V586.666H1258.23V426.251Z" fill="white" stroke="#CDCDCD" stroke-width="0.981132"/>
<path d="M1202.09 426.251H1186.06V506.459H1202.09V426.251Z" fill="black" stroke="black" stroke-width="0.981132"/>
<path d="M1234.17 426.251H1218.13V506.459H1234.17V426.251Z" fill="black"/>
<path d="M978.094 426H962.057V506.208H978.094V426Z" fill="black" stroke="black" stroke-width="0.981132"/>
<path d="M1010.17 426H994.132V506.208H1010.17V426Z" fill="black"/>
<path d="M1074.32 426H1058.28V506.208H1074.32V426Z" fill="black"/>
<path d="M1106.4 426H1090.36V506.208H1106.4V426Z" fill="black" stroke="black" stroke-width="0.981132"/>
<path d="M1138.47 426H1122.43V506.208H1138.47V426Z" fill="black"/>
<path d="M1084.52 379H1083.11C1083.03 378.595 1082.88 378.239 1082.68 377.932C1082.47 377.625 1082.22 377.367 1081.93 377.159C1081.63 376.947 1081.31 376.788 1080.95 376.682C1080.6 376.576 1080.23 376.523 1079.84 376.523C1079.14 376.523 1078.5 376.701 1077.93 377.057C1077.36 377.413 1076.91 377.938 1076.57 378.631C1076.23 379.324 1076.07 380.174 1076.07 381.182C1076.07 382.189 1076.23 383.04 1076.57 383.733C1076.91 384.426 1077.36 384.951 1077.93 385.307C1078.5 385.663 1079.14 385.841 1079.84 385.841C1080.23 385.841 1080.6 385.788 1080.95 385.682C1081.31 385.576 1081.63 385.419 1081.93 385.21C1082.22 384.998 1082.47 384.739 1082.68 384.432C1082.88 384.121 1083.03 383.765 1083.11 383.364H1084.52C1084.42 383.958 1084.22 384.491 1083.94 384.96C1083.66 385.43 1083.31 385.83 1082.9 386.159C1082.48 386.485 1082.01 386.733 1081.49 386.903C1080.98 387.074 1080.43 387.159 1079.84 387.159C1078.85 387.159 1077.97 386.917 1077.19 386.432C1076.42 385.947 1075.81 385.258 1075.37 384.364C1074.93 383.47 1074.7 382.409 1074.7 381.182C1074.7 379.955 1074.93 378.894 1075.37 378C1075.81 377.106 1076.42 376.417 1077.19 375.932C1077.97 375.447 1078.85 375.205 1079.84 375.205C1080.43 375.205 1080.98 375.29 1081.49 375.46C1082.01 375.631 1082.48 375.881 1082.9 376.21C1083.31 376.536 1083.66 376.934 1083.94 377.403C1084.22 377.869 1084.42 378.402 1084.52 379ZM1086.62 387V378.273H1087.91V379.636H1088.03C1088.21 379.17 1088.5 378.809 1088.91 378.551C1089.31 378.29 1089.8 378.159 1090.37 378.159C1090.94 378.159 1091.42 378.29 1091.81 378.551C1092.19 378.809 1092.49 379.17 1092.71 379.636H1092.8C1093.02 379.186 1093.36 378.828 1093.81 378.562C1094.25 378.294 1094.79 378.159 1095.41 378.159C1096.19 378.159 1096.83 378.403 1097.33 378.892C1097.82 379.377 1098.07 380.133 1098.07 381.159V387H1096.73V381.159C1096.73 380.515 1096.56 380.055 1096.2 379.778C1095.85 379.502 1095.44 379.364 1094.96 379.364C1094.35 379.364 1093.87 379.549 1093.53 379.92C1093.2 380.288 1093.03 380.754 1093.03 381.318V387H1091.66V381.023C1091.66 380.527 1091.5 380.127 1091.18 379.824C1090.86 379.517 1090.44 379.364 1089.94 379.364C1089.59 379.364 1089.26 379.456 1088.96 379.642C1088.66 379.828 1088.42 380.085 1088.23 380.415C1088.05 380.741 1087.96 381.117 1087.96 381.545V387H1086.62ZM1103.09 387.205C1102.54 387.205 1102.04 387.1 1101.59 386.892C1101.14 386.68 1100.78 386.375 1100.51 385.977C1100.25 385.576 1100.12 385.091 1100.12 384.523C1100.12 384.023 1100.21 383.617 1100.41 383.307C1100.61 382.992 1100.87 382.746 1101.2 382.568C1101.53 382.39 1101.89 382.258 1102.29 382.17C1102.69 382.08 1103.1 382.008 1103.5 381.955C1104.03 381.886 1104.46 381.835 1104.79 381.801C1105.12 381.763 1105.37 381.701 1105.52 381.614C1105.67 381.527 1105.75 381.375 1105.75 381.159V381.114C1105.75 380.553 1105.6 380.117 1105.29 379.807C1104.99 379.496 1104.53 379.341 1103.91 379.341C1103.27 379.341 1102.77 379.481 1102.4 379.761C1102.04 380.042 1101.79 380.341 1101.64 380.659L1100.37 380.205C1100.59 379.674 1100.9 379.261 1101.27 378.966C1101.66 378.667 1102.07 378.458 1102.52 378.341C1102.98 378.22 1103.43 378.159 1103.87 378.159C1104.15 378.159 1104.47 378.193 1104.83 378.261C1105.2 378.326 1105.55 378.46 1105.89 378.665C1106.24 378.869 1106.52 379.178 1106.75 379.591C1106.98 380.004 1107.09 380.557 1107.09 381.25V387H1105.75V385.818H1105.68C1105.59 386.008 1105.44 386.21 1105.23 386.426C1105.02 386.642 1104.73 386.826 1104.38 386.977C1104.03 387.129 1103.6 387.205 1103.09 387.205ZM1103.3 386C1103.83 386 1104.27 385.896 1104.64 385.688C1105.01 385.479 1105.28 385.21 1105.47 384.881C1105.66 384.551 1105.75 384.205 1105.75 383.841V382.614C1105.69 382.682 1105.57 382.744 1105.38 382.801C1105.19 382.854 1104.97 382.902 1104.72 382.943C1104.47 382.981 1104.23 383.015 1104 383.045C1103.76 383.072 1103.58 383.095 1103.43 383.114C1103.08 383.159 1102.76 383.233 1102.46 383.335C1102.16 383.434 1101.91 383.583 1101.73 383.784C1101.55 383.981 1101.46 384.25 1101.46 384.591C1101.46 385.057 1101.63 385.409 1101.97 385.648C1102.32 385.883 1102.76 386 1103.3 386ZM1109.54 378.273H1110.88V387.636C1110.88 388.174 1110.79 388.64 1110.6 389.034C1110.42 389.428 1110.14 389.733 1109.77 389.949C1109.41 390.165 1108.94 390.273 1108.38 390.273C1108.34 390.273 1108.29 390.273 1108.24 390.273C1108.2 390.273 1108.15 390.273 1108.11 390.273V389.023C1108.15 389.023 1108.2 389.023 1108.23 389.023C1108.27 389.023 1108.31 389.023 1108.36 389.023C1108.77 389.023 1109.07 388.902 1109.26 388.659C1109.45 388.42 1109.54 388.08 1109.54 387.636V378.273ZM1110.2 376.818C1109.94 376.818 1109.71 376.729 1109.52 376.551C1109.34 376.373 1109.24 376.159 1109.24 375.909C1109.24 375.659 1109.34 375.445 1109.52 375.267C1109.71 375.089 1109.94 375 1110.2 375C1110.46 375 1110.68 375.089 1110.87 375.267C1111.06 375.445 1111.15 375.659 1111.15 375.909C1111.15 376.159 1111.06 376.373 1110.87 376.551C1110.68 376.729 1110.46 376.818 1110.2 376.818ZM1113.68 387L1118.88 376.705V376.614H1112.88V375.364H1120.34V376.682L1115.15 387H1113.68Z" fill="#CDCDCD"/>
<path d="M521.075 426H489V586.415H521.075V426Z" fill="#00E494" stroke="#CDCDCD" stroke-width="0.981132"/>
<path d="M553.151 426H521.076V586.415H553.151V426Z" fill="white" stroke="#CDCDCD" stroke-width="0.981132"/>
<path d="M585.226 426H553.151V586.415H585.226V426Z" fill="#00E494" stroke="#CDCDCD" stroke-width="0.981132"/>
<path d="M617.302 426H585.227V586.415H617.302V426Z" fill="white" stroke="#CDCDCD" stroke-width="0.981132"/>
<path d="M649.377 426H617.302V586.415H649.377V426Z" fill="#00E494" stroke="#CDCDCD" stroke-width="0.981132"/>
<path d="M681.453 426H649.377V586.415H681.453V426Z" fill="white" stroke="#CDCDCD" stroke-width="0.981132"/>
<path d="M713.529 426H681.453V586.415H713.529V426Z" fill="white" stroke="#CDCDCD" stroke-width="0.981132"/>
<path d="M529.094 426H513.057V506.208H529.094V426Z" fill="black" stroke="black" stroke-width="0.981132"/>
<path d="M561.17 426H545.132V506.208H561.17V426Z" fill="black"/>
<path d="M745.075 426H713V586.415H745.075V426Z" fill="white" stroke="#CDCDCD" stroke-width="0.981132"/>
<path d="M777.151 426H745.076V586.415H777.151V426Z" fill="white" stroke="#CDCDCD" stroke-width="0.981132"/>
<path d="M809.226 426H777.151V586.415H809.226V426Z" fill="white" stroke="#CDCDCD" stroke-width="0.981132"/>
<path d="M753.094 426H737.057V506.208H753.094V426Z" fill="black" stroke="black" stroke-width="0.981132"/>
<path d="M785.17 426H769.132V506.208H785.17V426Z" fill="black"/>
<path d="M625.321 426H609.283V506.208H625.321V426Z" fill="black" stroke="black" stroke-width="0.981132"/>
<path d="M657.396 426H641.358V506.208H657.396V426Z" fill="black" stroke="black" stroke-width="0.981132"/>
<path d="M689.472 426H673.434V506.208H689.472V426Z" fill="#00E494" stroke="#CDCDCD" stroke-width="0.981132"/>
<path d="M645.882 379H644.473C644.39 378.595 644.244 378.239 644.036 377.932C643.831 377.625 643.581 377.367 643.286 377.159C642.994 376.947 642.67 376.788 642.314 376.682C641.958 376.576 641.587 376.523 641.2 376.523C640.496 376.523 639.857 376.701 639.286 377.057C638.717 377.413 638.265 377.938 637.928 378.631C637.594 379.324 637.428 380.174 637.428 381.182C637.428 382.189 637.594 383.04 637.928 383.733C638.265 384.426 638.717 384.951 639.286 385.307C639.857 385.663 640.496 385.841 641.2 385.841C641.587 385.841 641.958 385.788 642.314 385.682C642.67 385.576 642.994 385.419 643.286 385.21C643.581 384.998 643.831 384.739 644.036 384.432C644.244 384.121 644.39 383.765 644.473 383.364H645.882C645.776 383.958 645.583 384.491 645.303 384.96C645.022 385.43 644.674 385.83 644.257 386.159C643.84 386.485 643.373 386.733 642.854 386.903C642.339 387.074 641.787 387.159 641.2 387.159C640.208 387.159 639.325 386.917 638.553 386.432C637.78 385.947 637.172 385.258 636.729 384.364C636.286 383.47 636.064 382.409 636.064 381.182C636.064 379.955 636.286 378.894 636.729 378C637.172 377.106 637.78 376.417 638.553 375.932C639.325 375.447 640.208 375.205 641.2 375.205C641.787 375.205 642.339 375.29 642.854 375.46C643.373 375.631 643.84 375.881 644.257 376.21C644.674 376.536 645.022 376.934 645.303 377.403C645.583 377.869 645.776 378.402 645.882 379ZM648.318 387L653.523 376.705V376.614H647.523V375.364H654.977V376.682L649.795 387H648.318Z" fill="#CDCDCD"/>
<path d="M74.0755 426.251H42V586.666H74.0755V426.251Z" fill="#00E494" stroke="#CDCDCD" stroke-width="0.981132"/>
<path d="M106.151 426.251H74.0752V586.666H106.151V426.251Z" fill="white" stroke="#CDCDCD" stroke-width="0.981132"/>
<path d="M138.227 426.251H106.151V586.666H138.227V426.251Z" fill="white" stroke="#CDCDCD" stroke-width="0.981132"/>
<path d="M170.302 426.251H138.227V586.666H170.302V426.251Z" fill="white" stroke="#CDCDCD" stroke-width="0.981132"/>
<path d="M202.377 426.251H170.302V586.666H202.377V426.251Z" fill="#00E494" stroke="#CDCDCD" stroke-width="0.981132"/>
<path d="M234.453 426.251H202.377V586.666H234.453V426.251Z" fill="white" stroke="#CDCDCD" stroke-width="0.981132"/>
<path d="M266.529 426.251H234.453V586.666H266.529V426.251Z" fill="white" stroke="#CDCDCD" stroke-width="0.981132"/>
<path d="M82.0944 426.251H66.0566V506.459H82.0944V426.251Z" fill="black" stroke="black" stroke-width="0.981132"/>
<path d="M114.17 426.251H98.1318V506.459H114.17V426.251Z" fill="#00E494" stroke="#CDCDCD" stroke-width="0.981132"/>
<path d="M298.075 426.251H266V586.666H298.075V426.251Z" fill="white" stroke="#CDCDCD" stroke-width="0.981132"/>
<path d="M330.151 426.251H298.075V586.666H330.151V426.251Z" fill="white" stroke="#CDCDCD" stroke-width="0.981132"/>
<path d="M362.227 426.251H330.151V586.666H362.227V426.251Z" fill="white" stroke="#CDCDCD" stroke-width="0.981132"/>
<path d="M306.094 426.251H290.057V506.459H306.094V426.251Z" fill="black" stroke="black" stroke-width="0.981132"/>
<path d="M338.17 426.251H322.132V506.459H338.17V426.251Z" fill="black"/>
<path d="M178.321 426.251H162.283V506.459H178.321V426.251Z" fill="black" stroke="black" stroke-width="0.981132"/>
<path d="M210.396 426.251H194.358V506.459H210.396V426.251Z" fill="black"/>
<path d="M242.472 426.251H226.434V506.459H242.472V426.251Z" fill="#00E494" stroke="#CDCDCD" stroke-width="0.981132"/>
<path d="M195.929 379H194.52C194.437 378.595 194.291 378.239 194.082 377.932C193.878 377.625 193.628 377.367 193.332 377.159C193.041 376.947 192.717 376.788 192.361 376.682C192.005 376.576 191.634 376.523 191.247 376.523C190.543 376.523 189.904 376.701 189.332 377.057C188.764 377.413 188.312 377.938 187.974 378.631C187.641 379.324 187.474 380.174 187.474 381.182C187.474 382.189 187.641 383.04 187.974 383.733C188.312 384.426 188.764 384.951 189.332 385.307C189.904 385.663 190.543 385.841 191.247 385.841C191.634 385.841 192.005 385.788 192.361 385.682C192.717 385.576 193.041 385.419 193.332 385.21C193.628 384.998 193.878 384.739 194.082 384.432C194.291 384.121 194.437 383.765 194.52 383.364H195.929C195.823 383.958 195.63 384.491 195.349 384.96C195.069 385.43 194.721 385.83 194.304 386.159C193.887 386.485 193.42 386.733 192.901 386.903C192.385 387.074 191.834 387.159 191.247 387.159C190.255 387.159 189.372 386.917 188.599 386.432C187.827 385.947 187.219 385.258 186.776 384.364C186.332 383.47 186.111 382.409 186.111 381.182C186.111 379.955 186.332 378.894 186.776 378C187.219 377.106 187.827 376.417 188.599 375.932C189.372 375.447 190.255 375.205 191.247 375.205C191.834 375.205 192.385 375.29 192.901 375.46C193.42 375.631 193.887 375.881 194.304 376.21C194.721 376.536 195.069 376.934 195.349 377.403C195.63 377.869 195.823 378.402 195.929 379ZM198.024 387V378.273H199.32V379.636H199.433C199.615 379.17 199.909 378.809 200.314 378.551C200.719 378.29 201.206 378.159 201.774 378.159C202.35 378.159 202.829 378.29 203.212 378.551C203.598 378.809 203.899 379.17 204.115 379.636H204.206C204.429 379.186 204.765 378.828 205.212 378.562C205.659 378.294 206.195 378.159 206.82 378.159C207.6 378.159 208.238 378.403 208.734 378.892C209.231 379.377 209.479 380.133 209.479 381.159V387H208.138V381.159C208.138 380.515 207.962 380.055 207.609 379.778C207.257 379.502 206.842 379.364 206.365 379.364C205.751 379.364 205.276 379.549 204.939 379.92C204.602 380.288 204.433 380.754 204.433 381.318V387H203.07V381.023C203.07 380.527 202.909 380.127 202.587 379.824C202.265 379.517 201.85 379.364 201.342 379.364C200.994 379.364 200.668 379.456 200.365 379.642C200.066 379.828 199.823 380.085 199.638 380.415C199.456 380.741 199.365 381.117 199.365 381.545V387H198.024ZM212.271 387L217.476 376.705V376.614H211.476V375.364H218.93V376.682L213.749 387H212.271Z" fill="#CDCDCD"/>
<path d="M969.075 146.251H937V306.666H969.075V146.251Z" fill="#00E494" stroke="#CDCDCD" stroke-width="0.981132"/>
<path d="M1001.15 146.251H969.076V306.666H1001.15V146.251Z" fill="white" stroke="#CDCDCD" stroke-width="0.981132"/>
<path d="M1033.23 146.251H1001.15V306.666H1033.23V146.251Z" fill="white" stroke="#CDCDCD" stroke-width="0.981132"/>
<path d="M1065.3 146.251H1033.23V306.666H1065.3V146.251Z" fill="#00E494" stroke="#CDCDCD" stroke-width="0.981132"/>
<path d="M1097.38 146.251H1065.3V306.666H1097.38V146.251Z" fill="#00E494" stroke="#CDCDCD" stroke-width="0.981132"/>
<path d="M1129.45 146.251H1097.38V306.666H1129.45V146.251Z" fill="white" stroke="#CDCDCD" stroke-width="0.981132"/>
<path d="M1161.53 146.251H1129.45V306.666H1161.53V146.251Z" fill="white" stroke="#CDCDCD" stroke-width="0.981132"/>
<path d="M977.094 146.251H961.057V226.459H977.094V146.251Z" fill="black" stroke="black" stroke-width="0.981132"/>
<path d="M1009.17 146.251H993.132V226.459H1009.17V146.251Z" fill="black"/>
<path d="M1193.08 146.251H1161V306.666H1193.08V146.251Z" fill="white" stroke="#CDCDCD" stroke-width="0.981132"/>
<path d="M1225.15 146.251H1193.08V306.666H1225.15V146.251Z" fill="white" stroke="#CDCDCD" stroke-width="0.981132"/>
<path d="M1257.23 146.251H1225.15V306.666H1257.23V146.251Z" fill="white" stroke="#CDCDCD" stroke-width="0.981132"/>
<path d="M1201.09 146.251H1185.06V226.459H1201.09V146.251Z" fill="black" stroke="black" stroke-width="0.981132"/>
<path d="M1233.17 146.251H1217.13V226.459H1233.17V146.251Z" fill="black"/>
<path d="M1073.32 146.251H1057.28V226.459H1073.32V146.251Z" fill="black" stroke="black" stroke-width="0.981132"/>
<path d="M1105.4 146.251H1089.36V226.459H1105.4V146.251Z" fill="black" stroke="black" stroke-width="0.981132"/>
<path d="M1137.47 146.251H1121.43V226.459H1137.47V146.251Z" fill="black" stroke="black" stroke-width="0.981132"/>
<path d="M1083.31 99H1081.9C1081.82 98.5947 1081.67 98.2386 1081.47 97.9318C1081.26 97.625 1081.01 97.3674 1080.72 97.1591C1080.42 96.947 1080.1 96.7879 1079.74 96.6818C1079.39 96.5758 1079.02 96.5227 1078.63 96.5227C1077.93 96.5227 1077.29 96.7008 1076.72 97.0568C1076.15 97.4129 1075.69 97.9375 1075.36 98.6307C1075.02 99.3239 1074.86 100.174 1074.86 101.182C1074.86 102.189 1075.02 103.04 1075.36 103.733C1075.69 104.426 1076.15 104.951 1076.72 105.307C1077.29 105.663 1077.93 105.841 1078.63 105.841C1079.02 105.841 1079.39 105.788 1079.74 105.682C1080.1 105.576 1080.42 105.419 1080.72 105.21C1081.01 104.998 1081.26 104.739 1081.47 104.432C1081.67 104.121 1081.82 103.765 1081.9 103.364H1083.31C1083.21 103.958 1083.01 104.491 1082.73 104.96C1082.45 105.43 1082.1 105.83 1081.69 106.159C1081.27 106.485 1080.8 106.733 1080.28 106.903C1079.77 107.074 1079.22 107.159 1078.63 107.159C1077.64 107.159 1076.75 106.917 1075.98 106.432C1075.21 105.947 1074.6 105.258 1074.16 104.364C1073.72 103.47 1073.49 102.409 1073.49 101.182C1073.49 99.9545 1073.72 98.8939 1074.16 98C1074.6 97.1061 1075.21 96.4167 1075.98 95.9318C1076.75 95.447 1077.64 95.2045 1078.63 95.2045C1079.22 95.2045 1079.77 95.2898 1080.28 95.4602C1080.8 95.6307 1081.27 95.8807 1081.69 96.2102C1082.1 96.536 1082.45 96.9337 1082.73 97.4034C1083.01 97.8693 1083.21 98.4015 1083.31 99ZM1091.59 100.227L1090.38 100.568C1090.31 100.367 1090.2 100.172 1090.05 99.983C1089.91 99.7898 1089.71 99.6307 1089.46 99.5057C1089.21 99.3807 1088.89 99.3182 1088.5 99.3182C1087.96 99.3182 1087.52 99.4413 1087.16 99.6875C1086.81 99.9299 1086.63 100.239 1086.63 100.614C1086.63 100.947 1086.76 101.21 1087 101.403C1087.24 101.597 1087.62 101.758 1088.13 101.886L1089.43 102.205C1090.21 102.394 1090.79 102.684 1091.17 103.074C1091.56 103.46 1091.75 103.958 1091.75 104.568C1091.75 105.068 1091.6 105.515 1091.32 105.909C1091.03 106.303 1090.63 106.614 1090.12 106.841C1089.61 107.068 1089.02 107.182 1088.34 107.182C1087.45 107.182 1086.71 106.989 1086.13 106.602C1085.55 106.216 1085.18 105.652 1085.02 104.909L1086.29 104.591C1086.41 105.061 1086.64 105.413 1086.98 105.648C1087.32 105.883 1087.77 106 1088.32 106C1088.94 106 1089.44 105.867 1089.8 105.602C1090.18 105.333 1090.36 105.011 1090.36 104.636C1090.36 104.333 1090.26 104.08 1090.04 103.875C1089.83 103.667 1089.51 103.511 1089.07 103.409L1087.61 103.068C1086.81 102.879 1086.23 102.585 1085.85 102.188C1085.48 101.786 1085.29 101.284 1085.29 100.682C1085.29 100.189 1085.43 99.7538 1085.71 99.375C1085.99 98.9962 1086.37 98.6989 1086.85 98.483C1087.33 98.267 1087.88 98.1591 1088.5 98.1591C1089.36 98.1591 1090.04 98.3485 1090.53 98.7273C1091.03 99.1061 1091.38 99.6061 1091.59 100.227ZM1099.27 103.432V98.2727H1100.61V107H1099.27V105.523H1099.18C1098.97 105.966 1098.65 106.343 1098.22 106.653C1097.79 106.96 1097.24 107.114 1096.58 107.114C1096.04 107.114 1095.55 106.994 1095.13 106.756C1094.71 106.513 1094.37 106.15 1094.13 105.665C1093.89 105.176 1093.77 104.561 1093.77 103.818V98.2727H1095.11V103.727C1095.11 104.364 1095.29 104.871 1095.64 105.25C1096 105.629 1096.46 105.818 1097.02 105.818C1097.35 105.818 1097.69 105.733 1098.03 105.562C1098.38 105.392 1098.67 105.131 1098.91 104.778C1099.15 104.426 1099.27 103.977 1099.27 103.432ZM1109.25 100.227L1108.04 100.568C1107.96 100.367 1107.85 100.172 1107.71 99.983C1107.56 99.7898 1107.36 99.6307 1107.11 99.5057C1106.86 99.3807 1106.54 99.3182 1106.15 99.3182C1105.62 99.3182 1105.17 99.4413 1104.82 99.6875C1104.47 99.9299 1104.29 100.239 1104.29 100.614C1104.29 100.947 1104.41 101.21 1104.65 101.403C1104.9 101.597 1105.28 101.758 1105.79 101.886L1107.09 102.205C1107.87 102.394 1108.45 102.684 1108.83 103.074C1109.21 103.46 1109.4 103.958 1109.4 104.568C1109.4 105.068 1109.26 105.515 1108.97 105.909C1108.69 106.303 1108.29 106.614 1107.78 106.841C1107.27 107.068 1106.67 107.182 1106 107.182C1105.1 107.182 1104.37 106.989 1103.78 106.602C1103.2 106.216 1102.83 105.652 1102.68 104.909L1103.95 104.591C1104.07 105.061 1104.3 105.413 1104.64 105.648C1104.98 105.883 1105.42 106 1105.97 106C1106.6 106 1107.09 105.867 1107.46 105.602C1107.83 105.333 1108.02 105.011 1108.02 104.636C1108.02 104.333 1107.91 104.08 1107.7 103.875C1107.49 103.667 1107.16 103.511 1106.72 103.409L1105.27 103.068C1104.47 102.879 1103.88 102.585 1103.51 102.188C1103.14 101.786 1102.95 101.284 1102.95 100.682C1102.95 100.189 1103.09 99.7538 1103.36 99.375C1103.64 98.9962 1104.03 98.6989 1104.51 98.483C1104.99 98.267 1105.54 98.1591 1106.15 98.1591C1107.02 98.1591 1107.7 98.3485 1108.19 98.7273C1108.68 99.1061 1109.04 99.6061 1109.25 100.227ZM1111.13 104.614V103.455L1116.24 95.3636H1117.08V97.1591H1116.51L1112.65 103.273V103.364H1119.54V104.614H1111.13ZM1116.6 107V104.261V103.722V95.3636H1117.95V107H1116.6Z" fill="#CDCDCD"/>
<path d="M520.377 146.251H488.302V306.666H520.377V146.251Z" fill="#00E494" stroke="#CDCDCD" stroke-width="0.981132"/>
<path d="M552.453 146.251H520.377V306.666H552.453V146.251Z" fill="white" stroke="#CDCDCD" stroke-width="0.981132"/>
<path d="M584.529 146.251H552.453V306.666H584.529V146.251Z" fill="white" stroke="#CDCDCD" stroke-width="0.981132"/>
<path d="M616.604 146.251H584.528V306.666H616.604V146.251Z" fill="white" stroke="#CDCDCD" stroke-width="0.981132"/>
<path d="M648.679 146.251H616.604V306.666H648.679V146.251Z" fill="#00E494" stroke="#CDCDCD" stroke-width="0.981132"/>
<path d="M680.755 146.251H648.679V306.666H680.755V146.251Z" fill="white" stroke="#CDCDCD" stroke-width="0.981132"/>
<path d="M712.83 146.251H680.755V306.666H712.83V146.251Z" fill="white" stroke="#CDCDCD" stroke-width="0.981132"/>
<path d="M528.396 146.251H512.358V226.459H528.396V146.251Z" fill="black" stroke="black" stroke-width="0.981132"/>
<path d="M560.471 146.251H544.434V226.459H560.471V146.251Z" fill="#00E494" stroke="#CDCDCD" stroke-width="0.981132"/>
<path d="M745.075 146.251H713V306.666H745.075V146.251Z" fill="white" stroke="#CDCDCD" stroke-width="0.981132"/>
<path d="M777.151 146.251H745.076V306.666H777.151V146.251Z" fill="white" stroke="#CDCDCD" stroke-width="0.981132"/>
<path d="M809.227 146.251H777.151V306.666H809.227V146.251Z" fill="white" stroke="#CDCDCD" stroke-width="0.981132"/>
<path d="M753.094 146.251H737.057V226.459H753.094V146.251Z" fill="black" stroke="black" stroke-width="0.981132"/>
<path d="M785.17 146.251H769.132V226.459H785.17V146.251Z" fill="black"/>
<path d="M624.623 146.251H608.585V226.459H624.623V146.251Z" fill="black" stroke="black" stroke-width="0.981132"/>
<path d="M656.698 146.251H640.66V226.459H656.698V146.251Z" fill="black"/>
<path d="M688.774 146.251H672.736V226.459H688.774V146.251Z" fill="black"/>
<path d="M642.499 99H641.09C641.007 98.5947 640.861 98.2386 640.653 97.9318C640.448 97.625 640.198 97.3674 639.903 97.1591C639.611 96.947 639.287 96.7879 638.931 96.6818C638.575 96.5758 638.204 96.5227 637.817 96.5227C637.113 96.5227 636.475 96.7008 635.903 97.0568C635.335 97.4129 634.882 97.9375 634.545 98.6307C634.211 99.3239 634.045 100.174 634.045 101.182C634.045 102.189 634.211 103.04 634.545 103.733C634.882 104.426 635.335 104.951 635.903 105.307C636.475 105.663 637.113 105.841 637.817 105.841C638.204 105.841 638.575 105.788 638.931 105.682C639.287 105.576 639.611 105.419 639.903 105.21C640.198 104.998 640.448 104.739 640.653 104.432C640.861 104.121 641.007 103.765 641.09 103.364H642.499C642.393 103.958 642.2 104.491 641.92 104.96C641.639 105.43 641.291 105.83 640.874 106.159C640.458 106.485 639.99 106.733 639.471 106.903C638.956 107.074 638.405 107.159 637.817 107.159C636.825 107.159 635.942 106.917 635.17 106.432C634.397 105.947 633.789 105.258 633.346 104.364C632.903 103.47 632.681 102.409 632.681 101.182C632.681 99.9545 632.903 98.8939 633.346 98C633.789 97.1061 634.397 96.4167 635.17 95.9318C635.942 95.447 636.825 95.2045 637.817 95.2045C638.405 95.2045 638.956 95.2898 639.471 95.4602C639.99 95.6307 640.458 95.8807 640.874 96.2102C641.291 96.536 641.639 96.9337 641.92 97.4034C642.2 97.8693 642.393 98.4015 642.499 99ZM644.594 107V98.2727H645.89V99.6364H646.004C646.185 99.1705 646.479 98.8087 646.884 98.5511C647.29 98.2898 647.776 98.1591 648.344 98.1591C648.92 98.1591 649.399 98.2898 649.782 98.5511C650.168 98.8087 650.469 99.1705 650.685 99.6364H650.776C651 99.1856 651.335 98.8277 651.782 98.5625C652.229 98.2936 652.765 98.1591 653.39 98.1591C654.17 98.1591 654.808 98.4034 655.305 98.892C655.801 99.3769 656.049 100.133 656.049 101.159V107H654.708V101.159C654.708 100.515 654.532 100.055 654.18 99.7784C653.827 99.5019 653.413 99.3636 652.935 99.3636C652.322 99.3636 651.846 99.5492 651.509 99.9205C651.172 100.288 651.004 100.754 651.004 101.318V107H649.64V101.023C649.64 100.527 649.479 100.127 649.157 99.8239C648.835 99.517 648.42 99.3636 647.913 99.3636C647.564 99.3636 647.238 99.4564 646.935 99.642C646.636 99.8277 646.394 100.085 646.208 100.415C646.026 100.741 645.935 101.117 645.935 101.545V107H644.594Z" fill="#CDCDCD"/>
<path d="M73.0755 146.251H41V306.666H73.0755V146.251Z" fill="#00E494" stroke="#CDCDCD" stroke-width="0.981132"/>
<path d="M105.151 146.251H73.0757V306.666H105.151V146.251Z" fill="white" stroke="#CDCDCD" stroke-width="0.981132"/>
<path d="M137.227 146.251H105.151V306.666H137.227V146.251Z" fill="#00E494" stroke="#CDCDCD" stroke-width="0.981132"/>
<path d="M169.302 146.251H137.227V306.666H169.302V146.251Z" fill="white" stroke="#CDCDCD" stroke-width="0.981132"/>
<path d="M201.377 146.251H169.302V306.666H201.377V146.251Z" fill="#00E494" stroke="#CDCDCD" stroke-width="0.981132"/>
<path d="M233.453 146.251H201.377V306.666H233.453V146.251Z" fill="white" stroke="#CDCDCD" stroke-width="0.981132"/>
<path d="M265.529 146.251H233.453V306.666H265.529V146.251Z" fill="white" stroke="#CDCDCD" stroke-width="0.981132"/>
<path d="M81.0944 146.251H65.0566V226.459H81.0944V146.251Z" fill="black" stroke="black" stroke-width="0.981132"/>
<path d="M113.17 146.251H97.1323V226.459H113.17V146.251Z" fill="black" stroke="black" stroke-width="0.981132"/>
<path d="M297.075 146.251H265V306.666H297.075V146.251Z" fill="white" stroke="#CDCDCD" stroke-width="0.981132"/>
<path d="M329.151 146.251H297.076V306.666H329.151V146.251Z" fill="white" stroke="#CDCDCD" stroke-width="0.981132"/>
<path d="M361.227 146.251H329.151V306.666H361.227V146.251Z" fill="white" stroke="#CDCDCD" stroke-width="0.981132"/>
<path d="M305.094 146.251H289.057V226.459H305.094V146.251Z" fill="black" stroke="black" stroke-width="0.981132"/>
<path d="M337.17 146.251H321.132V226.459H337.17V146.251Z" fill="black" stroke="black" stroke-width="0.981132"/>
<path d="M177.321 146.251H161.283V226.459H177.321V146.251Z" fill="black" stroke="black" stroke-width="0.981132"/>
<path d="M209.396 146.251H193.358V226.459H209.396V146.251Z" fill="black" stroke="black" stroke-width="0.981132"/>
<path d="M241.472 146.251H225.434V226.459H241.472V146.251Z" fill="black" stroke="black" stroke-width="0.981132"/>
<path d="M206.452 99H205.043C204.96 98.5947 204.814 98.2386 204.606 97.9318C204.401 97.625 204.151 97.3674 203.856 97.1591C203.564 96.947 203.24 96.7879 202.884 96.6818C202.528 96.5758 202.157 96.5227 201.771 96.5227C201.066 96.5227 200.428 96.7008 199.856 97.0568C199.288 97.4129 198.835 97.9375 198.498 98.6307C198.165 99.3239 197.998 100.174 197.998 101.182C197.998 102.189 198.165 103.04 198.498 103.733C198.835 104.426 199.288 104.951 199.856 105.307C200.428 105.663 201.066 105.841 201.771 105.841C202.157 105.841 202.528 105.788 202.884 105.682C203.24 105.576 203.564 105.419 203.856 105.21C204.151 104.998 204.401 104.739 204.606 104.432C204.814 104.121 204.96 103.765 205.043 103.364H206.452C206.346 103.958 206.153 104.491 205.873 104.96C205.593 105.43 205.244 105.83 204.827 106.159C204.411 106.485 203.943 106.733 203.424 106.903C202.909 107.074 202.358 107.159 201.771 107.159C200.778 107.159 199.896 106.917 199.123 106.432C198.35 105.947 197.742 105.258 197.299 104.364C196.856 103.47 196.634 102.409 196.634 101.182C196.634 99.9545 196.856 98.8939 197.299 98C197.742 97.1061 198.35 96.4167 199.123 95.9318C199.896 95.447 200.778 95.2045 201.771 95.2045C202.358 95.2045 202.909 95.2898 203.424 95.4602C203.943 95.6307 204.411 95.8807 204.827 96.2102C205.244 96.536 205.593 96.9337 205.873 97.4034C206.153 97.8693 206.346 98.4015 206.452 99Z" fill="#CDCDCD"/>
</svg>
