<svg width="1800" height="600" viewBox="0 0 1800 600" fill="none" xmlns="http://www.w3.org/2000/svg">
<path d="M1431.08 387H1399V547.415H1431.08V387Z" fill="#00E494" stroke="#CDCDCD" stroke-width="0.981132"/>
<path d="M1463.15 387H1431.08V547.415H1463.15V387Z" fill="white" stroke="#CDCDCD" stroke-width="0.981132"/>
<path d="M1495.23 387H1463.15V547.415H1495.23V387Z" fill="white" stroke="#CDCDCD" stroke-width="0.981132"/>
<path d="M1527.3 387H1495.23V547.415H1527.3V387Z" fill="#00E494" stroke="#CDCDCD" stroke-width="0.981132"/>
<path d="M1559.38 387H1527.3V547.415H1559.38V387Z" fill="#00E494" stroke="#CDCDCD" stroke-width="0.981132"/>
<path d="M1591.45 387H1559.38V547.415H1591.45V387Z" fill="white" stroke="#CDCDCD" stroke-width="0.981132"/>
<path d="M1623.53 387H1591.45V547.415H1623.53V387Z" fill="white" stroke="#CDCDCD" stroke-width="0.981132"/>
<path d="M1655.08 387H1623V547.415H1655.08V387Z" fill="#00E494" stroke="#CDCDCD" stroke-width="0.981132"/>
<path d="M1687.15 387H1655.08V547.415H1687.15V387Z" fill="white" stroke="#CDCDCD" stroke-width="0.981132"/>
<path d="M1719.23 387H1687.15V547.415H1719.23V387Z" fill="white" stroke="#CDCDCD" stroke-width="0.981132"/>
<path d="M1663.09 387H1647.06V467.208H1663.09V387Z" fill="black" stroke="black" stroke-width="0.981132"/>
<path d="M1695.17 387H1679.13V467.208H1695.17V387Z" fill="black" stroke="black" stroke-width="0.981132"/>
<path d="M1439.09 387H1423.06V467.208H1439.09V387Z" fill="black" stroke="black" stroke-width="0.981132"/>
<path d="M1471.17 387H1455.13V467.208H1471.17V387Z" fill="#00E494" stroke="#00E494" stroke-width="0.981132"/>
<path d="M1535.32 387H1519.28V467.208H1535.32V387Z" fill="black" stroke="black" stroke-width="0.981132"/>
<path d="M1567.4 387H1551.36V467.208H1567.4V387Z" fill="black" stroke="black" stroke-width="0.981132"/>
<path d="M1599.47 387H1583.43V467.208H1599.47V387Z" fill="#00E494" stroke="#00E494" stroke-width="0.981132"/>
<path d="M1480.75 336.364H1482.43L1486.39 346.023H1486.53L1490.48 336.364H1492.16V348H1490.84V339.159H1490.73L1487.09 348H1485.82L1482.18 339.159H1482.07V348H1480.75V336.364ZM1494.81 348V339.273H1496.15V348H1494.81ZM1495.49 337.818C1495.23 337.818 1495 337.729 1494.81 337.551C1494.63 337.373 1494.53 337.159 1494.53 336.909C1494.53 336.659 1494.63 336.445 1494.81 336.267C1495 336.089 1495.23 336 1495.49 336C1495.75 336 1495.97 336.089 1496.16 336.267C1496.35 336.445 1496.44 336.659 1496.44 336.909C1496.44 337.159 1496.35 337.373 1496.16 337.551C1495.97 337.729 1495.75 337.818 1495.49 337.818ZM1499.94 342.75V348H1498.6V339.273H1499.9V340.636H1500.01C1500.22 340.193 1500.53 339.837 1500.94 339.568C1501.36 339.295 1501.9 339.159 1502.56 339.159C1503.15 339.159 1503.66 339.28 1504.11 339.523C1504.55 339.761 1504.9 340.125 1505.14 340.614C1505.39 341.098 1505.51 341.712 1505.51 342.455V348H1504.17V342.545C1504.17 341.86 1503.99 341.326 1503.64 340.943C1503.28 340.557 1502.79 340.364 1502.17 340.364C1501.74 340.364 1501.36 340.456 1501.02 340.642C1500.69 340.828 1500.43 341.098 1500.23 341.455C1500.04 341.811 1499.94 342.242 1499.94 342.75ZM1511.51 348.182C1510.72 348.182 1510.03 347.994 1509.43 347.619C1508.84 347.244 1508.38 346.72 1508.05 346.045C1507.72 345.371 1507.55 344.583 1507.55 343.682C1507.55 342.773 1507.72 341.979 1508.05 341.301C1508.38 340.623 1508.84 340.097 1509.43 339.722C1510.03 339.347 1510.72 339.159 1511.51 339.159C1512.29 339.159 1512.98 339.347 1513.58 339.722C1514.17 340.097 1514.63 340.623 1514.96 341.301C1515.29 341.979 1515.46 342.773 1515.46 343.682C1515.46 344.583 1515.29 345.371 1514.96 346.045C1514.63 346.72 1514.17 347.244 1513.58 347.619C1512.98 347.994 1512.29 348.182 1511.51 348.182ZM1511.51 346.977C1512.11 346.977 1512.6 346.824 1512.98 346.517C1513.37 346.21 1513.66 345.807 1513.84 345.307C1514.03 344.807 1514.12 344.265 1514.12 343.682C1514.12 343.098 1514.03 342.555 1513.84 342.051C1513.66 341.547 1513.37 341.14 1512.98 340.83C1512.6 340.519 1512.11 340.364 1511.51 340.364C1510.91 340.364 1510.42 340.519 1510.03 340.83C1509.64 341.14 1509.36 341.547 1509.17 342.051C1508.99 342.555 1508.89 343.098 1508.89 343.682C1508.89 344.265 1508.99 344.807 1509.17 345.307C1509.36 345.807 1509.64 346.21 1510.03 346.517C1510.42 346.824 1510.91 346.977 1511.51 346.977ZM1517.51 348V339.273H1518.8V340.591H1518.89C1519.05 340.159 1519.34 339.809 1519.76 339.54C1520.18 339.271 1520.64 339.136 1521.17 339.136C1521.27 339.136 1521.39 339.138 1521.54 339.142C1521.68 339.146 1521.8 339.152 1521.87 339.159V340.523C1521.83 340.511 1521.72 340.494 1521.56 340.472C1521.4 340.445 1521.23 340.432 1521.05 340.432C1520.63 340.432 1520.25 340.521 1519.92 340.699C1519.59 340.873 1519.33 341.116 1519.13 341.426C1518.94 341.733 1518.85 342.083 1518.85 342.477V348H1517.51ZM1528.14 348V336.364H1532.08C1532.99 336.364 1533.73 336.528 1534.31 336.858C1534.9 337.184 1535.33 337.625 1535.61 338.182C1535.89 338.739 1536.03 339.36 1536.03 340.045C1536.03 340.731 1535.89 341.354 1535.61 341.915C1535.33 342.475 1534.9 342.922 1534.33 343.256C1533.75 343.585 1533 343.75 1532.1 343.75H1529.28V342.5H1532.05C1532.68 342.5 1533.18 342.392 1533.56 342.176C1533.94 341.96 1534.21 341.669 1534.38 341.301C1534.56 340.93 1534.64 340.511 1534.64 340.045C1534.64 339.58 1534.56 339.163 1534.38 338.795C1534.21 338.428 1533.94 338.14 1533.55 337.932C1533.17 337.72 1532.66 337.614 1532.03 337.614H1529.55V348H1528.14ZM1541.68 348.182C1540.84 348.182 1540.12 347.996 1539.51 347.625C1538.9 347.25 1538.43 346.727 1538.1 346.057C1537.78 345.383 1537.62 344.598 1537.62 343.705C1537.62 342.811 1537.78 342.023 1538.1 341.341C1538.43 340.655 1538.89 340.121 1539.48 339.739C1540.07 339.352 1540.76 339.159 1541.55 339.159C1542 339.159 1542.45 339.235 1542.89 339.386C1543.34 339.538 1543.74 339.784 1544.1 340.125C1544.47 340.462 1544.76 340.909 1544.97 341.466C1545.19 342.023 1545.3 342.708 1545.3 343.523V344.091H1538.57V342.932H1543.93C1543.93 342.439 1543.83 342 1543.64 341.614C1543.44 341.227 1543.17 340.922 1542.81 340.699C1542.45 340.475 1542.03 340.364 1541.55 340.364C1541.01 340.364 1540.55 340.496 1540.16 340.761C1539.77 341.023 1539.48 341.364 1539.27 341.784C1539.06 342.205 1538.96 342.655 1538.96 343.136V343.909C1538.96 344.568 1539.07 345.127 1539.3 345.585C1539.53 346.04 1539.85 346.386 1540.26 346.625C1540.67 346.86 1541.14 346.977 1541.68 346.977C1542.04 346.977 1542.35 346.928 1542.64 346.83C1542.93 346.727 1543.17 346.576 1543.38 346.375C1543.59 346.17 1543.75 345.917 1543.87 345.614L1545.16 345.977C1545.02 346.417 1544.79 346.803 1544.47 347.136C1544.15 347.466 1543.75 347.723 1543.28 347.909C1542.81 348.091 1542.27 348.182 1541.68 348.182ZM1548.68 342.75V348H1547.34V339.273H1548.63V340.636H1548.75C1548.95 340.193 1549.26 339.837 1549.68 339.568C1550.09 339.295 1550.63 339.159 1551.29 339.159C1551.88 339.159 1552.4 339.28 1552.84 339.523C1553.29 339.761 1553.63 340.125 1553.88 340.614C1554.12 341.098 1554.25 341.712 1554.25 342.455V348H1552.9V342.545C1552.9 341.86 1552.73 341.326 1552.37 340.943C1552.01 340.557 1551.53 340.364 1550.9 340.364C1550.48 340.364 1550.09 340.456 1549.76 340.642C1549.42 340.828 1549.16 341.098 1548.97 341.455C1548.77 341.811 1548.68 342.242 1548.68 342.75ZM1560.49 339.273V340.409H1555.97V339.273H1560.49ZM1557.29 337.182H1558.63V345.5C1558.63 345.879 1558.68 346.163 1558.79 346.352C1558.91 346.538 1559.05 346.663 1559.22 346.727C1559.4 346.788 1559.59 346.818 1559.79 346.818C1559.93 346.818 1560.06 346.811 1560.15 346.795C1560.25 346.777 1560.32 346.761 1560.38 346.75L1560.65 347.955C1560.56 347.989 1560.43 348.023 1560.27 348.057C1560.11 348.095 1559.9 348.114 1559.65 348.114C1559.27 348.114 1558.9 348.032 1558.54 347.869C1558.18 347.706 1557.88 347.458 1557.64 347.125C1557.4 346.792 1557.29 346.371 1557.29 345.864V337.182ZM1565.08 348.205C1564.52 348.205 1564.02 348.1 1563.57 347.892C1563.12 347.68 1562.76 347.375 1562.5 346.977C1562.23 346.576 1562.1 346.091 1562.1 345.523C1562.1 345.023 1562.2 344.617 1562.39 344.307C1562.59 343.992 1562.86 343.746 1563.18 343.568C1563.51 343.39 1563.88 343.258 1564.28 343.17C1564.68 343.08 1565.08 343.008 1565.49 342.955C1566.02 342.886 1566.45 342.835 1566.78 342.801C1567.11 342.763 1567.35 342.701 1567.5 342.614C1567.66 342.527 1567.74 342.375 1567.74 342.159V342.114C1567.74 341.553 1567.58 341.117 1567.28 340.807C1566.97 340.496 1566.51 340.341 1565.89 340.341C1565.25 340.341 1564.75 340.481 1564.39 340.761C1564.03 341.042 1563.77 341.341 1563.62 341.659L1562.35 341.205C1562.58 340.674 1562.88 340.261 1563.26 339.966C1563.64 339.667 1564.06 339.458 1564.51 339.341C1564.96 339.22 1565.41 339.159 1565.85 339.159C1566.13 339.159 1566.45 339.193 1566.82 339.261C1567.18 339.326 1567.54 339.46 1567.88 339.665C1568.22 339.869 1568.51 340.178 1568.74 340.591C1568.96 341.004 1569.08 341.557 1569.08 342.25V348H1567.74V346.818H1567.67C1567.58 347.008 1567.43 347.21 1567.21 347.426C1567 347.642 1566.72 347.826 1566.37 347.977C1566.01 348.129 1565.58 348.205 1565.08 348.205ZM1565.28 347C1565.81 347 1566.26 346.896 1566.62 346.688C1566.99 346.479 1567.27 346.21 1567.45 345.881C1567.64 345.551 1567.74 345.205 1567.74 344.841V343.614C1567.68 343.682 1567.55 343.744 1567.36 343.801C1567.17 343.854 1566.95 343.902 1566.7 343.943C1566.46 343.981 1566.21 344.015 1565.98 344.045C1565.75 344.072 1565.56 344.095 1565.42 344.114C1565.07 344.159 1564.74 344.233 1564.44 344.335C1564.14 344.434 1563.9 344.583 1563.71 344.784C1563.53 344.981 1563.44 345.25 1563.44 345.591C1563.44 346.057 1563.61 346.409 1563.96 346.648C1564.31 346.883 1564.75 347 1565.28 347ZM1575.32 339.273V340.409H1570.8V339.273H1575.32ZM1572.12 337.182H1573.46V345.5C1573.46 345.879 1573.51 346.163 1573.62 346.352C1573.73 346.538 1573.88 346.663 1574.05 346.727C1574.23 346.788 1574.42 346.818 1574.62 346.818C1574.76 346.818 1574.88 346.811 1574.98 346.795C1575.07 346.777 1575.15 346.761 1575.21 346.75L1575.48 347.955C1575.39 347.989 1575.26 348.023 1575.1 348.057C1574.94 348.095 1574.73 348.114 1574.48 348.114C1574.1 348.114 1573.73 348.032 1573.37 347.869C1573.01 347.706 1572.71 347.458 1572.47 347.125C1572.23 346.792 1572.12 346.371 1572.12 345.864V337.182ZM1580.79 348.182C1580 348.182 1579.31 347.994 1578.71 347.619C1578.12 347.244 1577.66 346.72 1577.33 346.045C1577 345.371 1576.83 344.583 1576.83 343.682C1576.83 342.773 1577 341.979 1577.33 341.301C1577.66 340.623 1578.12 340.097 1578.71 339.722C1579.31 339.347 1580 339.159 1580.79 339.159C1581.58 339.159 1582.27 339.347 1582.86 339.722C1583.45 340.097 1583.91 340.623 1584.24 341.301C1584.58 341.979 1584.74 342.773 1584.74 343.682C1584.74 344.583 1584.58 345.371 1584.24 346.045C1583.91 346.72 1583.45 347.244 1582.86 347.619C1582.27 347.994 1581.58 348.182 1580.79 348.182ZM1580.79 346.977C1581.39 346.977 1581.88 346.824 1582.27 346.517C1582.65 346.21 1582.94 345.807 1583.12 345.307C1583.31 344.807 1583.4 344.265 1583.4 343.682C1583.4 343.098 1583.31 342.555 1583.12 342.051C1582.94 341.547 1582.65 341.14 1582.27 340.83C1581.88 340.519 1581.39 340.364 1580.79 340.364C1580.19 340.364 1579.7 340.519 1579.31 340.83C1578.92 341.14 1578.64 341.547 1578.45 342.051C1578.27 342.555 1578.17 343.098 1578.17 343.682C1578.17 344.265 1578.27 344.807 1578.45 345.307C1578.64 345.807 1578.92 346.21 1579.31 346.517C1579.7 346.824 1580.19 346.977 1580.79 346.977ZM1588.13 342.75V348H1586.79V339.273H1588.09V340.636H1588.2C1588.4 340.193 1588.71 339.837 1589.13 339.568C1589.55 339.295 1590.09 339.159 1590.74 339.159C1591.34 339.159 1591.85 339.28 1592.3 339.523C1592.74 339.761 1593.08 340.125 1593.33 340.614C1593.58 341.098 1593.7 341.712 1593.7 342.455V348H1592.36V342.545C1592.36 341.86 1592.18 341.326 1591.82 340.943C1591.47 340.557 1590.98 340.364 1590.36 340.364C1589.93 340.364 1589.55 340.456 1589.21 340.642C1588.88 340.828 1588.61 341.098 1588.42 341.455C1588.23 341.811 1588.13 342.242 1588.13 342.75ZM1596.15 348V339.273H1597.49V348H1596.15ZM1596.83 337.818C1596.57 337.818 1596.34 337.729 1596.15 337.551C1595.97 337.373 1595.88 337.159 1595.88 336.909C1595.88 336.659 1595.97 336.445 1596.15 336.267C1596.34 336.089 1596.57 336 1596.83 336C1597.09 336 1597.32 336.089 1597.5 336.267C1597.69 336.445 1597.79 336.659 1597.79 336.909C1597.79 337.159 1597.69 337.373 1597.5 337.551C1597.32 337.729 1597.09 337.818 1596.83 337.818ZM1603.49 348.182C1602.67 348.182 1601.97 347.989 1601.38 347.602C1600.79 347.216 1600.33 346.684 1600.01 346.006C1599.7 345.328 1599.54 344.553 1599.54 343.682C1599.54 342.795 1599.7 342.013 1600.03 341.335C1600.36 340.653 1600.81 340.121 1601.4 339.739C1601.99 339.352 1602.68 339.159 1603.47 339.159C1604.08 339.159 1604.64 339.273 1605.13 339.5C1605.62 339.727 1606.02 340.045 1606.34 340.455C1606.65 340.864 1606.85 341.341 1606.92 341.886H1605.58C1605.48 341.489 1605.25 341.136 1604.9 340.83C1604.55 340.519 1604.08 340.364 1603.49 340.364C1602.97 340.364 1602.51 340.5 1602.12 340.773C1601.73 341.042 1601.42 341.422 1601.2 341.915C1600.99 342.403 1600.88 342.977 1600.88 343.636C1600.88 344.311 1600.98 344.898 1601.2 345.398C1601.41 345.898 1601.71 346.286 1602.11 346.562C1602.5 346.839 1602.96 346.977 1603.49 346.977C1603.84 346.977 1604.16 346.917 1604.44 346.795C1604.72 346.674 1604.96 346.5 1605.16 346.273C1605.36 346.045 1605.5 345.773 1605.58 345.455H1606.92C1606.85 345.97 1606.66 346.434 1606.36 346.847C1606.07 347.256 1605.67 347.581 1605.18 347.824C1604.7 348.062 1604.14 348.182 1603.49 348.182Z" fill="#CDCDCD"/>
<path d="M992.075 387H960V547.415H992.075V387Z" fill="#00E494" stroke="#CDCDCD" stroke-width="0.981132"/>
<path d="M1024.15 387H992.075V547.415H1024.15V387Z" fill="#00E494" stroke="#CDCDCD" stroke-width="0.981132"/>
<path d="M1056.23 387H1024.15V547.415H1056.23V387Z" fill="#00E494" stroke="#CDCDCD" stroke-width="0.981132"/>
<path d="M1088.3 387H1056.23V547.415H1088.3V387Z" fill="white" stroke="#CDCDCD" stroke-width="0.981132"/>
<path d="M1120.38 387H1088.3V547.415H1120.38V387Z" fill="#00E494" stroke="#CDCDCD" stroke-width="0.981132"/>
<path d="M1152.45 387H1120.38V547.415H1152.45V387Z" fill="#00E494" stroke="#CDCDCD" stroke-width="0.981132"/>
<path d="M1184.53 387H1152.45V547.415H1184.53V387Z" fill="white" stroke="#CDCDCD" stroke-width="0.981132"/>
<path d="M1216.08 387H1184V547.415H1216.08V387Z" fill="#00E494" stroke="#CDCDCD" stroke-width="0.981132"/>
<path d="M1248.15 387H1216.08V547.415H1248.15V387Z" fill="white" stroke="#CDCDCD" stroke-width="0.981132"/>
<path d="M1280.23 387H1248.15V547.415H1280.23V387Z" fill="white" stroke="#CDCDCD" stroke-width="0.981132"/>
<path d="M1224.09 387H1208.06V467.208H1224.09V387Z" fill="black" stroke="black" stroke-width="0.981132"/>
<path d="M1256.17 387H1240.13V467.208H1256.17V387Z" fill="black" stroke="black" stroke-width="0.981132"/>
<path d="M1000.09 387H984.057V467.208H1000.09V387Z" fill="black" stroke="black" stroke-width="0.981132"/>
<path d="M1032.17 387H1016.13V467.208H1032.17V387Z" fill="black" stroke="black" stroke-width="0.981132"/>
<path d="M1096.32 387H1080.28V467.208H1096.32V387Z" fill="black" stroke="black" stroke-width="0.981132"/>
<path d="M1128.4 387H1112.36V467.208H1128.4V387Z" fill="black" stroke="black" stroke-width="0.981132"/>
<path d="M1160.47 387H1144.43V467.208H1160.47V387Z" fill="black" stroke="black" stroke-width="0.981132"/>
<path d="M1053.92 336.364H1055.61L1059.56 346.023H1059.7L1063.65 336.364H1065.33V348H1064.02V339.159H1063.9L1060.27 348H1058.99L1055.36 339.159H1055.24V348H1053.92V336.364ZM1070.55 348.205C1069.99 348.205 1069.49 348.1 1069.04 347.892C1068.59 347.68 1068.23 347.375 1067.97 346.977C1067.7 346.576 1067.57 346.091 1067.57 345.523C1067.57 345.023 1067.67 344.617 1067.86 344.307C1068.06 343.992 1068.32 343.746 1068.65 343.568C1068.98 343.39 1069.35 343.258 1069.74 343.17C1070.15 343.08 1070.55 343.008 1070.95 342.955C1071.48 342.886 1071.91 342.835 1072.24 342.801C1072.58 342.763 1072.82 342.701 1072.97 342.614C1073.13 342.527 1073.2 342.375 1073.2 342.159V342.114C1073.2 341.553 1073.05 341.117 1072.74 340.807C1072.44 340.496 1071.98 340.341 1071.36 340.341C1070.72 340.341 1070.22 340.481 1069.86 340.761C1069.49 341.042 1069.24 341.341 1069.09 341.659L1067.82 341.205C1068.05 340.674 1068.35 340.261 1068.73 339.966C1069.11 339.667 1069.53 339.458 1069.98 339.341C1070.43 339.22 1070.88 339.159 1071.32 339.159C1071.6 339.159 1071.92 339.193 1072.28 339.261C1072.65 339.326 1073.01 339.46 1073.35 339.665C1073.69 339.869 1073.98 340.178 1074.2 340.591C1074.43 341.004 1074.55 341.557 1074.55 342.25V348H1073.2V346.818H1073.14C1073.05 347.008 1072.89 347.21 1072.68 347.426C1072.47 347.642 1072.19 347.826 1071.84 347.977C1071.48 348.129 1071.05 348.205 1070.55 348.205ZM1070.75 347C1071.28 347 1071.73 346.896 1072.09 346.688C1072.46 346.479 1072.73 346.21 1072.92 345.881C1073.11 345.551 1073.2 345.205 1073.2 344.841V343.614C1073.15 343.682 1073.02 343.744 1072.83 343.801C1072.64 343.854 1072.42 343.902 1072.17 343.943C1071.92 343.981 1071.68 344.015 1071.45 344.045C1071.22 344.072 1071.03 344.095 1070.89 344.114C1070.54 344.159 1070.21 344.233 1069.91 344.335C1069.61 344.434 1069.37 344.583 1069.18 344.784C1069 344.981 1068.91 345.25 1068.91 345.591C1068.91 346.057 1069.08 346.409 1069.43 346.648C1069.77 346.883 1070.22 347 1070.75 347ZM1076.99 339.273H1078.33V348.636C1078.33 349.174 1078.24 349.64 1078.06 350.034C1077.87 350.428 1077.6 350.733 1077.23 350.949C1076.86 351.165 1076.39 351.273 1075.83 351.273C1075.79 351.273 1075.74 351.273 1075.7 351.273C1075.65 351.273 1075.61 351.273 1075.56 351.273V350.023C1075.61 350.023 1075.65 350.023 1075.69 350.023C1075.72 350.023 1075.77 350.023 1075.81 350.023C1076.22 350.023 1076.52 349.902 1076.71 349.659C1076.9 349.42 1076.99 349.08 1076.99 348.636V339.273ZM1077.65 337.818C1077.39 337.818 1077.17 337.729 1076.98 337.551C1076.79 337.373 1076.7 337.159 1076.7 336.909C1076.7 336.659 1076.79 336.445 1076.98 336.267C1077.17 336.089 1077.39 336 1077.65 336C1077.91 336 1078.14 336.089 1078.32 336.267C1078.51 336.445 1078.61 336.659 1078.61 336.909C1078.61 337.159 1078.51 337.373 1078.32 337.551C1078.14 337.729 1077.91 337.818 1077.65 337.818ZM1084.34 348.182C1083.55 348.182 1082.86 347.994 1082.26 347.619C1081.67 347.244 1081.21 346.72 1080.88 346.045C1080.55 345.371 1080.38 344.583 1080.38 343.682C1080.38 342.773 1080.55 341.979 1080.88 341.301C1081.21 340.623 1081.67 340.097 1082.26 339.722C1082.86 339.347 1083.55 339.159 1084.34 339.159C1085.12 339.159 1085.81 339.347 1086.4 339.722C1087 340.097 1087.46 340.623 1087.79 341.301C1088.12 341.979 1088.29 342.773 1088.29 343.682C1088.29 344.583 1088.12 345.371 1087.79 346.045C1087.46 346.72 1087 347.244 1086.4 347.619C1085.81 347.994 1085.12 348.182 1084.34 348.182ZM1084.34 346.977C1084.93 346.977 1085.43 346.824 1085.81 346.517C1086.2 346.21 1086.48 345.807 1086.67 345.307C1086.86 344.807 1086.95 344.265 1086.95 343.682C1086.95 343.098 1086.86 342.555 1086.67 342.051C1086.48 341.547 1086.2 341.14 1085.81 340.83C1085.43 340.519 1084.93 340.364 1084.34 340.364C1083.74 340.364 1083.24 340.519 1082.86 340.83C1082.47 341.14 1082.19 341.547 1082 342.051C1081.81 342.555 1081.72 343.098 1081.72 343.682C1081.72 344.265 1081.81 344.807 1082 345.307C1082.19 345.807 1082.47 346.21 1082.86 346.517C1083.24 346.824 1083.74 346.977 1084.34 346.977ZM1090.34 348V339.273H1091.63V340.591H1091.72C1091.88 340.159 1092.17 339.809 1092.59 339.54C1093 339.271 1093.47 339.136 1094 339.136C1094.09 339.136 1094.22 339.138 1094.37 339.142C1094.51 339.146 1094.62 339.152 1094.7 339.159V340.523C1094.65 340.511 1094.55 340.494 1094.39 340.472C1094.23 340.445 1094.06 340.432 1093.88 340.432C1093.46 340.432 1093.08 340.521 1092.75 340.699C1092.42 340.873 1092.15 341.116 1091.96 341.426C1091.77 341.733 1091.68 342.083 1091.68 342.477V348H1090.34ZM1100.97 348V336.364H1104.9C1105.82 336.364 1106.56 336.528 1107.14 336.858C1107.73 337.184 1108.16 337.625 1108.44 338.182C1108.72 338.739 1108.86 339.36 1108.86 340.045C1108.86 340.731 1108.72 341.354 1108.44 341.915C1108.16 342.475 1107.73 342.922 1107.15 343.256C1106.57 343.585 1105.83 343.75 1104.93 343.75H1102.11V342.5H1104.88C1105.51 342.5 1106.01 342.392 1106.39 342.176C1106.77 341.96 1107.04 341.669 1107.21 341.301C1107.38 340.93 1107.47 340.511 1107.47 340.045C1107.47 339.58 1107.38 339.163 1107.21 338.795C1107.04 338.428 1106.76 338.14 1106.38 337.932C1106 337.72 1105.49 337.614 1104.86 337.614H1102.38V348H1100.97ZM1114.51 348.182C1113.67 348.182 1112.95 347.996 1112.34 347.625C1111.73 347.25 1111.26 346.727 1110.93 346.057C1110.61 345.383 1110.44 344.598 1110.44 343.705C1110.44 342.811 1110.61 342.023 1110.93 341.341C1111.26 340.655 1111.72 340.121 1112.31 339.739C1112.9 339.352 1113.59 339.159 1114.38 339.159C1114.83 339.159 1115.28 339.235 1115.72 339.386C1116.16 339.538 1116.57 339.784 1116.93 340.125C1117.3 340.462 1117.59 340.909 1117.8 341.466C1118.02 342.023 1118.12 342.708 1118.12 343.523V344.091H1111.4V342.932H1116.76C1116.76 342.439 1116.66 342 1116.47 341.614C1116.27 341.227 1116 340.922 1115.64 340.699C1115.28 340.475 1114.86 340.364 1114.38 340.364C1113.84 340.364 1113.38 340.496 1112.99 340.761C1112.6 341.023 1112.3 341.364 1112.1 341.784C1111.89 342.205 1111.78 342.655 1111.78 343.136V343.909C1111.78 344.568 1111.9 345.127 1112.12 345.585C1112.36 346.04 1112.68 346.386 1113.09 346.625C1113.49 346.86 1113.97 346.977 1114.51 346.977C1114.86 346.977 1115.18 346.928 1115.47 346.83C1115.75 346.727 1116 346.576 1116.21 346.375C1116.42 346.17 1116.58 345.917 1116.69 345.614L1117.99 345.977C1117.85 346.417 1117.62 346.803 1117.3 347.136C1116.98 347.466 1116.58 347.723 1116.11 347.909C1115.63 348.091 1115.1 348.182 1114.51 348.182ZM1121.51 342.75V348H1120.16V339.273H1121.46V340.636H1121.57C1121.78 340.193 1122.09 339.837 1122.51 339.568C1122.92 339.295 1123.46 339.159 1124.12 339.159C1124.71 339.159 1125.23 339.28 1125.67 339.523C1126.11 339.761 1126.46 340.125 1126.7 340.614C1126.95 341.098 1127.07 341.712 1127.07 342.455V348H1125.73V342.545C1125.73 341.86 1125.55 341.326 1125.2 340.943C1124.84 340.557 1124.35 340.364 1123.73 340.364C1123.3 340.364 1122.92 340.456 1122.59 340.642C1122.25 340.828 1121.99 341.098 1121.8 341.455C1121.6 341.811 1121.51 342.242 1121.51 342.75ZM1133.32 339.273V340.409H1128.8V339.273H1133.32ZM1130.12 337.182H1131.46V345.5C1131.46 345.879 1131.51 346.163 1131.62 346.352C1131.73 346.538 1131.88 346.663 1132.05 346.727C1132.23 346.788 1132.42 346.818 1132.62 346.818C1132.76 346.818 1132.88 346.811 1132.98 346.795C1133.07 346.777 1133.15 346.761 1133.21 346.75L1133.48 347.955C1133.39 347.989 1133.26 348.023 1133.1 348.057C1132.94 348.095 1132.73 348.114 1132.48 348.114C1132.1 348.114 1131.73 348.032 1131.37 347.869C1131.01 347.706 1130.71 347.458 1130.47 347.125C1130.23 346.792 1130.12 346.371 1130.12 345.864V337.182ZM1137.9 348.205C1137.35 348.205 1136.85 348.1 1136.4 347.892C1135.95 347.68 1135.59 347.375 1135.33 346.977C1135.06 346.576 1134.93 346.091 1134.93 345.523C1134.93 345.023 1135.03 344.617 1135.22 344.307C1135.42 343.992 1135.68 343.746 1136.01 343.568C1136.34 343.39 1136.71 343.258 1137.1 343.17C1137.51 343.08 1137.91 343.008 1138.31 342.955C1138.84 342.886 1139.27 342.835 1139.6 342.801C1139.94 342.763 1140.18 342.701 1140.33 342.614C1140.49 342.527 1140.56 342.375 1140.56 342.159V342.114C1140.56 341.553 1140.41 341.117 1140.1 340.807C1139.8 340.496 1139.34 340.341 1138.72 340.341C1138.08 340.341 1137.58 340.481 1137.22 340.761C1136.85 341.042 1136.6 341.341 1136.45 341.659L1135.18 341.205C1135.4 340.674 1135.71 340.261 1136.09 339.966C1136.47 339.667 1136.89 339.458 1137.34 339.341C1137.79 339.22 1138.24 339.159 1138.68 339.159C1138.96 339.159 1139.28 339.193 1139.64 339.261C1140.01 339.326 1140.37 339.46 1140.71 339.665C1141.05 339.869 1141.34 340.178 1141.56 340.591C1141.79 341.004 1141.9 341.557 1141.9 342.25V348H1140.56V346.818H1140.5C1140.4 347.008 1140.25 347.21 1140.04 347.426C1139.83 347.642 1139.55 347.826 1139.19 347.977C1138.84 348.129 1138.41 348.205 1137.9 348.205ZM1138.11 347C1138.64 347 1139.09 346.896 1139.45 346.688C1139.82 346.479 1140.09 346.21 1140.28 345.881C1140.47 345.551 1140.56 345.205 1140.56 344.841V343.614C1140.51 343.682 1140.38 343.744 1140.19 343.801C1140 343.854 1139.78 343.902 1139.53 343.943C1139.28 343.981 1139.04 344.015 1138.81 344.045C1138.58 344.072 1138.39 344.095 1138.25 344.114C1137.9 344.159 1137.57 344.233 1137.27 344.335C1136.97 344.434 1136.73 344.583 1136.54 344.784C1136.36 344.981 1136.27 345.25 1136.27 345.591C1136.27 346.057 1136.44 346.409 1136.79 346.648C1137.13 346.883 1137.58 347 1138.11 347ZM1148.15 339.273V340.409H1143.62V339.273H1148.15ZM1144.94 337.182H1146.28V345.5C1146.28 345.879 1146.34 346.163 1146.45 346.352C1146.56 346.538 1146.71 346.663 1146.88 346.727C1147.06 346.788 1147.25 346.818 1147.44 346.818C1147.59 346.818 1147.71 346.811 1147.81 346.795C1147.9 346.777 1147.98 346.761 1148.03 346.75L1148.31 347.955C1148.22 347.989 1148.09 348.023 1147.93 348.057C1147.76 348.095 1147.56 348.114 1147.31 348.114C1146.93 348.114 1146.56 348.032 1146.19 347.869C1145.83 347.706 1145.53 347.458 1145.3 347.125C1145.06 346.792 1144.94 346.371 1144.94 345.864V337.182ZM1153.62 348.182C1152.83 348.182 1152.14 347.994 1151.54 347.619C1150.95 347.244 1150.49 346.72 1150.16 346.045C1149.83 345.371 1149.66 344.583 1149.66 343.682C1149.66 342.773 1149.83 341.979 1150.16 341.301C1150.49 340.623 1150.95 340.097 1151.54 339.722C1152.14 339.347 1152.83 339.159 1153.62 339.159C1154.4 339.159 1155.09 339.347 1155.68 339.722C1156.28 340.097 1156.74 340.623 1157.07 341.301C1157.4 341.979 1157.57 342.773 1157.57 343.682C1157.57 344.583 1157.4 345.371 1157.07 346.045C1156.74 346.72 1156.28 347.244 1155.68 347.619C1155.09 347.994 1154.4 348.182 1153.62 348.182ZM1153.62 346.977C1154.21 346.977 1154.71 346.824 1155.09 346.517C1155.48 346.21 1155.77 345.807 1155.95 345.307C1156.14 344.807 1156.23 344.265 1156.23 343.682C1156.23 343.098 1156.14 342.555 1155.95 342.051C1155.77 341.547 1155.48 341.14 1155.09 340.83C1154.71 340.519 1154.21 340.364 1153.62 340.364C1153.02 340.364 1152.53 340.519 1152.14 340.83C1151.75 341.14 1151.47 341.547 1151.28 342.051C1151.1 342.555 1151 343.098 1151 343.682C1151 344.265 1151.1 344.807 1151.28 345.307C1151.47 345.807 1151.75 346.21 1152.14 346.517C1152.53 346.824 1153.02 346.977 1153.62 346.977ZM1160.96 342.75V348H1159.62V339.273H1160.91V340.636H1161.03C1161.23 340.193 1161.54 339.837 1161.96 339.568C1162.38 339.295 1162.91 339.159 1163.57 339.159C1164.16 339.159 1164.68 339.28 1165.12 339.523C1165.57 339.761 1165.91 340.125 1166.16 340.614C1166.4 341.098 1166.53 341.712 1166.53 342.455V348H1165.19V342.545C1165.19 341.86 1165.01 341.326 1164.65 340.943C1164.3 340.557 1163.81 340.364 1163.19 340.364C1162.76 340.364 1162.38 340.456 1162.04 340.642C1161.71 340.828 1161.44 341.098 1161.25 341.455C1161.06 341.811 1160.96 342.242 1160.96 342.75ZM1168.98 348V339.273H1170.32V348H1168.98ZM1169.66 337.818C1169.4 337.818 1169.17 337.729 1168.98 337.551C1168.8 337.373 1168.7 337.159 1168.7 336.909C1168.7 336.659 1168.8 336.445 1168.98 336.267C1169.17 336.089 1169.4 336 1169.66 336C1169.92 336 1170.14 336.089 1170.33 336.267C1170.52 336.445 1170.61 336.659 1170.61 336.909C1170.61 337.159 1170.52 337.373 1170.33 337.551C1170.14 337.729 1169.92 337.818 1169.66 337.818ZM1176.32 348.182C1175.5 348.182 1174.8 347.989 1174.21 347.602C1173.62 347.216 1173.16 346.684 1172.84 346.006C1172.52 345.328 1172.37 344.553 1172.37 343.682C1172.37 342.795 1172.53 342.013 1172.85 341.335C1173.18 340.653 1173.64 340.121 1174.23 339.739C1174.82 339.352 1175.51 339.159 1176.3 339.159C1176.91 339.159 1177.46 339.273 1177.96 339.5C1178.45 339.727 1178.85 340.045 1179.17 340.455C1179.48 340.864 1179.68 341.341 1179.75 341.886H1178.41C1178.31 341.489 1178.08 341.136 1177.73 340.83C1177.38 340.519 1176.91 340.364 1176.32 340.364C1175.8 340.364 1175.34 340.5 1174.94 340.773C1174.55 341.042 1174.25 341.422 1174.03 341.915C1173.81 342.403 1173.71 342.977 1173.71 343.636C1173.71 344.311 1173.81 344.898 1174.02 345.398C1174.24 345.898 1174.54 346.286 1174.93 346.562C1175.33 346.839 1175.79 346.977 1176.32 346.977C1176.67 346.977 1176.98 346.917 1177.27 346.795C1177.55 346.674 1177.79 346.5 1177.99 346.273C1178.19 346.045 1178.33 345.773 1178.41 345.455H1179.75C1179.68 345.97 1179.49 346.434 1179.19 346.847C1178.89 347.256 1178.5 347.581 1178.01 347.824C1177.53 348.062 1176.96 348.182 1176.32 348.182Z" fill="#CDCDCD"/>
<path d="M552.075 387H520V547.415H552.075V387Z" fill="#00E494" stroke="#CDCDCD" stroke-width="0.981132"/>
<path d="M584.151 387H552.075V547.415H584.151V387Z" fill="white" stroke="#CDCDCD" stroke-width="0.981132"/>
<path d="M616.226 387H584.151V547.415H616.226V387Z" fill="white" stroke="#CDCDCD" stroke-width="0.981132"/>
<path d="M648.302 387H616.227V547.415H648.302V387Z" fill="#00E494" stroke="#CDCDCD" stroke-width="0.981132"/>
<path d="M680.377 387H648.302V547.415H680.377V387Z" fill="#00E494" stroke="#CDCDCD" stroke-width="0.981132"/>
<path d="M712.453 387H680.377V547.415H712.453V387Z" fill="white" stroke="#CDCDCD" stroke-width="0.981132"/>
<path d="M744.529 387H712.453V547.415H744.529V387Z" fill="white" stroke="#CDCDCD" stroke-width="0.981132"/>
<path d="M776.075 387H744V547.415H776.075V387Z" fill="#00E494" stroke="#CDCDCD" stroke-width="0.981132"/>
<path d="M808.151 387H776.076V547.415H808.151V387Z" fill="white" stroke="#CDCDCD" stroke-width="0.981132"/>
<path d="M840.227 387H808.151V547.415H840.227V387Z" fill="white" stroke="#CDCDCD" stroke-width="0.981132"/>
<path d="M784.094 387H768.057V467.208H784.094V387Z" fill="black" stroke="black" stroke-width="0.981132"/>
<path d="M816.17 387H800.132V467.208H816.17V387Z" fill="black" stroke="black" stroke-width="0.981132"/>
<path d="M560.094 387H544.057V467.208H560.094V387Z" fill="black" stroke="black" stroke-width="0.981132"/>
<path d="M592.17 387H576.132V467.208H592.17V387Z" fill="#00E494" stroke="#00E494" stroke-width="0.981132"/>
<path d="M656.321 387H640.283V467.208H656.321V387Z" fill="#00E494" stroke="#CDCDCD" stroke-width="0.981132"/>
<path d="M688.396 387H672.358V467.208H688.396V387Z" fill="black" stroke="black" stroke-width="0.981132"/>
<path d="M720.472 387H704.434V467.208H720.472V387Z" fill="#00E494" stroke="#00E494" stroke-width="0.981132"/>
<path d="M637.628 336.364H639.31L643.264 346.023H643.401L647.355 336.364H649.037V348H647.719V339.159H647.605L643.969 348H642.696L639.06 339.159H638.946V348H637.628V336.364ZM651.68 348V339.273H653.021V348H651.68ZM652.362 337.818C652.101 337.818 651.875 337.729 651.686 337.551C651.5 337.373 651.408 337.159 651.408 336.909C651.408 336.659 651.5 336.445 651.686 336.267C651.875 336.089 652.101 336 652.362 336C652.624 336 652.847 336.089 653.033 336.267C653.222 336.445 653.317 336.659 653.317 336.909C653.317 337.159 653.222 337.373 653.033 337.551C652.847 337.729 652.624 337.818 652.362 337.818ZM656.818 342.75V348H655.477V339.273H656.773V340.636H656.886C657.091 340.193 657.402 339.837 657.818 339.568C658.235 339.295 658.773 339.159 659.432 339.159C660.023 339.159 660.54 339.28 660.983 339.523C661.426 339.761 661.771 340.125 662.017 340.614C662.263 341.098 662.386 341.712 662.386 342.455V348H661.045V342.545C661.045 341.86 660.867 341.326 660.511 340.943C660.155 340.557 659.667 340.364 659.045 340.364C658.617 340.364 658.235 340.456 657.898 340.642C657.564 340.828 657.301 341.098 657.108 341.455C656.915 341.811 656.818 342.242 656.818 342.75ZM668.382 348.182C667.594 348.182 666.903 347.994 666.308 347.619C665.717 347.244 665.255 346.72 664.922 346.045C664.592 345.371 664.428 344.583 664.428 343.682C664.428 342.773 664.592 341.979 664.922 341.301C665.255 340.623 665.717 340.097 666.308 339.722C666.903 339.347 667.594 339.159 668.382 339.159C669.17 339.159 669.859 339.347 670.45 339.722C671.045 340.097 671.507 340.623 671.837 341.301C672.17 341.979 672.337 342.773 672.337 343.682C672.337 344.583 672.17 345.371 671.837 346.045C671.507 346.72 671.045 347.244 670.45 347.619C669.859 347.994 669.17 348.182 668.382 348.182ZM668.382 346.977C668.981 346.977 669.473 346.824 669.859 346.517C670.246 346.21 670.532 345.807 670.717 345.307C670.903 344.807 670.996 344.265 670.996 343.682C670.996 343.098 670.903 342.555 670.717 342.051C670.532 341.547 670.246 341.14 669.859 340.83C669.473 340.519 668.981 340.364 668.382 340.364C667.784 340.364 667.291 340.519 666.905 340.83C666.518 341.14 666.232 341.547 666.047 342.051C665.861 342.555 665.768 343.098 665.768 343.682C665.768 344.265 665.861 344.807 666.047 345.307C666.232 345.807 666.518 346.21 666.905 346.517C667.291 346.824 667.784 346.977 668.382 346.977ZM674.384 348V339.273H675.679V340.591H675.77C675.929 340.159 676.217 339.809 676.634 339.54C677.05 339.271 677.52 339.136 678.043 339.136C678.141 339.136 678.264 339.138 678.412 339.142C678.56 339.146 678.671 339.152 678.747 339.159V340.523C678.702 340.511 678.598 340.494 678.435 340.472C678.276 340.445 678.107 340.432 677.929 340.432C677.505 340.432 677.126 340.521 676.793 340.699C676.463 340.873 676.202 341.116 676.009 341.426C675.819 341.733 675.724 342.083 675.724 342.477V348H674.384ZM685.018 348V336.364H689.087C689.897 336.364 690.566 336.504 691.092 336.784C691.619 337.061 692.011 337.434 692.268 337.903C692.526 338.369 692.655 338.886 692.655 339.455C692.655 339.955 692.566 340.367 692.388 340.693C692.214 341.019 691.982 341.277 691.695 341.466C691.411 341.655 691.102 341.795 690.768 341.886V342C691.125 342.023 691.482 342.148 691.842 342.375C692.202 342.602 692.503 342.928 692.746 343.352C692.988 343.777 693.109 344.295 693.109 344.909C693.109 345.492 692.977 346.017 692.712 346.483C692.446 346.949 692.028 347.318 691.456 347.591C690.884 347.864 690.14 348 689.223 348H685.018ZM686.428 346.75H689.223C690.143 346.75 690.797 346.572 691.183 346.216C691.573 345.856 691.768 345.42 691.768 344.909C691.768 344.515 691.668 344.152 691.467 343.818C691.267 343.481 690.981 343.212 690.609 343.011C690.238 342.807 689.799 342.705 689.291 342.705H686.428V346.75ZM686.428 341.477H689.041C689.465 341.477 689.848 341.394 690.189 341.227C690.534 341.061 690.806 340.826 691.007 340.523C691.212 340.22 691.314 339.864 691.314 339.455C691.314 338.943 691.136 338.509 690.78 338.153C690.424 337.794 689.859 337.614 689.087 337.614H686.428V341.477ZM696.584 336.364V348H695.243V336.364H696.584ZM704.54 344.432V339.273H705.881V348H704.54V346.523H704.449C704.244 346.966 703.926 347.343 703.494 347.653C703.063 347.96 702.517 348.114 701.858 348.114C701.312 348.114 700.828 347.994 700.403 347.756C699.979 347.513 699.646 347.15 699.403 346.665C699.161 346.176 699.04 345.561 699.04 344.818V339.273H700.381V344.727C700.381 345.364 700.559 345.871 700.915 346.25C701.275 346.629 701.733 346.818 702.29 346.818C702.623 346.818 702.962 346.733 703.307 346.562C703.655 346.392 703.947 346.131 704.182 345.778C704.42 345.426 704.54 344.977 704.54 344.432ZM711.996 348.182C711.155 348.182 710.429 347.996 709.82 347.625C709.214 347.25 708.746 346.727 708.416 346.057C708.09 345.383 707.928 344.598 707.928 343.705C707.928 342.811 708.09 342.023 708.416 341.341C708.746 340.655 709.204 340.121 709.791 339.739C710.382 339.352 711.071 339.159 711.859 339.159C712.314 339.159 712.763 339.235 713.206 339.386C713.649 339.538 714.053 339.784 714.416 340.125C714.78 340.462 715.07 340.909 715.286 341.466C715.501 342.023 715.609 342.708 715.609 343.523V344.091H708.882V342.932H714.246C714.246 342.439 714.147 342 713.95 341.614C713.757 341.227 713.481 340.922 713.121 340.699C712.765 340.475 712.344 340.364 711.859 340.364C711.325 340.364 710.863 340.496 710.473 340.761C710.087 341.023 709.789 341.364 709.581 341.784C709.373 342.205 709.268 342.655 709.268 343.136V343.909C709.268 344.568 709.382 345.127 709.609 345.585C709.84 346.04 710.161 346.386 710.57 346.625C710.979 346.86 711.454 346.977 711.996 346.977C712.348 346.977 712.666 346.928 712.95 346.83C713.238 346.727 713.486 346.576 713.695 346.375C713.903 346.17 714.064 345.917 714.178 345.614L715.473 345.977C715.337 346.417 715.107 346.803 714.786 347.136C714.464 347.466 714.066 347.723 713.592 347.909C713.119 348.091 712.587 348.182 711.996 348.182ZM723.831 341.227L722.626 341.568C722.551 341.367 722.439 341.172 722.291 340.983C722.147 340.79 721.95 340.631 721.7 340.506C721.45 340.381 721.13 340.318 720.74 340.318C720.206 340.318 719.761 340.441 719.405 340.688C719.053 340.93 718.876 341.239 718.876 341.614C718.876 341.947 718.998 342.21 719.24 342.403C719.482 342.597 719.861 342.758 720.376 342.886L721.672 343.205C722.452 343.394 723.034 343.684 723.416 344.074C723.799 344.46 723.99 344.958 723.99 345.568C723.99 346.068 723.846 346.515 723.558 346.909C723.274 347.303 722.876 347.614 722.365 347.841C721.854 348.068 721.259 348.182 720.581 348.182C719.691 348.182 718.954 347.989 718.371 347.602C717.787 347.216 717.418 346.652 717.263 345.909L718.536 345.591C718.657 346.061 718.886 346.413 719.223 346.648C719.564 346.883 720.009 347 720.558 347C721.183 347 721.679 346.867 722.047 346.602C722.418 346.333 722.604 346.011 722.604 345.636C722.604 345.333 722.498 345.08 722.286 344.875C722.073 344.667 721.748 344.511 721.308 344.409L719.854 344.068C719.054 343.879 718.467 343.585 718.092 343.188C717.721 342.786 717.536 342.284 717.536 341.682C717.536 341.189 717.674 340.754 717.95 340.375C718.231 339.996 718.611 339.699 719.092 339.483C719.577 339.267 720.126 339.159 720.74 339.159C721.604 339.159 722.282 339.348 722.774 339.727C723.27 340.106 723.623 340.606 723.831 341.227Z" fill="#CDCDCD"/>
<path d="M113.075 387H81V547.415H113.075V387Z" fill="#00E494" stroke="#CDCDCD" stroke-width="0.981132"/>
<path d="M145.151 387H113.076V547.415H145.151V387Z" fill="#00E494" stroke="#CDCDCD" stroke-width="0.981132"/>
<path d="M177.226 387H145.151V547.415H177.226V387Z" fill="#00E494" stroke="#CDCDCD" stroke-width="0.981132"/>
<path d="M209.302 387H177.227V547.415H209.302V387Z" fill="white" stroke="#CDCDCD" stroke-width="0.981132"/>
<path d="M241.377 387H209.302V547.415H241.377V387Z" fill="#00E494" stroke="#CDCDCD" stroke-width="0.981132"/>
<path d="M273.453 387H241.377V547.415H273.453V387Z" fill="#00E494" stroke="#CDCDCD" stroke-width="0.981132"/>
<path d="M305.529 387H273.453V547.415H305.529V387Z" fill="white" stroke="#CDCDCD" stroke-width="0.981132"/>
<path d="M337.075 387H305V547.415H337.075V387Z" fill="#00E494" stroke="#CDCDCD" stroke-width="0.981132"/>
<path d="M369.151 387H337.076V547.415H369.151V387Z" fill="#00E494" stroke="#CDCDCD" stroke-width="0.981132"/>
<path d="M401.227 387H369.151V547.415H401.227V387Z" fill="white" stroke="#CDCDCD" stroke-width="0.981132"/>
<path d="M345.094 387H329.057V467.208H345.094V387Z" fill="black" stroke="black" stroke-width="0.981132"/>
<path d="M377.17 387H361.132V467.208H377.17V387Z" fill="#00E494" stroke="#CDCDCD" stroke-width="0.981132"/>
<path d="M121.094 387H105.057V467.208H121.094V387Z" fill="black" stroke="black" stroke-width="0.981132"/>
<path d="M153.17 387H137.132V467.208H153.17V387Z" fill="#00E494" stroke="#CDCDCD" stroke-width="0.981132"/>
<path d="M217.321 387H201.283V467.208H217.321V387Z" fill="black" stroke="black" stroke-width="0.981132"/>
<path d="M249.396 387H233.358V467.208H249.396V387Z" fill="black" stroke="black" stroke-width="0.981132"/>
<path d="M281.472 387H265.434V467.208H281.472V387Z" fill="black" stroke="black" stroke-width="0.981132"/>
<path d="M198.8 336.364H200.482L204.436 346.023H204.572L208.527 336.364H210.209V348H208.891V339.159H208.777L205.141 348H203.868L200.232 339.159H200.118V348H198.8V336.364ZM215.42 348.205C214.867 348.205 214.366 348.1 213.915 347.892C213.464 347.68 213.106 347.375 212.841 346.977C212.576 346.576 212.443 346.091 212.443 345.523C212.443 345.023 212.542 344.617 212.739 344.307C212.936 343.992 213.199 343.746 213.528 343.568C213.858 343.39 214.222 343.258 214.619 343.17C215.021 343.08 215.424 343.008 215.83 342.955C216.36 342.886 216.79 342.835 217.119 342.801C217.453 342.763 217.695 342.701 217.847 342.614C218.002 342.527 218.08 342.375 218.08 342.159V342.114C218.08 341.553 217.926 341.117 217.619 340.807C217.316 340.496 216.856 340.341 216.239 340.341C215.598 340.341 215.097 340.481 214.733 340.761C214.369 341.042 214.114 341.341 213.966 341.659L212.693 341.205C212.92 340.674 213.223 340.261 213.602 339.966C213.985 339.667 214.402 339.458 214.852 339.341C215.307 339.22 215.754 339.159 216.193 339.159C216.473 339.159 216.795 339.193 217.159 339.261C217.527 339.326 217.881 339.46 218.222 339.665C218.566 339.869 218.852 340.178 219.08 340.591C219.307 341.004 219.42 341.557 219.42 342.25V348H218.08V346.818H218.011C217.92 347.008 217.769 347.21 217.557 347.426C217.345 347.642 217.063 347.826 216.71 347.977C216.358 348.129 215.928 348.205 215.42 348.205ZM215.625 347C216.155 347 216.602 346.896 216.966 346.688C217.333 346.479 217.61 346.21 217.795 345.881C217.985 345.551 218.08 345.205 218.08 344.841V343.614C218.023 343.682 217.898 343.744 217.705 343.801C217.515 343.854 217.295 343.902 217.045 343.943C216.799 343.981 216.559 344.015 216.324 344.045C216.093 344.072 215.905 344.095 215.761 344.114C215.413 344.159 215.087 344.233 214.784 344.335C214.485 344.434 214.242 344.583 214.057 344.784C213.875 344.981 213.784 345.25 213.784 345.591C213.784 346.057 213.956 346.409 214.301 346.648C214.65 346.883 215.091 347 215.625 347ZM221.868 339.273H223.209V348.636C223.209 349.174 223.116 349.64 222.93 350.034C222.749 350.428 222.472 350.733 222.101 350.949C221.733 351.165 221.269 351.273 220.709 351.273C220.663 351.273 220.618 351.273 220.572 351.273C220.527 351.273 220.482 351.273 220.436 351.273V350.023C220.482 350.023 220.523 350.023 220.561 350.023C220.599 350.023 220.641 350.023 220.686 350.023C221.095 350.023 221.394 349.902 221.584 349.659C221.773 349.42 221.868 349.08 221.868 348.636V339.273ZM222.527 337.818C222.266 337.818 222.04 337.729 221.851 337.551C221.665 337.373 221.572 337.159 221.572 336.909C221.572 336.659 221.665 336.445 221.851 336.267C222.04 336.089 222.266 336 222.527 336C222.788 336 223.012 336.089 223.197 336.267C223.387 336.445 223.482 336.659 223.482 336.909C223.482 337.159 223.387 337.373 223.197 337.551C223.012 337.729 222.788 337.818 222.527 337.818ZM229.21 348.182C228.422 348.182 227.731 347.994 227.136 347.619C226.545 347.244 226.083 346.72 225.75 346.045C225.42 345.371 225.256 344.583 225.256 343.682C225.256 342.773 225.42 341.979 225.75 341.301C226.083 340.623 226.545 340.097 227.136 339.722C227.731 339.347 228.422 339.159 229.21 339.159C229.998 339.159 230.688 339.347 231.278 339.722C231.873 340.097 232.335 340.623 232.665 341.301C232.998 341.979 233.165 342.773 233.165 343.682C233.165 344.583 232.998 345.371 232.665 346.045C232.335 346.72 231.873 347.244 231.278 347.619C230.688 347.994 229.998 348.182 229.21 348.182ZM229.21 346.977C229.809 346.977 230.301 346.824 230.688 346.517C231.074 346.21 231.36 345.807 231.545 345.307C231.731 344.807 231.824 344.265 231.824 343.682C231.824 343.098 231.731 342.555 231.545 342.051C231.36 341.547 231.074 341.14 230.688 340.83C230.301 340.519 229.809 340.364 229.21 340.364C228.612 340.364 228.119 340.519 227.733 340.83C227.347 341.14 227.061 341.547 226.875 342.051C226.689 342.555 226.597 343.098 226.597 343.682C226.597 344.265 226.689 344.807 226.875 345.307C227.061 345.807 227.347 346.21 227.733 346.517C228.119 346.824 228.612 346.977 229.21 346.977ZM235.212 348V339.273H236.507V340.591H236.598C236.757 340.159 237.045 339.809 237.462 339.54C237.878 339.271 238.348 339.136 238.871 339.136C238.969 339.136 239.092 339.138 239.24 339.142C239.388 339.146 239.5 339.152 239.575 339.159V340.523C239.53 340.511 239.426 340.494 239.263 340.472C239.104 340.445 238.935 340.432 238.757 340.432C238.333 340.432 237.954 340.521 237.621 340.699C237.291 340.873 237.03 341.116 236.837 341.426C236.647 341.733 236.553 342.083 236.553 342.477V348H235.212ZM245.847 348V336.364H249.915C250.725 336.364 251.394 336.504 251.92 336.784C252.447 337.061 252.839 337.434 253.097 337.903C253.354 338.369 253.483 338.886 253.483 339.455C253.483 339.955 253.394 340.367 253.216 340.693C253.042 341.019 252.811 341.277 252.523 341.466C252.239 341.655 251.93 341.795 251.597 341.886V342C251.953 342.023 252.311 342.148 252.67 342.375C253.03 342.602 253.331 342.928 253.574 343.352C253.816 343.777 253.938 344.295 253.938 344.909C253.938 345.492 253.805 346.017 253.54 346.483C253.275 346.949 252.856 347.318 252.284 347.591C251.712 347.864 250.968 348 250.051 348H245.847ZM247.256 346.75H250.051C250.972 346.75 251.625 346.572 252.011 346.216C252.402 345.856 252.597 345.42 252.597 344.909C252.597 344.515 252.496 344.152 252.295 343.818C252.095 343.481 251.809 343.212 251.438 343.011C251.066 342.807 250.627 342.705 250.119 342.705H247.256V346.75ZM247.256 341.477H249.869C250.294 341.477 250.676 341.394 251.017 341.227C251.362 341.061 251.634 340.826 251.835 340.523C252.04 340.22 252.142 339.864 252.142 339.455C252.142 338.943 251.964 338.509 251.608 338.153C251.252 337.794 250.688 337.614 249.915 337.614H247.256V341.477ZM257.412 336.364V348H256.071V336.364H257.412ZM265.368 344.432V339.273H266.709V348H265.368V346.523H265.277C265.072 346.966 264.754 347.343 264.322 347.653C263.891 347.96 263.345 348.114 262.686 348.114C262.141 348.114 261.656 347.994 261.232 347.756C260.807 347.513 260.474 347.15 260.232 346.665C259.989 346.176 259.868 345.561 259.868 344.818V339.273H261.209V344.727C261.209 345.364 261.387 345.871 261.743 346.25C262.103 346.629 262.561 346.818 263.118 346.818C263.451 346.818 263.79 346.733 264.135 346.562C264.483 346.392 264.775 346.131 265.01 345.778C265.249 345.426 265.368 344.977 265.368 344.432ZM272.824 348.182C271.983 348.182 271.258 347.996 270.648 347.625C270.042 347.25 269.574 346.727 269.244 346.057C268.919 345.383 268.756 344.598 268.756 343.705C268.756 342.811 268.919 342.023 269.244 341.341C269.574 340.655 270.032 340.121 270.619 339.739C271.21 339.352 271.9 339.159 272.688 339.159C273.142 339.159 273.591 339.235 274.034 339.386C274.477 339.538 274.881 339.784 275.244 340.125C275.608 340.462 275.898 340.909 276.114 341.466C276.33 342.023 276.438 342.708 276.438 343.523V344.091H269.71V342.932H275.074C275.074 342.439 274.975 342 274.778 341.614C274.585 341.227 274.309 340.922 273.949 340.699C273.593 340.475 273.172 340.364 272.688 340.364C272.153 340.364 271.691 340.496 271.301 340.761C270.915 341.023 270.617 341.364 270.409 341.784C270.201 342.205 270.097 342.655 270.097 343.136V343.909C270.097 344.568 270.21 345.127 270.438 345.585C270.669 346.04 270.989 346.386 271.398 346.625C271.807 346.86 272.282 346.977 272.824 346.977C273.176 346.977 273.494 346.928 273.778 346.83C274.066 346.727 274.314 346.576 274.523 346.375C274.731 346.17 274.892 345.917 275.006 345.614L276.301 345.977C276.165 346.417 275.936 346.803 275.614 347.136C275.292 347.466 274.894 347.723 274.42 347.909C273.947 348.091 273.415 348.182 272.824 348.182ZM284.659 341.227L283.455 341.568C283.379 341.367 283.267 341.172 283.119 340.983C282.975 340.79 282.778 340.631 282.528 340.506C282.278 340.381 281.958 340.318 281.568 340.318C281.034 340.318 280.589 340.441 280.233 340.688C279.881 340.93 279.705 341.239 279.705 341.614C279.705 341.947 279.826 342.21 280.068 342.403C280.311 342.597 280.689 342.758 281.205 342.886L282.5 343.205C283.28 343.394 283.862 343.684 284.244 344.074C284.627 344.46 284.818 344.958 284.818 345.568C284.818 346.068 284.674 346.515 284.386 346.909C284.102 347.303 283.705 347.614 283.193 347.841C282.682 348.068 282.087 348.182 281.409 348.182C280.519 348.182 279.782 347.989 279.199 347.602C278.616 347.216 278.246 346.652 278.091 345.909L279.364 345.591C279.485 346.061 279.714 346.413 280.051 346.648C280.392 346.883 280.837 347 281.386 347C282.011 347 282.508 346.867 282.875 346.602C283.246 346.333 283.432 346.011 283.432 345.636C283.432 345.333 283.326 345.08 283.114 344.875C282.902 344.667 282.576 344.511 282.136 344.409L280.682 344.068C279.883 343.879 279.295 343.585 278.92 343.188C278.549 342.786 278.364 342.284 278.364 341.682C278.364 341.189 278.502 340.754 278.778 340.375C279.059 339.996 279.439 339.699 279.92 339.483C280.405 339.267 280.955 339.159 281.568 339.159C282.432 339.159 283.11 339.348 283.602 339.727C284.098 340.106 284.451 340.606 284.659 341.227Z" fill="#CDCDCD"/>
<path d="M1431.08 106.251H1399V266.666H1431.08V106.251Z" fill="#00E494" stroke="#CDCDCD" stroke-width="0.981132"/>
<path d="M1463.15 106.251H1431.08V266.666H1463.15V106.251Z" fill="#00E494" stroke="#CDCDCD" stroke-width="0.981132"/>
<path d="M1495.23 106.251H1463.15V266.666H1495.23V106.251Z" fill="white" stroke="#CDCDCD" stroke-width="0.981132"/>
<path d="M1527.3 106.251H1495.23V266.666H1527.3V106.251Z" fill="#00E494" stroke="#CDCDCD" stroke-width="0.981132"/>
<path d="M1559.38 106.251H1527.3V266.666H1559.38V106.251Z" fill="#00E494" stroke="#CDCDCD" stroke-width="0.981132"/>
<path d="M1591.45 106.251H1559.38V266.666H1591.45V106.251Z" fill="white" stroke="#CDCDCD" stroke-width="0.981132"/>
<path d="M1623.53 106.251H1591.45V266.666H1623.53V106.251Z" fill="#00E494" stroke="#CDCDCD" stroke-width="0.981132"/>
<path d="M1655.08 106.251H1623V266.666H1655.08V106.251Z" fill="#00E494" stroke="#CDCDCD" stroke-width="0.981132"/>
<path d="M1687.15 106.251H1655.08V266.666H1687.15V106.251Z" fill="white" stroke="#CDCDCD" stroke-width="0.981132"/>
<path d="M1719.23 106.251H1687.15V266.666H1719.23V106.251Z" fill="white" stroke="#CDCDCD" stroke-width="0.981132"/>
<path d="M1663.09 106.251H1647.06V186.459H1663.09V106.251Z" fill="black" stroke="black" stroke-width="0.981132"/>
<path d="M1695.17 106.251H1679.13V186.459H1695.17V106.251Z" fill="black" stroke="black" stroke-width="0.981132"/>
<path d="M1439.09 106.251H1423.06V186.459H1439.09V106.251Z" fill="black" stroke="black" stroke-width="0.981132"/>
<path d="M1471.17 106.251H1455.13V186.459H1471.17V106.251Z" fill="#00E494" stroke="#CDCDCD" stroke-width="0.981132"/>
<path d="M1535.32 106.251H1519.28V186.459H1535.32V106.251Z" fill="black" stroke="black" stroke-width="0.981132"/>
<path d="M1567.4 106.251H1551.36V186.459H1567.4V106.251Z" fill="#00E494" stroke="#CDCDCD" stroke-width="0.981132"/>
<path d="M1599.47 106.251H1583.43V186.459H1599.47V106.251Z" fill="black" stroke="black" stroke-width="0.981132"/>
<path d="M1485.03 67V55.3636H1486.44V60.5455H1492.65V55.3636H1494.06V67H1492.65V61.7955H1486.44V67H1485.03ZM1499.26 67.2045C1498.71 67.2045 1498.21 67.1004 1497.76 66.892C1497.31 66.6799 1496.95 66.375 1496.68 65.9773C1496.42 65.5758 1496.29 65.0909 1496.29 64.5227C1496.29 64.0227 1496.39 63.6174 1496.58 63.3068C1496.78 62.9924 1497.04 62.7462 1497.37 62.5682C1497.7 62.3902 1498.07 62.2576 1498.46 62.1705C1498.86 62.0795 1499.27 62.0076 1499.67 61.9545C1500.2 61.8864 1500.63 61.8352 1500.96 61.8011C1501.3 61.7633 1501.54 61.7008 1501.69 61.6136C1501.85 61.5265 1501.92 61.375 1501.92 61.1591V61.1136C1501.92 60.553 1501.77 60.1174 1501.46 59.8068C1501.16 59.4962 1500.7 59.3409 1500.08 59.3409C1499.44 59.3409 1498.94 59.4811 1498.58 59.7614C1498.21 60.0417 1497.96 60.3409 1497.81 60.6591L1496.54 60.2045C1496.76 59.6742 1497.07 59.2614 1497.45 58.9659C1497.83 58.6667 1498.25 58.4583 1498.7 58.3409C1499.15 58.2197 1499.6 58.1591 1500.04 58.1591C1500.32 58.1591 1500.64 58.1932 1501 58.2614C1501.37 58.3258 1501.72 58.4602 1502.07 58.6648C1502.41 58.8693 1502.7 59.178 1502.92 59.5909C1503.15 60.0038 1503.26 60.5568 1503.26 61.25V67H1501.92V65.8182H1501.86C1501.76 66.0076 1501.61 66.2102 1501.4 66.4261C1501.19 66.642 1500.91 66.8258 1500.55 66.9773C1500.2 67.1288 1499.77 67.2045 1499.26 67.2045ZM1499.47 66C1500 66 1500.45 65.8958 1500.81 65.6875C1501.18 65.4792 1501.45 65.2102 1501.64 64.8807C1501.83 64.5511 1501.92 64.2045 1501.92 63.8409V62.6136C1501.87 62.6818 1501.74 62.7443 1501.55 62.8011C1501.36 62.8542 1501.14 62.9015 1500.89 62.9432C1500.64 62.9811 1500.4 63.0152 1500.17 63.0455C1499.94 63.072 1499.75 63.0947 1499.61 63.1136C1499.26 63.1591 1498.93 63.233 1498.63 63.3352C1498.33 63.4337 1498.09 63.5833 1497.9 63.7841C1497.72 63.9811 1497.63 64.25 1497.63 64.5909C1497.63 65.0568 1497.8 65.4091 1498.14 65.6477C1498.49 65.8826 1498.93 66 1499.47 66ZM1505.71 67V58.2727H1507.01V59.5909H1507.1C1507.26 59.1591 1507.54 58.8087 1507.96 58.5398C1508.38 58.2708 1508.85 58.1364 1509.37 58.1364C1509.47 58.1364 1509.59 58.1383 1509.74 58.142C1509.89 58.1458 1510 58.1515 1510.08 58.1591V59.5227C1510.03 59.5114 1509.93 59.4943 1509.76 59.4716C1509.6 59.4451 1509.44 59.4318 1509.26 59.4318C1508.83 59.4318 1508.45 59.5208 1508.12 59.6989C1507.79 59.8731 1507.53 60.1155 1507.34 60.4261C1507.15 60.733 1507.05 61.0833 1507.05 61.4773V67H1505.71ZM1511.66 67V58.2727H1512.96V59.6364H1513.07C1513.26 59.1705 1513.55 58.8087 1513.95 58.5511C1514.36 58.2898 1514.85 58.1591 1515.41 58.1591C1515.99 58.1591 1516.47 58.2898 1516.85 58.5511C1517.24 58.8087 1517.54 59.1705 1517.76 59.6364H1517.85C1518.07 59.1856 1518.41 58.8277 1518.85 58.5625C1519.3 58.2936 1519.84 58.1591 1520.46 58.1591C1521.24 58.1591 1521.88 58.4034 1522.38 58.892C1522.87 59.3769 1523.12 60.1326 1523.12 61.1591V67H1521.78V61.1591C1521.78 60.5152 1521.6 60.0549 1521.25 59.7784C1520.9 59.5019 1520.48 59.3636 1520.01 59.3636C1519.39 59.3636 1518.92 59.5492 1518.58 59.9205C1518.24 60.2879 1518.07 60.7538 1518.07 61.3182V67H1516.71V61.0227C1516.71 60.5265 1516.55 60.1269 1516.23 59.8239C1515.91 59.517 1515.49 59.3636 1514.98 59.3636C1514.63 59.3636 1514.31 59.4564 1514.01 59.642C1513.71 59.8277 1513.46 60.0852 1513.28 60.4148C1513.1 60.7405 1513.01 61.1174 1513.01 61.5455V67H1511.66ZM1529.12 67.1818C1528.33 67.1818 1527.64 66.9943 1527.04 66.6193C1526.45 66.2443 1525.99 65.7197 1525.66 65.0455C1525.33 64.3712 1525.16 63.5833 1525.16 62.6818C1525.16 61.7727 1525.33 60.9792 1525.66 60.3011C1525.99 59.6231 1526.45 59.0966 1527.04 58.7216C1527.64 58.3466 1528.33 58.1591 1529.12 58.1591C1529.9 58.1591 1530.59 58.3466 1531.18 58.7216C1531.78 59.0966 1532.24 59.6231 1532.57 60.3011C1532.9 60.9792 1533.07 61.7727 1533.07 62.6818C1533.07 63.5833 1532.9 64.3712 1532.57 65.0455C1532.24 65.7197 1531.78 66.2443 1531.18 66.6193C1530.59 66.9943 1529.9 67.1818 1529.12 67.1818ZM1529.12 65.9773C1529.71 65.9773 1530.21 65.8239 1530.59 65.517C1530.98 65.2102 1531.27 64.8068 1531.45 64.3068C1531.64 63.8068 1531.73 63.2652 1531.73 62.6818C1531.73 62.0985 1531.64 61.5549 1531.45 61.0511C1531.27 60.5473 1530.98 60.1402 1530.59 59.8295C1530.21 59.5189 1529.71 59.3636 1529.12 59.3636C1528.52 59.3636 1528.03 59.5189 1527.64 59.8295C1527.25 60.1402 1526.97 60.5473 1526.78 61.0511C1526.6 61.5549 1526.5 62.0985 1526.5 62.6818C1526.5 63.2652 1526.6 63.8068 1526.78 64.3068C1526.97 64.8068 1527.25 65.2102 1527.64 65.517C1528.03 65.8239 1528.52 65.9773 1529.12 65.9773ZM1536.46 61.75V67H1535.12V58.2727H1536.41V59.6364H1536.53C1536.73 59.1932 1537.04 58.8371 1537.46 58.5682C1537.88 58.2955 1538.41 58.1591 1539.07 58.1591C1539.66 58.1591 1540.18 58.2803 1540.62 58.5227C1541.07 58.7614 1541.41 59.125 1541.66 59.6136C1541.9 60.0985 1542.03 60.7121 1542.03 61.4545V67H1540.69V61.5455C1540.69 60.8598 1540.51 60.3258 1540.15 59.9432C1539.8 59.5568 1539.31 59.3636 1538.69 59.3636C1538.26 59.3636 1537.88 59.4564 1537.54 59.642C1537.21 59.8277 1536.94 60.0985 1536.75 60.4545C1536.56 60.8106 1536.46 61.2424 1536.46 61.75ZM1544.48 67V58.2727H1545.82V67H1544.48ZM1545.16 56.8182C1544.9 56.8182 1544.67 56.7292 1544.48 56.5511C1544.3 56.3731 1544.2 56.1591 1544.2 55.9091C1544.2 55.6591 1544.3 55.4451 1544.48 55.267C1544.67 55.089 1544.9 55 1545.16 55C1545.42 55 1545.64 55.089 1545.83 55.267C1546.02 55.4451 1546.11 55.6591 1546.11 55.9091C1546.11 56.1591 1546.02 56.3731 1545.83 56.5511C1545.64 56.7292 1545.42 56.8182 1545.16 56.8182ZM1551.82 67.1818C1551 67.1818 1550.3 66.9886 1549.71 66.6023C1549.12 66.2159 1548.66 65.6837 1548.34 65.0057C1548.02 64.3277 1547.87 63.553 1547.87 62.6818C1547.87 61.7955 1548.03 61.0133 1548.35 60.3352C1548.68 59.6534 1549.14 59.1212 1549.73 58.7386C1550.32 58.3523 1551.01 58.1591 1551.8 58.1591C1552.41 58.1591 1552.96 58.2727 1553.46 58.5C1553.95 58.7273 1554.35 59.0455 1554.67 59.4545C1554.98 59.8636 1555.18 60.3409 1555.25 60.8864H1553.91C1553.81 60.4886 1553.58 60.1364 1553.23 59.8295C1552.88 59.5189 1552.41 59.3636 1551.82 59.3636C1551.3 59.3636 1550.84 59.5 1550.44 59.7727C1550.05 60.0417 1549.75 60.4223 1549.53 60.9148C1549.31 61.4034 1549.21 61.9773 1549.21 62.6364C1549.21 63.3106 1549.31 63.8977 1549.52 64.3977C1549.74 64.8977 1550.04 65.286 1550.43 65.5625C1550.83 65.839 1551.29 65.9773 1551.82 65.9773C1552.17 65.9773 1552.48 65.9167 1552.77 65.7955C1553.05 65.6742 1553.29 65.5 1553.49 65.2727C1553.69 65.0455 1553.83 64.7727 1553.91 64.4545H1555.25C1555.18 64.9697 1554.99 65.4337 1554.69 65.8466C1554.39 66.2557 1554 66.5814 1553.51 66.8239C1553.03 67.0625 1552.46 67.1818 1551.82 67.1818ZM1561.89 55.3636H1563.58L1567.53 65.0227H1567.67L1571.62 55.3636H1573.3V67H1571.98V58.1591H1571.87L1568.23 67H1566.96L1563.33 58.1591H1563.21V67H1561.89V55.3636ZM1575.95 67V58.2727H1577.29V67H1575.95ZM1576.63 56.8182C1576.37 56.8182 1576.14 56.7292 1575.95 56.5511C1575.77 56.3731 1575.67 56.1591 1575.67 55.9091C1575.67 55.6591 1575.77 55.4451 1575.95 55.267C1576.14 55.089 1576.37 55 1576.63 55C1576.89 55 1577.11 55.089 1577.3 55.267C1577.49 55.4451 1577.58 55.6591 1577.58 55.9091C1577.58 56.1591 1577.49 56.3731 1577.3 56.5511C1577.11 56.7292 1576.89 56.8182 1576.63 56.8182ZM1581.08 61.75V67H1579.74V58.2727H1581.04V59.6364H1581.15C1581.36 59.1932 1581.67 58.8371 1582.08 58.5682C1582.5 58.2955 1583.04 58.1591 1583.7 58.1591C1584.29 58.1591 1584.81 58.2803 1585.25 58.5227C1585.69 58.7614 1586.04 59.125 1586.28 59.6136C1586.53 60.0985 1586.65 60.7121 1586.65 61.4545V67H1585.31V61.5455C1585.31 60.8598 1585.13 60.3258 1584.78 59.9432C1584.42 59.5568 1583.93 59.3636 1583.31 59.3636C1582.88 59.3636 1582.5 59.4564 1582.16 59.642C1581.83 59.8277 1581.57 60.0985 1581.37 60.4545C1581.18 60.8106 1581.08 61.2424 1581.08 61.75ZM1592.65 67.1818C1591.86 67.1818 1591.17 66.9943 1590.57 66.6193C1589.98 66.2443 1589.52 65.7197 1589.19 65.0455C1588.86 64.3712 1588.69 63.5833 1588.69 62.6818C1588.69 61.7727 1588.86 60.9792 1589.19 60.3011C1589.52 59.6231 1589.98 59.0966 1590.57 58.7216C1591.17 58.3466 1591.86 58.1591 1592.65 58.1591C1593.44 58.1591 1594.13 58.3466 1594.72 58.7216C1595.31 59.0966 1595.77 59.6231 1596.1 60.3011C1596.44 60.9792 1596.6 61.7727 1596.6 62.6818C1596.6 63.5833 1596.44 64.3712 1596.1 65.0455C1595.77 65.7197 1595.31 66.2443 1594.72 66.6193C1594.13 66.9943 1593.44 67.1818 1592.65 67.1818ZM1592.65 65.9773C1593.25 65.9773 1593.74 65.8239 1594.12 65.517C1594.51 65.2102 1594.8 64.8068 1594.98 64.3068C1595.17 63.8068 1595.26 63.2652 1595.26 62.6818C1595.26 62.0985 1595.17 61.5549 1594.98 61.0511C1594.8 60.5473 1594.51 60.1402 1594.12 59.8295C1593.74 59.5189 1593.25 59.3636 1592.65 59.3636C1592.05 59.3636 1591.56 59.5189 1591.17 59.8295C1590.78 60.1402 1590.5 60.5473 1590.31 61.0511C1590.13 61.5549 1590.03 62.0985 1590.03 62.6818C1590.03 63.2652 1590.13 63.8068 1590.31 64.3068C1590.5 64.8068 1590.78 65.2102 1591.17 65.517C1591.56 65.8239 1592.05 65.9773 1592.65 65.9773ZM1598.65 67V58.2727H1599.94V59.5909H1600.04C1600.19 59.1591 1600.48 58.8087 1600.9 58.5398C1601.32 58.2708 1601.79 58.1364 1602.31 58.1364C1602.41 58.1364 1602.53 58.1383 1602.68 58.142C1602.83 58.1458 1602.94 58.1515 1603.01 58.1591V59.5227C1602.97 59.5114 1602.86 59.4943 1602.7 59.4716C1602.54 59.4451 1602.37 59.4318 1602.19 59.4318C1601.77 59.4318 1601.39 59.5208 1601.06 59.6989C1600.73 59.8731 1600.47 60.1155 1600.27 60.4261C1600.08 60.733 1599.99 61.0833 1599.99 61.4773V67H1598.65Z" fill="#CDCDCD"/>
<path d="M992.075 106.251H960V266.666H992.075V106.251Z" fill="#00E494" stroke="#CDCDCD" stroke-width="0.981132"/>
<path d="M1024.15 106.251H992.076V266.666H1024.15V106.251Z" fill="#00E494" stroke="#CDCDCD" stroke-width="0.981132"/>
<path d="M1056.23 106.251H1024.15V266.666H1056.23V106.251Z" fill="white" stroke="#CDCDCD" stroke-width="0.981132"/>
<path d="M1088.3 106.251H1056.23V266.666H1088.3V106.251Z" fill="#00E494" stroke="#CDCDCD" stroke-width="0.981132"/>
<path d="M1120.38 106.251H1088.3V266.666H1120.38V106.251Z" fill="#00E494" stroke="#CDCDCD" stroke-width="0.981132"/>
<path d="M1152.45 106.251H1120.38V266.666H1152.45V106.251Z" fill="#00E494" stroke="#CDCDCD" stroke-width="0.981132"/>
<path d="M1184.53 106.251H1152.45V266.666H1184.53V106.251Z" fill="#00E494" stroke="#CDCDCD" stroke-width="0.981132"/>
<path d="M1216.08 106.251H1184V266.666H1216.08V106.251Z" fill="#00E494" stroke="#CDCDCD" stroke-width="0.981132"/>
<path d="M1248.15 106.251H1216.08V266.666H1248.15V106.251Z" fill="white" stroke="#CDCDCD" stroke-width="0.981132"/>
<path d="M1280.23 106.251H1248.15V266.666H1280.23V106.251Z" fill="white" stroke="#CDCDCD" stroke-width="0.981132"/>
<path d="M1224.09 106.251H1208.06V186.459H1224.09V106.251Z" fill="black" stroke="black" stroke-width="0.981132"/>
<path d="M1256.17 106.251H1240.13V186.459H1256.17V106.251Z" fill="black" stroke="black" stroke-width="0.981132"/>
<path d="M1000.09 106.251H984.057V186.459H1000.09V106.251Z" fill="black" stroke="black" stroke-width="0.981132"/>
<path d="M1032.17 106.251H1016.13V186.459H1032.17V106.251Z" fill="#00E494" stroke="#CDCDCD" stroke-width="0.981132"/>
<path d="M1096.32 106.251H1080.28V186.459H1096.32V106.251Z" fill="black" stroke="black" stroke-width="0.981132"/>
<path d="M1128.4 106.251H1112.36V186.459H1128.4V106.251Z" fill="black" stroke="black" stroke-width="0.981132"/>
<path d="M1160.47 106.251H1144.43V186.459H1160.47V106.251Z" fill="black" stroke="black" stroke-width="0.981132"/>
<path d="M1064.43 55.3636H1066.11L1070.07 65.0227H1070.21L1074.16 55.3636H1075.84V67H1074.52V58.1591H1074.41L1070.77 67H1069.5L1065.86 58.1591H1065.75V67H1064.43V55.3636ZM1082.14 67.1818C1081.3 67.1818 1080.58 66.9962 1079.97 66.625C1079.36 66.25 1078.89 65.7273 1078.56 65.0568C1078.24 64.3826 1078.08 63.5985 1078.08 62.7045C1078.08 61.8106 1078.24 61.0227 1078.56 60.3409C1078.89 59.6553 1079.35 59.1212 1079.94 58.7386C1080.53 58.3523 1081.22 58.1591 1082.01 58.1591C1082.46 58.1591 1082.91 58.2348 1083.35 58.3864C1083.8 58.5379 1084.2 58.7841 1084.56 59.125C1084.93 59.4621 1085.22 59.9091 1085.43 60.4659C1085.65 61.0227 1085.76 61.7083 1085.76 62.5227V63.0909H1079.03V61.9318H1084.39C1084.39 61.4394 1084.3 61 1084.1 60.6136C1083.91 60.2273 1083.63 59.9223 1083.27 59.6989C1082.91 59.4754 1082.49 59.3636 1082.01 59.3636C1081.47 59.3636 1081.01 59.4962 1080.62 59.7614C1080.24 60.0227 1079.94 60.3636 1079.73 60.7841C1079.52 61.2045 1079.42 61.6553 1079.42 62.1364V62.9091C1079.42 63.5682 1079.53 64.1269 1079.76 64.5852C1079.99 65.0398 1080.31 65.3864 1080.72 65.625C1081.13 65.8598 1081.6 65.9773 1082.14 65.9773C1082.5 65.9773 1082.81 65.928 1083.1 65.8295C1083.39 65.7273 1083.63 65.5758 1083.84 65.375C1084.05 65.1705 1084.21 64.9167 1084.33 64.6136L1085.62 64.9773C1085.49 65.4167 1085.26 65.803 1084.93 66.1364C1084.61 66.4659 1084.21 66.7235 1083.74 66.9091C1083.27 67.0909 1082.74 67.1818 1082.14 67.1818ZM1089.14 55.3636V67H1087.8V55.3636H1089.14ZM1095.14 67.1818C1094.35 67.1818 1093.66 66.9943 1093.07 66.6193C1092.48 66.2443 1092.01 65.7197 1091.68 65.0455C1091.35 64.3712 1091.19 63.5833 1091.19 62.6818C1091.19 61.7727 1091.35 60.9792 1091.68 60.3011C1092.01 59.6231 1092.48 59.0966 1093.07 58.7216C1093.66 58.3466 1094.35 58.1591 1095.14 58.1591C1095.93 58.1591 1096.62 58.3466 1097.21 58.7216C1097.8 59.0966 1098.26 59.6231 1098.59 60.3011C1098.93 60.9792 1099.09 61.7727 1099.09 62.6818C1099.09 63.5833 1098.93 64.3712 1098.59 65.0455C1098.26 65.7197 1097.8 66.2443 1097.21 66.6193C1096.62 66.9943 1095.93 67.1818 1095.14 67.1818ZM1095.14 65.9773C1095.74 65.9773 1096.23 65.8239 1096.62 65.517C1097 65.2102 1097.29 64.8068 1097.48 64.3068C1097.66 63.8068 1097.75 63.2652 1097.75 62.6818C1097.75 62.0985 1097.66 61.5549 1097.48 61.0511C1097.29 60.5473 1097 60.1402 1096.62 59.8295C1096.23 59.5189 1095.74 59.3636 1095.14 59.3636C1094.54 59.3636 1094.05 59.5189 1093.66 59.8295C1093.28 60.1402 1092.99 60.5473 1092.8 61.0511C1092.62 61.5549 1092.53 62.0985 1092.53 62.6818C1092.53 63.2652 1092.62 63.8068 1092.8 64.3068C1092.99 64.8068 1093.28 65.2102 1093.66 65.517C1094.05 65.8239 1094.54 65.9773 1095.14 65.9773ZM1104.44 67.1818C1103.71 67.1818 1103.07 66.9981 1102.51 66.6307C1101.95 66.2595 1101.52 65.7367 1101.2 65.0625C1100.89 64.3845 1100.73 63.5833 1100.73 62.6591C1100.73 61.7424 1100.89 60.947 1101.2 60.2727C1101.52 59.5985 1101.96 59.0777 1102.52 58.7102C1103.08 58.3428 1103.72 58.1591 1104.46 58.1591C1105.03 58.1591 1105.48 58.2538 1105.81 58.4432C1106.14 58.6288 1106.39 58.8409 1106.57 59.0795C1106.75 59.3144 1106.88 59.5076 1106.98 59.6591H1107.1V55.3636H1108.44V67H1107.14V65.6591H1106.98C1106.88 65.8182 1106.74 66.0189 1106.56 66.2614C1106.38 66.5 1106.12 66.714 1105.78 66.9034C1105.45 67.089 1105 67.1818 1104.44 67.1818ZM1104.62 65.9773C1105.16 65.9773 1105.61 65.8371 1105.98 65.5568C1106.35 65.2727 1106.64 64.8807 1106.83 64.3807C1107.02 63.8769 1107.12 63.2955 1107.12 62.6364C1107.12 61.9848 1107.02 61.4148 1106.83 60.9261C1106.65 60.4337 1106.36 60.0511 1105.99 59.7784C1105.62 59.5019 1105.16 59.3636 1104.62 59.3636C1104.05 59.3636 1103.58 59.5095 1103.2 59.8011C1102.82 60.089 1102.54 60.4811 1102.35 60.9773C1102.17 61.4697 1102.07 62.0227 1102.07 62.6364C1102.07 63.2576 1102.17 63.822 1102.36 64.3295C1102.55 64.8333 1102.83 65.2348 1103.21 65.5341C1103.59 65.8295 1104.06 65.9773 1104.62 65.9773ZM1111.08 67V58.2727H1112.42V67H1111.08ZM1111.76 56.8182C1111.5 56.8182 1111.27 56.7292 1111.08 56.5511C1110.9 56.3731 1110.81 56.1591 1110.81 55.9091C1110.81 55.6591 1110.9 55.4451 1111.08 55.267C1111.27 55.089 1111.5 55 1111.76 55C1112.02 55 1112.25 55.089 1112.43 55.267C1112.62 55.4451 1112.72 55.6591 1112.72 55.9091C1112.72 56.1591 1112.62 56.3731 1112.43 56.5511C1112.25 56.7292 1112.02 56.8182 1111.76 56.8182ZM1118.42 67.1818C1117.6 67.1818 1116.9 66.9886 1116.31 66.6023C1115.72 66.2159 1115.26 65.6837 1114.94 65.0057C1114.63 64.3277 1114.47 63.553 1114.47 62.6818C1114.47 61.7955 1114.63 61.0133 1114.96 60.3352C1115.28 59.6534 1115.74 59.1212 1116.33 58.7386C1116.92 58.3523 1117.61 58.1591 1118.4 58.1591C1119.01 58.1591 1119.57 58.2727 1120.06 58.5C1120.55 58.7273 1120.95 59.0455 1121.27 59.4545C1121.58 59.8636 1121.78 60.3409 1121.85 60.8864H1120.51C1120.41 60.4886 1120.18 60.1364 1119.83 59.8295C1119.48 59.5189 1119.01 59.3636 1118.42 59.3636C1117.9 59.3636 1117.44 59.5 1117.05 59.7727C1116.66 60.0417 1116.35 60.4223 1116.13 60.9148C1115.92 61.4034 1115.81 61.9773 1115.81 62.6364C1115.81 63.3106 1115.91 63.8977 1116.13 64.3977C1116.34 64.8977 1116.64 65.286 1117.03 65.5625C1117.43 65.839 1117.89 65.9773 1118.42 65.9773C1118.77 65.9773 1119.09 65.9167 1119.37 65.7955C1119.65 65.6742 1119.89 65.5 1120.09 65.2727C1120.29 65.0455 1120.43 64.7727 1120.51 64.4545H1121.85C1121.78 64.9697 1121.59 65.4337 1121.29 65.8466C1121 66.2557 1120.6 66.5814 1120.11 66.8239C1119.63 67.0625 1119.07 67.1818 1118.42 67.1818ZM1128.5 55.3636H1130.18L1134.13 65.0227H1134.27L1138.22 55.3636H1139.9V67H1138.59V58.1591H1138.47L1134.84 67H1133.56L1129.93 58.1591H1129.81V67H1128.5V55.3636ZM1142.55 67V58.2727H1143.89V67H1142.55ZM1143.23 56.8182C1142.97 56.8182 1142.74 56.7292 1142.55 56.5511C1142.37 56.3731 1142.27 56.1591 1142.27 55.9091C1142.27 55.6591 1142.37 55.4451 1142.55 55.267C1142.74 55.089 1142.97 55 1143.23 55C1143.49 55 1143.71 55.089 1143.9 55.267C1144.09 55.4451 1144.18 55.6591 1144.18 55.9091C1144.18 56.1591 1144.09 56.3731 1143.9 56.5511C1143.71 56.7292 1143.49 56.8182 1143.23 56.8182ZM1147.69 61.75V67H1146.34V58.2727H1147.64V59.6364H1147.75C1147.96 59.1932 1148.27 58.8371 1148.69 58.5682C1149.1 58.2955 1149.64 58.1591 1150.3 58.1591C1150.89 58.1591 1151.41 58.2803 1151.85 58.5227C1152.29 58.7614 1152.64 59.125 1152.88 59.6136C1153.13 60.0985 1153.25 60.7121 1153.25 61.4545V67H1151.91V61.5455C1151.91 60.8598 1151.73 60.3258 1151.38 59.9432C1151.02 59.5568 1150.53 59.3636 1149.91 59.3636C1149.48 59.3636 1149.1 59.4564 1148.76 59.642C1148.43 59.8277 1148.17 60.0985 1147.98 60.4545C1147.78 60.8106 1147.69 61.2424 1147.69 61.75ZM1159.25 67.1818C1158.46 67.1818 1157.77 66.9943 1157.18 66.6193C1156.58 66.2443 1156.12 65.7197 1155.79 65.0455C1155.46 64.3712 1155.29 63.5833 1155.29 62.6818C1155.29 61.7727 1155.46 60.9792 1155.79 60.3011C1156.12 59.6231 1156.58 59.0966 1157.18 58.7216C1157.77 58.3466 1158.46 58.1591 1159.25 58.1591C1160.04 58.1591 1160.73 58.3466 1161.32 58.7216C1161.91 59.0966 1162.37 59.6231 1162.7 60.3011C1163.04 60.9792 1163.2 61.7727 1163.2 62.6818C1163.2 63.5833 1163.04 64.3712 1162.7 65.0455C1162.37 65.7197 1161.91 66.2443 1161.32 66.6193C1160.73 66.9943 1160.04 67.1818 1159.25 67.1818ZM1159.25 65.9773C1159.85 65.9773 1160.34 65.8239 1160.73 65.517C1161.11 65.2102 1161.4 64.8068 1161.58 64.3068C1161.77 63.8068 1161.86 63.2652 1161.86 62.6818C1161.86 62.0985 1161.77 61.5549 1161.58 61.0511C1161.4 60.5473 1161.11 60.1402 1160.73 59.8295C1160.34 59.5189 1159.85 59.3636 1159.25 59.3636C1158.65 59.3636 1158.16 59.5189 1157.77 59.8295C1157.39 60.1402 1157.1 60.5473 1156.91 61.0511C1156.73 61.5549 1156.64 62.0985 1156.64 62.6818C1156.64 63.2652 1156.73 63.8068 1156.91 64.3068C1157.1 64.8068 1157.39 65.2102 1157.77 65.517C1158.16 65.8239 1158.65 65.9773 1159.25 65.9773ZM1165.25 67V58.2727H1166.55V59.5909H1166.64C1166.8 59.1591 1167.08 58.8087 1167.5 58.5398C1167.92 58.2708 1168.39 58.1364 1168.91 58.1364C1169.01 58.1364 1169.13 58.1383 1169.28 58.142C1169.43 58.1458 1169.54 58.1515 1169.61 58.1591V59.5227C1169.57 59.5114 1169.46 59.4943 1169.3 59.4716C1169.14 59.4451 1168.97 59.4318 1168.8 59.4318C1168.37 59.4318 1167.99 59.5208 1167.66 59.6989C1167.33 59.8731 1167.07 60.1155 1166.88 60.4261C1166.69 60.733 1166.59 61.0833 1166.59 61.4773V67H1165.25Z" fill="#CDCDCD"/>
<path d="M552.377 106.251H520.302V266.666H552.377V106.251Z" fill="#00E494" stroke="#CDCDCD" stroke-width="0.981132"/>
<path d="M584.453 106.251H552.377V266.666H584.453V106.251Z" fill="#00E494" stroke="#CDCDCD" stroke-width="0.981132"/>
<path d="M616.529 106.251H584.453V266.666H616.529V106.251Z" fill="white" stroke="#CDCDCD" stroke-width="0.981132"/>
<path d="M648.604 106.251H616.528V266.666H648.604V106.251Z" fill="#00E494" stroke="#CDCDCD" stroke-width="0.981132"/>
<path d="M680.679 106.251H648.604V266.666H680.679V106.251Z" fill="#00E494" stroke="#CDCDCD" stroke-width="0.981132"/>
<path d="M712.755 106.251H680.679V266.666H712.755V106.251Z" fill="white" stroke="#CDCDCD" stroke-width="0.981132"/>
<path d="M744.83 106.251H712.755V266.666H744.83V106.251Z" fill="white" stroke="#CDCDCD" stroke-width="0.981132"/>
<path d="M776.075 106.251H744V266.666H776.075V106.251Z" fill="#00E494" stroke="#CDCDCD" stroke-width="0.981132"/>
<path d="M808.151 106.251H776.076V266.666H808.151V106.251Z" fill="white" stroke="#CDCDCD" stroke-width="0.981132"/>
<path d="M840.227 106.251H808.151V266.666H840.227V106.251Z" fill="white" stroke="#CDCDCD" stroke-width="0.981132"/>
<path d="M784.094 106.251H768.057V186.459H784.094V106.251Z" fill="black" stroke="black" stroke-width="0.981132"/>
<path d="M816.17 106.251H800.132V186.459H816.17V106.251Z" fill="black" stroke="black" stroke-width="0.981132"/>
<path d="M560.396 106.251H544.358V186.459H560.396V106.251Z" fill="black" stroke="black" stroke-width="0.981132"/>
<path d="M592.471 106.251H576.434V186.459H592.471V106.251Z" fill="#00E494" stroke="#CDCDCD" stroke-width="0.981132"/>
<path d="M656.623 106.251H640.585V186.459H656.623V106.251Z" fill="black" stroke="black" stroke-width="0.981132"/>
<path d="M688.698 106.251H672.66V186.459H688.698V106.251Z" fill="#00E494" stroke="#CDCDCD" stroke-width="0.981132"/>
<path d="M720.774 106.251H704.736V186.459H720.774V106.251Z" fill="#00E494" stroke="#CDCDCD" stroke-width="0.981132"/>
<path d="M639.972 55.3636V67H638.609L632.268 57.8636H632.154V67H630.745V55.3636H632.109L638.472 64.5227H638.586V55.3636H639.972ZM645.178 67.2045C644.625 67.2045 644.123 67.1004 643.673 66.892C643.222 66.6799 642.864 66.375 642.599 65.9773C642.334 65.5758 642.201 65.0909 642.201 64.5227C642.201 64.0227 642.299 63.6174 642.496 63.3068C642.693 62.9924 642.957 62.7462 643.286 62.5682C643.616 62.3902 643.979 62.2576 644.377 62.1705C644.779 62.0795 645.182 62.0076 645.587 61.9545C646.118 61.8864 646.548 61.8352 646.877 61.8011C647.21 61.7633 647.453 61.7008 647.604 61.6136C647.76 61.5265 647.837 61.375 647.837 61.1591V61.1136C647.837 60.553 647.684 60.1174 647.377 59.8068C647.074 59.4962 646.614 59.3409 645.996 59.3409C645.356 59.3409 644.854 59.4811 644.491 59.7614C644.127 60.0417 643.871 60.3409 643.724 60.6591L642.451 60.2045C642.678 59.6742 642.981 59.2614 643.36 58.9659C643.743 58.6667 644.159 58.4583 644.61 58.3409C645.065 58.2197 645.512 58.1591 645.951 58.1591C646.231 58.1591 646.553 58.1932 646.917 58.2614C647.284 58.3258 647.638 58.4602 647.979 58.6648C648.324 58.8693 648.61 59.178 648.837 59.5909C649.065 60.0038 649.178 60.5568 649.178 61.25V67H647.837V65.8182H647.769C647.678 66.0076 647.527 66.2102 647.315 66.4261C647.103 66.642 646.82 66.8258 646.468 66.9773C646.116 67.1288 645.686 67.2045 645.178 67.2045ZM645.383 66C645.913 66 646.36 65.8958 646.724 65.6875C647.091 65.4792 647.368 65.2102 647.553 64.8807C647.743 64.5511 647.837 64.2045 647.837 63.8409V62.6136C647.781 62.6818 647.656 62.7443 647.462 62.8011C647.273 62.8542 647.053 62.9015 646.803 62.9432C646.557 62.9811 646.317 63.0152 646.082 63.0455C645.851 63.072 645.663 63.0947 645.519 63.1136C645.171 63.1591 644.845 63.233 644.542 63.3352C644.243 63.4337 644 63.5833 643.815 63.7841C643.633 63.9811 643.542 64.25 643.542 64.5909C643.542 65.0568 643.714 65.4091 644.059 65.6477C644.407 65.8826 644.849 66 645.383 66ZM655.421 58.2727V59.4091H650.898V58.2727H655.421ZM652.217 56.1818H653.558V64.5C653.558 64.8788 653.612 65.1629 653.722 65.3523C653.836 65.5379 653.98 65.6629 654.154 65.7273C654.332 65.7879 654.52 65.8182 654.717 65.8182C654.864 65.8182 654.986 65.8106 655.08 65.7955C655.175 65.7765 655.251 65.7614 655.308 65.75L655.58 66.9545C655.489 66.9886 655.362 67.0227 655.2 67.0568C655.037 67.0947 654.83 67.1136 654.58 67.1136C654.201 67.1136 653.83 67.0322 653.467 66.8693C653.107 66.7064 652.808 66.4583 652.569 66.125C652.334 65.7917 652.217 65.3712 652.217 64.8636V56.1818ZM662.938 63.4318V58.2727H664.279V67H662.938V65.5227H662.847C662.643 65.9659 662.325 66.3428 661.893 66.6534C661.461 66.9602 660.915 67.1136 660.256 67.1136C659.711 67.1136 659.226 66.9943 658.802 66.7557C658.378 66.5133 658.044 66.1496 657.802 65.6648C657.559 65.1761 657.438 64.5606 657.438 63.8182V58.2727H658.779V63.7273C658.779 64.3636 658.957 64.8712 659.313 65.25C659.673 65.6288 660.131 65.8182 660.688 65.8182C661.022 65.8182 661.361 65.733 661.705 65.5625C662.054 65.392 662.345 65.1307 662.58 64.7784C662.819 64.4261 662.938 63.9773 662.938 63.4318ZM666.735 67V58.2727H668.031V59.5909H668.121C668.281 59.1591 668.568 58.8087 668.985 58.5398C669.402 58.2708 669.871 58.1364 670.394 58.1364C670.493 58.1364 670.616 58.1383 670.763 58.142C670.911 58.1458 671.023 58.1515 671.099 58.1591V59.5227C671.053 59.5114 670.949 59.4943 670.786 59.4716C670.627 59.4451 670.459 59.4318 670.281 59.4318C669.856 59.4318 669.478 59.5208 669.144 59.6989C668.815 59.8731 668.553 60.1155 668.36 60.4261C668.171 60.733 668.076 61.0833 668.076 61.4773V67H666.735ZM675.256 67.2045C674.703 67.2045 674.201 67.1004 673.751 66.892C673.3 66.6799 672.942 66.375 672.677 65.9773C672.412 65.5758 672.279 65.0909 672.279 64.5227C672.279 64.0227 672.378 63.6174 672.575 63.3068C672.772 62.9924 673.035 62.7462 673.364 62.5682C673.694 62.3902 674.058 62.2576 674.455 62.1705C674.857 62.0795 675.26 62.0076 675.665 61.9545C676.196 61.8864 676.626 61.8352 676.955 61.8011C677.289 61.7633 677.531 61.7008 677.683 61.6136C677.838 61.5265 677.915 61.375 677.915 61.1591V61.1136C677.915 60.553 677.762 60.1174 677.455 59.8068C677.152 59.4962 676.692 59.3409 676.075 59.3409C675.434 59.3409 674.933 59.4811 674.569 59.7614C674.205 60.0417 673.95 60.3409 673.802 60.6591L672.529 60.2045C672.756 59.6742 673.059 59.2614 673.438 58.9659C673.821 58.6667 674.237 58.4583 674.688 58.3409C675.143 58.2197 675.59 58.1591 676.029 58.1591C676.309 58.1591 676.631 58.1932 676.995 58.2614C677.362 58.3258 677.717 58.4602 678.058 58.6648C678.402 58.8693 678.688 59.178 678.915 59.5909C679.143 60.0038 679.256 60.5568 679.256 61.25V67H677.915V65.8182H677.847C677.756 66.0076 677.605 66.2102 677.393 66.4261C677.181 66.642 676.898 66.8258 676.546 66.9773C676.194 67.1288 675.764 67.2045 675.256 67.2045ZM675.461 66C675.991 66 676.438 65.8958 676.802 65.6875C677.169 65.4792 677.446 65.2102 677.631 64.8807C677.821 64.5511 677.915 64.2045 677.915 63.8409V62.6136C677.859 62.6818 677.734 62.7443 677.54 62.8011C677.351 62.8542 677.131 62.9015 676.881 62.9432C676.635 62.9811 676.395 63.0152 676.16 63.0455C675.929 63.072 675.741 63.0947 675.597 63.1136C675.249 63.1591 674.923 63.233 674.62 63.3352C674.321 63.4337 674.078 63.5833 673.893 63.7841C673.711 63.9811 673.62 64.25 673.62 64.5909C673.62 65.0568 673.792 65.4091 674.137 65.6477C674.486 65.8826 674.927 66 675.461 66ZM683.045 55.3636V67H681.704V55.3636H683.045ZM690.183 55.3636H691.864L695.819 65.0227H695.955L699.91 55.3636H701.592V67H700.273V58.1591H700.16L696.523 67H695.251L691.614 58.1591H691.501V67H690.183V55.3636ZM704.235 67V58.2727H705.576V67H704.235ZM704.917 56.8182C704.656 56.8182 704.43 56.7292 704.241 56.5511C704.055 56.3731 703.962 56.1591 703.962 55.9091C703.962 55.6591 704.055 55.4451 704.241 55.267C704.43 55.089 704.656 55 704.917 55C705.178 55 705.402 55.089 705.587 55.267C705.777 55.4451 705.871 55.6591 705.871 55.9091C705.871 56.1591 705.777 56.3731 705.587 56.5511C705.402 56.7292 705.178 56.8182 704.917 56.8182ZM709.373 61.75V67H708.032V58.2727H709.327V59.6364H709.441C709.646 59.1932 709.956 58.8371 710.373 58.5682C710.79 58.2955 711.327 58.1591 711.987 58.1591C712.577 58.1591 713.094 58.2803 713.538 58.5227C713.981 58.7614 714.326 59.125 714.572 59.6136C714.818 60.0985 714.941 60.7121 714.941 61.4545V67H713.6V61.5455C713.6 60.8598 713.422 60.3258 713.066 59.9432C712.71 59.5568 712.221 59.3636 711.6 59.3636C711.172 59.3636 710.79 59.4564 710.452 59.642C710.119 59.8277 709.856 60.0985 709.663 60.4545C709.469 60.8106 709.373 61.2424 709.373 61.75ZM720.937 67.1818C720.149 67.1818 719.458 66.9943 718.863 66.6193C718.272 66.2443 717.81 65.7197 717.477 65.0455C717.147 64.3712 716.982 63.5833 716.982 62.6818C716.982 61.7727 717.147 60.9792 717.477 60.3011C717.81 59.6231 718.272 59.0966 718.863 58.7216C719.458 58.3466 720.149 58.1591 720.937 58.1591C721.725 58.1591 722.414 58.3466 723.005 58.7216C723.6 59.0966 724.062 59.6231 724.391 60.3011C724.725 60.9792 724.891 61.7727 724.891 62.6818C724.891 63.5833 724.725 64.3712 724.391 65.0455C724.062 65.7197 723.6 66.2443 723.005 66.6193C722.414 66.9943 721.725 67.1818 720.937 67.1818ZM720.937 65.9773C721.535 65.9773 722.028 65.8239 722.414 65.517C722.8 65.2102 723.086 64.8068 723.272 64.3068C723.458 63.8068 723.55 63.2652 723.55 62.6818C723.55 62.0985 723.458 61.5549 723.272 61.0511C723.086 60.5473 722.8 60.1402 722.414 59.8295C722.028 59.5189 721.535 59.3636 720.937 59.3636C720.338 59.3636 719.846 59.5189 719.46 59.8295C719.073 60.1402 718.787 60.5473 718.602 61.0511C718.416 61.5549 718.323 62.0985 718.323 62.6818C718.323 63.2652 718.416 63.8068 718.602 64.3068C718.787 64.8068 719.073 65.2102 719.46 65.517C719.846 65.8239 720.338 65.9773 720.937 65.9773ZM726.938 67V58.2727H728.234V59.5909H728.325C728.484 59.1591 728.772 58.8087 729.188 58.5398C729.605 58.2708 730.075 58.1364 730.597 58.1364C730.696 58.1364 730.819 58.1383 730.967 58.142C731.114 58.1458 731.226 58.1515 731.302 58.1591V59.5227C731.256 59.5114 731.152 59.4943 730.989 59.4716C730.83 59.4451 730.662 59.4318 730.484 59.4318C730.059 59.4318 729.681 59.5208 729.347 59.6989C729.018 59.8731 728.756 60.1155 728.563 60.4261C728.374 60.733 728.279 61.0833 728.279 61.4773V67H726.938Z" fill="#CDCDCD"/>
<path d="M113.075 106.251H81V266.666H113.075V106.251Z" fill="#00E494" stroke="#CDCDCD" stroke-width="0.981132"/>
<path d="M145.151 106.251H113.076V266.666H145.151V106.251Z" fill="#00E494" stroke="#CDCDCD" stroke-width="0.981132"/>
<path d="M177.227 106.251H145.151V266.666H177.227V106.251Z" fill="#00E494" stroke="#CDCDCD" stroke-width="0.981132"/>
<path d="M209.302 106.251H177.227V266.666H209.302V106.251Z" fill="#00E494" stroke="#CDCDCD" stroke-width="0.981132"/>
<path d="M241.377 106.251H209.302V266.666H241.377V106.251Z" fill="#00E494" stroke="#CDCDCD" stroke-width="0.981132"/>
<path d="M273.453 106.251H241.377V266.666H273.453V106.251Z" fill="#00E494" stroke="#CDCDCD" stroke-width="0.981132"/>
<path d="M305.529 106.251H273.453V266.666H305.529V106.251Z" fill="#00E494" stroke="#CDCDCD" stroke-width="0.981132"/>
<path d="M337.075 106.251H305V266.666H337.075V106.251Z" fill="#00E494" stroke="#CDCDCD" stroke-width="0.981132"/>
<path d="M369.151 106.251H337.076V266.666H369.151V106.251Z" fill="white" stroke="#CDCDCD" stroke-width="0.981132"/>
<path d="M401.227 106.251H369.151V266.666H401.227V106.251Z" fill="white" stroke="#CDCDCD" stroke-width="0.981132"/>
<path d="M345.094 106.251H329.057V186.459H345.094V106.251Z" fill="black" stroke="black" stroke-width="0.981132"/>
<path d="M377.17 106.251H361.132V186.459H377.17V106.251Z" fill="black" stroke="black" stroke-width="0.981132"/>
<path d="M121.094 106.251H105.057V186.459H121.094V106.251Z" fill="black" stroke="black" stroke-width="0.981132"/>
<path d="M153.17 106.251H137.132V186.459H153.17V106.251Z" fill="black" stroke="black" stroke-width="0.981132"/>
<path d="M217.321 106.251H201.283V186.459H217.321V106.251Z" fill="black" stroke="black" stroke-width="0.981132"/>
<path d="M249.396 106.251H233.358V186.459H249.396V106.251Z" fill="black" stroke="black" stroke-width="0.981132"/>
<path d="M281.472 106.251H265.434V186.459H281.472V106.251Z" fill="black" stroke="black" stroke-width="0.981132"/>
<path d="M221.636 55.3636H223.317L227.272 65.0227H227.408L231.363 55.3636H233.045V67H231.727V58.1591H231.613L227.977 67H226.704L223.067 58.1591H222.954V67H221.636V55.3636ZM238.256 67.2045C237.703 67.2045 237.201 67.1004 236.751 66.892C236.3 66.6799 235.942 66.375 235.677 65.9773C235.412 65.5758 235.279 65.0909 235.279 64.5227C235.279 64.0227 235.378 63.6174 235.575 63.3068C235.772 62.9924 236.035 62.7462 236.364 62.5682C236.694 62.3902 237.058 62.2576 237.455 62.1705C237.857 62.0795 238.26 62.0076 238.665 61.9545C239.196 61.8864 239.626 61.8352 239.955 61.8011C240.289 61.7633 240.531 61.7008 240.683 61.6136C240.838 61.5265 240.915 61.375 240.915 61.1591V61.1136C240.915 60.553 240.762 60.1174 240.455 59.8068C240.152 59.4962 239.692 59.3409 239.075 59.3409C238.434 59.3409 237.933 59.4811 237.569 59.7614C237.205 60.0417 236.95 60.3409 236.802 60.6591L235.529 60.2045C235.756 59.6742 236.059 59.2614 236.438 58.9659C236.821 58.6667 237.237 58.4583 237.688 58.3409C238.143 58.2197 238.59 58.1591 239.029 58.1591C239.309 58.1591 239.631 58.1932 239.995 58.2614C240.362 58.3258 240.717 58.4602 241.058 58.6648C241.402 58.8693 241.688 59.178 241.915 59.5909C242.143 60.0038 242.256 60.5568 242.256 61.25V67H240.915V65.8182H240.847C240.756 66.0076 240.605 66.2102 240.393 66.4261C240.181 66.642 239.898 66.8258 239.546 66.9773C239.194 67.1288 238.764 67.2045 238.256 67.2045ZM238.461 66C238.991 66 239.438 65.8958 239.802 65.6875C240.169 65.4792 240.446 65.2102 240.631 64.8807C240.821 64.5511 240.915 64.2045 240.915 63.8409V62.6136C240.859 62.6818 240.734 62.7443 240.54 62.8011C240.351 62.8542 240.131 62.9015 239.881 62.9432C239.635 62.9811 239.395 63.0152 239.16 63.0455C238.929 63.072 238.741 63.0947 238.597 63.1136C238.249 63.1591 237.923 63.233 237.62 63.3352C237.321 63.4337 237.078 63.5833 236.893 63.7841C236.711 63.9811 236.62 64.25 236.62 64.5909C236.62 65.0568 236.792 65.4091 237.137 65.6477C237.486 65.8826 237.927 66 238.461 66ZM244.704 58.2727H246.045V67.6364C246.045 68.1742 245.952 68.6402 245.766 69.0341C245.585 69.428 245.308 69.733 244.937 69.9489C244.569 70.1648 244.105 70.2727 243.545 70.2727C243.499 70.2727 243.454 70.2727 243.408 70.2727C243.363 70.2727 243.317 70.2727 243.272 70.2727V69.0227C243.317 69.0227 243.359 69.0227 243.397 69.0227C243.435 69.0227 243.477 69.0227 243.522 69.0227C243.931 69.0227 244.23 68.9015 244.42 68.6591C244.609 68.4205 244.704 68.0795 244.704 67.6364V58.2727ZM245.363 56.8182C245.102 56.8182 244.876 56.7292 244.687 56.5511C244.501 56.3731 244.408 56.1591 244.408 55.9091C244.408 55.6591 244.501 55.4451 244.687 55.267C244.876 55.089 245.102 55 245.363 55C245.624 55 245.848 55.089 246.033 55.267C246.223 55.4451 246.317 55.6591 246.317 55.9091C246.317 56.1591 246.223 56.3731 246.033 56.5511C245.848 56.7292 245.624 56.8182 245.363 56.8182ZM252.046 67.1818C251.258 67.1818 250.567 66.9943 249.972 66.6193C249.381 66.2443 248.919 65.7197 248.586 65.0455C248.256 64.3712 248.092 63.5833 248.092 62.6818C248.092 61.7727 248.256 60.9792 248.586 60.3011C248.919 59.6231 249.381 59.0966 249.972 58.7216C250.567 58.3466 251.258 58.1591 252.046 58.1591C252.834 58.1591 253.523 58.3466 254.114 58.7216C254.709 59.0966 255.171 59.6231 255.501 60.3011C255.834 60.9792 256.001 61.7727 256.001 62.6818C256.001 63.5833 255.834 64.3712 255.501 65.0455C255.171 65.7197 254.709 66.2443 254.114 66.6193C253.523 66.9943 252.834 67.1818 252.046 67.1818ZM252.046 65.9773C252.645 65.9773 253.137 65.8239 253.523 65.517C253.91 65.2102 254.196 64.8068 254.381 64.3068C254.567 63.8068 254.66 63.2652 254.66 62.6818C254.66 62.0985 254.567 61.5549 254.381 61.0511C254.196 60.5473 253.91 60.1402 253.523 59.8295C253.137 59.5189 252.645 59.3636 252.046 59.3636C251.448 59.3636 250.955 59.5189 250.569 59.8295C250.183 60.1402 249.897 60.5473 249.711 61.0511C249.525 61.5549 249.433 62.0985 249.433 62.6818C249.433 63.2652 249.525 63.8068 249.711 64.3068C249.897 64.8068 250.183 65.2102 250.569 65.517C250.955 65.8239 251.448 65.9773 252.046 65.9773ZM258.048 67V58.2727H259.343V59.5909H259.434C259.593 59.1591 259.881 58.8087 260.298 58.5398C260.714 58.2708 261.184 58.1364 261.707 58.1364C261.805 58.1364 261.928 58.1383 262.076 58.142C262.224 58.1458 262.335 58.1515 262.411 58.1591V59.5227C262.366 59.5114 262.262 59.4943 262.099 59.4716C261.94 59.4451 261.771 59.4318 261.593 59.4318C261.169 59.4318 260.79 59.5208 260.457 59.6989C260.127 59.8731 259.866 60.1155 259.673 60.4261C259.483 60.733 259.388 61.0833 259.388 61.4773V67H258.048Z" fill="#CDCDCD"/>
</svg>
