<svg width="2887" height="841" viewBox="0 0 2887 841" fill="none" xmlns="http://www.w3.org/2000/svg">
<path d="M46.5645 456.678C279.387 493.162 512.21 529.647 745.032 555.445C977.855 581.244 1210.68 596.356 1443.5 596.356C1676.32 596.356 1909.14 581.244 2141.97 555.445C2374.79 529.647 2607.61 493.162 2840.44 456.678M46.5645 456.678C279.387 420.194 512.21 383.709 745.032 357.911C977.855 332.112 1210.68 317 1443.5 317C1676.32 317 1909.14 332.112 2141.97 357.911C2374.79 383.709 2607.61 420.194 2840.44 456.678" stroke="#00E494" stroke-width="3"/>
<path d="M1443.5 456.71C1327.09 489.548 1210.68 522.382 1094.27 545.601C977.855 568.82 861.443 582.42 745.032 582.42C628.621 582.42 512.21 568.82 395.798 545.601C279.387 522.382 162.976 489.548 46.5645 456.71C162.976 423.872 279.387 391.038 395.798 367.819C512.21 344.6 628.621 331 745.032 331C861.443 331 977.855 344.6 1094.27 367.819C1210.68 391.038 1327.09 423.872 1443.5 456.71ZM1443.5 456.71C1559.91 423.872 1676.32 391.038 1792.73 367.819C1909.14 344.6 2025.56 331 2141.97 331C2258.38 331 2374.79 344.6 2491.2 367.819C2607.61 391.038 2724.02 423.872 2840.44 456.71C2724.02 489.548 2607.61 522.382 2491.2 545.601C2374.79 568.82 2258.38 582.42 2141.97 582.42C2025.56 582.42 1909.14 568.82 1792.73 545.601C1676.32 522.382 1559.91 489.548 1443.5 456.71Z" stroke="#00E494" stroke-width="3"/>
<path d="M977.855 456.742C900.246 485.93 822.641 515.118 745.032 535.758C667.423 556.393 589.819 568.485 512.21 568.485C434.602 568.485 356.995 556.393 279.387 535.758C201.779 515.118 124.172 485.93 46.5645 456.742C124.172 427.554 201.779 398.366 279.387 377.727C356.995 357.091 434.602 345 512.21 345C589.819 345 667.423 357.091 745.032 377.727C822.641 398.366 900.246 427.554 977.855 456.742ZM977.855 456.742C1055.46 427.554 1133.07 398.366 1210.68 377.727C1288.29 357.091 1365.89 345 1443.5 345C1521.11 345 1598.71 357.091 1676.32 377.727C1753.93 398.366 1831.54 427.554 1909.14 456.742M977.855 456.742C1055.46 485.93 1133.07 515.118 1210.68 535.758C1288.29 556.393 1365.89 568.485 1443.5 568.485C1521.11 568.485 1598.71 556.393 1676.32 535.758C1753.93 515.118 1831.54 485.93 1909.14 456.742M1909.14 456.742C1986.75 485.93 2064.36 515.118 2141.97 535.758C2219.58 556.393 2297.18 568.485 2374.79 568.485C2452.4 568.485 2530 556.393 2607.61 535.758C2685.22 515.118 2762.83 485.93 2840.44 456.742C2762.83 427.554 2685.22 398.366 2607.61 377.727C2530 357.091 2452.4 345 2374.79 345C2297.18 345 2219.58 357.091 2141.97 377.727C2064.36 398.366 1986.75 427.554 1909.14 456.742Z" stroke="#00E494" stroke-width="3"/>
<path d="M745.032 456.775C686.826 482.312 628.621 507.855 570.415 525.91C512.21 543.971 454.004 554.549 395.798 554.549C337.593 554.549 279.387 543.971 221.181 525.91C162.976 507.855 104.77 482.312 46.5645 456.775C104.77 431.237 162.976 405.694 221.181 387.639C279.387 369.578 337.593 359 395.798 359C454.004 359 512.21 369.578 570.415 387.639C628.621 405.694 686.826 431.237 745.032 456.775ZM745.032 456.775C803.238 431.237 861.443 405.694 919.649 387.639C977.855 369.578 1036.06 359 1094.27 359C1152.47 359 1210.68 369.578 1268.88 387.639C1327.09 405.694 1385.29 431.237 1443.5 456.775M745.032 456.775C803.238 482.312 861.443 507.855 919.649 525.91C977.855 543.971 1036.06 554.549 1094.27 554.549C1152.47 554.549 1210.68 543.971 1268.88 525.91C1327.09 507.855 1385.29 482.312 1443.5 456.775M1443.5 456.775C1501.71 482.312 1559.91 507.855 1618.12 525.91C1676.32 543.971 1734.53 554.549 1792.73 554.549C1850.94 554.549 1909.14 543.971 1967.35 525.91C2025.56 507.855 2083.76 482.312 2141.97 456.775M1443.5 456.775C1501.71 431.237 1559.91 405.694 1618.12 387.639C1676.32 369.578 1734.53 359 1792.73 359C1850.94 359 1909.14 369.578 1967.35 387.639C2025.56 405.694 2083.76 431.237 2141.97 456.775M2141.97 456.775C2200.17 431.237 2258.38 405.694 2316.58 387.639C2374.79 369.578 2433 359 2491.2 359C2549.41 359 2607.61 369.578 2665.82 387.639C2724.02 405.694 2782.23 431.237 2840.44 456.775C2782.23 482.312 2724.02 507.855 2665.82 525.91C2607.61 543.971 2549.41 554.549 2491.2 554.549C2433 554.549 2374.79 543.971 2316.58 525.91C2258.38 507.855 2200.17 482.312 2141.97 456.775Z" stroke="#00E494" stroke-width="3"/>
<path d="M605.339 456.807C558.774 478.699 512.21 500.586 465.645 516.067C419.081 531.548 372.516 540.614 325.952 540.614C279.387 540.614 232.823 531.548 186.258 516.067C139.693 500.586 93.129 478.699 46.5645 456.807C93.129 434.915 139.693 413.027 186.258 397.546C232.823 382.065 279.387 373 325.952 373C372.516 373 419.081 382.065 465.645 397.546C512.21 413.027 558.774 434.915 605.339 456.807ZM605.339 456.807C651.903 434.915 698.468 413.027 745.032 397.546C791.597 382.065 838.161 373 884.726 373C931.29 373 977.855 382.065 1024.42 397.546C1070.98 413.027 1117.55 434.915 1164.11 456.807M605.339 456.807C651.903 478.699 698.468 500.586 745.032 516.067C791.597 531.548 838.161 540.614 884.726 540.614C931.29 540.614 977.855 531.548 1024.42 516.067C1070.98 500.586 1117.55 478.699 1164.11 456.807M1164.11 456.807C1210.68 478.699 1257.24 500.586 1303.81 516.067C1350.37 531.548 1396.94 540.614 1443.5 540.614C1490.06 540.614 1536.63 531.548 1583.19 516.067C1629.76 500.586 1676.32 478.699 1722.89 456.807M1164.11 456.807C1210.68 434.915 1257.24 413.027 1303.81 397.546C1350.37 382.065 1396.94 373 1443.5 373C1490.06 373 1536.63 382.065 1583.19 397.546C1629.76 413.027 1676.32 434.915 1722.89 456.807M1722.89 456.807C1769.45 434.915 1816.02 413.027 1862.58 397.546C1909.14 382.065 1955.71 373 2002.27 373C2048.84 373 2095.4 382.065 2141.97 397.546C2188.53 413.027 2235.1 434.915 2281.66 456.807M1722.89 456.807C1769.45 478.699 1816.02 500.586 1862.58 516.067C1909.14 531.548 1955.71 540.614 2002.27 540.614C2048.84 540.614 2095.4 531.548 2141.97 516.067C2188.53 500.586 2235.1 478.699 2281.66 456.807M2281.66 456.807C2328.23 478.699 2374.79 500.586 2421.35 516.067C2467.92 531.548 2514.48 540.614 2561.05 540.614C2607.61 540.614 2654.18 531.548 2700.74 516.067C2747.31 500.586 2793.87 478.699 2840.44 456.807C2793.87 434.915 2747.31 413.027 2700.74 397.546C2654.18 382.065 2607.61 373 2561.05 373C2514.48 373 2467.92 382.065 2421.35 397.546C2374.79 413.027 2328.23 434.915 2281.66 456.807Z" stroke="#00E494" stroke-width="3"/>
<path d="M512.21 456.839C473.407 475.081 434.602 493.323 395.798 506.224C356.995 519.121 318.191 526.678 279.387 526.678C240.583 526.678 201.779 519.121 162.976 506.224C124.172 493.323 85.3681 475.081 46.5645 456.839C85.3681 438.597 124.172 420.355 162.976 407.454C201.779 394.557 240.583 387 279.387 387C318.191 387 356.995 394.557 395.798 407.454C434.602 420.355 473.407 438.597 512.21 456.839ZM512.21 456.839C551.012 438.597 589.819 420.355 628.621 407.454C667.423 394.557 706.23 387 745.032 387C783.834 387 822.641 394.557 861.443 407.454C900.246 420.355 939.052 438.597 977.855 456.839M512.21 456.839C551.012 475.081 589.819 493.323 628.621 506.224C667.423 519.121 706.23 526.678 745.032 526.678C783.834 526.678 822.641 519.121 861.443 506.224C900.246 493.323 939.052 475.081 977.855 456.839M977.855 456.839C1016.66 475.081 1055.46 493.323 1094.27 506.224C1133.07 519.121 1171.88 526.678 1210.68 526.678C1249.48 526.678 1288.29 519.121 1327.09 506.224C1365.89 493.323 1404.7 475.081 1443.5 456.839M977.855 456.839C1016.66 438.597 1055.46 420.355 1094.27 407.454C1133.07 394.557 1171.88 387 1210.68 387C1249.48 387 1288.29 394.557 1327.09 407.454C1365.89 420.355 1404.7 438.597 1443.5 456.839M1443.5 456.839C1482.3 438.597 1521.11 420.355 1559.91 407.454C1598.71 394.557 1637.52 387 1676.32 387C1715.12 387 1753.93 394.557 1792.73 407.454C1831.54 420.355 1870.34 438.597 1909.14 456.839M1443.5 456.839C1482.3 475.081 1521.11 493.323 1559.91 506.224C1598.71 519.121 1637.52 526.678 1676.32 526.678C1715.12 526.678 1753.93 519.121 1792.73 506.224C1831.54 493.323 1870.34 475.081 1909.14 456.839M1909.14 456.839C1947.95 475.081 1986.75 493.323 2025.56 506.224C2064.36 519.121 2103.17 526.678 2141.97 526.678C2180.77 526.678 2219.58 519.121 2258.38 506.224C2297.18 493.323 2335.99 475.081 2374.79 456.839M1909.14 456.839C1947.95 438.597 1986.75 420.355 2025.56 407.454C2064.36 394.557 2103.17 387 2141.97 387C2180.77 387 2219.58 394.557 2258.38 407.454C2297.18 420.355 2335.99 438.597 2374.79 456.839M2374.79 456.839C2413.59 438.597 2452.4 420.355 2491.2 407.454C2530 394.557 2568.81 387 2607.61 387C2646.41 387 2685.22 394.557 2724.02 407.454C2762.83 420.355 2801.63 438.597 2840.44 456.839C2801.63 475.081 2762.83 493.323 2724.02 506.224C2685.22 519.121 2646.41 526.678 2607.61 526.678C2568.81 526.678 2530 519.121 2491.2 506.224C2452.4 493.323 2413.59 475.081 2374.79 456.839Z" stroke="#00E494" stroke-width="3"/>
<path d="M445.689 456.871C412.428 471.463 379.168 486.059 345.908 496.377C312.648 506.699 279.387 512.742 246.126 512.742C212.866 512.742 179.606 506.699 146.346 496.377C113.085 486.059 79.825 471.463 46.5645 456.871C79.825 442.279 113.085 427.683 146.346 417.366C179.606 407.043 212.866 401 246.126 401C279.387 401 312.648 407.043 345.908 417.366C379.168 427.683 412.428 442.279 445.689 456.871ZM445.689 456.871C478.949 442.279 512.21 427.683 545.471 417.366C578.732 407.043 611.993 401 645.249 401C678.51 401 711.771 407.043 745.032 417.366C778.293 427.683 811.554 442.279 844.815 456.871M445.689 456.871C478.949 471.463 512.21 486.059 545.471 496.377C578.732 506.699 611.993 512.742 645.249 512.742C678.51 512.742 711.771 506.699 745.032 496.377C778.293 486.059 811.554 471.463 844.815 456.871M844.815 456.871C878.072 471.463 911.333 486.059 944.594 496.377C977.855 506.699 1011.12 512.742 1044.38 512.742C1077.64 512.742 1110.89 506.699 1144.16 496.377C1177.42 486.059 1210.68 471.463 1243.94 456.871M844.815 456.871C878.072 442.279 911.333 427.683 944.594 417.366C977.855 407.043 1011.12 401 1044.38 401C1077.64 401 1110.89 407.043 1144.16 417.366C1177.42 427.683 1210.68 442.279 1243.94 456.871M1243.94 456.871C1277.2 442.279 1310.46 427.683 1343.72 417.366C1376.98 407.043 1410.24 401 1443.5 401C1476.76 401 1510.02 407.043 1543.28 417.366C1576.54 427.683 1609.8 442.279 1643.06 456.871M1243.94 456.871C1277.2 471.463 1310.46 486.059 1343.72 496.377C1376.98 506.699 1410.24 512.742 1443.5 512.742C1476.76 512.742 1510.02 506.699 1543.28 496.377C1576.54 486.059 1609.8 471.463 1643.06 456.871M1643.06 456.871C1676.32 471.463 1709.58 486.059 1742.84 496.377C1776.11 506.699 1809.36 512.742 1842.62 512.742C1875.88 512.742 1909.14 506.699 1942.41 496.377C1975.67 486.059 2008.93 471.463 2042.18 456.871M1643.06 456.871C1676.32 442.279 1709.58 427.683 1742.84 417.366C1776.11 407.043 1809.36 401 1842.62 401C1875.88 401 1909.14 407.043 1942.41 417.366C1975.67 427.683 2008.93 442.279 2042.18 456.871M2042.18 456.871C2075.45 442.279 2108.71 427.683 2141.97 417.366C2175.23 407.043 2208.49 401 2241.75 401C2275.01 401 2308.27 407.043 2341.53 417.366C2374.79 427.683 2408.05 442.279 2441.31 456.871M2042.18 456.871C2075.45 471.463 2108.71 486.059 2141.97 496.377C2175.23 506.699 2208.49 512.742 2241.75 512.742C2275.01 512.742 2308.27 506.699 2341.53 496.377C2374.79 486.059 2408.05 471.463 2441.31 456.871M2441.31 456.871C2474.57 471.463 2507.83 486.059 2541.09 496.377C2574.35 506.699 2607.61 512.742 2640.87 512.742C2674.13 512.742 2707.4 506.699 2740.65 496.377C2773.91 486.059 2807.17 471.463 2840.44 456.871C2807.17 442.279 2773.91 427.683 2740.65 417.366C2707.4 407.043 2674.13 401 2640.87 401C2607.61 401 2574.35 407.043 2541.09 417.366C2507.83 427.683 2474.57 442.279 2441.31 456.871Z" stroke="#00E494" stroke-width="3"/>
<path d="M70.2669 262.398C68.1268 262.398 66.3039 261.815 64.7982 260.651C63.2925 259.476 62.1419 257.777 61.3465 255.551C60.551 253.316 60.1533 250.617 60.1533 247.455C60.1533 244.311 60.551 241.626 61.3465 239.401C62.1514 237.166 63.3067 235.461 64.8124 234.287C66.3275 233.103 68.1457 232.511 70.2669 232.511C72.3881 232.511 74.2016 233.103 75.7073 234.287C77.2224 235.461 78.3777 237.166 79.1732 239.401C79.9781 241.626 80.3806 244.311 80.3806 247.455C80.3806 250.617 79.9828 253.316 79.1874 255.551C78.3919 257.777 77.2414 259.476 75.7357 260.651C74.23 261.815 72.4071 262.398 70.2669 262.398ZM70.2669 259.273C72.3881 259.273 74.0359 258.25 75.2101 256.205C76.3844 254.159 76.9715 251.242 76.9715 247.455C76.9715 244.936 76.7016 242.791 76.1618 241.02C75.6315 239.249 74.8645 237.9 73.8607 236.972C72.8664 236.044 71.6685 235.58 70.2669 235.58C68.1647 235.58 66.5217 236.616 65.338 238.69C64.1542 240.755 63.5624 243.676 63.5624 247.455C63.5624 249.973 63.8275 252.114 64.3578 253.875C64.8881 255.636 65.6505 256.976 66.6448 257.895C67.6486 258.813 68.856 259.273 70.2669 259.273Z" fill="#CDCDCD"/>
<path d="M2821.52 232.909V262H2817.99V236.602H2817.82L2810.72 241.318V237.739L2817.99 232.909H2821.52Z" fill="#CDCDCD"/>
<path d="M1428.62 232.909V262H1425.1V236.602H1424.93L1417.83 241.318V237.739L1425.1 232.909H1428.62ZM1447.33 231.545L1437.96 266.375H1434.89L1444.26 231.545H1447.33ZM1451.25 262V259.443L1460.85 248.932C1461.98 247.701 1462.9 246.631 1463.63 245.722C1464.36 244.803 1464.9 243.941 1465.25 243.136C1465.61 242.322 1465.79 241.47 1465.79 240.58C1465.79 239.557 1465.55 238.671 1465.05 237.923C1464.57 237.175 1463.91 236.598 1463.07 236.19C1462.22 235.783 1461.28 235.58 1460.22 235.58C1459.11 235.58 1458.13 235.812 1457.3 236.276C1456.47 236.73 1455.84 237.369 1455.38 238.193C1454.94 239.017 1454.71 239.983 1454.71 241.091H1451.36C1451.36 239.386 1451.75 237.89 1452.54 236.602C1453.33 235.314 1454.4 234.311 1455.75 233.591C1457.11 232.871 1458.64 232.511 1460.34 232.511C1462.04 232.511 1463.55 232.871 1464.87 233.591C1466.19 234.311 1467.22 235.281 1467.97 236.503C1468.71 237.724 1469.09 239.083 1469.09 240.58C1469.09 241.65 1468.89 242.696 1468.51 243.719C1468.13 244.732 1467.46 245.864 1466.52 247.114C1465.58 248.354 1464.28 249.869 1462.61 251.659L1456.08 258.648V258.875H1469.6V262H1451.25Z" fill="#CDCDCD"/>
<path d="M962.353 232.909V262H958.831V236.602H958.66L951.558 241.318V237.739L958.831 232.909H962.353ZM981.061 231.545L971.686 266.375H968.618L977.993 231.545H981.061ZM994.807 262.398C992.932 262.398 991.261 262.076 989.793 261.432C988.335 260.788 987.175 259.893 986.313 258.747C985.461 257.592 984.997 256.252 984.921 254.727H988.5C988.576 255.665 988.898 256.474 989.466 257.156C990.035 257.829 990.778 258.349 991.697 258.719C992.615 259.088 993.633 259.273 994.75 259.273C996 259.273 997.108 259.055 998.074 258.619C999.04 258.184 999.798 257.578 1000.35 256.801C1000.9 256.025 1001.17 255.125 1001.17 254.102C1001.17 253.032 1000.91 252.09 1000.38 251.276C999.845 250.452 999.069 249.808 998.046 249.344C997.023 248.88 995.773 248.648 994.296 248.648H991.966V245.523H994.296C995.451 245.523 996.465 245.314 997.336 244.898C998.216 244.481 998.903 243.894 999.395 243.136C999.897 242.379 1000.15 241.489 1000.15 240.466C1000.15 239.481 999.93 238.624 999.495 237.895C999.059 237.166 998.444 236.598 997.648 236.19C996.862 235.783 995.934 235.58 994.864 235.58C993.86 235.58 992.913 235.764 992.023 236.134C991.143 236.493 990.423 237.019 989.864 237.71C989.305 238.392 989.002 239.216 988.955 240.182H985.546C985.603 238.657 986.062 237.322 986.924 236.176C987.786 235.021 988.912 234.121 990.304 233.477C991.706 232.833 993.245 232.511 994.921 232.511C996.72 232.511 998.264 232.876 999.552 233.605C1000.84 234.325 1001.83 235.277 1002.52 236.46C1003.21 237.644 1003.56 238.922 1003.56 240.295C1003.56 241.934 1003.13 243.33 1002.26 244.486C1001.41 245.641 1000.25 246.441 998.785 246.886V247.114C1000.62 247.417 1002.06 248.198 1003.09 249.457C1004.12 250.707 1004.64 252.256 1004.64 254.102C1004.64 255.684 1004.21 257.104 1003.34 258.364C1002.49 259.614 1001.33 260.598 999.85 261.318C998.373 262.038 996.692 262.398 994.807 262.398Z" fill="#CDCDCD"/>
<path d="M729.433 232.909V262H725.91V236.602H725.74L718.638 241.318V237.739L725.91 232.909H729.433ZM748.14 231.545L738.765 266.375H735.697L745.072 231.545H748.14ZM751.376 256.034V253.136L764.16 232.909H766.262V237.398H764.841L755.182 252.682V252.909H772.398V256.034H751.376ZM765.069 262V255.153V253.804V232.909H768.421V262H765.069Z" fill="#CDCDCD"/>
<path d="M590.404 232.909V262H586.881V236.602H586.71L579.608 241.318V237.739L586.881 232.909H590.404ZM609.111 231.545L599.736 266.375H596.668L606.043 231.545H609.111ZM622.119 262.398C620.452 262.398 618.951 262.066 617.616 261.403C616.281 260.741 615.211 259.831 614.406 258.676C613.601 257.521 613.161 256.205 613.085 254.727H616.494C616.626 256.044 617.223 257.133 618.284 257.994C619.354 258.847 620.632 259.273 622.119 259.273C623.312 259.273 624.373 258.993 625.301 258.435C626.238 257.876 626.972 257.109 627.502 256.134C628.042 255.149 628.312 254.036 628.312 252.795C628.312 251.527 628.033 250.395 627.474 249.401C626.925 248.397 626.167 247.606 625.201 247.028C624.235 246.451 623.132 246.157 621.892 246.148C621.001 246.138 620.088 246.276 619.15 246.56C618.213 246.834 617.441 247.189 616.835 247.625L613.539 247.227L615.301 232.909H630.414V236.034H618.255L617.233 244.614H617.403C618 244.14 618.748 243.747 619.647 243.435C620.547 243.122 621.484 242.966 622.46 242.966C624.24 242.966 625.826 243.392 627.218 244.244C628.62 245.087 629.718 246.242 630.514 247.71C631.319 249.178 631.721 250.854 631.721 252.739C631.721 254.595 631.304 256.252 630.471 257.71C629.647 259.159 628.511 260.305 627.062 261.148C625.613 261.981 623.965 262.398 622.119 262.398Z" fill="#CDCDCD"/>
<path d="M496.962 232.909V262H493.44V236.602H493.269L486.167 241.318V237.739L493.44 232.909H496.962ZM515.67 231.545L506.295 266.375H503.226L512.601 231.545H515.67ZM529.246 262.398C528.052 262.379 526.859 262.152 525.666 261.716C524.473 261.28 523.384 260.546 522.399 259.514C521.414 258.473 520.623 257.066 520.027 255.295C519.43 253.515 519.132 251.28 519.132 248.591C519.132 246.015 519.373 243.733 519.856 241.744C520.339 239.746 521.04 238.065 521.959 236.702C522.877 235.329 523.985 234.287 525.283 233.577C526.589 232.866 528.062 232.511 529.7 232.511C531.329 232.511 532.778 232.838 534.047 233.491C535.325 234.135 536.367 235.035 537.172 236.19C537.977 237.346 538.498 238.676 538.734 240.182H535.268C534.946 238.875 534.321 237.791 533.393 236.929C532.465 236.067 531.234 235.636 529.7 235.636C527.446 235.636 525.671 236.616 524.373 238.577C523.086 240.537 522.437 243.288 522.427 246.83H522.655C523.185 246.025 523.815 245.338 524.544 244.77C525.283 244.192 526.097 243.747 526.987 243.435C527.877 243.122 528.82 242.966 529.814 242.966C531.48 242.966 533.005 243.383 534.388 244.216C535.77 245.04 536.878 246.181 537.712 247.639C538.545 249.088 538.962 250.75 538.962 252.625C538.962 254.424 538.559 256.072 537.754 257.568C536.949 259.055 535.818 260.239 534.359 261.119C532.91 261.991 531.206 262.417 529.246 262.398ZM529.246 259.273C530.439 259.273 531.509 258.974 532.456 258.378C533.412 257.781 534.165 256.981 534.714 255.977C535.273 254.973 535.552 253.856 535.552 252.625C535.552 251.422 535.283 250.329 534.743 249.344C534.212 248.349 533.479 247.559 532.541 246.972C531.613 246.384 530.552 246.091 529.359 246.091C528.46 246.091 527.622 246.271 526.845 246.631C526.069 246.981 525.387 247.464 524.8 248.08C524.222 248.695 523.767 249.401 523.436 250.196C523.105 250.982 522.939 251.811 522.939 252.682C522.939 253.837 523.209 254.917 523.748 255.92C524.298 256.924 525.046 257.734 525.993 258.349C526.949 258.965 528.034 259.273 529.246 259.273Z" fill="#CDCDCD"/>
<path d="M431.496 232.909V262H427.973V236.602H427.803L420.701 241.318V237.739L427.973 232.909H431.496ZM450.203 231.545L440.828 266.375H437.76L447.135 231.545H450.203ZM455.029 262L468.041 236.261V236.034H453.041V232.909H471.677V236.205L458.723 262H455.029Z" fill="#CDCDCD"/>
</svg>
