<svg width="1200" height="700" viewBox="0 0 1200 700" fill="none" xmlns="http://www.w3.org/2000/svg">
<path d="M214 50H117V537H214V50Z" fill="white" stroke="#CDCDCD" stroke-width="0.981132"/>
<path d="M312 50H214V537H312V50Z" fill="white" stroke="#CDCDCD" stroke-width="0.981132"/>
<path d="M409 50H312V537H409V50Z" fill="white" stroke="#CDCDCD" stroke-width="0.981132"/>
<path d="M506 50H409V537H506V50Z" fill="white" stroke="#CDCDCD" stroke-width="0.981132"/>
<path d="M604 50H506V537H604V50Z" fill="white" stroke="#CDCDCD" stroke-width="0.981132"/>
<path d="M701 50H604V537H701V50Z" fill="white" stroke="#CDCDCD" stroke-width="0.981132"/>
<path d="M799 50H701V537H799V50Z" fill="white" stroke="#CDCDCD" stroke-width="0.981132"/>
<path d="M896 50H799V537H896V50Z" fill="white" stroke="#CDCDCD" stroke-width="0.981132"/>
<path d="M994 50H896V537H994V50Z" fill="white" stroke="#CDCDCD" stroke-width="0.981132"/>
<path d="M1091 50H994V537H1091V50Z" fill="white" stroke="#CDCDCD" stroke-width="0.981132"/>
<path d="M921 50H872V294H921V50Z" fill="black" stroke="black" stroke-width="0.981132"/>
<path d="M1018 50H969V294H1018V50Z" fill="black" stroke="black" stroke-width="0.981132"/>
<path d="M239 50H190V294H239V50Z" fill="black" stroke="black" stroke-width="0.981132"/>
<path d="M336 50H287V294H336V50Z" fill="black" stroke="black" stroke-width="0.981132"/>
<path d="M531 50H482V294H531V50Z" fill="black" stroke="black" stroke-width="0.981132"/>
<path d="M628 50H579V294H628V50Z" fill="black" stroke="black" stroke-width="0.981132"/>
<path d="M726 50H677V294H726V50Z" fill="black" stroke="black" stroke-width="0.981132"/>
<path d="M859.526 355.619H854.548C854.457 354.975 854.272 354.403 853.991 353.903C853.711 353.395 853.351 352.963 852.912 352.607C852.473 352.251 851.965 351.978 851.389 351.789C850.821 351.6 850.204 351.505 849.537 351.505C848.332 351.505 847.283 351.804 846.389 352.403C845.495 352.994 844.802 353.857 844.31 354.994C843.817 356.122 843.571 357.494 843.571 359.107C843.571 360.766 843.817 362.16 844.31 363.289C844.81 364.418 845.507 365.27 846.401 365.846C847.295 366.422 848.329 366.709 849.503 366.709C850.162 366.709 850.772 366.622 851.332 366.448C851.901 366.274 852.404 366.02 852.844 365.687C853.283 365.346 853.647 364.933 853.935 364.448C854.23 363.963 854.435 363.41 854.548 362.789L859.526 362.812C859.397 363.88 859.075 364.91 858.56 365.903C858.052 366.887 857.366 367.77 856.503 368.55C855.647 369.323 854.624 369.937 853.435 370.391C852.253 370.838 850.916 371.062 849.423 371.062C847.348 371.062 845.491 370.592 843.855 369.653C842.226 368.713 840.938 367.353 839.991 365.573C839.052 363.793 838.582 361.637 838.582 359.107C838.582 356.569 839.06 354.41 840.014 352.63C840.969 350.85 842.264 349.494 843.901 348.562C845.537 347.622 847.378 347.153 849.423 347.153C850.772 347.153 852.022 347.342 853.173 347.721C854.332 348.1 855.359 348.653 856.253 349.38C857.147 350.1 857.874 350.982 858.435 352.028C859.003 353.073 859.366 354.27 859.526 355.619ZM851.459 425.471V448.744H846.538V425.471H851.459ZM853.183 464.471V487.744H848.263V469.141H848.126L842.797 472.482V468.119L848.558 464.471H853.183Z" fill="#00E494"/>
<path d="M828.994 573.619V572.107H837.999V573.619H834.369V583.744H832.619V573.619H828.994ZM842.263 583.92C841.445 583.92 840.731 583.732 840.121 583.357C839.512 582.982 839.038 582.458 838.701 581.783C838.364 581.109 838.195 580.321 838.195 579.42C838.195 578.514 838.364 577.723 838.701 577.045C839.038 576.367 839.512 575.84 840.121 575.465C840.731 575.09 841.445 574.903 842.263 574.903C843.082 574.903 843.796 575.09 844.406 575.465C845.015 575.84 845.489 576.367 845.826 577.045C846.163 577.723 846.332 578.514 846.332 579.42C846.332 580.321 846.163 581.109 845.826 581.783C845.489 582.458 845.015 582.982 844.406 583.357C843.796 583.732 843.082 583.92 842.263 583.92ZM842.269 582.494C842.799 582.494 843.239 582.353 843.587 582.073C843.936 581.793 844.193 581.42 844.36 580.954C844.531 580.488 844.616 579.975 844.616 579.414C844.616 578.857 844.531 578.346 844.36 577.88C844.193 577.41 843.936 577.033 843.587 576.749C843.239 576.465 842.799 576.323 842.269 576.323C841.735 576.323 841.292 576.465 840.94 576.749C840.591 577.033 840.332 577.41 840.161 577.88C839.995 578.346 839.911 578.857 839.911 579.414C839.911 579.975 839.995 580.488 840.161 580.954C840.332 581.42 840.591 581.793 840.94 582.073C841.292 582.353 841.735 582.494 842.269 582.494ZM849.927 578.562V583.744H848.228V575.016H849.859V576.437H849.967C850.167 575.975 850.482 575.603 850.91 575.323C851.342 575.043 851.885 574.903 852.54 574.903C853.135 574.903 853.656 575.028 854.103 575.278C854.55 575.524 854.897 575.891 855.143 576.38C855.389 576.869 855.512 577.473 855.512 578.192V583.744H853.813V578.397C853.813 577.764 853.648 577.27 853.319 576.914C852.989 576.554 852.537 576.374 851.961 576.374C851.567 576.374 851.217 576.459 850.91 576.63C850.607 576.8 850.366 577.05 850.188 577.38C850.014 577.706 849.927 578.1 849.927 578.562ZM857.79 583.744V575.016H859.489V583.744H857.79ZM858.648 573.67C858.353 573.67 858.099 573.571 857.887 573.374C857.679 573.173 857.575 572.935 857.575 572.658C857.575 572.378 857.679 572.139 857.887 571.942C858.099 571.742 858.353 571.641 858.648 571.641C858.944 571.641 859.196 571.742 859.404 571.942C859.616 572.139 859.722 572.378 859.722 572.658C859.722 572.935 859.616 573.173 859.404 573.374C859.196 573.571 858.944 573.67 858.648 573.67ZM865.451 583.92C864.606 583.92 863.879 583.728 863.269 583.346C862.663 582.959 862.197 582.427 861.871 581.749C861.546 581.071 861.383 580.295 861.383 579.42C861.383 578.533 861.549 577.751 861.883 577.073C862.216 576.391 862.686 575.859 863.292 575.476C863.898 575.094 864.612 574.903 865.434 574.903C866.097 574.903 866.688 575.026 867.207 575.272C867.726 575.514 868.144 575.855 868.462 576.295C868.784 576.734 868.976 577.247 869.036 577.834H867.383C867.292 577.425 867.084 577.073 866.758 576.778C866.436 576.482 866.004 576.334 865.462 576.334C864.989 576.334 864.574 576.459 864.218 576.709C863.866 576.956 863.591 577.308 863.394 577.766C863.197 578.221 863.099 578.759 863.099 579.38C863.099 580.016 863.195 580.565 863.388 581.028C863.582 581.49 863.854 581.848 864.207 582.101C864.563 582.355 864.981 582.482 865.462 582.482C865.784 582.482 866.076 582.423 866.337 582.306C866.603 582.185 866.824 582.012 867.002 581.789C867.184 581.565 867.311 581.297 867.383 580.982H869.036C868.976 581.547 868.792 582.05 868.485 582.494C868.178 582.937 867.767 583.285 867.252 583.539C866.741 583.793 866.14 583.92 865.451 583.92Z" fill="#CDCDCD"/>
<path d="M946.132 370.744H937.882V347.471H946.2C948.541 347.471 950.556 347.937 952.246 348.869C953.935 349.793 955.234 351.122 956.143 352.857C957.06 354.592 957.518 356.668 957.518 359.084C957.518 361.509 957.06 363.592 956.143 365.334C955.234 367.077 953.928 368.414 952.223 369.346C950.526 370.278 948.496 370.744 946.132 370.744ZM942.803 366.528H945.928C947.382 366.528 948.606 366.27 949.598 365.755C950.598 365.232 951.348 364.425 951.848 363.334C952.356 362.236 952.609 360.819 952.609 359.084C952.609 357.365 952.356 355.959 951.848 354.869C951.348 353.778 950.602 352.975 949.609 352.459C948.617 351.944 947.393 351.687 945.939 351.687H942.803V366.528ZM945.474 425.471V448.744H940.554V425.471H945.474ZM954.443 425.471V448.744H949.523V425.471H954.443ZM939.308 487.744V484.198L947.592 476.528C948.297 475.846 948.888 475.232 949.365 474.687C949.85 474.141 950.217 473.607 950.467 473.084C950.717 472.554 950.842 471.982 950.842 471.369C950.842 470.687 950.687 470.1 950.376 469.607C950.066 469.107 949.642 468.725 949.104 468.459C948.566 468.187 947.956 468.05 947.274 468.05C946.562 468.05 945.941 468.194 945.411 468.482C944.88 468.77 944.471 469.183 944.183 469.721C943.895 470.259 943.751 470.899 943.751 471.641H939.081C939.081 470.119 939.426 468.797 940.115 467.675C940.804 466.554 941.77 465.687 943.013 465.073C944.255 464.459 945.687 464.153 947.308 464.153C948.975 464.153 950.426 464.448 951.661 465.039C952.903 465.622 953.869 466.433 954.558 467.471C955.248 468.509 955.592 469.698 955.592 471.039C955.592 471.918 955.418 472.785 955.07 473.641C954.729 474.497 954.119 475.448 953.24 476.494C952.361 477.531 951.123 478.778 949.524 480.232L946.126 483.562V483.721H955.899V487.744H939.308Z" fill="#00E494"/>
<path d="M913.195 575.164C913.135 574.626 912.885 574.209 912.445 573.914C912.006 573.615 911.453 573.465 910.786 573.465C910.309 573.465 909.896 573.541 909.548 573.692C909.199 573.84 908.928 574.045 908.735 574.306C908.546 574.564 908.451 574.857 908.451 575.187C908.451 575.463 908.515 575.702 908.644 575.903C908.777 576.103 908.949 576.272 909.161 576.408C909.377 576.541 909.608 576.653 909.854 576.744C910.101 576.831 910.337 576.903 910.565 576.959L911.701 577.255C912.072 577.346 912.453 577.469 912.843 577.624C913.233 577.78 913.595 577.984 913.928 578.238C914.262 578.492 914.531 578.806 914.735 579.181C914.943 579.556 915.048 580.005 915.048 580.528C915.048 581.187 914.877 581.772 914.536 582.283C914.199 582.795 913.709 583.198 913.065 583.494C912.424 583.789 911.65 583.937 910.741 583.937C909.87 583.937 909.116 583.798 908.479 583.522C907.843 583.245 907.345 582.853 906.985 582.346C906.625 581.834 906.426 581.228 906.388 580.528H908.15C908.184 580.948 908.32 581.298 908.559 581.579C908.801 581.855 909.11 582.062 909.485 582.198C909.864 582.331 910.279 582.397 910.729 582.397C911.226 582.397 911.667 582.319 912.053 582.164C912.443 582.005 912.75 581.785 912.974 581.505C913.197 581.221 913.309 580.889 913.309 580.511C913.309 580.166 913.21 579.884 913.013 579.664C912.82 579.444 912.557 579.262 912.224 579.119C911.894 578.975 911.521 578.848 911.104 578.738L909.729 578.363C908.798 578.109 908.059 577.736 907.513 577.244C906.972 576.751 906.701 576.1 906.701 575.289C906.701 574.619 906.883 574.033 907.246 573.533C907.61 573.033 908.103 572.645 908.724 572.369C909.345 572.088 910.046 571.948 910.826 571.948C911.614 571.948 912.309 572.086 912.911 572.363C913.517 572.639 913.995 573.02 914.343 573.505C914.692 573.986 914.873 574.539 914.888 575.164H913.195ZM922.538 580.124V575.016H924.242V583.744H922.572V582.232H922.481C922.28 582.698 921.958 583.086 921.515 583.397C921.076 583.704 920.528 583.857 919.873 583.857C919.312 583.857 918.816 583.734 918.384 583.488C917.956 583.238 917.619 582.869 917.373 582.38C917.13 581.891 917.009 581.287 917.009 580.567V575.016H918.708V580.363C918.708 580.958 918.873 581.431 919.202 581.783C919.532 582.136 919.96 582.312 920.487 582.312C920.805 582.312 921.121 582.232 921.435 582.073C921.754 581.914 922.017 581.673 922.225 581.351C922.437 581.03 922.541 580.62 922.538 580.124ZM926.525 587.016V575.016H928.184V576.431H928.326C928.424 576.249 928.567 576.039 928.752 575.8C928.938 575.562 929.195 575.353 929.525 575.175C929.854 574.994 930.29 574.903 930.832 574.903C931.536 574.903 932.165 575.081 932.718 575.437C933.271 575.793 933.705 576.306 934.019 576.976C934.337 577.647 934.496 578.454 934.496 579.397C934.496 580.34 934.339 581.149 934.025 581.823C933.71 582.494 933.279 583.011 932.729 583.374C932.18 583.734 931.553 583.914 930.849 583.914C930.318 583.914 929.885 583.825 929.548 583.647C929.214 583.469 928.953 583.261 928.763 583.022C928.574 582.783 928.428 582.571 928.326 582.386H928.224V587.016H926.525ZM928.19 579.38C928.19 579.994 928.279 580.531 928.457 580.994C928.635 581.456 928.892 581.817 929.229 582.079C929.567 582.336 929.979 582.465 930.468 582.465C930.976 582.465 931.4 582.331 931.741 582.062C932.082 581.789 932.339 581.42 932.513 580.954C932.692 580.488 932.781 579.963 932.781 579.38C932.781 578.804 932.693 578.287 932.519 577.829C932.349 577.37 932.091 577.009 931.746 576.744C931.406 576.478 930.979 576.346 930.468 576.346C929.976 576.346 929.559 576.473 929.218 576.726C928.881 576.98 928.625 577.334 928.451 577.789C928.277 578.244 928.19 578.774 928.19 579.38ZM940.161 583.92C939.301 583.92 938.561 583.736 937.94 583.369C937.322 582.997 936.845 582.476 936.508 581.806C936.174 581.132 936.008 580.342 936.008 579.437C936.008 578.543 936.174 577.755 936.508 577.073C936.845 576.391 937.315 575.859 937.917 575.476C938.523 575.094 939.231 574.903 940.042 574.903C940.534 574.903 941.012 574.984 941.474 575.147C941.936 575.31 942.351 575.565 942.718 575.914C943.085 576.262 943.375 576.715 943.587 577.272C943.799 577.825 943.906 578.497 943.906 579.289V579.891H936.968V578.619H942.241C942.241 578.172 942.15 577.776 941.968 577.431C941.786 577.083 941.531 576.808 941.201 576.607C940.875 576.406 940.493 576.306 940.053 576.306C939.576 576.306 939.159 576.423 938.803 576.658C938.451 576.889 938.178 577.192 937.985 577.567C937.796 577.939 937.701 578.342 937.701 578.778V579.772C937.701 580.355 937.803 580.851 938.008 581.261C938.216 581.67 938.506 581.982 938.877 582.198C939.248 582.41 939.682 582.516 940.178 582.516C940.5 582.516 940.794 582.471 941.059 582.38C941.324 582.285 941.553 582.145 941.746 581.959C941.94 581.774 942.087 581.545 942.19 581.272L943.798 581.562C943.669 582.035 943.438 582.45 943.104 582.806C942.775 583.158 942.36 583.433 941.86 583.63C941.364 583.823 940.798 583.92 940.161 583.92ZM945.79 583.744V575.016H947.433V576.403H947.523C947.683 575.933 947.963 575.564 948.364 575.295C948.77 575.022 949.228 574.886 949.739 574.886C949.845 574.886 949.97 574.889 950.114 574.897C950.262 574.905 950.378 574.914 950.461 574.925V576.55C950.393 576.531 950.272 576.511 950.097 576.488C949.923 576.461 949.749 576.448 949.575 576.448C949.173 576.448 948.815 576.533 948.501 576.704C948.19 576.87 947.944 577.103 947.762 577.403C947.58 577.698 947.489 578.035 947.489 578.414V583.744H945.79ZM956.521 575.016V576.38H951.754V575.016H956.521ZM953.032 572.925H954.731V581.181C954.731 581.511 954.78 581.759 954.879 581.925C954.977 582.088 955.104 582.2 955.259 582.261C955.418 582.317 955.591 582.346 955.776 582.346C955.913 582.346 956.032 582.336 956.134 582.317C956.237 582.298 956.316 582.283 956.373 582.272L956.68 583.675C956.581 583.713 956.441 583.751 956.259 583.789C956.077 583.831 955.85 583.853 955.577 583.857C955.13 583.865 954.714 583.785 954.327 583.619C953.941 583.452 953.629 583.194 953.39 582.846C953.151 582.497 953.032 582.06 953.032 581.533V572.925ZM961.982 583.92C961.164 583.92 960.45 583.732 959.84 583.357C959.23 582.982 958.757 582.458 958.42 581.783C958.083 581.109 957.914 580.321 957.914 579.42C957.914 578.514 958.083 577.723 958.42 577.045C958.757 576.367 959.23 575.84 959.84 575.465C960.45 575.09 961.164 574.903 961.982 574.903C962.8 574.903 963.514 575.09 964.124 575.465C964.734 575.84 965.208 576.367 965.545 577.045C965.882 577.723 966.05 578.514 966.05 579.42C966.05 580.321 965.882 581.109 965.545 581.783C965.208 582.458 964.734 582.982 964.124 583.357C963.514 583.732 962.8 583.92 961.982 583.92ZM961.988 582.494C962.518 582.494 962.958 582.353 963.306 582.073C963.655 581.793 963.912 581.42 964.079 580.954C964.249 580.488 964.335 579.975 964.335 579.414C964.335 578.857 964.249 578.346 964.079 577.88C963.912 577.41 963.655 577.033 963.306 576.749C962.958 576.465 962.518 576.323 961.988 576.323C961.454 576.323 961.011 576.465 960.658 576.749C960.31 577.033 960.05 577.41 959.88 577.88C959.713 578.346 959.63 578.857 959.63 579.414C959.63 579.975 959.713 580.488 959.88 580.954C960.05 581.42 960.31 581.793 960.658 582.073C961.011 582.353 961.454 582.494 961.988 582.494ZM969.646 578.562V583.744H967.947V575.016H969.577V576.437H969.685C969.886 575.975 970.201 575.603 970.629 575.323C971.06 575.043 971.604 574.903 972.259 574.903C972.854 574.903 973.375 575.028 973.822 575.278C974.269 575.524 974.615 575.891 974.862 576.38C975.108 576.869 975.231 577.473 975.231 578.192V583.744H973.532V578.397C973.532 577.764 973.367 577.27 973.038 576.914C972.708 576.554 972.255 576.374 971.68 576.374C971.286 576.374 970.935 576.459 970.629 576.63C970.326 576.8 970.085 577.05 969.907 577.38C969.733 577.706 969.646 578.1 969.646 578.562ZM977.509 583.744V575.016H979.208V583.744H977.509ZM978.367 573.67C978.072 573.67 977.818 573.571 977.606 573.374C977.397 573.173 977.293 572.935 977.293 572.658C977.293 572.378 977.397 572.139 977.606 571.942C977.818 571.742 978.072 571.641 978.367 571.641C978.663 571.641 978.915 571.742 979.123 571.942C979.335 572.139 979.441 572.378 979.441 572.658C979.441 572.935 979.335 573.173 979.123 573.374C978.915 573.571 978.663 573.67 978.367 573.67ZM985.17 583.92C984.325 583.92 983.598 583.728 982.988 583.346C982.382 582.959 981.916 582.427 981.59 581.749C981.264 581.071 981.102 580.295 981.102 579.42C981.102 578.533 981.268 577.751 981.602 577.073C981.935 576.391 982.405 575.859 983.011 575.476C983.617 575.094 984.331 574.903 985.153 574.903C985.816 574.903 986.406 575.026 986.925 575.272C987.444 575.514 987.863 575.855 988.181 576.295C988.503 576.734 988.694 577.247 988.755 577.834H987.102C987.011 577.425 986.802 577.073 986.477 576.778C986.155 576.482 985.723 576.334 985.181 576.334C984.708 576.334 984.293 576.459 983.937 576.709C983.585 576.956 983.31 577.308 983.113 577.766C982.916 578.221 982.817 578.759 982.817 579.38C982.817 580.016 982.914 580.565 983.107 581.028C983.3 581.49 983.573 581.848 983.925 582.101C984.281 582.355 984.7 582.482 985.181 582.482C985.503 582.482 985.795 582.423 986.056 582.306C986.321 582.185 986.543 582.012 986.721 581.789C986.903 581.565 987.03 581.297 987.102 580.982H988.755C988.694 581.547 988.511 582.05 988.204 582.494C987.897 582.937 987.486 583.285 986.971 583.539C986.46 583.793 985.859 583.92 985.17 583.92Z" fill="#CDCDCD"/>
<path d="M1036.73 370.744V347.471H1052.41V351.528H1041.65V357.073H1051.6V361.13H1041.65V366.687H1052.45V370.744H1036.73ZM1037.99 425.471V448.744H1033.07V425.471H1037.99ZM1046.96 425.471V448.744H1042.04V425.471H1046.96ZM1055.93 425.471V448.744H1051.01V425.471H1055.93ZM1044.44 488.062C1042.74 488.062 1041.23 487.77 1039.91 487.187C1038.59 486.596 1037.55 485.785 1036.78 484.755C1036.03 483.717 1035.63 482.52 1035.61 481.164H1040.57C1040.6 481.732 1040.78 482.232 1041.12 482.664C1041.47 483.088 1041.93 483.418 1042.51 483.653C1043.09 483.887 1043.73 484.005 1044.45 484.005C1045.2 484.005 1045.87 483.872 1046.44 483.607C1047.02 483.342 1047.47 482.975 1047.79 482.505C1048.12 482.035 1048.28 481.494 1048.28 480.88C1048.28 480.259 1048.11 479.709 1047.76 479.232C1047.42 478.747 1046.93 478.369 1046.28 478.096C1045.65 477.823 1044.89 477.687 1044.01 477.687H1041.84V474.073H1044.01C1044.75 474.073 1045.41 473.944 1045.98 473.687C1046.55 473.429 1047 473.073 1047.32 472.619C1047.63 472.156 1047.79 471.619 1047.79 471.005C1047.79 470.422 1047.65 469.91 1047.37 469.471C1047.1 469.024 1046.71 468.675 1046.21 468.425C1045.72 468.175 1045.15 468.05 1044.49 468.05C1043.82 468.05 1043.21 468.172 1042.66 468.414C1042.1 468.649 1041.66 468.986 1041.33 469.425C1040.99 469.865 1040.82 470.38 1040.79 470.971H1036.08C1036.1 469.63 1036.48 468.448 1037.23 467.425C1037.97 466.403 1038.97 465.603 1040.23 465.028C1041.49 464.444 1042.92 464.153 1044.51 464.153C1046.12 464.153 1047.52 464.444 1048.73 465.028C1049.93 465.611 1050.87 466.399 1051.53 467.391C1052.21 468.376 1052.54 469.482 1052.53 470.709C1052.54 472.012 1052.13 473.1 1051.32 473.971C1050.51 474.842 1049.45 475.395 1048.15 475.63V475.812C1049.86 476.031 1051.16 476.626 1052.06 477.596C1052.96 478.558 1053.4 479.762 1053.4 481.209C1053.4 482.535 1053.02 483.713 1052.25 484.744C1051.48 485.774 1050.43 486.584 1049.08 487.175C1047.73 487.766 1046.18 488.062 1044.44 488.062Z" fill="#00E494"/>
<path d="M1014.59 572.107H1016.72L1020.43 581.153H1020.56L1024.27 572.107H1026.4V583.744H1024.73V575.323H1024.62L1021.19 583.726H1019.8L1016.37 575.317H1016.26V583.744H1014.59V572.107ZM1032.58 583.92C1031.72 583.92 1030.97 583.736 1030.35 583.369C1029.74 582.997 1029.26 582.476 1028.92 581.806C1028.59 581.132 1028.42 580.342 1028.42 579.437C1028.42 578.543 1028.59 577.755 1028.92 577.073C1029.26 576.391 1029.73 575.859 1030.33 575.476C1030.94 575.094 1031.65 574.903 1032.46 574.903C1032.95 574.903 1033.43 574.984 1033.89 575.147C1034.35 575.31 1034.76 575.565 1035.13 575.914C1035.5 576.262 1035.79 576.715 1036 577.272C1036.21 577.825 1036.32 578.497 1036.32 579.289V579.891H1029.38V578.619H1034.65C1034.65 578.172 1034.56 577.776 1034.38 577.431C1034.2 577.083 1033.94 576.808 1033.62 576.607C1033.29 576.406 1032.91 576.306 1032.47 576.306C1031.99 576.306 1031.57 576.423 1031.22 576.658C1030.87 576.889 1030.59 577.192 1030.4 577.567C1030.21 577.939 1030.12 578.342 1030.12 578.778V579.772C1030.12 580.355 1030.22 580.851 1030.42 581.261C1030.63 581.67 1030.92 581.982 1031.29 582.198C1031.66 582.41 1032.1 582.516 1032.59 582.516C1032.91 582.516 1033.21 582.471 1033.47 582.38C1033.74 582.285 1033.97 582.145 1034.16 581.959C1034.35 581.774 1034.5 581.545 1034.6 581.272L1036.21 581.562C1036.08 582.035 1035.85 582.45 1035.52 582.806C1035.19 583.158 1034.77 583.433 1034.27 583.63C1033.78 583.823 1033.21 583.92 1032.58 583.92ZM1041.47 583.914C1040.77 583.914 1040.14 583.734 1039.59 583.374C1039.04 583.011 1038.6 582.494 1038.29 581.823C1037.98 581.149 1037.82 580.34 1037.82 579.397C1037.82 578.454 1037.98 577.647 1038.3 576.976C1038.61 576.306 1039.05 575.793 1039.6 575.437C1040.16 575.081 1040.78 574.903 1041.48 574.903C1042.02 574.903 1042.46 574.994 1042.79 575.175C1043.12 575.353 1043.38 575.562 1043.56 575.8C1043.75 576.039 1043.89 576.249 1043.99 576.431H1044.1V572.107H1045.8V583.744H1044.14V582.386H1043.99C1043.89 582.571 1043.74 582.783 1043.55 583.022C1043.36 583.261 1043.1 583.469 1042.77 583.647C1042.43 583.825 1042 583.914 1041.47 583.914ZM1041.85 582.465C1042.34 582.465 1042.75 582.336 1043.09 582.079C1043.43 581.817 1043.68 581.456 1043.86 580.994C1044.04 580.531 1044.12 579.994 1044.12 579.38C1044.12 578.774 1044.04 578.244 1043.86 577.789C1043.69 577.334 1043.43 576.98 1043.1 576.726C1042.76 576.473 1042.34 576.346 1041.85 576.346C1041.34 576.346 1040.91 576.478 1040.57 576.744C1040.23 577.009 1039.97 577.37 1039.8 577.829C1039.63 578.287 1039.54 578.804 1039.54 579.38C1039.54 579.963 1039.63 580.488 1039.8 580.954C1039.98 581.42 1040.23 581.789 1040.57 582.062C1040.92 582.331 1041.34 582.465 1041.85 582.465ZM1048.22 583.744V575.016H1049.92V583.744H1048.22ZM1049.08 573.67C1048.78 573.67 1048.53 573.571 1048.32 573.374C1048.11 573.173 1048 572.935 1048 572.658C1048 572.378 1048.11 572.139 1048.32 571.942C1048.53 571.742 1048.78 571.641 1049.08 571.641C1049.37 571.641 1049.63 571.742 1049.83 571.942C1050.05 572.139 1050.15 572.378 1050.15 572.658C1050.15 572.935 1050.05 573.173 1049.83 573.374C1049.63 573.571 1049.37 573.67 1049.08 573.67ZM1054.74 583.937C1054.19 583.937 1053.69 583.834 1053.24 583.63C1052.8 583.422 1052.44 583.12 1052.18 582.726C1051.92 582.333 1051.8 581.85 1051.8 581.278C1051.8 580.785 1051.89 580.38 1052.08 580.062C1052.27 579.744 1052.52 579.492 1052.85 579.306C1053.17 579.12 1053.53 578.98 1053.93 578.886C1054.32 578.791 1054.73 578.719 1055.14 578.67C1055.66 578.609 1056.09 578.56 1056.41 578.522C1056.74 578.48 1056.98 578.414 1057.12 578.323C1057.27 578.232 1057.35 578.084 1057.35 577.88V577.84C1057.35 577.344 1057.21 576.959 1056.93 576.687C1056.65 576.414 1056.24 576.278 1055.69 576.278C1055.12 576.278 1054.66 576.405 1054.34 576.658C1054.01 576.908 1053.78 577.187 1053.66 577.494L1052.06 577.13C1052.25 576.6 1052.53 576.172 1052.89 575.846C1053.26 575.516 1053.68 575.278 1054.16 575.13C1054.64 574.978 1055.14 574.903 1055.66 574.903C1056.01 574.903 1056.38 574.944 1056.77 575.028C1057.17 575.107 1057.53 575.255 1057.88 575.471C1058.22 575.687 1058.5 575.995 1058.72 576.397C1058.94 576.795 1059.05 577.312 1059.05 577.948V583.744H1057.39V582.55H1057.32C1057.21 582.77 1057.05 582.986 1056.83 583.198C1056.61 583.41 1056.33 583.586 1055.98 583.726C1055.64 583.867 1055.23 583.937 1054.74 583.937ZM1055.11 582.573C1055.58 582.573 1055.98 582.48 1056.32 582.295C1056.66 582.109 1056.91 581.867 1057.09 581.567C1057.26 581.264 1057.35 580.94 1057.35 580.596V579.471C1057.29 579.531 1057.17 579.588 1057 579.641C1056.83 579.69 1056.63 579.734 1056.41 579.772C1056.2 579.806 1055.98 579.838 1055.77 579.869C1055.56 579.895 1055.39 579.918 1055.25 579.937C1054.92 579.978 1054.62 580.048 1054.35 580.147C1054.08 580.245 1053.86 580.387 1053.7 580.573C1053.54 580.755 1053.46 580.997 1053.46 581.3C1053.46 581.721 1053.62 582.039 1053.93 582.255C1054.24 582.467 1054.63 582.573 1055.11 582.573ZM1063.01 578.562V583.744H1061.31V575.016H1062.94V576.437H1063.05C1063.25 575.975 1063.57 575.603 1064 575.323C1064.43 575.043 1064.97 574.903 1065.63 574.903C1066.22 574.903 1066.74 575.028 1067.19 575.278C1067.64 575.524 1067.98 575.891 1068.23 576.38C1068.47 576.869 1068.6 577.473 1068.6 578.192V583.744H1066.9V578.397C1066.9 577.764 1066.73 577.27 1066.4 576.914C1066.08 576.554 1065.62 576.374 1065.05 576.374C1064.65 576.374 1064.3 576.459 1064 576.63C1063.69 576.8 1063.45 577.05 1063.27 577.38C1063.1 577.706 1063.01 578.1 1063.01 578.562ZM1074.95 575.016V576.38H1070.18V575.016H1074.95ZM1071.46 572.925H1073.16V581.181C1073.16 581.511 1073.21 581.759 1073.31 581.925C1073.41 582.088 1073.53 582.2 1073.69 582.261C1073.85 582.317 1074.02 582.346 1074.21 582.346C1074.34 582.346 1074.46 582.336 1074.56 582.317C1074.67 582.298 1074.75 582.283 1074.8 582.272L1075.11 583.675C1075.01 583.713 1074.87 583.751 1074.69 583.789C1074.51 583.831 1074.28 583.853 1074.01 583.857C1073.56 583.865 1073.14 583.785 1072.76 583.619C1072.37 583.452 1072.06 583.194 1071.82 582.846C1071.58 582.497 1071.46 582.06 1071.46 581.533V572.925Z" fill="#CDCDCD"/>
<path d="M183.526 355.619H178.548C178.457 354.975 178.272 354.403 177.991 353.903C177.711 353.395 177.351 352.963 176.912 352.607C176.473 352.251 175.965 351.978 175.389 351.789C174.821 351.6 174.204 351.505 173.537 351.505C172.332 351.505 171.283 351.804 170.389 352.403C169.495 352.994 168.802 353.857 168.31 354.994C167.817 356.122 167.571 357.494 167.571 359.107C167.571 360.766 167.817 362.16 168.31 363.289C168.81 364.418 169.507 365.27 170.401 365.846C171.295 366.422 172.329 366.709 173.503 366.709C174.162 366.709 174.772 366.622 175.332 366.448C175.901 366.274 176.404 366.02 176.844 365.687C177.283 365.346 177.647 364.933 177.935 364.448C178.23 363.963 178.435 363.41 178.548 362.789L183.526 362.812C183.397 363.88 183.075 364.91 182.56 365.903C182.052 366.887 181.366 367.77 180.503 368.55C179.647 369.323 178.624 369.937 177.435 370.391C176.253 370.838 174.916 371.062 173.423 371.062C171.348 371.062 169.491 370.592 167.855 369.653C166.226 368.713 164.938 367.353 163.991 365.573C163.052 363.793 162.582 361.637 162.582 359.107C162.582 356.569 163.06 354.41 164.014 352.63C164.969 350.85 166.264 349.494 167.901 348.562C169.537 347.622 171.378 347.153 173.423 347.153C174.772 347.153 176.022 347.342 177.173 347.721C178.332 348.1 179.359 348.653 180.253 349.38C181.147 350.1 181.874 350.982 182.435 352.028C183.003 353.073 183.366 354.27 183.526 355.619ZM175.459 425.471V448.744H170.538V425.471H175.459ZM177.183 464.471V487.744H172.263V469.141H172.126L166.797 472.482V468.119L172.558 464.471H177.183Z" fill="#00E494"/>
<path d="M152.994 573.619V572.107H161.999V573.619H158.369V583.744H156.619V573.619H152.994ZM166.263 583.92C165.445 583.92 164.731 583.732 164.121 583.357C163.512 582.982 163.038 582.458 162.701 581.783C162.364 581.109 162.195 580.321 162.195 579.42C162.195 578.514 162.364 577.723 162.701 577.045C163.038 576.367 163.512 575.84 164.121 575.465C164.731 575.09 165.445 574.903 166.263 574.903C167.082 574.903 167.796 575.09 168.406 575.465C169.015 575.84 169.489 576.367 169.826 577.045C170.163 577.723 170.332 578.514 170.332 579.42C170.332 580.321 170.163 581.109 169.826 581.783C169.489 582.458 169.015 582.982 168.406 583.357C167.796 583.732 167.082 583.92 166.263 583.92ZM166.269 582.494C166.799 582.494 167.239 582.353 167.587 582.073C167.936 581.793 168.193 581.42 168.36 580.954C168.531 580.488 168.616 579.975 168.616 579.414C168.616 578.857 168.531 578.346 168.36 577.88C168.193 577.41 167.936 577.033 167.587 576.749C167.239 576.465 166.799 576.323 166.269 576.323C165.735 576.323 165.292 576.465 164.94 576.749C164.591 577.033 164.332 577.41 164.161 577.88C163.995 578.346 163.911 578.857 163.911 579.414C163.911 579.975 163.995 580.488 164.161 580.954C164.332 581.42 164.591 581.793 164.94 582.073C165.292 582.353 165.735 582.494 166.269 582.494ZM173.927 578.562V583.744H172.228V575.016H173.859V576.437H173.967C174.167 575.975 174.482 575.603 174.91 575.323C175.342 575.043 175.885 574.903 176.54 574.903C177.135 574.903 177.656 575.028 178.103 575.278C178.55 575.524 178.897 575.891 179.143 576.38C179.389 576.869 179.512 577.473 179.512 578.192V583.744H177.813V578.397C177.813 577.764 177.648 577.27 177.319 576.914C176.989 576.554 176.537 576.374 175.961 576.374C175.567 576.374 175.217 576.459 174.91 576.63C174.607 576.8 174.366 577.05 174.188 577.38C174.014 577.706 173.927 578.1 173.927 578.562ZM181.79 583.744V575.016H183.489V583.744H181.79ZM182.648 573.67C182.353 573.67 182.099 573.571 181.887 573.374C181.679 573.173 181.575 572.935 181.575 572.658C181.575 572.378 181.679 572.139 181.887 571.942C182.099 571.742 182.353 571.641 182.648 571.641C182.944 571.641 183.196 571.742 183.404 571.942C183.616 572.139 183.722 572.378 183.722 572.658C183.722 572.935 183.616 573.173 183.404 573.374C183.196 573.571 182.944 573.67 182.648 573.67ZM189.451 583.92C188.606 583.92 187.879 583.728 187.269 583.346C186.663 582.959 186.197 582.427 185.871 581.749C185.546 581.071 185.383 580.295 185.383 579.42C185.383 578.533 185.549 577.751 185.883 577.073C186.216 576.391 186.686 575.859 187.292 575.476C187.898 575.094 188.612 574.903 189.434 574.903C190.097 574.903 190.688 575.026 191.207 575.272C191.726 575.514 192.144 575.855 192.462 576.295C192.784 576.734 192.976 577.247 193.036 577.834H191.383C191.292 577.425 191.084 577.073 190.758 576.778C190.436 576.482 190.004 576.334 189.462 576.334C188.989 576.334 188.574 576.459 188.218 576.709C187.866 576.956 187.591 577.308 187.394 577.766C187.197 578.221 187.099 578.759 187.099 579.38C187.099 580.016 187.195 580.565 187.388 581.028C187.582 581.49 187.854 581.848 188.207 582.101C188.563 582.355 188.981 582.482 189.462 582.482C189.784 582.482 190.076 582.423 190.337 582.306C190.603 582.185 190.824 582.012 191.002 581.789C191.184 581.565 191.311 581.297 191.383 580.982H193.036C192.976 581.547 192.792 582.05 192.485 582.494C192.178 582.937 191.767 583.285 191.252 583.539C190.741 583.793 190.14 583.92 189.451 583.92Z" fill="#CDCDCD"/>
<path d="M270.132 370.744H261.882V347.471H270.2C272.541 347.471 274.556 347.937 276.246 348.869C277.935 349.793 279.234 351.122 280.143 352.857C281.06 354.592 281.518 356.668 281.518 359.084C281.518 361.509 281.06 363.592 280.143 365.334C279.234 367.077 277.928 368.414 276.223 369.346C274.526 370.278 272.496 370.744 270.132 370.744ZM266.803 366.528H269.928C271.382 366.528 272.606 366.27 273.598 365.755C274.598 365.232 275.348 364.425 275.848 363.334C276.356 362.236 276.609 360.819 276.609 359.084C276.609 357.365 276.356 355.959 275.848 354.869C275.348 353.778 274.602 352.975 273.609 352.459C272.617 351.944 271.393 351.687 269.939 351.687H266.803V366.528ZM269.474 425.471V448.744H264.554V425.471H269.474ZM278.443 425.471V448.744H273.523V425.471H278.443ZM263.308 487.744V484.198L271.592 476.528C272.297 475.846 272.888 475.232 273.365 474.687C273.85 474.141 274.217 473.607 274.467 473.084C274.717 472.554 274.842 471.982 274.842 471.369C274.842 470.687 274.687 470.1 274.376 469.607C274.066 469.107 273.642 468.725 273.104 468.459C272.566 468.187 271.956 468.05 271.274 468.05C270.562 468.05 269.941 468.194 269.411 468.482C268.88 468.77 268.471 469.183 268.183 469.721C267.895 470.259 267.751 470.899 267.751 471.641H263.081C263.081 470.119 263.426 468.797 264.115 467.675C264.804 466.554 265.77 465.687 267.013 465.073C268.255 464.459 269.687 464.153 271.308 464.153C272.975 464.153 274.426 464.448 275.661 465.039C276.903 465.622 277.869 466.433 278.558 467.471C279.248 468.509 279.592 469.698 279.592 471.039C279.592 471.918 279.418 472.785 279.07 473.641C278.729 474.497 278.119 475.448 277.24 476.494C276.361 477.531 275.123 478.778 273.524 480.232L270.126 483.562V483.721H279.899V487.744H263.308Z" fill="#00E494"/>
<path d="M237.195 575.164C237.135 574.626 236.885 574.209 236.445 573.914C236.006 573.615 235.453 573.465 234.786 573.465C234.309 573.465 233.896 573.541 233.548 573.692C233.199 573.84 232.928 574.045 232.735 574.306C232.546 574.564 232.451 574.857 232.451 575.187C232.451 575.463 232.515 575.702 232.644 575.903C232.777 576.103 232.949 576.272 233.161 576.408C233.377 576.541 233.608 576.653 233.854 576.744C234.101 576.831 234.337 576.903 234.565 576.959L235.701 577.255C236.072 577.346 236.453 577.469 236.843 577.624C237.233 577.78 237.595 577.984 237.928 578.238C238.262 578.492 238.531 578.806 238.735 579.181C238.943 579.556 239.048 580.005 239.048 580.528C239.048 581.187 238.877 581.772 238.536 582.283C238.199 582.795 237.709 583.198 237.065 583.494C236.424 583.789 235.65 583.937 234.741 583.937C233.87 583.937 233.116 583.798 232.479 583.522C231.843 583.245 231.345 582.853 230.985 582.346C230.625 581.834 230.426 581.228 230.388 580.528H232.15C232.184 580.948 232.32 581.298 232.559 581.579C232.801 581.855 233.11 582.062 233.485 582.198C233.864 582.331 234.279 582.397 234.729 582.397C235.226 582.397 235.667 582.319 236.053 582.164C236.443 582.005 236.75 581.785 236.974 581.505C237.197 581.221 237.309 580.889 237.309 580.511C237.309 580.166 237.21 579.884 237.013 579.664C236.82 579.444 236.557 579.262 236.224 579.119C235.894 578.975 235.521 578.848 235.104 578.738L233.729 578.363C232.798 578.109 232.059 577.736 231.513 577.244C230.972 576.751 230.701 576.1 230.701 575.289C230.701 574.619 230.883 574.033 231.246 573.533C231.61 573.033 232.103 572.645 232.724 572.369C233.345 572.088 234.046 571.948 234.826 571.948C235.614 571.948 236.309 572.086 236.911 572.363C237.517 572.639 237.995 573.02 238.343 573.505C238.692 573.986 238.873 574.539 238.888 575.164H237.195ZM246.538 580.124V575.016H248.242V583.744H246.572V582.232H246.481C246.28 582.698 245.958 583.086 245.515 583.397C245.076 583.704 244.528 583.857 243.873 583.857C243.312 583.857 242.816 583.734 242.384 583.488C241.956 583.238 241.619 582.869 241.373 582.38C241.13 581.891 241.009 581.287 241.009 580.567V575.016H242.708V580.363C242.708 580.958 242.873 581.431 243.202 581.783C243.532 582.136 243.96 582.312 244.487 582.312C244.805 582.312 245.121 582.232 245.435 582.073C245.754 581.914 246.017 581.673 246.225 581.351C246.437 581.03 246.541 580.62 246.538 580.124ZM250.525 587.016V575.016H252.184V576.431H252.326C252.424 576.249 252.567 576.039 252.752 575.8C252.938 575.562 253.195 575.353 253.525 575.175C253.854 574.994 254.29 574.903 254.832 574.903C255.536 574.903 256.165 575.081 256.718 575.437C257.271 575.793 257.705 576.306 258.019 576.976C258.337 577.647 258.496 578.454 258.496 579.397C258.496 580.34 258.339 581.149 258.025 581.823C257.71 582.494 257.279 583.011 256.729 583.374C256.18 583.734 255.553 583.914 254.849 583.914C254.318 583.914 253.885 583.825 253.548 583.647C253.214 583.469 252.953 583.261 252.763 583.022C252.574 582.783 252.428 582.571 252.326 582.386H252.224V587.016H250.525ZM252.19 579.38C252.19 579.994 252.279 580.531 252.457 580.994C252.635 581.456 252.892 581.817 253.229 582.079C253.567 582.336 253.979 582.465 254.468 582.465C254.976 582.465 255.4 582.331 255.741 582.062C256.082 581.789 256.339 581.42 256.513 580.954C256.692 580.488 256.781 579.963 256.781 579.38C256.781 578.804 256.693 578.287 256.519 577.829C256.349 577.37 256.091 577.009 255.746 576.744C255.406 576.478 254.979 576.346 254.468 576.346C253.976 576.346 253.559 576.473 253.218 576.726C252.881 576.98 252.625 577.334 252.451 577.789C252.277 578.244 252.19 578.774 252.19 579.38ZM264.161 583.92C263.301 583.92 262.561 583.736 261.94 583.369C261.322 582.997 260.845 582.476 260.508 581.806C260.174 581.132 260.008 580.342 260.008 579.437C260.008 578.543 260.174 577.755 260.508 577.073C260.845 576.391 261.315 575.859 261.917 575.476C262.523 575.094 263.231 574.903 264.042 574.903C264.534 574.903 265.012 574.984 265.474 575.147C265.936 575.31 266.351 575.565 266.718 575.914C267.085 576.262 267.375 576.715 267.587 577.272C267.799 577.825 267.906 578.497 267.906 579.289V579.891H260.968V578.619H266.241C266.241 578.172 266.15 577.776 265.968 577.431C265.786 577.083 265.531 576.808 265.201 576.607C264.875 576.406 264.493 576.306 264.053 576.306C263.576 576.306 263.159 576.423 262.803 576.658C262.451 576.889 262.178 577.192 261.985 577.567C261.796 577.939 261.701 578.342 261.701 578.778V579.772C261.701 580.355 261.803 580.851 262.008 581.261C262.216 581.67 262.506 581.982 262.877 582.198C263.248 582.41 263.682 582.516 264.178 582.516C264.5 582.516 264.794 582.471 265.059 582.38C265.324 582.285 265.553 582.145 265.746 581.959C265.94 581.774 266.087 581.545 266.19 581.272L267.798 581.562C267.669 582.035 267.438 582.45 267.104 582.806C266.775 583.158 266.36 583.433 265.86 583.63C265.364 583.823 264.798 583.92 264.161 583.92ZM269.79 583.744V575.016H271.433V576.403H271.523C271.683 575.933 271.963 575.564 272.364 575.295C272.77 575.022 273.228 574.886 273.739 574.886C273.845 574.886 273.97 574.889 274.114 574.897C274.262 574.905 274.378 574.914 274.461 574.925V576.55C274.393 576.531 274.272 576.511 274.097 576.488C273.923 576.461 273.749 576.448 273.575 576.448C273.173 576.448 272.815 576.533 272.501 576.704C272.19 576.87 271.944 577.103 271.762 577.403C271.58 577.698 271.489 578.035 271.489 578.414V583.744H269.79ZM280.521 575.016V576.38H275.754V575.016H280.521ZM277.032 572.925H278.731V581.181C278.731 581.511 278.78 581.759 278.879 581.925C278.977 582.088 279.104 582.2 279.259 582.261C279.418 582.317 279.591 582.346 279.776 582.346C279.913 582.346 280.032 582.336 280.134 582.317C280.237 582.298 280.316 582.283 280.373 582.272L280.68 583.675C280.581 583.713 280.441 583.751 280.259 583.789C280.077 583.831 279.85 583.853 279.577 583.857C279.13 583.865 278.714 583.785 278.327 583.619C277.941 583.452 277.629 583.194 277.39 582.846C277.151 582.497 277.032 582.06 277.032 581.533V572.925ZM285.982 583.92C285.164 583.92 284.45 583.732 283.84 583.357C283.23 582.982 282.757 582.458 282.42 581.783C282.083 581.109 281.914 580.321 281.914 579.42C281.914 578.514 282.083 577.723 282.42 577.045C282.757 576.367 283.23 575.84 283.84 575.465C284.45 575.09 285.164 574.903 285.982 574.903C286.8 574.903 287.514 575.09 288.124 575.465C288.734 575.84 289.208 576.367 289.545 577.045C289.882 577.723 290.05 578.514 290.05 579.42C290.05 580.321 289.882 581.109 289.545 581.783C289.208 582.458 288.734 582.982 288.124 583.357C287.514 583.732 286.8 583.92 285.982 583.92ZM285.988 582.494C286.518 582.494 286.958 582.353 287.306 582.073C287.655 581.793 287.912 581.42 288.079 580.954C288.249 580.488 288.335 579.975 288.335 579.414C288.335 578.857 288.249 578.346 288.079 577.88C287.912 577.41 287.655 577.033 287.306 576.749C286.958 576.465 286.518 576.323 285.988 576.323C285.454 576.323 285.011 576.465 284.658 576.749C284.31 577.033 284.05 577.41 283.88 577.88C283.713 578.346 283.63 578.857 283.63 579.414C283.63 579.975 283.713 580.488 283.88 580.954C284.05 581.42 284.31 581.793 284.658 582.073C285.011 582.353 285.454 582.494 285.988 582.494ZM293.646 578.562V583.744H291.947V575.016H293.577V576.437H293.685C293.886 575.975 294.201 575.603 294.629 575.323C295.06 575.043 295.604 574.903 296.259 574.903C296.854 574.903 297.375 575.028 297.822 575.278C298.269 575.524 298.615 575.891 298.862 576.38C299.108 576.869 299.231 577.473 299.231 578.192V583.744H297.532V578.397C297.532 577.764 297.367 577.27 297.038 576.914C296.708 576.554 296.255 576.374 295.68 576.374C295.286 576.374 294.935 576.459 294.629 576.63C294.326 576.8 294.085 577.05 293.907 577.38C293.733 577.706 293.646 578.1 293.646 578.562ZM301.509 583.744V575.016H303.208V583.744H301.509ZM302.367 573.67C302.072 573.67 301.818 573.571 301.606 573.374C301.397 573.173 301.293 572.935 301.293 572.658C301.293 572.378 301.397 572.139 301.606 571.942C301.818 571.742 302.072 571.641 302.367 571.641C302.663 571.641 302.915 571.742 303.123 571.942C303.335 572.139 303.441 572.378 303.441 572.658C303.441 572.935 303.335 573.173 303.123 573.374C302.915 573.571 302.663 573.67 302.367 573.67ZM309.17 583.92C308.325 583.92 307.598 583.728 306.988 583.346C306.382 582.959 305.916 582.427 305.59 581.749C305.264 581.071 305.102 580.295 305.102 579.42C305.102 578.533 305.268 577.751 305.602 577.073C305.935 576.391 306.405 575.859 307.011 575.476C307.617 575.094 308.331 574.903 309.153 574.903C309.816 574.903 310.406 575.026 310.925 575.272C311.444 575.514 311.863 575.855 312.181 576.295C312.503 576.734 312.694 577.247 312.755 577.834H311.102C311.011 577.425 310.802 577.073 310.477 576.778C310.155 576.482 309.723 576.334 309.181 576.334C308.708 576.334 308.293 576.459 307.937 576.709C307.585 576.956 307.31 577.308 307.113 577.766C306.916 578.221 306.817 578.759 306.817 579.38C306.817 580.016 306.914 580.565 307.107 581.028C307.3 581.49 307.573 581.848 307.925 582.101C308.281 582.355 308.7 582.482 309.181 582.482C309.503 582.482 309.795 582.423 310.056 582.306C310.321 582.185 310.543 582.012 310.721 581.789C310.903 581.565 311.03 581.297 311.102 580.982H312.755C312.694 581.547 312.511 582.05 312.204 582.494C311.897 582.937 311.486 583.285 310.971 583.539C310.46 583.793 309.859 583.92 309.17 583.92Z" fill="#CDCDCD"/>
<path d="M360.726 370.744V347.471H376.408V351.528H365.646V357.073H375.601V361.13H365.646V366.687H376.453V370.744H360.726ZM361.99 425.471V448.744H357.07V425.471H361.99ZM370.959 425.471V448.744H366.038V425.471H370.959ZM379.928 425.471V448.744H375.007V425.471H379.928ZM368.442 488.062C366.745 488.062 365.233 487.77 363.908 487.187C362.589 486.596 361.548 485.785 360.783 484.755C360.025 483.717 359.635 482.52 359.612 481.164H364.567C364.597 481.732 364.783 482.232 365.124 482.664C365.472 483.088 365.934 483.418 366.51 483.653C367.086 483.887 367.733 484.005 368.453 484.005C369.203 484.005 369.866 483.872 370.442 483.607C371.018 483.342 371.468 482.975 371.794 482.505C372.12 482.035 372.283 481.494 372.283 480.88C372.283 480.259 372.108 479.709 371.76 479.232C371.419 478.747 370.927 478.369 370.283 478.096C369.646 477.823 368.889 477.687 368.01 477.687H365.839V474.073H368.01C368.752 474.073 369.408 473.944 369.976 473.687C370.552 473.429 370.999 473.073 371.317 472.619C371.635 472.156 371.794 471.619 371.794 471.005C371.794 470.422 371.654 469.91 371.374 469.471C371.101 469.024 370.714 468.675 370.214 468.425C369.722 468.175 369.146 468.05 368.487 468.05C367.821 468.05 367.211 468.172 366.658 468.414C366.105 468.649 365.661 468.986 365.328 469.425C364.995 469.865 364.817 470.38 364.794 470.971H360.078C360.101 469.63 360.483 468.448 361.226 467.425C361.968 466.403 362.968 465.603 364.226 465.028C365.491 464.444 366.919 464.153 368.51 464.153C370.116 464.153 371.521 464.444 372.726 465.028C373.93 465.611 374.866 466.399 375.533 467.391C376.207 468.376 376.54 469.482 376.533 470.709C376.54 472.012 376.135 473.1 375.317 473.971C374.506 474.842 373.449 475.395 372.146 475.63V475.812C373.858 476.031 375.161 476.626 376.055 477.596C376.957 478.558 377.404 479.762 377.396 481.209C377.404 482.535 377.021 483.713 376.249 484.744C375.483 485.774 374.427 486.584 373.078 487.175C371.73 487.766 370.184 488.062 368.442 488.062Z" fill="#00E494"/>
<path d="M338.591 572.107H340.722L344.426 581.153H344.562L348.267 572.107H350.398V583.744H348.727V575.323H348.619L345.188 583.726H343.801L340.369 575.317H340.261V583.744H338.591V572.107ZM356.575 583.92C355.715 583.92 354.975 583.736 354.354 583.369C353.736 582.997 353.259 582.476 352.922 581.806C352.589 581.132 352.422 580.342 352.422 579.437C352.422 578.543 352.589 577.755 352.922 577.073C353.259 576.391 353.729 575.859 354.331 575.476C354.937 575.094 355.645 574.903 356.456 574.903C356.948 574.903 357.426 574.984 357.888 575.147C358.35 575.31 358.765 575.565 359.132 575.914C359.5 576.262 359.789 576.715 360.001 577.272C360.214 577.825 360.32 578.497 360.32 579.289V579.891H353.382V578.619H358.655C358.655 578.172 358.564 577.776 358.382 577.431C358.2 577.083 357.945 576.808 357.615 576.607C357.289 576.406 356.907 576.306 356.467 576.306C355.99 576.306 355.573 576.423 355.217 576.658C354.865 576.889 354.592 577.192 354.399 577.567C354.21 577.939 354.115 578.342 354.115 578.778V579.772C354.115 580.355 354.217 580.851 354.422 581.261C354.63 581.67 354.92 581.982 355.291 582.198C355.662 582.41 356.096 582.516 356.592 582.516C356.914 582.516 357.208 582.471 357.473 582.38C357.738 582.285 357.967 582.145 358.161 581.959C358.354 581.774 358.501 581.545 358.604 581.272L360.212 581.562C360.083 582.035 359.852 582.45 359.518 582.806C359.189 583.158 358.774 583.433 358.274 583.63C357.778 583.823 357.212 583.92 356.575 583.92ZM365.472 583.914C364.767 583.914 364.138 583.734 363.585 583.374C363.036 583.011 362.604 582.494 362.29 581.823C361.979 581.149 361.824 580.34 361.824 579.397C361.824 578.454 361.981 577.647 362.295 576.976C362.614 576.306 363.049 575.793 363.602 575.437C364.155 575.081 364.782 574.903 365.483 574.903C366.025 574.903 366.46 574.994 366.79 575.175C367.123 575.353 367.381 575.562 367.562 575.8C367.748 576.039 367.892 576.249 367.994 576.431H368.097V572.107H369.795V583.744H368.136V582.386H367.994C367.892 582.571 367.744 582.783 367.551 583.022C367.362 583.261 367.1 583.469 366.767 583.647C366.434 583.825 366.002 583.914 365.472 583.914ZM365.847 582.465C366.335 582.465 366.748 582.336 367.085 582.079C367.426 581.817 367.684 581.456 367.858 580.994C368.036 580.531 368.125 579.994 368.125 579.38C368.125 578.774 368.038 578.244 367.864 577.789C367.689 577.334 367.434 576.98 367.097 576.726C366.759 576.473 366.343 576.346 365.847 576.346C365.335 576.346 364.909 576.478 364.568 576.744C364.227 577.009 363.97 577.37 363.795 577.829C363.625 578.287 363.54 578.804 363.54 579.38C363.54 579.963 363.627 580.488 363.801 580.954C363.975 581.42 364.233 581.789 364.574 582.062C364.919 582.331 365.343 582.465 365.847 582.465ZM372.22 583.744V575.016H373.919V583.744H372.22ZM373.078 573.67C372.783 573.67 372.529 573.571 372.317 573.374C372.108 573.173 372.004 572.935 372.004 572.658C372.004 572.378 372.108 572.139 372.317 571.942C372.529 571.742 372.783 571.641 373.078 571.641C373.374 571.641 373.625 571.742 373.834 571.942C374.046 572.139 374.152 572.378 374.152 572.658C374.152 572.935 374.046 573.173 373.834 573.374C373.625 573.571 373.374 573.67 373.078 573.67ZM378.744 583.937C378.191 583.937 377.691 583.834 377.244 583.63C376.797 583.422 376.443 583.12 376.182 582.726C375.924 582.333 375.795 581.85 375.795 581.278C375.795 580.785 375.89 580.38 376.08 580.062C376.269 579.744 376.525 579.492 376.847 579.306C377.169 579.12 377.528 578.98 377.926 578.886C378.324 578.791 378.729 578.719 379.142 578.67C379.665 578.609 380.089 578.56 380.415 578.522C380.741 578.48 380.977 578.414 381.125 578.323C381.273 578.232 381.347 578.084 381.347 577.88V577.84C381.347 577.344 381.206 576.959 380.926 576.687C380.65 576.414 380.237 576.278 379.688 576.278C379.116 576.278 378.665 576.405 378.335 576.658C378.009 576.908 377.784 577.187 377.659 577.494L376.062 577.13C376.252 576.6 376.528 576.172 376.892 575.846C377.259 575.516 377.682 575.278 378.159 575.13C378.636 574.978 379.138 574.903 379.665 574.903C380.013 574.903 380.383 574.944 380.773 575.028C381.167 575.107 381.534 575.255 381.875 575.471C382.22 575.687 382.502 575.995 382.722 576.397C382.941 576.795 383.051 577.312 383.051 577.948V583.744H381.392V582.55H381.324C381.214 582.77 381.049 582.986 380.83 583.198C380.61 583.41 380.328 583.586 379.983 583.726C379.638 583.867 379.225 583.937 378.744 583.937ZM379.114 582.573C379.583 582.573 379.985 582.48 380.318 582.295C380.655 582.109 380.911 581.867 381.085 581.567C381.263 581.264 381.352 580.94 381.352 580.596V579.471C381.292 579.531 381.174 579.588 381 579.641C380.83 579.69 380.634 579.734 380.415 579.772C380.195 579.806 379.981 579.838 379.773 579.869C379.564 579.895 379.39 579.918 379.25 579.937C378.92 579.978 378.619 580.048 378.347 580.147C378.078 580.245 377.862 580.387 377.699 580.573C377.54 580.755 377.46 580.997 377.46 581.3C377.46 581.721 377.616 582.039 377.926 582.255C378.237 582.467 378.633 582.573 379.114 582.573ZM387.013 578.562V583.744H385.314V575.016H386.945V576.437H387.053C387.253 575.975 387.568 575.603 387.996 575.323C388.428 575.043 388.971 574.903 389.626 574.903C390.221 574.903 390.742 575.028 391.189 575.278C391.636 575.524 391.982 575.891 392.229 576.38C392.475 576.869 392.598 577.473 392.598 578.192V583.744H390.899V578.397C390.899 577.764 390.734 577.27 390.405 576.914C390.075 576.554 389.623 576.374 389.047 576.374C388.653 576.374 388.303 576.459 387.996 576.63C387.693 576.8 387.452 577.05 387.274 577.38C387.1 577.706 387.013 578.1 387.013 578.562ZM398.95 575.016V576.38H394.183V575.016H398.95ZM395.462 572.925H397.161V581.181C397.161 581.511 397.21 581.759 397.308 581.925C397.407 582.088 397.534 582.2 397.689 582.261C397.848 582.317 398.02 582.346 398.206 582.346C398.342 582.346 398.462 582.336 398.564 582.317C398.666 582.298 398.746 582.283 398.803 582.272L399.109 583.675C399.011 583.713 398.871 583.751 398.689 583.789C398.507 583.831 398.28 583.853 398.007 583.857C397.56 583.865 397.143 583.785 396.757 583.619C396.371 583.452 396.058 583.194 395.82 582.846C395.581 582.497 395.462 582.06 395.462 581.533V572.925Z" fill="#CDCDCD"/>
<path d="M450.663 370.744V347.471H466.072V351.528H455.584V357.073H465.05V361.13H455.584V370.744H450.663ZM448.49 425.471V448.744H443.57V425.471H448.49ZM456.743 425.471L462.368 443.153H462.584L468.22 425.471H473.675L465.652 448.744H459.311L451.277 425.471H456.743ZM448.69 483.653V479.778L458.406 464.471H461.747V469.834H459.77L453.645 479.528V479.709H467.452V483.653H448.69ZM459.861 487.744V482.471L459.952 480.755V464.471H464.565V487.744H459.861Z" fill="#00E494"/>
<path d="M418.727 575.164C418.666 574.626 418.416 574.209 417.977 573.914C417.537 573.615 416.984 573.465 416.317 573.465C415.84 573.465 415.427 573.541 415.079 573.692C414.73 573.84 414.46 574.045 414.266 574.306C414.077 574.564 413.982 574.857 413.982 575.187C413.982 575.463 414.047 575.702 414.175 575.903C414.308 576.103 414.48 576.272 414.692 576.408C414.908 576.541 415.139 576.653 415.386 576.744C415.632 576.831 415.869 576.903 416.096 576.959L417.232 577.255C417.603 577.346 417.984 577.469 418.374 577.624C418.764 577.78 419.126 577.984 419.46 578.238C419.793 578.492 420.062 578.806 420.266 579.181C420.475 579.556 420.579 580.005 420.579 580.528C420.579 581.187 420.408 581.772 420.067 582.283C419.73 582.795 419.24 583.198 418.596 583.494C417.956 583.789 417.181 583.937 416.272 583.937C415.401 583.937 414.647 583.798 414.011 583.522C413.374 583.245 412.876 582.853 412.516 582.346C412.156 581.834 411.958 581.228 411.92 580.528H413.681C413.715 580.948 413.852 581.298 414.09 581.579C414.333 581.855 414.641 582.062 415.016 582.198C415.395 582.331 415.81 582.397 416.261 582.397C416.757 582.397 417.198 582.319 417.585 582.164C417.975 582.005 418.281 581.785 418.505 581.505C418.728 581.221 418.84 580.889 418.84 580.511C418.84 580.166 418.742 579.884 418.545 579.664C418.352 579.444 418.088 579.262 417.755 579.119C417.425 578.975 417.052 578.848 416.636 578.738L415.261 578.363C414.329 578.109 413.59 577.736 413.045 577.244C412.503 576.751 412.232 576.1 412.232 575.289C412.232 574.619 412.414 574.033 412.778 573.533C413.141 573.033 413.634 572.645 414.255 572.369C414.876 572.088 415.577 571.948 416.357 571.948C417.145 571.948 417.84 572.086 418.442 572.363C419.049 572.639 419.526 573.02 419.874 573.505C420.223 573.986 420.405 574.539 420.42 575.164H418.727ZM427.269 580.124V575.016H428.973V583.744H427.303V582.232H427.212C427.011 582.698 426.689 583.086 426.246 583.397C425.807 583.704 425.259 583.857 424.604 583.857C424.044 583.857 423.547 583.734 423.115 583.488C422.687 583.238 422.35 582.869 422.104 582.38C421.862 581.891 421.74 581.287 421.74 580.567V575.016H423.439V580.363C423.439 580.958 423.604 581.431 423.934 581.783C424.263 582.136 424.691 582.312 425.218 582.312C425.536 582.312 425.852 582.232 426.167 582.073C426.485 581.914 426.748 581.673 426.956 581.351C427.169 581.03 427.273 580.62 427.269 580.124ZM430.592 583.744V572.107H432.291V576.431H432.394C432.492 576.249 432.634 576.039 432.82 575.8C433.005 575.562 433.263 575.353 433.592 575.175C433.922 574.994 434.358 574.903 434.899 574.903C435.604 574.903 436.233 575.081 436.786 575.437C437.339 575.793 437.772 576.306 438.087 576.976C438.405 577.647 438.564 578.454 438.564 579.397C438.564 580.34 438.407 581.149 438.092 581.823C437.778 582.494 437.346 583.011 436.797 583.374C436.248 583.734 435.621 583.914 434.916 583.914C434.386 583.914 433.952 583.825 433.615 583.647C433.282 583.469 433.021 583.261 432.831 583.022C432.642 582.783 432.496 582.571 432.394 582.386H432.252V583.744H430.592ZM432.257 579.38C432.257 579.994 432.346 580.531 432.524 580.994C432.702 581.456 432.96 581.817 433.297 582.079C433.634 582.336 434.047 582.465 434.536 582.465C435.043 582.465 435.467 582.331 435.808 582.062C436.149 581.789 436.407 581.42 436.581 580.954C436.759 580.488 436.848 579.963 436.848 579.38C436.848 578.804 436.761 578.287 436.587 577.829C436.416 577.37 436.159 577.009 435.814 576.744C435.473 576.478 435.047 576.346 434.536 576.346C434.043 576.346 433.627 576.473 433.286 576.726C432.949 576.98 432.693 577.334 432.519 577.789C432.344 578.244 432.257 578.774 432.257 579.38ZM442.939 583.914C442.234 583.914 441.605 583.734 441.052 583.374C440.503 583.011 440.071 582.494 439.757 581.823C439.446 581.149 439.291 580.34 439.291 579.397C439.291 578.454 439.448 577.647 439.763 576.976C440.081 576.306 440.516 575.793 441.069 575.437C441.622 575.081 442.249 574.903 442.95 574.903C443.492 574.903 443.927 574.994 444.257 575.175C444.59 575.353 444.848 575.562 445.03 575.8C445.215 576.039 445.359 576.249 445.462 576.431H445.564V572.107H447.263V583.744H445.604V582.386H445.462C445.359 582.571 445.212 582.783 445.018 583.022C444.829 583.261 444.568 583.469 444.234 583.647C443.901 583.825 443.469 583.914 442.939 583.914ZM443.314 582.465C443.802 582.465 444.215 582.336 444.552 582.079C444.893 581.817 445.151 581.456 445.325 580.994C445.503 580.531 445.592 579.994 445.592 579.38C445.592 578.774 445.505 578.244 445.331 577.789C445.157 577.334 444.901 576.98 444.564 576.726C444.227 576.473 443.81 576.346 443.314 576.346C442.802 576.346 442.376 576.478 442.035 576.744C441.694 577.009 441.437 577.37 441.263 577.829C441.092 578.287 441.007 578.804 441.007 579.38C441.007 579.963 441.094 580.488 441.268 580.954C441.443 581.42 441.7 581.789 442.041 582.062C442.386 582.331 442.81 582.465 443.314 582.465ZM452.563 583.92C451.745 583.92 451.031 583.732 450.421 583.357C449.812 582.982 449.338 582.458 449.001 581.783C448.664 581.109 448.495 580.321 448.495 579.42C448.495 578.514 448.664 577.723 449.001 577.045C449.338 576.367 449.812 575.84 450.421 575.465C451.031 575.09 451.745 574.903 452.563 574.903C453.382 574.903 454.096 575.09 454.706 575.465C455.315 575.84 455.789 576.367 456.126 577.045C456.463 577.723 456.632 578.514 456.632 579.42C456.632 580.321 456.463 581.109 456.126 581.783C455.789 582.458 455.315 582.982 454.706 583.357C454.096 583.732 453.382 583.92 452.563 583.92ZM452.569 582.494C453.099 582.494 453.539 582.353 453.887 582.073C454.236 581.793 454.493 581.42 454.66 580.954C454.831 580.488 454.916 579.975 454.916 579.414C454.916 578.857 454.831 578.346 454.66 577.88C454.493 577.41 454.236 577.033 453.887 576.749C453.539 576.465 453.099 576.323 452.569 576.323C452.035 576.323 451.592 576.465 451.24 576.749C450.891 577.033 450.632 577.41 450.461 577.88C450.295 578.346 450.211 578.857 450.211 579.414C450.211 579.975 450.295 580.488 450.461 580.954C450.632 581.42 450.891 581.793 451.24 582.073C451.592 582.353 452.035 582.494 452.569 582.494ZM457.728 583.744V575.016H459.359V576.437H459.467C459.648 575.956 459.946 575.581 460.359 575.312C460.772 575.039 461.266 574.903 461.842 574.903C462.425 574.903 462.914 575.039 463.308 575.312C463.705 575.584 463.999 575.959 464.188 576.437H464.279C464.487 575.971 464.819 575.6 465.273 575.323C465.728 575.043 466.27 574.903 466.898 574.903C467.69 574.903 468.336 575.151 468.836 575.647C469.34 576.143 469.592 576.891 469.592 577.891V583.744H467.893V578.05C467.893 577.459 467.732 577.031 467.41 576.766C467.088 576.501 466.703 576.369 466.256 576.369C465.703 576.369 465.273 576.539 464.967 576.88C464.66 577.217 464.506 577.651 464.506 578.181V583.744H462.813V577.942C462.813 577.469 462.665 577.088 462.37 576.8C462.075 576.512 461.69 576.369 461.217 576.369C460.895 576.369 460.597 576.454 460.325 576.624C460.056 576.791 459.838 577.024 459.671 577.323C459.508 577.622 459.427 577.969 459.427 578.363V583.744H457.728ZM471.069 583.744V575.016H472.767V583.744H471.069ZM471.927 573.67C471.631 573.67 471.377 573.571 471.165 573.374C470.957 573.173 470.853 572.935 470.853 572.658C470.853 572.378 470.957 572.139 471.165 571.942C471.377 571.742 471.631 571.641 471.927 571.641C472.222 571.641 472.474 571.742 472.682 571.942C472.894 572.139 473 572.378 473 572.658C473 572.935 472.894 573.173 472.682 573.374C472.474 573.571 472.222 573.67 471.927 573.67ZM475.952 578.562V583.744H474.253V575.016H475.884V576.437H475.992C476.192 575.975 476.507 575.603 476.935 575.323C477.367 575.043 477.91 574.903 478.565 574.903C479.16 574.903 479.681 575.028 480.128 575.278C480.575 575.524 480.922 575.891 481.168 576.38C481.414 576.869 481.537 577.473 481.537 578.192V583.744H479.838V578.397C479.838 577.764 479.673 577.27 479.344 576.914C479.014 576.554 478.562 576.374 477.986 576.374C477.592 576.374 477.242 576.459 476.935 576.63C476.632 576.8 476.391 577.05 476.213 577.38C476.039 577.706 475.952 578.1 475.952 578.562ZM485.555 583.937C485.002 583.937 484.502 583.834 484.055 583.63C483.608 583.422 483.254 583.12 482.993 582.726C482.735 582.333 482.606 581.85 482.606 581.278C482.606 580.785 482.701 580.38 482.89 580.062C483.08 579.744 483.336 579.492 483.658 579.306C483.979 579.12 484.339 578.98 484.737 578.886C485.135 578.791 485.54 578.719 485.953 578.67C486.476 578.609 486.9 578.56 487.226 578.522C487.551 578.48 487.788 578.414 487.936 578.323C488.084 578.232 488.158 578.084 488.158 577.88V577.84C488.158 577.344 488.017 576.959 487.737 576.687C487.461 576.414 487.048 576.278 486.498 576.278C485.926 576.278 485.476 576.405 485.146 576.658C484.82 576.908 484.595 577.187 484.47 577.494L482.873 577.13C483.063 576.6 483.339 576.172 483.703 575.846C484.07 575.516 484.493 575.278 484.97 575.13C485.447 574.978 485.949 574.903 486.476 574.903C486.824 574.903 487.194 574.944 487.584 575.028C487.978 575.107 488.345 575.255 488.686 575.471C489.031 575.687 489.313 575.995 489.533 576.397C489.752 576.795 489.862 577.312 489.862 577.948V583.744H488.203V582.55H488.135C488.025 582.77 487.86 582.986 487.64 583.198C487.421 583.41 487.139 583.586 486.794 583.726C486.449 583.867 486.036 583.937 485.555 583.937ZM485.925 582.573C486.394 582.573 486.796 582.48 487.129 582.295C487.466 582.109 487.722 581.867 487.896 581.567C488.074 581.264 488.163 580.94 488.163 580.596V579.471C488.103 579.531 487.985 579.588 487.811 579.641C487.64 579.69 487.445 579.734 487.226 579.772C487.006 579.806 486.792 579.838 486.584 579.869C486.375 579.895 486.201 579.918 486.061 579.937C485.731 579.978 485.43 580.048 485.158 580.147C484.889 580.245 484.673 580.387 484.51 580.573C484.351 580.755 484.271 580.997 484.271 581.3C484.271 581.721 484.426 582.039 484.737 582.255C485.048 582.467 485.444 582.573 485.925 582.573ZM493.024 578.562V583.744H491.325V575.016H492.956V576.437H493.063C493.264 575.975 493.579 575.603 494.007 575.323C494.438 575.043 494.982 574.903 495.637 574.903C496.232 574.903 496.753 575.028 497.2 575.278C497.647 575.524 497.993 575.891 498.24 576.38C498.486 576.869 498.609 577.473 498.609 578.192V583.744H496.91V578.397C496.91 577.764 496.745 577.27 496.416 576.914C496.086 576.554 495.634 576.374 495.058 576.374C494.664 576.374 494.313 576.459 494.007 576.63C493.704 576.8 493.463 577.05 493.285 577.38C493.111 577.706 493.024 578.1 493.024 578.562ZM504.161 575.016V576.38H499.394V575.016H504.161ZM500.673 572.925H502.371V581.181C502.371 581.511 502.421 581.759 502.519 581.925C502.618 582.088 502.745 582.2 502.9 582.261C503.059 582.317 503.231 582.346 503.417 582.346C503.553 582.346 503.673 582.336 503.775 582.317C503.877 582.298 503.957 582.283 504.013 582.272L504.32 583.675C504.222 583.713 504.082 583.751 503.9 583.789C503.718 583.831 503.491 583.853 503.218 583.857C502.771 583.865 502.354 583.785 501.968 583.619C501.582 583.452 501.269 583.194 501.031 582.846C500.792 582.497 500.673 582.06 500.673 581.533V572.925Z" fill="#CDCDCD"/>
<path d="M560.283 354.994C560.124 354.44 559.9 353.952 559.612 353.528C559.324 353.096 558.972 352.732 558.555 352.437C558.146 352.134 557.677 351.903 557.146 351.744C556.624 351.584 556.044 351.505 555.408 351.505C554.218 351.505 553.173 351.8 552.271 352.391C551.377 352.982 550.68 353.842 550.18 354.971C549.68 356.092 549.43 357.463 549.43 359.084C549.43 360.706 549.677 362.084 550.169 363.221C550.661 364.357 551.358 365.225 552.26 365.823C553.161 366.414 554.226 366.709 555.453 366.709C556.567 366.709 557.518 366.512 558.305 366.119C559.101 365.717 559.707 365.153 560.124 364.425C560.548 363.698 560.76 362.838 560.76 361.846L561.76 361.994H555.76V358.289H565.499V361.221C565.499 363.266 565.067 365.024 564.203 366.494C563.339 367.956 562.15 369.084 560.635 369.88C559.12 370.668 557.385 371.062 555.43 371.062C553.249 371.062 551.332 370.581 549.68 369.619C548.029 368.649 546.741 367.274 545.817 365.494C544.9 363.706 544.442 361.584 544.442 359.13C544.442 357.244 544.714 355.562 545.26 354.084C545.813 352.6 546.586 351.342 547.578 350.312C548.571 349.281 549.726 348.497 551.044 347.959C552.362 347.422 553.79 347.153 555.328 347.153C556.646 347.153 557.874 347.346 559.01 347.732C560.146 348.111 561.154 348.649 562.033 349.346C562.919 350.043 563.643 350.872 564.203 351.834C564.764 352.789 565.124 353.842 565.283 354.994H560.283ZM549.259 425.471L554.884 443.153H555.099L560.736 425.471H566.19L558.168 448.744H551.827L543.793 425.471H549.259ZM555.074 488.062C553.468 488.062 552.036 487.766 550.778 487.175C549.528 486.584 548.536 485.77 547.801 484.732C547.066 483.694 546.684 482.505 546.653 481.164H551.426C551.479 482.065 551.858 482.797 552.562 483.357C553.267 483.918 554.104 484.198 555.074 484.198C555.847 484.198 556.528 484.028 557.119 483.687C557.718 483.338 558.184 482.857 558.517 482.244C558.858 481.622 559.028 480.91 559.028 480.107C559.028 479.289 558.854 478.569 558.506 477.948C558.165 477.327 557.691 476.842 557.085 476.494C556.479 476.145 555.786 475.967 555.006 475.959C554.324 475.959 553.661 476.1 553.017 476.38C552.381 476.66 551.884 477.043 551.528 477.528L547.153 476.744L548.256 464.471H562.483V468.494H552.312L551.71 474.323H551.847C552.256 473.747 552.873 473.27 553.699 472.891C554.525 472.512 555.449 472.323 556.472 472.323C557.873 472.323 559.123 472.653 560.222 473.312C561.32 473.971 562.188 474.876 562.824 476.028C563.46 477.172 563.775 478.49 563.767 479.982C563.775 481.55 563.411 482.944 562.676 484.164C561.949 485.376 560.93 486.331 559.619 487.028C558.316 487.717 556.801 488.062 555.074 488.062Z" fill="#00E494"/>
<path d="M523.295 583.744H519.528V572.107H523.415C524.555 572.107 525.534 572.34 526.352 572.806C527.17 573.268 527.797 573.933 528.233 574.8C528.672 575.664 528.892 576.7 528.892 577.908C528.892 579.12 528.67 580.162 528.227 581.033C527.788 581.905 527.152 582.575 526.318 583.045C525.485 583.511 524.477 583.744 523.295 583.744ZM521.284 582.209H523.199C524.085 582.209 524.822 582.043 525.409 581.709C525.996 581.372 526.436 580.886 526.727 580.249C527.019 579.609 527.165 578.829 527.165 577.908C527.165 576.995 527.019 576.221 526.727 575.584C526.439 574.948 526.009 574.465 525.438 574.136C524.866 573.806 524.155 573.641 523.307 573.641H521.284V582.209ZM534.615 583.92C533.797 583.92 533.083 583.732 532.473 583.357C531.863 582.982 531.39 582.458 531.053 581.783C530.715 581.109 530.547 580.321 530.547 579.42C530.547 578.514 530.715 577.723 531.053 577.045C531.39 576.367 531.863 575.84 532.473 575.465C533.083 575.09 533.797 574.903 534.615 574.903C535.433 574.903 536.147 575.09 536.757 575.465C537.367 575.84 537.84 576.367 538.178 577.045C538.515 577.723 538.683 578.514 538.683 579.42C538.683 580.321 538.515 581.109 538.178 581.783C537.84 582.458 537.367 582.982 536.757 583.357C536.147 583.732 535.433 583.92 534.615 583.92ZM534.621 582.494C535.151 582.494 535.59 582.353 535.939 582.073C536.287 581.793 536.545 581.42 536.712 580.954C536.882 580.488 536.967 579.975 536.967 579.414C536.967 578.857 536.882 578.346 536.712 577.88C536.545 577.41 536.287 577.033 535.939 576.749C535.59 576.465 535.151 576.323 534.621 576.323C534.087 576.323 533.643 576.465 533.291 576.749C532.943 577.033 532.683 577.41 532.513 577.88C532.346 578.346 532.263 578.857 532.263 579.414C532.263 579.975 532.346 580.488 532.513 580.954C532.683 581.42 532.943 581.793 533.291 582.073C533.643 582.353 534.087 582.494 534.621 582.494ZM540.58 583.744V575.016H542.21V576.437H542.318C542.5 575.956 542.797 575.581 543.21 575.312C543.623 575.039 544.117 574.903 544.693 574.903C545.277 574.903 545.765 575.039 546.159 575.312C546.557 575.584 546.85 575.959 547.04 576.437H547.131C547.339 575.971 547.67 575.6 548.125 575.323C548.58 575.043 549.121 574.903 549.75 574.903C550.542 574.903 551.188 575.151 551.688 575.647C552.191 576.143 552.443 576.891 552.443 577.891V583.744H550.744V578.05C550.744 577.459 550.583 577.031 550.261 576.766C549.939 576.501 549.555 576.369 549.108 576.369C548.555 576.369 548.125 576.539 547.818 576.88C547.511 577.217 547.358 577.651 547.358 578.181V583.744H545.665V577.942C545.665 577.469 545.517 577.088 545.222 576.8C544.926 576.512 544.542 576.369 544.068 576.369C543.746 576.369 543.449 576.454 543.176 576.624C542.907 576.791 542.689 577.024 542.523 577.323C542.36 577.622 542.278 577.969 542.278 578.363V583.744H540.58ZM554.72 583.744V575.016H556.419V583.744H554.72ZM555.578 573.67C555.283 573.67 555.029 573.571 554.817 573.374C554.608 573.173 554.504 572.935 554.504 572.658C554.504 572.378 554.608 572.139 554.817 571.942C555.029 571.742 555.283 571.641 555.578 571.641C555.874 571.641 556.125 571.742 556.334 571.942C556.546 572.139 556.652 572.378 556.652 572.658C556.652 572.935 556.546 573.173 556.334 573.374C556.125 573.571 555.874 573.67 555.578 573.67ZM560.403 578.562V583.744H558.705V575.016H560.335V576.437H560.443C560.644 575.975 560.958 575.603 561.386 575.323C561.818 575.043 562.362 574.903 563.017 574.903C563.612 574.903 564.133 575.028 564.58 575.278C565.027 575.524 565.373 575.891 565.619 576.38C565.866 576.869 565.989 577.473 565.989 578.192V583.744H564.29V578.397C564.29 577.764 564.125 577.27 563.795 576.914C563.466 576.554 563.013 576.374 562.438 576.374C562.044 576.374 561.693 576.459 561.386 576.63C561.083 576.8 560.843 577.05 560.665 577.38C560.491 577.706 560.403 578.1 560.403 578.562ZM570.807 583.937C570.254 583.937 569.754 583.834 569.307 583.63C568.86 583.422 568.506 583.12 568.244 582.726C567.987 582.333 567.858 581.85 567.858 581.278C567.858 580.785 567.953 580.38 568.142 580.062C568.331 579.744 568.587 579.492 568.909 579.306C569.231 579.12 569.591 578.98 569.989 578.886C570.386 578.791 570.792 578.719 571.205 578.67C571.727 578.609 572.152 578.56 572.477 578.522C572.803 578.48 573.04 578.414 573.188 578.323C573.335 578.232 573.409 578.084 573.409 577.88V577.84C573.409 577.344 573.269 576.959 572.989 576.687C572.712 576.414 572.299 576.278 571.75 576.278C571.178 576.278 570.727 576.405 570.398 576.658C570.072 576.908 569.847 577.187 569.722 577.494L568.125 577.13C568.314 576.6 568.591 576.172 568.955 575.846C569.322 575.516 569.744 575.278 570.222 575.13C570.699 574.978 571.201 574.903 571.727 574.903C572.076 574.903 572.445 574.944 572.835 575.028C573.229 575.107 573.597 575.255 573.938 575.471C574.282 575.687 574.564 575.995 574.784 576.397C575.004 576.795 575.114 577.312 575.114 577.948V583.744H573.455V582.55H573.386C573.277 582.77 573.112 582.986 572.892 583.198C572.672 583.41 572.39 583.586 572.045 583.726C571.701 583.867 571.288 583.937 570.807 583.937ZM571.176 582.573C571.646 582.573 572.047 582.48 572.381 582.295C572.718 582.109 572.973 581.867 573.148 581.567C573.326 581.264 573.415 580.94 573.415 580.596V579.471C573.354 579.531 573.237 579.588 573.062 579.641C572.892 579.69 572.697 579.734 572.477 579.772C572.258 579.806 572.044 579.838 571.835 579.869C571.627 579.895 571.453 579.918 571.312 579.937C570.983 579.978 570.682 580.048 570.409 580.147C570.14 580.245 569.924 580.387 569.761 580.573C569.602 580.755 569.523 580.997 569.523 581.3C569.523 581.721 569.678 582.039 569.989 582.255C570.299 582.467 570.695 582.573 571.176 582.573ZM579.075 578.562V583.744H577.376V575.016H579.007V576.437H579.115C579.316 575.975 579.63 575.603 580.058 575.323C580.49 575.043 581.034 574.903 581.689 574.903C582.284 574.903 582.804 575.028 583.251 575.278C583.698 575.524 584.045 575.891 584.291 576.38C584.537 576.869 584.661 577.473 584.661 578.192V583.744H582.962V578.397C582.962 577.764 582.797 577.27 582.467 576.914C582.138 576.554 581.685 576.374 581.109 576.374C580.715 576.374 580.365 576.459 580.058 576.63C579.755 576.8 579.515 577.05 579.337 577.38C579.162 577.706 579.075 578.1 579.075 578.562ZM591.013 575.016V576.38H586.246V575.016H591.013ZM587.524 572.925H589.223V581.181C589.223 581.511 589.272 581.759 589.371 581.925C589.469 582.088 589.596 582.2 589.751 582.261C589.911 582.317 590.083 582.346 590.268 582.346C590.405 582.346 590.524 582.336 590.626 582.317C590.729 582.298 590.808 582.283 590.865 582.272L591.172 583.675C591.073 583.713 590.933 583.751 590.751 583.789C590.57 583.831 590.342 583.853 590.07 583.857C589.623 583.865 589.206 583.785 588.82 583.619C588.433 583.452 588.121 583.194 587.882 582.846C587.643 582.497 587.524 582.06 587.524 581.533V572.925Z" fill="#CDCDCD"/>
<path d="M647.565 370.744H642.293L650.327 347.471H656.668L664.69 370.744H659.418L653.588 352.789H653.406L647.565 370.744ZM647.236 361.596H659.69V365.437H647.236V361.596ZM643.274 425.471L648.899 443.153H649.115L654.751 425.471H660.206L652.183 448.744H645.842L637.808 425.471H643.274ZM667.928 425.471V448.744H663.007V425.471H667.928ZM653.756 488.062C652.559 488.054 651.403 487.853 650.29 487.459C649.184 487.065 648.191 486.425 647.312 485.539C646.434 484.653 645.737 483.478 645.222 482.016C644.714 480.554 644.46 478.759 644.46 476.63C644.468 474.675 644.691 472.929 645.131 471.391C645.578 469.846 646.214 468.535 647.04 467.459C647.873 466.384 648.869 465.565 650.028 465.005C651.188 464.437 652.487 464.153 653.926 464.153C655.479 464.153 656.85 464.456 658.04 465.062C659.229 465.66 660.184 466.475 660.903 467.505C661.631 468.535 662.07 469.69 662.222 470.971H657.369C657.18 470.16 656.782 469.524 656.176 469.062C655.57 468.6 654.82 468.369 653.926 468.369C652.411 468.369 651.259 469.028 650.472 470.346C649.691 471.664 649.294 473.456 649.278 475.721H649.438C649.786 475.031 650.256 474.444 650.847 473.959C651.445 473.467 652.123 473.092 652.881 472.834C653.646 472.569 654.453 472.437 655.301 472.437C656.68 472.437 657.907 472.762 658.983 473.414C660.059 474.058 660.907 474.944 661.528 476.073C662.15 477.202 662.46 478.494 662.46 479.948C662.46 481.524 662.093 482.925 661.358 484.153C660.631 485.38 659.612 486.342 658.301 487.039C656.998 487.728 655.483 488.069 653.756 488.062ZM653.733 484.198C654.491 484.198 655.169 484.016 655.767 483.653C656.366 483.289 656.835 482.797 657.176 482.175C657.517 481.554 657.688 480.857 657.688 480.084C657.688 479.312 657.517 478.619 657.176 478.005C656.843 477.391 656.381 476.903 655.79 476.539C655.199 476.175 654.525 475.994 653.767 475.994C653.199 475.994 652.672 476.1 652.188 476.312C651.71 476.524 651.29 476.819 650.926 477.198C650.57 477.577 650.29 478.016 650.085 478.516C649.881 479.009 649.778 479.535 649.778 480.096C649.778 480.846 649.949 481.531 650.29 482.153C650.638 482.774 651.108 483.27 651.699 483.641C652.297 484.012 652.975 484.198 653.733 484.198Z" fill="#00E494"/>
<path d="M618.733 575.164C618.672 574.626 618.422 574.209 617.983 573.914C617.543 573.615 616.99 573.465 616.324 573.465C615.846 573.465 615.434 573.541 615.085 573.692C614.737 573.84 614.466 574.045 614.273 574.306C614.083 574.564 613.988 574.857 613.988 575.187C613.988 575.463 614.053 575.702 614.182 575.903C614.314 576.103 614.487 576.272 614.699 576.408C614.915 576.541 615.146 576.653 615.392 576.744C615.638 576.831 615.875 576.903 616.102 576.959L617.238 577.255C617.61 577.346 617.99 577.469 618.381 577.624C618.771 577.78 619.132 577.984 619.466 578.238C619.799 578.492 620.068 578.806 620.273 579.181C620.481 579.556 620.585 580.005 620.585 580.528C620.585 581.187 620.415 581.772 620.074 582.283C619.737 582.795 619.246 583.198 618.602 583.494C617.962 583.789 617.187 583.937 616.278 583.937C615.407 583.937 614.653 583.798 614.017 583.522C613.381 583.245 612.882 582.853 612.523 582.346C612.163 581.834 611.964 581.228 611.926 580.528H613.687C613.721 580.948 613.858 581.298 614.096 581.579C614.339 581.855 614.648 582.062 615.023 582.198C615.401 582.331 615.816 582.397 616.267 582.397C616.763 582.397 617.204 582.319 617.591 582.164C617.981 582.005 618.288 581.785 618.511 581.505C618.735 581.221 618.846 580.889 618.846 580.511C618.846 580.166 618.748 579.884 618.551 579.664C618.358 579.444 618.095 579.262 617.761 579.119C617.432 578.975 617.059 578.848 616.642 578.738L615.267 578.363C614.335 578.109 613.596 577.736 613.051 577.244C612.509 576.751 612.238 576.1 612.238 575.289C612.238 574.619 612.42 574.033 612.784 573.533C613.148 573.033 613.64 572.645 614.261 572.369C614.882 572.088 615.583 571.948 616.363 571.948C617.151 571.948 617.846 572.086 618.449 572.363C619.055 572.639 619.532 573.02 619.881 573.505C620.229 573.986 620.411 574.539 620.426 575.164H618.733ZM627.275 580.124V575.016H628.98V583.744H627.309V582.232H627.218C627.018 582.698 626.696 583.086 626.252 583.397C625.813 583.704 625.266 583.857 624.61 583.857C624.05 583.857 623.554 583.734 623.122 583.488C622.694 583.238 622.357 582.869 622.11 582.38C621.868 581.891 621.747 581.287 621.747 580.567V575.016H623.446V580.363C623.446 580.958 623.61 581.431 623.94 581.783C624.269 582.136 624.697 582.312 625.224 582.312C625.542 582.312 625.858 582.232 626.173 582.073C626.491 581.914 626.754 581.673 626.963 581.351C627.175 581.03 627.279 580.62 627.275 580.124ZM630.599 583.744V572.107H632.298V576.431H632.4C632.498 576.249 632.64 576.039 632.826 575.8C633.012 575.562 633.269 575.353 633.599 575.175C633.928 574.994 634.364 574.903 634.906 574.903C635.61 574.903 636.239 575.081 636.792 575.437C637.345 575.793 637.779 576.306 638.093 576.976C638.411 577.647 638.57 578.454 638.57 579.397C638.57 580.34 638.413 581.149 638.099 581.823C637.784 582.494 637.353 583.011 636.803 583.374C636.254 583.734 635.627 583.914 634.923 583.914C634.392 583.914 633.959 583.825 633.621 583.647C633.288 583.469 633.027 583.261 632.837 583.022C632.648 582.783 632.502 582.571 632.4 582.386H632.258V583.744H630.599ZM632.263 579.38C632.263 579.994 632.353 580.531 632.531 580.994C632.709 581.456 632.966 581.817 633.303 582.079C633.64 582.336 634.053 582.465 634.542 582.465C635.049 582.465 635.474 582.331 635.815 582.062C636.156 581.789 636.413 581.42 636.587 580.954C636.765 580.488 636.854 579.963 636.854 579.38C636.854 578.804 636.767 578.287 636.593 577.829C636.423 577.37 636.165 577.009 635.82 576.744C635.479 576.478 635.053 576.346 634.542 576.346C634.049 576.346 633.633 576.473 633.292 576.726C632.955 576.98 632.699 577.334 632.525 577.789C632.351 578.244 632.263 578.774 632.263 579.38ZM639.678 583.744V575.016H641.309V576.437H641.417C641.598 575.956 641.896 575.581 642.309 575.312C642.722 575.039 643.216 574.903 643.792 574.903C644.375 574.903 644.864 575.039 645.258 575.312C645.655 575.584 645.949 575.959 646.138 576.437H646.229C646.437 575.971 646.769 575.6 647.223 575.323C647.678 575.043 648.22 574.903 648.848 574.903C649.64 574.903 650.286 575.151 650.786 575.647C651.29 576.143 651.542 576.891 651.542 577.891V583.744H649.843V578.05C649.843 577.459 649.682 577.031 649.36 576.766C649.038 576.501 648.653 576.369 648.206 576.369C647.653 576.369 647.223 576.539 646.917 576.88C646.61 577.217 646.456 577.651 646.456 578.181V583.744H644.763V577.942C644.763 577.469 644.615 577.088 644.32 576.8C644.025 576.512 643.64 576.369 643.167 576.369C642.845 576.369 642.547 576.454 642.275 576.624C642.006 576.791 641.788 577.024 641.621 577.323C641.458 577.622 641.377 577.969 641.377 578.363V583.744H639.678ZM656.78 583.92C655.92 583.92 655.18 583.736 654.558 583.369C653.941 582.997 653.464 582.476 653.127 581.806C652.793 581.132 652.627 580.342 652.627 579.437C652.627 578.543 652.793 577.755 653.127 577.073C653.464 576.391 653.933 575.859 654.536 575.476C655.142 575.094 655.85 574.903 656.661 574.903C657.153 574.903 657.63 574.984 658.092 575.147C658.555 575.31 658.969 575.565 659.337 575.914C659.704 576.262 659.994 576.715 660.206 577.272C660.418 577.825 660.524 578.497 660.524 579.289V579.891H653.587V578.619H658.86C658.86 578.172 658.769 577.776 658.587 577.431C658.405 577.083 658.149 576.808 657.82 576.607C657.494 576.406 657.111 576.306 656.672 576.306C656.195 576.306 655.778 576.423 655.422 576.658C655.07 576.889 654.797 577.192 654.604 577.567C654.414 577.939 654.32 578.342 654.32 578.778V579.772C654.32 580.355 654.422 580.851 654.627 581.261C654.835 581.67 655.125 581.982 655.496 582.198C655.867 582.41 656.301 582.516 656.797 582.516C657.119 582.516 657.413 582.471 657.678 582.38C657.943 582.285 658.172 582.145 658.365 581.959C658.558 581.774 658.706 581.545 658.808 581.272L660.416 581.562C660.288 582.035 660.056 582.45 659.723 582.806C659.394 583.158 658.979 583.433 658.479 583.63C657.983 583.823 657.416 583.92 656.78 583.92ZM664.876 583.914C664.172 583.914 663.543 583.734 662.99 583.374C662.441 583.011 662.009 582.494 661.694 581.823C661.384 581.149 661.229 580.34 661.229 579.397C661.229 578.454 661.386 577.647 661.7 576.976C662.018 576.306 662.454 575.793 663.007 575.437C663.56 575.081 664.187 574.903 664.888 574.903C665.429 574.903 665.865 574.994 666.194 575.175C666.528 575.353 666.785 575.562 666.967 575.8C667.153 576.039 667.297 576.249 667.399 576.431H667.501V572.107H669.2V583.744H667.541V582.386H667.399C667.297 582.571 667.149 582.783 666.956 583.022C666.766 583.261 666.505 583.469 666.172 583.647C665.838 583.825 665.407 583.914 664.876 583.914ZM665.251 582.465C665.74 582.465 666.153 582.336 666.49 582.079C666.831 581.817 667.088 581.456 667.263 580.994C667.441 580.531 667.53 579.994 667.53 579.38C667.53 578.774 667.443 578.244 667.268 577.789C667.094 577.334 666.838 576.98 666.501 576.726C666.164 576.473 665.747 576.346 665.251 576.346C664.74 576.346 664.314 576.478 663.973 576.744C663.632 577.009 663.374 577.37 663.2 577.829C663.03 578.287 662.944 578.804 662.944 579.38C662.944 579.963 663.032 580.488 663.206 580.954C663.38 581.42 663.638 581.789 663.979 582.062C664.323 582.331 664.747 582.465 665.251 582.465ZM670.825 583.744V575.016H672.524V583.744H670.825ZM671.683 573.67C671.387 573.67 671.134 573.571 670.921 573.374C670.713 573.173 670.609 572.935 670.609 572.658C670.609 572.378 670.713 572.139 670.921 571.942C671.134 571.742 671.387 571.641 671.683 571.641C671.978 571.641 672.23 571.742 672.438 571.942C672.651 572.139 672.757 572.378 672.757 572.658C672.757 572.935 672.651 573.173 672.438 573.374C672.23 573.571 671.978 573.67 671.683 573.67ZM676.549 583.937C675.996 583.937 675.496 583.834 675.049 583.63C674.602 583.422 674.248 583.12 673.987 582.726C673.729 582.333 673.6 581.85 673.6 581.278C673.6 580.785 673.695 580.38 673.884 580.062C674.074 579.744 674.329 579.492 674.651 579.306C674.973 579.12 675.333 578.98 675.731 578.886C676.129 578.791 676.534 578.719 676.947 578.67C677.469 578.609 677.894 578.56 678.219 578.522C678.545 578.48 678.782 578.414 678.93 578.323C679.077 578.232 679.151 578.084 679.151 577.88V577.84C679.151 577.344 679.011 576.959 678.731 576.687C678.454 576.414 678.041 576.278 677.492 576.278C676.92 576.278 676.469 576.405 676.14 576.658C675.814 576.908 675.589 577.187 675.464 577.494L673.867 577.13C674.057 576.6 674.333 576.172 674.697 575.846C675.064 575.516 675.487 575.278 675.964 575.13C676.441 574.978 676.943 574.903 677.469 574.903C677.818 574.903 678.187 574.944 678.577 575.028C678.971 575.107 679.339 575.255 679.68 575.471C680.024 575.687 680.307 575.995 680.526 576.397C680.746 576.795 680.856 577.312 680.856 577.948V583.744H679.197V582.55H679.129C679.019 582.77 678.854 582.986 678.634 583.198C678.415 583.41 678.132 583.586 677.788 583.726C677.443 583.867 677.03 583.937 676.549 583.937ZM676.918 582.573C677.388 582.573 677.79 582.48 678.123 582.295C678.46 582.109 678.716 581.867 678.89 581.567C679.068 581.264 679.157 580.94 679.157 580.596V579.471C679.096 579.531 678.979 579.588 678.805 579.641C678.634 579.69 678.439 579.734 678.219 579.772C678 579.806 677.786 579.838 677.577 579.869C677.369 579.895 677.195 579.918 677.055 579.937C676.725 579.978 676.424 580.048 676.151 580.147C675.882 580.245 675.666 580.387 675.504 580.573C675.344 580.755 675.265 580.997 675.265 581.3C675.265 581.721 675.42 582.039 675.731 582.255C676.041 582.467 676.437 582.573 676.918 582.573ZM684.017 578.562V583.744H682.319V575.016H683.949V576.437H684.057C684.258 575.975 684.572 575.603 685 575.323C685.432 575.043 685.976 574.903 686.631 574.903C687.226 574.903 687.747 575.028 688.194 575.278C688.641 575.524 688.987 575.891 689.233 576.38C689.48 576.869 689.603 577.473 689.603 578.192V583.744H687.904V578.397C687.904 577.764 687.739 577.27 687.41 576.914C687.08 576.554 686.627 576.374 686.052 576.374C685.658 576.374 685.307 576.459 685 576.63C684.697 576.8 684.457 577.05 684.279 577.38C684.105 577.706 684.017 578.1 684.017 578.562ZM695.155 575.016V576.38H690.388V575.016H695.155ZM691.666 572.925H693.365V581.181C693.365 581.511 693.414 581.759 693.513 581.925C693.611 582.088 693.738 582.2 693.894 582.261C694.053 582.317 694.225 582.346 694.411 582.346C694.547 582.346 694.666 582.336 694.769 582.317C694.871 582.298 694.95 582.283 695.007 582.272L695.314 583.675C695.216 583.713 695.075 583.751 694.894 583.789C694.712 583.831 694.485 583.853 694.212 583.857C693.765 583.865 693.348 583.785 692.962 583.619C692.575 583.452 692.263 583.194 692.024 582.846C691.786 582.497 691.666 582.06 691.666 581.533V572.925Z" fill="#CDCDCD"/>
<path d="M741.945 370.744V347.471H751.263C752.975 347.471 754.403 347.725 755.547 348.232C756.691 348.74 757.551 349.444 758.126 350.346C758.702 351.24 758.99 352.27 758.99 353.437C758.99 354.346 758.808 355.145 758.445 355.834C758.081 356.516 757.581 357.077 756.945 357.516C756.316 357.948 755.596 358.255 754.786 358.437V358.664C755.672 358.702 756.501 358.952 757.274 359.414C758.054 359.876 758.687 360.524 759.172 361.357C759.657 362.183 759.899 363.168 759.899 364.312C759.899 365.547 759.592 366.649 758.979 367.619C758.373 368.581 757.475 369.342 756.286 369.903C755.096 370.463 753.63 370.744 751.888 370.744H741.945ZM746.865 366.721H750.876C752.248 366.721 753.248 366.459 753.876 365.937C754.505 365.406 754.82 364.702 754.82 363.823C754.82 363.179 754.664 362.611 754.354 362.119C754.043 361.626 753.6 361.24 753.024 360.959C752.456 360.679 751.778 360.539 750.99 360.539H746.865V366.721ZM746.865 357.209H750.513C751.187 357.209 751.786 357.092 752.308 356.857C752.839 356.615 753.255 356.274 753.558 355.834C753.869 355.395 754.024 354.869 754.024 354.255C754.024 353.414 753.725 352.736 753.126 352.221C752.536 351.706 751.695 351.448 750.604 351.448H746.865V357.209ZM735.79 425.471L741.415 443.153H741.631L747.267 425.471H752.722L744.699 448.744H738.358L730.324 425.471H735.79ZM760.443 425.471V448.744H755.523V425.471H760.443ZM769.412 425.471V448.744H764.491V425.471H769.412ZM743.791 487.744L753.439 468.653V468.494H742.2V464.471H758.53V468.55L748.871 487.744H743.791Z" fill="#00E494"/>
<path d="M721.294 583.744V572.107H723.05V582.232H728.322V583.744H721.294ZM733.95 583.92C733.09 583.92 732.35 583.736 731.729 583.369C731.111 582.997 730.634 582.476 730.297 581.806C729.964 581.132 729.797 580.342 729.797 579.437C729.797 578.543 729.964 577.755 730.297 577.073C730.634 576.391 731.104 575.859 731.706 575.476C732.312 575.094 733.02 574.903 733.831 574.903C734.323 574.903 734.801 574.984 735.263 575.147C735.725 575.31 736.14 575.565 736.507 575.914C736.875 576.262 737.164 576.715 737.376 577.272C737.589 577.825 737.695 578.497 737.695 579.289V579.891H730.757V578.619H736.03C736.03 578.172 735.939 577.776 735.757 577.431C735.575 577.083 735.32 576.808 734.99 576.607C734.664 576.406 734.282 576.306 733.842 576.306C733.365 576.306 732.948 576.423 732.592 576.658C732.24 576.889 731.967 577.192 731.774 577.567C731.585 577.939 731.49 578.342 731.49 578.778V579.772C731.49 580.355 731.592 580.851 731.797 581.261C732.005 581.67 732.295 581.982 732.666 582.198C733.037 582.41 733.471 582.516 733.967 582.516C734.289 582.516 734.583 582.471 734.848 582.38C735.113 582.285 735.342 582.145 735.536 581.959C735.729 581.774 735.876 581.545 735.979 581.272L737.587 581.562C737.458 582.035 737.227 582.45 736.893 582.806C736.564 583.158 736.149 583.433 735.649 583.63C735.153 583.823 734.587 583.92 733.95 583.92ZM742.119 583.937C741.566 583.937 741.066 583.834 740.619 583.63C740.172 583.422 739.818 583.12 739.557 582.726C739.299 582.333 739.17 581.85 739.17 581.278C739.17 580.785 739.265 580.38 739.455 580.062C739.644 579.744 739.9 579.492 740.222 579.306C740.544 579.12 740.903 578.98 741.301 578.886C741.699 578.791 742.104 578.719 742.517 578.67C743.04 578.609 743.464 578.56 743.79 578.522C744.116 578.48 744.352 578.414 744.5 578.323C744.648 578.232 744.722 578.084 744.722 577.88V577.84C744.722 577.344 744.581 576.959 744.301 576.687C744.025 576.414 743.612 576.278 743.062 576.278C742.491 576.278 742.04 576.405 741.71 576.658C741.384 576.908 741.159 577.187 741.034 577.494L739.438 577.13C739.627 576.6 739.903 576.172 740.267 575.846C740.634 575.516 741.057 575.278 741.534 575.13C742.011 574.978 742.513 574.903 743.04 574.903C743.388 574.903 743.758 574.944 744.148 575.028C744.542 575.107 744.909 575.255 745.25 575.471C745.595 575.687 745.877 575.995 746.097 576.397C746.316 576.795 746.426 577.312 746.426 577.948V583.744H744.767V582.55H744.699C744.589 582.77 744.424 582.986 744.205 583.198C743.985 583.41 743.703 583.586 743.358 583.726C743.013 583.867 742.6 583.937 742.119 583.937ZM742.489 582.573C742.958 582.573 743.36 582.48 743.693 582.295C744.03 582.109 744.286 581.867 744.46 581.567C744.638 581.264 744.727 580.94 744.727 580.596V579.471C744.667 579.531 744.549 579.588 744.375 579.641C744.205 579.69 744.009 579.734 743.79 579.772C743.57 579.806 743.356 579.838 743.148 579.869C742.939 579.895 742.765 579.918 742.625 579.937C742.295 579.978 741.994 580.048 741.722 580.147C741.453 580.245 741.237 580.387 741.074 580.573C740.915 580.755 740.835 580.997 740.835 581.3C740.835 581.721 740.991 582.039 741.301 582.255C741.612 582.467 742.008 582.573 742.489 582.573ZM751.956 583.914C751.251 583.914 750.623 583.734 750.07 583.374C749.52 583.011 749.089 582.494 748.774 581.823C748.464 581.149 748.308 580.34 748.308 579.397C748.308 578.454 748.465 577.647 748.78 576.976C749.098 576.306 749.534 575.793 750.087 575.437C750.64 575.081 751.267 574.903 751.967 574.903C752.509 574.903 752.945 574.994 753.274 575.175C753.607 575.353 753.865 575.562 754.047 575.8C754.232 576.039 754.376 576.249 754.479 576.431H754.581V572.107H756.28V583.744H754.621V582.386H754.479C754.376 582.571 754.229 582.783 754.036 583.022C753.846 583.261 753.585 583.469 753.251 583.647C752.918 583.825 752.486 583.914 751.956 583.914ZM752.331 582.465C752.82 582.465 753.232 582.336 753.57 582.079C753.911 581.817 754.168 581.456 754.342 580.994C754.52 580.531 754.609 579.994 754.609 579.38C754.609 578.774 754.522 578.244 754.348 577.789C754.174 577.334 753.918 576.98 753.581 576.726C753.244 576.473 752.827 576.346 752.331 576.346C751.82 576.346 751.393 576.478 751.053 576.744C750.712 577.009 750.454 577.37 750.28 577.829C750.109 578.287 750.024 578.804 750.024 579.38C750.024 579.963 750.111 580.488 750.286 580.954C750.46 581.42 750.717 581.789 751.058 582.062C751.403 582.331 751.827 582.465 752.331 582.465ZM758.705 583.744V575.016H760.403V583.744H758.705ZM759.562 573.67C759.267 573.67 759.013 573.571 758.801 573.374C758.593 573.173 758.489 572.935 758.489 572.658C758.489 572.378 758.593 572.139 758.801 571.942C759.013 571.742 759.267 571.641 759.562 571.641C759.858 571.641 760.11 571.742 760.318 571.942C760.53 572.139 760.636 572.378 760.636 572.658C760.636 572.935 760.53 573.173 760.318 573.374C760.11 573.571 759.858 573.67 759.562 573.67ZM764.388 578.562V583.744H762.689V575.016H764.32V576.437H764.428C764.628 575.975 764.943 575.603 765.371 575.323C765.803 575.043 766.346 574.903 767.001 574.903C767.596 574.903 768.117 575.028 768.564 575.278C769.011 575.524 769.357 575.891 769.604 576.38C769.85 576.869 769.973 577.473 769.973 578.192V583.744H768.274V578.397C768.274 577.764 768.109 577.27 767.78 576.914C767.45 576.554 766.998 576.374 766.422 576.374C766.028 576.374 765.678 576.459 765.371 576.63C765.068 576.8 764.827 577.05 764.649 577.38C764.475 577.706 764.388 578.1 764.388 578.562ZM775.911 587.198C775.217 587.198 774.621 587.107 774.121 586.925C773.625 586.744 773.219 586.503 772.905 586.204C772.59 585.905 772.356 585.577 772.2 585.221L773.661 584.619C773.763 584.785 773.899 584.961 774.07 585.147C774.244 585.336 774.479 585.497 774.774 585.63C775.073 585.762 775.458 585.829 775.928 585.829C776.571 585.829 777.104 585.672 777.524 585.357C777.945 585.047 778.155 584.55 778.155 583.869V582.153H778.047C777.945 582.338 777.797 582.545 777.604 582.772C777.414 582.999 777.153 583.196 776.82 583.363C776.486 583.53 776.053 583.613 775.518 583.613C774.829 583.613 774.208 583.452 773.655 583.13C773.106 582.804 772.67 582.325 772.348 581.692C772.03 581.056 771.871 580.274 771.871 579.346C771.871 578.418 772.028 577.622 772.342 576.959C772.661 576.297 773.096 575.789 773.649 575.437C774.202 575.081 774.829 574.903 775.53 574.903C776.071 574.903 776.509 574.994 776.842 575.175C777.176 575.353 777.435 575.562 777.621 575.8C777.81 576.039 777.956 576.249 778.058 576.431H778.183V575.016H779.848V583.937C779.848 584.687 779.674 585.302 779.325 585.783C778.977 586.264 778.505 586.62 777.911 586.851C777.32 587.083 776.653 587.198 775.911 587.198ZM775.893 582.204C776.382 582.204 776.795 582.09 777.132 581.863C777.473 581.632 777.731 581.302 777.905 580.874C778.083 580.442 778.172 579.925 778.172 579.323C778.172 578.736 778.085 578.219 777.911 577.772C777.736 577.325 777.481 576.976 777.143 576.726C776.806 576.473 776.39 576.346 775.893 576.346C775.382 576.346 774.956 576.478 774.615 576.744C774.274 577.005 774.017 577.361 773.842 577.812C773.672 578.262 773.587 578.766 773.587 579.323C773.587 579.895 773.674 580.397 773.848 580.829C774.022 581.261 774.28 581.598 774.621 581.84C774.965 582.083 775.39 582.204 775.893 582.204ZM732.33 592.619V591.107H741.335V592.619H737.705V602.744H735.955V592.619H732.33ZM745.599 602.92C744.781 602.92 744.067 602.732 743.457 602.357C742.848 601.982 742.374 601.458 742.037 600.783C741.7 600.109 741.531 599.321 741.531 598.42C741.531 597.514 741.7 596.723 742.037 596.045C742.374 595.367 742.848 594.84 743.457 594.465C744.067 594.09 744.781 593.903 745.599 593.903C746.418 593.903 747.132 594.09 747.741 594.465C748.351 594.84 748.825 595.367 749.162 596.045C749.499 596.723 749.668 597.514 749.668 598.42C749.668 599.321 749.499 600.109 749.162 600.783C748.825 601.458 748.351 601.982 747.741 602.357C747.132 602.732 746.418 602.92 745.599 602.92ZM745.605 601.494C746.135 601.494 746.575 601.353 746.923 601.073C747.272 600.793 747.529 600.42 747.696 599.954C747.866 599.488 747.952 598.975 747.952 598.414C747.952 597.857 747.866 597.346 747.696 596.88C747.529 596.41 747.272 596.033 746.923 595.749C746.575 595.465 746.135 595.323 745.605 595.323C745.071 595.323 744.628 595.465 744.276 595.749C743.927 596.033 743.668 596.41 743.497 596.88C743.33 597.346 743.247 597.857 743.247 598.414C743.247 598.975 743.33 599.488 743.497 599.954C743.668 600.42 743.927 600.793 744.276 601.073C744.628 601.353 745.071 601.494 745.605 601.494ZM753.263 597.562V602.744H751.564V594.016H753.195V595.437H753.303C753.503 594.975 753.818 594.603 754.246 594.323C754.678 594.043 755.221 593.903 755.876 593.903C756.471 593.903 756.992 594.028 757.439 594.278C757.886 594.524 758.232 594.891 758.479 595.38C758.725 595.869 758.848 596.473 758.848 597.192V602.744H757.149V597.397C757.149 596.764 756.984 596.27 756.655 595.914C756.325 595.554 755.873 595.374 755.297 595.374C754.903 595.374 754.553 595.459 754.246 595.63C753.943 595.8 753.702 596.05 753.524 596.38C753.35 596.706 753.263 597.1 753.263 597.562ZM764.888 602.92C764.028 602.92 763.287 602.736 762.666 602.369C762.049 601.997 761.571 601.476 761.234 600.806C760.901 600.132 760.734 599.342 760.734 598.437C760.734 597.543 760.901 596.755 761.234 596.073C761.571 595.391 762.041 594.859 762.643 594.476C763.25 594.094 763.958 593.903 764.768 593.903C765.261 593.903 765.738 593.984 766.2 594.147C766.662 594.31 767.077 594.565 767.445 594.914C767.812 595.262 768.102 595.715 768.314 596.272C768.526 596.825 768.632 597.497 768.632 598.289V598.891H761.695V597.619H766.967C766.967 597.172 766.876 596.776 766.695 596.431C766.513 596.083 766.257 595.808 765.928 595.607C765.602 595.406 765.219 595.306 764.78 595.306C764.303 595.306 763.886 595.423 763.53 595.658C763.178 595.889 762.905 596.192 762.712 596.567C762.522 596.939 762.428 597.342 762.428 597.778V598.772C762.428 599.355 762.53 599.851 762.734 600.261C762.943 600.67 763.232 600.982 763.604 601.198C763.975 601.41 764.409 601.516 764.905 601.516C765.227 601.516 765.52 601.471 765.786 601.38C766.051 601.285 766.28 601.145 766.473 600.959C766.666 600.774 766.814 600.545 766.916 600.272L768.524 600.562C768.395 601.035 768.164 601.45 767.831 601.806C767.501 602.158 767.087 602.433 766.587 602.63C766.09 602.823 765.524 602.92 764.888 602.92Z" fill="#CDCDCD"/>
</svg>
