<svg width="1700" height="327" viewBox="0 0 1700 327" fill="none" xmlns="http://www.w3.org/2000/svg">
<path d="M41.698 75.251H9.62256V235.666H41.698V75.251Z" fill="white" stroke="#CDCDCD" stroke-width="0.981132"/>
<path d="M73.7735 75.251H41.698V235.666H73.7735V75.251Z" fill="white" stroke="#CDCDCD" stroke-width="0.981132"/>
<path d="M49.7169 75.251H33.6792V155.459H49.7169V75.251Z" fill="black" stroke="black" stroke-width="0.981132"/>
<path d="M105.849 75.251H73.7737V235.666H105.849V75.251Z" fill="white" stroke="#CDCDCD" stroke-width="0.981132"/>
<path d="M137.925 75.251H105.849V235.666H137.925V75.251Z" fill="white" stroke="#CDCDCD" stroke-width="0.981132"/>
<path d="M170 75.251H137.925V235.666H170V75.251Z" fill="white" stroke="#CDCDCD" stroke-width="0.981132"/>
<path d="M202.075 75.251H170V235.666H202.075V75.251Z" fill="white" stroke="#CDCDCD" stroke-width="0.981132"/>
<path d="M234.151 75.251H202.075V235.666H234.151V75.251Z" fill="white" stroke="#CDCDCD" stroke-width="0.981132"/>
<path d="M266.226 75.251H234.151V235.666H266.226V75.251Z" fill="white" stroke="#CDCDCD" stroke-width="0.981132"/>
<path d="M298.302 75.251H266.226V235.666H298.302V75.251Z" fill="white" stroke="#CDCDCD" stroke-width="0.981132"/>
<path d="M113.868 75.251H97.8301V155.459H113.868V75.251Z" fill="black" stroke="black" stroke-width="0.981132"/>
<path d="M145.943 75.251H129.906V155.459H145.943V75.251Z" fill="black" stroke="black" stroke-width="0.981132"/>
<path d="M210.094 75.251H194.057V155.459H210.094V75.251Z" fill="black" stroke="black" stroke-width="0.981132"/>
<path d="M242.17 75.251H226.132V155.459H242.17V75.251Z" fill="black" stroke="black" stroke-width="0.981132"/>
<path d="M274.245 75.251H258.208V155.459H274.245V75.251Z" fill="black" stroke="black" stroke-width="0.981132"/>
<path d="M73.7737 251.708H298.302" stroke="#CDCDCD" stroke-width="0.981132"/>
<path d="M73.7737 261.332V242.083" stroke="#CDCDCD" stroke-width="0.981132"/>
<path d="M298.302 261.332V242.083" stroke="#CDCDCD" stroke-width="0.981132"/>
<mask id="path-19-inside-1_35_2" fill="white">
<path d="M184.478 271.113V282.749H183.069V272.59H183.001L180.16 274.476V273.045L183.069 271.113H184.478Z"/>
</mask>
<path d="M184.478 271.113V282.749H183.069V272.59H183.001L180.16 274.476V273.045L183.069 271.113H184.478Z" fill="black"/>
<path d="M184.478 271.113H185.459V270.132H184.478V271.113ZM184.478 282.749V283.73H185.459V282.749H184.478ZM183.069 282.749H182.088V283.73H183.069V282.749ZM183.069 272.59H184.05V271.609H183.069V272.59ZM183.001 272.59V271.609H182.705L182.458 271.773L183.001 272.59ZM180.16 274.476H179.179V276.306L180.703 275.294L180.16 274.476ZM180.16 273.045L179.617 272.227L179.179 272.518V273.045H180.16ZM183.069 271.113V270.132H182.773L182.526 270.295L183.069 271.113ZM183.497 271.113V282.749H185.459V271.113H183.497ZM184.478 281.768H183.069V283.73H184.478V281.768ZM184.05 282.749V272.59H182.088V282.749H184.05ZM183.069 271.609H183.001V273.571H183.069V271.609ZM182.458 271.773L179.617 273.659L180.703 275.294L183.544 273.407L182.458 271.773ZM181.141 274.476V273.045H179.179V274.476H181.141ZM180.703 273.862L183.612 271.93L182.526 270.295L179.617 272.227L180.703 273.862ZM183.069 272.094H184.478V270.132H183.069V272.094Z" fill="#CDCDCD" mask="url(#path-19-inside-1_35_2)"/>
<path d="M330.377 75.251H298.302V235.666H330.377V75.251Z" fill="white" stroke="#CDCDCD" stroke-width="0.981132"/>
<path d="M362.453 75.251H330.377V235.666H362.453V75.251Z" fill="white" stroke="#CDCDCD" stroke-width="0.981132"/>
<path d="M394.528 75.251H362.453V235.666H394.528V75.251Z" fill="white" stroke="#CDCDCD" stroke-width="0.981132"/>
<path d="M426.604 75.251H394.528V235.666H426.604V75.251Z" fill="white" stroke="#CDCDCD" stroke-width="0.981132"/>
<path d="M458.679 75.251H426.604V235.666H458.679V75.251Z" fill="white" stroke="#CDCDCD" stroke-width="0.981132"/>
<path d="M490.755 75.251H458.679V235.666H490.755V75.251Z" fill="white" stroke="#CDCDCD" stroke-width="0.981132"/>
<path d="M522.83 75.251H490.755V235.666H522.83V75.251Z" fill="white" stroke="#CDCDCD" stroke-width="0.981132"/>
<path d="M338.396 75.251H322.358V155.459H338.396V75.251Z" fill="black" stroke="black" stroke-width="0.981132"/>
<path d="M370.472 75.251H354.434V155.459H370.472V75.251Z" fill="black" stroke="black" stroke-width="0.981132"/>
<path d="M434.623 75.251H418.585V155.459H434.623V75.251Z" fill="black" stroke="black" stroke-width="0.981132"/>
<path d="M466.698 75.251H450.66V155.459H466.698V75.251Z" fill="black" stroke="black" stroke-width="0.981132"/>
<path d="M498.774 75.251H482.736V155.459H498.774V75.251Z" fill="black" stroke="black" stroke-width="0.981132"/>
<path d="M298.302 59.2095H522.83" stroke="#CDCDCD" stroke-width="0.981132"/>
<path d="M298.302 68.8343V49.5845" stroke="#CDCDCD" stroke-width="0.981132"/>
<path d="M522.83 68.8343V49.5845" stroke="#CDCDCD" stroke-width="0.981132"/>
<mask id="path-36-inside-2_35_2" fill="white">
<path d="M402.924 36.0544V35.0317L406.765 30.8272C407.216 30.3347 407.587 29.9067 407.879 29.5431C408.17 29.1757 408.386 28.831 408.526 28.509C408.67 28.1832 408.742 27.8423 408.742 27.4863C408.742 27.0772 408.644 26.723 408.447 26.4238C408.254 26.1245 407.988 25.8935 407.651 25.7306C407.314 25.5677 406.935 25.4863 406.515 25.4863C406.068 25.4863 405.678 25.5791 405.344 25.7647C405.015 25.9465 404.759 26.2022 404.577 26.5317C404.399 26.8613 404.31 27.2476 404.31 27.6908H402.969C402.969 27.009 403.127 26.4105 403.441 25.8954C403.755 25.3802 404.183 24.9787 404.725 24.6908C405.271 24.4029 405.882 24.259 406.56 24.259C407.242 24.259 407.846 24.4029 408.373 24.6908C408.899 24.9787 409.312 25.3669 409.612 25.8556C409.911 26.3442 410.06 26.8878 410.06 27.4863C410.06 27.9143 409.983 28.3329 409.827 28.7419C409.676 29.1472 409.411 29.5999 409.032 30.0999C408.657 30.5961 408.136 31.2022 407.469 31.9181L404.856 34.7135V34.8044H410.265V36.0544H402.924Z"/>
</mask>
<path d="M402.924 36.0544V35.0317L406.765 30.8272C407.216 30.3347 407.587 29.9067 407.879 29.5431C408.17 29.1757 408.386 28.831 408.526 28.509C408.67 28.1832 408.742 27.8423 408.742 27.4863C408.742 27.0772 408.644 26.723 408.447 26.4238C408.254 26.1245 407.988 25.8935 407.651 25.7306C407.314 25.5677 406.935 25.4863 406.515 25.4863C406.068 25.4863 405.678 25.5791 405.344 25.7647C405.015 25.9465 404.759 26.2022 404.577 26.5317C404.399 26.8613 404.31 27.2476 404.31 27.6908H402.969C402.969 27.009 403.127 26.4105 403.441 25.8954C403.755 25.3802 404.183 24.9787 404.725 24.6908C405.271 24.4029 405.882 24.259 406.56 24.259C407.242 24.259 407.846 24.4029 408.373 24.6908C408.899 24.9787 409.312 25.3669 409.612 25.8556C409.911 26.3442 410.06 26.8878 410.06 27.4863C410.06 27.9143 409.983 28.3329 409.827 28.7419C409.676 29.1472 409.411 29.5999 409.032 30.0999C408.657 30.5961 408.136 31.2022 407.469 31.9181L404.856 34.7135V34.8044H410.265V36.0544H402.924Z" fill="black"/>
<path d="M402.924 36.0544H401.943V37.0356H402.924V36.0544ZM402.924 35.0317L402.2 34.37L401.943 34.651V35.0317H402.924ZM406.765 30.8272L406.041 30.1647L406.041 30.1654L406.765 30.8272ZM407.879 29.5431L408.644 30.157L408.647 30.1531L407.879 29.5431ZM408.526 28.509L407.629 28.1124L407.627 28.1174L408.526 28.509ZM408.447 26.4238L407.622 26.9559L407.627 26.9632L408.447 26.4238ZM407.651 25.7306L408.078 24.8472L408.078 24.8472L407.651 25.7306ZM405.344 25.7647L405.818 26.6237L405.822 26.6219L405.344 25.7647ZM404.577 26.5317L403.718 26.0577L403.714 26.0654L404.577 26.5317ZM404.31 27.6908V28.6719H405.292V27.6908H404.31ZM402.969 27.6908H401.988V28.6719H402.969V27.6908ZM403.441 25.8954L404.279 26.4065L404.279 26.4065L403.441 25.8954ZM404.725 24.6908L404.267 23.8231L404.265 23.8244L404.725 24.6908ZM408.373 24.6908L408.844 23.8299L408.844 23.8299L408.373 24.6908ZM409.612 25.8556L408.775 26.368L409.612 25.8556ZM409.827 28.7419L408.91 28.3937L408.908 28.3984L409.827 28.7419ZM409.032 30.0999L408.25 29.5074L408.249 29.5084L409.032 30.0999ZM407.469 31.9181L408.186 32.5881L408.188 32.5867L407.469 31.9181ZM404.856 34.7135L404.139 34.0435L403.875 34.3263V34.7135H404.856ZM404.856 34.8044H403.875V35.7856H404.856V34.8044ZM410.265 34.8044H411.246V33.8233H410.265V34.8044ZM410.265 36.0544V37.0356H411.246V36.0544H410.265ZM403.905 36.0544V35.0317H401.943V36.0544H403.905ZM403.648 35.6934L407.489 31.4889L406.041 30.1654L402.2 34.37L403.648 35.6934ZM407.489 31.4896C407.948 30.9876 408.335 30.5426 408.644 30.157L407.113 28.9292C406.839 29.2708 406.483 29.6819 406.041 30.1647L407.489 31.4896ZM408.647 30.1531C408.975 29.7397 409.243 29.3219 409.426 28.9006L407.627 28.1174C407.53 28.34 407.365 28.6116 407.11 28.9331L408.647 30.1531ZM409.424 28.9055C409.623 28.4549 409.723 27.9789 409.723 27.4863H407.761C407.761 27.7057 407.718 27.9116 407.629 28.1125L409.424 28.9055ZM409.723 27.4863C409.723 26.9134 409.583 26.3656 409.266 25.8843L407.627 26.9632C407.704 27.0804 407.761 27.2409 407.761 27.4863H409.723ZM409.271 25.8916C408.975 25.4331 408.569 25.0842 408.078 24.8472L407.224 26.614C407.408 26.7027 407.532 26.8159 407.622 26.9559L409.271 25.8916ZM408.078 24.8472C407.592 24.6125 407.065 24.5051 406.515 24.5051V26.4674C406.806 26.4674 407.036 26.5229 407.224 26.614L408.078 24.8472ZM406.515 24.5051C405.93 24.5051 405.37 24.6276 404.867 24.9075L405.822 26.6219C405.986 26.5305 406.206 26.4674 406.515 26.4674V24.5051ZM404.871 24.9056C404.379 25.1769 403.99 25.5661 403.718 26.0578L405.436 27.0057C405.529 26.8383 405.651 26.7161 405.818 26.6237L404.871 24.9056ZM403.714 26.0654C403.446 26.5623 403.329 27.1146 403.329 27.6908H405.292C405.292 27.3806 405.353 27.1602 405.441 26.9981L403.714 26.0654ZM404.31 26.7097H402.969V28.6719H404.31V26.7097ZM403.951 27.6908C403.951 27.1654 404.07 26.7484 404.279 26.4065L402.604 25.3842C402.183 26.0726 401.988 26.8526 401.988 27.6908H403.951ZM404.279 26.4065C404.5 26.0439 404.797 25.764 405.186 25.5572L404.265 23.8244C403.57 24.1934 403.011 24.7165 402.604 25.3842L404.279 26.4065ZM405.183 25.5585C405.574 25.3523 406.026 25.2401 406.56 25.2401V23.2779C405.739 23.2779 404.967 23.4535 404.267 23.8231L405.183 25.5585ZM406.56 25.2401C407.1 25.2401 407.539 25.3529 407.902 25.5517L408.844 23.8299C408.154 23.4529 407.384 23.2779 406.56 23.2779V25.2401ZM407.902 25.5517C408.286 25.7614 408.569 26.0325 408.775 26.368L410.448 25.3432C410.055 24.7014 409.513 24.196 408.844 23.8299L407.902 25.5517ZM408.775 26.368C408.975 26.6954 409.079 27.0602 409.079 27.4863H411.042C411.042 26.7154 410.846 25.9931 410.448 25.3432L408.775 26.368ZM409.079 27.4863C409.079 27.7926 409.024 28.0933 408.91 28.3937L410.745 29.0902C410.941 28.5724 411.042 28.036 411.042 27.4863H409.079ZM408.908 28.3984C408.802 28.6843 408.595 29.0524 408.25 29.5074L409.814 30.6924C410.227 30.1474 410.55 29.6102 410.746 29.0855L408.908 28.3984ZM408.249 29.5084C407.903 29.9672 407.407 30.5459 406.751 31.2494L408.188 32.5867C408.866 31.8584 409.411 31.2251 409.815 30.6914L408.249 29.5084ZM406.753 31.248L404.139 34.0435L405.573 35.3836L408.186 32.5881L406.753 31.248ZM403.875 34.7135V34.8044H405.837V34.7135H403.875ZM404.856 35.7856H410.265V33.8233H404.856V35.7856ZM409.284 34.8044V36.0544H411.246V34.8044H409.284ZM410.265 35.0733H402.924V37.0356H410.265V35.0733Z" fill="#CDCDCD" mask="url(#path-36-inside-2_35_2)"/>
<path d="M554.906 75.251H522.83V235.666H554.906V75.251Z" fill="white" stroke="#CDCDCD" stroke-width="0.981132"/>
<path d="M586.981 75.251H554.906V235.666H586.981V75.251Z" fill="white" stroke="#CDCDCD" stroke-width="0.981132"/>
<path d="M619.056 75.251H586.981V235.666H619.056V75.251Z" fill="white" stroke="#CDCDCD" stroke-width="0.981132"/>
<path d="M651.132 75.251H619.057V235.666H651.132V75.251Z" fill="white" stroke="#CDCDCD" stroke-width="0.981132"/>
<path d="M683.208 75.251H651.132V235.666H683.208V75.251Z" fill="white" stroke="#CDCDCD" stroke-width="0.981132"/>
<path d="M715.283 75.251H683.208V235.666H715.283V75.251Z" fill="white" stroke="#CDCDCD" stroke-width="0.981132"/>
<path d="M747.358 75.251H715.283V235.666H747.358V75.251Z" fill="white" stroke="#CDCDCD" stroke-width="0.981132"/>
<path d="M562.924 75.251H546.887V155.459H562.924V75.251Z" fill="black" stroke="black" stroke-width="0.981132"/>
<path d="M595 75.251H578.962V155.459H595V75.251Z" fill="black" stroke="black" stroke-width="0.981132"/>
<path d="M659.151 75.251H643.113V155.459H659.151V75.251Z" fill="black" stroke="black" stroke-width="0.981132"/>
<path d="M691.226 75.251H675.189V155.459H691.226V75.251Z" fill="black" stroke="black" stroke-width="0.981132"/>
<path d="M723.302 75.251H707.264V155.459H723.302V75.251Z" fill="black" stroke="black" stroke-width="0.981132"/>
<path d="M522.83 251.708H747.358" stroke="#CDCDCD" stroke-width="0.981132"/>
<path d="M522.83 261.332V242.083" stroke="#CDCDCD" stroke-width="0.981132"/>
<path d="M747.358 261.332V242.083" stroke="#CDCDCD" stroke-width="0.981132"/>
<mask id="path-53-inside-3_35_2" fill="white">
<path d="M633.376 282.908C632.626 282.908 631.957 282.779 631.37 282.522C630.787 282.264 630.323 281.906 629.978 281.448C629.637 280.986 629.452 280.45 629.421 279.84H630.853C630.883 280.215 631.012 280.539 631.24 280.812C631.467 281.081 631.764 281.289 632.132 281.437C632.499 281.584 632.906 281.658 633.353 281.658C633.853 281.658 634.296 281.571 634.683 281.397C635.069 281.223 635.372 280.98 635.592 280.67C635.811 280.359 635.921 279.999 635.921 279.59C635.921 279.162 635.815 278.785 635.603 278.459C635.391 278.13 635.08 277.872 634.671 277.687C634.262 277.501 633.762 277.408 633.171 277.408H632.24V276.158H633.171C633.633 276.158 634.039 276.075 634.387 275.908C634.74 275.742 635.014 275.507 635.211 275.204C635.412 274.901 635.512 274.545 635.512 274.136C635.512 273.742 635.425 273.399 635.251 273.107C635.077 272.815 634.83 272.588 634.512 272.425C634.198 272.262 633.827 272.181 633.399 272.181C632.997 272.181 632.618 272.255 632.262 272.403C631.91 272.546 631.622 272.757 631.399 273.033C631.175 273.306 631.054 273.636 631.035 274.022H629.671C629.694 273.412 629.878 272.878 630.222 272.42C630.567 271.957 631.018 271.598 631.575 271.34C632.135 271.082 632.751 270.954 633.421 270.954C634.141 270.954 634.758 271.1 635.274 271.391C635.789 271.679 636.185 272.06 636.461 272.533C636.738 273.007 636.876 273.518 636.876 274.067C636.876 274.723 636.704 275.281 636.359 275.743C636.018 276.206 635.554 276.526 634.967 276.704V276.795C635.702 276.916 636.275 277.228 636.688 277.732C637.101 278.232 637.308 278.851 637.308 279.59C637.308 280.223 637.135 280.791 636.791 281.295C636.45 281.795 635.984 282.189 635.393 282.476C634.802 282.764 634.13 282.908 633.376 282.908Z"/>
</mask>
<path d="M633.376 282.908C632.626 282.908 631.957 282.779 631.37 282.522C630.787 282.264 630.323 281.906 629.978 281.448C629.637 280.986 629.452 280.45 629.421 279.84H630.853C630.883 280.215 631.012 280.539 631.24 280.812C631.467 281.081 631.764 281.289 632.132 281.437C632.499 281.584 632.906 281.658 633.353 281.658C633.853 281.658 634.296 281.571 634.683 281.397C635.069 281.223 635.372 280.98 635.592 280.67C635.811 280.359 635.921 279.999 635.921 279.59C635.921 279.162 635.815 278.785 635.603 278.459C635.391 278.13 635.08 277.872 634.671 277.687C634.262 277.501 633.762 277.408 633.171 277.408H632.24V276.158H633.171C633.633 276.158 634.039 276.075 634.387 275.908C634.74 275.742 635.014 275.507 635.211 275.204C635.412 274.901 635.512 274.545 635.512 274.136C635.512 273.742 635.425 273.399 635.251 273.107C635.077 272.815 634.83 272.588 634.512 272.425C634.198 272.262 633.827 272.181 633.399 272.181C632.997 272.181 632.618 272.255 632.262 272.403C631.91 272.546 631.622 272.757 631.399 273.033C631.175 273.306 631.054 273.636 631.035 274.022H629.671C629.694 273.412 629.878 272.878 630.222 272.42C630.567 271.957 631.018 271.598 631.575 271.34C632.135 271.082 632.751 270.954 633.421 270.954C634.141 270.954 634.758 271.1 635.274 271.391C635.789 271.679 636.185 272.06 636.461 272.533C636.738 273.007 636.876 273.518 636.876 274.067C636.876 274.723 636.704 275.281 636.359 275.743C636.018 276.206 635.554 276.526 634.967 276.704V276.795C635.702 276.916 636.275 277.228 636.688 277.732C637.101 278.232 637.308 278.851 637.308 279.59C637.308 280.223 637.135 280.791 636.791 281.295C636.45 281.795 635.984 282.189 635.393 282.476C634.802 282.764 634.13 282.908 633.376 282.908Z" fill="black"/>
<path d="M631.37 282.522L630.974 283.419L630.976 283.42L631.37 282.522ZM629.978 281.448L629.189 282.03L629.194 282.038L629.978 281.448ZM629.421 279.84V278.859H628.39L628.441 279.889L629.421 279.84ZM630.853 279.84L631.831 279.761L631.758 278.859H630.853V279.84ZM631.24 280.812L630.486 281.44L630.49 281.445L631.24 280.812ZM632.132 281.437L631.766 282.347L631.766 282.347L632.132 281.437ZM635.592 280.67L634.791 280.103L634.791 280.103L635.592 280.67ZM635.603 278.459L634.778 278.99L634.781 278.995L635.603 278.459ZM634.671 277.687L634.266 278.58L634.266 278.58L634.671 277.687ZM632.24 277.408H631.258V278.389H632.24V277.408ZM632.24 276.158V275.177H631.258V276.158H632.24ZM634.387 275.908L633.968 275.021L633.964 275.023L634.387 275.908ZM635.211 275.204L634.393 274.662L634.388 274.669L635.211 275.204ZM635.251 273.107L636.093 272.604L636.093 272.604L635.251 273.107ZM634.512 272.425L634.061 273.296L634.065 273.299L634.512 272.425ZM632.262 272.403L632.633 273.311L632.638 273.309L632.262 272.403ZM631.399 273.033L632.157 273.655L632.162 273.65L631.399 273.033ZM631.035 274.022V275.003H631.969L632.015 274.07L631.035 274.022ZM629.671 274.022L628.691 273.985L628.653 275.003H629.671V274.022ZM630.222 272.42L631.007 273.009L631.009 273.006L630.222 272.42ZM631.575 271.34L631.165 270.449L631.163 270.45L631.575 271.34ZM635.274 271.391L634.79 272.245L634.795 272.248L635.274 271.391ZM636.461 272.533L635.614 273.028L635.614 273.028L636.461 272.533ZM636.359 275.743L635.572 275.157L635.569 275.161L636.359 275.743ZM634.967 276.704L634.682 275.765L633.986 275.976V276.704H634.967ZM634.967 276.795H633.986V277.627L634.807 277.763L634.967 276.795ZM636.688 277.732L635.93 278.354L635.932 278.357L636.688 277.732ZM636.791 281.295L635.981 280.741L635.98 280.742L636.791 281.295ZM635.393 282.476L635.823 283.358L635.823 283.358L635.393 282.476ZM633.376 281.927C632.739 281.927 632.208 281.818 631.764 281.623L630.976 283.42C631.707 283.741 632.513 283.889 633.376 283.889V281.927ZM631.766 281.624C631.319 281.427 630.995 281.168 630.762 280.858L629.194 282.038C629.65 282.645 630.255 283.102 630.974 283.419L631.766 281.624ZM630.768 280.866C630.549 280.569 630.423 280.221 630.401 279.791L628.441 279.889C628.481 280.679 628.726 281.403 629.189 282.03L630.768 280.866ZM629.421 280.821H630.853V278.859H629.421V280.821ZM629.875 279.919C629.921 280.483 630.121 281.002 630.486 281.44L631.993 280.184C631.904 280.076 631.846 279.947 631.831 279.761L629.875 279.919ZM630.49 281.445C630.833 281.851 631.268 282.147 631.766 282.347L632.498 280.526C632.26 280.431 632.101 280.311 631.989 280.178L630.49 281.445ZM631.766 282.347C632.263 282.547 632.797 282.639 633.353 282.639V280.677C633.016 280.677 632.735 280.622 632.498 280.526L631.766 282.347ZM633.353 282.639C633.968 282.639 634.552 282.532 635.086 282.291L634.279 280.502C634.04 280.61 633.739 280.677 633.353 280.677V282.639ZM635.086 282.291C635.613 282.054 636.061 281.705 636.393 281.236L634.791 280.103C634.683 280.255 634.525 280.392 634.279 280.502L635.086 282.291ZM636.393 281.236C636.739 280.747 636.902 280.186 636.902 279.59H634.94C634.94 279.812 634.884 279.971 634.791 280.103L636.393 281.236ZM636.902 279.59C636.902 278.992 636.752 278.425 636.425 277.924L634.781 278.995C634.879 279.145 634.94 279.332 634.94 279.59H636.902ZM636.428 277.928C636.1 277.418 635.632 277.045 635.077 276.793L634.266 278.58C634.529 278.699 634.682 278.842 634.778 278.99L636.428 277.928ZM635.077 276.793C634.507 276.535 633.86 276.427 633.171 276.427V278.389C633.664 278.389 634.018 278.467 634.266 278.58L635.077 276.793ZM633.171 276.427H632.24V278.389H633.171V276.427ZM633.221 277.408V276.158H631.258V277.408H633.221ZM632.24 277.139H633.171V275.177H632.24V277.139ZM633.171 277.139C633.752 277.139 634.306 277.034 634.811 276.793L633.964 275.023C633.771 275.115 633.515 275.177 633.171 275.177V277.139ZM634.807 276.795C635.31 276.557 635.73 276.206 636.034 275.738L634.388 274.669C634.298 274.808 634.169 274.926 633.968 275.021L634.807 276.795ZM636.029 275.746C636.349 275.262 636.493 274.712 636.493 274.136H634.531C634.531 274.377 634.474 274.539 634.393 274.662L636.029 275.746ZM636.493 274.136C636.493 273.593 636.372 273.071 636.093 272.604L634.409 273.61C634.478 273.727 634.531 273.89 634.531 274.136H636.493ZM636.093 272.604C635.819 272.146 635.432 271.794 634.959 271.552L634.065 273.299C634.228 273.382 634.334 273.485 634.409 273.61L636.093 272.604ZM634.964 271.554C634.483 271.305 633.951 271.2 633.399 271.2V273.162C633.702 273.162 633.912 273.219 634.061 273.296L634.964 271.554ZM633.399 271.2C632.874 271.2 632.366 271.297 631.886 271.496L632.638 273.309C632.87 273.213 633.121 273.162 633.399 273.162V271.2ZM631.891 271.494C631.397 271.696 630.97 272.002 630.636 272.417L632.162 273.65C632.274 273.511 632.423 273.397 632.633 273.311L631.891 271.494ZM630.64 272.411C630.27 272.863 630.083 273.399 630.055 273.974L632.015 274.07C632.025 273.872 632.08 273.749 632.157 273.655L630.64 272.411ZM631.035 273.041H629.671V275.003H631.035V273.041ZM630.652 274.058C630.668 273.635 630.79 273.297 631.007 273.009L629.438 271.83C628.965 272.459 628.721 273.189 628.691 273.985L630.652 274.058ZM631.009 273.006C631.25 272.683 631.568 272.424 631.987 272.231L631.163 270.45C630.468 270.771 629.885 271.232 629.436 271.833L631.009 273.006ZM631.984 272.232C632.406 272.038 632.88 271.935 633.421 271.935V269.973C632.622 269.973 631.865 270.127 631.165 270.449L631.984 272.232ZM633.421 271.935C634.008 271.935 634.451 272.053 634.79 272.245L635.757 270.537C635.066 270.146 634.274 269.973 633.421 269.973V271.935ZM634.795 272.248C635.169 272.457 635.432 272.717 635.614 273.028L637.308 272.038C636.937 271.402 636.408 270.901 635.752 270.535L634.795 272.248ZM635.614 273.028C635.803 273.351 635.895 273.692 635.895 274.067H637.857C637.857 273.345 637.673 272.662 637.308 272.038L635.614 273.028ZM635.895 274.067C635.895 274.541 635.774 274.887 635.572 275.157L637.145 276.33C637.633 275.676 637.857 274.904 637.857 274.067H635.895ZM635.569 275.161C635.363 275.441 635.082 275.644 634.682 275.765L635.251 277.643C636.026 277.408 636.673 276.97 637.148 276.326L635.569 275.161ZM633.986 276.704V276.795H635.948V276.704H633.986ZM634.807 277.763C635.343 277.851 635.689 278.061 635.93 278.354L637.447 277.11C636.862 276.396 636.061 275.981 635.126 275.827L634.807 277.763ZM635.932 278.357C636.18 278.657 636.327 279.046 636.327 279.59H638.289C638.289 278.657 638.023 277.807 637.445 277.107L635.932 278.357ZM636.327 279.59C636.327 280.033 636.21 280.406 635.981 280.741L637.6 281.849C638.061 281.175 638.289 280.413 638.289 279.59H636.327ZM635.98 280.742C635.743 281.089 635.414 281.375 634.963 281.594L635.823 283.358C636.553 283.002 637.156 282.5 637.601 281.847L635.98 280.742ZM634.963 281.594C634.525 281.808 634.003 281.927 633.376 281.927V283.889C634.257 283.889 635.079 283.72 635.823 283.358L634.963 281.594Z" fill="#CDCDCD" mask="url(#path-53-inside-3_35_2)"/>
<path d="M779.434 75.251H747.358V235.666H779.434V75.251Z" fill="#00E494" stroke="#CDCDCD" stroke-width="0.981132"/>
<path d="M811.51 75.251H779.434V235.666H811.51V75.251Z" fill="white" stroke="#CDCDCD" stroke-width="0.981132"/>
<path d="M843.585 75.251H811.51V235.666H843.585V75.251Z" fill="white" stroke="#CDCDCD" stroke-width="0.981132"/>
<path d="M875.66 75.251H843.585V235.666H875.66V75.251Z" fill="white" stroke="#CDCDCD" stroke-width="0.981132"/>
<path d="M907.736 75.251H875.66V235.666H907.736V75.251Z" fill="white" stroke="#CDCDCD" stroke-width="0.981132"/>
<path d="M939.811 75.251H907.736V235.666H939.811V75.251Z" fill="#00E494" stroke="#CDCDCD" stroke-width="0.981132"/>
<path d="M971.887 75.251H939.811V235.666H971.887V75.251Z" fill="white" stroke="#CDCDCD" stroke-width="0.981132"/>
<path d="M787.453 75.251H771.415V155.459H787.453V75.251Z" fill="black" stroke="black" stroke-width="0.981132"/>
<path d="M819.528 75.251H803.491V155.459H819.528V75.251Z" fill="black" stroke="black" stroke-width="0.981132"/>
<path d="M883.679 75.251H867.642V155.459H883.679V75.251Z" fill="black" stroke="black" stroke-width="0.981132"/>
<path d="M915.755 75.251H899.717V155.459H915.755V75.251Z" fill="black" stroke="black" stroke-width="0.981132"/>
<path d="M947.83 75.251H931.792V155.459H947.83V75.251Z" fill="black" stroke="black" stroke-width="0.981132"/>
<path d="M747.358 59.2095H971.887" stroke="#CDCDCD" stroke-width="0.981132"/>
<path d="M747.358 68.8343V49.5845" stroke="#CDCDCD" stroke-width="0.981132"/>
<path d="M971.887 68.8343V49.5845" stroke="#CDCDCD" stroke-width="0.981132"/>
<mask id="path-70-inside-4_35_2" fill="white">
<path d="M851.708 33.6681V32.509L856.822 24.4181H857.662V26.2135H857.094L853.231 32.3272V32.4181H860.117V33.6681H851.708ZM857.185 36.0544V33.3158V32.776V24.4181H858.526V36.0544H857.185Z"/>
</mask>
<path d="M851.708 33.6681V32.509L856.822 24.4181H857.662V26.2135H857.094L853.231 32.3272V32.4181H860.117V33.6681H851.708ZM857.185 36.0544V33.3158V32.776V24.4181H858.526V36.0544H857.185Z" fill="black"/>
<path d="M851.708 33.6681H850.727V34.6492H851.708V33.6681ZM851.708 32.509L850.879 31.9848L850.727 32.2249V32.509H851.708ZM856.822 24.4181V23.4369H856.281L855.992 23.8939L856.822 24.4181ZM857.662 24.4181H858.644V23.4369H857.662V24.4181ZM857.662 26.2135V27.1947H858.644V26.2135H857.662ZM857.094 26.2135V25.2324H856.554L856.265 25.6894L857.094 26.2135ZM853.231 32.3272L852.401 31.803L852.25 32.0431V32.3272H853.231ZM853.231 32.4181H852.25V33.3992H853.231V32.4181ZM860.117 32.4181H861.098V31.4369H860.117V32.4181ZM860.117 33.6681V34.6492H861.098V33.6681H860.117ZM857.185 36.0544H856.204V37.0356H857.185V36.0544ZM857.185 24.4181V23.4369H856.204V24.4181H857.185ZM858.526 24.4181H859.507V23.4369H858.526V24.4181ZM858.526 36.0544V37.0356H859.507V36.0544H858.526ZM852.689 33.6681V32.509H850.727V33.6681H852.689ZM852.537 33.0332L857.651 24.9423L855.992 23.8939L850.879 31.9848L852.537 33.0332ZM856.822 25.3992H857.662V23.4369H856.822V25.3992ZM856.681 24.4181V26.2135H858.644V24.4181H856.681ZM857.662 25.2324H857.094V27.1947H857.662V25.2324ZM856.265 25.6894L852.401 31.803L854.06 32.8513L857.924 26.7377L856.265 25.6894ZM852.25 32.3272V32.4181H854.212V32.3272H852.25ZM853.231 33.3992H860.117V31.4369H853.231V33.3992ZM859.136 32.4181V33.6681H861.098V32.4181H859.136ZM860.117 32.6869H851.708V34.6492H860.117V32.6869ZM858.166 36.0544V33.3158H856.204V36.0544H858.166ZM858.166 33.3158V32.776H856.204V33.3158H858.166ZM858.166 32.776V24.4181H856.204V32.776H858.166ZM857.185 25.3992H858.526V23.4369H857.185V25.3992ZM857.545 24.4181V36.0544H859.507V24.4181H857.545ZM858.526 35.0733H857.185V37.0356H858.526V35.0733Z" fill="#CDCDCD" mask="url(#path-70-inside-4_35_2)"/>
<path d="M1003.96 75.251H971.887V235.666H1003.96V75.251Z" fill="white" stroke="#CDCDCD" stroke-width="0.981132"/>
<path d="M1036.04 75.251H1003.96V235.666H1036.04V75.251Z" fill="white" stroke="#CDCDCD" stroke-width="0.981132"/>
<path d="M1068.11 75.251H1036.04V235.666H1068.11V75.251Z" fill="white" stroke="#CDCDCD" stroke-width="0.981132"/>
<path d="M1100.19 75.251H1068.11V235.666H1100.19V75.251Z" fill="white" stroke="#CDCDCD" stroke-width="0.981132"/>
<path d="M1132.26 75.251H1100.19V235.666H1132.26V75.251Z" fill="white" stroke="#CDCDCD" stroke-width="0.981132"/>
<path d="M1164.34 75.251H1132.26V235.666H1164.34V75.251Z" fill="white" stroke="#CDCDCD" stroke-width="0.981132"/>
<path d="M1196.42 75.251H1164.34V235.666H1196.42V75.251Z" fill="white" stroke="#CDCDCD" stroke-width="0.981132"/>
<path d="M1011.98 75.251H995.943V155.459H1011.98V75.251Z" fill="black" stroke="black" stroke-width="0.981132"/>
<path d="M1044.06 75.251H1028.02V155.459H1044.06V75.251Z" fill="black" stroke="black" stroke-width="0.981132"/>
<path d="M1108.21 75.251H1092.17V155.459H1108.21V75.251Z" fill="black" stroke="black" stroke-width="0.981132"/>
<path d="M1140.28 75.251H1124.25V155.459H1140.28V75.251Z" fill="black" stroke="black" stroke-width="0.981132"/>
<path d="M1172.36 75.251H1156.32V155.459H1172.36V75.251Z" fill="black" stroke="black" stroke-width="0.981132"/>
<path d="M971.887 251.708H1196.42" stroke="#CDCDCD" stroke-width="0.981132"/>
<path d="M971.887 261.332V242.083" stroke="#CDCDCD" stroke-width="0.981132"/>
<path d="M1196.42 261.332V242.083" stroke="#CDCDCD" stroke-width="0.981132"/>
<mask id="path-87-inside-5_35_2" fill="white">
<path d="M1082.14 282.908C1081.47 282.908 1080.87 282.776 1080.34 282.511C1079.8 282.245 1079.37 281.882 1079.05 281.42C1078.73 280.957 1078.55 280.431 1078.52 279.84H1079.89C1079.94 280.367 1080.18 280.802 1080.6 281.147C1081.03 281.488 1081.54 281.658 1082.14 281.658C1082.61 281.658 1083.04 281.546 1083.41 281.323C1083.78 281.1 1084.08 280.793 1084.29 280.403C1084.51 280.009 1084.61 279.564 1084.61 279.067C1084.61 278.56 1084.5 278.107 1084.28 277.709C1084.06 277.308 1083.76 276.992 1083.37 276.761C1082.98 276.529 1082.54 276.412 1082.05 276.408C1081.69 276.404 1081.32 276.459 1080.95 276.573C1080.57 276.683 1080.27 276.825 1080.02 276.999L1078.7 276.84L1079.41 271.113H1085.45V272.363H1080.59L1080.18 275.795H1080.25C1080.49 275.605 1080.79 275.448 1081.15 275.323C1081.51 275.198 1081.88 275.136 1082.27 275.136C1082.99 275.136 1083.62 275.306 1084.18 275.647C1084.74 275.984 1085.18 276.446 1085.49 277.033C1085.82 277.62 1085.98 278.291 1085.98 279.045C1085.98 279.787 1085.81 280.45 1085.48 281.033C1085.15 281.613 1084.69 282.071 1084.11 282.408C1083.53 282.742 1082.88 282.908 1082.14 282.908Z"/>
</mask>
<path d="M1082.14 282.908C1081.47 282.908 1080.87 282.776 1080.34 282.511C1079.8 282.245 1079.37 281.882 1079.05 281.42C1078.73 280.957 1078.55 280.431 1078.52 279.84H1079.89C1079.94 280.367 1080.18 280.802 1080.6 281.147C1081.03 281.488 1081.54 281.658 1082.14 281.658C1082.61 281.658 1083.04 281.546 1083.41 281.323C1083.78 281.1 1084.08 280.793 1084.29 280.403C1084.51 280.009 1084.61 279.564 1084.61 279.067C1084.61 278.56 1084.5 278.107 1084.28 277.709C1084.06 277.308 1083.76 276.992 1083.37 276.761C1082.98 276.529 1082.54 276.412 1082.05 276.408C1081.69 276.404 1081.32 276.459 1080.95 276.573C1080.57 276.683 1080.27 276.825 1080.02 276.999L1078.7 276.84L1079.41 271.113H1085.45V272.363H1080.59L1080.18 275.795H1080.25C1080.49 275.605 1080.79 275.448 1081.15 275.323C1081.51 275.198 1081.88 275.136 1082.27 275.136C1082.99 275.136 1083.62 275.306 1084.18 275.647C1084.74 275.984 1085.18 276.446 1085.49 277.033C1085.82 277.62 1085.98 278.291 1085.98 279.045C1085.98 279.787 1085.81 280.45 1085.48 281.033C1085.15 281.613 1084.69 282.071 1084.11 282.408C1083.53 282.742 1082.88 282.908 1082.14 282.908Z" fill="black"/>
<path d="M1080.34 282.511L1079.9 283.389L1079.9 283.389L1080.34 282.511ZM1079.05 281.42L1079.86 280.859L1079.86 280.859L1079.05 281.42ZM1078.52 279.84V278.859H1077.49L1077.54 279.89L1078.52 279.84ZM1079.89 279.84L1080.86 279.742L1080.77 278.859H1079.89V279.84ZM1080.6 281.147L1079.98 281.908L1079.99 281.914L1080.6 281.147ZM1083.41 281.323L1082.91 280.48L1082.9 280.482L1083.41 281.323ZM1084.29 280.403L1083.43 279.931L1083.43 279.934L1084.29 280.403ZM1084.28 277.709L1083.42 278.18L1083.42 278.19L1084.28 277.709ZM1082.05 276.408L1082.04 277.389L1082.04 277.389L1082.05 276.408ZM1080.95 276.573L1081.23 277.515L1081.23 277.512L1080.95 276.573ZM1080.02 276.999L1079.91 277.973L1080.29 278.019L1080.6 277.796L1080.02 276.999ZM1078.7 276.84L1077.73 276.72L1077.61 277.696L1078.59 277.814L1078.7 276.84ZM1079.41 271.113V270.132H1078.54L1078.44 270.993L1079.41 271.113ZM1085.45 271.113H1086.44V270.132H1085.45V271.113ZM1085.45 272.363V273.344H1086.44V272.363H1085.45ZM1080.59 272.363V271.382H1079.72L1079.62 272.247L1080.59 272.363ZM1080.18 275.795L1079.21 275.678L1079.08 276.776H1080.18V275.795ZM1080.25 275.795V276.776H1080.59L1080.86 276.563L1080.25 275.795ZM1084.18 275.647L1083.66 276.484L1083.67 276.488L1084.18 275.647ZM1085.49 277.033L1084.63 277.501L1084.63 277.505L1085.49 277.033ZM1085.48 281.033L1084.63 280.546L1084.62 280.548L1085.48 281.033ZM1084.11 282.408L1084.6 283.259L1084.61 283.256L1084.11 282.408ZM1082.14 281.927C1081.6 281.927 1081.16 281.822 1080.77 281.632L1079.9 283.389C1080.58 283.729 1081.34 283.889 1082.14 283.889V281.927ZM1080.77 281.632C1080.38 281.435 1080.08 281.178 1079.86 280.859L1078.25 281.98C1078.67 282.586 1079.23 283.055 1079.9 283.389L1080.77 281.632ZM1079.86 280.859C1079.64 280.555 1079.52 280.207 1079.5 279.79L1077.54 279.89C1077.58 280.655 1077.81 281.36 1078.25 281.98L1079.86 280.859ZM1078.52 280.821H1079.89V278.859H1078.52V280.821ZM1078.91 279.938C1078.99 280.734 1079.36 281.405 1079.98 281.908L1081.22 280.385C1080.99 280.199 1080.89 279.999 1080.86 279.742L1078.91 279.938ZM1079.99 281.914C1080.61 282.406 1081.34 282.639 1082.14 282.639V280.677C1081.74 280.677 1081.45 280.57 1081.21 280.379L1079.99 281.914ZM1082.14 282.639C1082.77 282.639 1083.38 282.488 1083.92 282.164L1082.9 280.482C1082.7 280.605 1082.45 280.677 1082.14 280.677V282.639ZM1083.91 282.166C1084.44 281.851 1084.86 281.413 1085.15 280.871L1083.43 279.934C1083.3 280.172 1083.13 280.349 1082.91 280.48L1083.91 282.166ZM1085.15 280.874C1085.45 280.321 1085.6 279.711 1085.6 279.067H1083.63C1083.63 279.416 1083.56 279.696 1083.43 279.931L1085.15 280.874ZM1085.6 279.067C1085.6 278.411 1085.45 277.789 1085.13 277.229L1083.42 278.19C1083.56 278.425 1083.63 278.709 1083.63 279.067H1085.6ZM1085.14 277.238C1084.84 276.686 1084.41 276.241 1083.87 275.918L1082.87 277.603C1083.1 277.742 1083.28 277.929 1083.42 278.18L1085.14 277.238ZM1083.87 275.918C1083.32 275.589 1082.71 275.432 1082.05 275.427L1082.04 277.389C1082.38 277.392 1082.64 277.47 1082.87 277.603L1083.87 275.918ZM1082.06 275.427C1081.59 275.422 1081.13 275.494 1080.66 275.634L1081.23 277.512C1081.52 277.424 1081.79 277.387 1082.04 277.389L1082.06 275.427ZM1080.67 275.631C1080.22 275.763 1079.81 275.947 1079.45 276.202L1080.6 277.796C1080.73 277.703 1080.93 277.602 1081.23 277.515L1080.67 275.631ZM1080.14 276.025L1078.82 275.866L1078.59 277.814L1079.91 277.973L1080.14 276.025ZM1079.68 276.96L1080.38 271.233L1078.44 270.993L1077.73 276.72L1079.68 276.96ZM1079.41 272.094H1085.45V270.132H1079.41V272.094ZM1084.47 271.113V272.363H1086.44V271.113H1084.47ZM1085.45 271.382H1080.59V273.344H1085.45V271.382ZM1079.62 272.247L1079.21 275.678L1081.16 275.911L1081.57 272.479L1079.62 272.247ZM1080.18 276.776H1080.25V274.813H1080.18V276.776ZM1080.86 276.563C1080.99 276.457 1081.19 276.347 1081.47 276.25L1080.83 274.396C1080.39 274.549 1079.98 274.753 1079.64 275.026L1080.86 276.563ZM1081.47 276.25C1081.72 276.162 1081.99 276.117 1082.27 276.117V274.154C1081.78 274.154 1081.29 274.234 1080.83 274.396L1081.47 276.25ZM1082.27 276.117C1082.82 276.117 1083.28 276.246 1083.66 276.484L1084.69 274.81C1083.96 274.366 1083.15 274.154 1082.27 274.154V276.117ZM1083.67 276.488C1084.08 276.733 1084.4 277.064 1084.63 277.501L1086.36 276.566C1085.96 275.828 1085.4 275.235 1084.68 274.806L1083.67 276.488ZM1084.63 277.505C1084.87 277.93 1085 278.435 1085 279.045H1086.96C1086.96 278.147 1086.77 277.311 1086.36 276.561L1084.63 277.505ZM1085 279.045C1085 279.635 1084.87 280.127 1084.63 280.546L1086.33 281.52C1086.76 280.773 1086.96 279.939 1086.96 279.045H1085ZM1084.62 280.548C1084.38 280.976 1084.05 281.31 1083.62 281.56L1084.61 283.256C1085.34 282.833 1085.91 282.249 1086.33 281.518L1084.62 280.548ZM1083.62 281.558C1083.21 281.797 1082.72 281.927 1082.14 281.927V283.889C1083.03 283.889 1083.86 283.686 1084.6 283.259L1083.62 281.558Z" fill="#CDCDCD" mask="url(#path-87-inside-5_35_2)"/>
<path d="M1228.49 75.251H1196.42V235.666H1228.49V75.251Z" fill="white" stroke="#CDCDCD" stroke-width="0.981132"/>
<path d="M1260.57 75.251H1228.49V235.666H1260.57V75.251Z" fill="white" stroke="#CDCDCD" stroke-width="0.981132"/>
<path d="M1292.64 75.251H1260.57V235.666H1292.64V75.251Z" fill="white" stroke="#CDCDCD" stroke-width="0.981132"/>
<path d="M1324.72 75.251H1292.64V235.666H1324.72V75.251Z" fill="white" stroke="#CDCDCD" stroke-width="0.981132"/>
<path d="M1356.79 75.251H1324.72V235.666H1356.79V75.251Z" fill="white" stroke="#CDCDCD" stroke-width="0.981132"/>
<path d="M1388.87 75.251H1356.79V235.666H1388.87V75.251Z" fill="white" stroke="#CDCDCD" stroke-width="0.981132"/>
<path d="M1420.94 75.251H1388.87V235.666H1420.94V75.251Z" fill="white" stroke="#CDCDCD" stroke-width="0.981132"/>
<path d="M1236.51 75.251H1220.47V155.459H1236.51V75.251Z" fill="black" stroke="black" stroke-width="0.981132"/>
<path d="M1268.58 75.251H1252.55V155.459H1268.58V75.251Z" fill="black" stroke="black" stroke-width="0.981132"/>
<path d="M1332.74 75.251H1316.7V155.459H1332.74V75.251Z" fill="black" stroke="black" stroke-width="0.981132"/>
<path d="M1364.81 75.251H1348.77V155.459H1364.81V75.251Z" fill="black" stroke="black" stroke-width="0.981132"/>
<path d="M1396.89 75.251H1380.85V155.459H1396.89V75.251Z" fill="black" stroke="black" stroke-width="0.981132"/>
<path d="M1196.42 59.2095H1420.94" stroke="#CDCDCD" stroke-width="0.981132"/>
<path d="M1196.42 68.8343V49.5845" stroke="#CDCDCD" stroke-width="0.981132"/>
<path d="M1420.94 68.8343V49.5845" stroke="#CDCDCD" stroke-width="0.981132"/>
<mask id="path-104-inside-6_35_2" fill="white">
<path d="M1304.9 36.2135C1304.42 36.206 1303.95 36.115 1303.47 35.9408C1302.99 35.7666 1302.56 35.473 1302.16 35.0601C1301.77 34.6435 1301.45 34.081 1301.21 33.3726C1300.97 32.6605 1300.86 31.7666 1300.86 30.6908C1300.86 29.6605 1300.95 28.7476 1301.15 27.9522C1301.34 27.1529 1301.62 26.4806 1301.99 25.9351C1302.35 25.3859 1302.8 24.9692 1303.32 24.6851C1303.84 24.401 1304.43 24.259 1305.08 24.259C1305.73 24.259 1306.31 24.3897 1306.82 24.651C1307.33 24.9086 1307.75 25.2685 1308.07 25.7306C1308.39 26.1927 1308.6 26.7249 1308.7 27.3272H1307.31C1307.18 26.8044 1306.93 26.3707 1306.56 26.026C1306.19 25.6813 1305.7 25.509 1305.08 25.509C1304.18 25.509 1303.47 25.901 1302.95 26.6851C1302.44 27.4692 1302.18 28.5696 1302.17 29.9863H1302.26C1302.48 29.6643 1302.73 29.3897 1303.02 29.1624C1303.32 28.9313 1303.64 28.7533 1304 28.6283C1304.35 28.5033 1304.73 28.4408 1305.13 28.4408C1305.79 28.4408 1306.4 28.6075 1306.96 28.9408C1307.51 29.2704 1307.95 29.7268 1308.29 30.3101C1308.62 30.8897 1308.79 31.5544 1308.79 32.3044C1308.79 33.0241 1308.63 33.6832 1308.3 34.2817C1307.98 34.8764 1307.53 35.3499 1306.95 35.7022C1306.37 36.0507 1305.68 36.2211 1304.9 36.2135ZM1304.9 34.9635C1305.38 34.9635 1305.81 34.8442 1306.18 34.6056C1306.57 34.3669 1306.87 34.0469 1307.09 33.6454C1307.31 33.2438 1307.42 32.7969 1307.42 32.3044C1307.42 31.8234 1307.32 31.3859 1307.1 30.9919C1306.89 30.5942 1306.59 30.2779 1306.22 30.0431C1305.85 29.8082 1305.42 29.6908 1304.95 29.6908C1304.59 29.6908 1304.25 29.7628 1303.94 29.9067C1303.63 30.0469 1303.36 30.24 1303.12 30.4863C1302.89 30.7325 1302.71 31.0147 1302.58 31.3329C1302.44 31.6472 1302.38 31.9787 1302.38 32.3272C1302.38 32.7893 1302.49 33.2211 1302.7 33.6226C1302.92 34.0241 1303.22 34.348 1303.6 34.5942C1303.98 34.8404 1304.42 34.9635 1304.9 34.9635Z"/>
</mask>
<path d="M1304.9 36.2135C1304.42 36.206 1303.95 36.115 1303.47 35.9408C1302.99 35.7666 1302.56 35.473 1302.16 35.0601C1301.77 34.6435 1301.45 34.081 1301.21 33.3726C1300.97 32.6605 1300.86 31.7666 1300.86 30.6908C1300.86 29.6605 1300.95 28.7476 1301.15 27.9522C1301.34 27.1529 1301.62 26.4806 1301.99 25.9351C1302.35 25.3859 1302.8 24.9692 1303.32 24.6851C1303.84 24.401 1304.43 24.259 1305.08 24.259C1305.73 24.259 1306.31 24.3897 1306.82 24.651C1307.33 24.9086 1307.75 25.2685 1308.07 25.7306C1308.39 26.1927 1308.6 26.7249 1308.7 27.3272H1307.31C1307.18 26.8044 1306.93 26.3707 1306.56 26.026C1306.19 25.6813 1305.7 25.509 1305.08 25.509C1304.18 25.509 1303.47 25.901 1302.95 26.6851C1302.44 27.4692 1302.18 28.5696 1302.17 29.9863H1302.26C1302.48 29.6643 1302.73 29.3897 1303.02 29.1624C1303.32 28.9313 1303.64 28.7533 1304 28.6283C1304.35 28.5033 1304.73 28.4408 1305.13 28.4408C1305.79 28.4408 1306.4 28.6075 1306.96 28.9408C1307.51 29.2704 1307.95 29.7268 1308.29 30.3101C1308.62 30.8897 1308.79 31.5544 1308.79 32.3044C1308.79 33.0241 1308.63 33.6832 1308.3 34.2817C1307.98 34.8764 1307.53 35.3499 1306.95 35.7022C1306.37 36.0507 1305.68 36.2211 1304.9 36.2135ZM1304.9 34.9635C1305.38 34.9635 1305.81 34.8442 1306.18 34.6056C1306.57 34.3669 1306.87 34.0469 1307.09 33.6454C1307.31 33.2438 1307.42 32.7969 1307.42 32.3044C1307.42 31.8234 1307.32 31.3859 1307.1 30.9919C1306.89 30.5942 1306.59 30.2779 1306.22 30.0431C1305.85 29.8082 1305.42 29.6908 1304.95 29.6908C1304.59 29.6908 1304.25 29.7628 1303.94 29.9067C1303.63 30.0469 1303.36 30.24 1303.12 30.4863C1302.89 30.7325 1302.71 31.0147 1302.58 31.3329C1302.44 31.6472 1302.38 31.9787 1302.38 32.3272C1302.38 32.7893 1302.49 33.2211 1302.7 33.6226C1302.92 34.0241 1303.22 34.348 1303.6 34.5942C1303.98 34.8404 1304.42 34.9635 1304.9 34.9635Z" fill="black"/>
<path d="M1304.9 36.2135L1304.89 37.1946L1304.89 37.1946L1304.9 36.2135ZM1303.47 35.9408L1303.13 36.8624L1303.13 36.8624L1303.47 35.9408ZM1302.16 35.0601L1301.45 35.7342L1301.45 35.7374L1302.16 35.0601ZM1301.21 33.3726L1300.28 33.6844L1300.28 33.6859L1301.21 33.3726ZM1301.15 27.9522L1302.1 28.1837L1302.1 28.1827L1301.15 27.9522ZM1301.99 25.9351L1302.8 26.4833L1302.8 26.4807L1301.99 25.9351ZM1303.32 24.6851L1302.85 23.8231L1302.84 23.8245L1303.32 24.6851ZM1306.82 24.651L1306.37 25.5234L1306.38 25.5273L1306.82 24.651ZM1308.07 25.7306L1308.88 25.1697L1308.88 25.1697L1308.07 25.7306ZM1308.7 27.3272V28.3083H1309.84L1309.67 27.1748L1308.7 27.3272ZM1307.31 27.3272L1306.36 27.5619L1306.54 28.3083H1307.31V27.3272ZM1306.56 26.026L1305.89 26.745L1305.89 26.745L1306.56 26.026ZM1302.95 26.6851L1302.13 26.1436L1302.13 26.1464L1302.95 26.6851ZM1302.17 29.9863L1301.19 29.9836L1301.19 30.9674H1302.17V29.9863ZM1302.26 29.9863V30.9674H1302.79L1303.08 30.526L1302.26 29.9863ZM1303.02 29.1624L1303.62 29.9363L1303.62 29.9353L1303.02 29.1624ZM1304 28.6283L1303.67 27.7026L1304 28.6283ZM1306.96 28.9408L1306.45 29.7811L1306.46 29.7836L1306.96 28.9408ZM1308.29 30.3101L1307.44 30.7969L1307.44 30.7993L1308.29 30.3101ZM1308.3 34.2817L1309.17 34.7488L1309.17 34.7465L1308.3 34.2817ZM1306.95 35.7022L1307.45 36.543L1307.45 36.542L1306.95 35.7022ZM1306.18 34.6056L1305.67 33.7731L1305.66 33.7755L1306.18 34.6056ZM1307.09 33.6454L1306.23 33.1682L1306.23 33.1744L1307.09 33.6454ZM1307.1 30.9919L1306.23 31.4537L1306.24 31.4635L1307.1 30.9919ZM1306.22 30.0431L1305.69 30.8722L1305.7 30.8746L1306.22 30.0431ZM1303.94 29.9067L1304.34 30.8011L1304.35 30.7969L1303.94 29.9067ZM1303.12 30.4863L1302.41 29.8091L1302.41 29.8149L1303.12 30.4863ZM1302.58 31.3329L1303.48 31.7141L1303.48 31.7102L1302.58 31.3329ZM1302.7 33.6226L1301.84 34.0873L1301.84 34.0936L1302.7 33.6226ZM1303.6 34.5942L1303.06 35.4168L1303.07 35.4193L1303.6 34.5942ZM1304.92 35.2325C1304.56 35.2268 1304.19 35.1583 1303.81 35.0192L1303.13 36.8624C1303.71 37.0718 1304.29 37.1851 1304.89 37.1945L1304.92 35.2325ZM1303.81 35.0192C1303.49 34.9027 1303.17 34.7002 1302.87 34.3828L1301.45 35.7374C1301.94 36.2458 1302.5 36.6305 1303.13 36.8624L1303.81 35.0192ZM1302.88 34.3861C1302.6 34.0989 1302.35 33.6723 1302.14 33.0594L1300.28 33.6859C1300.55 34.4896 1300.93 35.188 1301.45 35.7342L1302.88 34.3861ZM1302.14 33.0609C1301.95 32.4824 1301.84 31.7024 1301.84 30.6908H1299.87C1299.87 31.8307 1300 32.8386 1300.28 33.6844L1302.14 33.0609ZM1301.84 30.6908C1301.84 29.7194 1301.93 28.8868 1302.1 28.1837L1300.19 27.7206C1299.98 28.6084 1299.87 29.6016 1299.87 30.6908H1301.84ZM1302.1 28.1827C1302.27 27.4695 1302.51 26.9112 1302.8 26.4833L1301.17 25.387C1300.73 26.05 1300.41 26.8363 1300.19 27.7217L1302.1 28.1827ZM1302.8 26.4807C1303.09 26.047 1303.42 25.7455 1303.79 25.5457L1302.84 23.8245C1302.17 24.1929 1301.62 24.7247 1301.17 25.3896L1302.8 26.4807ZM1303.78 25.5472C1304.15 25.3489 1304.57 25.2401 1305.08 25.2401V23.2779C1304.28 23.2779 1303.53 23.4531 1302.85 23.8231L1303.78 25.5472ZM1305.08 25.2401C1305.6 25.2401 1306.02 25.343 1306.37 25.5233L1307.27 23.7788C1306.61 23.4363 1305.87 23.2779 1305.08 23.2779V25.2401ZM1306.38 25.5273C1306.75 25.7128 1307.04 25.9653 1307.27 26.2914L1308.88 25.1697C1308.46 24.5716 1307.92 24.1044 1307.26 23.7748L1306.38 25.5273ZM1307.27 26.2914C1307.5 26.6218 1307.65 27.0118 1307.73 27.4796L1309.67 27.1748C1309.55 26.438 1309.29 25.7636 1308.88 25.1697L1307.27 26.2914ZM1308.7 26.346H1307.31V28.3083H1308.7V26.346ZM1308.26 27.0925C1308.09 26.3962 1307.75 25.7903 1307.23 25.3071L1305.89 26.745C1306.11 26.9512 1306.27 27.2127 1306.36 27.5619L1308.26 27.0925ZM1307.23 25.3071C1306.64 24.7597 1305.89 24.5279 1305.08 24.5279V26.4901C1305.5 26.4901 1305.74 26.603 1305.89 26.745L1307.23 25.3071ZM1305.08 24.5279C1303.84 24.5279 1302.82 25.0992 1302.13 26.1436L1303.77 27.2266C1304.12 26.7029 1304.53 26.4901 1305.08 26.4901V24.5279ZM1302.13 26.1464C1301.47 27.1516 1301.2 28.4672 1301.19 29.9836L1303.15 29.9889C1303.16 28.672 1303.4 27.7868 1303.77 27.2239L1302.13 26.1464ZM1302.17 30.9674H1302.26V29.0051H1302.17V30.9674ZM1303.08 30.526C1303.24 30.2895 1303.42 30.0951 1303.62 29.9363L1302.42 28.3885C1302.04 28.6843 1301.71 29.0391 1301.45 29.4465L1303.08 30.526ZM1303.62 29.9353C1303.84 29.7704 1304.07 29.6439 1304.32 29.554L1303.67 27.7026C1303.22 27.8627 1302.8 28.0922 1302.42 28.3895L1303.62 29.9353ZM1304.32 29.554C1304.57 29.4677 1304.83 29.4219 1305.13 29.4219V27.4597C1304.63 27.4597 1304.14 27.539 1303.67 27.7026L1304.32 29.554ZM1305.13 29.4219C1305.62 29.4219 1306.06 29.543 1306.45 29.7811L1307.46 28.1005C1306.75 27.6719 1305.97 27.4597 1305.13 27.4597V29.4219ZM1306.46 29.7836C1306.86 30.0228 1307.18 30.3537 1307.44 30.7969L1309.14 29.8233C1308.73 29.0998 1308.16 28.5179 1307.46 28.098L1306.46 29.7836ZM1307.44 30.7993C1307.67 31.2125 1307.81 31.7048 1307.81 32.3044H1309.77C1309.77 31.4041 1309.57 30.5668 1309.14 29.821L1307.44 30.7993ZM1307.81 32.3044C1307.81 32.8718 1307.68 33.3697 1307.44 33.8169L1309.17 34.7465C1309.57 33.9967 1309.77 33.1765 1309.77 32.3044H1307.81ZM1307.44 33.8146C1307.2 34.2543 1306.87 34.5997 1306.44 34.8623L1307.45 36.542C1308.19 36.1001 1308.76 35.4985 1309.17 34.7488L1307.44 33.8146ZM1306.44 34.8613C1306.04 35.1023 1305.54 35.2386 1304.91 35.2324L1304.89 37.1946C1305.83 37.2037 1306.69 36.999 1307.45 36.543L1306.44 34.8613ZM1304.9 35.9447C1305.55 35.9447 1306.16 35.7796 1306.71 35.4357L1305.66 33.7755C1305.45 33.9088 1305.21 33.9824 1304.9 33.9824V35.9447ZM1306.7 35.438C1307.23 35.1088 1307.65 34.6633 1307.95 34.1163L1306.23 33.1744C1306.09 33.4304 1305.9 33.6251 1305.67 33.7731L1306.7 35.438ZM1307.95 34.1225C1308.26 33.5647 1308.4 32.9515 1308.4 32.3044H1306.44C1306.44 32.6422 1306.37 32.923 1306.23 33.1682L1307.95 34.1225ZM1308.4 32.3044C1308.4 31.6706 1308.26 31.0691 1307.96 30.5204L1306.24 31.4635C1306.37 31.7027 1306.44 31.9762 1306.44 32.3044H1308.4ZM1307.97 30.5302C1307.67 29.9842 1307.26 29.5392 1306.74 29.2116L1305.7 30.8746C1305.92 31.0167 1306.1 31.2043 1306.23 31.4537L1307.97 30.5302ZM1306.74 29.2139C1306.2 28.8712 1305.59 28.7097 1304.95 28.7097V30.6719C1305.25 30.6719 1305.49 30.7452 1305.69 30.8722L1306.74 29.2139ZM1304.95 28.7097C1304.45 28.7097 1303.97 28.8096 1303.53 29.0165L1304.35 30.7969C1304.53 30.7159 1304.72 30.6719 1304.95 30.6719V28.7097ZM1303.54 29.0124C1303.11 29.2044 1302.73 29.4713 1302.41 29.8091L1303.83 31.1634C1303.98 31.0088 1304.15 30.8893 1304.34 30.801L1303.54 29.0124ZM1302.41 29.8149C1302.09 30.1487 1301.85 30.531 1301.67 30.9555L1303.48 31.7102C1303.57 31.4983 1303.69 31.3163 1303.84 31.1577L1302.41 29.8149ZM1301.67 30.9516C1301.49 31.3893 1301.4 31.8506 1301.4 32.3272H1303.36C1303.36 32.1068 1303.4 31.9052 1303.48 31.7141L1301.67 30.9516ZM1301.4 32.3272C1301.4 32.9492 1301.54 33.5409 1301.84 34.0873L1303.57 33.158C1303.43 32.9013 1303.36 32.6294 1303.36 32.3272H1301.4ZM1301.84 34.0936C1302.14 34.6355 1302.55 35.081 1303.06 35.4168L1304.13 33.7716C1303.89 33.615 1303.71 33.4127 1303.56 33.1517L1301.84 34.0936ZM1303.07 35.4193C1303.62 35.7742 1304.24 35.9447 1304.9 35.9447V33.9824C1304.59 33.9824 1304.34 33.9067 1304.13 33.7692L1303.07 35.4193Z" fill="#CDCDCD" mask="url(#path-104-inside-6_35_2)"/>
<path d="M1453.02 75.251H1420.94V235.666H1453.02V75.251Z" fill="white" stroke="#CDCDCD" stroke-width="0.981132"/>
<path d="M1485.09 75.251H1453.02V235.666H1485.09V75.251Z" fill="white" stroke="#CDCDCD" stroke-width="0.981132"/>
<path d="M1517.17 75.251H1485.09V235.666H1517.17V75.251Z" fill="white" stroke="#CDCDCD" stroke-width="0.981132"/>
<path d="M1549.25 75.251H1517.17V235.666H1549.25V75.251Z" fill="white" stroke="#CDCDCD" stroke-width="0.981132"/>
<path d="M1581.32 75.251H1549.25V235.666H1581.32V75.251Z" fill="white" stroke="#CDCDCD" stroke-width="0.981132"/>
<path d="M1613.4 75.251H1581.32V235.666H1613.4V75.251Z" fill="white" stroke="#CDCDCD" stroke-width="0.981132"/>
<path d="M1645.47 75.251H1613.4V235.666H1645.47V75.251Z" fill="white" stroke="#CDCDCD" stroke-width="0.981132"/>
<path d="M1461.04 75.251H1445V155.459H1461.04V75.251Z" fill="black" stroke="black" stroke-width="0.981132"/>
<path d="M1493.11 75.251H1477.08V155.459H1493.11V75.251Z" fill="black" stroke="black" stroke-width="0.981132"/>
<path d="M1557.26 75.251H1541.23V155.459H1557.26V75.251Z" fill="black" stroke="black" stroke-width="0.981132"/>
<path d="M1589.34 75.251H1573.3V155.459H1589.34V75.251Z" fill="black" stroke="black" stroke-width="0.981132"/>
<path d="M1621.42 75.251H1605.38V155.459H1621.42V75.251Z" fill="black" stroke="black" stroke-width="0.981132"/>
<path d="M1420.94 251.708H1645.47" stroke="#CDCDCD" stroke-width="0.981132"/>
<path d="M1420.94 261.332V242.083" stroke="#CDCDCD" stroke-width="0.981132"/>
<path d="M1645.47 261.332V242.083" stroke="#CDCDCD" stroke-width="0.981132"/>
<mask id="path-121-inside-7_35_2" fill="white">
<path d="M1529.91 282.749L1535.12 272.454V272.363H1529.12V271.113H1536.57V272.431L1531.39 282.749H1529.91Z"/>
</mask>
<path d="M1529.91 282.749L1535.12 272.454V272.363H1529.12V271.113H1536.57V272.431L1531.39 282.749H1529.91Z" fill="black"/>
<path d="M1529.91 282.749L1529.04 282.307L1528.32 283.73H1529.91V282.749ZM1535.12 272.454L1535.99 272.896L1536.1 272.688V272.454H1535.12ZM1535.12 272.363H1536.1V271.382H1535.12V272.363ZM1529.12 272.363H1528.14V273.344H1529.12V272.363ZM1529.12 271.113V270.132H1528.14V271.113H1529.12ZM1536.57 271.113H1537.55V270.132H1536.57V271.113ZM1536.57 272.431L1537.45 272.871L1537.55 272.663V272.431H1536.57ZM1531.39 282.749V283.73H1532L1532.27 283.189L1531.39 282.749ZM1530.79 283.192L1535.99 272.896L1534.24 272.011L1529.04 282.307L1530.79 283.192ZM1536.1 272.454V272.363H1534.14V272.454H1536.1ZM1535.12 271.382H1529.12V273.344H1535.12V271.382ZM1530.1 272.363V271.113H1528.14V272.363H1530.1ZM1529.12 272.094H1536.57V270.132H1529.12V272.094ZM1535.59 271.113V272.431H1537.55V271.113H1535.59ZM1535.7 271.991L1530.51 282.309L1532.27 283.189L1537.45 272.871L1535.7 271.991ZM1531.39 281.768H1529.91V283.73H1531.39V281.768Z" fill="#CDCDCD" mask="url(#path-121-inside-7_35_2)"/>
<path d="M1677.55 75.251H1645.47V235.666H1677.55V75.251Z" fill="white" stroke="#CDCDCD" stroke-width="0.981132"/>
<path d="M9.62256 59.2095H73.7735" stroke="#CDCDCD" stroke-width="0.981132"/>
<path d="M9.62256 68.8343V49.5845" stroke="#CDCDCD" stroke-width="0.981132"/>
<path d="M73.7737 68.8343V49.5845" stroke="#CDCDCD" stroke-width="0.981132"/>
<mask id="path-127-inside-8_35_2" fill="white">
<path d="M41.8352 36.2135C40.9791 36.2135 40.25 35.9806 39.6477 35.5147C39.0454 35.045 38.5852 34.365 38.267 33.4749C37.9488 32.581 37.7898 31.5014 37.7898 30.2363C37.7898 28.9787 37.9488 27.9048 38.267 27.0147C38.589 26.1207 39.0511 25.4389 39.6534 24.9692C40.2594 24.4957 40.9867 24.259 41.8352 24.259C42.6837 24.259 43.4091 24.4957 44.0113 24.9692C44.6174 25.4389 45.0795 26.1207 45.3977 27.0147C45.7197 27.9048 45.8807 28.9787 45.8807 30.2363C45.8807 31.5014 45.7216 32.581 45.4034 33.4749C45.0852 34.365 44.625 35.045 44.0227 35.5147C43.4204 35.9806 42.6913 36.2135 41.8352 36.2135ZM41.8352 34.9635C42.6837 34.9635 43.3428 34.5544 43.8125 33.7363C44.2822 32.9181 44.517 31.7514 44.517 30.2363C44.517 29.2287 44.4091 28.3707 44.1932 27.6624C43.981 26.9541 43.6742 26.4143 43.2727 26.0431C42.875 25.6719 42.3958 25.4863 41.8352 25.4863C40.9943 25.4863 40.3371 25.901 39.8636 26.7306C39.3901 27.5563 39.1534 28.7249 39.1534 30.2363C39.1534 31.2438 39.2594 32.0999 39.4716 32.8044C39.6837 33.509 39.9886 34.045 40.3863 34.4124C40.7879 34.7798 41.2708 34.9635 41.8352 34.9635Z"/>
</mask>
<path d="M41.8352 36.2135C40.9791 36.2135 40.25 35.9806 39.6477 35.5147C39.0454 35.045 38.5852 34.365 38.267 33.4749C37.9488 32.581 37.7898 31.5014 37.7898 30.2363C37.7898 28.9787 37.9488 27.9048 38.267 27.0147C38.589 26.1207 39.0511 25.4389 39.6534 24.9692C40.2594 24.4957 40.9867 24.259 41.8352 24.259C42.6837 24.259 43.4091 24.4957 44.0113 24.9692C44.6174 25.4389 45.0795 26.1207 45.3977 27.0147C45.7197 27.9048 45.8807 28.9787 45.8807 30.2363C45.8807 31.5014 45.7216 32.581 45.4034 33.4749C45.0852 34.365 44.625 35.045 44.0227 35.5147C43.4204 35.9806 42.6913 36.2135 41.8352 36.2135ZM41.8352 34.9635C42.6837 34.9635 43.3428 34.5544 43.8125 33.7363C44.2822 32.9181 44.517 31.7514 44.517 30.2363C44.517 29.2287 44.4091 28.3707 44.1932 27.6624C43.981 26.9541 43.6742 26.4143 43.2727 26.0431C42.875 25.6719 42.3958 25.4863 41.8352 25.4863C40.9943 25.4863 40.3371 25.901 39.8636 26.7306C39.3901 27.5563 39.1534 28.7249 39.1534 30.2363C39.1534 31.2438 39.2594 32.0999 39.4716 32.8044C39.6837 33.509 39.9886 34.045 40.3863 34.4124C40.7879 34.7798 41.2708 34.9635 41.8352 34.9635Z" fill="black"/>
<path d="M39.6477 35.5147L39.0443 36.2883L39.0474 36.2907L39.6477 35.5147ZM38.267 33.4749L37.3427 33.8039L37.3431 33.8051L38.267 33.4749ZM38.267 27.0147L37.3439 26.6822L37.3431 26.6844L38.267 27.0147ZM39.6534 24.9692L40.2568 25.7429L40.2574 25.7424L39.6534 24.9692ZM44.0113 24.9692L43.4049 25.7405L43.4103 25.7447L44.0113 24.9692ZM45.3977 27.0147L44.4734 27.3437L44.4751 27.3484L45.3977 27.0147ZM45.4034 33.4749L46.3273 33.8051L46.3277 33.8039L45.4034 33.4749ZM44.0227 35.5147L44.623 36.2907L44.6261 36.2883L44.0227 35.5147ZM43.8125 33.7363L42.9616 33.2478L42.9616 33.2478L43.8125 33.7363ZM44.1932 27.6624L43.2533 27.9439L43.2547 27.9485L44.1932 27.6624ZM43.2727 26.0431L42.6033 26.7603L42.6067 26.7635L43.2727 26.0431ZM39.8636 26.7306L40.7148 27.2186L40.7157 27.2169L39.8636 26.7306ZM39.4716 32.8044L38.5321 33.0873L38.5321 33.0873L39.4716 32.8044ZM40.3863 34.4124L39.7206 35.1331L39.724 35.1362L40.3863 34.4124ZM41.8352 35.2324C41.168 35.2324 40.6572 35.0552 40.248 34.7386L39.0474 36.2907C39.8427 36.906 40.7903 37.1947 41.8352 37.1947V35.2324ZM40.2511 34.741C39.8269 34.4102 39.4613 33.9012 39.1909 33.1447L37.3431 33.8051C37.7091 34.8289 38.264 35.6798 39.0443 36.2883L40.2511 34.741ZM39.1914 33.1459C38.921 32.3862 38.7709 31.4244 38.7709 30.2363H36.8086C36.8086 31.5784 36.9767 32.7757 37.3427 33.8039L39.1914 33.1459ZM38.7709 30.2363C38.7709 29.0563 38.9208 28.1005 39.1909 27.3449L37.3431 26.6844C36.9769 27.7091 36.8086 28.9011 36.8086 30.2363H38.7709ZM39.1901 27.3471C39.4646 26.5851 39.8325 26.0738 40.2568 25.7429L39.05 24.1955C38.2698 24.8041 37.7134 25.6564 37.3439 26.6822L39.1901 27.3471ZM40.2574 25.7424C40.673 25.4177 41.1817 25.2401 41.8352 25.2401V23.2779C40.7918 23.2779 39.8459 23.5738 39.0494 24.1961L40.2574 25.7424ZM41.8352 25.2401C42.4888 25.2401 42.9943 25.4177 43.405 25.7405L44.6177 24.1979C43.8238 23.5738 42.8786 23.2779 41.8352 23.2779V25.2401ZM43.4103 25.7447C43.8365 26.075 44.2031 26.5844 44.4734 27.3437L46.322 26.6857C45.9559 25.6571 45.3983 24.8028 44.6124 24.1937L43.4103 25.7447ZM44.4751 27.3484C44.748 28.1028 44.8995 29.0573 44.8995 30.2363H46.8618C46.8618 28.9 46.6914 27.7068 46.3203 26.681L44.4751 27.3484ZM44.8995 30.2363C44.8995 31.4244 44.7495 32.3862 44.4791 33.1459L46.3277 33.8039C46.6937 32.7757 46.8618 31.5784 46.8618 30.2363H44.8995ZM44.4795 33.1447C44.2091 33.9012 43.8435 34.4102 43.4193 34.741L44.6261 36.2883C45.4064 35.6798 45.9613 34.8289 46.3273 33.8051L44.4795 33.1447ZM43.4224 34.7386C43.0132 35.0552 42.5024 35.2324 41.8352 35.2324V37.1947C42.8801 37.1947 43.8277 36.906 44.623 36.2907L43.4224 34.7386ZM41.8352 35.9447C43.0802 35.9447 44.0424 35.3064 44.6634 34.2247L42.9616 33.2478C42.6432 33.8025 42.2872 33.9824 41.8352 33.9824V35.9447ZM44.6634 34.2247C45.2553 33.1937 45.4982 31.8293 45.4982 30.2363H43.5359C43.5359 31.6735 43.3091 32.6425 42.9616 33.2478L44.6634 34.2247ZM45.4982 30.2363C45.4982 29.1642 45.3839 28.204 45.1317 27.3763L43.2547 27.9485C43.4342 28.5375 43.5359 29.2932 43.5359 30.2363H45.4982ZM45.1331 27.3809C44.8877 26.5615 44.5069 25.8479 43.9388 25.3227L42.6067 26.7635C42.8416 26.9807 43.0744 27.3466 43.2533 27.9439L45.1331 27.3809ZM43.9421 25.3258C43.3567 24.7794 42.636 24.5051 41.8352 24.5051V26.4674C42.1557 26.4674 42.3932 26.5643 42.6033 26.7603L43.9421 25.3258ZM41.8352 24.5051C40.588 24.5051 39.6311 25.1588 39.0115 26.2442L40.7157 27.2169C41.0431 26.6433 41.4006 26.4674 41.8352 26.4674V24.5051ZM39.0125 26.2425C38.4178 27.2797 38.1723 28.6447 38.1723 30.2363H40.1345C40.1345 28.8051 40.3625 27.833 40.7148 27.2186L39.0125 26.2425ZM38.1723 30.2363C38.1723 31.3069 38.2843 32.2642 38.5321 33.0873L40.411 32.5216C40.2346 31.9356 40.1345 31.1807 40.1345 30.2363H38.1723ZM38.5321 33.0873C38.7773 33.9017 39.156 34.6115 39.7206 35.1331L41.0521 33.6917C40.8212 33.4784 40.5901 33.1163 40.411 32.5216L38.5321 33.0873ZM39.724 35.1362C40.3136 35.6758 41.0356 35.9447 41.8352 35.9447V33.9824C41.506 33.9824 41.2621 33.8839 41.0487 33.6886L39.724 35.1362Z" fill="#CDCDCD" mask="url(#path-127-inside-8_35_2)"/>
<path d="M1645.47 59.2095H1677.55" stroke="#CDCDCD" stroke-width="0.981132"/>
<path d="M1645.47 68.8343V49.5845" stroke="#CDCDCD" stroke-width="0.981132"/>
<path d="M1677.55 68.8343V49.5845" stroke="#CDCDCD" stroke-width="0.981132"/>
<mask id="path-132-inside-9_35_2" fill="white">
<path d="M1660.58 36.2135C1659.8 36.2135 1659.11 36.0753 1658.51 35.7988C1657.92 35.5185 1657.46 35.134 1657.12 34.6454C1656.79 34.1529 1656.62 33.5923 1656.63 32.9635C1656.62 32.4711 1656.72 32.0166 1656.92 31.5999C1657.11 31.1794 1657.38 30.8291 1657.72 30.5488C1658.07 30.2647 1658.45 30.0847 1658.88 30.009V29.9408C1658.32 29.7969 1657.88 29.4844 1657.55 29.0033C1657.22 28.5185 1657.06 27.9673 1657.06 27.3499C1657.06 26.759 1657.21 26.2306 1657.51 25.7647C1657.81 25.2988 1658.23 24.9313 1658.76 24.6624C1659.29 24.3935 1659.9 24.259 1660.58 24.259C1661.26 24.259 1661.86 24.3935 1662.39 24.6624C1662.92 24.9313 1663.34 25.2988 1663.64 25.7647C1663.95 26.2306 1664.1 26.759 1664.11 27.3499C1664.1 27.9673 1663.93 28.5185 1663.6 29.0033C1663.27 29.4844 1662.83 29.7969 1662.29 29.9408V30.009C1662.71 30.0847 1663.09 30.2647 1663.42 30.5488C1663.76 30.8291 1664.03 31.1794 1664.23 31.5999C1664.43 32.0166 1664.53 32.4711 1664.54 32.9635C1664.53 33.5923 1664.36 34.1529 1664.03 34.6454C1663.69 35.134 1663.23 35.5185 1662.63 35.7988C1662.04 36.0753 1661.36 36.2135 1660.58 36.2135ZM1660.58 34.9635C1661.11 34.9635 1661.56 34.8783 1661.95 34.7079C1662.33 34.5374 1662.62 34.2969 1662.83 33.9863C1663.04 33.6757 1663.15 33.312 1663.15 32.8954C1663.15 32.456 1663.03 32.0677 1662.81 31.7306C1662.59 31.3935 1662.28 31.1283 1661.89 30.9351C1661.51 30.7419 1661.07 30.6454 1660.58 30.6454C1660.09 30.6454 1659.64 30.7419 1659.25 30.9351C1658.87 31.1283 1658.56 31.3935 1658.34 31.7306C1658.12 32.0677 1658.01 32.456 1658.01 32.8954C1658.01 33.312 1658.11 33.6757 1658.32 33.9863C1658.52 34.2969 1658.82 34.5374 1659.21 34.7079C1659.59 34.8783 1660.05 34.9635 1660.58 34.9635ZM1660.58 29.4408C1661 29.4408 1661.37 29.3575 1661.69 29.1908C1662.02 29.0241 1662.27 28.7912 1662.46 28.4919C1662.64 28.1927 1662.74 27.8423 1662.74 27.4408C1662.74 27.0469 1662.64 26.7041 1662.46 26.4124C1662.28 26.1169 1662.03 25.8897 1661.71 25.7306C1661.39 25.5677 1661.01 25.4863 1660.58 25.4863C1660.15 25.4863 1659.77 25.5677 1659.44 25.7306C1659.11 25.8897 1658.86 26.1169 1658.68 26.4124C1658.51 26.7041 1658.42 27.0469 1658.42 27.4408C1658.42 27.8423 1658.51 28.1927 1658.69 28.4919C1658.88 28.7912 1659.13 29.0241 1659.46 29.1908C1659.78 29.3575 1660.16 29.4408 1660.58 29.4408Z"/>
</mask>
<path d="M1660.58 36.2135C1659.8 36.2135 1659.11 36.0753 1658.51 35.7988C1657.92 35.5185 1657.46 35.134 1657.12 34.6454C1656.79 34.1529 1656.62 33.5923 1656.63 32.9635C1656.62 32.4711 1656.72 32.0166 1656.92 31.5999C1657.11 31.1794 1657.38 30.8291 1657.72 30.5488C1658.07 30.2647 1658.45 30.0847 1658.88 30.009V29.9408C1658.32 29.7969 1657.88 29.4844 1657.55 29.0033C1657.22 28.5185 1657.06 27.9673 1657.06 27.3499C1657.06 26.759 1657.21 26.2306 1657.51 25.7647C1657.81 25.2988 1658.23 24.9313 1658.76 24.6624C1659.29 24.3935 1659.9 24.259 1660.58 24.259C1661.26 24.259 1661.86 24.3935 1662.39 24.6624C1662.92 24.9313 1663.34 25.2988 1663.64 25.7647C1663.95 26.2306 1664.1 26.759 1664.11 27.3499C1664.1 27.9673 1663.93 28.5185 1663.6 29.0033C1663.27 29.4844 1662.83 29.7969 1662.29 29.9408V30.009C1662.71 30.0847 1663.09 30.2647 1663.42 30.5488C1663.76 30.8291 1664.03 31.1794 1664.23 31.5999C1664.43 32.0166 1664.53 32.4711 1664.54 32.9635C1664.53 33.5923 1664.36 34.1529 1664.03 34.6454C1663.69 35.134 1663.23 35.5185 1662.63 35.7988C1662.04 36.0753 1661.36 36.2135 1660.58 36.2135ZM1660.58 34.9635C1661.11 34.9635 1661.56 34.8783 1661.95 34.7079C1662.33 34.5374 1662.62 34.2969 1662.83 33.9863C1663.04 33.6757 1663.15 33.312 1663.15 32.8954C1663.15 32.456 1663.03 32.0677 1662.81 31.7306C1662.59 31.3935 1662.28 31.1283 1661.89 30.9351C1661.51 30.7419 1661.07 30.6454 1660.58 30.6454C1660.09 30.6454 1659.64 30.7419 1659.25 30.9351C1658.87 31.1283 1658.56 31.3935 1658.34 31.7306C1658.12 32.0677 1658.01 32.456 1658.01 32.8954C1658.01 33.312 1658.11 33.6757 1658.32 33.9863C1658.52 34.2969 1658.82 34.5374 1659.21 34.7079C1659.59 34.8783 1660.05 34.9635 1660.58 34.9635ZM1660.58 29.4408C1661 29.4408 1661.37 29.3575 1661.69 29.1908C1662.02 29.0241 1662.27 28.7912 1662.46 28.4919C1662.64 28.1927 1662.74 27.8423 1662.74 27.4408C1662.74 27.0469 1662.64 26.7041 1662.46 26.4124C1662.28 26.1169 1662.03 25.8897 1661.71 25.7306C1661.39 25.5677 1661.01 25.4863 1660.58 25.4863C1660.15 25.4863 1659.77 25.5677 1659.44 25.7306C1659.11 25.8897 1658.86 26.1169 1658.68 26.4124C1658.51 26.7041 1658.42 27.0469 1658.42 27.4408C1658.42 27.8423 1658.51 28.1927 1658.69 28.4919C1658.88 28.7912 1659.13 29.0241 1659.46 29.1908C1659.78 29.3575 1660.16 29.4408 1660.58 29.4408Z" fill="black"/>
<path d="M1658.51 35.7988L1658.1 36.6863L1658.1 36.6894L1658.51 35.7988ZM1657.12 34.6454L1656.31 35.1953L1656.31 35.1983L1657.12 34.6454ZM1656.63 32.9635L1657.61 32.9694L1657.61 32.956L1656.63 32.9635ZM1656.92 31.5999L1657.8 32.0192L1657.81 32.0161L1656.92 31.5999ZM1657.72 30.5488L1658.35 31.3066L1658.35 31.3059L1657.72 30.5488ZM1658.88 30.009L1659.05 30.9748L1659.86 30.8304V30.009H1658.88ZM1658.88 29.9408H1659.86V29.181L1659.12 28.9909L1658.88 29.9408ZM1657.55 29.0033L1656.74 29.5548L1656.74 29.5578L1657.55 29.0033ZM1657.06 27.3499L1658.04 27.3559L1658.04 27.3436L1657.06 27.3499ZM1657.51 25.7647L1658.33 26.2996L1658.33 26.2996L1657.51 25.7647ZM1658.76 24.6624L1658.32 23.7861L1658.31 23.7874L1658.76 24.6624ZM1663.64 25.7647L1662.82 26.2996L1662.82 26.3043L1663.64 25.7647ZM1664.11 27.3499L1665.09 27.3559L1665.09 27.3436L1664.11 27.3499ZM1663.6 29.0033L1662.79 28.4475L1662.79 28.4488L1663.6 29.0033ZM1662.29 29.9408L1662.04 28.9921L1661.31 29.185V29.9408H1662.29ZM1662.29 30.009H1661.31V30.8291L1662.11 30.9746L1662.29 30.009ZM1663.42 30.5488L1662.79 31.299L1662.8 31.3032L1663.42 30.5488ZM1664.23 31.5999L1663.34 32.0227L1663.35 32.0258L1664.23 31.5999ZM1664.54 32.9635L1665.52 32.9694L1665.52 32.956L1664.54 32.9635ZM1664.03 34.6454L1663.22 34.0911L1663.22 34.0924L1664.03 34.6454ZM1662.63 35.7988L1663.05 36.6874L1663.05 36.6863L1662.63 35.7988ZM1661.95 34.7079L1661.55 33.8116L1661.55 33.8116L1661.95 34.7079ZM1662.83 33.9863L1662.02 33.4397L1662.02 33.4397L1662.83 33.9863ZM1663.15 32.8954L1664.13 32.9043L1664.13 32.8956L1664.13 32.8869L1663.15 32.8954ZM1662.81 31.7306L1661.99 32.2727L1661.99 32.2727L1662.81 31.7306ZM1661.89 30.9351L1661.45 31.8109L1661.46 31.8127L1661.89 30.9351ZM1659.25 30.9351L1658.82 30.0559L1658.81 30.0576L1659.25 30.9351ZM1658.34 31.7306L1657.52 31.1885L1657.52 31.1949L1658.34 31.7306ZM1658.01 32.8954L1659 32.9043L1659 32.8956L1659 32.8869L1658.01 32.8954ZM1658.32 33.9863L1657.5 34.5259L1657.5 34.5328L1658.32 33.9863ZM1659.21 34.7079L1659.6 33.8102L1659.6 33.8102L1659.21 34.7079ZM1661.69 29.1908L1661.24 28.3173L1661.24 28.3195L1661.69 29.1908ZM1662.46 28.4919L1663.29 29.0091L1663.29 29.0091L1662.46 28.4919ZM1662.74 27.4408L1663.72 27.4501L1663.72 27.4407L1663.72 27.4314L1662.74 27.4408ZM1662.46 26.4124L1661.63 26.9266L1661.63 26.9314L1662.46 26.4124ZM1661.71 25.7306L1661.26 26.6061L1661.27 26.6102L1661.71 25.7306ZM1659.44 25.7306L1659.87 26.6122L1659.88 26.6081L1659.44 25.7306ZM1658.68 26.4124L1659.52 26.9236L1659.52 26.9188L1658.68 26.4124ZM1658.42 27.4408L1659.4 27.4501L1659.4 27.4407L1659.4 27.4314L1658.42 27.4408ZM1658.69 28.4919L1657.85 29.0014L1657.86 29.0091L1658.69 28.4919ZM1660.58 35.2324C1659.92 35.2324 1659.37 35.1151 1658.93 34.9081L1658.1 36.6894C1658.85 37.0355 1659.69 37.1947 1660.58 37.1947V35.2324ZM1658.93 34.9113C1658.48 34.697 1658.16 34.4209 1657.93 34.0924L1656.31 35.1983C1656.75 35.8471 1657.36 36.3399 1658.1 36.6863L1658.93 34.9113ZM1657.93 34.0954C1657.72 33.7766 1657.61 33.4122 1657.61 32.9694L1655.65 32.9576C1655.64 33.7725 1655.86 34.5292 1656.31 35.1953L1657.93 34.0954ZM1657.61 32.956C1657.61 32.6008 1657.67 32.2935 1657.8 32.0192L1656.03 31.1806C1655.77 31.7397 1655.64 32.3414 1655.65 32.9711L1657.61 32.956ZM1657.81 32.0161C1657.94 31.7208 1658.13 31.4894 1658.35 31.3066L1657.1 29.7909C1656.64 30.1687 1656.28 30.6381 1656.03 31.1837L1657.81 32.0161ZM1658.35 31.3059C1658.57 31.1249 1658.8 31.0199 1659.05 30.9748L1658.71 29.0431C1658.11 29.1496 1657.57 29.4044 1657.1 29.7916L1658.35 31.3059ZM1659.86 30.009V29.9408H1657.9V30.009H1659.86ZM1659.12 28.9909C1658.8 28.9072 1658.56 28.7373 1658.36 28.4488L1656.74 29.5578C1657.2 30.2315 1657.84 30.6865 1658.63 30.8907L1659.12 28.9909ZM1658.36 28.4518C1658.15 28.1403 1658.04 27.7858 1658.04 27.3559L1656.08 27.3439C1656.07 28.1489 1656.29 28.8966 1656.74 29.5548L1658.36 28.4518ZM1658.04 27.3436C1658.04 26.932 1658.14 26.5942 1658.33 26.2996L1656.69 25.2297C1656.27 25.867 1656.07 26.586 1656.08 27.3562L1658.04 27.3436ZM1658.33 26.2996C1658.53 25.9885 1658.81 25.7339 1659.2 25.5374L1658.31 23.7874C1657.64 24.1287 1657.09 24.609 1656.69 25.2297L1658.33 26.2996ZM1659.2 25.5387C1659.58 25.3478 1660.03 25.2401 1660.58 25.2401V23.2779C1659.77 23.2779 1659.01 23.4391 1658.32 23.7861L1659.2 25.5387ZM1660.58 25.2401C1661.12 25.2401 1661.57 25.3471 1661.95 25.5374L1662.83 23.7874C1662.15 23.4398 1661.39 23.2779 1660.58 23.2779V25.2401ZM1661.95 25.5374C1662.33 25.7339 1662.61 25.9885 1662.82 26.2996L1664.46 25.2297C1664.06 24.609 1663.51 24.1287 1662.83 23.7874L1661.95 25.5374ZM1662.82 26.3043C1663.02 26.6022 1663.12 26.9431 1663.12 27.3562L1665.09 27.3436C1665.08 26.5748 1664.88 25.8589 1664.46 25.2251L1662.82 26.3043ZM1663.12 27.3439C1663.12 27.7751 1663.01 28.1327 1662.79 28.4475L1664.41 29.5591C1664.86 28.9042 1665.08 28.1595 1665.09 27.3559L1663.12 27.3439ZM1662.79 28.4488C1662.59 28.7428 1662.35 28.9104 1662.04 28.9921L1662.54 30.8895C1663.32 30.6833 1663.95 30.2259 1664.41 29.5578L1662.79 28.4488ZM1661.31 29.9408V30.009H1663.27V29.9408H1661.31ZM1662.11 30.9746C1662.36 31.0189 1662.58 31.1219 1662.79 31.299L1664.06 29.7985C1663.59 29.4075 1663.06 29.1506 1662.46 29.0434L1662.11 30.9746ZM1662.8 31.3032C1663.02 31.4872 1663.2 31.7219 1663.34 32.0226L1665.12 31.1771C1664.86 30.637 1664.5 30.1709 1664.05 29.7943L1662.8 31.3032ZM1663.35 32.0258C1663.48 32.3035 1663.55 32.614 1663.56 32.9711L1665.52 32.956C1665.51 32.3282 1665.38 31.7296 1665.11 31.174L1663.35 32.0258ZM1663.56 32.9576C1663.55 33.4017 1663.44 33.7692 1663.22 34.0911L1664.84 35.1996C1665.29 34.5367 1665.51 33.7829 1665.52 32.9694L1663.56 32.9576ZM1663.22 34.0924C1662.99 34.4209 1662.67 34.697 1662.22 34.9113L1663.05 36.6863C1663.79 36.3399 1664.39 35.8471 1664.84 35.1983L1663.22 34.0924ZM1662.22 34.9101C1661.78 35.1152 1661.24 35.2324 1660.58 35.2324V37.1947C1661.48 37.1947 1662.31 37.0353 1663.05 36.6874L1662.22 34.9101ZM1660.58 35.9447C1661.21 35.9447 1661.81 35.8429 1662.35 35.6041L1661.55 33.8116C1661.32 33.9137 1661.01 33.9824 1660.58 33.9824V35.9447ZM1662.35 35.6041C1662.88 35.3677 1663.32 35.0146 1663.65 34.5328L1662.02 33.4397C1661.92 33.5791 1661.78 33.7071 1661.55 33.8116L1662.35 35.6041ZM1663.65 34.5328C1663.97 34.0452 1664.13 33.4899 1664.13 32.9043L1662.17 32.8864C1662.17 33.1342 1662.11 33.3061 1662.02 33.4397L1663.65 34.5328ZM1664.13 32.8869C1664.13 32.2747 1663.96 31.6976 1663.63 31.1885L1661.99 32.2727C1662.1 32.4378 1662.17 32.6373 1662.17 32.9038L1664.13 32.8869ZM1663.63 31.1885C1663.3 30.6986 1662.86 30.3221 1662.33 30.0576L1661.46 31.8127C1661.7 31.9345 1661.87 32.0883 1661.99 32.2727L1663.63 31.1885ZM1662.34 30.0593C1661.8 29.7872 1661.21 29.6642 1660.58 29.6642V31.6265C1660.94 31.6265 1661.23 31.6967 1661.45 31.8109L1662.34 30.0593ZM1660.58 29.6642C1659.96 29.6642 1659.36 29.7869 1658.82 30.0559L1659.69 31.8144C1659.93 31.697 1660.22 31.6265 1660.58 31.6265V29.6642ZM1658.81 30.0576C1658.28 30.3221 1657.85 30.6986 1657.52 31.1885L1659.16 32.2727C1659.28 32.0883 1659.45 31.9345 1659.69 31.8127L1658.81 30.0576ZM1657.52 31.1949C1657.18 31.7087 1657.03 32.2899 1657.03 32.9038L1659 32.8869C1658.99 32.6221 1659.06 32.4268 1659.16 32.2663L1657.52 31.1949ZM1657.03 32.8864C1657.03 33.4736 1657.17 34.0333 1657.5 34.5259L1659.13 33.4466C1659.05 33.318 1658.99 33.1504 1659 32.9043L1657.03 32.8864ZM1657.5 34.5328C1657.83 35.017 1658.28 35.37 1658.81 35.6055L1659.6 33.8102C1659.36 33.7048 1659.22 33.5767 1659.13 33.4397L1657.5 34.5328ZM1658.81 35.6055C1659.35 35.8432 1659.95 35.9447 1660.58 35.9447V33.9824C1660.15 33.9824 1659.84 33.9134 1659.6 33.8102L1658.81 35.6055ZM1660.58 30.4219C1661.13 30.4219 1661.66 30.311 1662.14 30.0621L1661.24 28.3195C1661.08 28.4039 1660.87 28.4597 1660.58 28.4597V30.4219ZM1662.14 30.0643C1662.62 29.8196 1663.01 29.4662 1663.29 29.0091L1661.62 27.9748C1661.54 28.1162 1661.42 28.2287 1661.24 28.3174L1662.14 30.0643ZM1663.29 29.0091C1663.58 28.5367 1663.72 28.0054 1663.72 27.4501L1661.76 27.4316C1661.76 27.6792 1661.7 27.8487 1661.62 27.9748L1663.29 29.0091ZM1663.72 27.4314C1663.72 26.884 1663.59 26.3594 1663.3 25.8934L1661.63 26.9314C1661.7 27.0488 1661.76 27.2097 1661.76 27.4502L1663.72 27.4314ZM1663.3 25.8982C1663.02 25.44 1662.62 25.0887 1662.14 24.851L1661.27 26.6102C1661.44 26.6906 1661.55 26.7939 1661.63 26.9266L1663.3 25.8982ZM1662.15 24.8551C1661.67 24.6109 1661.14 24.5051 1660.58 24.5051V26.4674C1660.88 26.4674 1661.1 26.5245 1661.26 26.6061L1662.15 24.8551ZM1660.58 24.5051C1660.02 24.5051 1659.49 24.6099 1659 24.853L1659.88 26.6081C1660.04 26.5255 1660.27 26.4674 1660.58 26.4674V24.5051ZM1659.01 24.849C1658.52 25.0866 1658.12 25.4401 1657.84 25.906L1659.52 26.9188C1659.6 26.7937 1659.71 26.6928 1659.87 26.6122L1659.01 24.849ZM1657.85 25.9012C1657.56 26.3723 1657.44 26.9014 1657.44 27.4502L1659.4 27.4314C1659.4 27.1923 1659.45 27.0358 1659.52 26.9236L1657.85 25.9012ZM1657.44 27.4316C1657.44 27.9885 1657.56 28.524 1657.85 29.0014L1659.53 27.9825C1659.46 27.8614 1659.4 27.6962 1659.4 27.4501L1657.44 27.4316ZM1657.86 29.0091C1658.14 29.4662 1658.53 29.8196 1659.01 30.0643L1659.9 28.3174C1659.73 28.2287 1659.61 28.1162 1659.52 27.9748L1657.86 29.0091ZM1659.01 30.0643C1659.5 30.3122 1660.03 30.4219 1660.58 30.4219V28.4597C1660.29 28.4597 1660.07 28.4028 1659.9 28.3174L1659.01 30.0643Z" fill="#CDCDCD" mask="url(#path-132-inside-9_35_2)"/>
</svg>
