<svg width="3250" height="690" viewBox="0 0 3250 690" fill="none" xmlns="http://www.w3.org/2000/svg">
<path d="M2696.27 452.909V546H2682.18V467H2681.64L2659.36 481.545V468.091L2682.59 452.909H2696.27ZM2787.25 527.818V516.455L2827.48 452.909H2836.43V469.636H2830.75L2801.98 515.182V515.909H2857.11V527.818H2787.25ZM2831.39 546V524.364L2831.48 519.182V452.909H2844.8V546H2831.39ZM2971.43 547.273C2965.73 547.273 2960.61 546.182 2956.07 544C2951.55 541.788 2947.95 538.758 2945.25 534.909C2942.55 531.061 2941.11 526.667 2940.93 521.727H2954.57C2954.9 525.727 2956.67 529.015 2959.89 531.591C2963.1 534.167 2966.95 535.455 2971.43 535.455C2975.01 535.455 2978.17 534.636 2980.93 533C2983.72 531.333 2985.9 529.045 2987.48 526.136C2989.08 523.227 2989.89 519.909 2989.89 516.182C2989.89 512.394 2989.07 509.015 2987.43 506.045C2985.8 503.076 2983.54 500.742 2980.66 499.045C2977.81 497.348 2974.54 496.485 2970.84 496.455C2968.02 496.455 2965.19 496.939 2962.34 497.909C2959.49 498.879 2957.19 500.152 2955.43 501.727L2942.57 499.818L2947.8 452.909H2998.98V464.955H2959.48L2956.52 491H2957.07C2958.89 489.242 2961.3 487.773 2964.3 486.591C2967.33 485.409 2970.57 484.818 2974.02 484.818C2979.69 484.818 2984.73 486.167 2989.16 488.864C2993.61 491.561 2997.11 495.242 2999.66 499.909C3002.23 504.545 3003.51 509.879 3003.48 515.909C3003.51 521.939 3002.14 527.318 2999.39 532.045C2996.66 536.773 2992.87 540.5 2988.02 543.227C2983.2 545.924 2977.67 547.273 2971.43 547.273Z" fill="#00E494"/>
<path d="M2704.36 596.369H2699.93C2699.76 595.422 2699.44 594.589 2698.97 593.869C2698.51 593.15 2697.94 592.539 2697.27 592.037C2696.6 591.535 2695.84 591.156 2695.01 590.901C2694.19 590.645 2693.31 590.517 2692.38 590.517C2690.71 590.517 2689.21 590.938 2687.88 591.781C2686.56 592.624 2685.52 593.86 2684.76 595.489C2684 597.117 2683.62 599.106 2683.62 601.455C2683.62 603.822 2684 605.82 2684.76 607.449C2685.52 609.078 2686.57 610.309 2687.89 611.142C2689.22 611.975 2690.71 612.392 2692.37 612.392C2693.29 612.392 2694.16 612.269 2694.98 612.023C2695.82 611.767 2696.57 611.393 2697.24 610.901C2697.91 610.408 2698.48 609.807 2698.95 609.097C2699.42 608.377 2699.75 607.553 2699.93 606.625L2704.36 606.639C2704.12 608.069 2703.66 609.385 2702.98 610.588C2702.31 611.781 2701.44 612.813 2700.38 613.685C2699.33 614.546 2698.13 615.214 2696.77 615.688C2695.42 616.161 2693.94 616.398 2692.34 616.398C2689.82 616.398 2687.58 615.801 2685.61 614.608C2683.64 613.405 2682.09 611.687 2680.95 609.452C2679.82 607.217 2679.26 604.551 2679.26 601.455C2679.26 598.348 2679.83 595.683 2680.96 593.457C2682.1 591.223 2683.65 589.509 2685.62 588.315C2687.59 587.113 2689.83 586.511 2692.34 586.511C2693.88 586.511 2695.32 586.734 2696.66 587.179C2698 587.615 2699.21 588.259 2700.28 589.111C2701.35 589.954 2702.24 590.986 2702.94 592.207C2703.64 593.42 2704.11 594.807 2704.36 596.369Z" fill="#CDCDCD"/>
<path d="M2817.2 616V586.909H2835.24V590.688H2821.59V599.551H2833.94V603.315H2821.59V616H2817.2Z" fill="#CDCDCD"/>
<path d="M2975.88 596.099C2975.61 595.238 2975.24 594.466 2974.78 593.784C2974.32 593.093 2973.78 592.506 2973.14 592.023C2972.51 591.53 2971.78 591.156 2970.97 590.901C2970.16 590.645 2969.28 590.517 2968.31 590.517C2966.67 590.517 2965.2 590.938 2963.88 591.781C2962.56 592.624 2961.52 593.86 2960.76 595.489C2960 597.108 2959.62 599.092 2959.62 601.44C2959.62 603.798 2960 605.792 2960.77 607.42C2961.54 609.049 2962.59 610.285 2963.92 611.128C2965.26 611.971 2966.78 612.392 2968.48 612.392C2970.06 612.392 2971.44 612.07 2972.62 611.426C2973.8 610.782 2974.71 609.873 2975.36 608.699C2976.01 607.515 2976.34 606.123 2976.34 604.523L2977.47 604.736H2969.15V601.114H2980.59V604.423C2980.59 606.866 2980.06 608.988 2979.02 610.787C2977.99 612.577 2976.56 613.959 2974.73 614.935C2972.91 615.91 2970.83 616.398 2968.48 616.398C2965.85 616.398 2963.54 615.792 2961.55 614.58C2959.57 613.367 2958.03 611.649 2956.92 609.423C2955.81 607.188 2955.26 604.537 2955.26 601.469C2955.26 599.149 2955.58 597.065 2956.22 595.219C2956.87 593.372 2957.77 591.805 2958.94 590.517C2960.11 589.22 2961.49 588.23 2963.07 587.548C2964.66 586.857 2966.4 586.511 2968.28 586.511C2969.86 586.511 2971.32 586.743 2972.67 587.207C2974.04 587.671 2975.25 588.33 2976.31 589.182C2977.38 590.034 2978.27 591.047 2978.97 592.222C2979.67 593.386 2980.14 594.679 2980.39 596.099H2975.88Z" fill="#CDCDCD"/>
<path d="M2006 527.818V516.455L2046.23 452.909H2055.18V469.636H2049.5L2020.73 515.182V515.909H2075.86V527.818H2006ZM2050.14 546V524.364L2050.23 519.182V452.909H2063.55V546H2050.14ZM2190.18 547.273C2184.48 547.273 2179.36 546.182 2174.82 544C2170.3 541.788 2166.7 538.758 2164 534.909C2161.3 531.061 2159.86 526.667 2159.68 521.727H2173.32C2173.65 525.727 2175.42 529.015 2178.64 531.591C2181.85 534.167 2185.7 535.455 2190.18 535.455C2193.76 535.455 2196.92 534.636 2199.68 533C2202.47 531.333 2204.65 529.045 2206.23 526.136C2207.83 523.227 2208.64 519.909 2208.64 516.182C2208.64 512.394 2207.82 509.015 2206.18 506.045C2204.55 503.076 2202.29 500.742 2199.41 499.045C2196.56 497.348 2193.29 496.485 2189.59 496.455C2186.77 496.455 2183.94 496.939 2181.09 497.909C2178.24 498.879 2175.94 500.152 2174.18 501.727L2161.32 499.818L2166.55 452.909H2217.73V464.955H2178.23L2175.27 491H2175.82C2177.64 489.242 2180.05 487.773 2183.05 486.591C2186.08 485.409 2189.32 484.818 2192.77 484.818C2198.44 484.818 2203.48 486.167 2207.91 488.864C2212.36 491.561 2215.86 495.242 2218.41 499.909C2220.98 504.545 2222.26 509.879 2222.23 515.909C2222.26 521.939 2220.89 527.318 2218.14 532.045C2215.41 536.773 2211.62 540.5 2206.77 543.227C2201.95 545.924 2196.42 547.273 2190.18 547.273ZM2341.9 452.909V546H2327.81V467H2327.26L2304.99 481.545V468.091L2328.22 452.909H2341.9ZM2467.33 547.273C2463.18 547.212 2459.09 546.455 2455.06 545C2451.06 543.545 2447.42 541.121 2444.15 537.727C2440.88 534.333 2438.25 529.773 2436.28 524.045C2434.34 518.318 2433.38 511.167 2433.38 502.591C2433.38 494.47 2434.18 487.258 2435.78 480.955C2437.42 474.652 2439.77 469.333 2442.83 465C2445.89 460.636 2449.59 457.318 2453.92 455.045C2458.25 452.773 2463.12 451.636 2468.51 451.636C2474.06 451.636 2478.98 452.727 2483.28 454.909C2487.59 457.091 2491.07 460.106 2493.74 463.955C2496.44 467.803 2498.15 472.182 2498.88 477.091H2485.01C2484.07 473.212 2482.21 470.045 2479.42 467.591C2476.63 465.136 2473 463.909 2468.51 463.909C2461.69 463.909 2456.38 466.879 2452.56 472.818C2448.77 478.758 2446.86 487.015 2446.83 497.591H2447.51C2449.12 494.955 2451.09 492.712 2453.42 490.864C2455.78 488.985 2458.42 487.545 2461.33 486.545C2464.27 485.515 2467.36 485 2470.6 485C2476 485 2480.88 486.318 2485.24 488.955C2489.63 491.561 2493.13 495.167 2495.74 499.773C2498.34 504.379 2499.65 509.652 2499.65 515.591C2499.65 521.53 2498.3 526.909 2495.6 531.727C2492.94 536.545 2489.18 540.364 2484.33 543.182C2479.48 545.97 2473.81 547.333 2467.33 547.273ZM2467.28 535.455C2470.86 535.455 2474.06 534.576 2476.88 532.818C2479.69 531.061 2481.92 528.697 2483.56 525.727C2485.19 522.758 2486.01 519.439 2486.01 515.773C2486.01 512.197 2485.21 508.939 2483.6 506C2482.03 503.061 2479.84 500.727 2477.06 499C2474.3 497.273 2471.15 496.409 2467.6 496.409C2464.91 496.409 2462.41 496.924 2460.1 497.955C2457.83 498.985 2455.83 500.409 2454.1 502.227C2452.38 504.045 2451.01 506.136 2450.01 508.5C2449.04 510.833 2448.56 513.303 2448.56 515.909C2448.56 519.394 2449.36 522.621 2450.97 525.591C2452.6 528.561 2454.83 530.955 2457.65 532.773C2460.5 534.561 2463.71 535.455 2467.28 535.455Z" fill="#00E494"/>
<path d="M2029.2 618V588.909H2047.24V592.688H2033.59V601.551H2045.94V605.315H2033.59V618H2029.2Z" fill="#CDCDCD"/>
<path d="M2197.88 598.099C2197.61 597.238 2197.24 596.466 2196.78 595.784C2196.32 595.093 2195.78 594.506 2195.14 594.023C2194.51 593.53 2193.78 593.156 2192.97 592.901C2192.16 592.645 2191.28 592.517 2190.31 592.517C2188.67 592.517 2187.2 592.938 2185.88 593.781C2184.56 594.624 2183.52 595.86 2182.76 597.489C2182 599.108 2181.62 601.092 2181.62 603.44C2181.62 605.798 2182 607.792 2182.77 609.42C2183.54 611.049 2184.59 612.285 2185.92 613.128C2187.26 613.971 2188.78 614.392 2190.48 614.392C2192.06 614.392 2193.44 614.07 2194.62 613.426C2195.8 612.782 2196.71 611.873 2197.36 610.699C2198.01 609.515 2198.34 608.123 2198.34 606.523L2199.47 606.736H2191.15V603.114H2202.59V606.423C2202.59 608.866 2202.06 610.988 2201.02 612.787C2199.99 614.577 2198.56 615.959 2196.73 616.935C2194.91 617.91 2192.83 618.398 2190.48 618.398C2187.85 618.398 2185.54 617.792 2183.55 616.58C2181.57 615.367 2180.03 613.649 2178.92 611.423C2177.81 609.188 2177.26 606.537 2177.26 603.469C2177.26 601.149 2177.58 599.065 2178.22 597.219C2178.87 595.372 2179.77 593.805 2180.94 592.517C2182.11 591.22 2183.49 590.23 2185.07 589.548C2186.66 588.857 2188.4 588.511 2190.28 588.511C2191.86 588.511 2193.32 588.743 2194.67 589.207C2196.04 589.671 2197.25 590.33 2198.31 591.182C2199.38 592.034 2200.27 593.047 2200.97 594.222C2201.67 595.386 2202.14 596.679 2202.39 598.099H2197.88Z" fill="#CDCDCD"/>
<path d="M2347.36 598.369H2342.93C2342.76 597.422 2342.44 596.589 2341.97 595.869C2341.51 595.15 2340.94 594.539 2340.27 594.037C2339.6 593.535 2338.84 593.156 2338.01 592.901C2337.19 592.645 2336.31 592.517 2335.38 592.517C2333.71 592.517 2332.21 592.938 2330.88 593.781C2329.56 594.624 2328.52 595.86 2327.76 597.489C2327 599.117 2326.62 601.106 2326.62 603.455C2326.62 605.822 2327 607.82 2327.76 609.449C2328.52 611.078 2329.57 612.309 2330.89 613.142C2332.22 613.975 2333.71 614.392 2335.37 614.392C2336.29 614.392 2337.16 614.269 2337.98 614.023C2338.82 613.767 2339.57 613.393 2340.24 612.901C2340.91 612.408 2341.48 611.807 2341.95 611.097C2342.42 610.377 2342.75 609.553 2342.93 608.625L2347.36 608.639C2347.12 610.069 2346.66 611.385 2345.98 612.588C2345.31 613.781 2344.44 614.813 2343.38 615.685C2342.33 616.546 2341.13 617.214 2339.77 617.688C2338.42 618.161 2336.94 618.398 2335.34 618.398C2332.82 618.398 2330.58 617.801 2328.61 616.608C2326.64 615.405 2325.09 613.687 2323.95 611.452C2322.82 609.217 2322.26 606.551 2322.26 603.455C2322.26 600.348 2322.83 597.683 2323.96 595.457C2325.1 593.223 2326.65 591.509 2328.62 590.315C2330.59 589.113 2332.83 588.511 2335.34 588.511C2336.88 588.511 2338.32 588.734 2339.66 589.179C2341 589.615 2342.21 590.259 2343.28 591.111C2344.35 591.954 2345.24 592.986 2345.94 594.207C2346.64 595.42 2347.11 596.807 2347.36 598.369Z" fill="#CDCDCD"/>
<path d="M2458.65 618H2453.99L2464.46 588.909H2469.53L2480 618H2475.34L2467.12 594.193H2466.89L2458.65 618ZM2459.43 606.608H2474.55V610.301H2459.43V606.608Z" fill="#CDCDCD"/>
<path d="M1390.27 452.909V546H1376.18V467H1375.64L1353.36 481.545V468.091L1376.59 452.909H1390.27ZM1513.93 547.273C1508.23 547.273 1503.11 546.182 1498.57 544C1494.05 541.788 1490.45 538.758 1487.75 534.909C1485.05 531.061 1483.61 526.667 1483.43 521.727H1497.07C1497.4 525.727 1499.17 529.015 1502.39 531.591C1505.6 534.167 1509.45 535.455 1513.93 535.455C1517.51 535.455 1520.67 534.636 1523.43 533C1526.22 531.333 1528.4 529.045 1529.98 526.136C1531.58 523.227 1532.39 519.909 1532.39 516.182C1532.39 512.394 1531.57 509.015 1529.93 506.045C1528.3 503.076 1526.04 500.742 1523.16 499.045C1520.31 497.348 1517.04 496.485 1513.34 496.455C1510.52 496.455 1507.69 496.939 1504.84 497.909C1501.99 498.879 1499.69 500.152 1497.93 501.727L1485.07 499.818L1490.3 452.909H1541.48V464.955H1501.98L1499.02 491H1499.57C1501.39 489.242 1503.8 487.773 1506.8 486.591C1509.83 485.409 1513.07 484.818 1516.52 484.818C1522.19 484.818 1527.23 486.167 1531.66 488.864C1536.11 491.561 1539.61 495.242 1542.16 499.909C1544.73 504.545 1546.01 509.879 1545.98 515.909C1546.01 521.939 1544.64 527.318 1541.89 532.045C1539.16 536.773 1535.37 540.5 1530.52 543.227C1525.7 545.924 1520.17 547.273 1513.93 547.273Z" fill="#00E494"/>
<path d="M1391.36 599.369H1386.93C1386.76 598.422 1386.44 597.589 1385.97 596.869C1385.51 596.15 1384.94 595.539 1384.27 595.037C1383.6 594.535 1382.84 594.156 1382.01 593.901C1381.19 593.645 1380.31 593.517 1379.38 593.517C1377.71 593.517 1376.21 593.938 1374.88 594.781C1373.56 595.624 1372.52 596.86 1371.76 598.489C1371 600.117 1370.62 602.106 1370.62 604.455C1370.62 606.822 1371 608.82 1371.76 610.449C1372.52 612.078 1373.57 613.309 1374.89 614.142C1376.22 614.975 1377.71 615.392 1379.37 615.392C1380.29 615.392 1381.16 615.269 1381.98 615.023C1382.82 614.767 1383.57 614.393 1384.24 613.901C1384.91 613.408 1385.48 612.807 1385.95 612.097C1386.42 611.377 1386.75 610.553 1386.93 609.625L1391.36 609.639C1391.12 611.069 1390.66 612.385 1389.98 613.588C1389.31 614.781 1388.44 615.813 1387.38 616.685C1386.33 617.546 1385.13 618.214 1383.77 618.688C1382.42 619.161 1380.94 619.398 1379.34 619.398C1376.82 619.398 1374.58 618.801 1372.61 617.608C1370.64 616.405 1369.09 614.687 1367.95 612.452C1366.82 610.217 1366.26 607.551 1366.26 604.455C1366.26 601.348 1366.83 598.683 1367.96 596.457C1369.1 594.223 1370.65 592.509 1372.62 591.315C1374.59 590.113 1376.83 589.511 1379.34 589.511C1380.88 589.511 1382.32 589.734 1383.66 590.179C1385 590.615 1386.21 591.259 1387.28 592.111C1388.35 592.954 1389.24 593.986 1389.94 595.207C1390.64 596.42 1391.11 597.807 1391.36 599.369Z" fill="#CDCDCD"/>
<path d="M1525.88 599.099C1525.61 598.238 1525.24 597.466 1524.78 596.784C1524.32 596.093 1523.78 595.506 1523.14 595.023C1522.51 594.53 1521.78 594.156 1520.97 593.901C1520.16 593.645 1519.28 593.517 1518.31 593.517C1516.67 593.517 1515.2 593.938 1513.88 594.781C1512.56 595.624 1511.52 596.86 1510.76 598.489C1510 600.108 1509.62 602.092 1509.62 604.44C1509.62 606.798 1510 608.792 1510.77 610.42C1511.54 612.049 1512.59 613.285 1513.92 614.128C1515.26 614.971 1516.78 615.392 1518.48 615.392C1520.06 615.392 1521.44 615.07 1522.62 614.426C1523.8 613.782 1524.71 612.873 1525.36 611.699C1526.01 610.515 1526.34 609.123 1526.34 607.523L1527.47 607.736H1519.15V604.114H1530.59V607.423C1530.59 609.866 1530.06 611.988 1529.02 613.787C1527.99 615.577 1526.56 616.959 1524.73 617.935C1522.91 618.91 1520.83 619.398 1518.48 619.398C1515.85 619.398 1513.54 618.792 1511.55 617.58C1509.57 616.367 1508.03 614.649 1506.92 612.423C1505.81 610.188 1505.26 607.537 1505.26 604.469C1505.26 602.149 1505.58 600.065 1506.22 598.219C1506.87 596.372 1507.77 594.805 1508.94 593.517C1510.11 592.22 1511.49 591.23 1513.07 590.548C1514.66 589.857 1516.4 589.511 1518.28 589.511C1519.86 589.511 1521.32 589.743 1522.67 590.207C1524.04 590.671 1525.25 591.33 1526.31 592.182C1527.38 593.034 1528.27 594.047 1528.97 595.222C1529.67 596.386 1530.14 597.679 1530.39 599.099H1525.88Z" fill="#CDCDCD"/>
<path d="M740.273 452.909V546H726.182V467H725.636L703.364 481.545V468.091L726.591 452.909H740.273ZM863.932 547.273C858.235 547.273 853.114 546.182 848.568 544C844.053 541.788 840.447 538.758 837.75 534.909C835.053 531.061 833.614 526.667 833.432 521.727H847.068C847.402 525.727 849.174 529.015 852.386 531.591C855.598 534.167 859.447 535.455 863.932 535.455C867.508 535.455 870.674 534.636 873.432 533C876.22 531.333 878.402 529.045 879.977 526.136C881.583 523.227 882.386 519.909 882.386 516.182C882.386 512.394 881.568 509.015 879.932 506.045C878.295 503.076 876.038 500.742 873.159 499.045C870.311 497.348 867.038 496.485 863.341 496.455C860.523 496.455 857.689 496.939 854.841 497.909C851.992 498.879 849.689 500.152 847.932 501.727L835.068 499.818L840.295 452.909H891.477V464.955H851.977L849.023 491H849.568C851.386 489.242 853.795 487.773 856.795 486.591C859.826 485.409 863.068 484.818 866.523 484.818C872.189 484.818 877.235 486.167 881.659 488.864C886.114 491.561 889.614 495.242 892.159 499.909C894.735 504.545 896.008 509.879 895.977 515.909C896.008 521.939 894.644 527.318 891.886 532.045C889.159 536.773 885.371 540.5 880.523 543.227C875.705 545.924 870.174 547.273 863.932 547.273ZM978.375 527.818V516.455L1018.6 452.909H1027.56V469.636H1021.88L993.102 515.182V515.909H1048.24V527.818H978.375ZM1022.51 546V524.364L1022.6 519.182V452.909H1035.92V546H1022.51Z" fill="#00E494"/>
<path d="M742.358 596.369H737.926C737.756 595.422 737.438 594.589 736.974 593.869C736.51 593.15 735.942 592.539 735.27 592.037C734.598 591.535 733.845 591.156 733.011 590.901C732.188 590.645 731.312 590.517 730.384 590.517C728.707 590.517 727.206 590.938 725.881 591.781C724.564 592.624 723.523 593.86 722.756 595.489C721.998 597.117 721.619 599.106 721.619 601.455C721.619 603.822 721.998 605.82 722.756 607.449C723.523 609.078 724.569 610.309 725.895 611.142C727.221 611.975 728.712 612.392 730.369 612.392C731.288 612.392 732.159 612.269 732.983 612.023C733.816 611.767 734.569 611.393 735.241 610.901C735.914 610.408 736.482 609.807 736.946 609.097C737.42 608.377 737.746 607.553 737.926 606.625L742.358 606.639C742.121 608.069 741.662 609.385 740.98 610.588C740.308 611.781 739.441 612.813 738.381 613.685C737.33 614.546 736.127 615.214 734.773 615.688C733.419 616.161 731.941 616.398 730.341 616.398C727.822 616.398 725.578 615.801 723.608 614.608C721.638 613.405 720.085 611.687 718.949 609.452C717.822 607.217 717.259 604.551 717.259 601.455C717.259 598.348 717.827 595.683 718.963 593.457C720.099 591.223 721.652 589.509 723.622 588.315C725.592 587.113 727.831 586.511 730.341 586.511C731.884 586.511 733.324 586.734 734.659 587.179C736.004 587.615 737.211 588.259 738.281 589.111C739.351 589.954 740.237 590.986 740.938 592.207C741.638 593.42 742.112 594.807 742.358 596.369Z" fill="#CDCDCD"/>
<path d="M868.884 596.099C868.609 595.238 868.24 594.466 867.776 593.784C867.321 593.093 866.777 592.506 866.142 592.023C865.508 591.53 864.783 591.156 863.969 590.901C863.164 590.645 862.278 590.517 861.312 590.517C859.674 590.517 858.197 590.938 856.881 591.781C855.564 592.624 854.523 593.86 853.756 595.489C852.998 597.108 852.619 599.092 852.619 601.44C852.619 603.798 853.003 605.792 853.77 607.42C854.537 609.049 855.588 610.285 856.923 611.128C858.259 611.971 859.778 612.392 861.483 612.392C863.064 612.392 864.442 612.07 865.616 611.426C866.8 610.782 867.714 609.873 868.358 608.699C869.011 607.515 869.338 606.123 869.338 604.523L870.474 604.736H862.151V601.114H873.585V604.423C873.585 606.866 873.064 608.988 872.023 610.787C870.991 612.577 869.561 613.959 867.733 614.935C865.915 615.91 863.831 616.398 861.483 616.398C858.85 616.398 856.54 615.792 854.551 614.58C852.572 613.367 851.028 611.649 849.92 609.423C848.813 607.188 848.259 604.537 848.259 601.469C848.259 599.149 848.58 597.065 849.224 595.219C849.868 593.372 850.773 591.805 851.938 590.517C853.112 589.22 854.49 588.23 856.071 587.548C857.662 586.857 859.4 586.511 861.284 586.511C862.856 586.511 864.319 586.743 865.673 587.207C867.037 587.671 868.249 588.33 869.31 589.182C870.38 590.034 871.265 591.047 871.966 592.222C872.667 593.386 873.14 594.679 873.386 596.099H868.884Z" fill="#CDCDCD"/>
<path d="M1002.2 616V586.909H1020.24V590.688H1006.59V599.551H1018.94V603.315H1006.59V616H1002.2Z" fill="#CDCDCD"/>
<path d="M87.2727 452.909V546H73.1818V467H72.6364L50.3636 481.545V468.091L73.5909 452.909H87.2727ZM178.25 527.818V516.455L218.477 452.909H227.432V469.636H221.75L192.977 515.182V515.909H248.114V527.818H178.25ZM222.386 546V524.364L222.477 519.182V452.909H235.795V546H222.386ZM364.205 547.273C360.053 547.212 355.962 546.455 351.932 545C347.932 543.545 344.295 541.121 341.023 537.727C337.75 534.333 335.129 529.773 333.159 524.045C331.22 518.318 330.25 511.167 330.25 502.591C330.25 494.47 331.053 487.258 332.659 480.955C334.295 474.652 336.644 469.333 339.705 465C342.765 460.636 346.462 457.318 350.795 455.045C355.129 452.773 359.992 451.636 365.386 451.636C370.932 451.636 375.856 452.727 380.159 454.909C384.462 457.091 387.947 460.106 390.614 463.955C393.311 467.803 395.023 472.182 395.75 477.091H381.886C380.947 473.212 379.083 470.045 376.295 467.591C373.508 465.136 369.871 463.909 365.386 463.909C358.568 463.909 353.25 466.879 349.432 472.818C345.644 478.758 343.735 487.015 343.705 497.591H344.386C345.992 494.955 347.962 492.712 350.295 490.864C352.659 488.985 355.295 487.545 358.205 486.545C361.144 485.515 364.235 485 367.477 485C372.871 485 377.75 486.318 382.114 488.955C386.508 491.561 390.008 495.167 392.614 499.773C395.22 504.379 396.523 509.652 396.523 515.591C396.523 521.53 395.174 526.909 392.477 531.727C389.811 536.545 386.053 540.364 381.205 543.182C376.356 545.97 370.689 547.333 364.205 547.273ZM364.159 535.455C367.735 535.455 370.932 534.576 373.75 532.818C376.568 531.061 378.795 528.697 380.432 525.727C382.068 522.758 382.886 519.439 382.886 515.773C382.886 512.197 382.083 508.939 380.477 506C378.902 503.061 376.72 500.727 373.932 499C371.174 497.273 368.023 496.409 364.477 496.409C361.78 496.409 359.28 496.924 356.977 497.955C354.705 498.985 352.705 500.409 350.977 502.227C349.25 504.045 347.886 506.136 346.886 508.5C345.917 510.833 345.432 513.303 345.432 515.909C345.432 519.394 346.235 522.621 347.841 525.591C349.477 528.561 351.705 530.955 354.523 532.773C357.371 534.561 360.583 535.455 364.159 535.455ZM478.875 527.818V516.455L519.102 452.909H528.057V469.636H522.375L493.602 515.182V515.909H548.739V527.818H478.875ZM523.011 546V524.364L523.102 519.182V452.909H536.42V546H523.011Z" fill="#00E494"/>
<path d="M82.358 598.369H77.9261C77.7557 597.422 77.4384 596.589 76.9744 595.869C76.5104 595.15 75.9422 594.539 75.2699 594.037C74.5975 593.535 73.8447 593.156 73.0114 592.901C72.1875 592.645 71.3116 592.517 70.3835 592.517C68.7074 592.517 67.2064 592.938 65.8807 593.781C64.5644 594.624 63.5227 595.86 62.7557 597.489C61.9981 599.117 61.6193 601.106 61.6193 603.455C61.6193 605.822 61.9981 607.82 62.7557 609.449C63.5227 611.078 64.5691 612.309 65.8949 613.142C67.2206 613.975 68.7121 614.392 70.3693 614.392C71.2879 614.392 72.1591 614.269 72.983 614.023C73.8163 613.767 74.5691 613.393 75.2415 612.901C75.9138 612.408 76.482 611.807 76.946 611.097C77.4195 610.377 77.7462 609.553 77.9261 608.625L82.358 608.639C82.1212 610.069 81.6619 611.385 80.9801 612.588C80.3078 613.781 79.4413 614.813 78.3807 615.685C77.3295 616.546 76.1269 617.214 74.7727 617.688C73.4186 618.161 71.9413 618.398 70.3409 618.398C67.822 618.398 65.5777 617.801 63.608 616.608C61.6383 615.405 60.0852 613.687 58.9489 611.452C57.822 609.217 57.2585 606.551 57.2585 603.455C57.2585 600.348 57.8267 597.683 58.9631 595.457C60.0994 593.223 61.6525 591.509 63.6222 590.315C65.5919 589.113 67.8314 588.511 70.3409 588.511C71.8845 588.511 73.3239 588.734 74.6591 589.179C76.0038 589.615 77.2112 590.259 78.2812 591.111C79.3513 591.954 80.2367 592.986 80.9375 594.207C81.6383 595.42 82.1117 596.807 82.358 598.369Z" fill="#CDCDCD"/>
<path d="M205.196 618V588.909H223.236V592.688H209.585V601.551H221.943V605.315H209.585V618H205.196Z" fill="#CDCDCD"/>
<path d="M353.653 618H348.994L359.463 588.909H364.534L375.003 618H370.344L362.119 594.193H361.892L353.653 618ZM354.435 606.608H369.548V610.301H354.435V606.608Z" fill="#CDCDCD"/>
<path d="M499.196 618V588.909H517.236V592.688H503.585V601.551H515.943V605.315H503.585V618H499.196Z" fill="#CDCDCD"/>
<path d="M2659 181.818V170.455L2699.23 106.909H2708.18V123.636H2702.5L2673.73 169.182V169.909H2728.86V181.818H2659ZM2703.14 200V178.364L2703.23 173.182V106.909H2716.55V200H2703.14ZM2847.77 106.909V200H2833.68V121H2833.14L2810.86 135.545V122.091L2834.09 106.909H2847.77ZM2971.43 201.273C2965.73 201.273 2960.61 200.182 2956.07 198C2951.55 195.788 2947.95 192.758 2945.25 188.909C2942.55 185.061 2941.11 180.667 2940.93 175.727H2954.57C2954.9 179.727 2956.67 183.015 2959.89 185.591C2963.1 188.167 2966.95 189.455 2971.43 189.455C2975.01 189.455 2978.17 188.636 2980.93 187C2983.72 185.333 2985.9 183.045 2987.48 180.136C2989.08 177.227 2989.89 173.909 2989.89 170.182C2989.89 166.394 2989.07 163.015 2987.43 160.045C2985.8 157.076 2983.54 154.742 2980.66 153.045C2977.81 151.348 2974.54 150.485 2970.84 150.455C2968.02 150.455 2965.19 150.939 2962.34 151.909C2959.49 152.879 2957.19 154.152 2955.43 155.727L2942.57 153.818L2947.8 106.909H2998.98V118.955H2959.48L2956.52 145H2957.07C2958.89 143.242 2961.3 141.773 2964.3 140.591C2967.33 139.409 2970.57 138.818 2974.02 138.818C2979.69 138.818 2984.73 140.167 2989.16 142.864C2993.61 145.561 2997.11 149.242 2999.66 153.909C3002.23 158.545 3003.51 163.879 3003.48 169.909C3003.51 175.939 3002.14 181.318 2999.39 186.045C2996.66 190.773 2992.87 194.5 2988.02 197.227C2983.2 199.924 2977.67 201.273 2971.43 201.273ZM3120.33 201.273C3116.18 201.212 3112.09 200.455 3108.06 199C3104.06 197.545 3100.42 195.121 3097.15 191.727C3093.88 188.333 3091.25 183.773 3089.28 178.045C3087.34 172.318 3086.38 165.167 3086.38 156.591C3086.38 148.47 3087.18 141.258 3088.78 134.955C3090.42 128.652 3092.77 123.333 3095.83 119C3098.89 114.636 3102.59 111.318 3106.92 109.045C3111.25 106.773 3116.12 105.636 3121.51 105.636C3127.06 105.636 3131.98 106.727 3136.28 108.909C3140.59 111.091 3144.07 114.106 3146.74 117.955C3149.44 121.803 3151.15 126.182 3151.88 131.091H3138.01C3137.07 127.212 3135.21 124.045 3132.42 121.591C3129.63 119.136 3126 117.909 3121.51 117.909C3114.69 117.909 3109.38 120.879 3105.56 126.818C3101.77 132.758 3099.86 141.015 3099.83 151.591H3100.51C3102.12 148.955 3104.09 146.712 3106.42 144.864C3108.78 142.985 3111.42 141.545 3114.33 140.545C3117.27 139.515 3120.36 139 3123.6 139C3129 139 3133.88 140.318 3138.24 142.955C3142.63 145.561 3146.13 149.167 3148.74 153.773C3151.34 158.379 3152.65 163.652 3152.65 169.591C3152.65 175.53 3151.3 180.909 3148.6 185.727C3145.94 190.545 3142.18 194.364 3137.33 197.182C3132.48 199.97 3126.81 201.333 3120.33 201.273ZM3120.28 189.455C3123.86 189.455 3127.06 188.576 3129.88 186.818C3132.69 185.061 3134.92 182.697 3136.56 179.727C3138.19 176.758 3139.01 173.439 3139.01 169.773C3139.01 166.197 3138.21 162.939 3136.6 160C3135.03 157.061 3132.84 154.727 3130.06 153C3127.3 151.273 3124.15 150.409 3120.6 150.409C3117.91 150.409 3115.41 150.924 3113.1 151.955C3110.83 152.985 3108.83 154.409 3107.1 156.227C3105.38 158.045 3104.01 160.136 3103.01 162.5C3102.04 164.833 3101.56 167.303 3101.56 169.909C3101.56 173.394 3102.36 176.621 3103.97 179.591C3105.6 182.561 3107.83 184.955 3110.65 186.773C3113.5 188.561 3116.71 189.455 3120.28 189.455Z" fill="#00E494"/>
<path d="M2680.2 273V243.909H2698.24V247.688H2684.59V256.551H2696.94V260.315H2684.59V273H2680.2Z" fill="#CDCDCD"/>
<path d="M2841.36 253.369H2836.93C2836.76 252.422 2836.44 251.589 2835.97 250.869C2835.51 250.15 2834.94 249.539 2834.27 249.037C2833.6 248.535 2832.84 248.156 2832.01 247.901C2831.19 247.645 2830.31 247.517 2829.38 247.517C2827.71 247.517 2826.21 247.938 2824.88 248.781C2823.56 249.624 2822.52 250.86 2821.76 252.489C2821 254.117 2820.62 256.106 2820.62 258.455C2820.62 260.822 2821 262.82 2821.76 264.449C2822.52 266.078 2823.57 267.309 2824.89 268.142C2826.22 268.975 2827.71 269.392 2829.37 269.392C2830.29 269.392 2831.16 269.269 2831.98 269.023C2832.82 268.767 2833.57 268.393 2834.24 267.901C2834.91 267.408 2835.48 266.807 2835.95 266.097C2836.42 265.377 2836.75 264.553 2836.93 263.625L2841.36 263.639C2841.12 265.069 2840.66 266.385 2839.98 267.588C2839.31 268.781 2838.44 269.813 2837.38 270.685C2836.33 271.546 2835.13 272.214 2833.77 272.688C2832.42 273.161 2830.94 273.398 2829.34 273.398C2826.82 273.398 2824.58 272.801 2822.61 271.608C2820.64 270.405 2819.09 268.687 2817.95 266.452C2816.82 264.217 2816.26 261.551 2816.26 258.455C2816.26 255.348 2816.83 252.683 2817.96 250.457C2819.1 248.223 2820.65 246.509 2822.62 245.315C2824.59 244.113 2826.83 243.511 2829.34 243.511C2830.88 243.511 2832.32 243.734 2833.66 244.179C2835 244.615 2836.21 245.259 2837.28 246.111C2838.35 246.954 2839.24 247.986 2839.94 249.207C2840.64 250.42 2841.11 251.807 2841.36 253.369Z" fill="#CDCDCD"/>
<path d="M2975.88 253.099C2975.61 252.238 2975.24 251.466 2974.78 250.784C2974.32 250.093 2973.78 249.506 2973.14 249.023C2972.51 248.53 2971.78 248.156 2970.97 247.901C2970.16 247.645 2969.28 247.517 2968.31 247.517C2966.67 247.517 2965.2 247.938 2963.88 248.781C2962.56 249.624 2961.52 250.86 2960.76 252.489C2960 254.108 2959.62 256.092 2959.62 258.44C2959.62 260.798 2960 262.792 2960.77 264.42C2961.54 266.049 2962.59 267.285 2963.92 268.128C2965.26 268.971 2966.78 269.392 2968.48 269.392C2970.06 269.392 2971.44 269.07 2972.62 268.426C2973.8 267.782 2974.71 266.873 2975.36 265.699C2976.01 264.515 2976.34 263.123 2976.34 261.523L2977.47 261.736H2969.15V258.114H2980.59V261.423C2980.59 263.866 2980.06 265.988 2979.02 267.787C2977.99 269.577 2976.56 270.959 2974.73 271.935C2972.91 272.91 2970.83 273.398 2968.48 273.398C2965.85 273.398 2963.54 272.792 2961.55 271.58C2959.57 270.367 2958.03 268.649 2956.92 266.423C2955.81 264.188 2955.26 261.537 2955.26 258.469C2955.26 256.149 2955.58 254.065 2956.22 252.219C2956.87 250.372 2957.77 248.805 2958.94 247.517C2960.11 246.22 2961.49 245.23 2963.07 244.548C2964.66 243.857 2966.4 243.511 2968.28 243.511C2969.86 243.511 2971.32 243.743 2972.67 244.207C2974.04 244.671 2975.25 245.33 2976.31 246.182C2977.38 247.034 2978.27 248.047 2978.97 249.222C2979.67 250.386 2980.14 251.679 2980.39 253.099H2975.88Z" fill="#CDCDCD"/>
<path d="M3108.65 273H3103.99L3114.46 243.909H3119.53L3130 273H3125.34L3117.12 249.193H3116.89L3108.65 273ZM3109.43 261.608H3124.55V265.301H3109.43V261.608Z" fill="#CDCDCD"/>
<path d="M2040.45 201.273C2036.3 201.212 2032.21 200.455 2028.18 199C2024.18 197.545 2020.55 195.121 2017.27 191.727C2014 188.333 2011.38 183.773 2009.41 178.045C2007.47 172.318 2006.5 165.167 2006.5 156.591C2006.5 148.47 2007.3 141.258 2008.91 134.955C2010.55 128.652 2012.89 123.333 2015.95 119C2019.02 114.636 2022.71 111.318 2027.05 109.045C2031.38 106.773 2036.24 105.636 2041.64 105.636C2047.18 105.636 2052.11 106.727 2056.41 108.909C2060.71 111.091 2064.2 114.106 2066.86 117.955C2069.56 121.803 2071.27 126.182 2072 131.091H2058.14C2057.2 127.212 2055.33 124.045 2052.55 121.591C2049.76 119.136 2046.12 117.909 2041.64 117.909C2034.82 117.909 2029.5 120.879 2025.68 126.818C2021.89 132.758 2019.98 141.015 2019.95 151.591H2020.64C2022.24 148.955 2024.21 146.712 2026.55 144.864C2028.91 142.985 2031.55 141.545 2034.45 140.545C2037.39 139.515 2040.48 139 2043.73 139C2049.12 139 2054 140.318 2058.36 142.955C2062.76 145.561 2066.26 149.167 2068.86 153.773C2071.47 158.379 2072.77 163.652 2072.77 169.591C2072.77 175.53 2071.42 180.909 2068.73 185.727C2066.06 190.545 2062.3 194.364 2057.45 197.182C2052.61 199.97 2046.94 201.333 2040.45 201.273ZM2040.41 189.455C2043.98 189.455 2047.18 188.576 2050 186.818C2052.82 185.061 2055.05 182.697 2056.68 179.727C2058.32 176.758 2059.14 173.439 2059.14 169.773C2059.14 166.197 2058.33 162.939 2056.73 160C2055.15 157.061 2052.97 154.727 2050.18 153C2047.42 151.273 2044.27 150.409 2040.73 150.409C2038.03 150.409 2035.53 150.924 2033.23 151.955C2030.95 152.985 2028.95 154.409 2027.23 156.227C2025.5 158.045 2024.14 160.136 2023.14 162.5C2022.17 164.833 2021.68 167.303 2021.68 169.909C2021.68 173.394 2022.48 176.621 2024.09 179.591C2025.73 182.561 2027.95 184.955 2030.77 186.773C2033.62 188.561 2036.83 189.455 2040.41 189.455ZM2155.12 181.818V170.455L2195.35 106.909H2204.31V123.636H2198.62L2169.85 169.182V169.909H2224.99V181.818H2155.12ZM2199.26 200V178.364L2199.35 173.182V106.909H2212.67V200H2199.26ZM2343.9 106.909V200H2329.81V121H2329.26L2306.99 135.545V122.091L2330.22 106.909H2343.9ZM2467.56 201.273C2461.86 201.273 2456.74 200.182 2452.19 198C2447.68 195.788 2444.07 192.758 2441.38 188.909C2438.68 185.061 2437.24 180.667 2437.06 175.727H2450.69C2451.03 179.727 2452.8 183.015 2456.01 185.591C2459.22 188.167 2463.07 189.455 2467.56 189.455C2471.13 189.455 2474.3 188.636 2477.06 187C2479.84 185.333 2482.03 183.045 2483.6 180.136C2485.21 177.227 2486.01 173.909 2486.01 170.182C2486.01 166.394 2485.19 163.015 2483.56 160.045C2481.92 157.076 2479.66 154.742 2476.78 153.045C2473.94 151.348 2470.66 150.485 2466.97 150.455C2464.15 150.455 2461.31 150.939 2458.47 151.909C2455.62 152.879 2453.31 154.152 2451.56 155.727L2438.69 153.818L2443.92 106.909H2495.1V118.955H2455.6L2452.65 145H2453.19C2455.01 143.242 2457.42 141.773 2460.42 140.591C2463.45 139.409 2466.69 138.818 2470.15 138.818C2475.81 138.818 2480.86 140.167 2485.28 142.864C2489.74 145.561 2493.24 149.242 2495.78 153.909C2498.36 158.545 2499.63 163.879 2499.6 169.909C2499.63 175.939 2498.27 181.318 2495.51 186.045C2492.78 190.773 2489 194.5 2484.15 197.227C2479.33 199.924 2473.8 201.273 2467.56 201.273Z" fill="#00E494"/>
<path d="M2031.65 270H2026.99L2037.46 240.909H2042.53L2053 270H2048.34L2040.12 246.193H2039.89L2031.65 270ZM2032.43 258.608H2047.55V262.301H2032.43V258.608Z" fill="#CDCDCD"/>
<path d="M2178.2 270V240.909H2196.24V244.688H2182.59V253.551H2194.94V257.315H2182.59V270H2178.2Z" fill="#CDCDCD"/>
<path d="M2347.36 250.369H2342.93C2342.76 249.422 2342.44 248.589 2341.97 247.869C2341.51 247.15 2340.94 246.539 2340.27 246.037C2339.6 245.535 2338.84 245.156 2338.01 244.901C2337.19 244.645 2336.31 244.517 2335.38 244.517C2333.71 244.517 2332.21 244.938 2330.88 245.781C2329.56 246.624 2328.52 247.86 2327.76 249.489C2327 251.117 2326.62 253.106 2326.62 255.455C2326.62 257.822 2327 259.82 2327.76 261.449C2328.52 263.078 2329.57 264.309 2330.89 265.142C2332.22 265.975 2333.71 266.392 2335.37 266.392C2336.29 266.392 2337.16 266.269 2337.98 266.023C2338.82 265.767 2339.57 265.393 2340.24 264.901C2340.91 264.408 2341.48 263.807 2341.95 263.097C2342.42 262.377 2342.75 261.553 2342.93 260.625L2347.36 260.639C2347.12 262.069 2346.66 263.385 2345.98 264.588C2345.31 265.781 2344.44 266.813 2343.38 267.685C2342.33 268.546 2341.13 269.214 2339.77 269.688C2338.42 270.161 2336.94 270.398 2335.34 270.398C2332.82 270.398 2330.58 269.801 2328.61 268.608C2326.64 267.405 2325.09 265.687 2323.95 263.452C2322.82 261.217 2322.26 258.551 2322.26 255.455C2322.26 252.348 2322.83 249.683 2323.96 247.457C2325.1 245.223 2326.65 243.509 2328.62 242.315C2330.59 241.113 2332.83 240.511 2335.34 240.511C2336.88 240.511 2338.32 240.734 2339.66 241.179C2341 241.615 2342.21 242.259 2343.28 243.111C2344.35 243.954 2345.24 244.986 2345.94 246.207C2346.64 247.42 2347.11 248.807 2347.36 250.369Z" fill="#CDCDCD"/>
<path d="M2475.88 250.099C2475.61 249.238 2475.24 248.466 2474.78 247.784C2474.32 247.093 2473.78 246.506 2473.14 246.023C2472.51 245.53 2471.78 245.156 2470.97 244.901C2470.16 244.645 2469.28 244.517 2468.31 244.517C2466.67 244.517 2465.2 244.938 2463.88 245.781C2462.56 246.624 2461.52 247.86 2460.76 249.489C2460 251.108 2459.62 253.092 2459.62 255.44C2459.62 257.798 2460 259.792 2460.77 261.42C2461.54 263.049 2462.59 264.285 2463.92 265.128C2465.26 265.971 2466.78 266.392 2468.48 266.392C2470.06 266.392 2471.44 266.07 2472.62 265.426C2473.8 264.782 2474.71 263.873 2475.36 262.699C2476.01 261.515 2476.34 260.123 2476.34 258.523L2477.47 258.736H2469.15V255.114H2480.59V258.423C2480.59 260.866 2480.06 262.988 2479.02 264.787C2477.99 266.577 2476.56 267.959 2474.73 268.935C2472.91 269.91 2470.83 270.398 2468.48 270.398C2465.85 270.398 2463.54 269.792 2461.55 268.58C2459.57 267.367 2458.03 265.649 2456.92 263.423C2455.81 261.188 2455.26 258.537 2455.26 255.469C2455.26 253.149 2455.58 251.065 2456.22 249.219C2456.87 247.372 2457.77 245.805 2458.94 244.517C2460.11 243.22 2461.49 242.23 2463.07 241.548C2464.66 240.857 2466.4 240.511 2468.28 240.511C2469.86 240.511 2471.32 240.743 2472.67 241.207C2474.04 241.671 2475.25 242.33 2476.31 243.182C2477.38 244.034 2478.27 245.047 2478.97 246.222C2479.67 247.386 2480.14 248.679 2480.39 250.099H2475.88Z" fill="#CDCDCD"/>
<path d="M1390.27 106.909V200H1376.18V121H1375.64L1353.36 135.545V122.091L1376.59 106.909H1390.27ZM1515.7 201.273C1511.55 201.212 1507.46 200.455 1503.43 199C1499.43 197.545 1495.8 195.121 1492.52 191.727C1489.25 188.333 1486.63 183.773 1484.66 178.045C1482.72 172.318 1481.75 165.167 1481.75 156.591C1481.75 148.47 1482.55 141.258 1484.16 134.955C1485.8 128.652 1488.14 123.333 1491.2 119C1494.27 114.636 1497.96 111.318 1502.3 109.045C1506.63 106.773 1511.49 105.636 1516.89 105.636C1522.43 105.636 1527.36 106.727 1531.66 108.909C1535.96 111.091 1539.45 114.106 1542.11 117.955C1544.81 121.803 1546.52 126.182 1547.25 131.091H1533.39C1532.45 127.212 1530.58 124.045 1527.8 121.591C1525.01 119.136 1521.37 117.909 1516.89 117.909C1510.07 117.909 1504.75 120.879 1500.93 126.818C1497.14 132.758 1495.23 141.015 1495.2 151.591H1495.89C1497.49 148.955 1499.46 146.712 1501.8 144.864C1504.16 142.985 1506.8 141.545 1509.7 140.545C1512.64 139.515 1515.73 139 1518.98 139C1524.37 139 1529.25 140.318 1533.61 142.955C1538.01 145.561 1541.51 149.167 1544.11 153.773C1546.72 158.379 1548.02 163.652 1548.02 169.591C1548.02 175.53 1546.67 180.909 1543.98 185.727C1541.31 190.545 1537.55 194.364 1532.7 197.182C1527.86 199.97 1522.19 201.333 1515.7 201.273ZM1515.66 189.455C1519.23 189.455 1522.43 188.576 1525.25 186.818C1528.07 185.061 1530.3 182.697 1531.93 179.727C1533.57 176.758 1534.39 173.439 1534.39 169.773C1534.39 166.197 1533.58 162.939 1531.98 160C1530.4 157.061 1528.22 154.727 1525.43 153C1522.67 151.273 1519.52 150.409 1515.98 150.409C1513.28 150.409 1510.78 150.924 1508.48 151.955C1506.2 152.985 1504.2 154.409 1502.48 156.227C1500.75 158.045 1499.39 160.136 1498.39 162.5C1497.42 164.833 1496.93 167.303 1496.93 169.909C1496.93 173.394 1497.73 176.621 1499.34 179.591C1500.98 182.561 1503.2 184.955 1506.02 186.773C1508.87 188.561 1512.08 189.455 1515.66 189.455ZM1630.38 181.818V170.455L1670.6 106.909H1679.56V123.636H1673.88L1645.1 169.182V169.909H1700.24V181.818H1630.38ZM1674.51 200V178.364L1674.6 173.182V106.909H1687.92V200H1674.51ZM1814.56 201.273C1808.86 201.273 1803.74 200.182 1799.19 198C1794.68 195.788 1791.07 192.758 1788.38 188.909C1785.68 185.061 1784.24 180.667 1784.06 175.727H1797.69C1798.03 179.727 1799.8 183.015 1803.01 185.591C1806.22 188.167 1810.07 189.455 1814.56 189.455C1818.13 189.455 1821.3 188.636 1824.06 187C1826.84 185.333 1829.03 183.045 1830.6 180.136C1832.21 177.227 1833.01 173.909 1833.01 170.182C1833.01 166.394 1832.19 163.015 1830.56 160.045C1828.92 157.076 1826.66 154.742 1823.78 153.045C1820.94 151.348 1817.66 150.485 1813.97 150.455C1811.15 150.455 1808.31 150.939 1805.47 151.909C1802.62 152.879 1800.31 154.152 1798.56 155.727L1785.69 153.818L1790.92 106.909H1842.1V118.955H1802.6L1799.65 145H1800.19C1802.01 143.242 1804.42 141.773 1807.42 140.591C1810.45 139.409 1813.69 138.818 1817.15 138.818C1822.81 138.818 1827.86 140.167 1832.28 142.864C1836.74 145.561 1840.24 149.242 1842.78 153.909C1845.36 158.545 1846.63 163.879 1846.6 169.909C1846.63 175.939 1845.27 181.318 1842.51 186.045C1839.78 190.773 1836 194.5 1831.15 197.227C1826.33 199.924 1820.8 201.273 1814.56 201.273Z" fill="#00E494"/>
<path d="M1391.36 250.369H1386.93C1386.76 249.422 1386.44 248.589 1385.97 247.869C1385.51 247.15 1384.94 246.539 1384.27 246.037C1383.6 245.535 1382.84 245.156 1382.01 244.901C1381.19 244.645 1380.31 244.517 1379.38 244.517C1377.71 244.517 1376.21 244.938 1374.88 245.781C1373.56 246.624 1372.52 247.86 1371.76 249.489C1371 251.117 1370.62 253.106 1370.62 255.455C1370.62 257.822 1371 259.82 1371.76 261.449C1372.52 263.078 1373.57 264.309 1374.89 265.142C1376.22 265.975 1377.71 266.392 1379.37 266.392C1380.29 266.392 1381.16 266.269 1381.98 266.023C1382.82 265.767 1383.57 265.393 1384.24 264.901C1384.91 264.408 1385.48 263.807 1385.95 263.097C1386.42 262.377 1386.75 261.553 1386.93 260.625L1391.36 260.639C1391.12 262.069 1390.66 263.385 1389.98 264.588C1389.31 265.781 1388.44 266.813 1387.38 267.685C1386.33 268.546 1385.13 269.214 1383.77 269.688C1382.42 270.161 1380.94 270.398 1379.34 270.398C1376.82 270.398 1374.58 269.801 1372.61 268.608C1370.64 267.405 1369.09 265.687 1367.95 263.452C1366.82 261.217 1366.26 258.551 1366.26 255.455C1366.26 252.348 1366.83 249.683 1367.96 247.457C1369.1 245.223 1370.65 243.509 1372.62 242.315C1374.59 241.113 1376.83 240.511 1379.34 240.511C1380.88 240.511 1382.32 240.734 1383.66 241.179C1385 241.615 1386.21 242.259 1387.28 243.111C1388.35 243.954 1389.24 244.986 1389.94 246.207C1390.64 247.42 1391.11 248.807 1391.36 250.369Z" fill="#CDCDCD"/>
<path d="M1508.65 270H1503.99L1514.46 240.909H1519.53L1530 270H1525.34L1517.12 246.193H1516.89L1508.65 270ZM1509.43 258.608H1524.55V262.301H1509.43V258.608Z" fill="#CDCDCD"/>
<path d="M1657.2 270V240.909H1675.24V244.688H1661.59V253.551H1673.94V257.315H1661.59V270H1657.2Z" fill="#CDCDCD"/>
<path d="M1823.88 250.099C1823.61 249.238 1823.24 248.466 1822.78 247.784C1822.32 247.093 1821.78 246.506 1821.14 246.023C1820.51 245.53 1819.78 245.156 1818.97 244.901C1818.16 244.645 1817.28 244.517 1816.31 244.517C1814.67 244.517 1813.2 244.938 1811.88 245.781C1810.56 246.624 1809.52 247.86 1808.76 249.489C1808 251.108 1807.62 253.092 1807.62 255.44C1807.62 257.798 1808 259.792 1808.77 261.42C1809.54 263.049 1810.59 264.285 1811.92 265.128C1813.26 265.971 1814.78 266.392 1816.48 266.392C1818.06 266.392 1819.44 266.07 1820.62 265.426C1821.8 264.782 1822.71 263.873 1823.36 262.699C1824.01 261.515 1824.34 260.123 1824.34 258.523L1825.47 258.736H1817.15V255.114H1828.59V258.423C1828.59 260.866 1828.06 262.988 1827.02 264.787C1825.99 266.577 1824.56 267.959 1822.73 268.935C1820.91 269.91 1818.83 270.398 1816.48 270.398C1813.85 270.398 1811.54 269.792 1809.55 268.58C1807.57 267.367 1806.03 265.649 1804.92 263.423C1803.81 261.188 1803.26 258.537 1803.26 255.469C1803.26 253.149 1803.58 251.065 1804.22 249.219C1804.87 247.372 1805.77 245.805 1806.94 244.517C1808.11 243.22 1809.49 242.23 1811.07 241.548C1812.66 240.857 1814.4 240.511 1816.28 240.511C1817.86 240.511 1819.32 240.743 1820.67 241.207C1822.04 241.671 1823.25 242.33 1824.31 243.182C1825.38 244.034 1826.27 245.047 1826.97 246.222C1827.67 247.386 1828.14 248.679 1828.39 250.099H1823.88Z" fill="#CDCDCD"/>
<path d="M740.273 106.909V200H726.182V121H725.636L703.364 135.545V122.091L726.591 106.909H740.273ZM863.932 201.273C858.235 201.273 853.114 200.182 848.568 198C844.053 195.788 840.447 192.758 837.75 188.909C835.053 185.061 833.614 180.667 833.432 175.727H847.068C847.402 179.727 849.174 183.015 852.386 185.591C855.598 188.167 859.447 189.455 863.932 189.455C867.508 189.455 870.674 188.636 873.432 187C876.22 185.333 878.402 183.045 879.977 180.136C881.583 177.227 882.386 173.909 882.386 170.182C882.386 166.394 881.568 163.015 879.932 160.045C878.295 157.076 876.038 154.742 873.159 153.045C870.311 151.348 867.038 150.485 863.341 150.455C860.523 150.455 857.689 150.939 854.841 151.909C851.992 152.879 849.689 154.152 847.932 155.727L835.068 153.818L840.295 106.909H891.477V118.955H851.977L849.023 145H849.568C851.386 143.242 853.795 141.773 856.795 140.591C859.826 139.409 863.068 138.818 866.523 138.818C872.189 138.818 877.235 140.167 881.659 142.864C886.114 145.561 889.614 149.242 892.159 153.909C894.735 158.545 896.008 163.879 895.977 169.909C896.008 175.939 894.644 181.318 891.886 186.045C889.159 190.773 885.371 194.5 880.523 197.227C875.705 199.924 870.174 201.273 863.932 201.273ZM980.33 200V189.818L1011.83 157.182C1015.19 153.636 1017.97 150.53 1020.15 147.864C1022.36 145.167 1024.01 142.606 1025.1 140.182C1026.19 137.758 1026.74 135.182 1026.74 132.455C1026.74 129.364 1026.01 126.697 1024.56 124.455C1023.1 122.182 1021.12 120.439 1018.6 119.227C1016.09 117.985 1013.25 117.364 1010.1 117.364C1006.77 117.364 1003.86 118.045 1001.38 119.409C998.89 120.773 996.981 122.697 995.648 125.182C994.314 127.667 993.648 130.576 993.648 133.909H980.239C980.239 128.242 981.542 123.288 984.148 119.045C986.754 114.803 990.33 111.515 994.875 109.182C999.42 106.818 1004.59 105.636 1010.38 105.636C1016.22 105.636 1021.38 106.803 1025.83 109.136C1030.31 111.439 1033.81 114.591 1036.33 118.591C1038.84 122.561 1040.1 127.045 1040.1 132.045C1040.1 135.5 1039.45 138.879 1038.15 142.182C1036.88 145.485 1034.65 149.167 1031.47 153.227C1028.28 157.258 1023.86 162.152 1018.19 167.909L999.693 187.273V187.955H1041.6V200H980.33ZM1124.62 181.818V170.455L1164.85 106.909H1173.81V123.636H1168.12L1139.35 169.182V169.909H1194.49V181.818H1124.62ZM1168.76 200V178.364L1168.85 173.182V106.909H1182.17V200H1168.76Z" fill="#00E494"/>
<path d="M742.358 250.369H737.926C737.756 249.422 737.438 248.589 736.974 247.869C736.51 247.15 735.942 246.539 735.27 246.037C734.598 245.535 733.845 245.156 733.011 244.901C732.188 244.645 731.312 244.517 730.384 244.517C728.707 244.517 727.206 244.938 725.881 245.781C724.564 246.624 723.523 247.86 722.756 249.489C721.998 251.117 721.619 253.106 721.619 255.455C721.619 257.822 721.998 259.82 722.756 261.449C723.523 263.078 724.569 264.309 725.895 265.142C727.221 265.975 728.712 266.392 730.369 266.392C731.288 266.392 732.159 266.269 732.983 266.023C733.816 265.767 734.569 265.393 735.241 264.901C735.914 264.408 736.482 263.807 736.946 263.097C737.42 262.377 737.746 261.553 737.926 260.625L742.358 260.639C742.121 262.069 741.662 263.385 740.98 264.588C740.308 265.781 739.441 266.813 738.381 267.685C737.33 268.546 736.127 269.214 734.773 269.688C733.419 270.161 731.941 270.398 730.341 270.398C727.822 270.398 725.578 269.801 723.608 268.608C721.638 267.405 720.085 265.687 718.949 263.452C717.822 261.217 717.259 258.551 717.259 255.455C717.259 252.348 717.827 249.683 718.963 247.457C720.099 245.223 721.652 243.509 723.622 242.315C725.592 241.113 727.831 240.511 730.341 240.511C731.884 240.511 733.324 240.734 734.659 241.179C736.004 241.615 737.211 242.259 738.281 243.111C739.351 243.954 740.237 244.986 740.938 246.207C741.638 247.42 742.112 248.807 742.358 250.369Z" fill="#CDCDCD"/>
<path d="M868.884 250.099C868.609 249.238 868.24 248.466 867.776 247.784C867.321 247.093 866.777 246.506 866.142 246.023C865.508 245.53 864.783 245.156 863.969 244.901C863.164 244.645 862.278 244.517 861.312 244.517C859.674 244.517 858.197 244.938 856.881 245.781C855.564 246.624 854.523 247.86 853.756 249.489C852.998 251.108 852.619 253.092 852.619 255.44C852.619 257.798 853.003 259.792 853.77 261.42C854.537 263.049 855.588 264.285 856.923 265.128C858.259 265.971 859.778 266.392 861.483 266.392C863.064 266.392 864.442 266.07 865.616 265.426C866.8 264.782 867.714 263.873 868.358 262.699C869.011 261.515 869.338 260.123 869.338 258.523L870.474 258.736H862.151V255.114H873.585V258.423C873.585 260.866 873.064 262.988 872.023 264.787C870.991 266.577 869.561 267.959 867.733 268.935C865.915 269.91 863.831 270.398 861.483 270.398C858.85 270.398 856.54 269.792 854.551 268.58C852.572 267.367 851.028 265.649 849.92 263.423C848.813 261.188 848.259 258.537 848.259 255.469C848.259 253.149 848.58 251.065 849.224 249.219C849.868 247.372 850.773 245.805 851.938 244.517C853.112 243.22 854.49 242.23 856.071 241.548C857.662 240.857 859.4 240.511 861.284 240.511C862.856 240.511 864.319 240.743 865.673 241.207C867.037 241.671 868.249 242.33 869.31 243.182C870.38 244.034 871.265 245.047 871.966 246.222C872.667 247.386 873.14 248.679 873.386 250.099H868.884Z" fill="#CDCDCD"/>
<path d="M1011.61 270H1002.2V240.909H1011.91C1014.76 240.909 1017.21 241.491 1019.26 242.656C1021.3 243.812 1022.87 245.473 1023.96 247.642C1025.06 249.801 1025.61 252.391 1025.61 255.412C1025.61 258.442 1025.05 261.046 1023.94 263.224C1022.84 265.402 1021.25 267.079 1019.17 268.253C1017.09 269.418 1014.57 270 1011.61 270ZM1006.59 266.165H1011.37C1013.59 266.165 1015.43 265.748 1016.9 264.915C1018.37 264.072 1019.46 262.855 1020.19 261.264C1020.92 259.664 1021.29 257.713 1021.29 255.412C1021.29 253.13 1020.92 251.193 1020.19 249.602C1019.47 248.011 1018.4 246.804 1016.97 245.98C1015.54 245.156 1013.76 244.744 1011.64 244.744H1006.59V266.165Z" fill="#CDCDCD"/>
<path d="M1149.2 270V240.909H1167.24V244.688H1153.59V253.551H1165.94V257.315H1153.59V270H1149.2Z" fill="#CDCDCD"/>
<path d="M87.358 250.369H82.9261C82.7557 249.422 82.4384 248.589 81.9744 247.869C81.5104 247.15 80.9422 246.539 80.2699 246.037C79.5975 245.535 78.8447 245.156 78.0114 244.901C77.1875 244.645 76.3116 244.517 75.3835 244.517C73.7074 244.517 72.2064 244.938 70.8807 245.781C69.5644 246.624 68.5227 247.86 67.7557 249.489C66.9981 251.117 66.6193 253.106 66.6193 255.455C66.6193 257.822 66.9981 259.82 67.7557 261.449C68.5227 263.078 69.5691 264.309 70.8949 265.142C72.2206 265.975 73.7121 266.392 75.3693 266.392C76.2879 266.392 77.1591 266.269 77.983 266.023C78.8163 265.767 79.5691 265.393 80.2415 264.901C80.9138 264.408 81.482 263.807 81.946 263.097C82.4195 262.377 82.7462 261.553 82.9261 260.625L87.358 260.639C87.1212 262.069 86.6619 263.385 85.9801 264.588C85.3078 265.781 84.4413 266.813 83.3807 267.685C82.3295 268.546 81.1269 269.214 79.7727 269.688C78.4186 270.161 76.9413 270.398 75.3409 270.398C72.822 270.398 70.5777 269.801 68.608 268.608C66.6383 267.405 65.0852 265.687 63.9489 263.452C62.822 261.217 62.2585 258.551 62.2585 255.455C62.2585 252.348 62.8267 249.683 63.9631 247.457C65.0994 245.223 66.6525 243.509 68.6222 242.315C70.5919 241.113 72.8314 240.511 75.3409 240.511C76.8845 240.511 78.3239 240.734 79.6591 241.179C81.0038 241.615 82.2112 242.259 83.2812 243.111C84.3513 243.954 85.2367 244.986 85.9375 246.207C86.6383 247.42 87.1117 248.807 87.358 250.369Z" fill="#CDCDCD"/>
<path d="M218.884 250.099C218.609 249.238 218.24 248.466 217.776 247.784C217.321 247.093 216.777 246.506 216.142 246.023C215.508 245.53 214.783 245.156 213.969 244.901C213.164 244.645 212.278 244.517 211.312 244.517C209.674 244.517 208.197 244.938 206.881 245.781C205.564 246.624 204.523 247.86 203.756 249.489C202.998 251.108 202.619 253.092 202.619 255.44C202.619 257.798 203.003 259.792 203.77 261.42C204.537 263.049 205.588 264.285 206.923 265.128C208.259 265.971 209.778 266.392 211.483 266.392C213.064 266.392 214.442 266.07 215.616 265.426C216.8 264.782 217.714 263.873 218.358 262.699C219.011 261.515 219.338 260.123 219.338 258.523L220.474 258.736H212.151V255.114H223.585V258.423C223.585 260.866 223.064 262.988 222.023 264.787C220.991 266.577 219.561 267.959 217.733 268.935C215.915 269.91 213.831 270.398 211.483 270.398C208.85 270.398 206.54 269.792 204.551 268.58C202.572 267.367 201.028 265.649 199.92 263.423C198.813 261.188 198.259 258.537 198.259 255.469C198.259 253.149 198.58 251.065 199.224 249.219C199.868 247.372 200.773 245.805 201.938 244.517C203.112 243.22 204.49 242.23 206.071 241.548C207.662 240.857 209.4 240.511 211.284 240.511C212.856 240.511 214.319 240.743 215.673 241.207C217.037 241.671 218.249 242.33 219.31 243.182C220.38 244.034 221.265 245.047 221.966 246.222C222.667 247.386 223.14 248.679 223.386 250.099H218.884Z" fill="#CDCDCD"/>
<path d="M349.653 270H344.994L355.463 240.909H360.534L371.003 270H366.344L358.119 246.193H357.892L349.653 270ZM350.435 258.608H365.548V262.301H350.435V258.608Z" fill="#CDCDCD"/>
<path d="M498.196 270V240.909H516.236V244.688H502.585V253.551H514.943V257.315H502.585V270H498.196Z" fill="#CDCDCD"/>
<path d="M87.2727 106.909V200H73.1818V121H72.6364L50.3636 135.545V122.091L73.5909 106.909H87.2727ZM210.932 201.273C205.235 201.273 200.114 200.182 195.568 198C191.053 195.788 187.447 192.758 184.75 188.909C182.053 185.061 180.614 180.667 180.432 175.727H194.068C194.402 179.727 196.174 183.015 199.386 185.591C202.598 188.167 206.447 189.455 210.932 189.455C214.508 189.455 217.674 188.636 220.432 187C223.22 185.333 225.402 183.045 226.977 180.136C228.583 177.227 229.386 173.909 229.386 170.182C229.386 166.394 228.568 163.015 226.932 160.045C225.295 157.076 223.038 154.742 220.159 153.045C217.311 151.348 214.038 150.485 210.341 150.455C207.523 150.455 204.689 150.939 201.841 151.909C198.992 152.879 196.689 154.152 194.932 155.727L182.068 153.818L187.295 106.909H238.477V118.955H198.977L196.023 145H196.568C198.386 143.242 200.795 141.773 203.795 140.591C206.826 139.409 210.068 138.818 213.523 138.818C219.189 138.818 224.235 140.167 228.659 142.864C233.114 145.561 236.614 149.242 239.159 153.909C241.735 158.545 243.008 163.879 242.977 169.909C243.008 175.939 241.644 181.318 238.886 186.045C236.159 190.773 232.371 194.5 227.523 197.227C222.705 199.924 217.174 201.273 210.932 201.273ZM359.83 201.273C355.678 201.212 351.587 200.455 347.557 199C343.557 197.545 339.92 195.121 336.648 191.727C333.375 188.333 330.754 183.773 328.784 178.045C326.845 172.318 325.875 165.167 325.875 156.591C325.875 148.47 326.678 141.258 328.284 134.955C329.92 128.652 332.269 123.333 335.33 119C338.39 114.636 342.087 111.318 346.42 109.045C350.754 106.773 355.617 105.636 361.011 105.636C366.557 105.636 371.481 106.727 375.784 108.909C380.087 111.091 383.572 114.106 386.239 117.955C388.936 121.803 390.648 126.182 391.375 131.091H377.511C376.572 127.212 374.708 124.045 371.92 121.591C369.133 119.136 365.496 117.909 361.011 117.909C354.193 117.909 348.875 120.879 345.057 126.818C341.269 132.758 339.36 141.015 339.33 151.591H340.011C341.617 148.955 343.587 146.712 345.92 144.864C348.284 142.985 350.92 141.545 353.83 140.545C356.769 139.515 359.86 139 363.102 139C368.496 139 373.375 140.318 377.739 142.955C382.133 145.561 385.633 149.167 388.239 153.773C390.845 158.379 392.148 163.652 392.148 169.591C392.148 175.53 390.799 180.909 388.102 185.727C385.436 190.545 381.678 194.364 376.83 197.182C371.981 199.97 366.314 201.333 359.83 201.273ZM359.784 189.455C363.36 189.455 366.557 188.576 369.375 186.818C372.193 185.061 374.42 182.697 376.057 179.727C377.693 176.758 378.511 173.439 378.511 169.773C378.511 166.197 377.708 162.939 376.102 160C374.527 157.061 372.345 154.727 369.557 153C366.799 151.273 363.648 150.409 360.102 150.409C357.405 150.409 354.905 150.924 352.602 151.955C350.33 152.985 348.33 154.409 346.602 156.227C344.875 158.045 343.511 160.136 342.511 162.5C341.542 164.833 341.057 167.303 341.057 169.909C341.057 173.394 341.86 176.621 343.466 179.591C345.102 182.561 347.33 184.955 350.148 186.773C352.996 188.561 356.208 189.455 359.784 189.455ZM474.5 181.818V170.455L514.727 106.909H523.682V123.636H518L489.227 169.182V169.909H544.364V181.818H474.5ZM518.636 200V178.364L518.727 173.182V106.909H532.045V200H518.636Z" fill="#00E494"/>
</svg>
