<svg width="3250" height="900" viewBox="0 0 3250 900" fill="none" xmlns="http://www.w3.org/2000/svg">
<path d="M2696.27 542.909V636H2682.18V557H2681.64L2659.36 571.545V558.091L2682.59 542.909H2696.27ZM2787.25 617.818V606.455L2827.48 542.909H2836.43V559.636H2830.75L2801.98 605.182V605.909H2857.11V617.818H2787.25ZM2831.39 636V614.364L2831.48 609.182V542.909H2844.8V636H2831.39ZM2971.43 637.273C2965.73 637.273 2960.61 636.182 2956.07 634C2951.55 631.788 2947.95 628.758 2945.25 624.909C2942.55 621.061 2941.11 616.667 2940.93 611.727H2954.57C2954.9 615.727 2956.67 619.015 2959.89 621.591C2963.1 624.167 2966.95 625.455 2971.43 625.455C2975.01 625.455 2978.17 624.636 2980.93 623C2983.72 621.333 2985.9 619.045 2987.48 616.136C2989.08 613.227 2989.89 609.909 2989.89 606.182C2989.89 602.394 2989.07 599.015 2987.43 596.045C2985.8 593.076 2983.54 590.742 2980.66 589.045C2977.81 587.348 2974.54 586.485 2970.84 586.455C2968.02 586.455 2965.19 586.939 2962.34 587.909C2959.49 588.879 2957.19 590.152 2955.43 591.727L2942.57 589.818L2947.8 542.909H2998.98V554.955H2959.48L2956.52 581H2957.07C2958.89 579.242 2961.3 577.773 2964.3 576.591C2967.33 575.409 2970.57 574.818 2974.02 574.818C2979.69 574.818 2984.73 576.167 2989.16 578.864C2993.61 581.561 2997.11 585.242 2999.66 589.909C3002.23 594.545 3003.51 599.879 3003.48 605.909C3003.51 611.939 3002.14 617.318 2999.39 622.045C2996.66 626.773 2992.87 630.5 2988.02 633.227C2983.2 635.924 2977.67 637.273 2971.43 637.273Z" fill="#00E494"/>
<path d="M2704.36 686.369H2699.93C2699.76 685.422 2699.44 684.589 2698.97 683.869C2698.51 683.15 2697.94 682.539 2697.27 682.037C2696.6 681.535 2695.84 681.156 2695.01 680.901C2694.19 680.645 2693.31 680.517 2692.38 680.517C2690.71 680.517 2689.21 680.938 2687.88 681.781C2686.56 682.624 2685.52 683.86 2684.76 685.489C2684 687.117 2683.62 689.106 2683.62 691.455C2683.62 693.822 2684 695.82 2684.76 697.449C2685.52 699.078 2686.57 700.309 2687.89 701.142C2689.22 701.975 2690.71 702.392 2692.37 702.392C2693.29 702.392 2694.16 702.269 2694.98 702.023C2695.82 701.767 2696.57 701.393 2697.24 700.901C2697.91 700.408 2698.48 699.807 2698.95 699.097C2699.42 698.377 2699.75 697.553 2699.93 696.625L2704.36 696.639C2704.12 698.069 2703.66 699.385 2702.98 700.588C2702.31 701.781 2701.44 702.813 2700.38 703.685C2699.33 704.546 2698.13 705.214 2696.77 705.688C2695.42 706.161 2693.94 706.398 2692.34 706.398C2689.82 706.398 2687.58 705.801 2685.61 704.608C2683.64 703.405 2682.09 701.687 2680.95 699.452C2679.82 697.217 2679.26 694.551 2679.26 691.455C2679.26 688.348 2679.83 685.683 2680.96 683.457C2682.1 681.223 2683.65 679.509 2685.62 678.315C2687.59 677.113 2689.83 676.511 2692.34 676.511C2693.88 676.511 2695.32 676.734 2696.66 677.179C2698 677.615 2699.21 678.259 2700.28 679.111C2701.35 679.954 2702.24 680.986 2702.94 682.207C2703.64 683.42 2704.11 684.807 2704.36 686.369Z" fill="#CDCDCD"/>
<path d="M2817.2 706V676.909H2835.24V680.688H2821.59V689.551H2833.94V693.315H2821.59V706H2817.2Z" fill="#CDCDCD"/>
<path d="M2975.88 686.099C2975.61 685.238 2975.24 684.466 2974.78 683.784C2974.32 683.093 2973.78 682.506 2973.14 682.023C2972.51 681.53 2971.78 681.156 2970.97 680.901C2970.16 680.645 2969.28 680.517 2968.31 680.517C2966.67 680.517 2965.2 680.938 2963.88 681.781C2962.56 682.624 2961.52 683.86 2960.76 685.489C2960 687.108 2959.62 689.092 2959.62 691.44C2959.62 693.798 2960 695.792 2960.77 697.42C2961.54 699.049 2962.59 700.285 2963.92 701.128C2965.26 701.971 2966.78 702.392 2968.48 702.392C2970.06 702.392 2971.44 702.07 2972.62 701.426C2973.8 700.782 2974.71 699.873 2975.36 698.699C2976.01 697.515 2976.34 696.123 2976.34 694.523L2977.47 694.736H2969.15V691.114H2980.59V694.423C2980.59 696.866 2980.06 698.988 2979.02 700.787C2977.99 702.577 2976.56 703.959 2974.73 704.935C2972.91 705.91 2970.83 706.398 2968.48 706.398C2965.85 706.398 2963.54 705.792 2961.55 704.58C2959.57 703.367 2958.03 701.649 2956.92 699.423C2955.81 697.188 2955.26 694.537 2955.26 691.469C2955.26 689.149 2955.58 687.065 2956.22 685.219C2956.87 683.372 2957.77 681.805 2958.94 680.517C2960.11 679.22 2961.49 678.23 2963.07 677.548C2964.66 676.857 2966.4 676.511 2968.28 676.511C2969.86 676.511 2971.32 676.743 2972.67 677.207C2974.04 677.671 2975.25 678.33 2976.31 679.182C2977.38 680.034 2978.27 681.047 2978.97 682.222C2979.67 683.386 2980.14 684.679 2980.39 686.099H2975.88Z" fill="#CDCDCD"/>
<path d="M2006 617.818V606.455L2046.23 542.909H2055.18V559.636H2049.5L2020.73 605.182V605.909H2075.86V617.818H2006ZM2050.14 636V614.364L2050.23 609.182V542.909H2063.55V636H2050.14ZM2190.18 637.273C2184.48 637.273 2179.36 636.182 2174.82 634C2170.3 631.788 2166.7 628.758 2164 624.909C2161.3 621.061 2159.86 616.667 2159.68 611.727H2173.32C2173.65 615.727 2175.42 619.015 2178.64 621.591C2181.85 624.167 2185.7 625.455 2190.18 625.455C2193.76 625.455 2196.92 624.636 2199.68 623C2202.47 621.333 2204.65 619.045 2206.23 616.136C2207.83 613.227 2208.64 609.909 2208.64 606.182C2208.64 602.394 2207.82 599.015 2206.18 596.045C2204.55 593.076 2202.29 590.742 2199.41 589.045C2196.56 587.348 2193.29 586.485 2189.59 586.455C2186.77 586.455 2183.94 586.939 2181.09 587.909C2178.24 588.879 2175.94 590.152 2174.18 591.727L2161.32 589.818L2166.55 542.909H2217.73V554.955H2178.23L2175.27 581H2175.82C2177.64 579.242 2180.05 577.773 2183.05 576.591C2186.08 575.409 2189.32 574.818 2192.77 574.818C2198.44 574.818 2203.48 576.167 2207.91 578.864C2212.36 581.561 2215.86 585.242 2218.41 589.909C2220.98 594.545 2222.26 599.879 2222.23 605.909C2222.26 611.939 2220.89 617.318 2218.14 622.045C2215.41 626.773 2211.62 630.5 2206.77 633.227C2201.95 635.924 2196.42 637.273 2190.18 637.273ZM2341.9 542.909V636H2327.81V557H2327.26L2304.99 571.545V558.091L2328.22 542.909H2341.9ZM2467.33 637.273C2463.18 637.212 2459.09 636.455 2455.06 635C2451.06 633.545 2447.42 631.121 2444.15 627.727C2440.88 624.333 2438.25 619.773 2436.28 614.045C2434.34 608.318 2433.38 601.167 2433.38 592.591C2433.38 584.47 2434.18 577.258 2435.78 570.955C2437.42 564.652 2439.77 559.333 2442.83 555C2445.89 550.636 2449.59 547.318 2453.92 545.045C2458.25 542.773 2463.12 541.636 2468.51 541.636C2474.06 541.636 2478.98 542.727 2483.28 544.909C2487.59 547.091 2491.07 550.106 2493.74 553.955C2496.44 557.803 2498.15 562.182 2498.88 567.091H2485.01C2484.07 563.212 2482.21 560.045 2479.42 557.591C2476.63 555.136 2473 553.909 2468.51 553.909C2461.69 553.909 2456.38 556.879 2452.56 562.818C2448.77 568.758 2446.86 577.015 2446.83 587.591H2447.51C2449.12 584.955 2451.09 582.712 2453.42 580.864C2455.78 578.985 2458.42 577.545 2461.33 576.545C2464.27 575.515 2467.36 575 2470.6 575C2476 575 2480.88 576.318 2485.24 578.955C2489.63 581.561 2493.13 585.167 2495.74 589.773C2498.34 594.379 2499.65 599.652 2499.65 605.591C2499.65 611.53 2498.3 616.909 2495.6 621.727C2492.94 626.545 2489.18 630.364 2484.33 633.182C2479.48 635.97 2473.81 637.333 2467.33 637.273ZM2467.28 625.455C2470.86 625.455 2474.06 624.576 2476.88 622.818C2479.69 621.061 2481.92 618.697 2483.56 615.727C2485.19 612.758 2486.01 609.439 2486.01 605.773C2486.01 602.197 2485.21 598.939 2483.6 596C2482.03 593.061 2479.84 590.727 2477.06 589C2474.3 587.273 2471.15 586.409 2467.6 586.409C2464.91 586.409 2462.41 586.924 2460.1 587.955C2457.83 588.985 2455.83 590.409 2454.1 592.227C2452.38 594.045 2451.01 596.136 2450.01 598.5C2449.04 600.833 2448.56 603.303 2448.56 605.909C2448.56 609.394 2449.36 612.621 2450.97 615.591C2452.6 618.561 2454.83 620.955 2457.65 622.773C2460.5 624.561 2463.71 625.455 2467.28 625.455Z" fill="#00E494"/>
<path d="M2029.2 708V678.909H2047.24V682.688H2033.59V691.551H2045.94V695.315H2033.59V708H2029.2Z" fill="#CDCDCD"/>
<path d="M2197.88 688.099C2197.61 687.238 2197.24 686.466 2196.78 685.784C2196.32 685.093 2195.78 684.506 2195.14 684.023C2194.51 683.53 2193.78 683.156 2192.97 682.901C2192.16 682.645 2191.28 682.517 2190.31 682.517C2188.67 682.517 2187.2 682.938 2185.88 683.781C2184.56 684.624 2183.52 685.86 2182.76 687.489C2182 689.108 2181.62 691.092 2181.62 693.44C2181.62 695.798 2182 697.792 2182.77 699.42C2183.54 701.049 2184.59 702.285 2185.92 703.128C2187.26 703.971 2188.78 704.392 2190.48 704.392C2192.06 704.392 2193.44 704.07 2194.62 703.426C2195.8 702.782 2196.71 701.873 2197.36 700.699C2198.01 699.515 2198.34 698.123 2198.34 696.523L2199.47 696.736H2191.15V693.114H2202.59V696.423C2202.59 698.866 2202.06 700.988 2201.02 702.787C2199.99 704.577 2198.56 705.959 2196.73 706.935C2194.91 707.91 2192.83 708.398 2190.48 708.398C2187.85 708.398 2185.54 707.792 2183.55 706.58C2181.57 705.367 2180.03 703.649 2178.92 701.423C2177.81 699.188 2177.26 696.537 2177.26 693.469C2177.26 691.149 2177.58 689.065 2178.22 687.219C2178.87 685.372 2179.77 683.805 2180.94 682.517C2182.11 681.22 2183.49 680.23 2185.07 679.548C2186.66 678.857 2188.4 678.511 2190.28 678.511C2191.86 678.511 2193.32 678.743 2194.67 679.207C2196.04 679.671 2197.25 680.33 2198.31 681.182C2199.38 682.034 2200.27 683.047 2200.97 684.222C2201.67 685.386 2202.14 686.679 2202.39 688.099H2197.88Z" fill="#CDCDCD"/>
<path d="M2347.36 688.369H2342.93C2342.76 687.422 2342.44 686.589 2341.97 685.869C2341.51 685.15 2340.94 684.539 2340.27 684.037C2339.6 683.535 2338.84 683.156 2338.01 682.901C2337.19 682.645 2336.31 682.517 2335.38 682.517C2333.71 682.517 2332.21 682.938 2330.88 683.781C2329.56 684.624 2328.52 685.86 2327.76 687.489C2327 689.117 2326.62 691.106 2326.62 693.455C2326.62 695.822 2327 697.82 2327.76 699.449C2328.52 701.078 2329.57 702.309 2330.89 703.142C2332.22 703.975 2333.71 704.392 2335.37 704.392C2336.29 704.392 2337.16 704.269 2337.98 704.023C2338.82 703.767 2339.57 703.393 2340.24 702.901C2340.91 702.408 2341.48 701.807 2341.95 701.097C2342.42 700.377 2342.75 699.553 2342.93 698.625L2347.36 698.639C2347.12 700.069 2346.66 701.385 2345.98 702.588C2345.31 703.781 2344.44 704.813 2343.38 705.685C2342.33 706.546 2341.13 707.214 2339.77 707.688C2338.42 708.161 2336.94 708.398 2335.34 708.398C2332.82 708.398 2330.58 707.801 2328.61 706.608C2326.64 705.405 2325.09 703.687 2323.95 701.452C2322.82 699.217 2322.26 696.551 2322.26 693.455C2322.26 690.348 2322.83 687.683 2323.96 685.457C2325.1 683.223 2326.65 681.509 2328.62 680.315C2330.59 679.113 2332.83 678.511 2335.34 678.511C2336.88 678.511 2338.32 678.734 2339.66 679.179C2341 679.615 2342.21 680.259 2343.28 681.111C2344.35 681.954 2345.24 682.986 2345.94 684.207C2346.64 685.42 2347.11 686.807 2347.36 688.369Z" fill="#CDCDCD"/>
<path d="M2458.65 708H2453.99L2464.46 678.909H2469.53L2480 708H2475.34L2467.12 684.193H2466.89L2458.65 708ZM2459.43 696.608H2474.55V700.301H2459.43V696.608Z" fill="#CDCDCD"/>
<path d="M1390.27 542.909V636H1376.18V557H1375.64L1353.36 571.545V558.091L1376.59 542.909H1390.27ZM1513.93 637.273C1508.23 637.273 1503.11 636.182 1498.57 634C1494.05 631.788 1490.45 628.758 1487.75 624.909C1485.05 621.061 1483.61 616.667 1483.43 611.727H1497.07C1497.4 615.727 1499.17 619.015 1502.39 621.591C1505.6 624.167 1509.45 625.455 1513.93 625.455C1517.51 625.455 1520.67 624.636 1523.43 623C1526.22 621.333 1528.4 619.045 1529.98 616.136C1531.58 613.227 1532.39 609.909 1532.39 606.182C1532.39 602.394 1531.57 599.015 1529.93 596.045C1528.3 593.076 1526.04 590.742 1523.16 589.045C1520.31 587.348 1517.04 586.485 1513.34 586.455C1510.52 586.455 1507.69 586.939 1504.84 587.909C1501.99 588.879 1499.69 590.152 1497.93 591.727L1485.07 589.818L1490.3 542.909H1541.48V554.955H1501.98L1499.02 581H1499.57C1501.39 579.242 1503.8 577.773 1506.8 576.591C1509.83 575.409 1513.07 574.818 1516.52 574.818C1522.19 574.818 1527.23 576.167 1531.66 578.864C1536.11 581.561 1539.61 585.242 1542.16 589.909C1544.73 594.545 1546.01 599.879 1545.98 605.909C1546.01 611.939 1544.64 617.318 1541.89 622.045C1539.16 626.773 1535.37 630.5 1530.52 633.227C1525.7 635.924 1520.17 637.273 1513.93 637.273Z" fill="#00E494"/>
<path d="M1391.36 689.369H1386.93C1386.76 688.422 1386.44 687.589 1385.97 686.869C1385.51 686.15 1384.94 685.539 1384.27 685.037C1383.6 684.535 1382.84 684.156 1382.01 683.901C1381.19 683.645 1380.31 683.517 1379.38 683.517C1377.71 683.517 1376.21 683.938 1374.88 684.781C1373.56 685.624 1372.52 686.86 1371.76 688.489C1371 690.117 1370.62 692.106 1370.62 694.455C1370.62 696.822 1371 698.82 1371.76 700.449C1372.52 702.078 1373.57 703.309 1374.89 704.142C1376.22 704.975 1377.71 705.392 1379.37 705.392C1380.29 705.392 1381.16 705.269 1381.98 705.023C1382.82 704.767 1383.57 704.393 1384.24 703.901C1384.91 703.408 1385.48 702.807 1385.95 702.097C1386.42 701.377 1386.75 700.553 1386.93 699.625L1391.36 699.639C1391.12 701.069 1390.66 702.385 1389.98 703.588C1389.31 704.781 1388.44 705.813 1387.38 706.685C1386.33 707.546 1385.13 708.214 1383.77 708.688C1382.42 709.161 1380.94 709.398 1379.34 709.398C1376.82 709.398 1374.58 708.801 1372.61 707.608C1370.64 706.405 1369.09 704.687 1367.95 702.452C1366.82 700.217 1366.26 697.551 1366.26 694.455C1366.26 691.348 1366.83 688.683 1367.96 686.457C1369.1 684.223 1370.65 682.509 1372.62 681.315C1374.59 680.113 1376.83 679.511 1379.34 679.511C1380.88 679.511 1382.32 679.734 1383.66 680.179C1385 680.615 1386.21 681.259 1387.28 682.111C1388.35 682.954 1389.24 683.986 1389.94 685.207C1390.64 686.42 1391.11 687.807 1391.36 689.369Z" fill="#CDCDCD"/>
<path d="M1525.88 689.099C1525.61 688.238 1525.24 687.466 1524.78 686.784C1524.32 686.093 1523.78 685.506 1523.14 685.023C1522.51 684.53 1521.78 684.156 1520.97 683.901C1520.16 683.645 1519.28 683.517 1518.31 683.517C1516.67 683.517 1515.2 683.938 1513.88 684.781C1512.56 685.624 1511.52 686.86 1510.76 688.489C1510 690.108 1509.62 692.092 1509.62 694.44C1509.62 696.798 1510 698.792 1510.77 700.42C1511.54 702.049 1512.59 703.285 1513.92 704.128C1515.26 704.971 1516.78 705.392 1518.48 705.392C1520.06 705.392 1521.44 705.07 1522.62 704.426C1523.8 703.782 1524.71 702.873 1525.36 701.699C1526.01 700.515 1526.34 699.123 1526.34 697.523L1527.47 697.736H1519.15V694.114H1530.59V697.423C1530.59 699.866 1530.06 701.988 1529.02 703.787C1527.99 705.577 1526.56 706.959 1524.73 707.935C1522.91 708.91 1520.83 709.398 1518.48 709.398C1515.85 709.398 1513.54 708.792 1511.55 707.58C1509.57 706.367 1508.03 704.649 1506.92 702.423C1505.81 700.188 1505.26 697.537 1505.26 694.469C1505.26 692.149 1505.58 690.065 1506.22 688.219C1506.87 686.372 1507.77 684.805 1508.94 683.517C1510.11 682.22 1511.49 681.23 1513.07 680.548C1514.66 679.857 1516.4 679.511 1518.28 679.511C1519.86 679.511 1521.32 679.743 1522.67 680.207C1524.04 680.671 1525.25 681.33 1526.31 682.182C1527.38 683.034 1528.27 684.047 1528.97 685.222C1529.67 686.386 1530.14 687.679 1530.39 689.099H1525.88Z" fill="#CDCDCD"/>
<path d="M740.273 542.909V636H726.182V557H725.636L703.364 571.545V558.091L726.591 542.909H740.273ZM863.932 637.273C858.235 637.273 853.114 636.182 848.568 634C844.053 631.788 840.447 628.758 837.75 624.909C835.053 621.061 833.614 616.667 833.432 611.727H847.068C847.402 615.727 849.174 619.015 852.386 621.591C855.598 624.167 859.447 625.455 863.932 625.455C867.508 625.455 870.674 624.636 873.432 623C876.22 621.333 878.402 619.045 879.977 616.136C881.583 613.227 882.386 609.909 882.386 606.182C882.386 602.394 881.568 599.015 879.932 596.045C878.295 593.076 876.038 590.742 873.159 589.045C870.311 587.348 867.038 586.485 863.341 586.455C860.523 586.455 857.689 586.939 854.841 587.909C851.992 588.879 849.689 590.152 847.932 591.727L835.068 589.818L840.295 542.909H891.477V554.955H851.977L849.023 581H849.568C851.386 579.242 853.795 577.773 856.795 576.591C859.826 575.409 863.068 574.818 866.523 574.818C872.189 574.818 877.235 576.167 881.659 578.864C886.114 581.561 889.614 585.242 892.159 589.909C894.735 594.545 896.008 599.879 895.977 605.909C896.008 611.939 894.644 617.318 891.886 622.045C889.159 626.773 885.371 630.5 880.523 633.227C875.705 635.924 870.174 637.273 863.932 637.273ZM978.375 617.818V606.455L1018.6 542.909H1027.56V559.636H1021.88L993.102 605.182V605.909H1048.24V617.818H978.375ZM1022.51 636V614.364L1022.6 609.182V542.909H1035.92V636H1022.51Z" fill="#00E494"/>
<path d="M742.358 686.369H737.926C737.756 685.422 737.438 684.589 736.974 683.869C736.51 683.15 735.942 682.539 735.27 682.037C734.598 681.535 733.845 681.156 733.011 680.901C732.188 680.645 731.312 680.517 730.384 680.517C728.707 680.517 727.206 680.938 725.881 681.781C724.564 682.624 723.523 683.86 722.756 685.489C721.998 687.117 721.619 689.106 721.619 691.455C721.619 693.822 721.998 695.82 722.756 697.449C723.523 699.078 724.569 700.309 725.895 701.142C727.221 701.975 728.712 702.392 730.369 702.392C731.288 702.392 732.159 702.269 732.983 702.023C733.816 701.767 734.569 701.393 735.241 700.901C735.914 700.408 736.482 699.807 736.946 699.097C737.42 698.377 737.746 697.553 737.926 696.625L742.358 696.639C742.121 698.069 741.662 699.385 740.98 700.588C740.308 701.781 739.441 702.813 738.381 703.685C737.33 704.546 736.127 705.214 734.773 705.688C733.419 706.161 731.941 706.398 730.341 706.398C727.822 706.398 725.578 705.801 723.608 704.608C721.638 703.405 720.085 701.687 718.949 699.452C717.822 697.217 717.259 694.551 717.259 691.455C717.259 688.348 717.827 685.683 718.963 683.457C720.099 681.223 721.652 679.509 723.622 678.315C725.592 677.113 727.831 676.511 730.341 676.511C731.884 676.511 733.324 676.734 734.659 677.179C736.004 677.615 737.211 678.259 738.281 679.111C739.351 679.954 740.237 680.986 740.938 682.207C741.638 683.42 742.112 684.807 742.358 686.369Z" fill="#CDCDCD"/>
<path d="M868.884 686.099C868.609 685.238 868.24 684.466 867.776 683.784C867.321 683.093 866.777 682.506 866.142 682.023C865.508 681.53 864.783 681.156 863.969 680.901C863.164 680.645 862.278 680.517 861.312 680.517C859.674 680.517 858.197 680.938 856.881 681.781C855.564 682.624 854.523 683.86 853.756 685.489C852.998 687.108 852.619 689.092 852.619 691.44C852.619 693.798 853.003 695.792 853.77 697.42C854.537 699.049 855.588 700.285 856.923 701.128C858.259 701.971 859.778 702.392 861.483 702.392C863.064 702.392 864.442 702.07 865.616 701.426C866.8 700.782 867.714 699.873 868.358 698.699C869.011 697.515 869.338 696.123 869.338 694.523L870.474 694.736H862.151V691.114H873.585V694.423C873.585 696.866 873.064 698.988 872.023 700.787C870.991 702.577 869.561 703.959 867.733 704.935C865.915 705.91 863.831 706.398 861.483 706.398C858.85 706.398 856.54 705.792 854.551 704.58C852.572 703.367 851.028 701.649 849.92 699.423C848.813 697.188 848.259 694.537 848.259 691.469C848.259 689.149 848.58 687.065 849.224 685.219C849.868 683.372 850.773 681.805 851.938 680.517C853.112 679.22 854.49 678.23 856.071 677.548C857.662 676.857 859.4 676.511 861.284 676.511C862.856 676.511 864.319 676.743 865.673 677.207C867.037 677.671 868.249 678.33 869.31 679.182C870.38 680.034 871.265 681.047 871.966 682.222C872.667 683.386 873.14 684.679 873.386 686.099H868.884Z" fill="#CDCDCD"/>
<path d="M1002.2 706V676.909H1020.24V680.688H1006.59V689.551H1018.94V693.315H1006.59V706H1002.2Z" fill="#CDCDCD"/>
<path d="M87.2727 542.909V636H73.1818V557H72.6364L50.3636 571.545V558.091L73.5909 542.909H87.2727ZM178.25 617.818V606.455L218.477 542.909H227.432V559.636H221.75L192.977 605.182V605.909H248.114V617.818H178.25ZM222.386 636V614.364L222.477 609.182V542.909H235.795V636H222.386ZM364.205 637.273C360.053 637.212 355.962 636.455 351.932 635C347.932 633.545 344.295 631.121 341.023 627.727C337.75 624.333 335.129 619.773 333.159 614.045C331.22 608.318 330.25 601.167 330.25 592.591C330.25 584.47 331.053 577.258 332.659 570.955C334.295 564.652 336.644 559.333 339.705 555C342.765 550.636 346.462 547.318 350.795 545.045C355.129 542.773 359.992 541.636 365.386 541.636C370.932 541.636 375.856 542.727 380.159 544.909C384.462 547.091 387.947 550.106 390.614 553.955C393.311 557.803 395.023 562.182 395.75 567.091H381.886C380.947 563.212 379.083 560.045 376.295 557.591C373.508 555.136 369.871 553.909 365.386 553.909C358.568 553.909 353.25 556.879 349.432 562.818C345.644 568.758 343.735 577.015 343.705 587.591H344.386C345.992 584.955 347.962 582.712 350.295 580.864C352.659 578.985 355.295 577.545 358.205 576.545C361.144 575.515 364.235 575 367.477 575C372.871 575 377.75 576.318 382.114 578.955C386.508 581.561 390.008 585.167 392.614 589.773C395.22 594.379 396.523 599.652 396.523 605.591C396.523 611.53 395.174 616.909 392.477 621.727C389.811 626.545 386.053 630.364 381.205 633.182C376.356 635.97 370.689 637.333 364.205 637.273ZM364.159 625.455C367.735 625.455 370.932 624.576 373.75 622.818C376.568 621.061 378.795 618.697 380.432 615.727C382.068 612.758 382.886 609.439 382.886 605.773C382.886 602.197 382.083 598.939 380.477 596C378.902 593.061 376.72 590.727 373.932 589C371.174 587.273 368.023 586.409 364.477 586.409C361.78 586.409 359.28 586.924 356.977 587.955C354.705 588.985 352.705 590.409 350.977 592.227C349.25 594.045 347.886 596.136 346.886 598.5C345.917 600.833 345.432 603.303 345.432 605.909C345.432 609.394 346.235 612.621 347.841 615.591C349.477 618.561 351.705 620.955 354.523 622.773C357.371 624.561 360.583 625.455 364.159 625.455ZM478.875 617.818V606.455L519.102 542.909H528.057V559.636H522.375L493.602 605.182V605.909H548.739V617.818H478.875ZM523.011 636V614.364L523.102 609.182V542.909H536.42V636H523.011Z" fill="#00E494"/>
<path d="M82.358 688.369H77.9261C77.7557 687.422 77.4384 686.589 76.9744 685.869C76.5104 685.15 75.9422 684.539 75.2699 684.037C74.5975 683.535 73.8447 683.156 73.0114 682.901C72.1875 682.645 71.3116 682.517 70.3835 682.517C68.7074 682.517 67.2064 682.938 65.8807 683.781C64.5644 684.624 63.5227 685.86 62.7557 687.489C61.9981 689.117 61.6193 691.106 61.6193 693.455C61.6193 695.822 61.9981 697.82 62.7557 699.449C63.5227 701.078 64.5691 702.309 65.8949 703.142C67.2206 703.975 68.7121 704.392 70.3693 704.392C71.2879 704.392 72.1591 704.269 72.983 704.023C73.8163 703.767 74.5691 703.393 75.2415 702.901C75.9138 702.408 76.482 701.807 76.946 701.097C77.4195 700.377 77.7462 699.553 77.9261 698.625L82.358 698.639C82.1212 700.069 81.6619 701.385 80.9801 702.588C80.3078 703.781 79.4413 704.813 78.3807 705.685C77.3295 706.546 76.1269 707.214 74.7727 707.688C73.4186 708.161 71.9413 708.398 70.3409 708.398C67.822 708.398 65.5777 707.801 63.608 706.608C61.6383 705.405 60.0852 703.687 58.9489 701.452C57.822 699.217 57.2585 696.551 57.2585 693.455C57.2585 690.348 57.8267 687.683 58.9631 685.457C60.0994 683.223 61.6525 681.509 63.6222 680.315C65.5919 679.113 67.8314 678.511 70.3409 678.511C71.8845 678.511 73.3239 678.734 74.6591 679.179C76.0038 679.615 77.2112 680.259 78.2812 681.111C79.3513 681.954 80.2367 682.986 80.9375 684.207C81.6383 685.42 82.1117 686.807 82.358 688.369Z" fill="#CDCDCD"/>
<path d="M205.196 708V678.909H223.236V682.688H209.585V691.551H221.943V695.315H209.585V708H205.196Z" fill="#CDCDCD"/>
<path d="M353.653 708H348.994L359.463 678.909H364.534L375.003 708H370.344L362.119 684.193H361.892L353.653 708ZM354.435 696.608H369.548V700.301H354.435V696.608Z" fill="#CDCDCD"/>
<path d="M499.196 708V678.909H517.236V682.688H503.585V691.551H515.943V695.315H503.585V708H499.196Z" fill="#CDCDCD"/>
<path d="M2659 271.818V260.455L2699.23 196.909H2708.18V213.636H2702.5L2673.73 259.182V259.909H2728.86V271.818H2659ZM2703.14 290V268.364L2703.23 263.182V196.909H2716.55V290H2703.14ZM2847.77 196.909V290H2833.68V211H2833.14L2810.86 225.545V212.091L2834.09 196.909H2847.77ZM2971.43 291.273C2965.73 291.273 2960.61 290.182 2956.07 288C2951.55 285.788 2947.95 282.758 2945.25 278.909C2942.55 275.061 2941.11 270.667 2940.93 265.727H2954.57C2954.9 269.727 2956.67 273.015 2959.89 275.591C2963.1 278.167 2966.95 279.455 2971.43 279.455C2975.01 279.455 2978.17 278.636 2980.93 277C2983.72 275.333 2985.9 273.045 2987.48 270.136C2989.08 267.227 2989.89 263.909 2989.89 260.182C2989.89 256.394 2989.07 253.015 2987.43 250.045C2985.8 247.076 2983.54 244.742 2980.66 243.045C2977.81 241.348 2974.54 240.485 2970.84 240.455C2968.02 240.455 2965.19 240.939 2962.34 241.909C2959.49 242.879 2957.19 244.152 2955.43 245.727L2942.57 243.818L2947.8 196.909H2998.98V208.955H2959.48L2956.52 235H2957.07C2958.89 233.242 2961.3 231.773 2964.3 230.591C2967.33 229.409 2970.57 228.818 2974.02 228.818C2979.69 228.818 2984.73 230.167 2989.16 232.864C2993.61 235.561 2997.11 239.242 2999.66 243.909C3002.23 248.545 3003.51 253.879 3003.48 259.909C3003.51 265.939 3002.14 271.318 2999.39 276.045C2996.66 280.773 2992.87 284.5 2988.02 287.227C2983.2 289.924 2977.67 291.273 2971.43 291.273ZM3120.33 291.273C3116.18 291.212 3112.09 290.455 3108.06 289C3104.06 287.545 3100.42 285.121 3097.15 281.727C3093.88 278.333 3091.25 273.773 3089.28 268.045C3087.34 262.318 3086.38 255.167 3086.38 246.591C3086.38 238.47 3087.18 231.258 3088.78 224.955C3090.42 218.652 3092.77 213.333 3095.83 209C3098.89 204.636 3102.59 201.318 3106.92 199.045C3111.25 196.773 3116.12 195.636 3121.51 195.636C3127.06 195.636 3131.98 196.727 3136.28 198.909C3140.59 201.091 3144.07 204.106 3146.74 207.955C3149.44 211.803 3151.15 216.182 3151.88 221.091H3138.01C3137.07 217.212 3135.21 214.045 3132.42 211.591C3129.63 209.136 3126 207.909 3121.51 207.909C3114.69 207.909 3109.38 210.879 3105.56 216.818C3101.77 222.758 3099.86 231.015 3099.83 241.591H3100.51C3102.12 238.955 3104.09 236.712 3106.42 234.864C3108.78 232.985 3111.42 231.545 3114.33 230.545C3117.27 229.515 3120.36 229 3123.6 229C3129 229 3133.88 230.318 3138.24 232.955C3142.63 235.561 3146.13 239.167 3148.74 243.773C3151.34 248.379 3152.65 253.652 3152.65 259.591C3152.65 265.53 3151.3 270.909 3148.6 275.727C3145.94 280.545 3142.18 284.364 3137.33 287.182C3132.48 289.97 3126.81 291.333 3120.33 291.273ZM3120.28 279.455C3123.86 279.455 3127.06 278.576 3129.88 276.818C3132.69 275.061 3134.92 272.697 3136.56 269.727C3138.19 266.758 3139.01 263.439 3139.01 259.773C3139.01 256.197 3138.21 252.939 3136.6 250C3135.03 247.061 3132.84 244.727 3130.06 243C3127.3 241.273 3124.15 240.409 3120.6 240.409C3117.91 240.409 3115.41 240.924 3113.1 241.955C3110.83 242.985 3108.83 244.409 3107.1 246.227C3105.38 248.045 3104.01 250.136 3103.01 252.5C3102.04 254.833 3101.56 257.303 3101.56 259.909C3101.56 263.394 3102.36 266.621 3103.97 269.591C3105.6 272.561 3107.83 274.955 3110.65 276.773C3113.5 278.561 3116.71 279.455 3120.28 279.455Z" fill="#00E494"/>
<path d="M2680.2 363V333.909H2698.24V337.688H2684.59V346.551H2696.94V350.315H2684.59V363H2680.2Z" fill="#CDCDCD"/>
<path d="M2841.36 343.369H2836.93C2836.76 342.422 2836.44 341.589 2835.97 340.869C2835.51 340.15 2834.94 339.539 2834.27 339.037C2833.6 338.535 2832.84 338.156 2832.01 337.901C2831.19 337.645 2830.31 337.517 2829.38 337.517C2827.71 337.517 2826.21 337.938 2824.88 338.781C2823.56 339.624 2822.52 340.86 2821.76 342.489C2821 344.117 2820.62 346.106 2820.62 348.455C2820.62 350.822 2821 352.82 2821.76 354.449C2822.52 356.078 2823.57 357.309 2824.89 358.142C2826.22 358.975 2827.71 359.392 2829.37 359.392C2830.29 359.392 2831.16 359.269 2831.98 359.023C2832.82 358.767 2833.57 358.393 2834.24 357.901C2834.91 357.408 2835.48 356.807 2835.95 356.097C2836.42 355.377 2836.75 354.553 2836.93 353.625L2841.36 353.639C2841.12 355.069 2840.66 356.385 2839.98 357.588C2839.31 358.781 2838.44 359.813 2837.38 360.685C2836.33 361.546 2835.13 362.214 2833.77 362.688C2832.42 363.161 2830.94 363.398 2829.34 363.398C2826.82 363.398 2824.58 362.801 2822.61 361.608C2820.64 360.405 2819.09 358.687 2817.95 356.452C2816.82 354.217 2816.26 351.551 2816.26 348.455C2816.26 345.348 2816.83 342.683 2817.96 340.457C2819.1 338.223 2820.65 336.509 2822.62 335.315C2824.59 334.113 2826.83 333.511 2829.34 333.511C2830.88 333.511 2832.32 333.734 2833.66 334.179C2835 334.615 2836.21 335.259 2837.28 336.111C2838.35 336.954 2839.24 337.986 2839.94 339.207C2840.64 340.42 2841.11 341.807 2841.36 343.369Z" fill="#CDCDCD"/>
<path d="M2975.88 343.099C2975.61 342.238 2975.24 341.466 2974.78 340.784C2974.32 340.093 2973.78 339.506 2973.14 339.023C2972.51 338.53 2971.78 338.156 2970.97 337.901C2970.16 337.645 2969.28 337.517 2968.31 337.517C2966.67 337.517 2965.2 337.938 2963.88 338.781C2962.56 339.624 2961.52 340.86 2960.76 342.489C2960 344.108 2959.62 346.092 2959.62 348.44C2959.62 350.798 2960 352.792 2960.77 354.42C2961.54 356.049 2962.59 357.285 2963.92 358.128C2965.26 358.971 2966.78 359.392 2968.48 359.392C2970.06 359.392 2971.44 359.07 2972.62 358.426C2973.8 357.782 2974.71 356.873 2975.36 355.699C2976.01 354.515 2976.34 353.123 2976.34 351.523L2977.47 351.736H2969.15V348.114H2980.59V351.423C2980.59 353.866 2980.06 355.988 2979.02 357.787C2977.99 359.577 2976.56 360.959 2974.73 361.935C2972.91 362.91 2970.83 363.398 2968.48 363.398C2965.85 363.398 2963.54 362.792 2961.55 361.58C2959.57 360.367 2958.03 358.649 2956.92 356.423C2955.81 354.188 2955.26 351.537 2955.26 348.469C2955.26 346.149 2955.58 344.065 2956.22 342.219C2956.87 340.372 2957.77 338.805 2958.94 337.517C2960.11 336.22 2961.49 335.23 2963.07 334.548C2964.66 333.857 2966.4 333.511 2968.28 333.511C2969.86 333.511 2971.32 333.743 2972.67 334.207C2974.04 334.671 2975.25 335.33 2976.31 336.182C2977.38 337.034 2978.27 338.047 2978.97 339.222C2979.67 340.386 2980.14 341.679 2980.39 343.099H2975.88Z" fill="#CDCDCD"/>
<path d="M3108.65 363H3103.99L3114.46 333.909H3119.53L3130 363H3125.34L3117.12 339.193H3116.89L3108.65 363ZM3109.43 351.608H3124.55V355.301H3109.43V351.608Z" fill="#CDCDCD"/>
<path d="M2040.45 291.273C2036.3 291.212 2032.21 290.455 2028.18 289C2024.18 287.545 2020.55 285.121 2017.27 281.727C2014 278.333 2011.38 273.773 2009.41 268.045C2007.47 262.318 2006.5 255.167 2006.5 246.591C2006.5 238.47 2007.3 231.258 2008.91 224.955C2010.55 218.652 2012.89 213.333 2015.95 209C2019.02 204.636 2022.71 201.318 2027.05 199.045C2031.38 196.773 2036.24 195.636 2041.64 195.636C2047.18 195.636 2052.11 196.727 2056.41 198.909C2060.71 201.091 2064.2 204.106 2066.86 207.955C2069.56 211.803 2071.27 216.182 2072 221.091H2058.14C2057.2 217.212 2055.33 214.045 2052.55 211.591C2049.76 209.136 2046.12 207.909 2041.64 207.909C2034.82 207.909 2029.5 210.879 2025.68 216.818C2021.89 222.758 2019.98 231.015 2019.95 241.591H2020.64C2022.24 238.955 2024.21 236.712 2026.55 234.864C2028.91 232.985 2031.55 231.545 2034.45 230.545C2037.39 229.515 2040.48 229 2043.73 229C2049.12 229 2054 230.318 2058.36 232.955C2062.76 235.561 2066.26 239.167 2068.86 243.773C2071.47 248.379 2072.77 253.652 2072.77 259.591C2072.77 265.53 2071.42 270.909 2068.73 275.727C2066.06 280.545 2062.3 284.364 2057.45 287.182C2052.61 289.97 2046.94 291.333 2040.45 291.273ZM2040.41 279.455C2043.98 279.455 2047.18 278.576 2050 276.818C2052.82 275.061 2055.05 272.697 2056.68 269.727C2058.32 266.758 2059.14 263.439 2059.14 259.773C2059.14 256.197 2058.33 252.939 2056.73 250C2055.15 247.061 2052.97 244.727 2050.18 243C2047.42 241.273 2044.27 240.409 2040.73 240.409C2038.03 240.409 2035.53 240.924 2033.23 241.955C2030.95 242.985 2028.95 244.409 2027.23 246.227C2025.5 248.045 2024.14 250.136 2023.14 252.5C2022.17 254.833 2021.68 257.303 2021.68 259.909C2021.68 263.394 2022.48 266.621 2024.09 269.591C2025.73 272.561 2027.95 274.955 2030.77 276.773C2033.62 278.561 2036.83 279.455 2040.41 279.455ZM2155.12 271.818V260.455L2195.35 196.909H2204.31V213.636H2198.62L2169.85 259.182V259.909H2224.99V271.818H2155.12ZM2199.26 290V268.364L2199.35 263.182V196.909H2212.67V290H2199.26ZM2343.9 196.909V290H2329.81V211H2329.26L2306.99 225.545V212.091L2330.22 196.909H2343.9ZM2467.56 291.273C2461.86 291.273 2456.74 290.182 2452.19 288C2447.68 285.788 2444.07 282.758 2441.38 278.909C2438.68 275.061 2437.24 270.667 2437.06 265.727H2450.69C2451.03 269.727 2452.8 273.015 2456.01 275.591C2459.22 278.167 2463.07 279.455 2467.56 279.455C2471.13 279.455 2474.3 278.636 2477.06 277C2479.84 275.333 2482.03 273.045 2483.6 270.136C2485.21 267.227 2486.01 263.909 2486.01 260.182C2486.01 256.394 2485.19 253.015 2483.56 250.045C2481.92 247.076 2479.66 244.742 2476.78 243.045C2473.94 241.348 2470.66 240.485 2466.97 240.455C2464.15 240.455 2461.31 240.939 2458.47 241.909C2455.62 242.879 2453.31 244.152 2451.56 245.727L2438.69 243.818L2443.92 196.909H2495.1V208.955H2455.6L2452.65 235H2453.19C2455.01 233.242 2457.42 231.773 2460.42 230.591C2463.45 229.409 2466.69 228.818 2470.15 228.818C2475.81 228.818 2480.86 230.167 2485.28 232.864C2489.74 235.561 2493.24 239.242 2495.78 243.909C2498.36 248.545 2499.63 253.879 2499.6 259.909C2499.63 265.939 2498.27 271.318 2495.51 276.045C2492.78 280.773 2489 284.5 2484.15 287.227C2479.33 289.924 2473.8 291.273 2467.56 291.273Z" fill="#00E494"/>
<path d="M2031.65 360H2026.99L2037.46 330.909H2042.53L2053 360H2048.34L2040.12 336.193H2039.89L2031.65 360ZM2032.43 348.608H2047.55V352.301H2032.43V348.608Z" fill="#CDCDCD"/>
<path d="M2178.2 360V330.909H2196.24V334.688H2182.59V343.551H2194.94V347.315H2182.59V360H2178.2Z" fill="#CDCDCD"/>
<path d="M2347.36 340.369H2342.93C2342.76 339.422 2342.44 338.589 2341.97 337.869C2341.51 337.15 2340.94 336.539 2340.27 336.037C2339.6 335.535 2338.84 335.156 2338.01 334.901C2337.19 334.645 2336.31 334.517 2335.38 334.517C2333.71 334.517 2332.21 334.938 2330.88 335.781C2329.56 336.624 2328.52 337.86 2327.76 339.489C2327 341.117 2326.62 343.106 2326.62 345.455C2326.62 347.822 2327 349.82 2327.76 351.449C2328.52 353.078 2329.57 354.309 2330.89 355.142C2332.22 355.975 2333.71 356.392 2335.37 356.392C2336.29 356.392 2337.16 356.269 2337.98 356.023C2338.82 355.767 2339.57 355.393 2340.24 354.901C2340.91 354.408 2341.48 353.807 2341.95 353.097C2342.42 352.377 2342.75 351.553 2342.93 350.625L2347.36 350.639C2347.12 352.069 2346.66 353.385 2345.98 354.588C2345.31 355.781 2344.44 356.813 2343.38 357.685C2342.33 358.546 2341.13 359.214 2339.77 359.688C2338.42 360.161 2336.94 360.398 2335.34 360.398C2332.82 360.398 2330.58 359.801 2328.61 358.608C2326.64 357.405 2325.09 355.687 2323.95 353.452C2322.82 351.217 2322.26 348.551 2322.26 345.455C2322.26 342.348 2322.83 339.683 2323.96 337.457C2325.1 335.223 2326.65 333.509 2328.62 332.315C2330.59 331.113 2332.83 330.511 2335.34 330.511C2336.88 330.511 2338.32 330.734 2339.66 331.179C2341 331.615 2342.21 332.259 2343.28 333.111C2344.35 333.954 2345.24 334.986 2345.94 336.207C2346.64 337.42 2347.11 338.807 2347.36 340.369Z" fill="#CDCDCD"/>
<path d="M2475.88 340.099C2475.61 339.238 2475.24 338.466 2474.78 337.784C2474.32 337.093 2473.78 336.506 2473.14 336.023C2472.51 335.53 2471.78 335.156 2470.97 334.901C2470.16 334.645 2469.28 334.517 2468.31 334.517C2466.67 334.517 2465.2 334.938 2463.88 335.781C2462.56 336.624 2461.52 337.86 2460.76 339.489C2460 341.108 2459.62 343.092 2459.62 345.44C2459.62 347.798 2460 349.792 2460.77 351.42C2461.54 353.049 2462.59 354.285 2463.92 355.128C2465.26 355.971 2466.78 356.392 2468.48 356.392C2470.06 356.392 2471.44 356.07 2472.62 355.426C2473.8 354.782 2474.71 353.873 2475.36 352.699C2476.01 351.515 2476.34 350.123 2476.34 348.523L2477.47 348.736H2469.15V345.114H2480.59V348.423C2480.59 350.866 2480.06 352.988 2479.02 354.787C2477.99 356.577 2476.56 357.959 2474.73 358.935C2472.91 359.91 2470.83 360.398 2468.48 360.398C2465.85 360.398 2463.54 359.792 2461.55 358.58C2459.57 357.367 2458.03 355.649 2456.92 353.423C2455.81 351.188 2455.26 348.537 2455.26 345.469C2455.26 343.149 2455.58 341.065 2456.22 339.219C2456.87 337.372 2457.77 335.805 2458.94 334.517C2460.11 333.22 2461.49 332.23 2463.07 331.548C2464.66 330.857 2466.4 330.511 2468.28 330.511C2469.86 330.511 2471.32 330.743 2472.67 331.207C2474.04 331.671 2475.25 332.33 2476.31 333.182C2477.38 334.034 2478.27 335.047 2478.97 336.222C2479.67 337.386 2480.14 338.679 2480.39 340.099H2475.88Z" fill="#CDCDCD"/>
<path d="M1390.27 196.909V290H1376.18V211H1375.64L1353.36 225.545V212.091L1376.59 196.909H1390.27ZM1515.7 291.273C1511.55 291.212 1507.46 290.455 1503.43 289C1499.43 287.545 1495.8 285.121 1492.52 281.727C1489.25 278.333 1486.63 273.773 1484.66 268.045C1482.72 262.318 1481.75 255.167 1481.75 246.591C1481.75 238.47 1482.55 231.258 1484.16 224.955C1485.8 218.652 1488.14 213.333 1491.2 209C1494.27 204.636 1497.96 201.318 1502.3 199.045C1506.63 196.773 1511.49 195.636 1516.89 195.636C1522.43 195.636 1527.36 196.727 1531.66 198.909C1535.96 201.091 1539.45 204.106 1542.11 207.955C1544.81 211.803 1546.52 216.182 1547.25 221.091H1533.39C1532.45 217.212 1530.58 214.045 1527.8 211.591C1525.01 209.136 1521.37 207.909 1516.89 207.909C1510.07 207.909 1504.75 210.879 1500.93 216.818C1497.14 222.758 1495.23 231.015 1495.2 241.591H1495.89C1497.49 238.955 1499.46 236.712 1501.8 234.864C1504.16 232.985 1506.8 231.545 1509.7 230.545C1512.64 229.515 1515.73 229 1518.98 229C1524.37 229 1529.25 230.318 1533.61 232.955C1538.01 235.561 1541.51 239.167 1544.11 243.773C1546.72 248.379 1548.02 253.652 1548.02 259.591C1548.02 265.53 1546.67 270.909 1543.98 275.727C1541.31 280.545 1537.55 284.364 1532.7 287.182C1527.86 289.97 1522.19 291.333 1515.7 291.273ZM1515.66 279.455C1519.23 279.455 1522.43 278.576 1525.25 276.818C1528.07 275.061 1530.3 272.697 1531.93 269.727C1533.57 266.758 1534.39 263.439 1534.39 259.773C1534.39 256.197 1533.58 252.939 1531.98 250C1530.4 247.061 1528.22 244.727 1525.43 243C1522.67 241.273 1519.52 240.409 1515.98 240.409C1513.28 240.409 1510.78 240.924 1508.48 241.955C1506.2 242.985 1504.2 244.409 1502.48 246.227C1500.75 248.045 1499.39 250.136 1498.39 252.5C1497.42 254.833 1496.93 257.303 1496.93 259.909C1496.93 263.394 1497.73 266.621 1499.34 269.591C1500.98 272.561 1503.2 274.955 1506.02 276.773C1508.87 278.561 1512.08 279.455 1515.66 279.455ZM1630.38 271.818V260.455L1670.6 196.909H1679.56V213.636H1673.88L1645.1 259.182V259.909H1700.24V271.818H1630.38ZM1674.51 290V268.364L1674.6 263.182V196.909H1687.92V290H1674.51ZM1814.56 291.273C1808.86 291.273 1803.74 290.182 1799.19 288C1794.68 285.788 1791.07 282.758 1788.38 278.909C1785.68 275.061 1784.24 270.667 1784.06 265.727H1797.69C1798.03 269.727 1799.8 273.015 1803.01 275.591C1806.22 278.167 1810.07 279.455 1814.56 279.455C1818.13 279.455 1821.3 278.636 1824.06 277C1826.84 275.333 1829.03 273.045 1830.6 270.136C1832.21 267.227 1833.01 263.909 1833.01 260.182C1833.01 256.394 1832.19 253.015 1830.56 250.045C1828.92 247.076 1826.66 244.742 1823.78 243.045C1820.94 241.348 1817.66 240.485 1813.97 240.455C1811.15 240.455 1808.31 240.939 1805.47 241.909C1802.62 242.879 1800.31 244.152 1798.56 245.727L1785.69 243.818L1790.92 196.909H1842.1V208.955H1802.6L1799.65 235H1800.19C1802.01 233.242 1804.42 231.773 1807.42 230.591C1810.45 229.409 1813.69 228.818 1817.15 228.818C1822.81 228.818 1827.86 230.167 1832.28 232.864C1836.74 235.561 1840.24 239.242 1842.78 243.909C1845.36 248.545 1846.63 253.879 1846.6 259.909C1846.63 265.939 1845.27 271.318 1842.51 276.045C1839.78 280.773 1836 284.5 1831.15 287.227C1826.33 289.924 1820.8 291.273 1814.56 291.273Z" fill="#00E494"/>
<path d="M1391.36 340.369H1386.93C1386.76 339.422 1386.44 338.589 1385.97 337.869C1385.51 337.15 1384.94 336.539 1384.27 336.037C1383.6 335.535 1382.84 335.156 1382.01 334.901C1381.19 334.645 1380.31 334.517 1379.38 334.517C1377.71 334.517 1376.21 334.938 1374.88 335.781C1373.56 336.624 1372.52 337.86 1371.76 339.489C1371 341.117 1370.62 343.106 1370.62 345.455C1370.62 347.822 1371 349.82 1371.76 351.449C1372.52 353.078 1373.57 354.309 1374.89 355.142C1376.22 355.975 1377.71 356.392 1379.37 356.392C1380.29 356.392 1381.16 356.269 1381.98 356.023C1382.82 355.767 1383.57 355.393 1384.24 354.901C1384.91 354.408 1385.48 353.807 1385.95 353.097C1386.42 352.377 1386.75 351.553 1386.93 350.625L1391.36 350.639C1391.12 352.069 1390.66 353.385 1389.98 354.588C1389.31 355.781 1388.44 356.813 1387.38 357.685C1386.33 358.546 1385.13 359.214 1383.77 359.688C1382.42 360.161 1380.94 360.398 1379.34 360.398C1376.82 360.398 1374.58 359.801 1372.61 358.608C1370.64 357.405 1369.09 355.687 1367.95 353.452C1366.82 351.217 1366.26 348.551 1366.26 345.455C1366.26 342.348 1366.83 339.683 1367.96 337.457C1369.1 335.223 1370.65 333.509 1372.62 332.315C1374.59 331.113 1376.83 330.511 1379.34 330.511C1380.88 330.511 1382.32 330.734 1383.66 331.179C1385 331.615 1386.21 332.259 1387.28 333.111C1388.35 333.954 1389.24 334.986 1389.94 336.207C1390.64 337.42 1391.11 338.807 1391.36 340.369Z" fill="#CDCDCD"/>
<path d="M1508.65 360H1503.99L1514.46 330.909H1519.53L1530 360H1525.34L1517.12 336.193H1516.89L1508.65 360ZM1509.43 348.608H1524.55V352.301H1509.43V348.608Z" fill="#CDCDCD"/>
<path d="M1657.2 360V330.909H1675.24V334.688H1661.59V343.551H1673.94V347.315H1661.59V360H1657.2Z" fill="#CDCDCD"/>
<path d="M1823.88 340.099C1823.61 339.238 1823.24 338.466 1822.78 337.784C1822.32 337.093 1821.78 336.506 1821.14 336.023C1820.51 335.53 1819.78 335.156 1818.97 334.901C1818.16 334.645 1817.28 334.517 1816.31 334.517C1814.67 334.517 1813.2 334.938 1811.88 335.781C1810.56 336.624 1809.52 337.86 1808.76 339.489C1808 341.108 1807.62 343.092 1807.62 345.44C1807.62 347.798 1808 349.792 1808.77 351.42C1809.54 353.049 1810.59 354.285 1811.92 355.128C1813.26 355.971 1814.78 356.392 1816.48 356.392C1818.06 356.392 1819.44 356.07 1820.62 355.426C1821.8 354.782 1822.71 353.873 1823.36 352.699C1824.01 351.515 1824.34 350.123 1824.34 348.523L1825.47 348.736H1817.15V345.114H1828.59V348.423C1828.59 350.866 1828.06 352.988 1827.02 354.787C1825.99 356.577 1824.56 357.959 1822.73 358.935C1820.91 359.91 1818.83 360.398 1816.48 360.398C1813.85 360.398 1811.54 359.792 1809.55 358.58C1807.57 357.367 1806.03 355.649 1804.92 353.423C1803.81 351.188 1803.26 348.537 1803.26 345.469C1803.26 343.149 1803.58 341.065 1804.22 339.219C1804.87 337.372 1805.77 335.805 1806.94 334.517C1808.11 333.22 1809.49 332.23 1811.07 331.548C1812.66 330.857 1814.4 330.511 1816.28 330.511C1817.86 330.511 1819.32 330.743 1820.67 331.207C1822.04 331.671 1823.25 332.33 1824.31 333.182C1825.38 334.034 1826.27 335.047 1826.97 336.222C1827.67 337.386 1828.14 338.679 1828.39 340.099H1823.88Z" fill="#CDCDCD"/>
<path d="M740.273 196.909V290H726.182V211H725.636L703.364 225.545V212.091L726.591 196.909H740.273ZM863.932 291.273C858.235 291.273 853.114 290.182 848.568 288C844.053 285.788 840.447 282.758 837.75 278.909C835.053 275.061 833.614 270.667 833.432 265.727H847.068C847.402 269.727 849.174 273.015 852.386 275.591C855.598 278.167 859.447 279.455 863.932 279.455C867.508 279.455 870.674 278.636 873.432 277C876.22 275.333 878.402 273.045 879.977 270.136C881.583 267.227 882.386 263.909 882.386 260.182C882.386 256.394 881.568 253.015 879.932 250.045C878.295 247.076 876.038 244.742 873.159 243.045C870.311 241.348 867.038 240.485 863.341 240.455C860.523 240.455 857.689 240.939 854.841 241.909C851.992 242.879 849.689 244.152 847.932 245.727L835.068 243.818L840.295 196.909H891.477V208.955H851.977L849.023 235H849.568C851.386 233.242 853.795 231.773 856.795 230.591C859.826 229.409 863.068 228.818 866.523 228.818C872.189 228.818 877.235 230.167 881.659 232.864C886.114 235.561 889.614 239.242 892.159 243.909C894.735 248.545 896.008 253.879 895.977 259.909C896.008 265.939 894.644 271.318 891.886 276.045C889.159 280.773 885.371 284.5 880.523 287.227C875.705 289.924 870.174 291.273 863.932 291.273ZM980.33 290V279.818L1011.83 247.182C1015.19 243.636 1017.97 240.53 1020.15 237.864C1022.36 235.167 1024.01 232.606 1025.1 230.182C1026.19 227.758 1026.74 225.182 1026.74 222.455C1026.74 219.364 1026.01 216.697 1024.56 214.455C1023.1 212.182 1021.12 210.439 1018.6 209.227C1016.09 207.985 1013.25 207.364 1010.1 207.364C1006.77 207.364 1003.86 208.045 1001.38 209.409C998.89 210.773 996.981 212.697 995.648 215.182C994.314 217.667 993.648 220.576 993.648 223.909H980.239C980.239 218.242 981.542 213.288 984.148 209.045C986.754 204.803 990.33 201.515 994.875 199.182C999.42 196.818 1004.59 195.636 1010.38 195.636C1016.22 195.636 1021.38 196.803 1025.83 199.136C1030.31 201.439 1033.81 204.591 1036.33 208.591C1038.84 212.561 1040.1 217.045 1040.1 222.045C1040.1 225.5 1039.45 228.879 1038.15 232.182C1036.88 235.485 1034.65 239.167 1031.47 243.227C1028.28 247.258 1023.86 252.152 1018.19 257.909L999.693 277.273V277.955H1041.6V290H980.33ZM1124.62 271.818V260.455L1164.85 196.909H1173.81V213.636H1168.12L1139.35 259.182V259.909H1194.49V271.818H1124.62ZM1168.76 290V268.364L1168.85 263.182V196.909H1182.17V290H1168.76Z" fill="#00E494"/>
<path d="M742.358 340.369H737.926C737.756 339.422 737.438 338.589 736.974 337.869C736.51 337.15 735.942 336.539 735.27 336.037C734.598 335.535 733.845 335.156 733.011 334.901C732.188 334.645 731.312 334.517 730.384 334.517C728.707 334.517 727.206 334.938 725.881 335.781C724.564 336.624 723.523 337.86 722.756 339.489C721.998 341.117 721.619 343.106 721.619 345.455C721.619 347.822 721.998 349.82 722.756 351.449C723.523 353.078 724.569 354.309 725.895 355.142C727.221 355.975 728.712 356.392 730.369 356.392C731.288 356.392 732.159 356.269 732.983 356.023C733.816 355.767 734.569 355.393 735.241 354.901C735.914 354.408 736.482 353.807 736.946 353.097C737.42 352.377 737.746 351.553 737.926 350.625L742.358 350.639C742.121 352.069 741.662 353.385 740.98 354.588C740.308 355.781 739.441 356.813 738.381 357.685C737.33 358.546 736.127 359.214 734.773 359.688C733.419 360.161 731.941 360.398 730.341 360.398C727.822 360.398 725.578 359.801 723.608 358.608C721.638 357.405 720.085 355.687 718.949 353.452C717.822 351.217 717.259 348.551 717.259 345.455C717.259 342.348 717.827 339.683 718.963 337.457C720.099 335.223 721.652 333.509 723.622 332.315C725.592 331.113 727.831 330.511 730.341 330.511C731.884 330.511 733.324 330.734 734.659 331.179C736.004 331.615 737.211 332.259 738.281 333.111C739.351 333.954 740.237 334.986 740.938 336.207C741.638 337.42 742.112 338.807 742.358 340.369Z" fill="#CDCDCD"/>
<path d="M868.884 340.099C868.609 339.238 868.24 338.466 867.776 337.784C867.321 337.093 866.777 336.506 866.142 336.023C865.508 335.53 864.783 335.156 863.969 334.901C863.164 334.645 862.278 334.517 861.312 334.517C859.674 334.517 858.197 334.938 856.881 335.781C855.564 336.624 854.523 337.86 853.756 339.489C852.998 341.108 852.619 343.092 852.619 345.44C852.619 347.798 853.003 349.792 853.77 351.42C854.537 353.049 855.588 354.285 856.923 355.128C858.259 355.971 859.778 356.392 861.483 356.392C863.064 356.392 864.442 356.07 865.616 355.426C866.8 354.782 867.714 353.873 868.358 352.699C869.011 351.515 869.338 350.123 869.338 348.523L870.474 348.736H862.151V345.114H873.585V348.423C873.585 350.866 873.064 352.988 872.023 354.787C870.991 356.577 869.561 357.959 867.733 358.935C865.915 359.91 863.831 360.398 861.483 360.398C858.85 360.398 856.54 359.792 854.551 358.58C852.572 357.367 851.028 355.649 849.92 353.423C848.813 351.188 848.259 348.537 848.259 345.469C848.259 343.149 848.58 341.065 849.224 339.219C849.868 337.372 850.773 335.805 851.938 334.517C853.112 333.22 854.49 332.23 856.071 331.548C857.662 330.857 859.4 330.511 861.284 330.511C862.856 330.511 864.319 330.743 865.673 331.207C867.037 331.671 868.249 332.33 869.31 333.182C870.38 334.034 871.265 335.047 871.966 336.222C872.667 337.386 873.14 338.679 873.386 340.099H868.884Z" fill="#CDCDCD"/>
<path d="M1011.61 360H1002.2V330.909H1011.91C1014.76 330.909 1017.21 331.491 1019.26 332.656C1021.3 333.812 1022.87 335.473 1023.96 337.642C1025.06 339.801 1025.61 342.391 1025.61 345.412C1025.61 348.442 1025.05 351.046 1023.94 353.224C1022.84 355.402 1021.25 357.079 1019.17 358.253C1017.09 359.418 1014.57 360 1011.61 360ZM1006.59 356.165H1011.37C1013.59 356.165 1015.43 355.748 1016.9 354.915C1018.37 354.072 1019.46 352.855 1020.19 351.264C1020.92 349.664 1021.29 347.713 1021.29 345.412C1021.29 343.13 1020.92 341.193 1020.19 339.602C1019.47 338.011 1018.4 336.804 1016.97 335.98C1015.54 335.156 1013.76 334.744 1011.64 334.744H1006.59V356.165Z" fill="#CDCDCD"/>
<path d="M1149.2 360V330.909H1167.24V334.688H1153.59V343.551H1165.94V347.315H1153.59V360H1149.2Z" fill="#CDCDCD"/>
<path d="M87.358 340.369H82.9261C82.7557 339.422 82.4384 338.589 81.9744 337.869C81.5104 337.15 80.9422 336.539 80.2699 336.037C79.5975 335.535 78.8447 335.156 78.0114 334.901C77.1875 334.645 76.3116 334.517 75.3835 334.517C73.7074 334.517 72.2064 334.938 70.8807 335.781C69.5644 336.624 68.5227 337.86 67.7557 339.489C66.9981 341.117 66.6193 343.106 66.6193 345.455C66.6193 347.822 66.9981 349.82 67.7557 351.449C68.5227 353.078 69.5691 354.309 70.8949 355.142C72.2206 355.975 73.7121 356.392 75.3693 356.392C76.2879 356.392 77.1591 356.269 77.983 356.023C78.8163 355.767 79.5691 355.393 80.2415 354.901C80.9138 354.408 81.482 353.807 81.946 353.097C82.4195 352.377 82.7462 351.553 82.9261 350.625L87.358 350.639C87.1212 352.069 86.6619 353.385 85.9801 354.588C85.3078 355.781 84.4413 356.813 83.3807 357.685C82.3295 358.546 81.1269 359.214 79.7727 359.688C78.4186 360.161 76.9413 360.398 75.3409 360.398C72.822 360.398 70.5777 359.801 68.608 358.608C66.6383 357.405 65.0852 355.687 63.9489 353.452C62.822 351.217 62.2585 348.551 62.2585 345.455C62.2585 342.348 62.8267 339.683 63.9631 337.457C65.0994 335.223 66.6525 333.509 68.6222 332.315C70.5919 331.113 72.8314 330.511 75.3409 330.511C76.8845 330.511 78.3239 330.734 79.6591 331.179C81.0038 331.615 82.2112 332.259 83.2812 333.111C84.3513 333.954 85.2367 334.986 85.9375 336.207C86.6383 337.42 87.1117 338.807 87.358 340.369Z" fill="#CDCDCD"/>
<path d="M218.884 340.099C218.609 339.238 218.24 338.466 217.776 337.784C217.321 337.093 216.777 336.506 216.142 336.023C215.508 335.53 214.783 335.156 213.969 334.901C213.164 334.645 212.278 334.517 211.312 334.517C209.674 334.517 208.197 334.938 206.881 335.781C205.564 336.624 204.523 337.86 203.756 339.489C202.998 341.108 202.619 343.092 202.619 345.44C202.619 347.798 203.003 349.792 203.77 351.42C204.537 353.049 205.588 354.285 206.923 355.128C208.259 355.971 209.778 356.392 211.483 356.392C213.064 356.392 214.442 356.07 215.616 355.426C216.8 354.782 217.714 353.873 218.358 352.699C219.011 351.515 219.338 350.123 219.338 348.523L220.474 348.736H212.151V345.114H223.585V348.423C223.585 350.866 223.064 352.988 222.023 354.787C220.991 356.577 219.561 357.959 217.733 358.935C215.915 359.91 213.831 360.398 211.483 360.398C208.85 360.398 206.54 359.792 204.551 358.58C202.572 357.367 201.028 355.649 199.92 353.423C198.813 351.188 198.259 348.537 198.259 345.469C198.259 343.149 198.58 341.065 199.224 339.219C199.868 337.372 200.773 335.805 201.938 334.517C203.112 333.22 204.49 332.23 206.071 331.548C207.662 330.857 209.4 330.511 211.284 330.511C212.856 330.511 214.319 330.743 215.673 331.207C217.037 331.671 218.249 332.33 219.31 333.182C220.38 334.034 221.265 335.047 221.966 336.222C222.667 337.386 223.14 338.679 223.386 340.099H218.884Z" fill="#CDCDCD"/>
<path d="M349.653 360H344.994L355.463 330.909H360.534L371.003 360H366.344L358.119 336.193H357.892L349.653 360ZM350.435 348.608H365.548V352.301H350.435V348.608Z" fill="#CDCDCD"/>
<path d="M498.196 360V330.909H516.236V334.688H502.585V343.551H514.943V347.315H502.585V360H498.196Z" fill="#CDCDCD"/>
<path d="M87.2727 196.909V290H73.1818V211H72.6364L50.3636 225.545V212.091L73.5909 196.909H87.2727ZM210.932 291.273C205.235 291.273 200.114 290.182 195.568 288C191.053 285.788 187.447 282.758 184.75 278.909C182.053 275.061 180.614 270.667 180.432 265.727H194.068C194.402 269.727 196.174 273.015 199.386 275.591C202.598 278.167 206.447 279.455 210.932 279.455C214.508 279.455 217.674 278.636 220.432 277C223.22 275.333 225.402 273.045 226.977 270.136C228.583 267.227 229.386 263.909 229.386 260.182C229.386 256.394 228.568 253.015 226.932 250.045C225.295 247.076 223.038 244.742 220.159 243.045C217.311 241.348 214.038 240.485 210.341 240.455C207.523 240.455 204.689 240.939 201.841 241.909C198.992 242.879 196.689 244.152 194.932 245.727L182.068 243.818L187.295 196.909H238.477V208.955H198.977L196.023 235H196.568C198.386 233.242 200.795 231.773 203.795 230.591C206.826 229.409 210.068 228.818 213.523 228.818C219.189 228.818 224.235 230.167 228.659 232.864C233.114 235.561 236.614 239.242 239.159 243.909C241.735 248.545 243.008 253.879 242.977 259.909C243.008 265.939 241.644 271.318 238.886 276.045C236.159 280.773 232.371 284.5 227.523 287.227C222.705 289.924 217.174 291.273 210.932 291.273ZM359.83 291.273C355.678 291.212 351.587 290.455 347.557 289C343.557 287.545 339.92 285.121 336.648 281.727C333.375 278.333 330.754 273.773 328.784 268.045C326.845 262.318 325.875 255.167 325.875 246.591C325.875 238.47 326.678 231.258 328.284 224.955C329.92 218.652 332.269 213.333 335.33 209C338.39 204.636 342.087 201.318 346.42 199.045C350.754 196.773 355.617 195.636 361.011 195.636C366.557 195.636 371.481 196.727 375.784 198.909C380.087 201.091 383.572 204.106 386.239 207.955C388.936 211.803 390.648 216.182 391.375 221.091H377.511C376.572 217.212 374.708 214.045 371.92 211.591C369.133 209.136 365.496 207.909 361.011 207.909C354.193 207.909 348.875 210.879 345.057 216.818C341.269 222.758 339.36 231.015 339.33 241.591H340.011C341.617 238.955 343.587 236.712 345.92 234.864C348.284 232.985 350.92 231.545 353.83 230.545C356.769 229.515 359.86 229 363.102 229C368.496 229 373.375 230.318 377.739 232.955C382.133 235.561 385.633 239.167 388.239 243.773C390.845 248.379 392.148 253.652 392.148 259.591C392.148 265.53 390.799 270.909 388.102 275.727C385.436 280.545 381.678 284.364 376.83 287.182C371.981 289.97 366.314 291.333 359.83 291.273ZM359.784 279.455C363.36 279.455 366.557 278.576 369.375 276.818C372.193 275.061 374.42 272.697 376.057 269.727C377.693 266.758 378.511 263.439 378.511 259.773C378.511 256.197 377.708 252.939 376.102 250C374.527 247.061 372.345 244.727 369.557 243C366.799 241.273 363.648 240.409 360.102 240.409C357.405 240.409 354.905 240.924 352.602 241.955C350.33 242.985 348.33 244.409 346.602 246.227C344.875 248.045 343.511 250.136 342.511 252.5C341.542 254.833 341.057 257.303 341.057 259.909C341.057 263.394 341.86 266.621 343.466 269.591C345.102 272.561 347.33 274.955 350.148 276.773C352.996 278.561 356.208 279.455 359.784 279.455ZM474.5 271.818V260.455L514.727 196.909H523.682V213.636H518L489.227 259.182V259.909H544.364V271.818H474.5ZM518.636 290V268.364L518.727 263.182V196.909H532.045V290H518.636Z" fill="#00E494"/>
</svg>
