<svg width="1722" height="548" viewBox="0 0 1722 548" fill="none" xmlns="http://www.w3.org/2000/svg">
<path d="M7.04175 540.099V7.05981H1714.97V540.099H7.04175Z" stroke="#CDCDCD"/>
<path d="M1002.79 291.5H1003.29V291V219.5H1109.5V290.995V362.5H968.5V291.5H1002.79Z" stroke="#CDCDCD"/>
<path d="M185.5 112.5V42.5H255.5V112.5H185.5Z" stroke="#CDCDCD"/>
<path d="M255.5 112.5V42.5H326.5V112.5H255.5Z" stroke="#CDCDCD"/>
<path d="M326.5 112.5V42.5H397.5V112.5H326.5Z" stroke="#CDCDCD"/>
<path d="M397.5 112.5V42.5H468.5V112.5H397.5Z" stroke="#CDCDCD"/>
<path d="M505.486 112.868V42.6625H575.691V112.868H505.486Z" stroke="#CDCDCD"/>
<path d="M646.5 112.5V42.5H718.5V112.5H646.5Z" stroke="#CDCDCD"/>
<path d="M718.5 112.5V42.5H789.5V112.5H718.5Z" stroke="#CDCDCD"/>
<path d="M825.5 112.5V42.5H896.5V112.5H825.5Z" stroke="#CDCDCD"/>
<path d="M967.5 112.5V42.5H1038.5V112.5H967.5Z" stroke="#CDCDCD"/>
<path d="M1038.5 112.5V42.5H1109.5V112.5H1038.5Z" stroke="#CDCDCD"/>
<path d="M1146.5 112.5V42.5H1216.5V112.5H1146.5Z" stroke="#CDCDCD"/>
<path d="M1287.5 112.5V42.5H1358.5V112.5H1287.5Z" stroke="#CDCDCD"/>
<path d="M1146.5 220.5V149.5H1217.5V220.5H1146.5Z" stroke="#CDCDCD"/>
<path d="M1287.5 220.5V149.5H1358.5V220.5H1287.5Z" stroke="#CDCDCD"/>
<path d="M1146.5 290.5V220.5H1217.5V290.5H1146.5Z" stroke="#CDCDCD"/>
<path d="M1287.5 290.5V220.5H1358.5V290.5H1287.5Z" stroke="#CDCDCD"/>
<path d="M1146.5 504.5V434.5H1217.5V504.5H1146.5Z" stroke="#CDCDCD"/>
<path d="M1287.5 504.5V434.5H1358.5V504.5H1287.5Z" stroke="#CDCDCD"/>
<path d="M1537.5 220.5V149.5H1608.5V220.5H1537.5Z" stroke="#CDCDCD"/>
<path d="M1608.5 220.5V149.5H1679.5V220.5H1608.5Z" stroke="#CDCDCD"/>
<path d="M1395.5 291.5V220.5H1466.5V291.5H1395.5Z" stroke="#CDCDCD"/>
<path d="M1537.5 291.5V220.5H1608.5V291.5H1537.5Z" stroke="#CDCDCD"/>
<path d="M1608.5 363.5V220.5H1679.5V363.5H1608.5Z" stroke="#CDCDCD"/>
<path d="M1395.5 363.5V291.5H1466.5V363.5H1395.5Z" stroke="#CDCDCD"/>
<path d="M1537.5 363.5V291.5H1608.5V363.5H1537.5Z" stroke="#CDCDCD"/>
<path d="M1395.5 434.5V363.5H1466.5V434.5H1395.5Z" stroke="#CDCDCD"/>
<path d="M1537.5 434.5V363.5H1608.5V434.5H1537.5Z" stroke="#CDCDCD"/>
<path d="M1395.5 504.5V434.5H1537.5V504.5H1395.5Z" stroke="#CDCDCD"/>
<path d="M1537.5 504.5V434.5H1608.5V504.5H1537.5Z" stroke="#CDCDCD"/>
<path d="M1608.5 504.5V363.5H1679.5V504.5H1608.5Z" stroke="#CDCDCD"/>
<path d="M42.5 219.5V149.5H114.5V219.5H42.5Z" stroke="#CDCDCD"/>
<path d="M114.5 219.5V149.5H184.5V219.5H114.5Z" stroke="#CDCDCD"/>
<path d="M184.5 219.5V149.5H255.5V219.5H184.5Z" stroke="#CDCDCD"/>
<path d="M255.5 219.5V149.5H327.5V219.5H255.5Z" stroke="#CDCDCD"/>
<path d="M327.5 219.5V149.5H398.5V219.5H327.5Z" stroke="#CDCDCD"/>
<path d="M398.5 219.5V149.5H469.5V219.5H398.5Z" stroke="#CDCDCD"/>
<path d="M469.5 219.5V149.5H540.5V219.5H469.5Z" stroke="#CDCDCD"/>
<path d="M540.5 219.5V149.5H611.5V219.5H540.5Z" stroke="#CDCDCD"/>
<path d="M611.5 219.5V149.5H682.5V219.5H611.5Z" stroke="#CDCDCD"/>
<path d="M682.5 219.5V149.5H754.5V219.5H682.5Z" stroke="#CDCDCD"/>
<path d="M754.5 219.5V149.5H825.5V219.5H754.5Z" stroke="#CDCDCD"/>
<path d="M825.5 219.5V149.5H896.5V219.5H825.5Z" stroke="#CDCDCD"/>
<path d="M896.5 219.5V149.5H967.5V219.5H896.5Z" stroke="#CDCDCD"/>
<path d="M967.5 219.5V149.5H1039.5V219.5H967.5Z" stroke="#CDCDCD"/>
<path d="M1039.5 219.5V149.5H1109.5V219.5H1039.5Z" stroke="#CDCDCD"/>
<path d="M42.5 291.5V219.5H150.5V291.5H42.5Z" stroke="#CDCDCD"/>
<path d="M150.5 291.5V219.5H220.5V291.5H150.5Z" stroke="#CDCDCD"/>
<path d="M860.5 291.5V219.5H931.5V291.5H860.5Z" stroke="#CDCDCD"/>
<path d="M931.5 291.5V219.5H1003.5V291.5H931.5Z" stroke="#CDCDCD"/>
<path d="M42.5 362.5V291.5H184.5V362.5H42.5Z" stroke="#CDCDCD"/>
<path d="M824.5 362.5V291.5H896.5V362.5H824.5Z" stroke="#CDCDCD"/>
<path d="M896.5 362.5V291.5H968.5V362.5H896.5Z" stroke="#CDCDCD"/>
<path d="M220.5 434.5V362.5H290.5V434.5H220.5Z" stroke="#CDCDCD"/>
<path d="M290.5 434.5V362.5H362.5V434.5H290.5Z" stroke="#CDCDCD"/>
<path d="M362.5 434.5V362.5H434.5V434.5H362.5Z" stroke="#CDCDCD"/>
<path d="M434.5 434.5V362.5H504.5V434.5H434.5Z" stroke="#CDCDCD"/>
<path d="M504.5 434.5V362.5H575.5V434.5H504.5Z" stroke="#CDCDCD"/>
<path d="M575.5 434.5V362.5H647.5V434.5H575.5Z" stroke="#CDCDCD"/>
<path d="M647.5 434.5V362.5H719.5V434.5H647.5Z" stroke="#CDCDCD"/>
<path d="M719.5 434.5V362.5H790.5V434.5H719.5Z" stroke="#CDCDCD"/>
<path d="M790.5 434.5V362.5H861.5V434.5H790.5Z" stroke="#CDCDCD"/>
<path d="M861.5 434.5V362.5H931.5V434.5H861.5Z" stroke="#CDCDCD"/>
<path d="M931.5 434.5V362.5H1109.5V434.5H931.5Z" stroke="#CDCDCD"/>
<path d="M42.5 434.5V362.5H220.5V434.5H42.5Z" stroke="#CDCDCD"/>
<path d="M42.5 504.5V434.5H113.5V504.5H42.5Z" stroke="#CDCDCD"/>
<path d="M113.5 504.5V434.5H220.5V504.5H113.5Z" stroke="#CDCDCD"/>
<path d="M220.5 504.5V434.5H326.5V504.5H220.5Z" stroke="#CDCDCD"/>
<path d="M326.5 504.5V434.5H754.5V504.5H326.5Z" stroke="#CDCDCD"/>
<path d="M754.5 504.5V434.5H861.5V504.5H754.5Z" stroke="#CDCDCD"/>
<path d="M861.5 504.5V434.5H968.5V504.5H861.5Z" stroke="#CDCDCD"/>
<path d="M968.5 504.5V434.5H1109.5V504.5H968.5Z" stroke="#CDCDCD"/>
<path d="M42.6445 112.868V42.6625H112.85V112.868H42.6445Z" stroke="#CDCDCD"/>
<path d="M1216.5 112.5V42.5H1287.5V112.5H1216.5Z" stroke="#CDCDCD"/>
<path d="M1217.5 290.5V220.5H1287.5V290.5H1217.5Z" stroke="#CDCDCD"/>
<path d="M575.5 112.5V42.5H646.5V112.5H575.5Z" stroke="#CDCDCD"/>
<path d="M896.5 112.5V42.5H967.5V112.5H896.5Z" stroke="#CDCDCD"/>
<path d="M1217.5 504.5V434.5H1287.5V504.5H1217.5Z" stroke="#CDCDCD"/>
<path d="M1217.5 434.5V363.5H1287.5V434.5H1217.5Z" stroke="#CDCDCD"/>
<path d="M1466.5 434.5V363.5H1537.5V434.5H1466.5Z" stroke="#CDCDCD"/>
<path d="M1466.5 363.5V291.5H1537.5V363.5H1466.5Z" stroke="#CDCDCD"/>
<path d="M1466.5 291.5V220.5H1537.5V291.5H1466.5Z" stroke="#CDCDCD"/>
<path d="M1466.5 220.5V149.5H1537.5V220.5H1466.5Z" stroke="#CDCDCD"/>
<path d="M1395.5 220.5V149.5H1466.5V220.5H1395.5Z" stroke="#CDCDCD"/>
<path d="M1217.5 220.5V149.5H1287.5V220.5H1217.5Z" stroke="#CDCDCD"/>
<path d="M221.5 220.5H292.5V292.5H221.5V220.5Z" stroke="#00E494" stroke-width="3"/>
<path d="M362.5 291.5V219.5H433.5V291.5H362.5Z" stroke="#CDCDCD"/>
<path d="M646.5 291.5V219.5H718.5V291.5H646.5Z" stroke="#CDCDCD"/>
<path d="M434.5 220.5H505.5V292.5H434.5V220.5Z" stroke="#00E494" stroke-width="3"/>
<path d="M505.5 220.5H574.5V292.5H505.5V220.5Z" stroke="#00E494" stroke-width="3"/>
<path d="M574.5 220.5H645.5V292.5H574.5V220.5Z" stroke="#00E494" stroke-width="3"/>
<path d="M719.5 220.5H788.5V292.5H719.5V220.5Z" stroke="#00E494" stroke-width="3"/>
<path d="M788.5 220.5H859.5V292.5H788.5V220.5Z" stroke="#00E494" stroke-width="3"/>
<path d="M292.5 220.5H361.5V292.5H292.5V220.5Z" stroke="#00E494" stroke-width="3"/>
<path d="M185.5 292.5H254.5V361.5H185.5V292.5Z" stroke="#00E494" stroke-width="3"/>
<path d="M254.5 292.5H325.5V361.5H254.5V292.5Z" stroke="#00E494" stroke-width="3"/>
<path d="M325.5 292.5H399.5V361.5H325.5V292.5Z" stroke="#00E494" stroke-width="3"/>
<path d="M399.5 292.5H470.5V361.5H399.5V292.5Z" stroke="#00E494" stroke-width="3"/>
<path d="M470.5 292.5H539.5V361.5H470.5V292.5Z" stroke="#00E494" stroke-width="3"/>
<path d="M539.5 292.5H610.5V361.5H539.5V292.5Z" stroke="#00E494" stroke-width="3"/>
<path d="M610.5 292.5H681.5V361.5H610.5V292.5Z" stroke="#00E494" stroke-width="3"/>
<path d="M681.5 292.5H752.5V361.5H681.5V292.5Z" stroke="#00E494" stroke-width="3"/>
<path d="M752.5 292.5H823.5V361.5H752.5V292.5Z" stroke="#00E494" stroke-width="3"/>
<path d="M1395.55 112.868V42.6625H1679.37V112.868H1395.55Z" stroke="#CDCDCD"/>
<path d="M248.7 264.28L243.473 246.011H247.692L250.716 258.705H250.868L254.204 246.011H257.817L261.144 258.732H261.304L264.328 246.011H268.548L263.32 264.28H259.556L256.077 252.336H255.934L252.464 264.28H248.7ZM322.939 264.28V246.011H335.249V249.196H326.801V253.549H334.615V256.733H326.801V261.095H335.284V264.28H322.939ZM465.527 249.196V246.011H480.531V249.196H474.938V264.28H471.12V249.196H465.527ZM534.255 246.011H538.582L542.747 253.879H542.926L547.091 246.011H551.418L544.754 257.822V264.28H540.919V257.822L534.255 246.011ZM617.136 246.011H620.998V257.875C620.998 259.207 620.68 260.373 620.044 261.372C619.413 262.371 618.53 263.15 617.394 263.709C616.258 264.262 614.935 264.539 613.425 264.539C611.908 264.539 610.582 264.262 609.446 263.709C608.31 263.15 607.427 262.371 606.797 261.372C606.167 260.373 605.851 259.207 605.851 257.875V246.011H609.714V257.545C609.714 258.241 609.866 258.859 610.169 259.401C610.478 259.942 610.912 260.367 611.471 260.676C612.03 260.985 612.681 261.14 613.425 261.14C614.174 261.14 614.825 260.985 615.378 260.676C615.937 260.367 616.368 259.942 616.672 259.401C616.981 258.859 617.136 258.241 617.136 257.545V246.011ZM763.053 255.146C763.053 257.138 762.675 258.833 761.92 260.23C761.171 261.628 760.148 262.695 758.852 263.433C757.561 264.164 756.11 264.53 754.499 264.53C752.875 264.53 751.418 264.161 750.128 263.424C748.837 262.686 747.817 261.619 747.068 260.221C746.319 258.824 745.944 257.132 745.944 255.146C745.944 253.153 746.319 251.459 747.068 250.061C747.817 248.664 748.837 247.599 750.128 246.868C751.418 246.13 752.875 245.762 754.499 245.762C756.11 245.762 757.561 246.13 758.852 246.868C760.148 247.599 761.171 248.664 761.92 250.061C762.675 251.459 763.053 253.153 763.053 255.146ZM759.137 255.146C759.137 253.855 758.944 252.767 758.557 251.881C758.177 250.995 757.638 250.323 756.943 249.865C756.247 249.407 755.432 249.178 754.499 249.178C753.565 249.178 752.75 249.407 752.054 249.865C751.359 250.323 750.817 250.995 750.431 251.881C750.05 252.767 749.86 253.855 749.86 255.146C749.86 256.436 750.05 257.524 750.431 258.411C750.817 259.297 751.359 259.969 752.054 260.426C752.75 260.884 753.565 261.113 754.499 261.113C755.432 261.113 756.247 260.884 756.943 260.426C757.638 259.969 758.177 259.297 758.557 258.411C758.944 257.524 759.137 256.436 759.137 255.146ZM818.238 264.28V246.011H825.446C826.831 246.011 828.012 246.276 828.987 246.805C829.962 247.329 830.706 248.057 831.217 248.991C831.735 249.918 831.993 250.989 831.993 252.202C831.993 253.415 831.732 254.486 831.208 255.413C830.685 256.341 829.927 257.064 828.934 257.581C827.946 258.098 826.751 258.357 825.348 258.357H820.754V255.262H824.723C825.467 255.262 826.079 255.134 826.561 254.878C827.048 254.616 827.411 254.257 827.649 253.799C827.893 253.335 828.015 252.803 828.015 252.202C828.015 251.595 827.893 251.066 827.649 250.614C827.411 250.156 827.048 249.802 826.561 249.553C826.073 249.297 825.455 249.169 824.705 249.169H822.101V264.28H818.238Z" fill="#CDCDCD"/>
<path d="M216.737 336.485H212.598L218.904 318.217H223.882L230.179 336.485H226.04L221.464 322.391H221.322L216.737 336.485ZM216.478 329.304H226.255V332.319H216.478V329.304ZM294.613 323.471C294.541 322.751 294.235 322.192 293.694 321.794C293.153 321.395 292.418 321.196 291.491 321.196C290.86 321.196 290.328 321.285 289.894 321.464C289.46 321.636 289.127 321.877 288.895 322.186C288.669 322.495 288.556 322.846 288.556 323.239C288.544 323.566 288.612 323.851 288.761 324.095C288.916 324.339 289.127 324.55 289.394 324.728C289.662 324.901 289.971 325.052 290.322 325.183C290.673 325.308 291.048 325.415 291.446 325.504L293.087 325.897C293.884 326.075 294.616 326.313 295.282 326.611C295.948 326.908 296.525 327.274 297.012 327.708C297.5 328.142 297.878 328.653 298.145 329.242C298.419 329.831 298.558 330.506 298.564 331.267C298.558 332.385 298.273 333.354 297.708 334.175C297.149 334.99 296.34 335.623 295.282 336.075C294.229 336.521 292.959 336.744 291.473 336.744C289.998 336.744 288.713 336.518 287.619 336.066C286.531 335.614 285.681 334.945 285.068 334.059C284.461 333.167 284.143 332.064 284.114 330.75H287.851C287.893 331.362 288.068 331.873 288.377 332.284C288.693 332.688 289.112 332.994 289.635 333.203C290.164 333.405 290.762 333.506 291.428 333.506C292.082 333.506 292.65 333.411 293.132 333.22C293.62 333.03 293.997 332.765 294.265 332.427C294.532 332.088 294.666 331.698 294.666 331.258C294.666 330.848 294.544 330.503 294.3 330.223C294.063 329.944 293.712 329.706 293.248 329.51C292.79 329.313 292.228 329.135 291.562 328.974L289.573 328.475C288.033 328.1 286.816 327.514 285.924 326.718C285.032 325.921 284.589 324.847 284.595 323.497C284.589 322.391 284.884 321.425 285.478 320.598C286.079 319.772 286.903 319.126 287.949 318.663C288.996 318.199 290.185 317.967 291.517 317.967C292.873 317.967 294.057 318.199 295.068 318.663C296.085 319.126 296.875 319.772 297.44 320.598C298.005 321.425 298.297 322.382 298.315 323.471H294.613ZM359.962 336.485H353.486V318.217H360.016C361.854 318.217 363.435 318.582 364.762 319.314C366.088 320.039 367.108 321.083 367.821 322.445C368.541 323.807 368.901 325.436 368.901 327.333C368.901 329.236 368.541 330.871 367.821 332.239C367.108 333.607 366.082 334.657 364.744 335.388C363.412 336.119 361.818 336.485 359.962 336.485ZM357.349 333.176H359.802C360.944 333.176 361.904 332.974 362.683 332.569C363.468 332.159 364.057 331.526 364.449 330.669C364.848 329.807 365.047 328.695 365.047 327.333C365.047 325.983 364.848 324.88 364.449 324.024C364.057 323.167 363.471 322.537 362.692 322.133C361.913 321.728 360.953 321.526 359.811 321.526H357.349V333.176ZM429.9 336.485V318.217H441.995V321.401H433.762V325.754H441.193V328.939H433.762V336.485H429.9ZM509.031 324.122C508.906 323.688 508.731 323.304 508.505 322.971C508.279 322.632 508.002 322.347 507.675 322.115C507.354 321.877 506.985 321.695 506.569 321.571C506.159 321.446 505.704 321.383 505.204 321.383C504.271 321.383 503.45 321.615 502.742 322.079C502.041 322.543 501.493 323.218 501.101 324.104C500.708 324.984 500.512 326.06 500.512 327.333C500.512 328.606 500.705 329.688 501.092 330.58C501.479 331.472 502.026 332.153 502.733 332.623C503.441 333.087 504.277 333.319 505.24 333.319C506.114 333.319 506.86 333.164 507.479 332.855C508.103 332.54 508.579 332.096 508.906 331.526C509.239 330.955 509.406 330.28 509.406 329.501L510.191 329.617H505.481V326.709H513.125V329.01C513.125 330.616 512.786 331.995 512.109 333.149C511.431 334.297 510.497 335.183 509.308 335.807C508.118 336.426 506.756 336.735 505.222 336.735C503.509 336.735 502.005 336.357 500.708 335.602C499.412 334.841 498.401 333.762 497.676 332.364C496.956 330.961 496.596 329.296 496.596 327.369C496.596 325.888 496.81 324.568 497.238 323.408C497.673 322.243 498.279 321.255 499.058 320.447C499.837 319.638 500.744 319.022 501.779 318.6C502.814 318.178 503.935 317.967 505.142 317.967C506.177 317.967 507.14 318.118 508.032 318.422C508.924 318.719 509.715 319.141 510.405 319.688C511.101 320.235 511.668 320.887 512.109 321.642C512.549 322.391 512.831 323.218 512.956 324.122H509.031ZM568.351 336.485V318.217H572.213V325.754H580.054V318.217H583.908V336.485H580.054V328.939H572.213V336.485H568.351ZM646.731 318.217H650.549V330.955C650.549 332.132 650.284 333.155 649.755 334.023C649.231 334.891 648.503 335.56 647.569 336.03C646.636 336.5 645.55 336.735 644.313 336.735C643.213 336.735 642.214 336.542 641.316 336.155C640.424 335.763 639.717 335.168 639.193 334.371C638.67 333.568 638.411 332.56 638.417 331.347H642.262C642.274 331.829 642.372 332.242 642.556 332.587C642.746 332.926 643.005 333.188 643.332 333.372C643.665 333.55 644.058 333.64 644.51 333.64C644.985 333.64 645.387 333.539 645.714 333.336C646.047 333.128 646.3 332.825 646.472 332.427C646.645 332.028 646.731 331.537 646.731 330.955V318.217ZM711.88 336.485V318.217H715.742V326.272H715.983L722.557 318.217H727.187L720.408 326.396L727.267 336.485H722.647L717.642 328.974L715.742 331.294V336.485H711.88ZM787.336 336.485V318.217H791.199V333.301H799.031V336.485H787.336Z" fill="#CDCDCD"/>
</svg>
