<svg width="1722" height="548" viewBox="0 0 1722 548" fill="none" xmlns="http://www.w3.org/2000/svg">
<path d="M7.04175 7.05981H1714.97V540.099H7.04175V7.05981Z" stroke="#CDCDCD"/>
<path d="M1002.79 291.5H1003.29V291V219.5H1109.5V290.995V362.5H968.5V291.5H1002.79Z" stroke="#CDCDCD"/>
<path d="M185.5 42.5H255.5V112.5H185.5V42.5Z" stroke="#CDCDCD"/>
<path d="M255.5 42.5H326.5V112.5H255.5V42.5Z" stroke="#CDCDCD"/>
<path d="M326.5 42.5H397.5V112.5H326.5V42.5Z" stroke="#CDCDCD"/>
<path d="M397.5 42.5H468.5V112.5H397.5V42.5Z" stroke="#CDCDCD"/>
<path d="M505.486 42.6625H575.691V112.868H505.486V42.6625Z" stroke="#CDCDCD"/>
<path d="M646.5 42.5H718.5V112.5H646.5V42.5Z" stroke="#CDCDCD"/>
<path d="M718.5 42.5H789.5V112.5H718.5V42.5Z" stroke="#CDCDCD"/>
<path d="M825.5 42.5H896.5V112.5H825.5V42.5Z" stroke="#CDCDCD"/>
<path d="M967.5 42.5H1038.5V112.5H967.5V42.5Z" stroke="#CDCDCD"/>
<path d="M1038.5 42.5H1109.5V112.5H1038.5V42.5Z" stroke="#CDCDCD"/>
<path d="M1146.5 42.5H1216.5V112.5H1146.5V42.5Z" stroke="#CDCDCD"/>
<path d="M1287.5 42.5H1358.5V112.5H1287.5V42.5Z" stroke="#CDCDCD"/>
<path d="M1146.5 149.5H1217.5V220.5H1146.5V149.5Z" stroke="#CDCDCD"/>
<path d="M1287.5 149.5H1358.5V220.5H1287.5V149.5Z" stroke="#CDCDCD"/>
<path d="M1146.5 220.5H1217.5V290.5H1146.5V220.5Z" stroke="#CDCDCD"/>
<path d="M1287.5 220.5H1358.5V290.5H1287.5V220.5Z" stroke="#CDCDCD"/>
<path d="M1146.5 434.5H1217.5V504.5H1146.5V434.5Z" stroke="#CDCDCD"/>
<path d="M1287.5 434.5H1358.5V504.5H1287.5V434.5Z" stroke="#CDCDCD"/>
<path d="M1537.5 149.5H1608.5V220.5H1537.5V149.5Z" stroke="#CDCDCD"/>
<path d="M1608.5 149.5H1679.5V220.5H1608.5V149.5Z" stroke="#CDCDCD"/>
<path d="M1395.5 220.5H1466.5V291.5H1395.5V220.5Z" stroke="#CDCDCD"/>
<path d="M1537.5 220.5H1608.5V291.5H1537.5V220.5Z" stroke="#CDCDCD"/>
<path d="M1608.5 220.5H1679.5V363.5H1608.5V220.5Z" stroke="#CDCDCD"/>
<path d="M1395.5 291.5H1466.5V363.5H1395.5V291.5Z" stroke="#CDCDCD"/>
<path d="M1537.5 291.5H1608.5V363.5H1537.5V291.5Z" stroke="#CDCDCD"/>
<path d="M1395.5 363.5H1466.5V434.5H1395.5V363.5Z" stroke="#CDCDCD"/>
<path d="M1537.5 363.5H1608.5V434.5H1537.5V363.5Z" stroke="#CDCDCD"/>
<path d="M1395.5 434.5H1537.5V504.5H1395.5V434.5Z" stroke="#CDCDCD"/>
<path d="M1537.5 434.5H1608.5V504.5H1537.5V434.5Z" stroke="#CDCDCD"/>
<path d="M1608.5 363.5H1679.5V504.5H1608.5V363.5Z" stroke="#CDCDCD"/>
<path d="M42.5 149.5H114.5V219.5H42.5V149.5Z" stroke="#CDCDCD"/>
<path d="M114.5 149.5H184.5V219.5H114.5V149.5Z" stroke="#CDCDCD"/>
<path d="M184.5 149.5H255.5V219.5H184.5V149.5Z" stroke="#CDCDCD"/>
<path d="M255.5 149.5H327.5V219.5H255.5V149.5Z" stroke="#CDCDCD"/>
<path d="M327.5 149.5H398.5V219.5H327.5V149.5Z" stroke="#CDCDCD"/>
<path d="M398.5 149.5H469.5V219.5H398.5V149.5Z" stroke="#CDCDCD"/>
<path d="M469.5 149.5H540.5V219.5H469.5V149.5Z" stroke="#CDCDCD"/>
<path d="M540.5 149.5H611.5V219.5H540.5V149.5Z" stroke="#CDCDCD"/>
<path d="M611.5 149.5H682.5V219.5H611.5V149.5Z" stroke="#CDCDCD"/>
<path d="M682.5 149.5H754.5V219.5H682.5V149.5Z" stroke="#CDCDCD"/>
<path d="M754.5 149.5H825.5V219.5H754.5V149.5Z" stroke="#CDCDCD"/>
<path d="M825.5 149.5H896.5V219.5H825.5V149.5Z" stroke="#CDCDCD"/>
<path d="M896.5 149.5H967.5V219.5H896.5V149.5Z" stroke="#CDCDCD"/>
<path d="M967.5 149.5H1039.5V219.5H967.5V149.5Z" stroke="#CDCDCD"/>
<path d="M1039.5 149.5H1109.5V219.5H1039.5V149.5Z" stroke="#CDCDCD"/>
<path d="M42.5 219.5H150.5V291.5H42.5V219.5Z" stroke="#CDCDCD"/>
<path d="M150.5 219.5H220.5V291.5H150.5V219.5Z" stroke="#CDCDCD"/>
<path d="M860.5 219.5H931.5V291.5H860.5V219.5Z" stroke="#CDCDCD"/>
<path d="M931.5 219.5H1003.5V291.5H931.5V219.5Z" stroke="#CDCDCD"/>
<path d="M42.5 291.5H184.5V362.5H42.5V291.5Z" stroke="#CDCDCD"/>
<path d="M824.5 291.5H896.5V362.5H824.5V291.5Z" stroke="#CDCDCD"/>
<path d="M896.5 291.5H968.5V362.5H896.5V291.5Z" stroke="#CDCDCD"/>
<path d="M220.5 362.5H290.5V434.5H220.5V362.5Z" stroke="#CDCDCD"/>
<path d="M290.5 362.5H362.5V434.5H290.5V362.5Z" stroke="#CDCDCD"/>
<path d="M362.5 362.5H434.5V434.5H362.5V362.5Z" stroke="#CDCDCD"/>
<path d="M434.5 362.5H504.5V434.5H434.5V362.5Z" stroke="#CDCDCD"/>
<path d="M504.5 362.5H575.5V434.5H504.5V362.5Z" stroke="#CDCDCD"/>
<path d="M575.5 362.5H647.5V434.5H575.5V362.5Z" stroke="#CDCDCD"/>
<path d="M647.5 362.5H719.5V434.5H647.5V362.5Z" stroke="#CDCDCD"/>
<path d="M719.5 362.5H790.5V434.5H719.5V362.5Z" stroke="#CDCDCD"/>
<path d="M790.5 362.5H861.5V434.5H790.5V362.5Z" stroke="#CDCDCD"/>
<path d="M861.5 362.5H931.5V434.5H861.5V362.5Z" stroke="#CDCDCD"/>
<path d="M931.5 362.5H1109.5V434.5H931.5V362.5Z" stroke="#CDCDCD"/>
<path d="M42.5 362.5H220.5V434.5H42.5V362.5Z" stroke="#CDCDCD"/>
<path d="M42.5 434.5H113.5V504.5H42.5V434.5Z" stroke="#CDCDCD"/>
<path d="M113.5 434.5H220.5V504.5H113.5V434.5Z" stroke="#CDCDCD"/>
<path d="M220.5 434.5H326.5V504.5H220.5V434.5Z" stroke="#CDCDCD"/>
<path d="M326.5 434.5H754.5V504.5H326.5V434.5Z" stroke="#CDCDCD"/>
<path d="M754.5 434.5H861.5V504.5H754.5V434.5Z" stroke="#CDCDCD"/>
<path d="M861.5 434.5H968.5V504.5H861.5V434.5Z" stroke="#CDCDCD"/>
<path d="M968.5 434.5H1109.5V504.5H968.5V434.5Z" stroke="#CDCDCD"/>
<path d="M42.6445 42.6625H112.85V112.868H42.6445V42.6625Z" stroke="#CDCDCD"/>
<path d="M1216.5 42.5H1287.5V112.5H1216.5V42.5Z" stroke="#CDCDCD"/>
<path d="M1217.5 220.5H1287.5V290.5H1217.5V220.5Z" stroke="#CDCDCD"/>
<path d="M575.5 42.5H646.5V112.5H575.5V42.5Z" stroke="#CDCDCD"/>
<path d="M896.5 42.5H967.5V112.5H896.5V42.5Z" stroke="#CDCDCD"/>
<path d="M1217.5 434.5H1287.5V504.5H1217.5V434.5Z" stroke="#CDCDCD"/>
<path d="M1217.5 363.5H1287.5V434.5H1217.5V363.5Z" stroke="#CDCDCD"/>
<path d="M1466.5 363.5H1537.5V434.5H1466.5V363.5Z" stroke="#CDCDCD"/>
<path d="M1466.5 291.5H1537.5V363.5H1466.5V291.5Z" stroke="#CDCDCD"/>
<path d="M1466.5 220.5H1537.5V291.5H1466.5V220.5Z" stroke="#CDCDCD"/>
<path d="M1466.5 149.5H1537.5V220.5H1466.5V149.5Z" stroke="#CDCDCD"/>
<path d="M1395.5 149.5H1466.5V220.5H1395.5V149.5Z" stroke="#CDCDCD"/>
<path d="M1217.5 149.5H1287.5V220.5H1217.5V149.5Z" stroke="#CDCDCD"/>
<path d="M220.5 219.5H291.5V291.5H220.5V219.5Z" stroke="#00E494"/>
<path d="M362.5 219.5H433.5V291.5H362.5V219.5Z" stroke="#CDCDCD"/>
<path d="M646.5 219.5H718.5V291.5H646.5V219.5Z" stroke="#CDCDCD"/>
<path d="M433.5 219.5H504.5V291.5H433.5V219.5Z" stroke="#00E494"/>
<path d="M504.5 219.5H575.5V291.5H504.5V219.5Z" stroke="#00E494"/>
<path d="M575.5 219.5H646.5V291.5H575.5V219.5Z" stroke="#00E494"/>
<path d="M718.5 219.5H789.5V291.5H718.5V219.5Z" stroke="#00E494"/>
<path d="M789.5 219.5H860.5V291.5H789.5V219.5Z" stroke="#00E494"/>
<path d="M291.5 219.5H362.5V291.5H291.5V219.5Z" stroke="#00E494"/>
<path d="M184.5 291.5H256.5V362.5H184.5V291.5Z" stroke="#00E494"/>
<path d="M256.5 291.5H326.5V362.5H256.5V291.5Z" stroke="#00E494"/>
<path d="M326.5 291.5H398.5V362.5H326.5V291.5Z" stroke="#00E494"/>
<path d="M398.5 291.5H468.5V362.5H398.5V291.5Z" stroke="#00E494"/>
<path d="M468.5 291.5H540.5V362.5H468.5V291.5Z" stroke="#00E494"/>
<path d="M540.5 291.5H612.5V362.5H540.5V291.5Z" stroke="#00E494"/>
<path d="M612.5 291.5H682.5V362.5H612.5V291.5Z" stroke="#00E494"/>
<path d="M682.5 291.5H753.5V362.5H682.5V291.5Z" stroke="#00E494"/>
<path d="M753.5 291.5H824.5V362.5H753.5V291.5Z" stroke="#00E494"/>
<path d="M1395.55 42.6625H1679.37V112.868H1395.55V42.6625Z" stroke="#CDCDCD"/>
<path d="M248.7 264.28L243.473 246.011H247.692L250.716 258.705H250.868L254.204 246.011H257.817L261.144 258.732H261.304L264.328 246.011H268.548L263.32 264.28H259.556L256.077 252.336H255.934L252.464 264.28H248.7ZM322.939 264.28V246.011H335.249V249.196H326.801V253.549H334.615V256.733H326.801V261.095H335.284V264.28H322.939ZM390.644 264.28V246.011H397.851C399.231 246.011 400.408 246.258 401.384 246.752C402.365 247.239 403.111 247.932 403.623 248.83C404.14 249.722 404.399 250.772 404.399 251.979C404.399 253.192 404.137 254.236 403.614 255.11C403.09 255.978 402.332 256.644 401.339 257.108C400.352 257.572 399.156 257.804 397.753 257.804H392.927V254.7H397.129C397.866 254.7 398.479 254.599 398.966 254.396C399.454 254.194 399.817 253.891 400.054 253.487C400.298 253.082 400.42 252.58 400.42 251.979C400.42 251.372 400.298 250.861 400.054 250.445C399.817 250.028 399.451 249.713 398.957 249.499C398.47 249.279 397.854 249.169 397.111 249.169H394.506V264.28H390.644ZM400.509 255.966L405.05 264.28H400.786L396.344 255.966H400.509ZM464.57 249.196V246.011H479.574V249.196H473.981V264.28H470.163V249.196H464.57ZM533.299 246.011H537.625L541.791 253.879H541.969L546.135 246.011H550.461L543.798 257.822V264.28H539.962V257.822L533.299 246.011ZM616.179 246.011H620.041V257.875C620.041 259.207 619.723 260.373 619.087 261.372C618.456 262.371 617.573 263.15 616.438 263.709C615.302 264.262 613.979 264.539 612.468 264.539C610.952 264.539 609.625 264.262 608.49 263.709C607.354 263.15 606.471 262.371 605.84 261.372C605.21 260.373 604.895 259.207 604.895 257.875V246.011H608.757V257.545C608.757 258.241 608.909 258.859 609.212 259.401C609.521 259.942 609.955 260.367 610.514 260.676C611.073 260.985 611.725 261.14 612.468 261.14C613.217 261.14 613.868 260.985 614.422 260.676C614.981 260.367 615.412 259.942 615.715 259.401C616.024 258.859 616.179 258.241 616.179 257.545V246.011ZM685.219 246.011V264.28H681.357V246.011H685.219ZM763.323 255.146C763.323 257.138 762.945 258.833 762.19 260.23C761.441 261.628 760.418 262.695 759.121 263.433C757.831 264.164 756.38 264.53 754.768 264.53C753.145 264.53 751.688 264.161 750.397 263.424C749.107 262.686 748.087 261.619 747.338 260.221C746.588 258.824 746.214 257.132 746.214 255.146C746.214 253.153 746.588 251.459 747.338 250.061C748.087 248.664 749.107 247.599 750.397 246.868C751.688 246.13 753.145 245.762 754.768 245.762C756.38 245.762 757.831 246.13 759.121 246.868C760.418 247.599 761.441 248.664 762.19 250.061C762.945 251.459 763.323 253.153 763.323 255.146ZM759.407 255.146C759.407 253.855 759.214 252.767 758.827 251.881C758.446 250.995 757.908 250.323 757.212 249.865C756.517 249.407 755.702 249.178 754.768 249.178C753.835 249.178 753.02 249.407 752.324 249.865C751.628 250.323 751.087 250.995 750.701 251.881C750.32 252.767 750.13 253.855 750.13 255.146C750.13 256.436 750.32 257.524 750.701 258.411C751.087 259.297 751.628 259.969 752.324 260.426C753.02 260.884 753.835 261.113 754.768 261.113C755.702 261.113 756.517 260.884 757.212 260.426C757.908 259.969 758.446 259.297 758.827 258.411C759.214 257.524 759.407 256.436 759.407 255.146ZM818.508 264.28V246.011H825.716C827.101 246.011 828.282 246.276 829.257 246.805C830.232 247.329 830.976 248.057 831.487 248.991C832.004 249.918 832.263 250.989 832.263 252.202C832.263 253.415 832.001 254.486 831.478 255.413C830.955 256.341 830.197 257.064 829.203 257.581C828.216 258.098 827.021 258.357 825.617 258.357H821.024V255.262H824.993C825.736 255.262 826.349 255.134 826.831 254.878C827.318 254.616 827.681 254.257 827.919 253.799C828.163 253.335 828.285 252.803 828.285 252.202C828.285 251.595 828.163 251.066 827.919 250.614C827.681 250.156 827.318 249.802 826.831 249.553C826.343 249.297 825.725 249.169 824.975 249.169H822.371V264.28H818.508Z" fill="#CDCDCD"/>
<path d="M216.737 336.485H212.598L218.904 318.217H223.882L230.179 336.485H226.04L221.464 322.391H221.322L216.737 336.485ZM216.478 329.304H226.255V332.319H216.478V329.304ZM294.613 323.471C294.541 322.751 294.235 322.192 293.694 321.794C293.153 321.395 292.418 321.196 291.491 321.196C290.86 321.196 290.328 321.285 289.894 321.464C289.46 321.636 289.127 321.877 288.895 322.186C288.669 322.495 288.556 322.846 288.556 323.239C288.544 323.566 288.612 323.851 288.761 324.095C288.916 324.339 289.127 324.55 289.394 324.728C289.662 324.901 289.971 325.052 290.322 325.183C290.673 325.308 291.048 325.415 291.446 325.504L293.087 325.897C293.884 326.075 294.616 326.313 295.282 326.611C295.948 326.908 296.525 327.274 297.012 327.708C297.5 328.142 297.878 328.653 298.145 329.242C298.419 329.831 298.558 330.506 298.564 331.267C298.558 332.385 298.273 333.354 297.708 334.175C297.149 334.99 296.34 335.623 295.282 336.075C294.229 336.521 292.959 336.744 291.473 336.744C289.998 336.744 288.713 336.518 287.619 336.066C286.531 335.614 285.681 334.945 285.068 334.059C284.461 333.167 284.143 332.064 284.114 330.75H287.851C287.893 331.362 288.068 331.873 288.377 332.284C288.693 332.688 289.112 332.994 289.635 333.203C290.164 333.405 290.762 333.506 291.428 333.506C292.082 333.506 292.65 333.411 293.132 333.22C293.62 333.03 293.997 332.765 294.265 332.427C294.532 332.088 294.666 331.698 294.666 331.258C294.666 330.848 294.544 330.503 294.3 330.223C294.063 329.944 293.712 329.706 293.248 329.51C292.79 329.313 292.228 329.135 291.562 328.974L289.573 328.475C288.033 328.1 286.816 327.514 285.924 326.718C285.032 325.921 284.589 324.847 284.595 323.497C284.589 322.391 284.884 321.425 285.478 320.598C286.079 319.772 286.903 319.126 287.949 318.663C288.996 318.199 290.185 317.967 291.517 317.967C292.873 317.967 294.057 318.199 295.068 318.663C296.085 319.126 296.875 319.772 297.44 320.598C298.005 321.425 298.297 322.382 298.315 323.471H294.613ZM359.962 336.485H353.486V318.217H360.016C361.854 318.217 363.435 318.582 364.762 319.314C366.088 320.039 367.108 321.083 367.821 322.445C368.541 323.807 368.901 325.436 368.901 327.333C368.901 329.236 368.541 330.871 367.821 332.239C367.108 333.607 366.082 334.657 364.744 335.388C363.412 336.119 361.818 336.485 359.962 336.485ZM357.349 333.176H359.802C360.944 333.176 361.904 332.974 362.683 332.569C363.468 332.159 364.057 331.526 364.449 330.669C364.848 329.807 365.047 328.695 365.047 327.333C365.047 325.983 364.848 324.88 364.449 324.024C364.057 323.167 363.471 322.537 362.692 322.133C361.913 321.728 360.953 321.526 359.811 321.526H357.349V333.176ZM429.9 336.485V318.217H441.995V321.401H433.762V325.754H441.193V328.939H433.762V336.485H429.9ZM509.031 324.122C508.906 323.688 508.731 323.304 508.505 322.971C508.279 322.632 508.002 322.347 507.675 322.115C507.354 321.877 506.985 321.695 506.569 321.571C506.159 321.446 505.704 321.383 505.204 321.383C504.271 321.383 503.45 321.615 502.742 322.079C502.041 322.543 501.493 323.218 501.101 324.104C500.708 324.984 500.512 326.06 500.512 327.333C500.512 328.606 500.705 329.688 501.092 330.58C501.479 331.472 502.026 332.153 502.733 332.623C503.441 333.087 504.277 333.319 505.24 333.319C506.114 333.319 506.86 333.164 507.479 332.855C508.103 332.54 508.579 332.096 508.906 331.526C509.239 330.955 509.406 330.28 509.406 329.501L510.191 329.617H505.481V326.709H513.125V329.01C513.125 330.616 512.786 331.995 512.109 333.149C511.431 334.297 510.497 335.183 509.308 335.807C508.118 336.426 506.756 336.735 505.222 336.735C503.509 336.735 502.005 336.357 500.708 335.602C499.412 334.841 498.401 333.762 497.676 332.364C496.956 330.961 496.596 329.296 496.596 327.369C496.596 325.888 496.81 324.568 497.238 323.408C497.673 322.243 498.279 321.255 499.058 320.447C499.837 319.638 500.744 319.022 501.779 318.6C502.814 318.178 503.935 317.967 505.142 317.967C506.177 317.967 507.14 318.118 508.032 318.422C508.924 318.719 509.715 319.141 510.405 319.688C511.101 320.235 511.668 320.887 512.109 321.642C512.549 322.391 512.831 323.218 512.956 324.122H509.031ZM568.351 336.485V318.217H572.213V325.754H580.054V318.217H583.908V336.485H580.054V328.939H572.213V336.485H568.351ZM646.731 318.217H650.549V330.955C650.549 332.132 650.284 333.155 649.755 334.023C649.231 334.891 648.503 335.56 647.569 336.03C646.636 336.5 645.55 336.735 644.313 336.735C643.213 336.735 642.214 336.542 641.316 336.155C640.424 335.763 639.717 335.168 639.193 334.371C638.67 333.568 638.411 332.56 638.417 331.347H642.262C642.274 331.829 642.372 332.242 642.556 332.587C642.746 332.926 643.005 333.188 643.332 333.372C643.665 333.55 644.058 333.64 644.51 333.64C644.985 333.64 645.387 333.539 645.714 333.336C646.047 333.128 646.3 332.825 646.472 332.427C646.645 332.028 646.731 331.537 646.731 330.955V318.217ZM711.88 336.485V318.217H715.742V326.272H715.983L722.557 318.217H727.187L720.408 326.396L727.267 336.485H722.647L717.642 328.974L715.742 331.294V336.485H711.88ZM787.336 336.485V318.217H791.199V333.301H799.031V336.485H787.336Z" fill="#CDCDCD"/>
</svg>
