<svg width="1722" height="750" viewBox="0 0 1722 750" fill="none" xmlns="http://www.w3.org/2000/svg">
<path d="M7.04175 104.06H1714.97V637.099H7.04175V104.06Z" stroke="#CDCDCD"/>
<path d="M1003 390.5H1003.5V390V316.5H1109.5V387.995V459.5H968.5V390.5H985H1003Z" stroke="#CDCDCD"/>
<path d="M185.5 139.5H255.5V209.5H185.5V139.5Z" stroke="#CDCDCD"/>
<path d="M255.5 139.5H326.5V209.5H255.5V139.5Z" stroke="#CDCDCD"/>
<path d="M326.5 139.5H397.5V209.5H326.5V139.5Z" stroke="#CDCDCD"/>
<path d="M397.5 139.5H468.5V209.5H397.5V139.5Z" stroke="#CDCDCD"/>
<path d="M505.486 139.662H575.691V209.868H505.486V139.662Z" stroke="#CDCDCD"/>
<path d="M646.5 139.5H718.5V209.5H646.5V139.5Z" stroke="#CDCDCD"/>
<path d="M718.5 139.5H789.5V209.5H718.5V139.5Z" stroke="#CDCDCD"/>
<path d="M825.5 139.5H896.5V209.5H825.5V139.5Z" stroke="#CDCDCD"/>
<path d="M967.5 139.5H1038.5V209.5H967.5V139.5Z" stroke="#CDCDCD"/>
<path d="M1038.5 139.5H1109.5V209.5H1038.5V139.5Z" stroke="#CDCDCD"/>
<path d="M1146.5 139.5H1216.5V209.5H1146.5V139.5Z" stroke="#CDCDCD"/>
<path d="M1287.5 139.5H1358.5V209.5H1287.5V139.5Z" stroke="#CDCDCD"/>
<path d="M1146.5 246.5H1217.5V317.5H1146.5V246.5Z" stroke="#CDCDCD"/>
<path d="M1287.5 246.5H1358.5V317.5H1287.5V246.5Z" stroke="#CDCDCD"/>
<path d="M1146.5 317.5H1217.5V387.5H1146.5V317.5Z" stroke="#CDCDCD"/>
<path d="M1287.5 317.5H1358.5V387.5H1287.5V317.5Z" stroke="#CDCDCD"/>
<path d="M1146.5 531.5H1217.5V601.5H1146.5V531.5Z" stroke="#CDCDCD"/>
<path d="M1287.5 531.5H1358.5V601.5H1287.5V531.5Z" stroke="#CDCDCD"/>
<path d="M1537.5 246.5H1608.5V317.5H1537.5V246.5Z" stroke="#CDCDCD"/>
<path d="M1608.5 246.5H1679.5V317.5H1608.5V246.5Z" stroke="#CDCDCD"/>
<path d="M1395.5 317.5H1466.5V388.5H1395.5V317.5Z" stroke="#CDCDCD"/>
<path d="M1537.5 317.5H1608.5V388.5H1537.5V317.5Z" stroke="#CDCDCD"/>
<path d="M1608.5 317.5H1679.5V460.5H1608.5V317.5Z" stroke="#CDCDCD"/>
<path d="M1395.5 388.5H1466.5V460.5H1395.5V388.5Z" stroke="#CDCDCD"/>
<path d="M1537.5 388.5H1608.5V460.5H1537.5V388.5Z" stroke="#CDCDCD"/>
<path d="M1395.5 460.5H1466.5V531.5H1395.5V460.5Z" stroke="#CDCDCD"/>
<path d="M1537.5 460.5H1608.5V531.5H1537.5V460.5Z" stroke="#CDCDCD"/>
<path d="M1395.5 531.5H1537.5V601.5H1395.5V531.5Z" stroke="#CDCDCD"/>
<path d="M1537.5 531.5H1608.5V601.5H1537.5V531.5Z" stroke="#CDCDCD"/>
<path d="M1608.5 460.5H1679.5V601.5H1608.5V460.5Z" stroke="#CDCDCD"/>
<path d="M42.5 246.5H114.5V316.5H42.5V246.5Z" stroke="#CDCDCD"/>
<path d="M114.5 246.5H184.5V316.5H114.5V246.5Z" stroke="#CDCDCD"/>
<path d="M184.5 246.5H255.5V316.5H184.5V246.5Z" stroke="#CDCDCD"/>
<path d="M255.5 246.5H327.5V316.5H255.5V246.5Z" stroke="#CDCDCD"/>
<path d="M327.5 246.5H398.5V316.5H327.5V246.5Z" stroke="#CDCDCD"/>
<path d="M398.5 246.5H469.5V316.5H398.5V246.5Z" stroke="#CDCDCD"/>
<path d="M469.5 246.5H540.5V316.5H469.5V246.5Z" stroke="#CDCDCD"/>
<path d="M540.5 246.5H611.5V316.5H540.5V246.5Z" stroke="#CDCDCD"/>
<path d="M611.5 246.5H682.5V316.5H611.5V246.5Z" stroke="#CDCDCD"/>
<path d="M682.5 246.5H754.5V316.5H682.5V246.5Z" stroke="#CDCDCD"/>
<path d="M754.5 246.5H825.5V316.5H754.5V246.5Z" stroke="#CDCDCD"/>
<path d="M825.5 246.5H896.5V316.5H825.5V246.5Z" stroke="#CDCDCD"/>
<path d="M896.5 246.5H967.5V316.5H896.5V246.5Z" stroke="#CDCDCD"/>
<path d="M967.5 246.5H1039.5V316.5H967.5V246.5Z" stroke="#CDCDCD"/>
<path d="M1039.5 246.5H1109.5V316.5H1039.5V246.5Z" stroke="#CDCDCD"/>
<path d="M42.5 316.5H150.5V388.5H42.5V316.5Z" stroke="#CDCDCD"/>
<path d="M150.5 316.5H220.5V388.5H150.5V316.5Z" stroke="#CDCDCD"/>
<path d="M860.5 316.5H931.5V390.5H860.5V316.5Z" stroke="#CDCDCD"/>
<path d="M931.5 316.5H1003.5V390.5H931.5V316.5Z" stroke="#CDCDCD"/>
<path d="M42.5 388.5H184.5V459.5H42.5V388.5Z" stroke="#CDCDCD"/>
<path d="M824.5 390.5H896.5V459.5H824.5V390.5Z" stroke="#CDCDCD"/>
<path d="M896.5 390.5H968.5V459.5H896.5V390.5Z" stroke="#CDCDCD"/>
<path d="M220.5 459.5H290.5V531.5H220.5V459.5Z" stroke="#CDCDCD"/>
<path d="M290.5 459.5H362.5V531.5H290.5V459.5Z" stroke="#CDCDCD"/>
<path d="M362.5 459.5H434.5V531.5H362.5V459.5Z" stroke="#CDCDCD"/>
<path d="M434.5 459.5H504.5V531.5H434.5V459.5Z" stroke="#CDCDCD"/>
<path d="M504.5 459.5H575.5V531.5H504.5V459.5Z" stroke="#CDCDCD"/>
<path d="M575.5 459.5H647.5V531.5H575.5V459.5Z" stroke="#CDCDCD"/>
<path d="M647.5 459.5H719.5V531.5H647.5V459.5Z" stroke="#CDCDCD"/>
<path d="M719.5 459.5H790.5V531.5H719.5V459.5Z" stroke="#CDCDCD"/>
<path d="M790.5 459.5H861.5V531.5H790.5V459.5Z" stroke="#CDCDCD"/>
<path d="M861.5 459.5H931.5V531.5H861.5V459.5Z" stroke="#CDCDCD"/>
<path d="M931.5 459.5H1109.5V531.5H931.5V459.5Z" stroke="#CDCDCD"/>
<path d="M42.5 459.5H220.5V531.5H42.5V459.5Z" stroke="#CDCDCD"/>
<path d="M42.5 531.5H113.5V601.5H42.5V531.5Z" stroke="#CDCDCD"/>
<path d="M113.5 531.5H220.5V601.5H113.5V531.5Z" stroke="#CDCDCD"/>
<path d="M220.5 531.5H326.5V601.5H220.5V531.5Z" stroke="#CDCDCD"/>
<path d="M326.5 531.5H754.5V601.5H326.5V531.5Z" stroke="#CDCDCD"/>
<path d="M754.5 531.5H861.5V601.5H754.5V531.5Z" stroke="#CDCDCD"/>
<path d="M861.5 531.5H968.5V601.5H861.5V531.5Z" stroke="#CDCDCD"/>
<path d="M968.5 531.5H1109.5V601.5H968.5V531.5Z" stroke="#CDCDCD"/>
<path d="M42.6445 139.662H112.85V209.868H42.6445V139.662Z" stroke="#CDCDCD"/>
<path d="M1216.5 139.5H1287.5V209.5H1216.5V139.5Z" stroke="#CDCDCD"/>
<path d="M1217.5 317.5H1287.5V387.5H1217.5V317.5Z" stroke="#CDCDCD"/>
<path d="M575.5 139.5H646.5V209.5H575.5V139.5Z" stroke="#CDCDCD"/>
<path d="M896.5 139.5H967.5V209.5H896.5V139.5Z" stroke="#CDCDCD"/>
<path d="M1217.5 531.5H1287.5V601.5H1217.5V531.5Z" stroke="#CDCDCD"/>
<path d="M1217.5 460.5H1287.5V531.5H1217.5V460.5Z" stroke="#CDCDCD"/>
<path d="M1466.5 460.5H1537.5V531.5H1466.5V460.5Z" stroke="#CDCDCD"/>
<path d="M1466.5 388.5H1537.5V460.5H1466.5V388.5Z" stroke="#CDCDCD"/>
<path d="M1466.5 317.5H1537.5V388.5H1466.5V317.5Z" stroke="#CDCDCD"/>
<path d="M1466.5 246.5H1537.5V317.5H1466.5V246.5Z" stroke="#CDCDCD"/>
<path d="M1395.5 246.5H1466.5V317.5H1395.5V246.5Z" stroke="#CDCDCD"/>
<path d="M1217.5 246.5H1287.5V317.5H1217.5V246.5Z" stroke="#CDCDCD"/>
<path d="M221.5 317.5H292.5V389.5H221.5V317.5Z" stroke="#00E494" stroke-width="3"/>
<path d="M362.5 316.5H433.5V388.5H362.5V316.5Z" stroke="#CDCDCD"/>
<path d="M646.5 316.5H718.5V388.5H646.5V316.5Z" stroke="#CDCDCD"/>
<path d="M434.5 317.5H505.5V389.5H434.5V317.5Z" stroke="#00E494" stroke-width="3"/>
<path d="M505.5 317.5H577.5V389.5H505.5V317.5Z" stroke="#00E494" stroke-width="3"/>
<path d="M577.5 317.5H647.5V389.5H577.5V317.5Z" stroke="#00E494" stroke-width="3"/>
<path d="M719.5 317.5H788.5V389.5H719.5V317.5Z" stroke="#00E494" stroke-width="3"/>
<path d="M788.5 317.5H859.5V389.5H788.5V317.5Z" stroke="#00E494" stroke-width="3"/>
<path d="M292.5 317.5H363.5V389.5H292.5V317.5Z" stroke="#00E494" stroke-width="3"/>
<path d="M185.5 389.5H254.5V458.5H185.5V389.5Z" stroke="#00E494" stroke-width="3"/>
<path d="M254.5 389.5H325.5V458.5H254.5V389.5Z" stroke="#00E494" stroke-width="3"/>
<path d="M325.5 389.5H399.5V458.5H325.5V389.5Z" stroke="#00E494" stroke-width="3"/>
<path d="M399.5 389.5H470.5V458.5H399.5V389.5Z" stroke="#00E494" stroke-width="3"/>
<path d="M470.5 389.5H539.5V458.5H470.5V389.5Z" stroke="#00E494" stroke-width="3"/>
<path d="M539.5 389.5H610.5V458.5H539.5V389.5Z" stroke="#00E494" stroke-width="3"/>
<path d="M610.5 389.5H681.5V458.5H610.5V389.5Z" stroke="#00E494" stroke-width="3"/>
<path d="M681.5 389.5H752.5V458.5H681.5V389.5Z" stroke="#00E494" stroke-width="3"/>
<path d="M752.5 389.5H823.5V458.5H752.5V389.5Z" stroke="#00E494" stroke-width="3"/>
<path d="M1395.55 139.662H1679.37V209.868H1395.55V139.662Z" stroke="#CDCDCD"/>
<path d="M248.7 361.28L243.473 343.011H247.692L250.716 355.705H250.868L254.204 343.011H257.817L261.144 355.732H261.304L264.328 343.011H268.548L263.32 361.28H259.556L256.077 349.336H255.934L252.464 361.28H248.7ZM322.939 361.28V343.011H335.249V346.196H326.801V350.549H334.615V353.733H326.801V358.095H335.284V361.28H322.939ZM465.527 346.196V343.011H480.531V346.196H474.938V361.28H471.12V346.196H465.527ZM534.255 343.011H538.582L542.747 350.879H542.926L547.091 343.011H551.418L544.754 354.822V361.28H540.919V354.822L534.255 343.011ZM617.136 343.011H620.998V354.875C620.998 356.207 620.68 357.373 620.044 358.372C619.413 359.371 618.53 360.15 617.394 360.709C616.258 361.262 614.935 361.539 613.425 361.539C611.908 361.539 610.582 361.262 609.446 360.709C608.31 360.15 607.427 359.371 606.797 358.372C606.167 357.373 605.851 356.207 605.851 354.875V343.011H609.714V354.545C609.714 355.241 609.866 355.859 610.169 356.401C610.478 356.942 610.912 357.367 611.471 357.676C612.03 357.985 612.681 358.14 613.425 358.14C614.174 358.14 614.825 357.985 615.378 357.676C615.937 357.367 616.368 356.942 616.672 356.401C616.981 355.859 617.136 355.241 617.136 354.545V343.011ZM763.053 352.146C763.053 354.138 762.675 355.833 761.92 357.23C761.171 358.628 760.148 359.695 758.852 360.433C757.561 361.164 756.11 361.53 754.499 361.53C752.875 361.53 751.418 361.161 750.128 360.424C748.837 359.686 747.817 358.619 747.068 357.221C746.319 355.824 745.944 354.132 745.944 352.146C745.944 350.153 746.319 348.459 747.068 347.061C747.817 345.664 748.837 344.599 750.128 343.868C751.418 343.13 752.875 342.762 754.499 342.762C756.11 342.762 757.561 343.13 758.852 343.868C760.148 344.599 761.171 345.664 761.92 347.061C762.675 348.459 763.053 350.153 763.053 352.146ZM759.137 352.146C759.137 350.855 758.944 349.767 758.557 348.881C758.177 347.995 757.638 347.323 756.943 346.865C756.247 346.407 755.432 346.178 754.499 346.178C753.565 346.178 752.75 346.407 752.054 346.865C751.359 347.323 750.817 347.995 750.431 348.881C750.05 349.767 749.86 350.855 749.86 352.146C749.86 353.436 750.05 354.524 750.431 355.411C750.817 356.297 751.359 356.969 752.054 357.426C752.75 357.884 753.565 358.113 754.499 358.113C755.432 358.113 756.247 357.884 756.943 357.426C757.638 356.969 758.177 356.297 758.557 355.411C758.944 354.524 759.137 353.436 759.137 352.146ZM818.238 361.28V343.011H825.446C826.831 343.011 828.012 343.276 828.987 343.805C829.962 344.329 830.706 345.057 831.217 345.991C831.735 346.918 831.993 347.989 831.993 349.202C831.993 350.415 831.732 351.486 831.208 352.413C830.685 353.341 829.927 354.064 828.934 354.581C827.946 355.098 826.751 355.357 825.348 355.357H820.754V352.262H824.723C825.467 352.262 826.079 352.134 826.561 351.878C827.048 351.616 827.411 351.257 827.649 350.799C827.893 350.335 828.015 349.803 828.015 349.202C828.015 348.595 827.893 348.066 827.649 347.614C827.411 347.156 827.048 346.802 826.561 346.553C826.073 346.297 825.455 346.169 824.705 346.169H822.101V361.28H818.238Z" fill="#CDCDCD"/>
<path d="M216.737 433.485H212.598L218.904 415.217H223.882L230.179 433.485H226.04L221.464 419.391H221.322L216.737 433.485ZM216.478 426.304H226.255V429.319H216.478V426.304ZM294.613 420.471C294.541 419.751 294.235 419.192 293.694 418.794C293.153 418.395 292.418 418.196 291.491 418.196C290.86 418.196 290.328 418.285 289.894 418.464C289.46 418.636 289.127 418.877 288.895 419.186C288.669 419.495 288.556 419.846 288.556 420.239C288.544 420.566 288.612 420.851 288.761 421.095C288.916 421.339 289.127 421.55 289.394 421.728C289.662 421.901 289.971 422.052 290.322 422.183C290.673 422.308 291.048 422.415 291.446 422.504L293.087 422.897C293.884 423.075 294.616 423.313 295.282 423.611C295.948 423.908 296.525 424.274 297.012 424.708C297.5 425.142 297.878 425.653 298.145 426.242C298.419 426.831 298.558 427.506 298.564 428.267C298.558 429.385 298.273 430.354 297.708 431.175C297.149 431.99 296.34 432.623 295.282 433.075C294.229 433.521 292.959 433.744 291.473 433.744C289.998 433.744 288.713 433.518 287.619 433.066C286.531 432.614 285.681 431.945 285.068 431.059C284.461 430.167 284.143 429.064 284.114 427.75H287.851C287.893 428.362 288.068 428.873 288.377 429.284C288.693 429.688 289.112 429.994 289.635 430.203C290.164 430.405 290.762 430.506 291.428 430.506C292.082 430.506 292.65 430.411 293.132 430.22C293.62 430.03 293.997 429.765 294.265 429.427C294.532 429.088 294.666 428.698 294.666 428.258C294.666 427.848 294.544 427.503 294.3 427.223C294.063 426.944 293.712 426.706 293.248 426.51C292.79 426.313 292.228 426.135 291.562 425.974L289.573 425.475C288.033 425.1 286.816 424.514 285.924 423.718C285.032 422.921 284.589 421.847 284.595 420.497C284.589 419.391 284.884 418.425 285.478 417.598C286.079 416.772 286.903 416.126 287.949 415.663C288.996 415.199 290.185 414.967 291.517 414.967C292.873 414.967 294.057 415.199 295.068 415.663C296.085 416.126 296.875 416.772 297.44 417.598C298.005 418.425 298.297 419.382 298.315 420.471H294.613ZM359.962 433.485H353.486V415.217H360.016C361.854 415.217 363.435 415.582 364.762 416.314C366.088 417.039 367.108 418.083 367.821 419.445C368.541 420.807 368.901 422.436 368.901 424.333C368.901 426.236 368.541 427.871 367.821 429.239C367.108 430.607 366.082 431.657 364.744 432.388C363.412 433.119 361.818 433.485 359.962 433.485ZM357.349 430.176H359.802C360.944 430.176 361.904 429.974 362.683 429.569C363.468 429.159 364.057 428.526 364.449 427.669C364.848 426.807 365.047 425.695 365.047 424.333C365.047 422.983 364.848 421.88 364.449 421.024C364.057 420.167 363.471 419.537 362.692 419.133C361.913 418.728 360.953 418.526 359.811 418.526H357.349V430.176ZM429.9 433.485V415.217H441.995V418.401H433.762V422.754H441.193V425.939H433.762V433.485H429.9ZM509.031 421.122C508.906 420.688 508.731 420.304 508.505 419.971C508.279 419.632 508.002 419.347 507.675 419.115C507.354 418.877 506.985 418.695 506.569 418.571C506.159 418.446 505.704 418.383 505.204 418.383C504.271 418.383 503.45 418.615 502.742 419.079C502.041 419.543 501.493 420.218 501.101 421.104C500.708 421.984 500.512 423.06 500.512 424.333C500.512 425.606 500.705 426.688 501.092 427.58C501.479 428.472 502.026 429.153 502.733 429.623C503.441 430.087 504.277 430.319 505.24 430.319C506.114 430.319 506.86 430.164 507.479 429.855C508.103 429.54 508.579 429.096 508.906 428.526C509.239 427.955 509.406 427.28 509.406 426.501L510.191 426.617H505.481V423.709H513.125V426.01C513.125 427.616 512.786 428.995 512.109 430.149C511.431 431.297 510.497 432.183 509.308 432.807C508.118 433.426 506.756 433.735 505.222 433.735C503.509 433.735 502.005 433.357 500.708 432.602C499.412 431.841 498.401 430.762 497.676 429.364C496.956 427.961 496.596 426.296 496.596 424.369C496.596 422.888 496.81 421.568 497.238 420.408C497.673 419.243 498.279 418.255 499.058 417.447C499.837 416.638 500.744 416.022 501.779 415.6C502.814 415.178 503.935 414.967 505.142 414.967C506.177 414.967 507.14 415.118 508.032 415.422C508.924 415.719 509.715 416.141 510.405 416.688C511.101 417.235 511.668 417.887 512.109 418.642C512.549 419.391 512.831 420.218 512.956 421.122H509.031ZM568.351 433.485V415.217H572.213V422.754H580.054V415.217H583.908V433.485H580.054V425.939H572.213V433.485H568.351ZM646.731 415.217H650.549V427.955C650.549 429.132 650.284 430.155 649.755 431.023C649.231 431.891 648.503 432.56 647.569 433.03C646.636 433.5 645.55 433.735 644.313 433.735C643.213 433.735 642.214 433.542 641.316 433.155C640.424 432.763 639.717 432.168 639.193 431.371C638.67 430.568 638.411 429.56 638.417 428.347H642.262C642.274 428.829 642.372 429.242 642.556 429.587C642.746 429.926 643.005 430.188 643.332 430.372C643.665 430.55 644.058 430.64 644.51 430.64C644.985 430.64 645.387 430.539 645.714 430.336C646.047 430.128 646.3 429.825 646.472 429.427C646.645 429.028 646.731 428.537 646.731 427.955V415.217ZM711.88 433.485V415.217H715.742V423.272H715.983L722.557 415.217H727.187L720.408 423.396L727.267 433.485H722.647L717.642 425.974L715.742 428.294V433.485H711.88ZM787.336 433.485V415.217H791.199V430.301H799.031V433.485H787.336Z" fill="#CDCDCD"/>
</svg>
