<svg width="1722" height="548" viewBox="0 0 1722 548" fill="none" xmlns="http://www.w3.org/2000/svg">
<path d="M1715.47 6.55981H6.54175V540.599H1715.47V6.55981Z" stroke="#CDCDCD"/>
<path d="M1003.38 220.182V291.382H967.823V362.592H1110.18V291.382V220.182H1003.38Z" stroke="#CDCDCD"/>
<path d="M255.768 42.1625H184.562V113.368H255.768V42.1625Z" stroke="#CDCDCD"/>
<path d="M326.973 42.1625H255.767V113.368H326.973V42.1625Z" stroke="#CDCDCD"/>
<path d="M398.178 42.1625H326.973V113.368H398.178V42.1625Z" stroke="#CDCDCD"/>
<path d="M469.383 42.1625H398.178V113.368H469.383V42.1625Z" stroke="#CDCDCD"/>
<path d="M576.191 42.1625H504.986V113.368H576.191V42.1625Z" stroke="#CDCDCD"/>
<path d="M718.602 42.1625H647.396V113.368H718.602V42.1625Z" stroke="#CDCDCD"/>
<path d="M789.807 42.1625H718.602V113.368H789.807V42.1625Z" stroke="#CDCDCD"/>
<path d="M896.615 42.1625H825.41V113.368H896.615V42.1625Z" stroke="#CDCDCD"/>
<path d="M1039.03 42.1625H967.82V113.368H1039.03V42.1625Z" stroke="#CDCDCD"/>
<path d="M1110.23 42.1625H1039.03V113.368H1110.23V42.1625Z" stroke="#CDCDCD"/>
<path d="M1217.04 42.1625H1145.83V113.368H1217.04V42.1625Z" stroke="#CDCDCD"/>
<path d="M1359.45 42.1625H1288.24V113.368H1359.45V42.1625Z" stroke="#CDCDCD"/>
<path d="M1217.04 148.979H1145.83V220.185H1217.04V148.979Z" stroke="#CDCDCD"/>
<path d="M1359.45 148.979H1288.24V220.185H1359.45V148.979Z" stroke="#CDCDCD"/>
<path d="M1217.04 220.185H1145.83V291.39H1217.04V220.185Z" stroke="#CDCDCD"/>
<path d="M1359.45 220.185H1288.24V291.39H1359.45V220.185Z" stroke="#CDCDCD"/>
<path d="M1217.04 433.8H1145.83V505.006H1217.04V433.8Z" stroke="#CDCDCD"/>
<path d="M1359.45 433.8H1288.24V505.006H1359.45V433.8Z" stroke="#CDCDCD"/>
<path d="M1608.67 148.979H1537.46V220.185H1608.67V148.979Z" stroke="#CDCDCD"/>
<path d="M1679.87 148.979H1608.67V220.185H1679.87V148.979Z" stroke="#CDCDCD"/>
<path d="M1466.26 220.185H1395.05V291.39H1466.26V220.185Z" stroke="#CDCDCD"/>
<path d="M1608.67 220.185H1537.46V291.39H1608.67V220.185Z" stroke="#CDCDCD"/>
<path d="M1679.87 220.185H1608.67V362.595H1679.87V220.185Z" stroke="#CDCDCD"/>
<path d="M1466.26 291.39H1395.05V362.595H1466.26V291.39Z" stroke="#CDCDCD"/>
<path d="M1608.67 291.39H1537.46V362.595H1608.67V291.39Z" stroke="#CDCDCD"/>
<path d="M1466.26 362.595H1395.05V433.8H1466.26V362.595Z" stroke="#CDCDCD"/>
<path d="M1608.67 362.595H1537.46V433.8H1608.67V362.595Z" stroke="#CDCDCD"/>
<path d="M1537.46 433.8H1395.05V505.006H1537.46V433.8Z" stroke="#CDCDCD"/>
<path d="M1608.67 433.8H1537.46V505.006H1608.67V433.8Z" stroke="#CDCDCD"/>
<path d="M1679.87 362.595H1608.67V505.006H1679.87V362.595Z" stroke="#CDCDCD"/>
<path d="M113.35 148.979H42.1445V220.185H113.35V148.979Z" stroke="#CDCDCD"/>
<path d="M184.555 148.979H113.35V220.185H184.555V148.979Z" stroke="#CDCDCD"/>
<path d="M255.768 148.979H184.562V220.185H255.768V148.979Z" stroke="#CDCDCD"/>
<path d="M326.973 148.979H255.767V220.185H326.973V148.979Z" stroke="#CDCDCD"/>
<path d="M398.178 148.979H326.973V220.185H398.178V148.979Z" stroke="#CDCDCD"/>
<path d="M469.383 148.979H398.178V220.185H469.383V148.979Z" stroke="#CDCDCD"/>
<path d="M540.589 148.979H469.383V220.185H540.589V148.979Z" stroke="#CDCDCD"/>
<path d="M611.794 148.979H540.588V220.185H611.794V148.979Z" stroke="#CDCDCD"/>
<path d="M682.999 148.979H611.794V220.185H682.999V148.979Z" stroke="#CDCDCD"/>
<path d="M754.204 148.979H682.999V220.185H754.204V148.979Z" stroke="#CDCDCD"/>
<path d="M825.41 148.979H754.204V220.185H825.41V148.979Z" stroke="#CDCDCD"/>
<path d="M896.615 148.979H825.41V220.185H896.615V148.979Z" stroke="#CDCDCD"/>
<path d="M967.82 148.979H896.615V220.185H967.82V148.979Z" stroke="#CDCDCD"/>
<path d="M1039.03 148.979H967.82V220.185H1039.03V148.979Z" stroke="#CDCDCD"/>
<path d="M1110.23 148.979H1039.03V220.185H1110.23V148.979Z" stroke="#CDCDCD"/>
<path d="M148.952 220.185H42.1445V291.39H148.952V220.185Z" stroke="#CDCDCD"/>
<path d="M220.158 220.185H148.952V291.39H220.158V220.185Z" stroke="#CDCDCD"/>
<path d="M932.218 220.185H861.012V291.39H932.218V220.185Z" stroke="#CDCDCD"/>
<path d="M1003.42 220.185H932.218V291.39H1003.42V220.185Z" stroke="#CDCDCD"/>
<path d="M184 292H42V362H184V292Z" stroke="#CDCDCD"/>
<path d="M896.615 291.39H825.41V362.595H896.615V291.39Z" stroke="#CDCDCD"/>
<path d="M967.82 291.39H896.615V362.595H967.82V291.39Z" stroke="#CDCDCD"/>
<path d="M291.37 362.595H220.165V433.8H291.37V362.595Z" stroke="#CDCDCD"/>
<path d="M362.575 362.595H291.37V433.8H362.575V362.595Z" stroke="#CDCDCD"/>
<path d="M433.78 362.595H362.575V433.8H433.78V362.595Z" stroke="#CDCDCD"/>
<path d="M504.986 362.595H433.781V433.8H504.986V362.595Z" stroke="#CDCDCD"/>
<path d="M576.191 362.595H504.986V433.8H576.191V362.595Z" stroke="#CDCDCD"/>
<path d="M647.396 362.595H576.191V433.8H647.396V362.595Z" stroke="#CDCDCD"/>
<path d="M718.602 362.595H647.396V433.8H718.602V362.595Z" stroke="#CDCDCD"/>
<path d="M789.807 362.595H718.602V433.8H789.807V362.595Z" stroke="#CDCDCD"/>
<path d="M861.012 362.595H789.807V433.8H861.012V362.595Z" stroke="#CDCDCD"/>
<path d="M932.218 362.595H861.012V433.8H932.218V362.595Z" stroke="#CDCDCD"/>
<path d="M1110.23 362.595H932.218V433.8H1110.23V362.595Z" stroke="#CDCDCD"/>
<path d="M220.158 362.595H42.1445V433.8H220.158V362.595Z" stroke="#CDCDCD"/>
<path d="M113.35 433.8H42.1445V505.006H113.35V433.8Z" stroke="#CDCDCD"/>
<path d="M220.158 433.8H113.35V505.006H220.158V433.8Z" stroke="#CDCDCD"/>
<path d="M326.973 433.8H220.165V505.006H326.973V433.8Z" stroke="#CDCDCD"/>
<path d="M754.204 433.8H326.973V505.006H754.204V433.8Z" stroke="#CDCDCD"/>
<path d="M861.012 433.8H754.204V505.006H861.012V433.8Z" stroke="#CDCDCD"/>
<path d="M967.82 433.8H861.012V505.006H967.82V433.8Z" stroke="#CDCDCD"/>
<path d="M1110 434H968V505H1110V434Z" stroke="#CDCDCD"/>
<path d="M113.35 42.1625H42.1445V113.368H113.35V42.1625Z" stroke="#CDCDCD"/>
<path d="M1288.24 42.1625H1217.04V113.368H1288.24V42.1625Z" stroke="#CDCDCD"/>
<path d="M1288.24 220.185H1217.04V291.39H1288.24V220.185Z" stroke="#CDCDCD"/>
<path d="M647.396 42.1625H576.191V113.368H647.396V42.1625Z" stroke="#CDCDCD"/>
<path d="M967.82 42.1625H896.615V113.368H967.82V42.1625Z" stroke="#CDCDCD"/>
<path d="M1288.24 433.8H1217.04V505.006H1288.24V433.8Z" stroke="#CDCDCD"/>
<path d="M1288.24 362.595H1217.04V433.8H1288.24V362.595Z" stroke="#CDCDCD"/>
<path d="M1537.46 362.595H1466.26V433.8H1537.46V362.595Z" stroke="#CDCDCD"/>
<path d="M1537.46 291.39H1466.26V362.595H1537.46V291.39Z" stroke="#CDCDCD"/>
<path d="M1537.46 220.185H1466.26V291.39H1537.46V220.185Z" stroke="#CDCDCD"/>
<path d="M1537.46 148.979H1466.26V220.185H1537.46V148.979Z" stroke="#CDCDCD"/>
<path d="M1466.26 148.979H1395.05V220.185H1466.26V148.979Z" stroke="#CDCDCD"/>
<path d="M1288.24 148.979H1217.04V220.185H1288.24V148.979Z" stroke="#CDCDCD"/>
<path d="M291.37 220.185H220.165V291.39H291.37V220.185Z" stroke="#00E494"/>
<path d="M362.575 220.185H291.37V291.39H362.575V220.185Z" stroke="#00E494"/>
<path d="M433.78 220.185H362.575V291.39H433.78V220.185Z" stroke="#00E494"/>
<path d="M504.986 220.185H433.781V291.39H504.986V220.185Z" stroke="#00E494"/>
<path d="M576.191 220.185H504.986V291.39H576.191V220.185Z" stroke="#00E494"/>
<path d="M647.396 220.185H576.191V291.39H647.396V220.185Z" stroke="#00E494"/>
<path d="M718.602 220.185H647.396V291.39H718.602V220.185Z" stroke="#00E494"/>
<path d="M789.807 220.185H718.602V291.39H789.807V220.185Z" stroke="#00E494"/>
<path d="M861.012 220.185H789.807V291.39H861.012V220.185Z" stroke="#00E494"/>
<path d="M255.768 291.39H184.562V362.595H255.768V291.39Z" stroke="#00E494"/>
<path d="M326.973 291.39H255.767V362.595H326.973V291.39Z" stroke="#00E494"/>
<path d="M398.178 291.39H326.973V362.595H398.178V291.39Z" stroke="#00E494"/>
<path d="M469.383 291.39H398.178V362.595H469.383V291.39Z" stroke="#00E494"/>
<path d="M540.589 291.39H469.383V362.595H540.589V291.39Z" stroke="#00E494"/>
<path d="M611.794 291.39H540.588V362.595H611.794V291.39Z" stroke="#00E494"/>
<path d="M682.999 291.39H611.794V362.595H682.999V291.39Z" stroke="#00E494"/>
<path d="M754.204 291.39H682.999V362.595H754.204V291.39Z" stroke="#00E494"/>
<path d="M825.41 291.39H754.204V362.595H825.41V291.39Z" stroke="#00E494"/>
<path d="M1679.87 42.1625H1395.05V113.368H1679.87V42.1625Z" stroke="#CDCDCD"/>
<path d="M1473.7 70.6445H1445.22V84.8856H1473.7V70.6445Z" stroke="#CDCDCD"/>
<path d="M1551.7 70.6445H1523.22V84.8856H1551.7V70.6445Z" stroke="#CDCDCD"/>
<path d="M1629.69 70.6445H1601.21V84.8856H1629.69V70.6445Z" stroke="#CDCDCD"/>
<path d="M251.7 262.28L246.473 244.011H250.692L253.716 256.705H253.868L257.204 244.011H260.817L264.144 256.732H264.304L267.328 244.011H271.548L266.32 262.28H262.556L259.077 250.336H258.934L255.464 262.28H251.7ZM320.125 262.28V244.011H332.435V247.196H323.988V251.549H331.802V254.733H323.988V259.095H332.471V262.28H320.125ZM393.644 262.28V244.011H400.851C402.231 244.011 403.408 244.258 404.384 244.752C405.365 245.239 406.111 245.932 406.623 246.83C407.14 247.722 407.399 248.772 407.399 249.979C407.399 251.192 407.137 252.236 406.614 253.11C406.09 253.978 405.332 254.644 404.339 255.108C403.352 255.572 402.156 255.804 400.753 255.804H395.927V252.7H400.129C400.866 252.7 401.479 252.599 401.966 252.396C402.454 252.194 402.817 251.891 403.054 251.487C403.298 251.082 403.42 250.58 403.42 249.979C403.42 249.372 403.298 248.861 403.054 248.445C402.817 248.028 402.451 247.713 401.957 247.499C401.47 247.279 400.854 247.169 400.111 247.169H397.506V262.28H393.644ZM403.509 253.966L408.05 262.28H403.786L399.344 253.966H403.509ZM461.756 247.196V244.011H476.76V247.196H471.167V262.28H467.349V247.196H461.756ZM530.485 244.011H534.811L538.977 251.879H539.155L543.321 244.011H547.647L540.984 255.822V262.28H537.148V255.822L530.485 244.011ZM613.365 244.011H617.228V255.875C617.228 257.207 616.909 258.373 616.273 259.372C615.643 260.371 614.76 261.15 613.624 261.709C612.488 262.262 611.165 262.539 609.654 262.539C608.138 262.539 606.812 262.262 605.676 261.709C604.54 261.15 603.657 260.371 603.026 259.372C602.396 258.373 602.081 257.207 602.081 255.875V244.011H605.943V255.545C605.943 256.241 606.095 256.859 606.398 257.401C606.708 257.942 607.142 258.367 607.701 258.676C608.26 258.985 608.911 259.14 609.654 259.14C610.404 259.14 611.055 258.985 611.608 258.676C612.167 258.367 612.598 257.942 612.901 257.401C613.21 256.859 613.365 256.241 613.365 255.545V244.011ZM688.219 244.011V262.28H684.357V244.011H688.219ZM766.323 253.146C766.323 255.138 765.945 256.833 765.19 258.23C764.441 259.628 763.418 260.695 762.121 261.433C760.831 262.164 759.38 262.53 757.768 262.53C756.145 262.53 754.688 262.161 753.397 261.424C752.107 260.686 751.087 259.619 750.338 258.221C749.588 256.824 749.214 255.132 749.214 253.146C749.214 251.153 749.588 249.459 750.338 248.061C751.087 246.664 752.107 245.599 753.397 244.868C754.688 244.13 756.145 243.762 757.768 243.762C759.38 243.762 760.831 244.13 762.121 244.868C763.418 245.599 764.441 246.664 765.19 248.061C765.945 249.459 766.323 251.153 766.323 253.146ZM762.407 253.146C762.407 251.855 762.214 250.767 761.827 249.881C761.446 248.995 760.908 248.323 760.212 247.865C759.517 247.407 758.702 247.178 757.768 247.178C756.835 247.178 756.02 247.407 755.324 247.865C754.628 248.323 754.087 248.995 753.701 249.881C753.32 250.767 753.13 251.855 753.13 253.146C753.13 254.436 753.32 255.524 753.701 256.411C754.087 257.297 754.628 257.969 755.324 258.426C756.02 258.884 756.835 259.113 757.768 259.113C758.702 259.113 759.517 258.884 760.212 258.426C760.908 257.969 761.446 257.297 761.827 256.411C762.214 255.524 762.407 254.436 762.407 253.146ZM821.508 262.28V244.011H828.716C830.101 244.011 831.282 244.276 832.257 244.805C833.232 245.329 833.976 246.057 834.487 246.991C835.004 247.918 835.263 248.989 835.263 250.202C835.263 251.415 835.001 252.486 834.478 253.413C833.955 254.341 833.197 255.064 832.203 255.581C831.216 256.098 830.021 256.357 828.617 256.357H824.024V253.262H827.993C828.736 253.262 829.349 253.134 829.831 252.878C830.318 252.616 830.681 252.257 830.919 251.799C831.163 251.335 831.285 250.803 831.285 250.202C831.285 249.595 831.163 249.066 830.919 248.614C830.681 248.156 830.318 247.802 829.831 247.553C829.343 247.297 828.725 247.169 827.975 247.169H825.371V262.28H821.508Z" fill="#CDCDCD"/>
<path d="M216.737 333.485H212.598L218.904 315.217H223.882L230.179 333.485H226.04L221.464 319.391H221.322L216.737 333.485ZM216.478 326.304H226.255V329.319H216.478V326.304ZM294.613 320.471C294.541 319.751 294.235 319.192 293.694 318.794C293.153 318.395 292.418 318.196 291.491 318.196C290.86 318.196 290.328 318.285 289.894 318.464C289.46 318.636 289.127 318.877 288.895 319.186C288.669 319.495 288.556 319.846 288.556 320.239C288.544 320.566 288.612 320.851 288.761 321.095C288.916 321.339 289.127 321.55 289.394 321.728C289.662 321.901 289.971 322.052 290.322 322.183C290.673 322.308 291.048 322.415 291.446 322.504L293.087 322.897C293.884 323.075 294.616 323.313 295.282 323.611C295.948 323.908 296.525 324.274 297.012 324.708C297.5 325.142 297.878 325.653 298.145 326.242C298.419 326.831 298.558 327.506 298.564 328.267C298.558 329.385 298.273 330.354 297.708 331.175C297.149 331.99 296.34 332.623 295.282 333.075C294.229 333.521 292.959 333.744 291.473 333.744C289.998 333.744 288.713 333.518 287.619 333.066C286.531 332.614 285.681 331.945 285.068 331.059C284.461 330.167 284.143 329.064 284.114 327.75H287.851C287.893 328.362 288.068 328.873 288.377 329.284C288.693 329.688 289.112 329.994 289.635 330.203C290.164 330.405 290.762 330.506 291.428 330.506C292.082 330.506 292.65 330.411 293.132 330.22C293.62 330.03 293.997 329.765 294.265 329.427C294.532 329.088 294.666 328.698 294.666 328.258C294.666 327.848 294.544 327.503 294.3 327.223C294.063 326.944 293.712 326.706 293.248 326.51C292.79 326.313 292.228 326.135 291.562 325.974L289.573 325.475C288.033 325.1 286.816 324.514 285.924 323.718C285.032 322.921 284.589 321.847 284.595 320.497C284.589 319.391 284.884 318.425 285.478 317.598C286.079 316.772 286.903 316.126 287.949 315.663C288.996 315.199 290.185 314.967 291.517 314.967C292.873 314.967 294.057 315.199 295.068 315.663C296.085 316.126 296.875 316.772 297.44 317.598C298.005 318.425 298.297 319.382 298.315 320.471H294.613ZM359.962 333.485H353.486V315.217H360.016C361.854 315.217 363.435 315.582 364.762 316.314C366.088 317.039 367.108 318.083 367.821 319.445C368.541 320.807 368.901 322.436 368.901 324.333C368.901 326.236 368.541 327.871 367.821 329.239C367.108 330.607 366.082 331.657 364.744 332.388C363.412 333.119 361.818 333.485 359.962 333.485ZM357.349 330.176H359.802C360.944 330.176 361.904 329.974 362.683 329.569C363.468 329.159 364.057 328.526 364.449 327.669C364.848 326.807 365.047 325.695 365.047 324.333C365.047 322.983 364.848 321.88 364.449 321.024C364.057 320.167 363.471 319.537 362.692 319.133C361.913 318.728 360.953 318.526 359.811 318.526H357.349V330.176ZM424.086 333.485V315.217H436.182V318.401H427.948V322.754H435.379V325.939H427.948V333.485H424.086ZM509.031 321.122C508.906 320.688 508.731 320.304 508.505 319.971C508.279 319.632 508.002 319.347 507.675 319.115C507.354 318.877 506.985 318.695 506.569 318.571C506.159 318.446 505.704 318.383 505.204 318.383C504.271 318.383 503.45 318.615 502.742 319.079C502.041 319.543 501.493 320.218 501.101 321.104C500.708 321.984 500.512 323.06 500.512 324.333C500.512 325.606 500.705 326.688 501.092 327.58C501.479 328.472 502.026 329.153 502.733 329.623C503.441 330.087 504.277 330.319 505.24 330.319C506.114 330.319 506.86 330.164 507.479 329.855C508.103 329.54 508.579 329.096 508.906 328.526C509.239 327.955 509.406 327.28 509.406 326.501L510.191 326.617H505.481V323.709H513.125V326.01C513.125 327.616 512.786 328.995 512.109 330.149C511.431 331.297 510.497 332.183 509.308 332.807C508.118 333.426 506.756 333.735 505.222 333.735C503.509 333.735 502.005 333.357 500.708 332.602C499.412 331.841 498.401 330.762 497.676 329.364C496.956 327.961 496.596 326.296 496.596 324.369C496.596 322.888 496.81 321.568 497.238 320.408C497.673 319.243 498.279 318.255 499.058 317.447C499.837 316.638 500.744 316.022 501.779 315.6C502.814 315.178 503.935 314.967 505.142 314.967C506.177 314.967 507.14 315.118 508.032 315.422C508.924 315.719 509.715 316.141 510.405 316.688C511.101 317.235 511.668 317.887 512.109 318.642C512.549 319.391 512.831 320.218 512.956 321.122H509.031ZM568.351 333.485V315.217H572.213V322.754H580.054V315.217H583.908V333.485H580.054V325.939H572.213V333.485H568.351ZM646.731 315.217H650.549V327.955C650.549 329.132 650.284 330.155 649.755 331.023C649.231 331.891 648.503 332.56 647.569 333.03C646.636 333.5 645.55 333.735 644.313 333.735C643.213 333.735 642.214 333.542 641.316 333.155C640.424 332.763 639.717 332.168 639.193 331.371C638.67 330.568 638.411 329.56 638.417 328.347H642.262C642.274 328.829 642.372 329.242 642.556 329.587C642.746 329.926 643.005 330.188 643.332 330.372C643.665 330.55 644.058 330.64 644.51 330.64C644.985 330.64 645.387 330.539 645.714 330.336C646.047 330.128 646.3 329.825 646.472 329.427C646.645 329.028 646.731 328.537 646.731 327.955V315.217ZM711.88 333.485V315.217H715.742V323.272H715.983L722.557 315.217H727.187L720.408 323.396L727.267 333.485H722.647L717.642 325.974L715.742 328.294V333.485H711.88ZM781.523 333.485V315.217H785.385V330.301H793.217V333.485H781.523Z" fill="#CDCDCD"/>
</svg>
