<svg width="1800" height="1539" viewBox="0 0 1800 1539" fill="none" xmlns="http://www.w3.org/2000/svg">
<path d="M29.0322 87.1132H1480.65M1770.97 203.264H29.0322M29.0322 319.415H1770.97M319.355 29.0377V377.491M609.677 377.491V29.0377M900 29.0377V377.491M1190.32 377.491V29.0377M1480.65 29.0377V377.491" stroke="#CDCDCD" stroke-linecap="round" stroke-linejoin="round" stroke-dasharray="2 4"/>
<path d="M1770.97 29.0377H29.0322V377.491H1770.97V29.0377Z" stroke="#CDCDCD" stroke-linecap="round" stroke-linejoin="round"/>
<path d="M29.0322 464.604H1480.65M1770.97 580.755H29.0322M29.0322 696.906H1770.97M319.355 406.528V754.981M609.677 754.981V406.528M900 406.528V754.981M1190.32 754.981V406.528M1480.65 406.528V754.981" stroke="#CDCDCD" stroke-linecap="round" stroke-linejoin="round" stroke-dasharray="2 4"/>
<path d="M1770.97 406.528H29.0322V754.981H1770.97V406.528Z" stroke="#CDCDCD" stroke-linecap="round" stroke-linejoin="round"/>
<path d="M29.0322 842.094H1480.65M1770.97 958.245H29.0322M29.0322 1074.4H1770.97M319.355 784.019V1132.47M609.677 1132.47V784.019M900 784.019V1132.47M1190.32 1132.47V784.019M1480.65 784.019V1132.47" stroke="#CDCDCD" stroke-linecap="round" stroke-linejoin="round" stroke-dasharray="2 4"/>
<path d="M1770.97 784.019H29.0322V1132.47H1770.97V784.019Z" stroke="#CDCDCD" stroke-linecap="round" stroke-linejoin="round"/>
<path d="M29.0322 1219.58H1480.65M1770.97 1335.74H29.0322M29.0322 1451.89H1770.97M319.355 1161.51V1509.96M609.677 1509.96V1161.51M900 1161.51V1509.96M1190.32 1509.96V1161.51M1480.65 1161.51V1509.96" stroke="#CDCDCD" stroke-linecap="round" stroke-linejoin="round" stroke-dasharray="2 4"/>
<path d="M1770.97 1161.51H29.0322V1509.96H1770.97V1161.51Z" stroke="#CDCDCD" stroke-linecap="round" stroke-linejoin="round"/>
<path d="M29.0322 203.264C72.5806 145.189 116.129 87.1132 174.194 87.1132C290.323 87.1132 348.387 319.415 464.516 319.415C580.645 319.415 638.71 87.1132 754.839 87.1132C870.968 87.1132 929.032 319.415 1045.16 319.415C1161.29 319.415 1219.35 87.1132 1335.48 87.1132C1451.61 87.1132 1509.68 319.415 1625.81 319.415C1683.87 319.415 1727.42 261.34 1770.97 203.264" stroke="#00E494" stroke-width="3" stroke-linecap="round" stroke-linejoin="round"/>
<path d="M29.0322 464.604H319.355V696.906H609.677V464.604H900V696.906H1190.32V464.604H1480.65V696.906H1770.97" stroke="#00E494" stroke-width="3" stroke-linecap="round" stroke-linejoin="round"/>
<path d="M29.0322 958.245L174.194 842.094L464.516 1074.4L754.839 842.094L1045.16 1074.4L1335.48 842.094L1625.81 1074.4L1770.97 958.245" stroke="#00E494" stroke-width="3" stroke-linecap="round" stroke-linejoin="round"/>
<path d="M29.0322 1335.74L319.355 1219.58V1451.89L900 1219.58V1451.89L1480.65 1219.58V1451.89L1770.97 1335.74" stroke="#00E494" stroke-width="3" stroke-linecap="round" stroke-linejoin="round"/>
<path d="M1583.08 1235.7C1582.94 1234.49 1582.38 1233.55 1581.39 1232.88C1580.4 1232.21 1579.16 1231.87 1577.66 1231.87C1576.58 1231.87 1575.65 1232.04 1574.87 1232.38C1574.08 1232.72 1573.47 1233.18 1573.04 1233.77C1572.61 1234.35 1572.4 1235.01 1572.4 1235.75C1572.4 1236.37 1572.55 1236.91 1572.84 1237.36C1573.13 1237.81 1573.52 1238.19 1574 1238.5C1574.48 1238.79 1575 1239.05 1575.56 1239.25C1576.11 1239.45 1576.65 1239.61 1577.16 1239.74L1579.71 1240.4C1580.55 1240.61 1581.41 1240.88 1582.28 1241.23C1583.16 1241.58 1583.97 1242.04 1584.72 1242.61C1585.47 1243.18 1586.08 1243.89 1586.54 1244.73C1587.01 1245.58 1587.24 1246.59 1587.24 1247.76C1587.24 1249.25 1586.86 1250.56 1586.09 1251.71C1585.33 1252.87 1584.23 1253.77 1582.78 1254.44C1581.34 1255.1 1579.6 1255.43 1577.55 1255.43C1575.59 1255.43 1573.9 1255.12 1572.46 1254.5C1571.03 1253.88 1569.91 1253 1569.1 1251.86C1568.29 1250.7 1567.85 1249.34 1567.76 1247.76H1571.72C1571.8 1248.71 1572.11 1249.5 1572.64 1250.13C1573.19 1250.75 1573.88 1251.22 1574.73 1251.52C1575.58 1251.82 1576.51 1251.97 1577.53 1251.97C1578.64 1251.97 1579.64 1251.8 1580.51 1251.45C1581.38 1251.09 1582.07 1250.59 1582.58 1249.96C1583.08 1249.32 1583.33 1248.58 1583.33 1247.73C1583.33 1246.95 1583.11 1246.32 1582.67 1245.82C1582.23 1245.33 1581.64 1244.92 1580.89 1244.59C1580.15 1244.27 1579.31 1243.98 1578.37 1243.74L1575.28 1242.89C1573.18 1242.32 1571.52 1241.48 1570.29 1240.38C1569.07 1239.27 1568.46 1237.8 1568.46 1235.98C1568.46 1234.47 1568.87 1233.15 1569.69 1232.03C1570.51 1230.9 1571.62 1230.03 1573.01 1229.41C1574.41 1228.78 1575.99 1228.46 1577.74 1228.46C1579.52 1228.46 1581.08 1228.77 1582.44 1229.39C1583.8 1230.02 1584.87 1230.87 1585.66 1231.96C1586.44 1233.05 1586.85 1234.29 1586.89 1235.7H1583.08ZM1597.37 1255.43C1596.13 1255.43 1595 1255.2 1594 1254.74C1592.99 1254.28 1592.19 1253.6 1591.61 1252.71C1591.03 1251.83 1590.74 1250.74 1590.74 1249.45C1590.74 1248.34 1590.95 1247.43 1591.38 1246.72C1591.8 1246 1592.38 1245.43 1593.1 1245.02C1593.83 1244.6 1594.64 1244.28 1595.53 1244.07C1596.43 1243.86 1597.34 1243.69 1598.27 1243.58C1599.44 1243.45 1600.4 1243.34 1601.13 1243.25C1601.86 1243.16 1602.4 1243.01 1602.73 1242.8C1603.06 1242.6 1603.23 1242.27 1603.23 1241.81V1241.72C1603.23 1240.6 1602.91 1239.74 1602.28 1239.12C1601.66 1238.51 1600.73 1238.2 1599.49 1238.2C1598.21 1238.2 1597.19 1238.49 1596.45 1239.06C1595.72 1239.62 1595.21 1240.25 1594.93 1240.94L1591.34 1240.12C1591.76 1238.93 1592.39 1237.96 1593.2 1237.23C1594.03 1236.49 1594.98 1235.95 1596.05 1235.62C1597.13 1235.28 1598.26 1235.11 1599.44 1235.11C1600.23 1235.11 1601.06 1235.2 1601.94 1235.39C1602.82 1235.57 1603.65 1235.9 1604.42 1236.39C1605.19 1236.87 1605.83 1237.57 1606.32 1238.47C1606.81 1239.37 1607.06 1240.53 1607.06 1241.96V1255H1603.33V1252.32H1603.18C1602.93 1252.81 1602.56 1253.3 1602.06 1253.77C1601.57 1254.25 1600.93 1254.65 1600.16 1254.96C1599.38 1255.28 1598.45 1255.43 1597.37 1255.43ZM1598.2 1252.37C1599.26 1252.37 1600.16 1252.16 1600.91 1251.74C1601.67 1251.32 1602.25 1250.78 1602.64 1250.1C1603.04 1249.42 1603.24 1248.69 1603.24 1247.92V1245.39C1603.1 1245.52 1602.84 1245.65 1602.45 1245.77C1602.06 1245.88 1601.62 1245.98 1601.13 1246.06C1600.64 1246.14 1600.15 1246.21 1599.69 1246.28C1599.22 1246.34 1598.82 1246.39 1598.51 1246.43C1597.77 1246.53 1597.09 1246.69 1596.48 1246.91C1595.87 1247.13 1595.39 1247.45 1595.02 1247.87C1594.66 1248.28 1594.48 1248.82 1594.48 1249.5C1594.48 1250.45 1594.83 1251.16 1595.53 1251.65C1596.23 1252.13 1597.12 1252.37 1598.2 1252.37ZM1616.41 1255L1610.63 1235.36H1614.58L1618.43 1249.78H1618.62L1622.48 1235.36H1626.43L1630.27 1249.72H1630.46L1634.28 1235.36H1638.23L1632.47 1255H1628.57L1624.58 1240.82H1624.29L1620.3 1255H1616.41ZM1651.03 1235.36V1238.43H1640.3V1235.36H1651.03ZM1643.18 1230.66H1647V1249.23C1647 1249.98 1647.11 1250.53 1647.33 1250.91C1647.55 1251.28 1647.84 1251.53 1648.19 1251.66C1648.55 1251.79 1648.93 1251.86 1649.35 1251.86C1649.66 1251.86 1649.93 1251.83 1650.16 1251.79C1650.39 1251.75 1650.57 1251.71 1650.69 1251.69L1651.38 1254.85C1651.16 1254.93 1650.85 1255.02 1650.44 1255.1C1650.03 1255.2 1649.52 1255.25 1648.9 1255.26C1647.9 1255.27 1646.96 1255.09 1646.09 1254.72C1645.22 1254.34 1644.52 1253.76 1643.98 1252.98C1643.45 1252.2 1643.18 1251.21 1643.18 1250.03V1230.66ZM1663.31 1255.4C1661.47 1255.4 1659.87 1254.97 1658.5 1254.13C1657.12 1253.29 1656.06 1252.11 1655.3 1250.59C1654.54 1249.07 1654.16 1247.3 1654.16 1245.27C1654.16 1243.23 1654.54 1241.45 1655.3 1239.93C1656.06 1238.4 1657.12 1237.22 1658.5 1236.37C1659.87 1235.53 1661.47 1235.11 1663.31 1235.11C1665.16 1235.11 1666.76 1235.53 1668.13 1236.37C1669.51 1237.22 1670.57 1238.4 1671.33 1239.93C1672.09 1241.45 1672.47 1243.23 1672.47 1245.27C1672.47 1247.3 1672.09 1249.07 1671.33 1250.59C1670.57 1252.11 1669.51 1253.29 1668.13 1254.13C1666.76 1254.97 1665.16 1255.4 1663.31 1255.4ZM1663.33 1252.19C1664.52 1252.19 1665.51 1251.87 1666.29 1251.24C1667.08 1250.61 1667.66 1249.77 1668.03 1248.72C1668.42 1247.67 1668.61 1246.52 1668.61 1245.26C1668.61 1244.01 1668.42 1242.86 1668.03 1241.81C1667.66 1240.75 1667.08 1239.9 1666.29 1239.26C1665.51 1238.62 1664.52 1238.3 1663.33 1238.3C1662.13 1238.3 1661.13 1238.62 1660.34 1239.26C1659.55 1239.9 1658.97 1240.75 1658.58 1241.81C1658.21 1242.86 1658.02 1244.01 1658.02 1245.26C1658.02 1246.52 1658.21 1247.67 1658.58 1248.72C1658.97 1249.77 1659.55 1250.61 1660.34 1251.24C1661.13 1251.87 1662.13 1252.19 1663.33 1252.19ZM1685.01 1255.4C1683.17 1255.4 1681.56 1254.97 1680.19 1254.13C1678.81 1253.29 1677.75 1252.11 1676.99 1250.59C1676.23 1249.07 1675.85 1247.3 1675.85 1245.27C1675.85 1243.23 1676.23 1241.45 1676.99 1239.93C1677.75 1238.4 1678.81 1237.22 1680.19 1236.37C1681.56 1235.53 1683.17 1235.11 1685.01 1235.11C1686.85 1235.11 1688.45 1235.53 1689.83 1236.37C1691.2 1237.22 1692.26 1238.4 1693.02 1239.93C1693.78 1241.45 1694.16 1243.23 1694.16 1245.27C1694.16 1247.3 1693.78 1249.07 1693.02 1250.59C1692.26 1252.11 1691.2 1253.29 1689.83 1254.13C1688.45 1254.97 1686.85 1255.4 1685.01 1255.4ZM1685.02 1252.19C1686.21 1252.19 1687.2 1251.87 1687.99 1251.24C1688.77 1250.61 1689.35 1249.77 1689.72 1248.72C1690.11 1247.67 1690.3 1246.52 1690.3 1245.26C1690.3 1244.01 1690.11 1242.86 1689.72 1241.81C1689.35 1240.75 1688.77 1239.9 1687.99 1239.26C1687.2 1238.62 1686.21 1238.3 1685.02 1238.3C1683.82 1238.3 1682.82 1238.62 1682.03 1239.26C1681.24 1239.9 1680.66 1240.75 1680.28 1241.81C1679.9 1242.86 1679.71 1244.01 1679.71 1245.26C1679.71 1246.52 1679.9 1247.67 1680.28 1248.72C1680.66 1249.77 1681.24 1250.61 1682.03 1251.24C1682.82 1251.87 1683.82 1252.19 1685.02 1252.19ZM1707.59 1235.36V1238.43H1696.87V1235.36H1707.59ZM1699.74 1230.66H1703.57V1249.23C1703.57 1249.98 1703.68 1250.53 1703.9 1250.91C1704.12 1251.28 1704.41 1251.53 1704.75 1251.66C1705.11 1251.79 1705.5 1251.86 1705.92 1251.86C1706.22 1251.86 1706.49 1251.83 1706.72 1251.79C1706.95 1251.75 1707.13 1251.71 1707.26 1251.69L1707.95 1254.85C1707.73 1254.93 1707.41 1255.02 1707 1255.1C1706.6 1255.2 1706.08 1255.25 1705.47 1255.26C1704.46 1255.27 1703.53 1255.09 1702.66 1254.72C1701.79 1254.34 1701.09 1253.76 1700.55 1252.98C1700.01 1252.2 1699.74 1251.21 1699.74 1250.03V1230.66ZM1716.07 1243.34V1255H1712.24V1228.82H1716.01V1238.56H1716.26C1716.72 1237.5 1717.42 1236.66 1718.37 1236.04C1719.31 1235.42 1720.55 1235.11 1722.07 1235.11C1723.42 1235.11 1724.6 1235.38 1725.6 1235.94C1726.62 1236.49 1727.4 1237.32 1727.95 1238.42C1728.52 1239.51 1728.8 1240.87 1728.8 1242.51V1255H1724.98V1242.97C1724.98 1241.53 1724.61 1240.41 1723.86 1239.62C1723.12 1238.82 1722.09 1238.42 1720.77 1238.42C1719.87 1238.42 1719.06 1238.61 1718.34 1238.99C1717.63 1239.38 1717.08 1239.94 1716.67 1240.68C1716.27 1241.41 1716.07 1242.3 1716.07 1243.34Z" fill="#CDCDCD"/>
<path d="M1624.53 480.696C1624.4 479.486 1623.84 478.548 1622.85 477.884C1621.86 477.21 1620.61 476.874 1619.11 476.874C1618.04 476.874 1617.11 477.044 1616.33 477.385C1615.54 477.717 1614.93 478.178 1614.5 478.766C1614.07 479.345 1613.86 480.006 1613.86 480.747C1613.86 481.369 1614 481.906 1614.29 482.358C1614.59 482.81 1614.98 483.189 1615.46 483.496C1615.94 483.794 1616.46 484.045 1617.02 484.25C1617.57 484.446 1618.1 484.608 1618.61 484.736L1621.17 485.401C1622.01 485.605 1622.86 485.882 1623.74 486.232C1624.62 486.581 1625.43 487.041 1626.18 487.612C1626.93 488.183 1627.54 488.891 1628 489.734C1628.47 490.578 1628.7 491.588 1628.7 492.764C1628.7 494.247 1628.32 495.564 1627.55 496.714C1626.79 497.865 1625.69 498.773 1624.24 499.438C1622.8 500.102 1621.06 500.435 1619.01 500.435C1617.05 500.435 1615.35 500.124 1613.92 499.501C1612.49 498.879 1611.37 497.997 1610.56 496.855C1609.75 495.705 1609.3 494.341 1609.22 492.764H1613.18C1613.26 493.71 1613.57 494.499 1614.1 495.129C1614.65 495.751 1615.34 496.216 1616.19 496.523C1617.04 496.821 1617.97 496.97 1618.99 496.97C1620.1 496.97 1621.1 496.795 1621.96 496.446C1622.84 496.088 1623.53 495.594 1624.04 494.963C1624.54 494.324 1624.79 493.578 1624.79 492.726C1624.79 491.95 1624.57 491.315 1624.12 490.821C1623.69 490.327 1623.1 489.918 1622.35 489.594C1621.61 489.27 1620.77 488.984 1619.83 488.737L1616.74 487.893C1614.64 487.322 1612.98 486.483 1611.75 485.375C1610.53 484.267 1609.92 482.801 1609.92 480.977C1609.92 479.469 1610.33 478.152 1611.15 477.027C1611.97 475.902 1613.08 475.028 1614.47 474.406C1615.87 473.776 1617.45 473.46 1619.2 473.46C1620.98 473.46 1622.54 473.771 1623.89 474.393C1625.26 475.016 1626.33 475.872 1627.12 476.963C1627.9 478.045 1628.31 479.29 1628.34 480.696H1624.53ZM1646.37 507.364V496.945H1646.14C1645.91 497.362 1645.58 497.839 1645.15 498.376C1644.72 498.913 1644.13 499.382 1643.38 499.783C1642.63 500.183 1641.66 500.384 1640.47 500.384C1638.88 500.384 1637.47 499.979 1636.22 499.169C1634.99 498.351 1634.01 497.187 1633.31 495.679C1632.61 494.162 1632.26 492.342 1632.26 490.22C1632.26 488.098 1632.61 486.283 1633.32 484.774C1634.04 483.266 1635.02 482.111 1636.26 481.31C1637.5 480.509 1638.91 480.108 1640.49 480.108C1641.71 480.108 1642.69 480.312 1643.43 480.722C1644.18 481.122 1644.76 481.591 1645.17 482.128C1645.59 482.665 1645.91 483.138 1646.14 483.547H1646.46V480.364H1650.19V507.364H1646.37ZM1641.31 497.124C1642.41 497.124 1643.34 496.834 1644.1 496.254C1644.86 495.666 1645.44 494.852 1645.84 493.812C1646.24 492.773 1646.44 491.562 1646.44 490.182C1646.44 488.818 1646.24 487.625 1645.85 486.602C1645.46 485.58 1644.88 484.783 1644.12 484.212C1643.36 483.641 1642.43 483.355 1641.31 483.355C1640.16 483.355 1639.2 483.653 1638.43 484.25C1637.67 484.847 1637.09 485.661 1636.69 486.692C1636.31 487.723 1636.12 488.886 1636.12 490.182C1636.12 491.494 1636.32 492.675 1636.71 493.723C1637.1 494.771 1637.68 495.602 1638.45 496.216C1639.22 496.821 1640.18 497.124 1641.31 497.124ZM1667.77 491.857V480.364H1671.61V500H1667.85V496.599H1667.65C1667.19 497.648 1666.47 498.521 1665.47 499.22C1664.48 499.911 1663.25 500.256 1661.78 500.256C1660.52 500.256 1659.4 499.979 1658.43 499.425C1657.46 498.862 1656.71 498.031 1656.15 496.932C1655.61 495.832 1655.33 494.473 1655.33 492.854V480.364H1659.16V492.393C1659.16 493.732 1659.53 494.797 1660.27 495.589C1661.01 496.382 1661.97 496.778 1663.16 496.778C1663.87 496.778 1664.59 496.599 1665.29 496.241C1666.01 495.884 1666.6 495.342 1667.07 494.618C1667.55 493.893 1667.78 492.973 1667.77 491.857ZM1682.46 500.435C1681.21 500.435 1680.09 500.205 1679.08 499.744C1678.08 499.276 1677.28 498.598 1676.69 497.712C1676.11 496.825 1675.82 495.739 1675.82 494.452C1675.82 493.344 1676.04 492.432 1676.46 491.716C1676.89 491 1677.46 490.433 1678.19 490.016C1678.91 489.598 1679.72 489.283 1680.62 489.07C1681.51 488.857 1682.42 488.695 1683.35 488.584C1684.53 488.447 1685.48 488.337 1686.22 488.251C1686.95 488.158 1687.48 488.009 1687.82 487.804C1688.15 487.599 1688.31 487.267 1688.31 486.807V486.717C1688.31 485.601 1688 484.736 1687.37 484.122C1686.75 483.509 1685.82 483.202 1684.58 483.202C1683.29 483.202 1682.28 483.487 1681.54 484.058C1680.81 484.621 1680.3 485.247 1680.02 485.938L1676.42 485.119C1676.85 483.926 1677.47 482.963 1678.29 482.23C1679.12 481.489 1680.07 480.952 1681.14 480.619C1682.22 480.278 1683.35 480.108 1684.53 480.108C1685.31 480.108 1686.14 480.202 1687.02 480.389C1687.91 480.568 1688.74 480.901 1689.5 481.386C1690.28 481.872 1690.91 482.567 1691.41 483.47C1691.9 484.365 1692.15 485.528 1692.15 486.96V500H1688.42V497.315H1688.26C1688.02 497.81 1687.64 498.295 1687.15 498.773C1686.66 499.25 1686.02 499.646 1685.25 499.962C1684.47 500.277 1683.54 500.435 1682.46 500.435ZM1683.29 497.366C1684.35 497.366 1685.25 497.158 1686 496.74C1686.76 496.322 1687.33 495.777 1687.73 495.104C1688.13 494.422 1688.33 493.693 1688.33 492.918V490.386C1688.19 490.523 1687.93 490.651 1687.53 490.77C1687.15 490.881 1686.71 490.979 1686.22 491.064C1685.72 491.141 1685.24 491.213 1684.77 491.281C1684.3 491.341 1683.91 491.392 1683.6 491.435C1682.85 491.528 1682.18 491.686 1681.56 491.908C1680.96 492.129 1680.47 492.449 1680.11 492.866C1679.75 493.276 1679.57 493.821 1679.57 494.503C1679.57 495.449 1679.92 496.165 1680.62 496.651C1681.32 497.128 1682.21 497.366 1683.29 497.366ZM1697.24 500V480.364H1700.93V483.483H1701.14C1701.5 482.426 1702.13 481.595 1703.03 480.99C1703.94 480.376 1704.97 480.07 1706.13 480.07C1706.36 480.07 1706.65 480.078 1706.97 480.095C1707.3 480.112 1707.56 480.134 1707.75 480.159V483.815C1707.6 483.773 1707.32 483.726 1706.93 483.675C1706.54 483.615 1706.15 483.585 1705.75 483.585C1704.85 483.585 1704.05 483.777 1703.34 484.161C1702.64 484.536 1702.09 485.06 1701.68 485.733C1701.27 486.398 1701.06 487.156 1701.06 488.009V500H1697.24ZM1718.82 500.396C1716.88 500.396 1715.22 499.983 1713.82 499.156C1712.43 498.321 1711.35 497.149 1710.6 495.641C1709.85 494.124 1709.47 492.347 1709.47 490.31C1709.47 488.298 1709.85 486.526 1710.6 484.991C1711.35 483.457 1712.41 482.26 1713.77 481.399C1715.13 480.538 1716.72 480.108 1718.55 480.108C1719.66 480.108 1720.73 480.291 1721.77 480.658C1722.81 481.024 1723.74 481.599 1724.57 482.384C1725.4 483.168 1726.05 484.186 1726.53 485.439C1727 486.683 1727.24 488.196 1727.24 489.977V491.332H1711.63V488.469H1723.5C1723.5 487.463 1723.29 486.572 1722.88 485.797C1722.47 485.013 1721.9 484.395 1721.16 483.943C1720.42 483.491 1719.56 483.266 1718.57 483.266C1717.5 483.266 1716.56 483.53 1715.76 484.058C1714.97 484.578 1714.35 485.26 1713.92 486.104C1713.49 486.939 1713.28 487.847 1713.28 488.827V491.064C1713.28 492.376 1713.51 493.493 1713.97 494.413C1714.44 495.334 1715.09 496.037 1715.93 496.523C1716.76 497 1717.74 497.239 1718.85 497.239C1719.58 497.239 1720.24 497.136 1720.84 496.932C1721.43 496.719 1721.95 496.403 1722.38 495.986C1722.82 495.568 1723.15 495.053 1723.38 494.439L1727 495.091C1726.71 496.156 1726.19 497.089 1725.44 497.891C1724.7 498.683 1723.76 499.301 1722.64 499.744C1721.52 500.179 1720.25 500.396 1718.82 500.396Z" fill="#CDCDCD"/>
<path d="M1594.4 854.219V850.818H1614.66V854.219H1606.49V877H1602.56V854.219H1594.4ZM1616.79 877V857.364H1620.49V860.483H1620.69C1621.05 859.426 1621.68 858.595 1622.58 857.99C1623.5 857.376 1624.53 857.07 1625.68 857.07C1625.92 857.07 1626.2 857.078 1626.52 857.095C1626.85 857.112 1627.11 857.134 1627.3 857.159V860.815C1627.15 860.773 1626.88 860.726 1626.48 860.675C1626.09 860.615 1625.7 860.585 1625.31 860.585C1624.4 860.585 1623.6 860.777 1622.89 861.161C1622.19 861.536 1621.64 862.06 1621.23 862.733C1620.82 863.398 1620.62 864.156 1620.62 865.009V877H1616.79ZM1630.61 877V857.364H1634.43V877H1630.61ZM1632.54 854.334C1631.88 854.334 1631.3 854.112 1630.83 853.669C1630.36 853.217 1630.12 852.68 1630.12 852.058C1630.12 851.428 1630.36 850.891 1630.83 850.447C1631.3 849.996 1631.88 849.77 1632.54 849.77C1633.21 849.77 1633.77 849.996 1634.24 850.447C1634.72 850.891 1634.96 851.428 1634.96 852.058C1634.96 852.68 1634.72 853.217 1634.24 853.669C1633.77 854.112 1633.21 854.334 1632.54 854.334ZM1645.29 877.435C1644.05 877.435 1642.92 877.205 1641.91 876.744C1640.91 876.276 1640.11 875.598 1639.52 874.712C1638.94 873.825 1638.65 872.739 1638.65 871.452C1638.65 870.344 1638.87 869.432 1639.29 868.716C1639.72 868 1640.3 867.433 1641.02 867.016C1641.74 866.598 1642.55 866.283 1643.45 866.07C1644.34 865.857 1645.26 865.695 1646.18 865.584C1647.36 865.447 1648.31 865.337 1649.05 865.251C1649.78 865.158 1650.31 865.009 1650.65 864.804C1650.98 864.599 1651.14 864.267 1651.14 863.807V863.717C1651.14 862.601 1650.83 861.736 1650.2 861.122C1649.58 860.509 1648.65 860.202 1647.41 860.202C1646.12 860.202 1645.11 860.487 1644.37 861.058C1643.64 861.621 1643.13 862.247 1642.85 862.938L1639.26 862.119C1639.68 860.926 1640.3 859.963 1641.12 859.23C1641.95 858.489 1642.9 857.952 1643.97 857.619C1645.05 857.278 1646.18 857.108 1647.36 857.108C1648.14 857.108 1648.98 857.202 1649.85 857.389C1650.74 857.568 1651.57 857.901 1652.33 858.386C1653.11 858.872 1653.74 859.567 1654.24 860.47C1654.73 861.365 1654.98 862.528 1654.98 863.96V877H1651.25V874.315H1651.09C1650.85 874.81 1650.48 875.295 1649.98 875.773C1649.49 876.25 1648.85 876.646 1648.08 876.962C1647.3 877.277 1646.37 877.435 1645.29 877.435ZM1646.12 874.366C1647.18 874.366 1648.08 874.158 1648.83 873.74C1649.59 873.322 1650.16 872.777 1650.56 872.104C1650.96 871.422 1651.16 870.693 1651.16 869.918V867.386C1651.02 867.523 1650.76 867.651 1650.36 867.77C1649.98 867.881 1649.54 867.979 1649.05 868.064C1648.55 868.141 1648.07 868.213 1647.6 868.281C1647.13 868.341 1646.74 868.392 1646.43 868.435C1645.69 868.528 1645.01 868.686 1644.39 868.908C1643.79 869.129 1643.3 869.449 1642.94 869.866C1642.58 870.276 1642.4 870.821 1642.4 871.503C1642.4 872.449 1642.75 873.165 1643.45 873.651C1644.15 874.128 1645.04 874.366 1646.12 874.366ZM1663.89 865.341V877H1660.07V857.364H1663.74V860.56H1663.98C1664.43 859.52 1665.14 858.685 1666.11 858.054C1667.08 857.423 1668.3 857.108 1669.77 857.108C1671.11 857.108 1672.28 857.389 1673.29 857.952C1674.3 858.506 1675.08 859.332 1675.63 860.432C1676.18 861.531 1676.46 862.891 1676.46 864.51V877H1672.64V864.97C1672.64 863.547 1672.27 862.435 1671.53 861.634C1670.78 860.824 1669.77 860.419 1668.47 860.419C1667.58 860.419 1666.8 860.611 1666.11 860.994C1665.42 861.378 1664.88 861.94 1664.48 862.682C1664.09 863.415 1663.89 864.301 1663.89 865.341ZM1689.82 884.773C1688.26 884.773 1686.92 884.568 1685.79 884.159C1684.68 883.75 1683.76 883.209 1683.06 882.536C1682.35 881.862 1681.82 881.125 1681.47 880.324L1684.76 878.969C1684.99 879.344 1685.29 879.74 1685.68 880.158C1686.07 880.584 1686.6 880.946 1687.26 881.244C1687.94 881.543 1688.8 881.692 1689.86 881.692C1691.31 881.692 1692.5 881.338 1693.45 880.631C1694.4 879.932 1694.87 878.815 1694.87 877.281V873.42H1694.63C1694.4 873.838 1694.06 874.303 1693.63 874.814C1693.2 875.325 1692.61 875.768 1691.86 876.143C1691.11 876.518 1690.14 876.706 1688.94 876.706C1687.39 876.706 1685.99 876.344 1684.74 875.619C1683.51 874.886 1682.53 873.808 1681.8 872.385C1681.09 870.953 1680.73 869.193 1680.73 867.105C1680.73 865.017 1681.08 863.227 1681.79 861.736C1682.51 860.244 1683.49 859.102 1684.73 858.31C1685.98 857.509 1687.39 857.108 1688.96 857.108C1690.18 857.108 1691.17 857.312 1691.92 857.722C1692.67 858.122 1693.25 858.591 1693.67 859.128C1694.09 859.665 1694.42 860.138 1694.65 860.547H1694.93V857.364H1698.68V877.435C1698.68 879.122 1698.29 880.507 1697.5 881.589C1696.72 882.672 1695.66 883.473 1694.32 883.993C1692.99 884.513 1691.49 884.773 1689.82 884.773ZM1689.78 873.536C1690.88 873.536 1691.81 873.28 1692.57 872.768C1693.34 872.249 1693.91 871.507 1694.31 870.544C1694.71 869.572 1694.91 868.409 1694.91 867.054C1694.91 865.733 1694.71 864.57 1694.32 863.564C1693.93 862.558 1693.35 861.774 1692.59 861.212C1691.84 860.641 1690.9 860.355 1689.78 860.355C1688.63 860.355 1687.67 860.653 1686.9 861.25C1686.14 861.838 1685.56 862.639 1685.17 863.653C1684.78 864.668 1684.59 865.801 1684.59 867.054C1684.59 868.341 1684.79 869.47 1685.18 870.442C1685.57 871.413 1686.15 872.172 1686.92 872.717C1687.69 873.263 1688.65 873.536 1689.78 873.536ZM1707.63 850.818V877H1703.81V850.818H1707.63ZM1721.23 877.396C1719.3 877.396 1717.63 876.983 1716.23 876.156C1714.85 875.321 1713.77 874.149 1713.01 872.641C1712.26 871.124 1711.89 869.347 1711.89 867.31C1711.89 865.298 1712.26 863.526 1713.01 861.991C1713.77 860.457 1714.83 859.26 1716.18 858.399C1717.55 857.538 1719.14 857.108 1720.96 857.108C1722.07 857.108 1723.15 857.291 1724.19 857.658C1725.23 858.024 1726.16 858.599 1726.99 859.384C1727.81 860.168 1728.46 861.186 1728.94 862.439C1729.42 863.683 1729.66 865.196 1729.66 866.977V868.332H1714.05V865.469H1725.91C1725.91 864.463 1725.71 863.572 1725.3 862.797C1724.89 862.013 1724.31 861.395 1723.57 860.943C1722.84 860.491 1721.98 860.266 1720.99 860.266C1719.92 860.266 1718.98 860.53 1718.18 861.058C1717.39 861.578 1716.77 862.26 1716.34 863.104C1715.91 863.939 1715.7 864.847 1715.7 865.827V868.064C1715.7 869.376 1715.93 870.493 1716.39 871.413C1716.86 872.334 1717.51 873.037 1718.34 873.523C1719.18 874 1720.16 874.239 1721.27 874.239C1722 874.239 1722.66 874.136 1723.25 873.932C1723.85 873.719 1724.37 873.403 1724.8 872.986C1725.23 872.568 1725.57 872.053 1725.8 871.439L1729.42 872.091C1729.13 873.156 1728.61 874.089 1727.86 874.891C1727.11 875.683 1726.18 876.301 1725.06 876.744C1723.94 877.179 1722.67 877.396 1721.23 877.396Z" fill="#CDCDCD"/>
<path d="M1671.71 102.696C1671.57 101.486 1671.01 100.548 1670.02 99.8835C1669.04 99.2102 1667.79 98.8736 1666.29 98.8736C1665.22 98.8736 1664.29 99.044 1663.5 99.3849C1662.72 99.7173 1662.11 100.178 1661.68 100.766C1661.25 101.345 1661.04 102.006 1661.04 102.747C1661.04 103.369 1661.18 103.906 1661.47 104.358C1661.77 104.81 1662.16 105.189 1662.63 105.496C1663.12 105.794 1663.64 106.045 1664.19 106.25C1664.75 106.446 1665.28 106.608 1665.79 106.736L1668.35 107.401C1669.18 107.605 1670.04 107.882 1670.92 108.232C1671.8 108.581 1672.61 109.041 1673.36 109.612C1674.11 110.183 1674.72 110.891 1675.18 111.734C1675.64 112.578 1675.88 113.588 1675.88 114.764C1675.88 116.247 1675.5 117.564 1674.73 118.714C1673.97 119.865 1672.87 120.773 1671.42 121.438C1669.98 122.102 1668.23 122.435 1666.19 122.435C1664.23 122.435 1662.53 122.124 1661.1 121.501C1659.67 120.879 1658.55 119.997 1657.74 118.855C1656.93 117.705 1656.48 116.341 1656.4 114.764H1660.36C1660.44 115.71 1660.74 116.499 1661.28 117.129C1661.82 117.751 1662.52 118.216 1663.36 118.523C1664.22 118.821 1665.15 118.97 1666.16 118.97C1667.28 118.97 1668.27 118.795 1669.14 118.446C1670.02 118.088 1670.71 117.594 1671.21 116.963C1671.72 116.324 1671.97 115.578 1671.97 114.726C1671.97 113.95 1671.75 113.315 1671.3 112.821C1670.87 112.327 1670.28 111.918 1669.53 111.594C1668.78 111.27 1667.94 110.984 1667.01 110.737L1663.91 109.893C1661.82 109.322 1660.15 108.483 1658.93 107.375C1657.71 106.267 1657.1 104.801 1657.1 102.977C1657.1 101.469 1657.51 100.152 1658.33 99.027C1659.14 97.902 1660.25 97.0284 1661.65 96.4062C1663.05 95.7756 1664.62 95.4602 1666.38 95.4602C1668.15 95.4602 1669.72 95.7713 1671.07 96.3935C1672.44 97.0156 1673.51 97.8722 1674.29 98.9631C1675.08 100.045 1675.49 101.29 1675.52 102.696H1671.71ZM1680.29 122V102.364H1684.12V122H1680.29ZM1682.22 99.3338C1681.56 99.3338 1680.99 99.1122 1680.51 98.669C1680.04 98.2173 1679.81 97.6804 1679.81 97.0582C1679.81 96.4276 1680.04 95.8906 1680.51 95.4474C1680.99 94.9957 1681.56 94.7699 1682.22 94.7699C1682.89 94.7699 1683.45 94.9957 1683.92 95.4474C1684.4 95.8906 1684.64 96.4276 1684.64 97.0582C1684.64 97.6804 1684.4 98.2173 1683.92 98.669C1683.45 99.1122 1682.89 99.3338 1682.22 99.3338ZM1693.08 110.341V122H1689.26V102.364H1692.93V105.56H1693.17C1693.62 104.52 1694.33 103.685 1695.29 103.054C1696.26 102.423 1697.49 102.108 1698.96 102.108C1700.3 102.108 1701.47 102.389 1702.48 102.952C1703.48 103.506 1704.26 104.332 1704.82 105.432C1705.37 106.531 1705.65 107.891 1705.65 109.51V122H1701.82V109.97C1701.82 108.547 1701.45 107.435 1700.71 106.634C1699.97 105.824 1698.95 105.419 1697.66 105.419C1696.77 105.419 1695.98 105.611 1695.29 105.994C1694.61 106.378 1694.07 106.94 1693.67 107.682C1693.28 108.415 1693.08 109.301 1693.08 110.341ZM1719.24 122.396C1717.3 122.396 1715.64 121.983 1714.24 121.156C1712.85 120.321 1711.77 119.149 1711.02 117.641C1710.27 116.124 1709.89 114.347 1709.89 112.31C1709.89 110.298 1710.27 108.526 1711.02 106.991C1711.77 105.457 1712.83 104.26 1714.19 103.399C1715.55 102.538 1717.14 102.108 1718.97 102.108C1720.08 102.108 1721.15 102.291 1722.19 102.658C1723.23 103.024 1724.16 103.599 1724.99 104.384C1725.82 105.168 1726.47 106.186 1726.95 107.439C1727.42 108.683 1727.66 110.196 1727.66 111.977V113.332H1712.05V110.469H1723.92C1723.92 109.463 1723.71 108.572 1723.3 107.797C1722.89 107.013 1722.32 106.395 1721.58 105.943C1720.84 105.491 1719.98 105.266 1718.99 105.266C1717.92 105.266 1716.98 105.53 1716.18 106.058C1715.39 106.578 1714.77 107.26 1714.34 108.104C1713.91 108.939 1713.7 109.847 1713.7 110.827V113.064C1713.7 114.376 1713.93 115.493 1714.39 116.413C1714.86 117.334 1715.51 118.037 1716.35 118.523C1717.18 119 1718.16 119.239 1719.27 119.239C1720 119.239 1720.66 119.136 1721.26 118.932C1721.85 118.719 1722.37 118.403 1722.8 117.986C1723.24 117.568 1723.57 117.053 1723.8 116.439L1727.42 117.091C1727.13 118.156 1726.61 119.089 1725.86 119.891C1725.12 120.683 1724.18 121.301 1723.06 121.744C1721.94 122.179 1720.67 122.396 1719.24 122.396Z" fill="#CDCDCD"/>
</svg>
