<svg width="1800" height="1539" viewBox="0 0 1800 1539" fill="none" xmlns="http://www.w3.org/2000/svg">
<path d="M29.0322 87.1132H1480.65M1770.97 203.264H29.0322M29.0322 319.415H1770.97M319.355 29.0377V377.491M609.677 377.491V29.0377M900 29.0377V377.491M1190.32 377.491V29.0377M1480.65 29.0377V377.491" stroke="#CDCDCD" stroke-linecap="round" stroke-linejoin="round" stroke-dasharray="2 4"/>
<path d="M1770.97 29.0377H29.0322V377.491H1770.97V29.0377Z" stroke="#CDCDCD" stroke-linecap="round" stroke-linejoin="round"/>
<path d="M29.0322 464.604H1480.65M1770.97 580.755H29.0322M29.0322 696.906H1770.97M319.355 406.528V754.981M609.677 754.981V406.528M900 406.528V754.981M1190.32 754.981V406.528M1480.65 406.528V754.981" stroke="#CDCDCD" stroke-linecap="round" stroke-linejoin="round" stroke-dasharray="2 4"/>
<path d="M1770.97 406.528H29.0322V754.981H1770.97V406.528Z" stroke="#CDCDCD" stroke-linecap="round" stroke-linejoin="round"/>
<path d="M29.0322 842.094H1480.65M1770.97 958.245H29.0322M29.0322 1074.4H1770.97M319.355 784.019V1132.47M609.677 1132.47V784.019M900 784.019V1132.47M1190.32 1132.47V784.019M1480.65 784.019V1132.47" stroke="#CDCDCD" stroke-linecap="round" stroke-linejoin="round" stroke-dasharray="2 4"/>
<path d="M1770.97 784.019H29.0322V1132.47H1770.97V784.019Z" stroke="#CDCDCD" stroke-linecap="round" stroke-linejoin="round"/>
<path d="M29.0322 1219.58H1480.65M1770.97 1335.74H29.0322M29.0322 1451.89H1770.97M319.355 1161.51V1509.96M609.677 1509.96V1161.51M900 1161.51V1509.96M1190.32 1509.96V1161.51M1480.65 1161.51V1509.96" stroke="#CDCDCD" stroke-linecap="round" stroke-linejoin="round" stroke-dasharray="2 4"/>
<path d="M1770.97 1161.51H29.0322V1509.96H1770.97V1161.51Z" stroke="#CDCDCD" stroke-linecap="round" stroke-linejoin="round"/>
<path d="M29.0322 203.264C72.5806 145.189 116.129 87.1132 174.194 87.1132C290.323 87.1132 348.387 319.415 464.516 319.415C580.645 319.415 638.71 87.1132 754.839 87.1132C870.968 87.1132 929.032 319.415 1045.16 319.415C1161.29 319.415 1219.35 87.1132 1335.48 87.1132C1451.61 87.1132 1509.68 319.415 1625.81 319.415C1683.87 319.415 1727.42 261.34 1770.97 203.264" stroke="#00E494" stroke-width="3" stroke-linecap="round" stroke-linejoin="round"/>
<path d="M29.0322 464.604H319.355V696.906H609.677V464.604H900V696.906H1190.32V464.604H1480.65V696.906H1770.97" stroke="#00E494" stroke-width="3" stroke-linecap="round" stroke-linejoin="round"/>
<path d="M29.0322 958.245L174.194 842.094L464.516 1074.4L754.839 842.094L1045.16 1074.4L1335.48 842.094L1625.81 1074.4L1770.97 958.245" stroke="#00E494" stroke-width="3" stroke-linecap="round" stroke-linejoin="round"/>
<path d="M29.0322 1335.74L319.355 1219.58V1451.89L900 1219.58V1451.89L1480.65 1219.58V1451.89L1770.97 1335.74" stroke="#00E494" stroke-width="3" stroke-linecap="round" stroke-linejoin="round"/>
<path d="M1577.9 1236.35C1577.8 1235.32 1577.36 1234.52 1576.58 1233.94C1575.81 1233.37 1574.75 1233.09 1573.42 1233.09C1572.52 1233.09 1571.76 1233.22 1571.14 1233.47C1570.51 1233.72 1570.04 1234.06 1569.7 1234.51C1569.38 1234.95 1569.22 1235.45 1569.22 1236.02C1569.2 1236.48 1569.3 1236.89 1569.51 1237.24C1569.73 1237.59 1570.04 1237.89 1570.42 1238.15C1570.8 1238.4 1571.25 1238.62 1571.75 1238.8C1572.25 1238.98 1572.79 1239.13 1573.36 1239.26L1575.71 1239.83C1576.85 1240.08 1577.9 1240.42 1578.86 1240.85C1579.81 1241.27 1580.64 1241.8 1581.34 1242.42C1582.04 1243.04 1582.58 1243.78 1582.96 1244.62C1583.35 1245.46 1583.55 1246.43 1583.56 1247.52C1583.55 1249.12 1583.14 1250.51 1582.33 1251.69C1581.53 1252.86 1580.37 1253.76 1578.86 1254.41C1577.35 1255.05 1575.53 1255.37 1573.4 1255.37C1571.28 1255.37 1569.44 1255.05 1567.88 1254.4C1566.32 1253.75 1565.1 1252.79 1564.22 1251.52C1563.35 1250.24 1562.89 1248.66 1562.85 1246.78H1568.21C1568.27 1247.66 1568.52 1248.39 1568.96 1248.98C1569.41 1249.56 1570.01 1250 1570.76 1250.3C1571.52 1250.59 1572.38 1250.73 1573.33 1250.73C1574.27 1250.73 1575.09 1250.59 1575.78 1250.32C1576.47 1250.05 1577.02 1249.67 1577.4 1249.18C1577.78 1248.7 1577.97 1248.14 1577.97 1247.51C1577.97 1246.92 1577.8 1246.43 1577.45 1246.03C1577.11 1245.62 1576.61 1245.28 1575.94 1245C1575.29 1244.72 1574.48 1244.47 1573.53 1244.24L1570.68 1243.52C1568.47 1242.98 1566.72 1242.14 1565.45 1241C1564.17 1239.86 1563.53 1238.32 1563.54 1236.39C1563.53 1234.8 1563.95 1233.42 1564.81 1232.23C1565.67 1231.05 1566.85 1230.12 1568.35 1229.46C1569.85 1228.79 1571.55 1228.46 1573.46 1228.46C1575.41 1228.46 1577.1 1228.79 1578.55 1229.46C1580.01 1230.12 1581.14 1231.05 1581.95 1232.23C1582.76 1233.42 1583.18 1234.79 1583.2 1236.35H1577.9ZM1592.78 1255.37C1591.53 1255.37 1590.41 1255.15 1589.43 1254.72C1588.45 1254.28 1587.68 1253.62 1587.11 1252.76C1586.54 1251.89 1586.26 1250.81 1586.26 1249.52C1586.26 1248.42 1586.46 1247.51 1586.86 1246.77C1587.26 1246.03 1587.81 1245.43 1588.5 1244.98C1589.19 1244.53 1589.97 1244.18 1590.85 1243.95C1591.74 1243.72 1592.67 1243.56 1593.64 1243.47C1594.78 1243.35 1595.7 1243.24 1596.4 1243.14C1597.1 1243.03 1597.61 1242.86 1597.92 1242.65C1598.24 1242.44 1598.39 1242.12 1598.39 1241.7V1241.63C1598.39 1240.82 1598.14 1240.19 1597.63 1239.75C1597.12 1239.31 1596.41 1239.08 1595.48 1239.08C1594.5 1239.08 1593.72 1239.3 1593.14 1239.74C1592.56 1240.16 1592.18 1240.7 1591.99 1241.35L1586.95 1240.94C1587.21 1239.74 1587.71 1238.71 1588.46 1237.84C1589.21 1236.97 1590.18 1236.29 1591.36 1235.82C1592.56 1235.35 1593.94 1235.11 1595.5 1235.11C1596.6 1235.11 1597.64 1235.24 1598.64 1235.49C1599.64 1235.75 1600.53 1236.14 1601.31 1236.68C1602.09 1237.22 1602.71 1237.91 1603.16 1238.75C1603.61 1239.59 1603.84 1240.59 1603.84 1241.76V1255H1598.68V1252.28H1598.52C1598.21 1252.89 1597.78 1253.43 1597.26 1253.9C1596.73 1254.36 1596.09 1254.72 1595.35 1254.99C1594.61 1255.24 1593.75 1255.37 1592.78 1255.37ZM1594.34 1251.61C1595.14 1251.61 1595.85 1251.45 1596.46 1251.14C1597.08 1250.82 1597.56 1250.38 1597.91 1249.84C1598.26 1249.29 1598.43 1248.67 1598.43 1247.98V1245.9C1598.26 1246.01 1598.03 1246.11 1597.73 1246.2C1597.44 1246.29 1597.11 1246.37 1596.74 1246.45C1596.38 1246.52 1596.01 1246.58 1595.65 1246.64C1595.28 1246.69 1594.95 1246.74 1594.65 1246.78C1594.01 1246.87 1593.45 1247.02 1592.97 1247.23C1592.5 1247.43 1592.13 1247.71 1591.86 1248.06C1591.6 1248.4 1591.47 1248.83 1591.47 1249.34C1591.47 1250.08 1591.73 1250.64 1592.27 1251.04C1592.82 1251.42 1593.51 1251.61 1594.34 1251.61ZM1611.94 1255L1606.6 1235.36H1612.11L1615.15 1248.56H1615.33L1618.5 1235.36H1623.9L1627.13 1248.48H1627.29L1630.28 1235.36H1635.78L1630.45 1255H1624.68L1621.31 1242.65H1621.07L1617.69 1255H1611.94ZM1649.13 1235.36V1239.45H1637.31V1235.36H1649.13ZM1639.99 1230.66H1645.44V1248.97C1645.44 1249.47 1645.51 1249.86 1645.67 1250.14C1645.82 1250.41 1646.03 1250.61 1646.31 1250.72C1646.59 1250.83 1646.91 1250.88 1647.28 1250.88C1647.53 1250.88 1647.79 1250.86 1648.04 1250.82C1648.3 1250.77 1648.5 1250.73 1648.63 1250.7L1649.49 1254.76C1649.22 1254.84 1648.83 1254.94 1648.34 1255.05C1647.84 1255.17 1647.24 1255.24 1646.54 1255.27C1645.22 1255.32 1644.07 1255.14 1643.08 1254.74C1642.1 1254.34 1641.34 1253.72 1640.8 1252.88C1640.25 1252.03 1639.98 1250.97 1639.99 1249.68V1230.66ZM1661.34 1255.38C1659.35 1255.38 1657.64 1254.96 1656.19 1254.12C1654.75 1253.27 1653.64 1252.08 1652.85 1250.56C1652.07 1249.04 1651.68 1247.27 1651.68 1245.26C1651.68 1243.23 1652.07 1241.46 1652.85 1239.94C1653.64 1238.41 1654.75 1237.23 1656.19 1236.39C1657.64 1235.53 1659.35 1235.11 1661.34 1235.11C1663.33 1235.11 1665.04 1235.53 1666.48 1236.39C1667.93 1237.23 1669.04 1238.41 1669.83 1239.94C1670.61 1241.46 1671 1243.23 1671 1245.26C1671 1247.27 1670.61 1249.04 1669.83 1250.56C1669.04 1252.08 1667.93 1253.27 1666.48 1254.12C1665.04 1254.96 1663.33 1255.38 1661.34 1255.38ZM1661.37 1251.16C1662.27 1251.16 1663.02 1250.91 1663.63 1250.4C1664.23 1249.88 1664.69 1249.17 1665 1248.28C1665.31 1247.38 1665.47 1246.36 1665.47 1245.22C1665.47 1244.08 1665.31 1243.06 1665 1242.16C1664.69 1241.27 1664.23 1240.56 1663.63 1240.04C1663.02 1239.52 1662.27 1239.26 1661.37 1239.26C1660.45 1239.26 1659.69 1239.52 1659.06 1240.04C1658.45 1240.56 1657.99 1241.27 1657.67 1242.16C1657.36 1243.06 1657.21 1244.08 1657.21 1245.22C1657.21 1246.36 1657.36 1247.38 1657.67 1248.28C1657.99 1249.17 1658.45 1249.88 1659.06 1250.4C1659.69 1250.91 1660.45 1251.16 1661.37 1251.16ZM1683.42 1255.38C1681.43 1255.38 1679.71 1254.96 1678.27 1254.12C1676.83 1253.27 1675.71 1252.08 1674.93 1250.56C1674.15 1249.04 1673.75 1247.27 1673.75 1245.26C1673.75 1243.23 1674.15 1241.46 1674.93 1239.94C1675.71 1238.41 1676.83 1237.23 1678.27 1236.39C1679.71 1235.53 1681.43 1235.11 1683.42 1235.11C1685.4 1235.11 1687.12 1235.53 1688.56 1236.39C1690.01 1237.23 1691.12 1238.41 1691.91 1239.94C1692.69 1241.46 1693.08 1243.23 1693.08 1245.26C1693.08 1247.27 1692.69 1249.04 1691.91 1250.56C1691.12 1252.08 1690.01 1253.27 1688.56 1254.12C1687.12 1254.96 1685.4 1255.38 1683.42 1255.38ZM1683.44 1251.16C1684.35 1251.16 1685.1 1250.91 1685.71 1250.4C1686.31 1249.88 1686.77 1249.17 1687.07 1248.28C1687.39 1247.38 1687.55 1246.36 1687.55 1245.22C1687.55 1244.08 1687.39 1243.06 1687.07 1242.16C1686.77 1241.27 1686.31 1240.56 1685.71 1240.04C1685.1 1239.52 1684.35 1239.26 1683.44 1239.26C1682.53 1239.26 1681.76 1239.52 1681.14 1240.04C1680.53 1240.56 1680.06 1241.27 1679.75 1242.16C1679.44 1243.06 1679.29 1244.08 1679.29 1245.22C1679.29 1246.36 1679.44 1247.38 1679.75 1248.28C1680.06 1249.17 1680.53 1249.88 1681.14 1250.4C1681.76 1250.91 1682.53 1251.16 1683.44 1251.16ZM1707.07 1235.36V1239.45H1695.24V1235.36H1707.07ZM1697.93 1230.66H1703.37V1248.97C1703.37 1249.47 1703.45 1249.86 1703.6 1250.14C1703.76 1250.41 1703.97 1250.61 1704.24 1250.72C1704.52 1250.83 1704.85 1250.88 1705.21 1250.88C1705.47 1250.88 1705.73 1250.86 1705.98 1250.82C1706.24 1250.77 1706.43 1250.73 1706.57 1250.7L1707.43 1254.76C1707.15 1254.84 1706.77 1254.94 1706.28 1255.05C1705.78 1255.17 1705.18 1255.24 1704.47 1255.27C1703.16 1255.32 1702.01 1255.14 1701.02 1254.74C1700.04 1254.34 1699.28 1253.72 1698.73 1252.88C1698.19 1252.03 1697.92 1250.97 1697.93 1249.68V1230.66ZM1716.48 1243.65V1255H1711.04V1228.82H1716.33V1238.83H1716.56C1717 1237.67 1717.72 1236.76 1718.71 1236.11C1719.7 1235.44 1720.94 1235.11 1722.43 1235.11C1723.79 1235.11 1724.98 1235.41 1726 1236C1727.02 1236.59 1727.81 1237.44 1728.37 1238.55C1728.94 1239.65 1729.23 1240.96 1729.22 1242.5V1255H1723.77V1243.47C1723.78 1242.26 1723.47 1241.32 1722.85 1240.64C1722.24 1239.97 1721.38 1239.63 1720.27 1239.63C1719.53 1239.63 1718.87 1239.79 1718.3 1240.11C1717.74 1240.42 1717.29 1240.88 1716.97 1241.49C1716.65 1242.08 1716.49 1242.8 1716.48 1243.65Z" fill="#CDCDCD"/>
<path d="M1620.41 481.348C1620.31 480.317 1619.87 479.516 1619.09 478.945C1618.32 478.374 1617.27 478.088 1615.94 478.088C1615.03 478.088 1614.27 478.216 1613.65 478.472C1613.03 478.719 1612.55 479.064 1612.22 479.507C1611.89 479.95 1611.73 480.453 1611.73 481.016C1611.71 481.484 1611.81 481.893 1612.02 482.243C1612.25 482.592 1612.55 482.895 1612.93 483.151C1613.32 483.398 1613.76 483.615 1614.26 483.803C1614.76 483.982 1615.3 484.135 1615.87 484.263L1618.23 484.825C1619.37 485.081 1620.42 485.422 1621.37 485.848C1622.32 486.274 1623.15 486.798 1623.85 487.42C1624.55 488.043 1625.09 488.776 1625.47 489.619C1625.87 490.463 1626.07 491.43 1626.07 492.521C1626.07 494.124 1625.66 495.513 1624.85 496.689C1624.05 497.857 1622.89 498.764 1621.37 499.412C1619.86 500.051 1618.04 500.371 1615.91 500.371C1613.8 500.371 1611.96 500.047 1610.39 499.399C1608.83 498.751 1607.61 497.793 1606.73 496.523C1605.86 495.244 1605.41 493.663 1605.36 491.78H1610.72C1610.78 492.658 1611.03 493.391 1611.48 493.979C1611.93 494.558 1612.53 494.997 1613.28 495.295C1614.04 495.585 1614.89 495.73 1615.85 495.73C1616.78 495.73 1617.6 495.594 1618.29 495.321C1618.99 495.048 1619.53 494.669 1619.91 494.183C1620.3 493.697 1620.49 493.139 1620.49 492.509C1620.49 491.92 1620.31 491.426 1619.96 491.026C1619.62 490.625 1619.12 490.284 1618.46 490.003C1617.8 489.722 1616.99 489.466 1616.04 489.236L1613.19 488.52C1610.98 487.983 1609.24 487.143 1607.96 486.001C1606.68 484.859 1606.05 483.321 1606.05 481.386C1606.05 479.801 1606.47 478.416 1607.32 477.232C1608.18 476.047 1609.36 475.122 1610.86 474.457C1612.36 473.793 1614.07 473.46 1615.98 473.46C1617.92 473.46 1619.61 473.793 1621.06 474.457C1622.52 475.122 1623.65 476.047 1624.46 477.232C1625.27 478.416 1625.69 479.788 1625.72 481.348H1620.41ZM1642.67 507.364V496.855H1642.51C1642.25 497.401 1641.89 497.942 1641.42 498.479C1640.96 499.007 1640.36 499.446 1639.62 499.795C1638.88 500.145 1637.99 500.32 1636.93 500.32C1635.44 500.32 1634.09 499.936 1632.88 499.169C1631.68 498.393 1630.72 497.256 1630.02 495.756C1629.32 494.247 1628.97 492.398 1628.97 490.207C1628.97 487.957 1629.33 486.087 1630.05 484.595C1630.78 483.095 1631.74 481.974 1632.94 481.233C1634.15 480.483 1635.48 480.108 1636.92 480.108C1638.02 480.108 1638.93 480.295 1639.67 480.67C1640.41 481.037 1641.01 481.497 1641.46 482.051C1641.92 482.597 1642.27 483.134 1642.51 483.662H1642.74V480.364H1648.1V507.364H1642.67ZM1638.66 495.986C1639.54 495.986 1640.28 495.747 1640.88 495.27C1641.5 494.784 1641.96 494.107 1642.29 493.237C1642.62 492.368 1642.79 491.349 1642.79 490.182C1642.79 489.014 1642.62 488 1642.3 487.139C1641.98 486.278 1641.51 485.614 1640.89 485.145C1640.28 484.676 1639.54 484.442 1638.66 484.442C1637.76 484.442 1637.01 484.685 1636.39 485.17C1635.78 485.656 1635.32 486.33 1635 487.19C1634.69 488.051 1634.53 489.048 1634.53 490.182C1634.53 491.324 1634.69 492.334 1635 493.212C1635.32 494.081 1635.79 494.763 1636.39 495.257C1637.01 495.743 1637.76 495.986 1638.66 495.986ZM1665.07 491.639V480.364H1670.52V500H1665.29V496.433H1665.08C1664.64 497.584 1663.9 498.509 1662.87 499.207C1661.85 499.906 1660.6 500.256 1659.12 500.256C1657.81 500.256 1656.66 499.957 1655.66 499.361C1654.66 498.764 1653.88 497.916 1653.32 496.817C1652.77 495.717 1652.49 494.401 1652.48 492.866V480.364H1657.92V491.895C1657.93 493.054 1658.24 493.97 1658.86 494.643C1659.47 495.317 1660.29 495.653 1661.32 495.653C1661.98 495.653 1662.59 495.504 1663.16 495.206C1663.74 494.899 1664.2 494.447 1664.54 493.851C1664.9 493.254 1665.08 492.517 1665.07 491.639ZM1680.47 500.371C1679.22 500.371 1678.1 500.153 1677.12 499.719C1676.14 499.276 1675.37 498.624 1674.79 497.763C1674.23 496.893 1673.95 495.811 1673.95 494.516C1673.95 493.425 1674.15 492.509 1674.55 491.767C1674.95 491.026 1675.5 490.429 1676.19 489.977C1676.88 489.526 1677.66 489.185 1678.54 488.955C1679.43 488.724 1680.36 488.562 1681.33 488.469C1682.47 488.349 1683.39 488.239 1684.09 488.136C1684.79 488.026 1685.29 487.864 1685.61 487.651C1685.93 487.437 1686.08 487.122 1686.08 486.705V486.628C1686.08 485.818 1685.83 485.192 1685.32 484.749C1684.81 484.305 1684.1 484.084 1683.17 484.084C1682.19 484.084 1681.41 484.301 1680.83 484.736C1680.25 485.162 1679.87 485.699 1679.68 486.347L1674.64 485.938C1674.9 484.744 1675.4 483.713 1676.15 482.844C1676.9 481.966 1677.87 481.293 1679.05 480.824C1680.24 480.347 1681.63 480.108 1683.19 480.108C1684.28 480.108 1685.33 480.236 1686.33 480.491C1687.33 480.747 1688.22 481.143 1689 481.68C1689.78 482.217 1690.4 482.908 1690.85 483.751C1691.3 484.587 1691.53 485.588 1691.53 486.756V500H1686.36V497.277H1686.21C1685.9 497.891 1685.47 498.432 1684.95 498.901C1684.42 499.361 1683.78 499.723 1683.04 499.987C1682.3 500.243 1681.44 500.371 1680.47 500.371ZM1682.03 496.612C1682.83 496.612 1683.54 496.455 1684.15 496.139C1684.77 495.815 1685.25 495.381 1685.6 494.835C1685.95 494.29 1686.12 493.672 1686.12 492.982V490.898C1685.95 491.009 1685.72 491.111 1685.42 491.205C1685.13 491.29 1684.8 491.371 1684.43 491.447C1684.07 491.516 1683.7 491.58 1683.33 491.639C1682.97 491.69 1682.64 491.737 1682.34 491.78C1681.7 491.874 1681.14 492.023 1680.66 492.227C1680.19 492.432 1679.81 492.709 1679.55 493.058C1679.29 493.399 1679.15 493.825 1679.15 494.337C1679.15 495.078 1679.42 495.645 1679.96 496.037C1680.5 496.42 1681.2 496.612 1682.03 496.612ZM1695.75 500V480.364H1701.03V483.79H1701.24C1701.6 482.571 1702.2 481.651 1703.04 481.028C1703.88 480.398 1704.86 480.082 1705.96 480.082C1706.23 480.082 1706.52 480.099 1706.84 480.134C1707.15 480.168 1707.43 480.214 1707.67 480.274V485.107C1707.41 485.03 1707.06 484.962 1706.61 484.902C1706.16 484.842 1705.74 484.812 1705.37 484.812C1704.57 484.812 1703.85 484.987 1703.22 485.337C1702.6 485.678 1702.1 486.155 1701.74 486.768C1701.38 487.382 1701.2 488.089 1701.2 488.891V500H1695.75ZM1718.52 500.384C1716.5 500.384 1714.76 499.974 1713.3 499.156C1711.85 498.33 1710.74 497.162 1709.95 495.653C1709.17 494.136 1708.78 492.342 1708.78 490.271C1708.78 488.251 1709.17 486.479 1709.95 484.953C1710.74 483.428 1711.84 482.239 1713.27 481.386C1714.7 480.534 1716.38 480.108 1718.3 480.108C1719.6 480.108 1720.8 480.317 1721.92 480.734C1723.04 481.143 1724.03 481.761 1724.86 482.588C1725.7 483.415 1726.36 484.455 1726.83 485.707C1727.3 486.952 1727.53 488.409 1727.53 490.08V491.575H1710.95V488.2H1722.41C1722.41 487.416 1722.24 486.722 1721.89 486.116C1721.55 485.511 1721.08 485.038 1720.48 484.697C1719.88 484.348 1719.18 484.173 1718.39 484.173C1717.56 484.173 1716.83 484.365 1716.19 484.749C1715.56 485.124 1715.07 485.631 1714.71 486.27C1714.35 486.901 1714.17 487.604 1714.16 488.379V491.588C1714.16 492.56 1714.34 493.399 1714.7 494.107C1715.06 494.814 1715.58 495.359 1716.24 495.743C1716.91 496.126 1717.7 496.318 1718.61 496.318C1719.21 496.318 1719.77 496.233 1720.27 496.062C1720.77 495.892 1721.2 495.636 1721.56 495.295C1721.92 494.955 1722.19 494.537 1722.38 494.043L1727.42 494.375C1727.16 495.585 1726.64 496.642 1725.84 497.545C1725.06 498.44 1724.05 499.139 1722.8 499.642C1721.57 500.136 1720.14 500.384 1718.52 500.384Z" fill="#CDCDCD"/>
<path d="M1588.68 855.382V850.818H1610.18V855.382H1602.17V877H1596.69V855.382H1588.68ZM1611.58 877V857.364H1616.86V860.79H1617.07C1617.42 859.571 1618.02 858.651 1618.87 858.028C1619.71 857.398 1620.68 857.082 1621.78 857.082C1622.06 857.082 1622.35 857.099 1622.66 857.134C1622.98 857.168 1623.26 857.214 1623.5 857.274V862.107C1623.24 862.03 1622.89 861.962 1622.43 861.902C1621.98 861.842 1621.57 861.812 1621.19 861.812C1620.39 861.812 1619.68 861.987 1619.05 862.337C1618.42 862.678 1617.93 863.155 1617.56 863.768C1617.21 864.382 1617.03 865.089 1617.03 865.891V877H1611.58ZM1626.31 877V857.364H1631.76V877H1626.31ZM1629.05 854.832C1628.24 854.832 1627.54 854.564 1626.96 854.027C1626.39 853.482 1626.11 852.83 1626.11 852.071C1626.11 851.321 1626.39 850.678 1626.96 850.141C1627.54 849.595 1628.24 849.322 1629.05 849.322C1629.86 849.322 1630.55 849.595 1631.12 850.141C1631.7 850.678 1631.99 851.321 1631.99 852.071C1631.99 852.83 1631.7 853.482 1631.12 854.027C1630.55 854.564 1629.86 854.832 1629.05 854.832ZM1641.72 877.371C1640.47 877.371 1639.35 877.153 1638.37 876.719C1637.39 876.276 1636.61 875.624 1636.04 874.763C1635.48 873.893 1635.2 872.811 1635.2 871.516C1635.2 870.425 1635.4 869.509 1635.8 868.767C1636.2 868.026 1636.75 867.429 1637.44 866.977C1638.13 866.526 1638.91 866.185 1639.79 865.955C1640.68 865.724 1641.6 865.562 1642.58 865.469C1643.72 865.349 1644.64 865.239 1645.34 865.136C1646.04 865.026 1646.54 864.864 1646.86 864.651C1647.17 864.437 1647.33 864.122 1647.33 863.705V863.628C1647.33 862.818 1647.08 862.192 1646.56 861.749C1646.06 861.305 1645.35 861.084 1644.42 861.084C1643.44 861.084 1642.66 861.301 1642.08 861.736C1641.5 862.162 1641.11 862.699 1640.93 863.347L1635.89 862.938C1636.15 861.744 1636.65 860.713 1637.4 859.844C1638.15 858.966 1639.12 858.293 1640.3 857.824C1641.49 857.347 1642.87 857.108 1644.44 857.108C1645.53 857.108 1646.58 857.236 1647.57 857.491C1648.58 857.747 1649.47 858.143 1650.25 858.68C1651.03 859.217 1651.65 859.908 1652.1 860.751C1652.55 861.587 1652.78 862.588 1652.78 863.756V877H1647.61V874.277H1647.46C1647.14 874.891 1646.72 875.432 1646.19 875.901C1645.67 876.361 1645.03 876.723 1644.29 876.987C1643.55 877.243 1642.69 877.371 1641.72 877.371ZM1643.28 873.612C1644.08 873.612 1644.79 873.455 1645.4 873.139C1646.01 872.815 1646.5 872.381 1646.85 871.835C1647.2 871.29 1647.37 870.672 1647.37 869.982V867.898C1647.2 868.009 1646.97 868.111 1646.67 868.205C1646.38 868.29 1646.05 868.371 1645.68 868.447C1645.32 868.516 1644.95 868.58 1644.58 868.639C1644.22 868.69 1643.88 868.737 1643.59 868.78C1642.95 868.874 1642.39 869.023 1641.91 869.227C1641.43 869.432 1641.06 869.709 1640.8 870.058C1640.53 870.399 1640.4 870.825 1640.4 871.337C1640.4 872.078 1640.67 872.645 1641.21 873.037C1641.75 873.42 1642.44 873.612 1643.28 873.612ZM1662.45 865.648V877H1657V857.364H1662.19V860.828H1662.42C1662.86 859.686 1663.59 858.783 1664.61 858.118C1665.63 857.445 1666.87 857.108 1668.33 857.108C1669.69 857.108 1670.88 857.406 1671.9 858.003C1672.91 858.599 1673.7 859.452 1674.26 860.56C1674.82 861.659 1675.11 862.972 1675.11 864.497V877H1669.66V865.469C1669.67 864.267 1669.36 863.33 1668.74 862.656C1668.12 861.974 1667.26 861.634 1666.17 861.634C1665.44 861.634 1664.79 861.791 1664.23 862.107C1663.67 862.422 1663.24 862.882 1662.92 863.487C1662.61 864.084 1662.46 864.804 1662.45 865.648ZM1688.24 884.773C1686.48 884.773 1684.97 884.53 1683.71 884.044C1682.45 883.567 1681.46 882.915 1680.71 882.088C1679.97 881.261 1679.49 880.332 1679.27 879.301L1684.31 878.624C1684.46 879.016 1684.7 879.382 1685.04 879.723C1685.37 880.064 1685.81 880.337 1686.35 880.541C1686.91 880.754 1687.58 880.861 1688.37 880.861C1689.56 880.861 1690.53 880.571 1691.3 879.991C1692.07 879.42 1692.46 878.462 1692.46 877.115V873.523H1692.23C1691.99 874.068 1691.64 874.584 1691.16 875.07C1690.68 875.555 1690.07 875.952 1689.32 876.259C1688.57 876.565 1687.67 876.719 1686.63 876.719C1685.16 876.719 1683.82 876.378 1682.61 875.696C1681.4 875.006 1680.45 873.953 1679.73 872.538C1679.02 871.115 1678.67 869.317 1678.67 867.143C1678.67 864.919 1679.03 863.061 1679.76 861.57C1680.48 860.078 1681.44 858.962 1682.64 858.22C1683.85 857.479 1685.18 857.108 1686.62 857.108C1687.72 857.108 1688.64 857.295 1689.38 857.67C1690.12 858.037 1690.72 858.497 1691.17 859.051C1691.63 859.597 1691.99 860.134 1692.23 860.662H1692.44V857.364H1697.84V877.192C1697.84 878.862 1697.44 880.26 1696.62 881.385C1695.8 882.51 1694.67 883.354 1693.22 883.916C1691.78 884.487 1690.12 884.773 1688.24 884.773ZM1688.36 872.628C1689.24 872.628 1689.98 872.411 1690.58 871.976C1691.2 871.533 1691.67 870.902 1691.99 870.084C1692.32 869.257 1692.49 868.268 1692.49 867.118C1692.49 865.967 1692.33 864.97 1692 864.126C1691.68 863.274 1691.21 862.614 1690.6 862.145C1689.98 861.676 1689.24 861.442 1688.36 861.442C1687.46 861.442 1686.71 861.685 1686.1 862.17C1685.48 862.648 1685.02 863.312 1684.7 864.165C1684.39 865.017 1684.23 866.001 1684.23 867.118C1684.23 868.251 1684.39 869.232 1684.7 870.058C1685.03 870.876 1685.49 871.511 1686.1 871.963C1686.71 872.406 1687.46 872.628 1688.36 872.628ZM1707.62 850.818V877H1702.18V850.818H1707.62ZM1720.94 877.384C1718.92 877.384 1717.18 876.974 1715.72 876.156C1714.27 875.33 1713.15 874.162 1712.37 872.653C1711.59 871.136 1711.19 869.342 1711.19 867.271C1711.19 865.251 1711.59 863.479 1712.37 861.953C1713.15 860.428 1714.26 859.239 1715.68 858.386C1717.11 857.534 1718.79 857.108 1720.72 857.108C1722.01 857.108 1723.22 857.317 1724.34 857.734C1725.46 858.143 1726.44 858.761 1727.28 859.588C1728.12 860.415 1728.78 861.455 1729.25 862.707C1729.71 863.952 1729.95 865.409 1729.95 867.08V868.575H1713.37V865.2H1724.82C1724.82 864.416 1724.65 863.722 1724.31 863.116C1723.97 862.511 1723.5 862.038 1722.89 861.697C1722.3 861.348 1721.6 861.173 1720.81 861.173C1719.98 861.173 1719.25 861.365 1718.61 861.749C1717.98 862.124 1717.48 862.631 1717.13 863.27C1716.77 863.901 1716.59 864.604 1716.58 865.379V868.588C1716.58 869.56 1716.76 870.399 1717.11 871.107C1717.48 871.814 1718 872.359 1718.66 872.743C1719.33 873.126 1720.11 873.318 1721.03 873.318C1721.63 873.318 1722.18 873.233 1722.69 873.062C1723.19 872.892 1723.62 872.636 1723.98 872.295C1724.34 871.955 1724.61 871.537 1724.8 871.043L1729.83 871.375C1729.58 872.585 1729.05 873.642 1728.26 874.545C1727.48 875.44 1726.46 876.139 1725.22 876.642C1723.98 877.136 1722.56 877.384 1720.94 877.384Z" fill="#CDCDCD"/>
<path d="M1668.5 103.348C1668.4 102.317 1667.96 101.516 1667.19 100.945C1666.41 100.374 1665.36 100.088 1664.03 100.088C1663.12 100.088 1662.36 100.216 1661.74 100.472C1661.12 100.719 1660.64 101.064 1660.31 101.507C1659.98 101.95 1659.82 102.453 1659.82 103.016C1659.81 103.484 1659.9 103.893 1660.12 104.243C1660.34 104.592 1660.64 104.895 1661.02 105.151C1661.41 105.398 1661.85 105.615 1662.35 105.803C1662.86 105.982 1663.39 106.135 1663.96 106.263L1666.32 106.825C1667.46 107.081 1668.51 107.422 1669.46 107.848C1670.42 108.274 1671.24 108.798 1671.94 109.42C1672.64 110.043 1673.18 110.776 1673.57 111.619C1673.96 112.463 1674.16 113.43 1674.17 114.521C1674.16 116.124 1673.75 117.513 1672.94 118.689C1672.14 119.857 1670.98 120.764 1669.46 121.412C1667.95 122.051 1666.13 122.371 1664 122.371C1661.89 122.371 1660.05 122.047 1658.48 121.399C1656.92 120.751 1655.7 119.793 1654.82 118.523C1653.95 117.244 1653.5 115.663 1653.46 113.78H1658.81C1658.87 114.658 1659.12 115.391 1659.57 115.979C1660.02 116.558 1660.62 116.997 1661.37 117.295C1662.13 117.585 1662.98 117.73 1663.94 117.73C1664.88 117.73 1665.69 117.594 1666.38 117.321C1667.08 117.048 1667.62 116.669 1668 116.183C1668.39 115.697 1668.58 115.139 1668.58 114.509C1668.58 113.92 1668.4 113.426 1668.06 113.026C1667.71 112.625 1667.21 112.284 1666.55 112.003C1665.89 111.722 1665.08 111.466 1664.13 111.236L1661.28 110.52C1659.07 109.983 1657.33 109.143 1656.05 108.001C1654.77 106.859 1654.14 105.321 1654.15 103.386C1654.14 101.801 1654.56 100.416 1655.41 99.2315C1656.27 98.0469 1657.45 97.1222 1658.95 96.4574C1660.45 95.7926 1662.16 95.4602 1664.07 95.4602C1666.01 95.4602 1667.71 95.7926 1669.15 96.4574C1670.61 97.1222 1671.75 98.0469 1672.56 99.2315C1673.36 100.416 1673.78 101.788 1673.81 103.348H1668.5ZM1677.79 122V102.364H1683.23V122H1677.79ZM1680.52 99.8324C1679.71 99.8324 1679.02 99.5639 1678.44 99.027C1677.87 98.4815 1677.58 97.8295 1677.58 97.071C1677.58 96.321 1677.87 95.6776 1678.44 95.1406C1679.02 94.5952 1679.71 94.3224 1680.52 94.3224C1681.33 94.3224 1682.02 94.5952 1682.59 95.1406C1683.17 95.6776 1683.46 96.321 1683.46 97.071C1683.46 97.8295 1683.17 98.4815 1682.59 99.027C1682.02 99.5639 1681.33 99.8324 1680.52 99.8324ZM1693.04 110.648V122H1687.6V102.364H1692.79V105.828H1693.02C1693.45 104.686 1694.18 103.783 1695.2 103.118C1696.22 102.445 1697.46 102.108 1698.92 102.108C1700.29 102.108 1701.47 102.406 1702.49 103.003C1703.5 103.599 1704.29 104.452 1704.85 105.56C1705.42 106.659 1705.7 107.972 1705.7 109.497V122H1700.25V110.469C1700.26 109.267 1699.95 108.33 1699.33 107.656C1698.71 106.974 1697.85 106.634 1696.76 106.634C1696.03 106.634 1695.38 106.791 1694.82 107.107C1694.26 107.422 1693.83 107.882 1693.51 108.487C1693.21 109.084 1693.05 109.804 1693.04 110.648ZM1718.94 122.384C1716.92 122.384 1715.18 121.974 1713.72 121.156C1712.27 120.33 1711.16 119.162 1710.37 117.653C1709.59 116.136 1709.2 114.342 1709.2 112.271C1709.2 110.251 1709.59 108.479 1710.37 106.953C1711.16 105.428 1712.26 104.239 1713.68 103.386C1715.12 102.534 1716.8 102.108 1718.72 102.108C1720.02 102.108 1721.22 102.317 1722.34 102.734C1723.46 103.143 1724.44 103.761 1725.28 104.588C1726.12 105.415 1726.78 106.455 1727.25 107.707C1727.72 108.952 1727.95 110.409 1727.95 112.08V113.575H1711.37V110.2H1722.83C1722.83 109.416 1722.65 108.722 1722.31 108.116C1721.97 107.511 1721.5 107.038 1720.89 106.697C1720.3 106.348 1719.6 106.173 1718.81 106.173C1717.98 106.173 1717.25 106.365 1716.61 106.749C1715.98 107.124 1715.49 107.631 1715.13 108.27C1714.77 108.901 1714.59 109.604 1714.58 110.379V113.588C1714.58 114.56 1714.76 115.399 1715.12 116.107C1715.48 116.814 1716 117.359 1716.66 117.743C1717.33 118.126 1718.12 118.318 1719.03 118.318C1719.63 118.318 1720.19 118.233 1720.69 118.062C1721.19 117.892 1721.62 117.636 1721.98 117.295C1722.34 116.955 1722.61 116.537 1722.8 116.043L1727.84 116.375C1727.58 117.585 1727.06 118.642 1726.26 119.545C1725.48 120.44 1724.47 121.139 1723.22 121.642C1721.99 122.136 1720.56 122.384 1718.94 122.384Z" fill="#CDCDCD"/>
</svg>
