<svg width="1800" height="1750" viewBox="0 0 1800 1750" fill="none" xmlns="http://www.w3.org/2000/svg">
<path d="M29.0322 1319.58H1480.65M1770.97 1435.74H29.0322M29.0322 1551.89H1770.97M319.355 1261.51V1609.96M609.677 1609.96V1261.51M900 1261.51V1609.96M1190.32 1609.96V1261.51M1480.65 1261.51V1609.96" stroke="#CDCDCD" stroke-linecap="round" stroke-linejoin="round" stroke-dasharray="2 4"/>
<path d="M1770.97 1261.51H29.0322V1609.96H1770.97V1261.51Z" stroke="#CDCDCD" stroke-linecap="round" stroke-linejoin="round"/>
<path d="M29.0322 1435.74L319.355 1319.58V1551.89L900 1319.58V1551.89L1480.65 1319.58V1551.89L1770.97 1435.74" stroke="#00E494" stroke-width="3" stroke-linecap="round" stroke-linejoin="round"/>
<path d="M1583.08 1335.7C1582.94 1334.49 1582.38 1333.55 1581.39 1332.88C1580.4 1332.21 1579.16 1331.87 1577.66 1331.87C1576.58 1331.87 1575.65 1332.04 1574.87 1332.38C1574.08 1332.72 1573.47 1333.18 1573.04 1333.77C1572.61 1334.35 1572.4 1335.01 1572.4 1335.75C1572.4 1336.37 1572.55 1336.91 1572.84 1337.36C1573.13 1337.81 1573.52 1338.19 1574 1338.5C1574.48 1338.79 1575 1339.05 1575.56 1339.25C1576.11 1339.45 1576.65 1339.61 1577.16 1339.74L1579.71 1340.4C1580.55 1340.61 1581.41 1340.88 1582.28 1341.23C1583.16 1341.58 1583.97 1342.04 1584.72 1342.61C1585.47 1343.18 1586.08 1343.89 1586.54 1344.73C1587.01 1345.58 1587.24 1346.59 1587.24 1347.76C1587.24 1349.25 1586.86 1350.56 1586.09 1351.71C1585.33 1352.87 1584.23 1353.77 1582.78 1354.44C1581.34 1355.1 1579.6 1355.43 1577.55 1355.43C1575.59 1355.43 1573.9 1355.12 1572.46 1354.5C1571.03 1353.88 1569.91 1353 1569.1 1351.86C1568.29 1350.7 1567.85 1349.34 1567.76 1347.76H1571.72C1571.8 1348.71 1572.11 1349.5 1572.64 1350.13C1573.19 1350.75 1573.88 1351.22 1574.73 1351.52C1575.58 1351.82 1576.51 1351.97 1577.53 1351.97C1578.64 1351.97 1579.64 1351.8 1580.51 1351.45C1581.38 1351.09 1582.07 1350.59 1582.58 1349.96C1583.08 1349.32 1583.33 1348.58 1583.33 1347.73C1583.33 1346.95 1583.11 1346.32 1582.67 1345.82C1582.23 1345.33 1581.64 1344.92 1580.89 1344.59C1580.15 1344.27 1579.31 1343.98 1578.37 1343.74L1575.28 1342.89C1573.18 1342.32 1571.52 1341.48 1570.29 1340.38C1569.07 1339.27 1568.46 1337.8 1568.46 1335.98C1568.46 1334.47 1568.87 1333.15 1569.69 1332.03C1570.51 1330.9 1571.62 1330.03 1573.01 1329.41C1574.41 1328.78 1575.99 1328.46 1577.74 1328.46C1579.52 1328.46 1581.08 1328.77 1582.44 1329.39C1583.8 1330.02 1584.87 1330.87 1585.66 1331.96C1586.44 1333.05 1586.85 1334.29 1586.89 1335.7H1583.08ZM1597.37 1355.43C1596.13 1355.43 1595 1355.2 1594 1354.74C1592.99 1354.28 1592.19 1353.6 1591.61 1352.71C1591.03 1351.83 1590.74 1350.74 1590.74 1349.45C1590.74 1348.34 1590.95 1347.43 1591.38 1346.72C1591.8 1346 1592.38 1345.43 1593.1 1345.02C1593.83 1344.6 1594.64 1344.28 1595.53 1344.07C1596.43 1343.86 1597.34 1343.69 1598.27 1343.58C1599.44 1343.45 1600.4 1343.34 1601.13 1343.25C1601.86 1343.16 1602.4 1343.01 1602.73 1342.8C1603.06 1342.6 1603.23 1342.27 1603.23 1341.81V1341.72C1603.23 1340.6 1602.91 1339.74 1602.28 1339.12C1601.66 1338.51 1600.73 1338.2 1599.49 1338.2C1598.21 1338.2 1597.19 1338.49 1596.45 1339.06C1595.72 1339.62 1595.21 1340.25 1594.93 1340.94L1591.34 1340.12C1591.76 1338.93 1592.39 1337.96 1593.2 1337.23C1594.03 1336.49 1594.98 1335.95 1596.05 1335.62C1597.13 1335.28 1598.26 1335.11 1599.44 1335.11C1600.23 1335.11 1601.06 1335.2 1601.94 1335.39C1602.82 1335.57 1603.65 1335.9 1604.42 1336.39C1605.19 1336.87 1605.83 1337.57 1606.32 1338.47C1606.81 1339.37 1607.06 1340.53 1607.06 1341.96V1355H1603.33V1352.32H1603.18C1602.93 1352.81 1602.56 1353.3 1602.06 1353.77C1601.57 1354.25 1600.93 1354.65 1600.16 1354.96C1599.38 1355.28 1598.45 1355.43 1597.37 1355.43ZM1598.2 1352.37C1599.26 1352.37 1600.16 1352.16 1600.91 1351.74C1601.67 1351.32 1602.25 1350.78 1602.64 1350.1C1603.04 1349.42 1603.24 1348.69 1603.24 1347.92V1345.39C1603.1 1345.52 1602.84 1345.65 1602.45 1345.77C1602.06 1345.88 1601.62 1345.98 1601.13 1346.06C1600.64 1346.14 1600.15 1346.21 1599.69 1346.28C1599.22 1346.34 1598.82 1346.39 1598.51 1346.43C1597.77 1346.53 1597.09 1346.69 1596.48 1346.91C1595.87 1347.13 1595.39 1347.45 1595.02 1347.87C1594.66 1348.28 1594.48 1348.82 1594.48 1349.5C1594.48 1350.45 1594.83 1351.16 1595.53 1351.65C1596.23 1352.13 1597.12 1352.37 1598.2 1352.37ZM1616.41 1355L1610.63 1335.36H1614.58L1618.43 1349.78H1618.62L1622.48 1335.36H1626.43L1630.27 1349.72H1630.46L1634.28 1335.36H1638.23L1632.47 1355H1628.57L1624.58 1340.82H1624.29L1620.3 1355H1616.41ZM1651.03 1335.36V1338.43H1640.3V1335.36H1651.03ZM1643.18 1330.66H1647V1349.23C1647 1349.98 1647.11 1350.53 1647.33 1350.91C1647.55 1351.28 1647.84 1351.53 1648.19 1351.66C1648.55 1351.79 1648.93 1351.86 1649.35 1351.86C1649.66 1351.86 1649.93 1351.83 1650.16 1351.79C1650.39 1351.75 1650.57 1351.71 1650.69 1351.69L1651.38 1354.85C1651.16 1354.93 1650.85 1355.02 1650.44 1355.1C1650.03 1355.2 1649.52 1355.25 1648.9 1355.26C1647.9 1355.27 1646.96 1355.09 1646.09 1354.72C1645.22 1354.34 1644.52 1353.76 1643.98 1352.98C1643.45 1352.2 1643.18 1351.21 1643.18 1350.03V1330.66ZM1663.31 1355.4C1661.47 1355.4 1659.87 1354.97 1658.5 1354.13C1657.12 1353.29 1656.06 1352.11 1655.3 1350.59C1654.54 1349.07 1654.16 1347.3 1654.16 1345.27C1654.16 1343.23 1654.54 1341.45 1655.3 1339.93C1656.06 1338.4 1657.12 1337.22 1658.5 1336.37C1659.87 1335.53 1661.47 1335.11 1663.31 1335.11C1665.16 1335.11 1666.76 1335.53 1668.13 1336.37C1669.51 1337.22 1670.57 1338.4 1671.33 1339.93C1672.09 1341.45 1672.47 1343.23 1672.47 1345.27C1672.47 1347.3 1672.09 1349.07 1671.33 1350.59C1670.57 1352.11 1669.51 1353.29 1668.13 1354.13C1666.76 1354.97 1665.16 1355.4 1663.31 1355.4ZM1663.33 1352.19C1664.52 1352.19 1665.51 1351.87 1666.29 1351.24C1667.08 1350.61 1667.66 1349.77 1668.03 1348.72C1668.42 1347.67 1668.61 1346.52 1668.61 1345.26C1668.61 1344.01 1668.42 1342.86 1668.03 1341.81C1667.66 1340.75 1667.08 1339.9 1666.29 1339.26C1665.51 1338.62 1664.52 1338.3 1663.33 1338.3C1662.13 1338.3 1661.13 1338.62 1660.34 1339.26C1659.55 1339.9 1658.97 1340.75 1658.58 1341.81C1658.21 1342.86 1658.02 1344.01 1658.02 1345.26C1658.02 1346.52 1658.21 1347.67 1658.58 1348.72C1658.97 1349.77 1659.55 1350.61 1660.34 1351.24C1661.13 1351.87 1662.13 1352.19 1663.33 1352.19ZM1685.01 1355.4C1683.17 1355.4 1681.56 1354.97 1680.19 1354.13C1678.81 1353.29 1677.75 1352.11 1676.99 1350.59C1676.23 1349.07 1675.85 1347.3 1675.85 1345.27C1675.85 1343.23 1676.23 1341.45 1676.99 1339.93C1677.75 1338.4 1678.81 1337.22 1680.19 1336.37C1681.56 1335.53 1683.17 1335.11 1685.01 1335.11C1686.85 1335.11 1688.45 1335.53 1689.83 1336.37C1691.2 1337.22 1692.26 1338.4 1693.02 1339.93C1693.78 1341.45 1694.16 1343.23 1694.16 1345.27C1694.16 1347.3 1693.78 1349.07 1693.02 1350.59C1692.26 1352.11 1691.2 1353.29 1689.83 1354.13C1688.45 1354.97 1686.85 1355.4 1685.01 1355.4ZM1685.02 1352.19C1686.21 1352.19 1687.2 1351.87 1687.99 1351.24C1688.77 1350.61 1689.35 1349.77 1689.72 1348.72C1690.11 1347.67 1690.3 1346.52 1690.3 1345.26C1690.3 1344.01 1690.11 1342.86 1689.72 1341.81C1689.35 1340.75 1688.77 1339.9 1687.99 1339.26C1687.2 1338.62 1686.21 1338.3 1685.02 1338.3C1683.82 1338.3 1682.82 1338.62 1682.03 1339.26C1681.24 1339.9 1680.66 1340.75 1680.28 1341.81C1679.9 1342.86 1679.71 1344.01 1679.71 1345.26C1679.71 1346.52 1679.9 1347.67 1680.28 1348.72C1680.66 1349.77 1681.24 1350.61 1682.03 1351.24C1682.82 1351.87 1683.82 1352.19 1685.02 1352.19ZM1707.59 1335.36V1338.43H1696.87V1335.36H1707.59ZM1699.74 1330.66H1703.57V1349.23C1703.57 1349.98 1703.68 1350.53 1703.9 1350.91C1704.12 1351.28 1704.41 1351.53 1704.75 1351.66C1705.11 1351.79 1705.5 1351.86 1705.92 1351.86C1706.22 1351.86 1706.49 1351.83 1706.72 1351.79C1706.95 1351.75 1707.13 1351.71 1707.26 1351.69L1707.95 1354.85C1707.73 1354.93 1707.41 1355.02 1707 1355.1C1706.6 1355.2 1706.08 1355.25 1705.47 1355.26C1704.46 1355.27 1703.53 1355.09 1702.66 1354.72C1701.79 1354.34 1701.09 1353.76 1700.55 1352.98C1700.01 1352.2 1699.74 1351.21 1699.74 1350.03V1330.66ZM1716.07 1343.34V1355H1712.24V1328.82H1716.01V1338.56H1716.26C1716.72 1337.5 1717.42 1336.66 1718.37 1336.04C1719.31 1335.42 1720.55 1335.11 1722.07 1335.11C1723.42 1335.11 1724.6 1335.38 1725.6 1335.94C1726.62 1336.49 1727.4 1337.32 1727.95 1338.42C1728.52 1339.51 1728.8 1340.87 1728.8 1342.51V1355H1724.98V1342.97C1724.98 1341.53 1724.61 1340.41 1723.86 1339.62C1723.12 1338.82 1722.09 1338.42 1720.77 1338.42C1719.87 1338.42 1719.06 1338.61 1718.34 1338.99C1717.63 1339.38 1717.08 1339.94 1716.67 1340.68C1716.27 1341.41 1716.07 1342.3 1716.07 1343.34Z" fill="#CDCDCD"/>
<path d="M29.0322 942.094H1480.65M1770.97 1058.25H29.0322M29.0322 1174.4H1770.97M319.355 884.019V1232.47M609.677 1232.47V884.019M900 884.019V1232.47M1190.32 1232.47V884.019M1480.65 884.019V1232.47" stroke="#CDCDCD" stroke-linecap="round" stroke-linejoin="round" stroke-dasharray="2 4"/>
<path d="M1770.97 884.019H29.0322V1232.47H1770.97V884.019Z" stroke="#CDCDCD" stroke-linecap="round" stroke-linejoin="round"/>
<path d="M29.0322 1058.25L174.194 942.094L464.516 1174.4L754.839 942.094L1045.16 1174.4L1335.48 942.094L1625.81 1174.4L1770.97 1058.25" stroke="#00E494" stroke-width="3" stroke-linecap="round" stroke-linejoin="round"/>
<path d="M1594.4 954.219V950.818H1614.66V954.219H1606.49V977H1602.56V954.219H1594.4ZM1616.79 977V957.364H1620.49V960.483H1620.69C1621.05 959.426 1621.68 958.595 1622.58 957.99C1623.5 957.376 1624.53 957.07 1625.68 957.07C1625.92 957.07 1626.2 957.078 1626.52 957.095C1626.85 957.112 1627.11 957.134 1627.3 957.159V960.815C1627.15 960.773 1626.88 960.726 1626.48 960.675C1626.09 960.615 1625.7 960.585 1625.31 960.585C1624.4 960.585 1623.6 960.777 1622.89 961.161C1622.19 961.536 1621.64 962.06 1621.23 962.733C1620.82 963.398 1620.62 964.156 1620.62 965.009V977H1616.79ZM1630.61 977V957.364H1634.43V977H1630.61ZM1632.54 954.334C1631.88 954.334 1631.3 954.112 1630.83 953.669C1630.36 953.217 1630.12 952.68 1630.12 952.058C1630.12 951.428 1630.36 950.891 1630.83 950.447C1631.3 949.996 1631.88 949.77 1632.54 949.77C1633.21 949.77 1633.77 949.996 1634.24 950.447C1634.72 950.891 1634.96 951.428 1634.96 952.058C1634.96 952.68 1634.72 953.217 1634.24 953.669C1633.77 954.112 1633.21 954.334 1632.54 954.334ZM1645.29 977.435C1644.05 977.435 1642.92 977.205 1641.91 976.744C1640.91 976.276 1640.11 975.598 1639.52 974.712C1638.94 973.825 1638.65 972.739 1638.65 971.452C1638.65 970.344 1638.87 969.432 1639.29 968.716C1639.72 968 1640.3 967.433 1641.02 967.016C1641.74 966.598 1642.55 966.283 1643.45 966.07C1644.34 965.857 1645.26 965.695 1646.18 965.584C1647.36 965.447 1648.31 965.337 1649.05 965.251C1649.78 965.158 1650.31 965.009 1650.65 964.804C1650.98 964.599 1651.14 964.267 1651.14 963.807V963.717C1651.14 962.601 1650.83 961.736 1650.2 961.122C1649.58 960.509 1648.65 960.202 1647.41 960.202C1646.12 960.202 1645.11 960.487 1644.37 961.058C1643.64 961.621 1643.13 962.247 1642.85 962.938L1639.26 962.119C1639.68 960.926 1640.3 959.963 1641.12 959.23C1641.95 958.489 1642.9 957.952 1643.97 957.619C1645.05 957.278 1646.18 957.108 1647.36 957.108C1648.14 957.108 1648.98 957.202 1649.85 957.389C1650.74 957.568 1651.57 957.901 1652.33 958.386C1653.11 958.872 1653.74 959.567 1654.24 960.47C1654.73 961.365 1654.98 962.528 1654.98 963.96V977H1651.25V974.315H1651.09C1650.85 974.81 1650.48 975.295 1649.98 975.773C1649.49 976.25 1648.85 976.646 1648.08 976.962C1647.3 977.277 1646.37 977.435 1645.29 977.435ZM1646.12 974.366C1647.18 974.366 1648.08 974.158 1648.83 973.74C1649.59 973.322 1650.16 972.777 1650.56 972.104C1650.96 971.422 1651.16 970.693 1651.16 969.918V967.386C1651.02 967.523 1650.76 967.651 1650.36 967.77C1649.98 967.881 1649.54 967.979 1649.05 968.064C1648.55 968.141 1648.07 968.213 1647.6 968.281C1647.13 968.341 1646.74 968.392 1646.43 968.435C1645.69 968.528 1645.01 968.686 1644.39 968.908C1643.79 969.129 1643.3 969.449 1642.94 969.866C1642.58 970.276 1642.4 970.821 1642.4 971.503C1642.4 972.449 1642.75 973.165 1643.45 973.651C1644.15 974.128 1645.04 974.366 1646.12 974.366ZM1663.89 965.341V977H1660.07V957.364H1663.74V960.56H1663.98C1664.43 959.52 1665.14 958.685 1666.11 958.054C1667.08 957.423 1668.3 957.108 1669.77 957.108C1671.11 957.108 1672.28 957.389 1673.29 957.952C1674.3 958.506 1675.08 959.332 1675.63 960.432C1676.18 961.531 1676.46 962.891 1676.46 964.51V977H1672.64V964.97C1672.64 963.547 1672.27 962.435 1671.53 961.634C1670.78 960.824 1669.77 960.419 1668.47 960.419C1667.58 960.419 1666.8 960.611 1666.11 960.994C1665.42 961.378 1664.88 961.94 1664.48 962.682C1664.09 963.415 1663.89 964.301 1663.89 965.341ZM1689.82 984.773C1688.26 984.773 1686.92 984.568 1685.79 984.159C1684.68 983.75 1683.76 983.209 1683.06 982.536C1682.35 981.862 1681.82 981.125 1681.47 980.324L1684.76 978.969C1684.99 979.344 1685.29 979.74 1685.68 980.158C1686.07 980.584 1686.6 980.946 1687.26 981.244C1687.94 981.543 1688.8 981.692 1689.86 981.692C1691.31 981.692 1692.5 981.338 1693.45 980.631C1694.4 979.932 1694.87 978.815 1694.87 977.281V973.42H1694.63C1694.4 973.838 1694.06 974.303 1693.63 974.814C1693.2 975.325 1692.61 975.768 1691.86 976.143C1691.11 976.518 1690.14 976.706 1688.94 976.706C1687.39 976.706 1685.99 976.344 1684.74 975.619C1683.51 974.886 1682.53 973.808 1681.8 972.385C1681.09 970.953 1680.73 969.193 1680.73 967.105C1680.73 965.017 1681.08 963.227 1681.79 961.736C1682.51 960.244 1683.49 959.102 1684.73 958.31C1685.98 957.509 1687.39 957.108 1688.96 957.108C1690.18 957.108 1691.17 957.312 1691.92 957.722C1692.67 958.122 1693.25 958.591 1693.67 959.128C1694.09 959.665 1694.42 960.138 1694.65 960.547H1694.93V957.364H1698.68V977.435C1698.68 979.122 1698.29 980.507 1697.5 981.589C1696.72 982.672 1695.66 983.473 1694.32 983.993C1692.99 984.513 1691.49 984.773 1689.82 984.773ZM1689.78 973.536C1690.88 973.536 1691.81 973.28 1692.57 972.768C1693.34 972.249 1693.91 971.507 1694.31 970.544C1694.71 969.572 1694.91 968.409 1694.91 967.054C1694.91 965.733 1694.71 964.57 1694.32 963.564C1693.93 962.558 1693.35 961.774 1692.59 961.212C1691.84 960.641 1690.9 960.355 1689.78 960.355C1688.63 960.355 1687.67 960.653 1686.9 961.25C1686.14 961.838 1685.56 962.639 1685.17 963.653C1684.78 964.668 1684.59 965.801 1684.59 967.054C1684.59 968.341 1684.79 969.47 1685.18 970.442C1685.57 971.413 1686.15 972.172 1686.92 972.717C1687.69 973.263 1688.65 973.536 1689.78 973.536ZM1707.63 950.818V977H1703.81V950.818H1707.63ZM1721.23 977.396C1719.3 977.396 1717.63 976.983 1716.23 976.156C1714.85 975.321 1713.77 974.149 1713.01 972.641C1712.26 971.124 1711.89 969.347 1711.89 967.31C1711.89 965.298 1712.26 963.526 1713.01 961.991C1713.77 960.457 1714.83 959.26 1716.18 958.399C1717.55 957.538 1719.14 957.108 1720.96 957.108C1722.07 957.108 1723.15 957.291 1724.19 957.658C1725.23 958.024 1726.16 958.599 1726.99 959.384C1727.81 960.168 1728.46 961.186 1728.94 962.439C1729.42 963.683 1729.66 965.196 1729.66 966.977V968.332H1714.05V965.469H1725.91C1725.91 964.463 1725.71 963.572 1725.3 962.797C1724.89 962.013 1724.31 961.395 1723.57 960.943C1722.84 960.491 1721.98 960.266 1720.99 960.266C1719.92 960.266 1718.98 960.53 1718.18 961.058C1717.39 961.578 1716.77 962.26 1716.34 963.104C1715.91 963.939 1715.7 964.847 1715.7 965.827V968.064C1715.7 969.376 1715.93 970.493 1716.39 971.413C1716.86 972.334 1717.51 973.037 1718.34 973.523C1719.18 974 1720.16 974.239 1721.27 974.239C1722 974.239 1722.66 974.136 1723.25 973.932C1723.85 973.719 1724.37 973.403 1724.8 972.986C1725.23 972.568 1725.57 972.053 1725.8 971.439L1729.42 972.091C1729.13 973.156 1728.61 974.089 1727.86 974.891C1727.11 975.683 1726.18 976.301 1725.06 976.744C1723.94 977.179 1722.67 977.396 1721.23 977.396Z" fill="#CDCDCD"/>
<path d="M29.0322 564.604H1480.65M1770.97 680.755H29.0322M29.0322 796.906H1770.97M319.355 506.528V854.981M609.677 854.981V506.528M900 506.528V854.981M1190.32 854.981V506.528M1480.65 506.528V854.981" stroke="#CDCDCD" stroke-linecap="round" stroke-linejoin="round" stroke-dasharray="2 4"/>
<path d="M1770.97 506.528H29.0322V854.981H1770.97V506.528Z" stroke="#CDCDCD" stroke-linecap="round" stroke-linejoin="round"/>
<path d="M29.0322 564.604H319.355V796.906H609.677V564.604H900V796.906H1190.32V564.604H1480.65V796.906H1770.97" stroke="#00E494" stroke-width="3" stroke-linecap="round" stroke-linejoin="round"/>
<path d="M1624.53 580.696C1624.4 579.486 1623.84 578.548 1622.85 577.884C1621.86 577.21 1620.61 576.874 1619.11 576.874C1618.04 576.874 1617.11 577.044 1616.33 577.385C1615.54 577.717 1614.93 578.178 1614.5 578.766C1614.07 579.345 1613.86 580.006 1613.86 580.747C1613.86 581.369 1614 581.906 1614.29 582.358C1614.59 582.81 1614.98 583.189 1615.46 583.496C1615.94 583.794 1616.46 584.045 1617.02 584.25C1617.57 584.446 1618.1 584.608 1618.61 584.736L1621.17 585.401C1622.01 585.605 1622.86 585.882 1623.74 586.232C1624.62 586.581 1625.43 587.041 1626.18 587.612C1626.93 588.183 1627.54 588.891 1628 589.734C1628.47 590.578 1628.7 591.588 1628.7 592.764C1628.7 594.247 1628.32 595.564 1627.55 596.714C1626.79 597.865 1625.69 598.773 1624.24 599.438C1622.8 600.102 1621.06 600.435 1619.01 600.435C1617.05 600.435 1615.35 600.124 1613.92 599.501C1612.49 598.879 1611.37 597.997 1610.56 596.855C1609.75 595.705 1609.3 594.341 1609.22 592.764H1613.18C1613.26 593.71 1613.57 594.499 1614.1 595.129C1614.65 595.751 1615.34 596.216 1616.19 596.523C1617.04 596.821 1617.97 596.97 1618.99 596.97C1620.1 596.97 1621.1 596.795 1621.96 596.446C1622.84 596.088 1623.53 595.594 1624.04 594.963C1624.54 594.324 1624.79 593.578 1624.79 592.726C1624.79 591.95 1624.57 591.315 1624.12 590.821C1623.69 590.327 1623.1 589.918 1622.35 589.594C1621.61 589.27 1620.77 588.984 1619.83 588.737L1616.74 587.893C1614.64 587.322 1612.98 586.483 1611.75 585.375C1610.53 584.267 1609.92 582.801 1609.92 580.977C1609.92 579.469 1610.33 578.152 1611.15 577.027C1611.97 575.902 1613.08 575.028 1614.47 574.406C1615.87 573.776 1617.45 573.46 1619.2 573.46C1620.98 573.46 1622.54 573.771 1623.89 574.393C1625.26 575.016 1626.33 575.872 1627.12 576.963C1627.9 578.045 1628.31 579.29 1628.34 580.696H1624.53ZM1646.37 607.364V596.945H1646.14C1645.91 597.362 1645.58 597.839 1645.15 598.376C1644.72 598.913 1644.13 599.382 1643.38 599.783C1642.63 600.183 1641.66 600.384 1640.47 600.384C1638.88 600.384 1637.47 599.979 1636.22 599.169C1634.99 598.351 1634.01 597.187 1633.31 595.679C1632.61 594.162 1632.26 592.342 1632.26 590.22C1632.26 588.098 1632.61 586.283 1633.32 584.774C1634.04 583.266 1635.02 582.111 1636.26 581.31C1637.5 580.509 1638.91 580.108 1640.49 580.108C1641.71 580.108 1642.69 580.312 1643.43 580.722C1644.18 581.122 1644.76 581.591 1645.17 582.128C1645.59 582.665 1645.91 583.138 1646.14 583.547H1646.46V580.364H1650.19V607.364H1646.37ZM1641.31 597.124C1642.41 597.124 1643.34 596.834 1644.1 596.254C1644.86 595.666 1645.44 594.852 1645.84 593.812C1646.24 592.773 1646.44 591.562 1646.44 590.182C1646.44 588.818 1646.24 587.625 1645.85 586.602C1645.46 585.58 1644.88 584.783 1644.12 584.212C1643.36 583.641 1642.43 583.355 1641.31 583.355C1640.16 583.355 1639.2 583.653 1638.43 584.25C1637.67 584.847 1637.09 585.661 1636.69 586.692C1636.31 587.723 1636.12 588.886 1636.12 590.182C1636.12 591.494 1636.32 592.675 1636.71 593.723C1637.1 594.771 1637.68 595.602 1638.45 596.216C1639.22 596.821 1640.18 597.124 1641.31 597.124ZM1667.77 591.857V580.364H1671.61V600H1667.85V596.599H1667.65C1667.19 597.648 1666.47 598.521 1665.47 599.22C1664.48 599.911 1663.25 600.256 1661.78 600.256C1660.52 600.256 1659.4 599.979 1658.43 599.425C1657.46 598.862 1656.71 598.031 1656.15 596.932C1655.61 595.832 1655.33 594.473 1655.33 592.854V580.364H1659.16V592.393C1659.16 593.732 1659.53 594.797 1660.27 595.589C1661.01 596.382 1661.97 596.778 1663.16 596.778C1663.87 596.778 1664.59 596.599 1665.29 596.241C1666.01 595.884 1666.6 595.342 1667.07 594.618C1667.55 593.893 1667.78 592.973 1667.77 591.857ZM1682.46 600.435C1681.21 600.435 1680.09 600.205 1679.08 599.744C1678.08 599.276 1677.28 598.598 1676.69 597.712C1676.11 596.825 1675.82 595.739 1675.82 594.452C1675.82 593.344 1676.04 592.432 1676.46 591.716C1676.89 591 1677.46 590.433 1678.19 590.016C1678.91 589.598 1679.72 589.283 1680.62 589.07C1681.51 588.857 1682.42 588.695 1683.35 588.584C1684.53 588.447 1685.48 588.337 1686.22 588.251C1686.95 588.158 1687.48 588.009 1687.82 587.804C1688.15 587.599 1688.31 587.267 1688.31 586.807V586.717C1688.31 585.601 1688 584.736 1687.37 584.122C1686.75 583.509 1685.82 583.202 1684.58 583.202C1683.29 583.202 1682.28 583.487 1681.54 584.058C1680.81 584.621 1680.3 585.247 1680.02 585.938L1676.42 585.119C1676.85 583.926 1677.47 582.963 1678.29 582.23C1679.12 581.489 1680.07 580.952 1681.14 580.619C1682.22 580.278 1683.35 580.108 1684.53 580.108C1685.31 580.108 1686.14 580.202 1687.02 580.389C1687.91 580.568 1688.74 580.901 1689.5 581.386C1690.28 581.872 1690.91 582.567 1691.41 583.47C1691.9 584.365 1692.15 585.528 1692.15 586.96V600H1688.42V597.315H1688.26C1688.02 597.81 1687.64 598.295 1687.15 598.773C1686.66 599.25 1686.02 599.646 1685.25 599.962C1684.47 600.277 1683.54 600.435 1682.46 600.435ZM1683.29 597.366C1684.35 597.366 1685.25 597.158 1686 596.74C1686.76 596.322 1687.33 595.777 1687.73 595.104C1688.13 594.422 1688.33 593.693 1688.33 592.918V590.386C1688.19 590.523 1687.93 590.651 1687.53 590.77C1687.15 590.881 1686.71 590.979 1686.22 591.064C1685.72 591.141 1685.24 591.213 1684.77 591.281C1684.3 591.341 1683.91 591.392 1683.6 591.435C1682.85 591.528 1682.18 591.686 1681.56 591.908C1680.96 592.129 1680.47 592.449 1680.11 592.866C1679.75 593.276 1679.57 593.821 1679.57 594.503C1679.57 595.449 1679.92 596.165 1680.62 596.651C1681.32 597.128 1682.21 597.366 1683.29 597.366ZM1697.24 600V580.364H1700.93V583.483H1701.14C1701.5 582.426 1702.13 581.595 1703.03 580.99C1703.94 580.376 1704.97 580.07 1706.13 580.07C1706.36 580.07 1706.65 580.078 1706.97 580.095C1707.3 580.112 1707.56 580.134 1707.75 580.159V583.815C1707.6 583.773 1707.32 583.726 1706.93 583.675C1706.54 583.615 1706.15 583.585 1705.75 583.585C1704.85 583.585 1704.05 583.777 1703.34 584.161C1702.64 584.536 1702.09 585.06 1701.68 585.733C1701.27 586.398 1701.06 587.156 1701.06 588.009V600H1697.24ZM1718.82 600.396C1716.88 600.396 1715.22 599.983 1713.82 599.156C1712.43 598.321 1711.35 597.149 1710.6 595.641C1709.85 594.124 1709.47 592.347 1709.47 590.31C1709.47 588.298 1709.85 586.526 1710.6 584.991C1711.35 583.457 1712.41 582.26 1713.77 581.399C1715.13 580.538 1716.72 580.108 1718.55 580.108C1719.66 580.108 1720.73 580.291 1721.77 580.658C1722.81 581.024 1723.74 581.599 1724.57 582.384C1725.4 583.168 1726.05 584.186 1726.53 585.439C1727 586.683 1727.24 588.196 1727.24 589.977V591.332H1711.63V588.469H1723.5C1723.5 587.463 1723.29 586.572 1722.88 585.797C1722.47 585.013 1721.9 584.395 1721.16 583.943C1720.42 583.491 1719.56 583.266 1718.57 583.266C1717.5 583.266 1716.56 583.53 1715.76 584.058C1714.97 584.578 1714.35 585.26 1713.92 586.104C1713.49 586.939 1713.28 587.847 1713.28 588.827V591.064C1713.28 592.376 1713.51 593.493 1713.97 594.413C1714.44 595.334 1715.09 596.037 1715.93 596.523C1716.76 597 1717.74 597.239 1718.85 597.239C1719.58 597.239 1720.24 597.136 1720.84 596.932C1721.43 596.719 1721.95 596.403 1722.38 595.986C1722.82 595.568 1723.15 595.053 1723.38 594.439L1727 595.091C1726.71 596.156 1726.19 597.089 1725.44 597.891C1724.7 598.683 1723.76 599.301 1722.64 599.744C1721.52 600.179 1720.25 600.396 1718.82 600.396Z" fill="#CDCDCD"/>
<path d="M29.0322 187.113H1480.65M1770.97 303.264H29.0322M29.0322 419.415H1770.97M319.355 129.038V477.491M609.677 477.491V129.038M900 129.038V477.491M1190.32 477.491V129.038M1480.65 129.038V477.491" stroke="#CDCDCD" stroke-linecap="round" stroke-linejoin="round" stroke-dasharray="2 4"/>
<path d="M1770.97 129.038H29.0322V477.491H1770.97V129.038Z" stroke="#CDCDCD" stroke-linecap="round" stroke-linejoin="round"/>
<path d="M29.0322 303.264C72.5806 245.189 116.129 187.113 174.194 187.113C290.323 187.113 348.387 419.415 464.516 419.415C580.645 419.415 638.71 187.113 754.839 187.113C870.968 187.113 929.032 419.415 1045.16 419.415C1161.29 419.415 1219.35 187.113 1335.48 187.113C1451.61 187.113 1509.68 419.415 1625.81 419.415C1683.87 419.415 1727.42 361.34 1770.97 303.264" stroke="#00E494" stroke-width="3" stroke-linecap="round" stroke-linejoin="round"/>
<path d="M1671.71 202.696C1671.57 201.486 1671.01 200.548 1670.02 199.884C1669.04 199.21 1667.79 198.874 1666.29 198.874C1665.22 198.874 1664.29 199.044 1663.5 199.385C1662.72 199.717 1662.11 200.178 1661.68 200.766C1661.25 201.345 1661.04 202.006 1661.04 202.747C1661.04 203.369 1661.18 203.906 1661.47 204.358C1661.77 204.81 1662.16 205.189 1662.63 205.496C1663.12 205.794 1663.64 206.045 1664.19 206.25C1664.75 206.446 1665.28 206.608 1665.79 206.736L1668.35 207.401C1669.18 207.605 1670.04 207.882 1670.92 208.232C1671.8 208.581 1672.61 209.041 1673.36 209.612C1674.11 210.183 1674.72 210.891 1675.18 211.734C1675.64 212.578 1675.88 213.588 1675.88 214.764C1675.88 216.247 1675.5 217.564 1674.73 218.714C1673.97 219.865 1672.87 220.773 1671.42 221.438C1669.98 222.102 1668.23 222.435 1666.19 222.435C1664.23 222.435 1662.53 222.124 1661.1 221.501C1659.67 220.879 1658.55 219.997 1657.74 218.855C1656.93 217.705 1656.48 216.341 1656.4 214.764H1660.36C1660.44 215.71 1660.74 216.499 1661.28 217.129C1661.82 217.751 1662.52 218.216 1663.36 218.523C1664.22 218.821 1665.15 218.97 1666.16 218.97C1667.28 218.97 1668.27 218.795 1669.14 218.446C1670.02 218.088 1670.71 217.594 1671.21 216.963C1671.72 216.324 1671.97 215.578 1671.97 214.726C1671.97 213.95 1671.75 213.315 1671.3 212.821C1670.87 212.327 1670.28 211.918 1669.53 211.594C1668.78 211.27 1667.94 210.984 1667.01 210.737L1663.91 209.893C1661.82 209.322 1660.15 208.483 1658.93 207.375C1657.71 206.267 1657.1 204.801 1657.1 202.977C1657.1 201.469 1657.51 200.152 1658.33 199.027C1659.14 197.902 1660.25 197.028 1661.65 196.406C1663.05 195.776 1664.62 195.46 1666.38 195.46C1668.15 195.46 1669.72 195.771 1671.07 196.393C1672.44 197.016 1673.51 197.872 1674.29 198.963C1675.08 200.045 1675.49 201.29 1675.52 202.696H1671.71ZM1680.29 222V202.364H1684.12V222H1680.29ZM1682.22 199.334C1681.56 199.334 1680.99 199.112 1680.51 198.669C1680.04 198.217 1679.81 197.68 1679.81 197.058C1679.81 196.428 1680.04 195.891 1680.51 195.447C1680.99 194.996 1681.56 194.77 1682.22 194.77C1682.89 194.77 1683.45 194.996 1683.92 195.447C1684.4 195.891 1684.64 196.428 1684.64 197.058C1684.64 197.68 1684.4 198.217 1683.92 198.669C1683.45 199.112 1682.89 199.334 1682.22 199.334ZM1693.08 210.341V222H1689.26V202.364H1692.93V205.56H1693.17C1693.62 204.52 1694.33 203.685 1695.29 203.054C1696.26 202.423 1697.49 202.108 1698.96 202.108C1700.3 202.108 1701.47 202.389 1702.48 202.952C1703.48 203.506 1704.26 204.332 1704.82 205.432C1705.37 206.531 1705.65 207.891 1705.65 209.51V222H1701.82V209.97C1701.82 208.547 1701.45 207.435 1700.71 206.634C1699.97 205.824 1698.95 205.419 1697.66 205.419C1696.77 205.419 1695.98 205.611 1695.29 205.994C1694.61 206.378 1694.07 206.94 1693.67 207.682C1693.28 208.415 1693.08 209.301 1693.08 210.341ZM1719.24 222.396C1717.3 222.396 1715.64 221.983 1714.24 221.156C1712.85 220.321 1711.77 219.149 1711.02 217.641C1710.27 216.124 1709.89 214.347 1709.89 212.31C1709.89 210.298 1710.27 208.526 1711.02 206.991C1711.77 205.457 1712.83 204.26 1714.19 203.399C1715.55 202.538 1717.14 202.108 1718.97 202.108C1720.08 202.108 1721.15 202.291 1722.19 202.658C1723.23 203.024 1724.16 203.599 1724.99 204.384C1725.82 205.168 1726.47 206.186 1726.95 207.439C1727.42 208.683 1727.66 210.196 1727.66 211.977V213.332H1712.05V210.469H1723.92C1723.92 209.463 1723.71 208.572 1723.3 207.797C1722.89 207.013 1722.32 206.395 1721.58 205.943C1720.84 205.491 1719.98 205.266 1718.99 205.266C1717.92 205.266 1716.98 205.53 1716.18 206.058C1715.39 206.578 1714.77 207.26 1714.34 208.104C1713.91 208.939 1713.7 209.847 1713.7 210.827V213.064C1713.7 214.376 1713.93 215.493 1714.39 216.413C1714.86 217.334 1715.51 218.037 1716.35 218.523C1717.18 219 1718.16 219.239 1719.27 219.239C1720 219.239 1720.66 219.136 1721.26 218.932C1721.85 218.719 1722.37 218.403 1722.8 217.986C1723.24 217.568 1723.57 217.053 1723.8 216.439L1727.42 217.091C1727.13 218.156 1726.61 219.089 1725.86 219.891C1725.12 220.683 1724.18 221.301 1723.06 221.744C1721.94 222.179 1720.67 222.396 1719.24 222.396Z" fill="#CDCDCD"/>
</svg>
