<svg width="1800" height="1539" viewBox="0 0 1800 1539" fill="none" xmlns="http://www.w3.org/2000/svg">
<path d="M1534.34 1213C1534.24 1211.97 1533.8 1211.17 1533.02 1210.6C1532.25 1210.03 1531.19 1209.74 1529.87 1209.74C1528.96 1209.74 1528.2 1209.87 1527.58 1210.12C1526.95 1210.37 1526.48 1210.72 1526.14 1211.16C1525.82 1211.6 1525.66 1212.11 1525.66 1212.67C1525.64 1213.14 1525.74 1213.55 1525.95 1213.9C1526.17 1214.25 1526.48 1214.55 1526.86 1214.8C1527.24 1215.05 1527.69 1215.27 1528.19 1215.46C1528.69 1215.63 1529.23 1215.79 1529.8 1215.92L1532.15 1216.48C1533.3 1216.73 1534.34 1217.07 1535.3 1217.5C1536.25 1217.93 1537.08 1218.45 1537.78 1219.07C1538.48 1219.7 1539.02 1220.43 1539.4 1221.27C1539.79 1222.12 1539.99 1223.08 1540 1224.17C1539.99 1225.78 1539.59 1227.17 1538.78 1228.34C1537.97 1229.51 1536.82 1230.42 1535.3 1231.07C1533.79 1231.7 1531.97 1232.02 1529.84 1232.02C1527.73 1232.02 1525.88 1231.7 1524.32 1231.05C1522.76 1230.4 1521.54 1229.45 1520.66 1228.18C1519.79 1226.9 1519.34 1225.32 1519.29 1223.43H1524.65C1524.71 1224.31 1524.96 1225.04 1525.4 1225.63C1525.86 1226.21 1526.46 1226.65 1527.21 1226.95C1527.96 1227.24 1528.82 1227.38 1529.78 1227.38C1530.71 1227.38 1531.53 1227.25 1532.22 1226.97C1532.92 1226.7 1533.46 1226.32 1533.84 1225.84C1534.22 1225.35 1534.42 1224.79 1534.42 1224.16C1534.42 1223.57 1534.24 1223.08 1533.89 1222.68C1533.55 1222.28 1533.05 1221.94 1532.38 1221.66C1531.73 1221.37 1530.92 1221.12 1529.97 1220.89L1527.12 1220.17C1524.91 1219.64 1523.17 1218.8 1521.89 1217.65C1520.61 1216.51 1519.97 1214.97 1519.98 1213.04C1519.97 1211.45 1520.4 1210.07 1521.25 1208.88C1522.11 1207.7 1523.29 1206.78 1524.79 1206.11C1526.29 1205.45 1527.99 1205.11 1529.9 1205.11C1531.85 1205.11 1533.54 1205.45 1534.99 1206.11C1536.45 1206.78 1537.58 1207.7 1538.39 1208.88C1539.2 1210.07 1539.62 1211.44 1539.64 1213H1534.34ZM1547.64 1231.65H1541.71L1550.75 1205.47H1557.88L1566.91 1231.65H1560.98L1554.42 1211.45H1554.21L1547.64 1231.65ZM1547.27 1221.36H1561.28V1225.68H1547.27V1221.36ZM1573.31 1231.65L1565.82 1205.47H1571.87L1576.2 1223.66H1576.42L1581.2 1205.47H1586.38L1591.15 1223.7H1591.38L1595.71 1205.47H1601.76L1594.27 1231.65H1588.87L1583.89 1214.54H1583.68L1578.71 1231.65H1573.31ZM1603.73 1210.04V1205.47H1625.23V1210.04H1617.21V1231.65H1611.74V1210.04H1603.73ZM1651.63 1218.56C1651.63 1221.42 1651.09 1223.85 1650.01 1225.85C1648.94 1227.85 1647.47 1229.38 1645.61 1230.44C1643.76 1231.49 1641.68 1232.01 1639.37 1232.01C1637.05 1232.01 1634.96 1231.48 1633.11 1230.43C1631.26 1229.37 1629.8 1227.84 1628.72 1225.84C1627.65 1223.83 1627.11 1221.41 1627.11 1218.56C1627.11 1215.71 1627.65 1213.28 1628.72 1211.28C1629.8 1209.27 1631.26 1207.75 1633.11 1206.7C1634.96 1205.64 1637.05 1205.11 1639.37 1205.11C1641.68 1205.11 1643.76 1205.64 1645.61 1206.7C1647.47 1207.75 1648.94 1209.27 1650.01 1211.28C1651.09 1213.28 1651.63 1215.71 1651.63 1218.56ZM1646.02 1218.56C1646.02 1216.71 1645.74 1215.15 1645.19 1213.88C1644.64 1212.61 1643.87 1211.65 1642.88 1210.99C1641.88 1210.34 1640.71 1210.01 1639.37 1210.01C1638.04 1210.01 1636.87 1210.34 1635.87 1210.99C1634.87 1211.65 1634.1 1212.61 1633.54 1213.88C1633 1215.15 1632.73 1216.71 1632.73 1218.56C1632.73 1220.41 1633 1221.97 1633.54 1223.24C1634.1 1224.51 1634.87 1225.47 1635.87 1226.13C1636.87 1226.79 1638.04 1227.11 1639.37 1227.11C1640.71 1227.11 1641.88 1226.79 1642.88 1226.13C1643.87 1225.47 1644.64 1224.51 1645.19 1223.24C1645.74 1221.97 1646.02 1220.41 1646.02 1218.56ZM1679.79 1218.56C1679.79 1221.42 1679.25 1223.85 1678.17 1225.85C1677.1 1227.85 1675.63 1229.38 1673.77 1230.44C1671.92 1231.49 1669.84 1232.01 1667.53 1232.01C1665.21 1232.01 1663.12 1231.48 1661.27 1230.43C1659.42 1229.37 1657.96 1227.84 1656.88 1225.84C1655.81 1223.83 1655.27 1221.41 1655.27 1218.56C1655.27 1215.71 1655.81 1213.28 1656.88 1211.28C1657.96 1209.27 1659.42 1207.75 1661.27 1206.7C1663.12 1205.64 1665.21 1205.11 1667.53 1205.11C1669.84 1205.11 1671.92 1205.64 1673.77 1206.7C1675.63 1207.75 1677.1 1209.27 1678.17 1211.28C1679.25 1213.28 1679.79 1215.71 1679.79 1218.56ZM1674.18 1218.56C1674.18 1216.71 1673.9 1215.15 1673.35 1213.88C1672.81 1212.61 1672.03 1211.65 1671.04 1210.99C1670.04 1210.34 1668.87 1210.01 1667.53 1210.01C1666.2 1210.01 1665.03 1210.34 1664.03 1210.99C1663.03 1211.65 1662.26 1212.61 1661.7 1213.88C1661.16 1215.15 1660.89 1216.71 1660.89 1218.56C1660.89 1220.41 1661.16 1221.97 1661.7 1223.24C1662.26 1224.51 1663.03 1225.47 1664.03 1226.13C1665.03 1226.79 1666.2 1227.11 1667.53 1227.11C1668.87 1227.11 1670.04 1226.79 1671.04 1226.13C1672.03 1225.47 1672.81 1224.51 1673.35 1223.24C1673.9 1221.97 1674.18 1220.41 1674.18 1218.56ZM1681.7 1210.04V1205.47H1703.2V1210.04H1695.19V1231.65H1689.72V1210.04H1681.7ZM1706.75 1231.65V1205.47H1712.28V1216.27H1723.52V1205.47H1729.04V1231.65H1723.52V1220.84H1712.28V1231.65H1706.75Z" fill="#CDCDCD"/>
<path d="M29.0322 87.1132H1483.55M1770.97 203.264H29.0322M29.0322 319.415H1770.97M319.355 29.0377V377.491M609.677 377.491V29.0377M900 29.0377V377.491M1190.32 377.491V29.0377M1480.65 29.0377V377.491" stroke="#CDCDCD" stroke-width="0.5" stroke-linecap="round" stroke-linejoin="round" stroke-dasharray="2 4"/>
<path d="M1770.97 29.0377H29.0322V377.491H1770.97V29.0377Z" stroke="#CDCDCD" stroke-width="1.5" stroke-linecap="round" stroke-linejoin="round"/>
<path d="M29.0322 464.604H1483.55M1770.97 580.755H29.0322M29.0322 696.906H1770.97M319.355 406.528V754.981M609.677 754.981V406.528M900 406.528V754.981M1190.32 754.981V406.528M1480.65 406.528V754.981" stroke="#CDCDCD" stroke-width="0.5" stroke-linecap="round" stroke-linejoin="round" stroke-dasharray="2 4"/>
<path d="M1770.97 406.528H29.0322V754.981H1770.97V406.528Z" stroke="#CDCDCD" stroke-width="1.5" stroke-linecap="round" stroke-linejoin="round"/>
<path d="M29.0322 842.094H1483.55M1770.97 958.245H29.0322M29.0322 1074.4H1770.97M319.355 784.019V1132.47M609.677 1132.47V784.019M900 784.019V1132.47M1190.32 1132.47V784.019M1480.65 784.019V1132.47" stroke="#CDCDCD" stroke-width="0.5" stroke-linecap="round" stroke-linejoin="round" stroke-dasharray="2 4"/>
<path d="M1770.97 784.019H29.0322V1132.47H1770.97V784.019Z" stroke="#CDCDCD" stroke-width="1.5" stroke-linecap="round" stroke-linejoin="round"/>
<path d="M29.0322 1219.58H1483.55M1770.97 1335.74H29.0322M29.0322 1451.89H1770.97M319.355 1161.51V1509.96M609.677 1509.96V1161.51M900 1161.51V1509.96M1190.32 1509.96V1161.51M1480.65 1161.51V1509.96" stroke="#CDCDCD" stroke-width="0.5" stroke-linecap="round" stroke-linejoin="round" stroke-dasharray="2 4"/>
<path d="M1770.97 1161.51H29.0322V1509.96H1770.97V1161.51Z" stroke="#CDCDCD" stroke-width="1.5" stroke-linecap="round" stroke-linejoin="round"/>
<path d="M29.0322 203.264C72.5806 145.189 116.129 87.1132 174.194 87.1132C290.323 87.1132 348.387 319.415 464.516 319.415C580.645 319.415 638.71 87.1132 754.839 87.1132C870.968 87.1132 929.032 319.415 1045.16 319.415C1161.29 319.415 1219.35 87.1132 1335.48 87.1132C1451.61 87.1132 1509.68 319.415 1625.81 319.415C1683.87 319.415 1727.42 261.34 1770.97 203.264" stroke="#00E494" stroke-width="2" stroke-linecap="round" stroke-linejoin="round"/>
<path d="M29.0322 464.604H319.355V696.906H609.677V464.604H900V696.906H1190.32V464.604H1480.65V696.906H1770.97" stroke="#00E494" stroke-width="2" stroke-linecap="round" stroke-linejoin="round"/>
<path d="M29.0322 958.245L174.194 842.094L464.516 1074.4L754.839 842.094L1045.16 1074.4L1335.48 842.094L1625.81 1074.4L1770.97 958.245" stroke="#00E494" stroke-width="2" stroke-linecap="round" stroke-linejoin="round"/>
<path d="M29.0322 1335.74L319.355 1219.58V1451.89L900 1219.58V1451.89L1480.65 1219.58V1451.89L1770.97 1335.74" stroke="#00E494" stroke-width="2" stroke-linecap="round" stroke-linejoin="round"/>
<path d="M1594.78 457.722C1594.68 456.69 1594.24 455.889 1593.47 455.318C1592.69 454.747 1591.64 454.462 1590.31 454.462C1589.4 454.462 1588.64 454.589 1588.02 454.845C1587.4 455.092 1586.92 455.437 1586.59 455.881C1586.26 456.324 1586.1 456.827 1586.1 457.389C1586.08 457.858 1586.18 458.267 1586.4 458.616C1586.62 458.966 1586.92 459.268 1587.3 459.524C1587.69 459.771 1588.13 459.989 1588.63 460.176C1589.14 460.355 1589.67 460.508 1590.24 460.636L1592.6 461.199C1593.74 461.455 1594.79 461.795 1595.74 462.222C1596.7 462.648 1597.52 463.172 1598.22 463.794C1598.92 464.416 1599.46 465.149 1599.84 465.993C1600.24 466.837 1600.44 467.804 1600.45 468.895C1600.44 470.497 1600.03 471.886 1599.22 473.062C1598.42 474.23 1597.26 475.138 1595.74 475.785C1594.23 476.425 1592.41 476.744 1590.28 476.744C1588.17 476.744 1586.33 476.42 1584.76 475.773C1583.2 475.125 1581.98 474.166 1581.1 472.896C1580.23 471.618 1579.78 470.037 1579.74 468.153H1585.09C1585.15 469.031 1585.4 469.764 1585.85 470.352C1586.3 470.932 1586.9 471.371 1587.65 471.669C1588.41 471.959 1589.26 472.104 1590.22 472.104C1591.16 472.104 1591.97 471.967 1592.66 471.695C1593.36 471.422 1593.9 471.043 1594.28 470.557C1594.67 470.071 1594.86 469.513 1594.86 468.882C1594.86 468.294 1594.68 467.8 1594.33 467.399C1593.99 466.999 1593.49 466.658 1592.83 466.376C1592.17 466.095 1591.36 465.839 1590.41 465.609L1587.56 464.893C1585.35 464.356 1583.61 463.517 1582.33 462.375C1581.05 461.233 1580.42 459.695 1580.43 457.76C1580.42 456.175 1580.84 454.79 1581.69 453.605C1582.55 452.42 1583.73 451.496 1585.23 450.831C1586.73 450.166 1588.44 449.834 1590.35 449.834C1592.29 449.834 1593.99 450.166 1595.43 450.831C1596.89 451.496 1598.03 452.42 1598.83 453.605C1599.64 454.79 1600.06 456.162 1600.09 457.722H1594.78ZM1614.05 467.271H1618.76L1621.12 470.314L1623.45 473.024L1627.83 478.521H1622.67L1619.65 474.814L1618.1 472.615L1614.05 467.271ZM1628.23 463.283C1628.23 466.138 1627.69 468.567 1626.6 470.57C1625.53 472.572 1624.07 474.102 1622.21 475.159C1620.36 476.207 1618.28 476.731 1615.97 476.731C1613.64 476.731 1611.55 476.203 1609.7 475.146C1607.85 474.089 1606.39 472.56 1605.32 470.557C1604.25 468.554 1603.71 466.129 1603.71 463.283C1603.71 460.428 1604.25 457.999 1605.32 455.996C1606.39 453.993 1607.85 452.467 1609.7 451.419C1611.55 450.362 1613.64 449.834 1615.97 449.834C1618.28 449.834 1620.36 450.362 1622.21 451.419C1624.07 452.467 1625.53 453.993 1626.6 455.996C1627.69 457.999 1628.23 460.428 1628.23 463.283ZM1622.62 463.283C1622.62 461.433 1622.34 459.874 1621.79 458.604C1621.24 457.334 1620.47 456.371 1619.47 455.714C1618.47 455.058 1617.31 454.73 1615.97 454.73C1614.63 454.73 1613.46 455.058 1612.47 455.714C1611.47 456.371 1610.69 457.334 1610.14 458.604C1609.59 459.874 1609.32 461.433 1609.32 463.283C1609.32 465.132 1609.59 466.692 1610.14 467.962C1610.69 469.231 1611.47 470.195 1612.47 470.851C1613.46 471.507 1614.63 471.835 1615.97 471.835C1617.31 471.835 1618.47 471.507 1619.47 470.851C1620.47 470.195 1621.24 469.231 1621.79 467.962C1622.34 466.692 1622.62 465.132 1622.62 463.283ZM1648.5 450.192H1654.04V467.195C1654.04 469.104 1653.58 470.774 1652.67 472.206C1651.77 473.638 1650.5 474.754 1648.87 475.555C1647.24 476.348 1645.35 476.744 1643.18 476.744C1641.01 476.744 1639.11 476.348 1637.48 475.555C1635.85 474.754 1634.59 473.638 1633.68 472.206C1632.78 470.774 1632.33 469.104 1632.33 467.195V450.192H1637.86V466.722C1637.86 467.719 1638.08 468.605 1638.52 469.381C1638.96 470.156 1639.58 470.766 1640.38 471.209C1641.18 471.652 1642.12 471.874 1643.18 471.874C1644.26 471.874 1645.19 471.652 1645.98 471.209C1646.78 470.766 1647.4 470.156 1647.84 469.381C1648.28 468.605 1648.5 467.719 1648.5 466.722V450.192ZM1663.1 476.374H1657.17L1666.21 450.192H1673.34L1682.37 476.374H1676.44L1669.88 456.175H1669.67L1663.1 476.374ZM1662.73 466.082H1676.74V470.403H1662.73V466.082ZM1685.52 476.374V450.192H1695.85C1697.83 450.192 1699.51 450.545 1700.91 451.253C1702.32 451.952 1703.39 452.945 1704.12 454.231C1704.86 455.51 1705.23 457.014 1705.23 458.744C1705.23 460.483 1704.86 461.979 1704.11 463.231C1703.36 464.476 1702.27 465.43 1700.85 466.095C1699.43 466.76 1697.72 467.092 1695.71 467.092H1688.79V462.643H1694.81C1695.87 462.643 1696.75 462.499 1697.45 462.209C1698.15 461.919 1698.67 461.484 1699.01 460.905C1699.36 460.325 1699.53 459.605 1699.53 458.744C1699.53 457.875 1699.36 457.142 1699.01 456.545C1698.67 455.949 1698.14 455.497 1697.44 455.19C1696.74 454.875 1695.85 454.717 1694.79 454.717H1691.06V476.374H1685.52ZM1699.66 464.459L1706.17 476.374H1700.06L1693.69 464.459H1699.66ZM1709.15 476.374V450.192H1726.79V454.756H1714.68V460.994H1725.88V465.558H1714.68V471.81H1726.84V476.374H1709.15Z" fill="#CDCDCD"/>
<path d="M1551.59 832.309V827.745H1573.09V832.309H1565.08V853.927H1559.6V832.309H1551.59ZM1576.63 853.927V827.745H1586.96C1588.94 827.745 1590.63 828.099 1592.02 828.806C1593.43 829.505 1594.5 830.498 1595.23 831.785C1595.97 833.063 1596.35 834.568 1596.35 836.298C1596.35 838.036 1595.97 839.532 1595.22 840.785C1594.47 842.029 1593.38 842.984 1591.96 843.649C1590.55 844.313 1588.83 844.646 1586.82 844.646H1579.91V840.197H1585.93C1586.98 840.197 1587.86 840.052 1588.56 839.762C1589.26 839.472 1589.78 839.038 1590.12 838.458C1590.47 837.879 1590.64 837.159 1590.64 836.298C1590.64 835.428 1590.47 834.695 1590.12 834.099C1589.78 833.502 1589.25 833.051 1588.55 832.744C1587.85 832.428 1586.97 832.271 1585.9 832.271H1582.17V853.927H1576.63ZM1590.77 842.012L1597.28 853.927H1591.17L1584.8 842.012H1590.77ZM1605.79 827.745V853.927H1600.26V827.745H1605.79ZM1614.86 853.927H1608.93L1617.97 827.745H1625.1L1634.13 853.927H1628.19L1621.64 833.728H1621.43L1614.86 853.927ZM1614.49 843.636H1628.5V847.957H1614.49V843.636ZM1659.18 827.745V853.927H1654.39L1643 837.448H1642.81V853.927H1637.28V827.745H1642.13L1653.44 844.211H1653.67V827.745H1659.18ZM1681.11 836.208C1680.93 835.586 1680.68 835.036 1680.36 834.559C1680.03 834.073 1679.64 833.664 1679.17 833.332C1678.71 832.991 1678.18 832.731 1677.58 832.552C1676.99 832.373 1676.34 832.284 1675.63 832.284C1674.29 832.284 1673.11 832.616 1672.1 833.281C1671.09 833.945 1670.31 834.913 1669.75 836.183C1669.18 837.444 1668.9 838.987 1668.9 840.811C1668.9 842.634 1669.18 844.186 1669.73 845.464C1670.29 846.742 1671.07 847.718 1672.08 848.391C1673.1 849.056 1674.3 849.389 1675.68 849.389C1676.93 849.389 1678 849.167 1678.89 848.724C1679.78 848.272 1680.46 847.637 1680.93 846.819C1681.41 846.001 1681.65 845.034 1681.65 843.917L1682.77 844.083H1676.02V839.916H1686.98V843.214C1686.98 845.515 1686.49 847.492 1685.52 849.146C1684.55 850.791 1683.21 852.061 1681.51 852.955C1679.8 853.842 1677.85 854.285 1675.65 854.285C1673.2 854.285 1671.04 853.744 1669.18 852.661C1667.32 851.57 1665.88 850.024 1664.84 848.021C1663.8 846.009 1663.29 843.623 1663.29 840.862C1663.29 838.74 1663.6 836.847 1664.21 835.186C1664.83 833.515 1665.7 832.1 1666.82 830.941C1667.93 829.782 1669.23 828.9 1670.72 828.295C1672.2 827.69 1673.81 827.387 1675.54 827.387C1677.02 827.387 1678.4 827.605 1679.68 828.039C1680.96 828.465 1682.09 829.07 1683.08 829.855C1684.08 830.639 1684.89 831.572 1685.52 832.654C1686.15 833.728 1686.56 834.913 1686.74 836.208H1681.11ZM1691.14 853.927V827.745H1696.67V849.363H1707.9V853.927H1691.14ZM1711.56 853.927V827.745H1729.2V832.309H1717.1V838.548H1728.3V843.112H1717.1V849.363H1729.26V853.927H1711.56Z" fill="#CDCDCD"/>
<path d="M1663.62 80.2311C1663.51 79.1998 1663.07 78.3987 1662.3 77.8277C1661.52 77.2566 1660.47 76.9711 1659.14 76.9711C1658.24 76.9711 1657.48 77.099 1656.85 77.3546C1656.23 77.6018 1655.75 77.947 1655.42 78.3902C1655.1 78.8333 1654.94 79.3362 1654.94 79.8987C1654.92 80.3674 1655.02 80.7765 1655.23 81.126C1655.45 81.4754 1655.75 81.7779 1656.14 82.0336C1656.52 82.2808 1656.96 82.4981 1657.47 82.6856C1657.97 82.8646 1658.51 83.018 1659.08 83.1458L1661.43 83.7083C1662.57 83.964 1663.62 84.3049 1664.57 84.7311C1665.53 85.1572 1666.36 85.6814 1667.05 86.3035C1667.75 86.9257 1668.29 87.6586 1668.68 88.5024C1669.07 89.3461 1669.27 90.3135 1669.28 91.4044C1669.27 93.0066 1668.86 94.3958 1668.05 95.572C1667.25 96.7396 1666.09 97.6473 1664.57 98.295C1663.07 98.9342 1661.25 99.2538 1659.12 99.2538C1657 99.2538 1655.16 98.9299 1653.59 98.2822C1652.03 97.6345 1650.81 96.6757 1649.94 95.4058C1649.07 94.1274 1648.61 92.5464 1648.57 90.6629H1653.93C1653.99 91.5407 1654.24 92.2737 1654.68 92.8617C1655.13 93.4413 1655.73 93.8802 1656.48 94.1785C1657.24 94.4683 1658.1 94.6132 1659.05 94.6132C1659.99 94.6132 1660.8 94.4768 1661.49 94.2041C1662.19 93.9314 1662.73 93.5521 1663.12 93.0663C1663.5 92.5805 1663.69 92.0223 1663.69 91.3916C1663.69 90.8035 1663.52 90.3092 1663.17 89.9086C1662.83 89.5081 1662.32 89.1671 1661.66 88.8859C1661 88.6046 1660.2 88.349 1659.24 88.1189L1656.39 87.4029C1654.19 86.866 1652.44 86.0265 1651.16 84.8845C1649.89 83.7424 1649.25 82.2041 1649.26 80.2694C1649.25 78.6842 1649.67 77.2992 1650.52 76.1146C1651.39 74.9299 1652.57 74.0052 1654.07 73.3404C1655.57 72.6757 1657.27 72.3433 1659.18 72.3433C1661.12 72.3433 1662.82 72.6757 1664.27 73.3404C1665.73 74.0052 1666.86 74.9299 1667.67 76.1146C1668.48 77.2992 1668.9 78.6714 1668.92 80.2311H1663.62ZM1678.54 72.7012V98.8831H1673V72.7012H1678.54ZM1704.99 72.7012V98.8831H1700.21L1688.82 82.4044H1688.63V98.8831H1683.09V72.7012H1687.95L1699.25 89.1671H1699.48V72.7012H1704.99ZM1709.57 98.8831V72.7012H1727.21V77.2652H1715.1V83.5038H1726.3V88.0677H1715.1V94.3191H1727.26V98.8831H1709.57Z" fill="#CDCDCD"/>
</svg>
